<?xml version="1.0" encoding="utf-8"?>
<!-- Generator: Adobe Illustrator 24.1.1, SVG Export Plug-In . SVG Version: 6.00 Build 0)  -->
<svg version="1.1" id="Слой_1" xmlns="http://www.w3.org/2000/svg" xmlns:xlink="http://www.w3.org/1999/xlink" x="0px" y="0px"
	 viewBox="0 0 8192 2758" style="enable-background:new 0 0 8192 2758;" xml:space="preserve">
<style type="text/css">
	.st0{fill:#159BBA;}
	.st1{fill-rule:evenodd;clip-rule:evenodd;fill:#159BBA;}
	.st2{fill:#6D6D71;}
	.st3{opacity:0.4;fill-rule:evenodd;clip-rule:evenodd;fill:url(#Rectangle_9_);enable-background:new    ;}
	.st4{opacity:0.4;fill-rule:evenodd;clip-rule:evenodd;fill:url(#Rectangle_10_);enable-background:new    ;}
	.st5{opacity:0.4;fill-rule:evenodd;clip-rule:evenodd;fill:url(#Rectangle_11_);enable-background:new    ;}
	.st6{opacity:0.4;fill-rule:evenodd;clip-rule:evenodd;fill:url(#Rectangle_12_);enable-background:new    ;}
	.st7{fill-rule:evenodd;clip-rule:evenodd;fill:#5BD1DD;}
	.st8{fill-rule:evenodd;clip-rule:evenodd;fill:#38B9CE;}
</style>
<desc>Created with Sketch.</desc>
<g>
	<g>
		<path id="агентствонедвижимости" class="st0" d="M2349.2,1873.1c14.9,0,27-2.1,36.3-6.4
			c9.2-4.3,18.2-11.9,27-23l0,0h1.4l10.1,26h36.3v-127.1c0-22.7-6.8-39.7-20.4-50.9c-13.6-11.2-33.3-16.7-58.9-16.7
			c-26.8,0-51.1,5.8-73,17.2l0,0l17.2,35.1c20.6-9.2,38.5-13.8,53.8-13.8c19.8,0,29.7,9.7,29.7,29l0,0v8.4l-33.1,1.1
			c-28.5,1.1-49.9,6.3-64.1,16c-14.2,9.7-21.2,24.6-21.2,44.8c0,19.3,5.3,34.2,15.8,44.7C2316.5,1867.9,2330.9,1873.1,2349.2,1873.1
			z M2368.8,1835.1c-16.9,0-25.2-7.3-25.2-22c0-10.2,3.7-17.8,11.1-22.9s18.7-7.7,33.8-8.2l0,0l20.1-0.6v15.7
			c0,11.5-3.6,20.7-10.9,27.7C2390.6,1831.6,2380.9,1835.1,2368.8,1835.1z M2565.9,1869.7V1718h79.6v-39.1h-131.7v190.7H2565.9z
			 M2767.2,1873.1c14.9,0,27.5-1.1,37.9-3.3c10.4-2.2,20.1-5.6,29.2-10.1l0,0v-40.2c-11.1,5.3-21.8,9-32,11.4
			c-10.2,2.4-21.1,3.6-32.6,3.6c-14.8,0-26.3-4.1-34.5-12.5c-8.2-8.4-12.6-19.9-13.1-34.6l0,0h123v-25.2c0-27.1-7.5-48.3-22.5-63.7
			c-15-15.3-36-23-62.9-23c-28.2,0-50.3,8.8-66.3,26.2s-24,42.2-24,74.1c0,31.1,8.7,55.1,26,72
			C2712.5,1864.7,2736.4,1873.1,2767.2,1873.1z M2796.2,1752.7h-73c0.9-12.8,4.5-22.8,10.8-29.8c6.3-7,14.9-10.5,26-10.5
			s19.8,3.5,26.3,10.5C2792.7,1729.9,2796,1739.9,2796.2,1752.7L2796.2,1752.7z M2939.4,1869.7V1791h72.7v78.7h52.1v-190.7H3012
			v73.4h-72.7v-73.4h-52.1v190.7H2939.4z M3214,1869.7V1718h62.4v-39.1h-177.1v39.1h62.6v151.7H3214z M3389.4,1873.1
			c13.1,0,23.9-1.1,32.5-3.1c8.6-2,17.1-5.8,25.5-11.1l0,0v-44.5c-8.5,5.7-17,9.9-25.6,12.6c-8.5,2.7-17.8,4-27.8,4
			c-27.1,0-40.6-18.7-40.6-56c0-38.4,13.5-57.7,40.6-57.7c7.1,0,14.1,1.1,21.2,3.2c7.1,2.1,14.7,4.8,22.9,8.1l0,0l15.3-40.2
			c-17.5-8.7-37.3-13-59.4-13c-30.2,0-53.3,8.6-69.4,25.7c-16.1,17.1-24.2,41.8-24.2,74.3C3300.3,1840.5,3330,1873.1,3389.4,1873.1z
			 M3587,1869.7V1718h62.4v-39.1h-177.1v39.1h62.6v151.7H3587z M3782.7,1869.7c27.1,0,47.8-4.9,62.4-14.6s21.8-23.8,21.8-42.4
			c0-11.3-4-20.8-11.8-28.4c-7.9-7.7-18.7-12.3-32.2-13.9l0,0v-1.4c12.5-2,22-6.7,28.4-13.9c6.4-7.2,9.7-16,9.7-26.2
			c0-16.4-6.5-28.8-19.5-37.3c-13.1-8.4-32.6-12.7-58.8-12.7l0,0h-97.7v190.7H3782.7z M3774.6,1753.4h-37.7v-37.7h43.7
			c18.4,0,27.7,5.8,27.7,17.4c0,7.1-2.8,12.3-8.5,15.5C3794,1751.8,3785.7,1753.4,3774.6,1753.4L3774.6,1753.4z M3779.2,1833.7
			h-42.3v-45h41.3c11.6,0,20.3,1.7,26.1,5c5.8,3.3,8.7,8.8,8.7,16.3s-2.8,13.3-8.6,17.5C3798.6,1831.7,3790.2,1833.7,3779.2,1833.7
			L3779.2,1833.7z M3988.6,1873.1c29.2,0,52.1-8.8,68.4-26.3c16.4-17.5,24.6-41.8,24.6-72.8c0-20-3.7-37.5-11.3-52.4
			c-7.5-14.9-18.2-26.4-32.3-34.3c-13.9-7.9-30.2-11.9-48.4-11.9c-29.4,0-52.3,8.7-68.6,26s-24.4,41.5-24.4,72.7
			c0,20,3.7,37.5,11.3,52.6s18.2,26.5,32.3,34.5C3954.1,1869.1,3970.2,1873.1,3988.6,1873.1z M3989.2,1831.3
			c-13.9,0-24.1-4.9-30.3-14.5s-9.3-23.9-9.3-42.8c0-19,3.1-33.2,9.2-42.6s16.1-14.1,30-14.1c13.9,0,24.1,4.7,30.2,14.2
			c6.2,9.4,9.2,23.6,9.2,42.5c0,19-3.1,33.3-9.2,42.9C4013.1,1826.5,4003.1,1831.3,3989.2,1831.3z M4267.3,1869.7V1791h72.7v78.7
			h52.1v-190.7H4340v73.4h-72.7v-73.4h-52.1v190.7H4267.3z M4532.9,1873.1c14.9,0,27.5-1.1,37.9-3.3s20.1-5.6,29.2-10.1l0,0v-40.2
			c-11.1,5.3-21.8,9-32,11.4c-10.2,2.4-21.1,3.6-32.6,3.6c-14.8,0-26.3-4.1-34.5-12.5c-8.2-8.4-12.6-19.9-13.1-34.6l0,0h123v-25.2
			c0-27.1-7.5-48.3-22.5-63.7c-15-15.3-36-23-62.9-23c-28.2,0-50.3,8.8-66.3,26.2s-24,42.2-24,74.1c0,31.1,8.7,55.1,26,72
			C4478.2,1864.7,4502.2,1873.1,4532.9,1873.1z M4561.9,1752.7h-73c0.9-12.8,4.5-22.8,10.8-29.8c6.3-7,14.9-10.5,26-10.5
			c11,0,19.8,3.5,26.3,10.5C4558.3,1729.9,4561.7,1739.9,4561.9,1752.7L4561.9,1752.7z M4677.4,1938.1v-68.4h128.3v68.4h46.7v-106.5
			h-28v-152.7h-134.8c-2.9,33.2-8.1,62.7-15.5,88.6c-7.4,25.8-16.5,47.2-27.5,64.2l0,0h-16.1v106.5L4677.4,1938.1L4677.4,1938.1z
			 M4772.4,1831.7h-71.3c8.8-16.6,15.6-34.4,20.5-53.4c4.9-19,8.8-39.1,11.7-60.3l0,0h39.1V1831.7z M4982.8,1869.7
			c27.1,0,47.8-4.9,62.4-14.6s21.8-23.8,21.8-42.4c0-11.3-4-20.8-11.8-28.4c-7.9-7.7-18.7-12.3-32.2-13.9l0,0v-1.4
			c12.5-2,22-6.7,28.4-13.9c6.4-7.2,9.7-16,9.7-26.2c0-16.4-6.5-28.8-19.5-37.3c-13.1-8.4-32.6-12.7-58.8-12.7l0,0h-97.6v190.7
			H4982.8z M4974.8,1753.4H4937v-37.7h43.7c18.4,0,27.7,5.8,27.7,17.4c0,7.1-2.8,12.3-8.5,15.5
			C4994.1,1751.8,4985.8,1753.4,4974.8,1753.4L4974.8,1753.4z M4979.4,1833.7H4937v-45h41.3c11.6,0,20.3,1.7,26.1,5
			c5.8,3.3,8.7,8.8,8.7,16.3s-2.8,13.3-8.6,17.5C4998.8,1831.7,4990.4,1833.7,4979.4,1833.7L4979.4,1833.7z M5170.8,1869.7
			l87.7-133.4c-2.3,24.7-3.4,43.8-3.4,57.3l0,0v76.1h50.4v-190.7h-62.6l-88,133.7c2.6-30.9,3.9-50.4,3.9-58.3v-75.4h-50.4v190.7
			H5170.8z M5388.3,1869.7l72.7-96.8v96.8h48.4v-96.8l72.7,96.8h55.6l-77-99.3l70.3-91.5h-53.8l-67.9,92.6v-92.6H5461v92.6
			l-67.9-92.6h-53.8l70.3,91.5l-77,99.3H5388.3z M5727.5,1869.7l87.7-133.4c-2.3,24.7-3.4,43.8-3.4,57.3l0,0v76.1h50.4v-190.7h-62.6
			l-88,133.8c2.6-30.9,3.9-50.4,3.9-58.3V1679H5665v190.7L5727.5,1869.7L5727.5,1869.7z M5965.2,1869.7v-150.3l3.2,11.6
			c5.6,22.6,10.8,40.2,15.7,52.7l0,0l34.3,86h37l33.8-85.3c4.9-12.2,10.4-30.4,16.5-54.4l0,0l2.8-10.5v150.3h48.7v-190.7h-71
			c-20.1,49.4-31.5,77.2-34,83.5c-2.5,6.2-4.8,13.1-6.9,20.5s-5,19.7-8.8,36.7c-1.1-8.1-3-17.8-5.9-29.2
			c-2.9-11.4-6.1-21.4-9.5-30.2l0,0l-32.8-81.3h-71.8v190.7L5965.2,1869.7L5965.2,1869.7z M6292,1873.1c29.2,0,52.1-8.8,68.4-26.3
			c16.4-17.5,24.6-41.8,24.6-72.8c0-20-3.7-37.5-11.3-52.4c-7.5-14.9-18.2-26.4-32.3-34.3c-13.9-7.9-30.2-11.9-48.4-11.9
			c-29.4,0-52.3,8.7-68.6,26c-16.3,17.3-24.4,41.5-24.4,72.7c0,20,3.7,37.5,11.3,52.6c7.5,15,18.2,26.5,32.3,34.5
			C6257.5,1869.1,6273.7,1873.1,6292,1873.1z M6292.6,1831.3c-13.9,0-24.1-4.9-30.3-14.5s-9.3-23.9-9.3-42.8c0-19,3.1-33.2,9.2-42.6
			c6.2-9.4,16.1-14.1,30-14.1c13.9,0,24.1,4.7,30.2,14.2c6.2,9.4,9.2,23.6,9.2,42.5c0,19-3.1,33.3-9.2,42.9
			C6316.5,1826.5,6306.6,1831.3,6292.6,1831.3z M6505.5,1873.1c13.1,0,23.9-1.1,32.5-3.1c8.6-2,17.1-5.8,25.5-11.1l0,0v-44.5
			c-8.5,5.7-17,9.9-25.6,12.6c-8.5,2.7-17.8,4-27.8,4c-27.1,0-40.6-18.7-40.6-56c0-38.4,13.5-57.7,40.6-57.7
			c7.1,0,14.1,1.1,21.2,3.2c7.1,2.1,14.7,4.8,22.9,8.1l0,0l15.3-40.2c-17.5-8.7-37.3-13-59.4-13c-30.2,0-53.3,8.6-69.4,25.7
			c-16.1,17.1-24.2,41.8-24.2,74.3C6416.4,1840.5,6446.1,1873.1,6505.5,1873.1z M6703,1869.7V1718h62.4v-39.1h-177.1v39.1h62.6
			v151.7H6703z M6863.3,1869.7l87.7-133.4c-2.3,24.7-3.4,43.8-3.4,57.3l0,0v76.1h50.4v-190.7h-62.6l-88,133.7
			c2.6-30.9,3.9-50.4,3.9-58.3l0,0v-75.4h-50.4v190.7H6863.3z"/>
		<polygon id="Rectangle" class="st1" points="1496.3,1742.5 2233.1,1742.5 2233.1,1806.8 1578.2,1806.8 		"/>
		<polygon id="Rectangle_1_" class="st1" points="7791.2,1742.5 7054.4,1742.5 7054.4,1806.8 7709.4,1806.8 		"/>
	</g>
	<g>
		<path class="st2" d="M4212.6,1315.7c10.7-25.8,16.2-54.1,16.2-84c0-30-5.4-58.2-16.2-83.9c-10.5-25.3-25.8-47.5-45.3-66.1
			c-19.6-18.7-42.8-33.2-69-43.1c-26.5-10.2-55.7-15.4-86.8-15.4c-30.4,0-59.5,5.2-86.3,15.3c-26,9.9-49.2,24.4-68.7,43.1
			c-19.5,18.7-34.8,40.9-45.4,66.1c-10.8,25.7-16.2,54-16.2,83.9c0,29.8,5.5,58.1,16.2,84.1c10.5,25.3,25.7,47.6,45.3,66.4
			c19.6,18.8,42.7,33.3,68.7,43.4c26.6,10.3,55.6,15.5,86.2,15.5c31,0,60.2-5.2,87-15.5c26.2-10,49.4-24.6,69-43.4
			C4186.9,1363.4,4202.1,1341,4212.6,1315.7z M4089.2,1313.4c-19.4,20.5-46.3,31.3-77.7,31.3c-15,0-29.3-2.7-42.4-7.9
			c-12.9-5.2-24.1-12.7-33.6-22.4c-19.9-20.5-30.5-49.1-30.5-82.8c0-33.6,10.5-62.2,30.5-82.8c9.5-9.7,20.8-17.3,33.6-22.4
			c12.9-5.2,27.2-7.9,42.4-7.9c64.1,0,107.2,45.4,107.2,113.1C4118.8,1264.7,4108.5,1292.9,4089.2,1313.4z"/>
		<path class="st2" d="M3714.2,1383.1c17.8-18.5,31.7-40.7,41.1-66.1c9.6-25.8,14.4-54.2,14.4-84.6c0-30.9-5.1-59.8-15.1-85.7
			c-9.8-25.4-24.3-47.7-43-66.3c-18.7-18.5-41.2-32.7-67-42.4c-26-9.8-55.1-14.8-86.3-14.8c-31.7,0-61.5,5.1-88.6,15.1
			c-26.4,9.8-49.6,24.3-69.1,42.9c-19.4,18.6-34.4,41-44.6,66.6c-10.5,26-15.8,54.8-15.8,85.4v335.5v9h9h92.1h9v-9v-159v-8.1
			l6.4,4.9c11,8.3,23,15.2,35.8,20.4c22.6,9.3,48.2,14.1,76.1,14.1c29.3,0,56.8-5.1,81.8-15C3675,1416,3696.5,1401.6,3714.2,1383.1z
			 M3554.7,1345.4c-31.2,0-57.6-10.8-76.6-31.1c-19.1-20.5-29.2-49.1-29.2-82.7c0-33.5,10.1-62,29.1-82.3
			c19-20.1,45.5-30.8,76.6-30.8c63.7,0,106.5,45.7,106.5,113.8C3661.2,1300,3618.4,1345.4,3554.7,1345.4z"/>
		<path class="st2" d="M2549.2,1227.2c-0.2-30.8-5.7-59.5-16.6-85.4c-10.3-24.8-25.3-46.5-44.4-64.5c-18.6-17.5-40.6-31-65.6-40.4
			c-24.8-9.1-51.7-13.8-79.9-13.8c-29.7,0-57.9,5.2-83.8,15.5c-25.3,10-47.7,24.6-66.6,43.3c-18.9,18.8-33.7,41-43.9,66.1
			c-10.4,25.7-15.7,53.9-15.7,83.6c0,29.8,5.4,58,16,83.7c10.5,25.4,25.8,47.7,45.6,66.5c19.8,18.8,43.8,33.5,71.1,43.5
			c27.9,10.3,58.8,15.5,92,15.5c34.8,0,66.4-5.7,93.9-16.8c27.9-11.3,51.3-28.1,69.5-50l4.8-5.8l-4.9-5.7l-48.3-56.3l-6.3-7.3
			l-6.8,6.8c-27.1,27.1-58.8,39.8-99.7,39.8c-26.8,0-50-5.5-69-16.4c-13.6-7.9-24.8-18.5-33.2-31.7l-3.2-5l5.8-1.1l281.9-55.1
			l7.3-1.4L2549.2,1227.2z M2434.7,1178.8l-190,36.5l-5.3,1l0.5-5.3c5.8-59.8,45.3-96.9,102.8-96.9c43.9,0,79.4,22.1,94.8,59.2
			l1.9,4.5L2434.7,1178.8z"/>
		<path class="st2" d="M3167,1435.9h9h91.4h9v-9v-223.7c0-29.7-4.1-56.4-12.3-79.4c-7.9-22.3-19.7-41.3-35.1-56.6
			c-14.8-14.7-33-25.9-54-33.3c-19.9-7.2-42.7-10.8-67.8-10.8c-28.3,0-55.1,4.9-79.6,14.6c-24.4,9.6-45.4,23.5-62.6,41.2l-3.2,3.3
			l-2.8-3.6c-12.9-16.3-29.3-29.2-48.6-38.5c-23.4-11.3-50.6-17-80.9-17c-43.8,0-82.7,12.3-112.5,35.6l-6.5,5.1v-8.2v-19.1v-9h-9
			h-87h-9v9v390.3v9h9h91.4h9v-9v-198c0-17.9,2.3-34.2,6.9-48.2c4.4-13.3,10.7-24.5,18.9-33.3c7.9-8.7,17.6-15.3,28.7-19.7
			c11.3-4.5,24.1-6.8,38.1-6.8c25.4,0,44.9,7.6,57.9,22.5c13.8,15.7,20.8,39.8,20.8,71.6v212v9h9h91.4h9v-9v-198
			c0-68.6,33.8-108,92.6-108c25.4,0,44.9,7.6,57.9,22.5c13.8,15.7,20.8,39.8,20.8,71.6v212V1435.9z"/>
		<polygon class="st2" points="1966.5,1435.7 2057.1,1435.7 2066.1,1435.7 2066.1,1426.7 2064.7,915.1 2064.5,906.1 2055.4,906.1 
			1978,906.1 1972.9,906.1 1970.3,910.5 1781.1,1230.2 1777.7,1236 1774.2,1230.2 1583,910.5 1580.4,906.2 1575.2,906.2 
			1497.1,906.2 1488.1,906.2 1488.1,915.1 1488.1,1426.8 1488.1,1435.8 1497.1,1435.8 1587,1435.8 1596,1435.8 1596,1426.8 
			1596,1138.2 1603.4,1136.2 1747.4,1372.9 1750.1,1377.2 1755.1,1377.2 1797.5,1377.2 1802.7,1377.2 1805.3,1372.8 1949.4,1132.2 
			1956.9,1134.3 1957.5,1426.7 1957.5,1435.7 		"/>
		<path class="st2" d="M7207.1,1426.7v9h9h87h9v-9v-390.3v-9h-9h-91.4h-9v9v17.9v8.1l-6.4-4.9c-14.8-11.3-31.6-19.9-49.9-25.7
			c-18.4-5.8-38.5-8.8-59.7-8.8c-29.3,0-57,5-82.2,14.7c-25.2,9.7-47.2,23.9-65.5,42.2c-18.7,18.6-33.2,40.8-43.1,66
			c-10.3,26.2-15.5,55-15.5,85.6c0,30.9,5.2,59.7,15.5,85.7c9.9,25.4,24.5,47.7,43.1,66.3c18.6,18.4,40.6,32.7,65.5,42.4
			c25.1,9.8,52.8,14.8,82.2,14.8c22.5,0,43.6-3.1,62.8-9.3c19-6.2,36.2-15.3,51.1-27.3l6.5-5.3v8.4V1426.7z M7096.8,1344.7
			c-15,0-29.3-2.7-42.4-7.9c-12.9-5.2-24.1-12.7-33.6-22.4c-19.9-20.5-30.5-49.1-30.5-82.8c0-33.6,10.5-62.2,30.5-82.8
			c9.5-9.7,20.8-17.3,33.6-22.4c12.9-5.2,27.2-7.9,42.4-7.9c64.1,0,107.2,45.4,107.2,113.1C7204.1,1299.2,7161,1344.7,7096.8,1344.7
			z"/>
		<path class="st2" d="M6724.5,1435.9h9h91.4h9v-9v-223.7c0-29.7-4.1-56.4-12.3-79.4c-7.9-22.3-19.7-41.3-35.1-56.6
			c-14.8-14.7-33-25.9-54-33.3c-19.9-7.2-42.7-10.8-67.8-10.8c-28.3,0-55.1,4.9-79.6,14.6c-24.4,9.6-45.4,23.5-62.6,41.2l-3.2,3.3
			l-2.8-3.6c-12.9-16.3-29.3-29.2-48.6-38.5c-23.4-11.3-50.6-17-80.9-17c-43.8,0-82.7,12.3-112.5,35.6l-6.5,5.1v-8.2v-19.1v-9h-9
			h-87h-9v9v390.3v9h9h91.4h9v-9v-198c0-17.9,2.3-34.2,6.9-48.2c4.4-13.3,10.7-24.5,18.9-33.3c7.9-8.7,17.6-15.3,28.7-19.7
			c11.3-4.5,24.1-6.8,38.1-6.8c25.4,0,44.9,7.6,57.9,22.5c13.8,15.7,20.8,39.8,20.8,71.6v212v9h9h91.4h9v-9v-198
			c0-68.6,33.8-108,92.6-108c25.4,0,44.9,7.6,57.9,22.5c13.8,15.7,20.8,39.8,20.8,71.6v212V1435.9z"/>
		<polygon class="st2" points="4569.7,1426.7 4569.7,1435.7 4578.7,1435.7 4669.3,1435.7 4678.3,1435.7 4678.3,1426.7 
			4678.3,1036.5 4678.3,1027.5 4669.3,1027.5 4295,1027.5 4286.1,1027.5 4286.1,1036.5 4286.1,1426.8 4286.1,1435.8 4295,1435.8 
			4386.4,1435.8 4395.4,1435.8 4395.4,1426.8 4395.4,1126.9 4395.4,1122.9 4399.4,1122.9 4565.7,1122.9 4569.7,1122.9 
			4569.7,1126.9 		"/>
		<polygon class="st2" points="7688.7,1426.8 7688.7,1435.8 7697.6,1435.8 7789,1435.8 7798,1435.8 7798,1426.8 7798,1036.5 
			7798,1027.5 7789,1027.5 7697.6,1027.5 7688.7,1027.5 7688.7,1036.5 7688.7,1182.1 7688.7,1186.1 7684.7,1186.1 7514,1186.1 
			7510,1186.1 7510,1182.1 7510,1036.5 7510,1027.5 7501,1027.5 7409.6,1027.5 7400.7,1027.5 7400.7,1036.5 7400.7,1426.8 
			7400.7,1435.8 7409.6,1435.8 7501,1435.8 7510,1435.8 7510,1426.8 7510,1285.5 7510,1281.5 7514,1281.5 7684.7,1281.5 
			7688.7,1281.5 7688.7,1285.5 		"/>
		<path class="st2" d="M5153.3,1315.7c10.7-25.8,16.2-54.1,16.2-84c0-30-5.4-58.2-16.2-83.9c-10.5-25.3-25.8-47.5-45.3-66.1
			c-19.6-18.7-42.8-33.2-69-43.1c-26.5-10.2-55.7-15.4-86.8-15.4c-30.4,0-59.5,5.2-86.3,15.3c-26,9.9-49.2,24.4-68.7,43.1
			c-19.5,18.7-34.8,40.9-45.4,66.1c-10.8,25.7-16.2,54-16.2,83.9c0,29.8,5.5,58.1,16.2,84.1c10.5,25.3,25.7,47.6,45.3,66.4
			c19.6,18.8,42.7,33.3,68.7,43.4c26.6,10.3,55.6,15.5,86.2,15.5c31,0,60.2-5.2,87-15.5c26.2-10,49.4-24.6,69-43.4
			C5127.6,1363.4,5142.8,1341,5153.3,1315.7z M5029.9,1313.4c-19.4,20.5-46.3,31.3-77.7,31.3c-15,0-29.3-2.7-42.4-7.9
			c-12.9-5.2-24.1-12.7-33.6-22.4c-19.9-20.5-30.5-49.1-30.5-82.8c0-33.6,10.5-62.2,30.5-82.8c9.5-9.7,20.8-17.3,33.6-22.4
			c12.9-5.2,27.2-7.9,42.4-7.9c64.1,0,107.2,45.4,107.2,113.1C5059.4,1264.7,5049.2,1292.9,5029.9,1313.4z"/>
		<path class="st2" d="M5484.9,1426.7v9h9h91.4h9v-9v-390.3v-9h-9h-315.8h-8.6l-0.4,8.6l-6.6,150.5l-0.2,4.4l-0.2,4.4l-0.1,1
			c-2,37.4-4.1,76.2-12.5,104c-4.3,14-9.9,24.6-16.8,31.4c-7.3,7.3-16.1,10.7-27.8,10.7c-4.4,0-9.5-0.6-15.6-2l-10.4-2.3l-0.6,10.6
			l-4.4,76.7l-0.4,7.3l7.1,1.9c21.1,5.6,38.3,8.4,52.7,8.4c24.2,0,45.1-6.8,62.2-20.3c15.7-12.5,28.1-30.3,37.9-54.6
			c8.5-21.1,15-46.9,19.6-79c3.9-26.4,6.6-57.4,8.6-97.4l3.1-65.1l0.2-3.8h3.8h120.8h4v4V1426.7z"/>
		<path class="st2" d="M5967.3,1426.8v9h9h87h9v-9v-390.3v-9h-9h-91.4h-9v9v197.3c0,18.2-2.4,34.5-7.3,48.5
			c-4.5,13.2-11.1,24.5-19.7,33.5c-8.4,8.8-18.5,15.5-30.2,19.9c-12,4.5-25.4,6.8-39.9,6.8c-27.7,0-48.7-8.1-62.6-24.1
			c-13.9-16-20.6-39.4-20.6-71.5v-210.5v-9h-9h-91.4h-9v9v222.9c0,29.8,4.3,56.7,12.9,79.7c8.3,22.5,20.7,41.7,36.8,57.1
			c15.5,14.9,34.5,26.2,56.7,33.7c21.2,7.2,45.3,10.9,71.5,10.9c41.3,0,80.2-12.8,109.5-36l6.5-5.1v8.3V1426.8z"/>
		
			<rect x="5011.8" y="842.2" transform="matrix(0.4281 -0.9037 0.9037 0.4281 2104.5396 5115.7954)" class="st2" width="165.4" height="105.5"/>
	</g>
	<g>
		<g>
			<g id="Line_1_">
				<path class="st2" d="M857.4,2148.5H735.8v-812.8l-72.1,48.9v746.4H542v-810.9l193.8-131.5V350.1l509.1,459.1V1820l-316.1,217.4
					v-832.6l-71.3,48.4V2148.5z M1050.4,975.2v830.9l72.8-50.1V863.3L857.4,623.6v482.4L1050.4,975.2z"/>
			</g>
			
				<linearGradient id="Rectangle_9_" gradientUnits="userSpaceOnUse" x1="8474.124" y1="-42.4935" x2="8474.124" y2="-41.3774" gradientTransform="matrix(100.5651 0 0 158.1467 -851404.375 7973.2378)">
				<stop  offset="0" style="stop-color:#000000"/>
				<stop  offset="1" style="stop-color:#000000;stop-opacity:0"/>
			</linearGradient>
			<polygon id="Rectangle_2_" class="st3" points="736.3,1336 857,1253 857,1429.5 736.3,1429.5 			"/>
			
				<linearGradient id="Rectangle_10_" gradientUnits="userSpaceOnUse" x1="8592.4023" y1="50.8488" x2="8592.4023" y2="52.2523" gradientTransform="matrix(-101.3761 0 0 -129.7614 871860.375 7786.77)">
				<stop  offset="0" style="stop-color:#000000"/>
				<stop  offset="1" style="stop-color:#000000;stop-opacity:0"/>
			</linearGradient>
			<polygon id="Rectangle_3_" class="st4" points="857,1105.7 736.3,1188.6 735.3,1006.4 857,1006.4 			"/>
			
				<linearGradient id="Rectangle_11_" gradientUnits="userSpaceOnUse" x1="8592.8779" y1="23.863" x2="8592.8779" y2="24.7642" gradientTransform="matrix(-100.5651 0 0 -277.365 864940.0625 8710.0615)">
				<stop  offset="0" style="stop-color:#000000"/>
				<stop  offset="1" style="stop-color:#000000;stop-opacity:0"/>
			</linearGradient>
			<polygon id="Rectangle_4_" class="st5" points="856.7,2091.3 736.3,2091.3 736.3,1841.3 855.7,1841.3 			"/>
		</g>
		
			<linearGradient id="Rectangle_12_" gradientUnits="userSpaceOnUse" x1="8592.6621" y1="23.8409" x2="8592.6621" y2="24.7421" gradientTransform="matrix(-100.5651 0 0 -277.365 864724.8125 8698.708)">
			<stop  offset="0" style="stop-color:#000000"/>
			<stop  offset="1" style="stop-color:#000000;stop-opacity:0"/>
		</linearGradient>
		<polygon id="Rectangle_5_" class="st6" points="664.2,2086.1 541.6,2086.1 541.6,1836.1 663.3,1836.1 		"/>
		<g>
			<path id="Rectangle_6_" class="st7" d="M538,2093.2c-117.7,67.5-163.2,133.7-136.7,198.6c16.9,41.1,76.8,138.1,500.7,111.5
				c374.1-23.4,502.2-158.1,502.2-238.5c0-47.3-51.7-82.2-155.1-104.9c95.5,51.2,130.7,91.2,105.6,120.4
				c-147,170.7-668.4,206-864.8,121.8C407.2,2266.8,423.3,2197.1,538,2093.2z"/>
			<path id="Rectangle_7_" class="st8" d="M538,1967.7c-117.7,67.5-163.2,133.7-136.7,198.6c16.9,41.1,76.8,138.1,500.7,111.5
				c374.1-23.4,502.2-158.1,502.2-238.5c0-47.3-51.7-82.2-155.1-104.9c95.5,51.2,130.7,91.2,105.6,120.4
				c-147,170.7-668.4,206-864.8,121.8C407.2,2141.2,423.3,2071.6,538,1967.7z"/>
			<path id="Rectangle_8_" class="st1" d="M538,1842.1c-117.7,67.5-163.2,133.7-136.7,198.6c16.9,41.1,76.8,138.1,500.7,111.5
				c374.1-23.4,502.2-158.1,502.2-238.5c0-47.3-51.7-82.2-155.1-104.9c95.5,51.2,130.7,91.2,105.6,120.4
				c-147,170.7-668.4,206-864.8,121.8C407.2,2015.7,423.3,1946,538,1842.1z"/>
		</g>
	</g>
</g>
</svg>
