<svg width="24" height="24" viewBox="0 0 24 24" fill="none" xmlns="http://www.w3.org/2000/svg">
<path d="M12 0C5.3726 0 0 5.3726 0 12C0 18.6274 5.3726 24 12 24C18.6274 24 24 18.6274 24 12C24 5.3726 18.6274 0 12 0ZM12 2.60742C17.1874 2.60742 21.3911 6.81392 21.3911 12C21.3911 17.1861 17.1874 21.3911 12 21.3911C6.8126 21.3911 2.60888 17.1861 2.60888 12C2.6089 6.81392 6.8126 2.60742 12 2.60742ZM16.5981 6.30176L9.64306 13.2583L7.3872 11.0024L5.17382 13.2144L7.42968 15.4702L9.6577 17.6982L11.8696 15.4849L18.8262 8.52978L16.5981 6.30176Z" fill="#0B7D98"/>
</svg>
