<svg width="24" height="24" viewBox="0 0 24 24" fill="none" xmlns="http://www.w3.org/2000/svg">
<path d="M6.75 12C6.55109 12 6.36032 12.079 6.21967 12.2197C6.07902 12.3603 6 12.5511 6 12.75V16.5C6 16.6989 6.07902 16.8897 6.21967 17.0303C6.36032 17.171 6.55109 17.25 6.75 17.25C6.94891 17.25 7.13968 17.171 7.28033 17.0303C7.42098 16.8897 7.5 16.6989 7.5 16.5V15.75H7.875C8.37228 15.75 8.84919 15.5525 9.20083 15.2008C9.55246 14.8492 9.75 14.3723 9.75 13.875C9.75 13.3777 9.55246 12.9008 9.20083 12.5492C8.84919 12.1975 8.37228 12 7.875 12H6.75ZM7.875 14.25H7.5V13.5H7.875C7.97446 13.5 8.06984 13.5395 8.14017 13.6098C8.21049 13.6802 8.25 13.7755 8.25 13.875C8.25 13.9745 8.21049 14.0698 8.14017 14.1402C8.06984 14.2105 7.97446 14.25 7.875 14.25ZM10.5 12.75C10.5 12.5511 10.579 12.3603 10.7197 12.2197C10.8603 12.079 11.0511 12 11.25 12H11.625C12.3212 12 12.9889 12.2766 13.4812 12.7688C13.9734 13.2611 14.25 13.9288 14.25 14.625C14.25 15.3212 13.9734 15.9889 13.4812 16.4812C12.9889 16.9734 12.3212 17.25 11.625 17.25H11.25C11.0511 17.25 10.8603 17.171 10.7197 17.0303C10.579 16.8897 10.5 16.6989 10.5 16.5V12.75ZM12 15.6863C12.2197 15.6089 12.4101 15.4653 12.5447 15.2752C12.6794 15.0851 12.7517 14.8579 12.7517 14.625C12.7517 14.3921 12.6794 14.1649 12.5447 13.9748C12.4101 13.7847 12.2197 13.6411 12 13.5637V15.6863ZM15 16.5V12.75C15 12.5511 15.079 12.3603 15.2197 12.2197C15.3603 12.079 15.5511 12 15.75 12H18C18.1989 12 18.3897 12.079 18.5303 12.2197C18.671 12.3603 18.75 12.5511 18.75 12.75C18.75 12.9489 18.671 13.1397 18.5303 13.2803C18.3897 13.421 18.1989 13.5 18 13.5H16.5V14.25H18C18.1989 14.25 18.3897 14.329 18.5303 14.4697C18.671 14.6103 18.75 14.8011 18.75 15C18.75 15.1989 18.671 15.3897 18.5303 15.5303C18.3897 15.671 18.1989 15.75 18 15.75H16.5V16.5C16.5 16.6989 16.421 16.8897 16.2803 17.0303C16.1397 17.171 15.9489 17.25 15.75 17.25C15.5511 17.25 15.3603 17.171 15.2197 17.0303C15.079 16.8897 15 16.6989 15 16.5ZM12.75 6.75V1.5H6C5.40326 1.5 4.83097 1.73705 4.40901 2.15901C3.98705 2.58097 3.75 3.15326 3.75 3.75V9.75C3.35218 9.75 2.97064 9.90804 2.68934 10.1893C2.40804 10.4706 2.25 10.8522 2.25 11.25V18C2.25 18.3978 2.40804 18.7794 2.68934 19.0607C2.97064 19.342 3.35218 19.5 3.75 19.5V20.25C3.75 20.8467 3.98705 21.419 4.40901 21.841C4.83097 22.2629 5.40326 22.5 6 22.5H18C18.5967 22.5 19.169 22.2629 19.591 21.841C20.0129 21.419 20.25 20.8467 20.25 20.25V19.5C20.6478 19.5 21.0294 19.342 21.3107 19.0607C21.592 18.7794 21.75 18.3978 21.75 18V11.25C21.75 10.8522 21.592 10.4706 21.3107 10.1893C21.0294 9.90804 20.6478 9.75 20.25 9.75V9H15C14.4033 9 13.831 8.76295 13.409 8.34099C12.9871 7.91903 12.75 7.34674 12.75 6.75ZM20.25 11.25V18H3.75V11.25H20.25ZM14.25 6.75V1.58775C14.6165 1.69301 14.9501 1.88966 15.2197 2.15925L19.5907 6.53025C19.8603 6.79986 20.057 7.13355 20.1623 7.5H15C14.8011 7.5 14.6103 7.42098 14.4697 7.28033C14.329 7.13968 14.25 6.94891 14.25 6.75Z" fill="#515154"/>
</svg>
