<?xml version="1.0" encoding="utf-8"?>
<!-- Generator: Adobe Illustrator 24.1.1, SVG Export Plug-In . SVG Version: 6.00 Build 0)  -->
<svg version="1.1" id="Слой_1" xmlns="http://www.w3.org/2000/svg" xmlns:xlink="http://www.w3.org/1999/xlink" x="0px" y="0px"
	 viewBox="0 0 600 600" style="enable-background:new 0 0 600 600;" xml:space="preserve">
<style type="text/css">
	.st0{fill:#0B7D98;}
	.st1{fill:#159BBA;}
	.st2{fill:#DDA95B;}
	.st3{fill:#ECBDBB;}
	.st4{fill:#38B9CE;}
	.st5{fill:#F2F3F5;}
	.st6{fill:#5BD1DD;}
	.st7{fill:#E9E9E9;}
	.st8{fill:#21263F;}
	.st9{fill:#272E4B;}
	.st10{fill:#965653;}
	.st11{fill:#5E6D85;}
	.st12{fill:#939495;}
	.st13{fill:#7C7C7D;}
	.st14{fill:#4F5C70;}
	.st15{fill:#FFFFFF;}
	.st16{fill:#F6F8F9;}
	.st17{fill:#86EFFA;}
	.st18{fill:#CE9238;}
	.st19{fill:#29292C;}
	.st20{fill:#515154;}
	.st21{fill:#FAD986;}
	.st22{fill:#6D6D71;}
</style>
<path class="st0" d="M395.3,494.4c0,0,13.2-4.1,31.2-7.1s31.8-14.4,33.2-26.7c1.3-12.4-12.9-20.9-33.4-8.3
	C406.3,464.4,395.3,494.4,395.3,494.4z"/>
<path class="st1" d="M398.8,491.3c-0.1,0-0.3,0-0.4-0.1c-0.2-0.2-0.2-0.5,0-0.7c16.5-16.2,33.3-28.3,50.1-35.9
	c0.2-0.1,0.5,0,0.7,0.2c0.1,0.3,0,0.5-0.2,0.7c-16.7,7.6-33.5,19.6-49.8,35.7C399.1,491.3,399,491.3,398.8,491.3z"/>
<path class="st2" d="M368.4,494.4c0,0-8.1-29.7,9.3-62.3c17.4-32.6,37.3-28.8,44.2-19.7c6.9,9,2.5,28.5-12,43.3
	S374.4,485.7,368.4,494.4z"/>
<path class="st3" d="M370.3,485.7c-0.1,0-0.1,0-0.2,0c-0.3-0.1-0.4-0.4-0.3-0.6c16.4-49.8,40.7-66.8,41-67c0.2-0.2,0.5-0.1,0.7,0.1
	c0.2,0.2,0.1,0.5-0.1,0.7c-0.2,0.2-24.3,17-40.6,66.4C370.7,485.5,370.5,485.7,370.3,485.7z"/>
<path class="st0" d="M210.8,494.4c0,0,5.6-7.5,14.2-16.5c8.6-8.9,11.6-20.7,7.3-28s-15.5-6.2-21.6,8.9
	C204.7,473.5,210.8,494.4,210.8,494.4z"/>
<path class="st2" d="M198,494.4c0,0,8.1-29.7-9.3-62.3s-37.3-28.8-44.2-19.7c-6.9,9-2.5,28.5,12,43.3
	C171.1,470.4,192,485.7,198,494.4z"/>
<path class="st3" d="M196,485.7c-0.2,0-0.4-0.1-0.5-0.3c-16.3-49.4-40.3-66.3-40.6-66.4c-0.2-0.2-0.3-0.5-0.1-0.7
	c0.2-0.2,0.5-0.3,0.7-0.1c0.2,0.2,24.6,17.2,41,67c0.1,0.3-0.1,0.5-0.3,0.6C196.1,485.7,196.1,485.7,196,485.7z"/>
<polygon class="st4" points="224.6,257.9 198.6,288.2 172.7,248.1 198.8,217.8 "/>
<polygon class="st5" points="295.2,167.9 321,207.9 285.9,217.7 260,177.7 "/>
<polygon class="st0" points="285.9,217.7 260,177.7 224.8,187.5 250.7,227.6 285.9,217.8 286,217.7 "/>
<polygon class="st0" points="356.4,198.2 330.5,158.1 295.2,167.9 321.1,207.9 320.5,208.1 321.1,208 "/>
<polygon class="st6" points="250.6,227.6 224.6,257.9 198.7,217.8 224.8,187.5 "/>
<polygon class="st6" points="250.5,298 224.5,328.2 198.6,288.2 224.6,257.9 "/>
<polygon class="st7" points="276.3,337.9 250.3,368.2 224.5,328.2 250.5,298 "/>
<polygon class="st0" points="382.3,238.2 408.1,278.2 372.8,288 347,248 "/>
<polygon class="st4" points="321.1,208 356.4,198.2 382.3,238.2 347,248 372.8,288 337.6,297.8 311.8,257.9 276.5,267.7 
	250.6,227.6 285.9,217.8 311.7,257.8 346.9,248 "/>
<polygon class="st6" points="321.1,208 346.9,248 311.7,257.8 285.9,217.8 "/>
<polygon class="st7" points="276.5,267.7 250.5,298 224.6,257.9 250.6,227.6 "/>
<polygon class="st6" points="311.8,257.9 337.6,297.8 302.3,307.6 276.5,267.7 "/>
<polygon class="st4" points="302.3,307.6 276.3,337.9 250.5,298 276.5,267.7 "/>
<polygon class="st0" points="382,308.4 356,338.7 320.8,348.5 346.8,318.3 "/>
<polygon class="st4" points="346.8,318.3 320.8,348.5 285.5,358.4 311.6,328.1 "/>
<polygon class="st6" points="311.6,328.1 285.5,358.4 250.3,368.2 276.3,337.9 "/>
<polygon class="st7" points="408.1,278.2 382,308.5 346.8,318.3 372.8,288 "/>
<polygon class="st6" points="372.8,288 346.8,318.3 311.5,328.1 337.6,297.8 "/>
<polygon class="st7" points="337.6,297.8 311.5,328.1 276.3,337.9 302.3,307.6 "/>
<polygon class="st0" points="376.8,155.1 419.6,176.7 412.9,212.3 370.2,190.8 "/>
<polygon class="st8" points="370.2,190.8 343.6,220.4 350.3,184.8 376.8,155.1 "/>
<polygon class="st9" points="412.9,212.3 386.4,241.9 343.6,220.4 370.2,190.8 "/>
<polygon class="st10" points="370.1,190.8 343.5,220.4 300.7,198.9 327.2,169.2 "/>
<polygon class="st4" points="326.9,169 300.4,198.7 307.1,163 333.6,133.4 "/>
<polygon class="st0" points="284.1,147.5 257.6,177.1 264.3,141.5 290.8,111.9 "/>
<polygon class="st6" points="290.8,111.9 333.6,133.4 326.9,169 284.1,147.5 "/>
<polygon class="st11" points="326.9,169 300.4,198.7 257.6,177.1 284.1,147.5 "/>
<polygon class="st10" points="406.3,247.9 379.7,277.6 336.9,256 363.5,226.4 "/>
<polygon class="st4" points="363.4,226.4 336.9,256 343.5,220.4 370.1,190.8 "/>
<polygon class="st12" points="363.4,226.4 336.9,256 294,234.4 320.5,204.8 "/>
<polygon class="st7" points="327.2,169.2 370.1,190.8 363.4,226.4 320.5,204.8 "/>
<polygon class="st13" points="320.5,204.8 294,234.4 300.7,198.9 327.2,169.2 "/>
<polygon class="st10" points="320.2,204.7 293.7,234.3 250.9,212.8 277.5,183.1 "/>
<polygon class="st7" points="277.5,183.1 250.9,212.8 257.6,177.1 284.1,147.5 "/>
<polygon class="st0" points="399.6,283.6 373,313.2 330.2,291.7 356.8,262 "/>
<polygon class="st14" points="356.8,262 330.2,291.7 336.9,256 363.5,226.4 "/>
<polygon class="st6" points="363.5,226.4 406.3,247.9 399.6,283.6 356.8,262 "/>
<polygon class="st6" points="356.8,262 330.2,291.7 287,269.9 313.6,240.3 "/>
<polygon class="st4" points="313.6,240.3 287,269.9 293.7,234.3 320.2,204.7 "/>
<path class="st4" d="M326.9,169l6.7-35.6l43.2,21.8l-6.7,35.6l42.8,21.5l-6.7,35.6l-42.8-21.5l-6.7,35.6l-43.2-21.8l6.7-35.6
	l-42.8-21.5l6.7-35.6L326.9,169z M370.1,190.8l-42.9-21.6l-6.7,35.6l42.9,21.6L370.1,190.8"/>
<polygon class="st7" points="277.5,183.1 320.2,204.7 313.6,240.3 270.8,218.8 "/>
<polygon class="st0" points="313.6,240.3 287,269.9 244.2,248.4 270.8,218.8 "/>
<polygon class="st6" points="270.8,218.8 244.2,248.4 250.9,212.8 277.5,183.1 "/>
<path class="st15" d="M373,313.7c-0.1,0-0.2,0-0.2-0.1L244,248.9c-0.2-0.1-0.3-0.3-0.3-0.6L256,183c0.1-0.3,0.3-0.5,0.6-0.4
	c0.3,0.1,0.5,0.3,0.4,0.6l-12.2,64.9l128.4,64.6c0.3,0.1,0.4,0.4,0.2,0.7C373.4,313.6,373.2,313.7,373,313.7z"/>
<circle class="st16" cx="239.6" cy="414.8" r="9.3"/>
<circle class="st16" cx="200.5" cy="402.9" r="2.6"/>
<circle class="st16" cx="434.8" cy="372.4" r="2.6"/>
<circle class="st16" cx="330.2" cy="85.9" r="6.5"/>
<circle class="st16" cx="437.5" cy="153.6" r="2.2"/>
<circle class="st16" cx="303.8" cy="89.5" r="1.8"/>
<circle class="st16" cx="162" cy="151.3" r="5.1"/>
<path class="st17" d="M206.1,85.6c-0.3,0-0.5-0.2-0.5-0.5v-3.9c0-0.3,0.2-0.5,0.5-0.5s0.5,0.2,0.5,0.5v3.9
	C206.6,85.3,206.4,85.6,206.1,85.6z"/>
<path class="st17" d="M212.6,88.2h-3.9c-0.3,0-0.5-0.2-0.5-0.5s0.2-0.5,0.5-0.5h3.9c0.3,0,0.5,0.2,0.5,0.5S212.9,88.2,212.6,88.2z"
	/>
<path class="st17" d="M206.1,94.7c-0.3,0-0.5-0.2-0.5-0.5v-3.9c0-0.3,0.2-0.5,0.5-0.5s0.5,0.2,0.5,0.5v3.9
	C206.6,94.5,206.4,94.7,206.1,94.7z"/>
<path class="st17" d="M203.5,88.2h-3.9c-0.3,0-0.5-0.2-0.5-0.5s0.2-0.5,0.5-0.5h3.9c0.3,0,0.5,0.2,0.5,0.5S203.7,88.2,203.5,88.2z"
	/>
<path class="st17" d="M324.1,382.7c-0.3,0-0.5-0.2-0.5-0.5v-2.7c0-0.3,0.2-0.5,0.5-0.5s0.5,0.2,0.5,0.5v2.7
	C324.6,382.5,324.4,382.7,324.1,382.7z"/>
<path class="st17" d="M328.7,384.6h-2.7c-0.3,0-0.5-0.2-0.5-0.5s0.2-0.5,0.5-0.5h2.7c0.3,0,0.5,0.2,0.5,0.5S329,384.6,328.7,384.6z"
	/>
<path class="st17" d="M324.1,389.1c-0.3,0-0.5-0.2-0.5-0.5v-2.7c0-0.3,0.2-0.5,0.5-0.5s0.5,0.2,0.5,0.5v2.7
	C324.6,388.9,324.4,389.1,324.1,389.1z"/>
<path class="st17" d="M322.3,384.6h-2.7c-0.3,0-0.5-0.2-0.5-0.5s0.2-0.5,0.5-0.5h2.7c0.3,0,0.5,0.2,0.5,0.5S322.5,384.6,322.3,384.6
	z"/>
<path class="st17" d="M151.3,383.2c-0.3,0-0.5-0.2-0.5-0.5v-3.9c0-0.3,0.2-0.5,0.5-0.5s0.5,0.2,0.5,0.5v3.9
	C151.8,383,151.5,383.2,151.3,383.2z"/>
<path class="st17" d="M157.8,385.9h-3.9c-0.3,0-0.5-0.2-0.5-0.5s0.2-0.5,0.5-0.5h3.9c0.3,0,0.5,0.2,0.5,0.5S158.1,385.9,157.8,385.9
	z"/>
<path class="st17" d="M151.3,392.4c-0.3,0-0.5-0.2-0.5-0.5V388c0-0.3,0.2-0.5,0.5-0.5s0.5,0.2,0.5,0.5v3.9
	C151.8,392.2,151.5,392.4,151.3,392.4z"/>
<path class="st17" d="M148.6,385.9h-3.9c-0.3,0-0.5-0.2-0.5-0.5s0.2-0.5,0.5-0.5h3.9c0.3,0,0.5,0.2,0.5,0.5S148.9,385.9,148.6,385.9
	z"/>
<path class="st17" d="M441.2,411.8c-0.3,0-0.5-0.2-0.5-0.5V406c0-0.3,0.2-0.5,0.5-0.5s0.5,0.2,0.5,0.5v5.2
	C441.7,411.5,441.5,411.8,441.2,411.8z"/>
<path class="st17" d="M449.9,415.3h-5.2c-0.3,0-0.5-0.2-0.5-0.5s0.2-0.5,0.5-0.5h5.2c0.3,0,0.5,0.2,0.5,0.5S450.2,415.3,449.9,415.3
	z"/>
<path class="st17" d="M441.2,424c-0.3,0-0.5-0.2-0.5-0.5v-5.2c0-0.3,0.2-0.5,0.5-0.5s0.5,0.2,0.5,0.5v5.2
	C441.7,423.8,441.5,424,441.2,424z"/>
<path class="st17" d="M437.7,415.3h-5.2c-0.3,0-0.5-0.2-0.5-0.5s0.2-0.5,0.5-0.5h5.2c0.3,0,0.5,0.2,0.5,0.5S438,415.3,437.7,415.3z"
	/>
<path class="st17" d="M556,145.2c-0.3,0-0.5-0.2-0.5-0.5v-2.3c0-0.3,0.2-0.5,0.5-0.5s0.5,0.2,0.5,0.5v2.3
	C556.5,145,556.3,145.2,556,145.2z"/>
<path class="st17" d="M559.8,146.7h-2.3c-0.3,0-0.5-0.2-0.5-0.5s0.2-0.5,0.5-0.5h2.3c0.3,0,0.5,0.2,0.5,0.5S560.1,146.7,559.8,146.7
	z"/>
<path class="st17" d="M556,150.5c-0.3,0-0.5-0.2-0.5-0.5v-2.3c0-0.3,0.2-0.5,0.5-0.5s0.5,0.2,0.5,0.5v2.3
	C556.5,150.3,556.3,150.5,556,150.5z"/>
<path class="st17" d="M554.5,146.7h-2.3c-0.3,0-0.5-0.2-0.5-0.5s0.2-0.5,0.5-0.5h2.3c0.3,0,0.5,0.2,0.5,0.5S554.7,146.7,554.5,146.7
	z"/>
<circle class="st16" cx="126.3" cy="116.2" r="2.2"/>
<path class="st0" d="M182.6,342.4c-1.5-2.2-2.3-4.2-2.5-6c-0.2-1.8,0-3.8,0.4-6c0.5-1.9,0.7-3.4,0.7-4.5c0-1.1-0.3-2.3-1.1-3.4
	c-0.7-1-1.6-1.6-2.7-1.7c-1.2-0.2-2.1,0-3,0.6c-1.3,0.9-2,2-2.2,3.3c-0.2,1.3-0.1,2.9,0.3,4.7l-7.5,1.2c-0.4-1.3-0.6-2.9-0.6-4.7
	c0-1.8,0.5-3.8,1.5-5.9c1-2.1,2.6-3.9,4.9-5.5c3-2,6-2.9,8.9-2.7c2.9,0.3,5.4,1.9,7.5,5.1c1.5,2.2,2.3,4.1,2.4,5.8
	c0.1,1.7,0.1,3.2-0.2,4.5c-0.3,1.3-0.4,2.2-0.5,2.6c-0.3,1.8-0.4,3.4-0.3,4.9c0.2,1.5,0.8,3.1,2,4.8l0.7,1l-7,4.7L182.6,342.4z
	 M191.4,354.2c-1.2-0.1-2.2-0.7-2.9-1.8c-0.7-1-0.9-2.2-0.6-3.4c0.3-1.2,1-2.2,2.2-3c1.2-0.8,2.4-1.1,3.6-0.9
	c1.2,0.2,2.2,0.8,2.9,1.8c0.7,1.1,0.9,2.2,0.6,3.3c-0.3,1.1-1,2.1-2.2,2.9S192.6,354.3,191.4,354.2z"/>
<path class="st4" d="M379.5,120.7c1.2-2.4,2.5-4.1,4-5.1c1.5-1,3.3-1.9,5.4-2.6c1.9-0.6,3.3-1.1,4.3-1.6c1-0.5,1.8-1.4,2.4-2.7
	c0.5-1.1,0.6-2.2,0.2-3.2c-0.4-1.1-1.1-1.8-2-2.3c-1.4-0.7-2.7-0.8-4-0.3c-1.3,0.5-2.6,1.3-3.9,2.6l-4.8-6c0.9-1,2.2-2,3.8-2.9
	c1.6-0.9,3.5-1.5,5.8-1.7c2.3-0.2,4.7,0.3,7.2,1.6c3.3,1.6,5.5,3.7,6.7,6.4c1.2,2.7,1,5.7-0.7,9c-1.1,2.3-2.4,4-3.8,5
	c-1.4,1-2.7,1.7-4,2.1c-1.3,0.4-2.1,0.7-2.5,0.8c-1.7,0.6-3.2,1.3-4.4,2.2c-1.2,0.9-2.2,2.3-3.2,4.1l-0.6,1.1l-7.5-3.7L379.5,120.7z
	 M373.6,134.2c-0.5-1.1-0.4-2.2,0.1-3.4c0.5-1.1,1.4-1.8,2.6-2.2s2.5-0.2,3.7,0.4c1.3,0.6,2.1,1.5,2.5,2.7c0.4,1.2,0.4,2.3-0.2,3.4
	c-0.6,1.2-1.4,1.9-2.5,2.2c-1.1,0.3-2.3,0.2-3.6-0.5C375,136.2,374.1,135.3,373.6,134.2z"/>
<path class="st18" d="M26.9,313.1c0,0,23.8,25.2,60.4,22.7s46.8-22.7,46.8-22.7l-8.8-41l-74.5,9.5L26.9,313.1z"/>
<path class="st3" d="M125.7,453.2l1.1,14.6c0,0-2.9,1.3-6.8-0.2l-2.7-14.4L125.7,453.2z"/>
<path class="st19" d="M114.2,479.4c-0.5,3.5-0.3,8,0.5,13l2.9,0.1c0,0,1.7-7.9,3.3-11.4C122.7,477.7,115.8,476.4,114.2,479.4z"/>
<path class="st2" d="M118.9,465.7c0,0,3.1,1.7,8.8,0.4c0,0,8.4,15.7,11.4,18.6c3,2.9,9.7,6.2,12,7.6c2.3,1.4-15.8,1.5-19.9,0.6
	c-4.2-0.9-7.5-6.4-10.9-9.4c-3.4-3-6-4-6-4S115.5,471.6,118.9,465.7z"/>
<path class="st19" d="M118.2,271.4c0,0,8.8,27.9,9.4,39.8c0.6,11.9,0,62.9,0,62.9l1,80.1c0,0-9.2,2.9-13.9,1c0,0-4-21.9-6.8-33.3
	c-2.9-11.4-2.6-22.6-2.7-31.9c0,0-10.9-37.4-16.3-70.9s-3.1-52.6,9.8-55.4S118.2,271.4,118.2,271.4z"/>
<path class="st20" d="M118.7,453c-0.2,0-0.4-0.1-0.4-0.3c-0.3-1.2-6.6-29.2-7.3-36.2c-0.7-7-0.9-26.7-0.9-26.9l-12.7-66.1
	c0-0.2,0.1-0.5,0.3-0.5c0.2,0,0.5,0.1,0.5,0.3l12.7,66.2c0,0.3,0.3,20,0.9,26.9c0.6,6.9,7.2,35.8,7.3,36.1
	C119.2,452.7,119,453,118.7,453C118.8,453,118.8,453,118.7,453z"/>
<path class="st3" d="M48.3,454l-1.6,14.6c0,0-3,2-6.7,0l0-15.6L48.3,454z"/>
<path class="st19" d="M34.9,480.5c-0.4,3.6,0.1,8,1.1,13l4.7,0c0,0-0.4-7.9,1.1-11.5C43.4,478.4,36.4,477.3,34.9,480.5z"/>
<path class="st2" d="M39,466.5c0,0,3.2,1.6,8.8,0c0,0,7.9,15.3,11,18.1c3.1,2.8,5.3,5.8,7.6,7.1c2.4,1.3-15.7,2.2-19.9,1.4
	s-1.9-6.1-5.4-8.9s-6.2-3.8-6.2-3.8S35.9,472.6,39,466.5z"/>
<path class="st19" d="M99,292.5l-3.6,29.6c0,0-22.3,56-26.9,68.2c-4.6,12.2-16.1,65.2-16.1,65.2s-2.8,2.4-8.7,2.1s-7.1-3.2-7.1-3.2
	s0.6-40.3,2.4-50.6c1.8-10.3,6.5-25.8,7.1-33.1c0.6-7.3,2-47.5,4.6-64.1c2.6-16.6,11.6-41.9,29.7-41S100.4,280.8,99,292.5z"/>
<path class="st20" d="M41,453.4C41,453.4,41,453.4,41,453.4c-0.3,0-0.4-0.2-0.4-0.4c0-0.2,1.5-24.6,2.6-37.2
	c0.8-9.7,3.3-21.9,4.9-30c0.5-2.6,1-4.8,1.2-6.4c1-5.9,3.2-18.2,3.7-28c0.5-9.5,6.6-59.1,6.7-59.6c0-0.2,0.2-0.4,0.5-0.4
	c0.2,0,0.4,0.2,0.4,0.5c-0.1,0.5-6.3,50.1-6.7,59.6c-0.5,9.8-2.6,22.1-3.7,28.1c-0.3,1.6-0.7,3.8-1.2,6.4c-1.6,8.1-4,20.3-4.9,29.9
	c-1.1,12.6-2.6,36.9-2.6,37.2C41.4,453.2,41.2,453.4,41,453.4z"/>
<path class="st20" d="M95.3,322.6c-0.1,0-0.3-0.1-0.3-0.2c-0.1-0.2-0.1-0.5,0.1-0.6l3.6-2.7c1.5-1.2,2.5-2.9,2.7-4.9l2.5-23.8
	c0-0.2,0.2-0.4,0.5-0.4c0.2,0,0.4,0.2,0.4,0.5l-2.5,23.8c-0.2,2.2-1.3,4.1-3.1,5.4l-3.6,2.7C95.5,322.5,95.4,322.6,95.3,322.6z"/>
<path class="st20" d="M95.3,322.6C95.3,322.6,95.3,322.6,95.3,322.6c-0.3,0-0.4-0.2-0.4-0.5l3.7-31.2c0-0.2,0.2-0.4,0.5-0.4
	c0.2,0,0.4,0.2,0.4,0.5l-3.7,31.2C95.7,322.4,95.5,322.6,95.3,322.6z"/>
<path class="st2" d="M110.6,171.4c0,0,5.9-8.6,25.8,38.3l3.4,9c1,2.7,1.1,5.7,0,8.3c-1.8,4.1-5.8,6.5-11.2,6.4c-0.4,0-0.8,0-1.2-0.1
	c-4.3-0.8-8.7-8-15.2-27S110.6,171.4,110.6,171.4z"/>
<path class="st18" d="M87.4,173.1l-18.5,16.1c0,0-19,93.8-18.2,93.8c0.8,0,25.1,5.5,47.9,3.5c23.4-2.1,27.8-6.3,27.8-6.3l-12.2-64.5
	l-2.4-29.8L87.4,173.1z"/>
<path class="st19" d="M89.5,284c-15.1,0-27.7-2.4-28-2.5c-0.2,0-0.4-0.3-0.3-0.5c0-0.2,0.3-0.4,0.5-0.3c0.4,0.1,37.7,7.2,60.7-3.2
	c0.2-0.1,0.5,0,0.6,0.2c0.1,0.2,0,0.5-0.2,0.6C112.9,282.7,100.5,284,89.5,284z"/>
<path class="st2" d="M87.4,247.1c-2.2,38.3-16.7,69.8-16.7,69.8c-14.3,8.1-43.7-3.8-43.7-3.8s24.3-49.3,28.6-71.4
	c4.6-23.7,2.8-71.4,2.8-71.4c4.9-4.7,16.3,0.6,24,2.1c-0.5,4.7-2.1,24.3-0.4,38.3C83.8,226.7,87.4,247.1,87.4,247.1z"/>
<path class="st2" d="M91.8,172.4c0,0,9.3-0.5,19.6-1.4l1.9,18.7c0,0,5.3,17.7,5.6,20.9c0.3,3.2-2.4,14.2-2.4,14.2
	s15.9,61.6,17.7,88.4c0,0-9.5-0.5-19.3-2.9c0,0,0-23-0.8-40c-0.8-17-3.5-28.5-3.5-28.5s-9.6-40.1-11.9-48.6
	C96.3,184.7,91.8,172.4,91.8,172.4z"/>
<path class="st21" d="M121.9,247.4c-0.2,0-0.3-0.1-0.4-0.3c-3-12.9-5.5-22.3-5.5-22.4c0-0.1,0-0.1,0-0.2c0-0.1,2.6-11,2.4-14
	c-0.2-3.1-5.5-20.6-5.5-20.8l-2.1-16.6c0-0.2,0.1-0.4,0.3-0.4c0.2,0,0.4,0.1,0.4,0.3l2.1,16.6c0.2,0.7,5.3,17.7,5.6,20.9
	c0.2,3.1-2.1,13.1-2.4,14.2c0.3,1,2.6,10.1,5.5,22.3C122.3,247.2,122.2,247.4,121.9,247.4C122,247.4,122,247.4,121.9,247.4z"/>
<path class="st2" d="M85.5,169.1c-5.1,0.8-9.5,12.1-11.4,22.2l5.7,5.2l-5.7,10.1c0,0,8.6,21.4,13.3,40.5c0,0-2.2-31-3.7-48.1
	c0.3-17.6,8.4-18.2,14.9-1.7c6.3,18.3,11.9,44.4,11.9,44.4s0.7-26.1-0.7-40.2l-8.4-6.5l2.5-6.6C103.9,188.4,95.2,167.6,85.5,169.1z"
	/>
<path class="st21" d="M110.5,242C110.5,242,110.5,242,110.5,242c-0.2,0-0.4-0.2-0.4-0.4c0-0.3,0.7-26.1-0.7-40l-8.3-6.4
	c-0.1-0.1-0.2-0.3-0.1-0.4l2.5-6.4c-0.4-1-3.2-7.4-7.2-12.4c-0.1-0.2-0.1-0.4,0.1-0.5c0.2-0.1,0.4-0.1,0.5,0.1
	c4.3,5.6,7.3,12.7,7.4,12.7c0,0.1,0,0.2,0,0.3l-2.4,6.3l8.2,6.3c0.1,0.1,0.1,0.2,0.1,0.3c1.3,13.9,0.7,40,0.7,40.3
	C110.8,241.9,110.7,242,110.5,242z"/>
<path class="st21" d="M85.4,240.2c-0.2,0-0.3-0.1-0.3-0.3c-4.7-16.6-11.3-33-11.3-33.1c0-0.1,0-0.2,0-0.3l5.6-9.9l-5.5-5
	c-0.1-0.1-0.1-0.2-0.1-0.3c1.2-6.3,3.2-12.3,5.4-16.4c0.1-0.2,0.3-0.2,0.5-0.1c0.2,0.1,0.2,0.3,0.1,0.5c-2.2,4-4.1,9.9-5.3,16
	l5.6,5.1c0.1,0.1,0.2,0.3,0.1,0.4l-5.6,10c0.7,1.8,6.8,17.3,11.3,33.1C85.8,239.9,85.7,240.1,85.4,240.2
	C85.5,240.2,85.5,240.2,85.4,240.2z"/>
<path class="st19" d="M75.5,139.2c0,0-3.7-7-9.5-8.5c-5.8-1.5-9.7,4.6-10.4,11.8c-0.8,7.3,4.7,13.4,12.7,6.5
	C74.6,143.6,75.5,139.2,75.5,139.2z"/>
<path class="st19" d="M74,139.3c0,0-9.3,5.1-8.3,13.5c1,8.5,15.8,15,23.8,10.2c8-4.8,6-11.7,6-11.7s7-0.6,7.1-7.4
	c0.1-6.8-3.4-8-7-7.3c0,0,1.3-8.4-6.4-9.2S75.6,130.9,74,139.3z"/>
<path class="st0" d="M65.8,149.8C65.8,149.8,65.8,149.8,65.8,149.8c-0.3-0.1-0.5-0.3-0.4-0.5c1.3-6.5,8.1-10.2,8.4-10.4
	c0.2-0.1,0.5,0,0.6,0.2c0.1,0.2,0,0.5-0.2,0.6c-0.3,0.1-6.7,3.7-7.9,9.8C66.2,149.7,66,149.8,65.8,149.8z"/>
<path class="st3" d="M98.6,197.3c-1.3,4.6-4.9,6.7-4.9,6.7c-5.4-0.4-10-5-10-5v-17.8c-0.1-4.8-1.2-16.5-1.6-20.8
	c-0.1-1-0.2-1.6-0.2-1.6l8.3,1.8c0,0,0.2,3.9,0.5,8.3c0.3,4.2,0.8,8.8,1.5,10.7C93.6,183.7,98.6,197.3,98.6,197.3z"/>
<path class="st19" d="M90.8,168.9c-4.8-1.5-7.4-5.4-8.7-8.5c-0.1-1-0.2-1.6-0.2-1.6l8.3,1.8C90.2,160.6,90.4,164.5,90.8,168.9z"/>
<path class="st3" d="M94,143.5c0,0,3.7,5.9,3.9,13.5c0.2,7.6-5.9,8.5-12,5.9s-9.9-11.4-9.9-11.4s-2.8-7.6,2.3-11.1
	S90.2,137.9,94,143.5z"/>
<path class="st19" d="M79,142.9c0,0,8.2,6.4,18.3,2.2c0,0-7.5-14-19.3-7.2c-11.9,6.8-6.2,16.4,0.3,18
	C78.1,155.8,81.7,151.7,79,142.9z"/>
<path class="st3" d="M82.3,159.1l-3-4.3c0,0-3.2-2.9-6.2-1C70.2,155.6,73.3,164,82.3,159.1z"/>
<path class="st19" d="M80.4,157.9c-0.1,0-0.2,0-0.3-0.1c-2.6-2.1-5.9-1.8-6-1.8c-0.2,0-0.4-0.1-0.5-0.4c0-0.2,0.1-0.4,0.4-0.5
	c0.1,0,3.7-0.3,6.6,2c0.2,0.1,0.2,0.4,0.1,0.6C80.6,157.9,80.5,157.9,80.4,157.9z"/>
<path class="st19" d="M76.7,159.1c-0.2,0-0.4-0.1-0.4-0.3c0-0.1-0.3-1.4-0.1-3c0-0.2,0.2-0.4,0.5-0.4c0.2,0,0.4,0.3,0.4,0.5
	c-0.2,1.5,0.1,2.7,0.1,2.7C77.2,158.8,77,159.1,76.7,159.1C76.8,159.1,76.8,159.1,76.7,159.1z"/>
<path class="st2" d="M79.4,167.6c-1.6,0-2.9-2-2.9-4.6c0-0.9,0.2-1.8,0.5-2.6c0.1-0.2,0.3-0.3,0.6-0.2c0.2,0.1,0.3,0.3,0.2,0.6
	c-0.3,0.7-0.4,1.4-0.4,2.2c0,2,0.9,3.7,2,3.7s2-1.7,2-3.7s-0.9-3.7-2-3.7c-0.2,0-0.4-0.2-0.4-0.4s0.2-0.4,0.4-0.4
	c1.6,0,2.9,2,2.9,4.6S81.1,167.6,79.4,167.6z"/>
<path class="st19" d="M81.2,148.7c0,0,0.5-3.4,3-3c0,0-0.2-0.7,0.4-0.9c0.6-0.2,1.2,1.6,1.2,1.6S83.2,147,81.2,148.7z"/>
<path class="st19" d="M95.1,149c0,0-1.1-2.5-2.6-1.1c0,0-0.2-0.5-0.6-0.5c-0.7,0.1-0.3,1.4-0.3,1.4C93,149.2,93.9,149.1,95.1,149z"
	/>
<ellipse transform="matrix(0.9595 -0.2818 0.2818 0.9595 -39.5026 30.4515)" class="st19" cx="86.1" cy="152.5" rx="1.3" ry="1.6"/>
<circle class="st15" cx="86.2" cy="151.9" r="0.3"/>
<path class="st19" d="M93.8,151.9c-0.7,0.2-1.4-0.3-1.7-1.2c-0.1-0.5-0.1-1,0.1-1.4c0.4,0.2,1.2,0.3,2.1,0.2
	c0.1,0.1,0.1,0.3,0.2,0.4C94.8,150.9,94.5,151.7,93.8,151.9z"/>
<circle class="st15" cx="93.6" cy="150.3" r="0.3"/>
<path class="st19" d="M91.1,156.6c-0.2,0-0.4-0.2-0.4-0.4c0-0.2,0.2-0.4,0.4-0.4c0.1,0,1.4-0.1,1.5-1c0-0.2-0.1-0.3-0.1-0.3
	c-0.2-0.2-1-0.1-1.4,0c-0.2,0.1-0.5-0.1-0.5-0.3l-0.9-3c-0.1-0.2,0.1-0.5,0.3-0.5c0.2-0.1,0.5,0.1,0.5,0.3l0.8,2.6
	c0.5-0.1,1.3-0.1,1.8,0.3c0.2,0.2,0.4,0.5,0.4,1C93.3,156.1,91.8,156.5,91.1,156.6C91.1,156.6,91.1,156.6,91.1,156.6z"/>
<path class="st19" d="M92.7,160.9c-0.1,0-0.2,0-0.3-0.1c-2.7-2.4-5.2-1.4-5.3-1.4c-0.2,0.1-0.5,0-0.6-0.2c-0.1-0.2,0-0.5,0.2-0.6
	c0.1-0.1,3.1-1.3,6.2,1.6c0.2,0.2,0.2,0.4,0,0.6C93,160.9,92.8,160.9,92.7,160.9z"/>
<path class="st2" d="M72.5,174.1c-1.3-4.4-6-7.1-10.4-5.8c-4.6,1.3-8.1,4.8-7.3,14.8c1.1,13.9,5.2,55.5,8.9,59.3
	c3.7,3.8,11.7,1.4,11.7,1.4s8.8-11.7,9.2-15.2c0.4-3.5-1.5-5.3-1.5-5.3l-4-0.3c0,0-1.9-26.5-3.8-37.2
	C74.6,181.3,73.5,177.3,72.5,174.1z"/>
<path class="st21" d="M70,245c-2.3,0-4.8-0.5-6.5-2.2c-1.6-1.7-3.5-10.5-5.5-26.1c0-0.2,0.1-0.4,0.3-0.4c0.2,0,0.4,0.1,0.4,0.3
	c2.5,19.2,4.3,24.6,5.3,25.7c3.3,3.3,10.2,1.6,11.2,1.3c0.8-1.1,8.7-11.8,9.1-15c0.4-2.9-1-4.5-1.3-4.9l-3.8-0.3
	c-0.2,0-0.3-0.2-0.3-0.3c0-0.3-1.9-26.6-3.8-37.2c-0.7-3.9-1.6-7.8-2.8-11.6c-0.1-0.2,0-0.4,0.2-0.5c0.2-0.1,0.4,0,0.5,0.2
	c1.2,3.9,2.1,7.8,2.8,11.7c1.8,10,3.6,33.9,3.8,36.9l3.6,0.3c0.1,0,0.2,0,0.2,0.1c0.1,0.1,2.1,2,1.7,5.6c-0.4,3.5-8.9,14.9-9.3,15.4
	c0,0.1-0.1,0.1-0.2,0.1C75.4,244.3,72.9,245,70,245z"/>
<path class="st19" d="M79.5,220.9l9-2.9c0,0,4.4,3.1,4.1,10.9c-0.3,7.7-4.8,15.4-4.8,15.4s-10.3,4.2-10.2,4.1c0-0.2-4-4.5-4.9-12.9
	S79.5,220.9,79.5,220.9z"/>
<path class="st3" d="M87.6,221.5c-6.8,11.2,0.1,18.7,0.1,18.7c6.7-3.7,34.3-18.5,36.1-19.4c0.1,0,0.7-8.3,0.7-8.3L87.6,221.5z"/>
<path class="st19" d="M118.9,211.9c-3.6,6.6-0.4,22.5,11.6,22.1c12-0.4,14.3-15.8,8.6-23.4C133.4,203,122.3,205.6,118.9,211.9z"/>
<path class="st3" d="M79.8,166.8c-0.1-0.4,0-0.8,0.3-1c1.2-0.9,3.9-2.9,4.6-3.1c0.8-0.3,10.9,1.6,10.9,1.6l1.9-6
	c0.2-0.5,0.7-0.9,1.3-0.9h0c0.7,0,1.2,0.6,1.2,1.3l-0.9,6.9l1.4,8.4c0,0,30.3,33.3,31.2,34.3c0.9,1,3.8,9,1.1,12.3
	c-5.6,6.9-13.7-0.7-14.9-2.7s-22.1-40.7-22.1-40.7l-5.8-0.6l-0.7,0.3c0,0,0,0.7-0.6,0.9c-0.6,0.2-2.1-0.1-2.2-1.2
	c-0.1-1.1,0.9-2.1,0.9-2.1s-1.9,0.9-2.5,0.8s-1.3-0.9-1.2-2c0.1-1.1,2.8-2.7,2.8-2.7s-2.6,0.8-3.2,0.7c-0.6-0.1-1.2-1.3-1.1-2.1
	s4.6-2.7,4.6-2.7l-2.1-0.5l-3.7,1.3C80.6,167.6,80,167.3,79.8,166.8L79.8,166.8z"/>
<path class="st19" d="M88.3,178.3c-0.5,0-1.1-0.1-1.6-0.5c-0.4-0.3-0.7-0.7-0.7-1.2c0-0.4,0.1-0.9,0.2-1.2c-0.5,0.2-1.1,0.3-1.4,0.3
	c-0.8-0.1-1.7-1.2-1.5-2.5c0.1-0.6,0.6-1.2,1.1-1.7c-0.5,0.1-0.9,0.2-1.1,0.1c-0.9-0.1-1.5-1.6-1.5-2.5c0-0.7,1.8-1.7,3.7-2.5
	l-0.7-0.2l-3.6,1.3c-0.3,0.1-0.7,0.1-1.1,0c-0.3-0.2-0.6-0.5-0.7-0.8c-0.2-0.6,0-1.2,0.5-1.5c1.8-1.3,4-3,4.7-3.2
	c0.8-0.3,7.5,0.9,10.8,1.6l1.8-5.6c0.1-0.2,0.2-0.4,0.4-0.6c0.2-0.2,0.4-0.2,0.6,0c0.2,0.2,0.2,0.4,0,0.6c-0.1,0.1-0.1,0.2-0.2,0.3
	l-1.9,6c-0.1,0.2-0.3,0.3-0.5,0.3c-4-0.8-10-1.8-10.7-1.7c-0.4,0.2-2.1,1.3-4.5,3.1c-0.2,0.1-0.2,0.4-0.2,0.6c0,0.1,0.1,0.2,0.3,0.3
	c0.1,0.1,0.3,0.1,0.4,0l3.7-1.3c0.1,0,0.2,0,0.2,0L87,166c0.2,0,0.3,0.2,0.3,0.4c0,0.2-0.1,0.4-0.3,0.4c-2,0.8-4.2,2-4.4,2.4
	c0,0.7,0.5,1.6,0.8,1.6c0.3,0.1,1.8-0.3,3-0.7c0.2-0.1,0.4,0,0.5,0.2c0.1,0.2,0,0.4-0.2,0.5c-1,0.6-2.5,1.8-2.6,2.4
	c-0.1,0.9,0.5,1.5,0.8,1.6c0.3,0,1.4-0.4,2.2-0.8c0.2-0.1,0.4,0,0.5,0.1c0.1,0.2,0.1,0.4-0.1,0.5c0,0-0.9,0.9-0.8,1.8
	c0,0.2,0.1,0.4,0.4,0.6c0.4,0.3,1.1,0.4,1.3,0.3c0.3-0.1,0.3-0.5,0.3-0.5c0-0.2,0.1-0.3,0.2-0.4l0.7-0.3c0.1,0,0.2,0,0.2,0l1.7,0.2
	c0.2,0,0.4,0.2,0.4,0.5s-0.2,0.4-0.5,0.4l-1.5-0.2l-0.4,0.2c-0.1,0.4-0.3,0.8-0.9,1C88.6,178.3,88.5,178.3,88.3,178.3z"/>
<path class="st3" d="M477.4,452.7c0,0,1.3,9.3,1.6,11.9c0.5,4.3,1.2,10,1.2,10.2c0,0.2,4.6,1.8,4.6,1.8l5-1.7l-0.2-7.6l-0.3-14
	L477.4,452.7z"/>
<path class="st19" d="M477.4,452.7c0,0,1.3,9.3,1.6,11.9c2.5,0.6,6.9,1.8,10.6,2.8l-0.3-14L477.4,452.7z"/>
<path class="st19" d="M490.7,470.7c0,0-6.9,2.1-12.6,0.3c0,0-9.9,7.2-16.3,9.5s-12.3,3.9-12.3,13.9h45.4
	C494.9,494.4,495.7,478.7,490.7,470.7z"/>
<path class="st0" d="M471,482c-0.2,0-0.4-0.1-0.5-0.3c-0.1-0.3-0.1-0.6,0.2-0.7c0.1,0,5.6-3.3,10.6-7.7c0.2-0.2,0.5-0.2,0.7,0
	c0.2,0.2,0.2,0.5,0,0.7c-5.1,4.5-10.7,7.8-10.7,7.8C471.2,482,471.1,482,471,482z"/>
<path class="st2" d="M471.4,488.2c0,0-2.3-7.2-7.2-9.7c0,0-8.4,2.8-12,4.9c-3.6,2-3.8,6.4-3.8,11h47.3v-6.2H471.4z"/>
<path class="st2" d="M475.1,460.1l17.8,0c0,0,3.8-78.6,3.8-79.3c0-0.7,12.3-76.4,12.3-76.4s-8.2-31.9-9.9-40.5
	c-2.7-13.2-30.9-28.6-33.5,10.2s4.1,107.7,4,115.1S475.1,460.1,475.1,460.1z"/>
<path class="st21" d="M478.9,396.9c-4.5,0-8.3-5.4-8.5-12.2c-0.2-6.9,3.3-12.6,7.8-12.8l0,0c4.6-0.1,8.5,5.3,8.7,12.2
	c0.2,6.9-3.3,12.6-7.8,12.8C479,396.9,479,396.9,478.9,396.9z M478.3,372.9c-4,0.1-7,5.4-6.8,11.7s3.7,11.3,7.6,11.2
	c4-0.1,7-5.4,6.8-11.7C485.7,377.8,482.2,372.8,478.3,372.9L478.3,372.9z"/>
<path class="st21" d="M488.4,456.4C488.4,456.4,488.4,456.4,488.4,456.4c-0.3,0-0.5-0.3-0.5-0.5l2.5-76.7l9.5-64.4
	c0-0.3,0.3-0.5,0.6-0.4c0.3,0,0.5,0.3,0.4,0.6l-9.5,64.4l-2.4,76.6C488.9,456.2,488.7,456.4,488.4,456.4z"/>
<path class="st3" d="M560.5,456.2c0,0,0.2,2.1,0.5,4.7c0.5,4.3,1.1,10.1,1.1,10.2c0.1,0.2-4,2.8-4,2.8l-5.2-0.5l-1.6-7.4l-1.4-6.8
	L560.5,456.2z"/>
<path class="st19" d="M539.8,494.4h27.5c0,0,0.1-2.6,0-6.2c-0.2-5.3-1.1-12.8-4.2-17.5c0,0-6.9,2.1-12.6,0.3c0,0-4.2,7.9-8.2,13.6
	c0,0-0.1,0.1-0.1,0.1C540.3,487.6,539.8,491.3,539.8,494.4z"/>
<path class="st0" d="M550.8,485.6c-0.1,0-0.2,0-0.3-0.1c-0.2-0.2-0.3-0.5-0.1-0.7c0-0.1,3.8-5.2,6.6-11.3c0.1-0.3,0.4-0.4,0.7-0.3
	c0.3,0.1,0.4,0.4,0.3,0.7c-2.9,6.1-6.7,11.4-6.7,11.4C551.1,485.6,550.9,485.6,550.8,485.6z"/>
<path class="st2" d="M535.8,494.4h32.3v-6.2h-11.3c0,0,0.1-9.7-9.8-9.7S535.8,486.9,535.8,494.4z"/>
<path class="st19" d="M560.5,456.2c0,0,0.2,2.1,0.5,4.7c-2.3,1.2-6.3,3.4-9.7,5.1l-1.4-6.8L560.5,456.2z"/>
<path class="st2" d="M546.7,278.1c0,0,6.5,91.8,7.5,104.6c1.1,12.8,9.7,74.8,9.7,74.8s-7.5,2.9-17.9,4.1
	c-0.3-0.9-18.5-64.8-19.8-70.7c-0.8-3.3-17.3-71.5-17.4-71.7c-0.4-1.5-13.2-37-4.2-54.7C513.7,246.9,540.6,252.3,546.7,278.1z"/>
<path class="st21" d="M508.8,307.9c-0.1,0-0.1,0-0.2,0l-2-0.9c-2.5-1.1-4.2-3.5-4.4-6.2l-1.2-18.6c0-0.3,0.2-0.5,0.5-0.6
	c0.3,0,0.5,0.2,0.6,0.5l1.2,18.6c0.2,2.4,1.6,4.4,3.8,5.3l1.3,0.5l-0.9-25.6c0-0.3,0.2-0.5,0.5-0.5c0.3,0,0.5,0.2,0.5,0.5l0.9,26.4
	c0,0.2-0.1,0.3-0.2,0.5C509,307.9,508.9,307.9,508.8,307.9z"/>
<path class="st21" d="M537.6,405.7c-1.9,0-3.9-1-5.5-2.8c-1.9-2.1-3.2-5-3.8-8.3c-0.5-3.3-0.2-6.5,0.9-9c1.1-2.6,3-4.3,5.2-4.7l0,0
	c4.5-0.7,9.1,4.2,10.2,11s-1.6,12.9-6.1,13.7C538.2,405.7,537.9,405.7,537.6,405.7z M534.6,382c-1.9,0.3-3.4,1.7-4.4,4
	c-1,2.4-1.3,5.4-0.8,8.4c0.5,3.1,1.7,5.8,3.5,7.7c1.7,1.9,3.6,2.7,5.5,2.4c3.9-0.7,6.3-6.3,5.3-12.5
	C542.6,385.9,538.5,381.3,534.6,382L534.6,382z"/>
<path class="st21" d="M559.4,454.4c-0.3,0-0.5-0.2-0.5-0.5c-0.1-0.5-7.2-54.1-9-60.3c-1.8-6.3-11.5-106.5-11.9-110.8
	c0-0.3,0.2-0.5,0.5-0.6c0.3,0,0.5,0.2,0.6,0.5c0.1,1,10.1,104.3,11.9,110.6c1.8,6.3,8.8,58.3,9.1,60.5
	C560,454.1,559.8,454.3,559.4,454.4C559.5,454.4,559.4,454.4,559.4,454.4z"/>
<path class="st0" d="M491.3,188.7c-2,5.4-4.6,11.2-7.4,16.9c-2.9,5.8-6,11.5-8.9,16.2c-0.5,0.9-1.7,2.9-2.9,5c-1,1.7-2.6,3-4.5,3.6
	l0,0c-6.3,2-13.1-1.6-15-7.9v0c-1-3.4-0.9-7.1,0.4-10.5c6.7-17.9,15.2-39.3,18.5-43.3c4-4.9,11.4-4.2,16.4,0.4
	C492.2,173,494.6,179.9,491.3,188.7z"/>
<path class="st0" d="M538.4,244.7c-0.4-3.7,1.8-47.3,0.1-68.4c-1.1-13.8-9.5-13.1-15-12.4c-7.5,0.9-17.6,2.1-25.3,3.2
	c-4.6,0-11.7,0-16.5-1.5c-5.2-1.6-10.4,2-11.1,7.3c-3.2,25.6,2.9,60.9,1.5,72.4c-1.7,13.3-14,43.1-14,43.1
	c12.2,9.1,24.8,13,36.6,13.8c2.7-4.6,12.3-20.2,12.3-20.2l14.8,17.3c18-5,30.3-14.2,30.3-14.2S538.9,249.4,538.4,244.7z"/>
<path class="st1" d="M470.8,216.5c-0.3,0-0.5-0.2-0.5-0.5c-1.1-14.7-1.8-30.1-0.2-43.2c0-0.3,0.3-0.5,0.6-0.5c0.3,0,0.5,0.3,0.5,0.6
	c-1.6,13-0.9,28.3,0.2,43C471.3,216.3,471.1,216.5,470.8,216.5C470.8,216.5,470.8,216.5,470.8,216.5z"/>
<polygon class="st1" points="474.4,265.5 472.6,271.9 490.7,276.6 492.6,270.2 "/>
<polygon class="st1" points="534.2,263.8 536.4,270 518.6,275.9 516.3,269.5 "/>
<path class="st1" d="M505.9,281.5c-0.1,0-0.3-0.1-0.4-0.2l-4.7-4.9c-0.1-0.1-0.2-0.3-0.1-0.5c0-0.2,3.3-18.7,3.5-48.6
	c0-0.3,0.2-0.5,0.5-0.5c0,0,0,0,0,0c0.3,0,0.5,0.2,0.5,0.5c-0.2,28.1-3.1,46.2-3.5,48.6l4.6,4.7c0.2,0.2,0.2,0.5,0,0.7
	C506.2,281.5,506.1,281.5,505.9,281.5z"/>
<path class="st1" d="M487.5,166.6c0,0-7.5,10.6-10.3,21.1l8.3,3.5l-5.4,10.4l24.6,24.5l18.3-26.2l-5.7-10.5l6.3-3.1
	c0,0-8.6-18.9-12.2-21.2C505.1,161.4,497.9,161,487.5,166.6z"/>
<path class="st15" d="M498.4,168.5c-3.4,0.1-4.7-0.4-9.8-0.9c-0.9,15.4,5.5,40.7,15.8,53.8c0,0,6.3-32.4,6.3-53.9
	C504.5,167.9,502.5,167.9,498.4,168.5z"/>
<path class="st19" d="M508.4,204.8c-0.7-4.9-2.9-17.9-5.9-26.8l-3.5-0.8l-2.5,1.5c0,0-1.8,11.7-1.6,26.1c2.8,6.2,6,12.1,9.5,16.4
	C504.4,221.3,506.2,214.1,508.4,204.8z"/>
<path class="st20" d="M497.2,185.5c-0.3,0-0.5-0.2-0.5-0.5c0-0.3,0.2-0.5,0.5-0.6c0.1,0,3.7-0.4,5.8-0.2c0.3,0,0.5,0.3,0.5,0.6
	c0,0.3-0.3,0.5-0.6,0.5C500.8,185.1,497.3,185.5,497.2,185.5C497.2,185.5,497.2,185.5,497.2,185.5z"/>
<path class="st15" d="M499.8,178.6c0,0-4.7,2.2-9.5,6.9c0,0-1.1-16.9,7.8-18.6c8.9-1.7,11.4,16.2,11.4,16.2S507.2,180.9,499.8,178.6
	z"/>
<path class="st22" d="M490.3,186.1c-0.1,0-0.1,0-0.2,0c-0.2-0.1-0.3-0.3-0.3-0.5c0-0.4-0.5-8.9,2.5-14.5c0.1-0.3,0.5-0.3,0.7-0.2
	c0.3,0.1,0.4,0.5,0.2,0.7c-2.2,4.2-2.4,10.3-2.4,12.8c4.5-4.2,8.6-6.1,8.8-6.2c0.1-0.1,0.3-0.1,0.4,0c4.8,1.4,7.5,2.9,8.8,3.8
	c-0.5-2.6-1.9-8.5-4.7-11.9c-0.2-0.2-0.2-0.6,0.1-0.7c0.2-0.2,0.6-0.2,0.7,0.1c3.9,4.7,5.1,13.4,5.2,13.8c0,0.2-0.1,0.4-0.3,0.5
	c-0.2,0.1-0.4,0.1-0.6-0.1c0,0-2.3-2.3-9.3-4.4c-0.9,0.5-5,2.7-9.2,6.8C490.6,186.1,490.5,186.1,490.3,186.1z"/>
<path class="st3" d="M501.4,173.8c0,0-2.5,1.8-6,0.5l-1.2-8.6l-1.3-9.4l8.4-7.2l0.1-0.1v0.6l0,4.8L501.4,173.8z"/>
<path class="st19" d="M501.4,154.4c-0.4,3.8-1.9,9.1-7.2,11.3l-1.3-9.4l8.4-7.2c0,0.2,0.1,0.4,0.1,0.5c0.1,0.5,0.1,0.8,0.1,0.8
	C501.4,150.4,501.6,152.1,501.4,154.4z"/>
<path class="st3" d="M486.2,146.8c0,0-2-2.9-4.3-1.4c-2.3,1.5-0.4,7.7,4.7,8.3L486.2,146.8z"/>
<path class="st19" d="M485.8,151.2c-0.2,0-0.4-0.1-0.5-0.3c-1.1-2.6-2.6-3.3-2.6-3.3c-0.3-0.1-0.4-0.4-0.3-0.7
	c0.1-0.3,0.4-0.4,0.7-0.3c0.1,0,1.9,0.8,3.2,3.8c0.1,0.3,0,0.6-0.3,0.7C485.9,151.2,485.8,151.2,485.8,151.2z"/>
<path class="st3" d="M494.3,133.8c-7.5-1-9.9,9.9-9.5,18c0.5,8.1,6.9,13.6,14,7.8S509.7,135.8,494.3,133.8z"/>
<path class="st19" d="M501.3,161.4l0-4.9l0.2-4.7l1.6-5.5c0,0-6-0.1-3.3-6.9c0,0-8.1,7.9-15.5,6.6c-7.4-1.2-12-10.3-10.5-12.7
	c1.5-2.3,4.7,0.7,4.9,0.9c-0.3-0.6-6.5-11.2-1.4-16.6c5.3-5.5,17.3,6.3,24.2,13.4c1.1,1.1,2.1,2.1,3.1,3.1c-0.5-1.8-1.3-4.6-1.8-7.6
	c-0.9-4.9,6.1-2.7,4.4,9.9c0,0,5.7-6.3,8.5-4.2c2.4,1.7-2.4,5.1-6.6,6.2c3.2,3.1,5.3,5.7,5.2,8.7
	C514.4,152.1,501.3,161.4,501.3,161.4z"/>
<path class="st3" d="M503.3,149.2c0,0,1.5-3.1,5.1-2s0.9,9.1-6.4,7L503.3,149.2z"/>
<path class="st19" d="M503.6,152.6c-0.1,0-0.2,0-0.2,0c-0.3-0.1-0.4-0.4-0.3-0.7c0.1-0.1,1.6-3.3,5-3.3c0,0,0,0,0.1,0
	c0.3,0,0.5,0.2,0.5,0.5c0,0.3-0.3,0.5-0.5,0.5c-2.7,0-4,2.6-4.1,2.7C504,152.5,503.8,152.6,503.6,152.6z"/>
<path class="st19" d="M506.5,152.6C506.5,152.6,506.5,152.6,506.5,152.6c-0.3,0-0.5-0.3-0.5-0.6c0,0,0-1.1-0.7-2
	c-0.2-0.2-0.2-0.6,0.1-0.7c0.2-0.2,0.6-0.2,0.7,0.1c1,1.2,1,2.7,1,2.7C507,152.4,506.8,152.6,506.5,152.6z"/>
<path class="st19" d="M499.6,143.5c0,0-1.2-3.1-3.6-2.1c0,0,0-0.7-0.6-0.7c-0.6-0.1-0.8,1.8-0.8,1.8S497.4,142.4,499.6,143.5z"/>
<path class="st19" d="M484.9,146.2c0,0,1.2-2.8,2.6-1.4c0,0,0.2-0.5,0.6-0.4c0.7,0.1,0.2,1.8,0.2,1.8S486.4,145.6,484.9,146.2z"/>
<ellipse transform="matrix(4.367330e-02 -0.999 0.999 4.367330e-02 323.7724 637.8867)" class="st19" cx="495.1" cy="149.8" rx="1.5" ry="1.2"/>
<circle class="st15" cx="494.8" cy="149.3" r="0.3"/>
<ellipse transform="matrix(4.367330e-02 -0.999 0.999 4.367330e-02 317.0819 630.2565)" class="st19" cx="487.7" cy="149.5" rx="1.5" ry="1.2"/>
<circle class="st15" cx="487.5" cy="148.9" r="0.3"/>
<path class="st19" d="M490.5,155.8c-0.8,0-1.8-0.3-2.1-1.3c-0.3-1.2,0.9-2,1.6-2.2c0.3-0.1,0.6,0.1,0.7,0.3c0.1,0.3-0.1,0.6-0.3,0.7
	l0,0c0,0-1,0.3-0.9,0.9c0.2,0.8,1.5,0.5,1.5,0.5c0.3-0.1,0.6,0.1,0.6,0.4c0.1,0.3-0.1,0.6-0.4,0.6
	C491,155.8,490.8,155.8,490.5,155.8z"/>
<path class="st19" d="M495.2,153.9c-2.2,0-4-1.8-4-4c0-2.2,1.8-4,4-4s4,1.8,4,4C499.1,152.1,497.4,153.9,495.2,153.9z M495.2,146.9
	c-1.6,0-2.9,1.3-2.9,2.9s1.3,2.9,2.9,2.9s2.9-1.3,2.9-2.9S496.8,146.9,495.2,146.9z"/>
<path class="st19" d="M486.7,153.3c-2.2,0-4-1.8-4-4s1.8-4,4-4s4,1.8,4,4S488.9,153.3,486.7,153.3z M486.7,146.4
	c-1.6,0-2.9,1.3-2.9,2.9s1.3,2.9,2.9,2.9s2.9-1.3,2.9-2.9S488.3,146.4,486.7,146.4z"/>
<path class="st19" d="M491,158.8c-0.1,0-0.3-0.1-0.4-0.2c-0.2-0.2-0.2-0.5,0-0.7c3-2.9,6-1.7,6.1-1.7c0.3,0.1,0.4,0.4,0.3,0.7
	c-0.1,0.3-0.4,0.4-0.7,0.3c-0.1,0-2.5-0.9-5,1.4C491.3,158.7,491.1,158.8,491,158.8z"/>
<path class="st3" d="M481.2,207.3l-7.9-13.3c-0.8-1.3-2.2-2-3.7-2l-8.2,0.5c-0.6,0-1.1,0.6-1.1,1.2v0c0,0.7,0.6,1.2,1.2,1.2h0.9
	l-4.1,0.7c-0.6,0.1-1.1,0.7-1.1,1.3v0c0,0.8,0.7,1.4,1.5,1.3l3.6-0.4l-4.2,1.3c-0.7,0.2-1.1,0.9-1,1.6l0,0c0.1,0.8,0.9,1.4,1.7,1.3
	l4.6-0.7l-3.5,1.9c-0.7,0.4-1,1.3-0.7,2h0c0.3,0.7,1.2,1.1,1.9,0.9l4.2-1.4l6.2,6.8c1.3,1.4,3.1,2.2,5,2l2.7-0.2l8.1,2.9l0.5-8
	L481.2,207.3z"/>
<path class="st19" d="M464,195.2c-0.2,0-0.4-0.1-0.4-0.3c0-0.2,0.1-0.4,0.3-0.4l4.1-0.4c0.2,0,0.4,0.1,0.4,0.3
	c0,0.2-0.1,0.4-0.3,0.4L464,195.2C464,195.2,464,195.2,464,195.2z"/>
<path class="st19" d="M464,198c-0.2,0-0.3-0.1-0.4-0.3c0-0.2,0.1-0.4,0.3-0.4l3.9-0.7c0.2,0,0.4,0.1,0.4,0.3c0,0.2-0.1,0.4-0.3,0.4
	L464,198C464,197.9,464,198,464,198z"/>
<path class="st19" d="M468.7,205.7c-0.1,0-0.3-0.1-0.3-0.2l-0.6-1.4c-0.1-0.2,0-0.3,0.1-0.4l0.8-0.7c0.2-0.2,0.3-0.4,0.2-0.6
	l-0.1-0.5c-0.2-0.6,0.1-1.2,0.6-1.5l0.2-0.1c0.2-0.2,0.3-0.5,0.2-0.8l-0.2-0.6c-0.2-0.6,0-1.3,0.5-1.6l0.3-0.2
	c0.3-0.2,0.3-0.5,0.2-0.8l-0.2-0.4c-0.3-0.6-0.1-1.3,0.4-1.7l0.7-0.5c0.2-0.1,0.4-0.1,0.5,0.1c0.1,0.2,0.1,0.4-0.1,0.5l-0.7,0.5
	c-0.2,0.2-0.3,0.5-0.2,0.8l0.2,0.4c0.3,0.6,0.1,1.3-0.5,1.7l-0.3,0.2c-0.2,0.2-0.3,0.5-0.2,0.8l0.2,0.6c0.2,0.6,0,1.3-0.5,1.6
	l-0.2,0.1c-0.2,0.2-0.3,0.4-0.3,0.7l0.1,0.5c0.1,0.5,0,1.1-0.4,1.4l-0.6,0.5l0.5,1.2c0.1,0.2,0,0.4-0.2,0.5
	C468.8,205.7,468.7,205.7,468.7,205.7z"/>
<path class="st0" d="M519.3,170.6l-5,47.7c0,0,0,11.3,9.7,11.6c8,0.2,10.9-1.2,12.4-16.2c1.5-15,0.9-37.9-0.1-43.9
	S522,158.8,519.3,170.6z"/>
<path class="st1" d="M514.4,218.8C514.3,218.8,514.3,218.8,514.4,218.8c-0.3,0-0.6-0.3-0.5-0.6l5-47.7c0-0.3,0.3-0.5,0.6-0.5
	c0.3,0,0.5,0.3,0.5,0.6l-5,47.7C514.9,218.6,514.6,218.8,514.4,218.8z"/>
<polygon class="st15" points="478.7,217.2 483.1,218.3 484.5,206.1 480,205.6 "/>
<path class="st0" d="M482.4,219.5l34.5,10.9l2.9,0.9c6.3,2,13.1-1.6,15-7.9v0c1-3.2-0.2-6.6-2.9-8.6l-3.4-2.5
	c-3.3-2.5-7.3-4-11.4-4.4l-13.6-1.3l-19.7-1.9L482.4,219.5z"/>
<path class="st1" d="M523.2,232.4c-0.6,0-1,0-1,0c-0.8-0.1-1.7-0.3-2.5-0.5L482.3,220c-0.2-0.1-0.4-0.3-0.4-0.6l1.5-14.8
	c0-0.3,0.3-0.5,0.6-0.5l33.2,3.2c2.7,0.3,5.3,1,7.8,2.1c0.3,0.1,0.4,0.4,0.3,0.7c-0.1,0.3-0.4,0.4-0.7,0.3c-2.3-1.1-4.8-1.8-7.4-2
	l-32.7-3.2l-1.4,13.8l37,11.7c0.7,0.2,1.5,0.4,2.3,0.5c0.3,0,8,0.9,11.4-6.4c0.1-0.3,0.4-0.4,0.7-0.3c0.3,0.1,0.4,0.4,0.3,0.7
	C531.7,231.7,525.6,232.4,523.2,232.4z"/>
<circle class="st19" cx="487.2" cy="216.9" r="1.4"/>
<path class="st3" d="M505.1,200.1l9.4-1.4c2.3-0.3,4.5,0.9,5.5,3l3.6,7.2l-4.3-1.3c-2-0.3-3.8-0.5-5.5-0.5l-7.4,2.9L505.1,200.1z"/>
<polygon class="st15" points="507.9,210.8 503.7,212.3 501.1,200.3 505.5,199.4 "/>
<path class="st0" d="M504.5,213.4l-33.3,14.3l-2.8,1.2c-6.1,2.6-13.2-0.3-15.7-6.4v0c-1.3-3.1-0.5-6.6,2-8.8l3.1-2.9
	c3.1-2.8,6.9-4.7,10.9-5.5l13.4-2.6l19.4-3.8L504.5,213.4z"/>
<circle class="st19" cx="499.4" cy="211.3" r="1.4"/>
<path class="st1" d="M470.9,228.9c-0.2,0-0.4-0.1-0.5-0.3c-0.1-0.3,0-0.6,0.3-0.7l33.2-14.8l-2.8-13.6l-32.2,6.3
	c-4,0.8-7.7,2.6-10.7,5.4l-2.3,2.1c-0.2,0.2-0.5,0.2-0.7,0c-0.2-0.2-0.2-0.5,0-0.7l2.3-2.1c3.1-2.9,7-4.8,11.2-5.6l32.8-6.4
	c0.3-0.1,0.6,0.1,0.6,0.4l2.9,14.6c0,0.2-0.1,0.5-0.3,0.6l-33.6,15C471.1,228.9,471,228.9,470.9,228.9z"/>
<path class="st19" d="M402.8,494.8h-80.6c-0.2,0-0.4-0.2-0.4-0.4s0.2-0.4,0.4-0.4h80.6c0.2,0,0.4,0.2,0.4,0.4
	S403.1,494.8,402.8,494.8z"/>
<path class="st19" d="M573,494.8H441.2c-0.2,0-0.4-0.2-0.4-0.4s0.2-0.4,0.4-0.4H573c0.2,0,0.4,0.2,0.4,0.4S573.3,494.8,573,494.8z"
	/>
<path class="st19" d="M216.4,494.8H101.9c-0.2,0-0.4-0.2-0.4-0.4s0.2-0.4,0.4-0.4h114.6c0.2,0,0.4,0.2,0.4,0.4
	S216.7,494.8,216.4,494.8z"/>
<path class="st19" d="M351.8,501.4H153.6c-0.2,0-0.4-0.2-0.4-0.4s0.2-0.4,0.4-0.4h198.1c0.2,0,0.4,0.2,0.4,0.4
	S352,501.4,351.8,501.4z"/>
<path class="st19" d="M428.5,510.2H230.4c-0.2,0-0.4-0.2-0.4-0.4s0.2-0.4,0.4-0.4h198.1c0.2,0,0.4,0.2,0.4,0.4
	S428.8,510.2,428.5,510.2z"/>
<path class="st19" d="M176.6,510.2h-51.1c-0.2,0-0.4-0.2-0.4-0.4s0.2-0.4,0.4-0.4h51.1c0.2,0,0.4,0.2,0.4,0.4
	S176.9,510.2,176.6,510.2z"/>
<path class="st19" d="M516.6,510.2h-51.1c-0.2,0-0.4-0.2-0.4-0.4s0.2-0.4,0.4-0.4h51.1c0.2,0,0.4,0.2,0.4,0.4
	S516.9,510.2,516.6,510.2z"/>
<path class="st19" d="M325.9,521h-51.1c-0.2,0-0.4-0.2-0.4-0.4s0.2-0.4,0.4-0.4h51.1c0.2,0,0.4,0.2,0.4,0.4S326.2,521,325.9,521z"/>
<path class="st19" d="M95.6,501.4H63.4c-0.2,0-0.4-0.2-0.4-0.4s0.2-0.4,0.4-0.4h32.3c0.2,0,0.4,0.2,0.4,0.4S95.9,501.4,95.6,501.4z"
	/>
</svg>
