<?xml version="1.0" encoding="utf-8"?>
<!-- Generator: Adobe Illustrator 24.1.1, SVG Export Plug-In . SVG Version: 6.00 Build 0)  -->
<svg version="1.1" id="Слой_1" xmlns="http://www.w3.org/2000/svg" xmlns:xlink="http://www.w3.org/1999/xlink" x="0px" y="0px"
	 viewBox="0 0 600 600" style="enable-background:new 0 0 600 600;" xml:space="preserve">
<style type="text/css">
	.st0{fill:#159BBA;}
	.st1{fill:#38B9CE;}
	.st2{fill:#DDA95B;}
	.st3{fill:#CE9238;}
	.st4{fill:#86EFFA;}
	.st5{fill:#6D6D71;}
	.st6{fill:#E9E9E9;}
	.st7{fill:#29292C;}
	.st8{fill:#515154;}
	.st9{fill:#FFEABB;}
	.st10{fill:#9AB3DA;}
	.st11{fill:#EEEEEE;}
	.st12{fill:#5BD1DD;}
	.st13{fill:#0B7D98;}
	.st14{fill:#FFFFFF;}
	.st15{fill:#95EAEF;}
</style>
<g>
	<path class="st0" d="M92,495.4c0,0-88.5-53.3-69.9-160.7C22.1,334.7,116.6,382.3,92,495.4z"/>
</g>
<g>
	<g>
		<path class="st1" d="M53.7,390.4c-15-0.8-25.9-7.4-33.7-15.2c0.7,9.2,2.1,17.8,4.2,25.9c6.9,3.9,15.5,6.4,25.9,6.3
			c17.6-0.1,30.6,4.2,39.7,9.2c-1.6-5.1-3.4-9.9-5.5-14.4C76.2,396,66,391.1,53.7,390.4z"/>
	</g>
</g>
<g>
	<g>
		<path class="st1" d="M67.5,430.6c-15.2,2.1-27.4-2.7-36.6-9c4,9.7,8.9,18.5,14,26.3c6.5,1.5,13.9,1.8,22.2,0.1
			c11-2.2,20.4-2.3,28.4-1.2c-0.4-4.5-0.9-8.8-1.7-13C86.1,430.8,77.3,429.3,67.5,430.6z"/>
	</g>
</g>
<g>
	<g>
		<path class="st1" d="M89.6,488.2c-0.2,0-0.4-0.1-0.5-0.3l-63-141.8c-0.1-0.3,0-0.5,0.3-0.7c0.3-0.1,0.5,0,0.7,0.3l63,141.8
			c0.1,0.3,0,0.5-0.3,0.7C89.7,488.2,89.7,488.2,89.6,488.2z"/>
	</g>
</g>
<g>
	<path class="st2" d="M86,497.2c0,0-20.1-60-75.1-58.2C10.9,439,14.7,490.5,86,497.2z"/>
</g>
<g>
	<path class="st3" d="M79.9,494c-0.1,0-0.2,0-0.3-0.1c-19.7-15.8-57.2-45.8-58.6-46.7c-0.2-0.1-0.3-0.3-0.3-0.6
		c0.1-0.3,0.3-0.4,0.6-0.4c0.4,0.1,20.2,15.9,58.8,46.9c0.2,0.2,0.3,0.5,0.1,0.7C80.2,494,80,494,79.9,494z"/>
</g>
<g>
	<path class="st0" d="M469.5,503.9c0,0,101.2-20.6,119.6-128C589.1,375.9,484.1,389.1,469.5,503.9z"/>
</g>
<g>
	<g>
		<path class="st1" d="M540.7,417.8c14.4,4.3,26.9,1.7,36.8-3c-3.7,8.4-7.9,16.1-12.6,23c-7.8,1.3-16.7,0.8-26.5-2.7
			c-16.6-6-30.2-6.3-40.5-4.6c3.2-4.2,6.5-8.2,10-11.8C517.6,415.5,528.8,414.3,540.7,417.8z"/>
	</g>
</g>
<g>
	<g>
		<path class="st1" d="M514.2,451.1c13.7,7.1,26.8,6.7,37.5,3.8c-7.1,7.8-14.5,14.5-22,20.1c-6.7-0.8-13.7-3-21-7.3
			c-9.6-5.7-18.5-9-26.4-10.6c1.8-4.1,3.8-8,5.9-11.7C496.6,445,505.4,446.5,514.2,451.1z"/>
	</g>
</g>
<g>
	<g>
		<path class="st1" d="M474.3,498c-0.1,0-0.2,0-0.3-0.1c-0.2-0.2-0.2-0.5,0-0.7l106.8-112.6c0.2-0.2,0.5-0.2,0.7,0
			c0.2,0.2,0.2,0.5,0,0.7L474.6,497.8C474.5,498,474.4,498,474.3,498z"/>
	</g>
</g>
<g>
	<path class="st2" d="M476.2,441.8c0,0-7-48,31.3-65.7C507.4,376.1,522.6,412.6,476.2,441.8z"/>
</g>
<g>
	<path class="st4" d="M54.8,67.8c-0.3,0-0.5-0.2-0.5-0.5v-5.3c0-0.3,0.2-0.5,0.5-0.5s0.5,0.2,0.5,0.5v5.3
		C55.3,67.6,55.1,67.8,54.8,67.8z"/>
</g>
<g>
	<path class="st4" d="M54.8,78.8c-0.3,0-0.5-0.2-0.5-0.5V73c0-0.3,0.2-0.5,0.5-0.5s0.5,0.2,0.5,0.5v5.3
		C55.3,78.6,55.1,78.8,54.8,78.8z"/>
</g>
<g>
	<path class="st4" d="M62.9,70.7h-5.3c-0.3,0-0.5-0.2-0.5-0.5s0.2-0.5,0.5-0.5h5.3c0.3,0,0.5,0.2,0.5,0.5S63.2,70.7,62.9,70.7z"/>
</g>
<g>
	<path class="st4" d="M52,70.7h-5.3c-0.3,0-0.5-0.2-0.5-0.5s0.2-0.5,0.5-0.5H52c0.3,0,0.5,0.2,0.5,0.5S52.3,70.7,52,70.7z"/>
</g>
<g>
	<path class="st4" d="M172.7,122.7c-0.3,0-0.5-0.2-0.5-0.5v-4.4c0-0.3,0.2-0.5,0.5-0.5s0.5,0.2,0.5,0.5v4.4
		C173.2,122.4,172.9,122.7,172.7,122.7z"/>
</g>
<g>
	<path class="st4" d="M172.7,131.8c-0.3,0-0.5-0.2-0.5-0.5v-4.4c0-0.3,0.2-0.5,0.5-0.5s0.5,0.2,0.5,0.5v4.4
		C173.2,131.6,172.9,131.8,172.7,131.8z"/>
</g>
<g>
	<path class="st4" d="M179.4,125H175c-0.3,0-0.5-0.2-0.5-0.5s0.2-0.5,0.5-0.5h4.4c0.3,0,0.5,0.2,0.5,0.5S179.7,125,179.4,125z"/>
</g>
<g>
	<path class="st4" d="M170.3,125h-4.4c-0.3,0-0.5-0.2-0.5-0.5s0.2-0.5,0.5-0.5h4.4c0.3,0,0.5,0.2,0.5,0.5S170.6,125,170.3,125z"/>
</g>
<g>
	<path class="st4" d="M419.3,162c-0.3,0-0.5-0.2-0.5-0.5v-4.4c0-0.3,0.2-0.5,0.5-0.5s0.5,0.2,0.5,0.5v4.4
		C419.8,161.8,419.6,162,419.3,162z"/>
</g>
<g>
	<path class="st4" d="M419.3,171.2c-0.3,0-0.5-0.2-0.5-0.5v-4.4c0-0.3,0.2-0.5,0.5-0.5s0.5,0.2,0.5,0.5v4.4
		C419.8,171,419.6,171.2,419.3,171.2z"/>
</g>
<g>
	<path class="st4" d="M426.1,164.4h-4.4c-0.3,0-0.5-0.2-0.5-0.5s0.2-0.5,0.5-0.5h4.4c0.3,0,0.5,0.2,0.5,0.5S426.4,164.4,426.1,164.4
		z"/>
</g>
<g>
	<path class="st4" d="M416.9,164.4h-4.4c-0.3,0-0.5-0.2-0.5-0.5s0.2-0.5,0.5-0.5h4.4c0.3,0,0.5,0.2,0.5,0.5S417.2,164.4,416.9,164.4
		z"/>
</g>
<g>
	<path class="st4" d="M545.9,64.1c-0.3,0-0.5-0.2-0.5-0.5v-5.5c0-0.3,0.2-0.5,0.5-0.5s0.5,0.2,0.5,0.5v5.5
		C546.4,63.9,546.2,64.1,545.9,64.1z"/>
</g>
<g>
	<path class="st4" d="M545.9,75.6c-0.3,0-0.5-0.2-0.5-0.5v-5.5c0-0.3,0.2-0.5,0.5-0.5s0.5,0.2,0.5,0.5v5.5
		C546.4,75.4,546.2,75.6,545.9,75.6z"/>
</g>
<g>
	<path class="st4" d="M554.4,67.1h-5.5c-0.3,0-0.5-0.2-0.5-0.5s0.2-0.5,0.5-0.5h5.5c0.3,0,0.5,0.2,0.5,0.5S554.7,67.1,554.4,67.1z"
		/>
</g>
<g>
	<path class="st4" d="M543,67.1h-5.5c-0.3,0-0.5-0.2-0.5-0.5s0.2-0.5,0.5-0.5h5.5c0.3,0,0.5,0.2,0.5,0.5S543.2,67.1,543,67.1z"/>
</g>
<g>
	<path class="st4" d="M30.9,178.6c-2.7,0-4.9-2.2-4.9-4.9s2.2-4.9,4.9-4.9s4.9,2.2,4.9,4.9S33.6,178.6,30.9,178.6z M30.9,169.8
		c-2.1,0-3.9,1.7-3.9,3.9s1.7,3.9,3.9,3.9s3.9-1.7,3.9-3.9S33.1,169.8,30.9,169.8z"/>
</g>
<g>
	<path class="st4" d="M554.4,183c-2.7,0-4.9-2.2-4.9-4.9s2.2-4.9,4.9-4.9s4.9,2.2,4.9,4.9S557.1,183,554.4,183z M554.4,174.2
		c-2.1,0-3.9,1.7-3.9,3.9s1.7,3.9,3.9,3.9c2.1,0,3.9-1.7,3.9-3.9S556.6,174.2,554.4,174.2z"/>
</g>
<g>
	<path class="st5" d="M65.4,385.2L46.2,499c-0.4,2.6,1.5,4.9,4.1,4.9h0c1.9,0,3.5-1.2,4-3l33.8-115.7H65.4z"/>
</g>
<g>
	<path class="st6" d="M57.4,490.9c0,0-0.1,0-0.1,0c-0.3-0.1-0.4-0.4-0.3-0.6l30.8-105.2c0.1-0.3,0.4-0.4,0.6-0.3
		c0.3,0.1,0.4,0.4,0.3,0.6L57.9,490.6C57.9,490.8,57.7,490.9,57.4,490.9z"/>
</g>
<g>
	<path class="st6" d="M48.2,487.6C48.2,487.6,48.2,487.6,48.2,487.6c-0.4-0.1-0.5-0.3-0.5-0.6l17.1-101.9c0-0.3,0.3-0.5,0.6-0.4
		c0.3,0,0.5,0.3,0.4,0.6L48.7,487.2C48.7,487.4,48.5,487.6,48.2,487.6z"/>
</g>
<g>
	<path class="st7" d="M106.4,385.2L87.2,499c-0.4,2.6,1.5,4.9,4.1,4.9h0c1.9,0,3.5-1.2,4-3l33.8-115.7H106.4z"/>
</g>
<g>
	<path class="st7" d="M200.2,385.2L219.3,499c0.4,2.6-1.5,4.9-4.1,4.9l0,0c-1.9,0-3.5-1.2-4-3l-33.8-115.7H200.2z"/>
</g>
<g>
	<path class="st5" d="M159.2,385.2L178.4,499c0.4,2.6-1.5,4.9-4.1,4.9l0,0c-1.9,0-3.5-1.2-4-3l-33.8-115.7H159.2z"/>
</g>
<g>
	<path class="st7" d="M174,378.1h-119V235.3h76.9c5.8,0,10.6,4.7,10.6,10.6v103.8c0,11.6,7.7,21.8,18.9,24.9L174,378.1z"/>
</g>
<g>
	<path class="st8" d="M66.3,246.6c-0.2-12.3-17.3-15.7-22-4.2c-8.9,22-5.1,61.7-5.1,91.1c0,42.8,8.6,63.7,59.9,63.7
		c0,0,46.1,0,65.1,0s17.1-23.8,1-23.8s-66.1,0-77.9,0s-19.5-10-19.5-34.2C67.8,322.3,66.8,274.3,66.3,246.6z"/>
</g>
<g>
	<path class="st7" d="M201.8,397.1h-61.7c-6.6,0-11.9-5.3-11.9-11.9v0c0-6.6,5.3-11.9,11.9-11.9h61.7c6.6,0,11.9,5.3,11.9,11.9v0
		C213.7,391.8,208.3,397.1,201.8,397.1z"/>
</g>
<g>
	<path class="st9" d="M129,165c0.2,0.8-9.9,1.2-9.9,1.2l-3.5-12.7l11.8,0.5c0,0,0.7,5,1.2,8.3C128.8,163.7,128.9,164.8,129,165z"/>
</g>
<g>
	<path class="st7" d="M128.5,162.3c-8.4-2-13-8.8-13-8.8l11.8,0.5C127.4,154,128.1,159,128.5,162.3z"/>
</g>
<g>
	<path class="st9" d="M209.5,468.1c0,0,11.7,1.5,11.7,1.1c0-0.3,2.1-9.7,3.3-14.8c0.4-1.9,0.7-3.1,0.7-3.1l-14.2-1.5l-0.8,9.8
		L209.5,468.1z"/>
</g>
<g>
	<path class="st7" d="M211,449.7l-0.8,9.8c7.3-1,12-3.5,14.3-5.1c0.4-1.9,0.7-3.1,0.7-3.1L211,449.7z"/>
</g>
<g>
	<path class="st7" d="M225,463.2c0,0,16.8,15,19.2,15.2c2.4,0.2,13.1,1.5,13.1,1.5l5.6,16.8c0,0-40.2,4.1-61.4,1.4
		c-0.7-11.4,1.1-24.9,5.9-34.3C212.8,465.1,218.6,465,225,463.2z"/>
</g>
<g>
	<path class="st10" d="M239.2,484.6c0.2,0,0.4-0.2,0.5-0.4c0.2-0.3,0-0.7-0.3-0.9c-14.1-6.6-21.6-17.1-21.7-17.2
		c-0.2-0.3-0.6-0.4-0.9-0.2c-0.3,0.2-0.4,0.6-0.2,0.9c0.1,0.1,7.8,10.8,22.2,17.6C239,484.5,239.1,484.6,239.2,484.6z"/>
</g>
<g>
	<path class="st0" d="M247.7,477.2c-8.4,5.3-10.4,19.2-10.4,19.2c-15,1.4-37.3,0.1-37.3,0.1l0.3,7.5h67.8
		C271.2,474.9,247.7,477.2,247.7,477.2z"/>
</g>
<g>
	
		<ellipse transform="matrix(0.9965 -8.314540e-02 8.314540e-02 0.9965 -39.383 19.3661)" class="st11" cx="212.8" cy="482.5" rx="6.8" ry="8.2"/>
</g>
<g>
	<path class="st0" d="M246,355.1l-1.9,11.4l-12.1,74l-24.7,4.3l1-70.8h-59.5c-16.4,0-29.7-13.4-29.6-29.8l0.3-32l51.6,7.6l57.9,17.9
		l8.2,2.7C243.2,342.4,247,348.6,246,355.1z"/>
</g>
<g>
	<path class="st1" d="M209.6,431.2C209.6,431.2,209.6,431.2,209.6,431.2c-0.3,0-0.5-0.3-0.5-0.5l3.9-63.8c0.2-2.8-0.8-5.5-2.7-7.5
		s-4.5-3.2-7.4-3.2h-60.1c-0.3,0-0.5-0.2-0.5-0.5l-2.1-35.9c0-0.3,0.2-0.5,0.5-0.5c0.3,0,0.5,0.2,0.5,0.5l2.1,35.4H203
		c3.1,0,6,1.2,8.1,3.5s3.2,5.2,3,8.3l-3.9,63.8C210.1,431,209.9,431.2,209.6,431.2z"/>
</g>
<g>
	<path class="st4" d="M141.9,339.2c-0.2,0-0.4-0.1-0.4-0.3c-0.1-0.2,0-0.5,0.2-0.7l2-1c3.7-1.9,6-5.7,6-9.8v-7.7
		c0-0.3,0.2-0.5,0.5-0.5s0.5,0.2,0.5,0.5v7.7c0,4.5-2.5,8.6-6.5,10.7l-2,1C142,339.2,141.9,339.2,141.9,339.2z"/>
</g>
<g>
	<polygon class="st4" points="202.5,431.1 238,435 232.6,457.2 201,452.9 	"/>
</g>
<g>
	<path class="st1" d="M246,355.1l-1.9,11.4c-0.1,0-0.1,0-0.2,0.1c-6,2-13.3-3.6-16.3-12.5c-2.1-6.3-1.5-12.6,1.2-16.5l8.2,2.7
		C243.2,342.4,247,348.6,246,355.1z"/>
</g>
<g>
	<path class="st9" d="M208.1,468.3c0,0,11.4-2.7,11.3-3.1c-0.1-0.2-1.4-9.9-2.2-15c-0.3-1.9-0.4-3.2-0.4-3.2l-13.8,3.6l2.7,9.4
		L208.1,468.3z"/>
</g>
<g>
	<path class="st7" d="M203,450.6l2.7,9.4c6.5-3.5,10-7.5,11.6-9.8c-0.3-1.9-0.4-3.2-0.4-3.2L203,450.6z"/>
</g>
<g>
	<path class="st7" d="M221.6,463.2c0,0,16.8,15,19.2,15.2c2.4,0.2,13.1,1.5,13.1,1.5l5.6,16.8c0,0-40.2,4.1-61.4,1.4
		c-0.7-11.4,1.1-24.9,5.9-34.3C209.5,465.1,215.3,465,221.6,463.2z"/>
</g>
<g>
	<path class="st10" d="M235.8,484.6c0.2,0,0.4-0.2,0.5-0.4c0.2-0.3,0-0.7-0.3-0.9c-14.1-6.6-21.6-17.1-21.7-17.2
		c-0.2-0.3-0.6-0.4-0.9-0.2c-0.3,0.2-0.4,0.6-0.2,0.9c0.1,0.1,7.8,10.8,22.2,17.6C235.6,484.5,235.7,484.6,235.8,484.6z"/>
</g>
<g>
	<path class="st0" d="M244.4,477.2c-8.4,5.3-10.4,19.2-10.4,19.2c-15,1.4-37.3,0.1-37.3,0.1l0.3,7.5h67.8
		C267.9,474.9,244.4,477.2,244.4,477.2z"/>
</g>
<g>
	
		<ellipse transform="matrix(0.9965 -8.314540e-02 8.314540e-02 0.9965 -39.3946 19.0872)" class="st11" cx="209.5" cy="482.5" rx="6.8" ry="8.2"/>
</g>
<g>
	<path class="st1" d="M76.3,312.2l-0.2,31.9c-0.1,16.4,13.2,29.8,29.6,29.8h59.5l29.9,70.8l24.7-4.3l-12.3-78.6
		c-1.7-11-9.5-20.2-20.1-23.7l-56-18.4L76.3,312.2z"/>
</g>
<g>
	<path class="st12" d="M197.5,431.2c-0.2,0-0.4-0.1-0.5-0.3l-22.6-64.5c-2.1-6.1-7.9-10.2-14.4-10.2H99.8c-0.3,0-0.5-0.2-0.5-0.5
		l-2.1-35.9c0-0.3,0.2-0.5,0.5-0.5c0.3,0,0.5,0.2,0.5,0.5l2.1,35.4h59.8c6.9,0,13.1,4.4,15.3,10.9l22.6,64.5c0.1,0.3,0,0.5-0.3,0.6
		C197.6,431.2,197.6,431.2,197.5,431.2z"/>
</g>
<g>
	<path class="st12" d="M98.8,339.2c-0.2,0-0.4-0.1-0.4-0.3c-0.1-0.2,0-0.5,0.2-0.7l2-1c3.7-1.9,6-5.7,6-9.8v-7.7
		c0-0.3,0.2-0.5,0.5-0.5s0.5,0.2,0.5,0.5v7.7c0,4.5-2.5,8.6-6.5,10.7l-2,1C99,339.2,98.9,339.2,98.8,339.2z"/>
</g>
<g>
	<polygon class="st10" points="187.9,437.3 221.9,429.2 226.4,451.3 195.7,457.7 	"/>
</g>
<g>
	
		<ellipse transform="matrix(0.8741 -0.4858 0.4858 0.8741 -150.6076 137.5998)" class="st12" cx="190.1" cy="359.3" rx="11.5" ry="17"/>
</g>
<g>
	<path class="st0" d="M160.9,184.3c-16.6,2.2,12.4,84.2,13.8,94.6c1.4,10.3,8.4,15.1,23.7,15.1s24.4-21.9,4.6-34.5
		c0,0-12.2-42.1-22.1-57.2C168.1,182.7,160.9,184.3,160.9,184.3z"/>
</g>
<g>
	<g>
		<path class="st1" d="M180.6,274.8C180.6,274.8,180.6,274.8,180.6,274.8c-0.3,0-0.5-0.3-0.5-0.5c0-0.2,1.7-16,19.5-15.2
			c0.3,0,0.5,0.2,0.5,0.5s-0.2,0.5-0.5,0.5c-16.8-0.7-18.4,13.7-18.4,14.3C181.1,274.6,180.9,274.8,180.6,274.8z"/>
	</g>
</g>
<g>
	<path class="st9" d="M191.8,293.6c-4.2,0-2.3-10.8,0.4-16.9c2.7-6.1,7.4-2.4,7.4-2.4s4.1-2.6,6.5-1.6c2.4,1,3.3,2.8,3.3,2.8
		s2.2-1.5,4.7-0.7c2.5,0.8,3,4.1,3,4.1s2.9-1,4.3,0.4c1.3,1.4,0.8,12.2-3.6,14.3C213.4,295.7,191.8,293.6,191.8,293.6z"/>
</g>
<g>
	<path class="st7" d="M196.1,291.7c0,0-0.1,0-0.1,0c-0.3-0.1-0.4-0.3-0.4-0.6l3.4-14c0.1-0.3,0.3-0.4,0.6-0.4
		c0.3,0.1,0.4,0.3,0.4,0.6l-3.4,14C196.5,291.5,196.3,291.7,196.1,291.7z"/>
</g>
<g>
	<path class="st7" d="M205.3,291.7c0,0-0.1,0-0.1,0c-0.3-0.1-0.4-0.3-0.4-0.6l3.3-12.7c0.1-0.3,0.3-0.4,0.6-0.4
		c0.3,0.1,0.4,0.3,0.4,0.6l-3.3,12.7C205.8,291.5,205.6,291.7,205.3,291.7z"/>
</g>
<g>
	<path class="st7" d="M213.6,291c0,0-0.1,0-0.1,0c-0.3-0.1-0.4-0.3-0.3-0.6l2.7-9.8c0.1-0.3,0.4-0.4,0.6-0.3
		c0.3,0.1,0.4,0.3,0.3,0.6l-2.7,9.8C214,290.9,213.8,291,213.6,291z"/>
</g>
<g>
	<path class="st13" d="M108,167.7l3.5,13.3l27.1-0.8l1.4-13.6C140.1,166.6,126,158.3,108,167.7z"/>
</g>
<g>
	<path class="st0" d="M133.4,174c-22.8-0.5-37.1,6.4-44.6,11.6c-4.1,2.8-6.8,7.1-7.8,12c-3.6,18.3-12.9,72.8-10.5,126.6
		c0,0,64.7,20.1,115.6-0.3c0,0,1.9-66.4-10.8-122.8c-2-8.9-8-16.2-16.3-20C151.7,177.6,142.2,174.2,133.4,174z"/>
</g>
<g>
	<g>
		<path class="st1" d="M186.2,324.2C186.2,324.2,186.2,324.2,186.2,324.2c-0.3,0-0.5-0.2-0.5-0.5c0-0.7,1.8-67-10.8-122.7
			c-0.1-0.3,0.1-0.5,0.4-0.6c0.3-0.1,0.5,0.1,0.6,0.4c12.6,55.8,10.8,122.3,10.8,122.9C186.7,324,186.5,324.2,186.2,324.2z"/>
	</g>
</g>
<g>
	<g>
		<path class="st1" d="M135.7,202.9c-1.4,0-2.7-1.1-2.9-2.5c-2.4-16.4-8.8-25.8-8.9-25.9c-0.2-0.2-0.1-0.5,0.1-0.7
			c0.2-0.2,0.5-0.1,0.7,0.1c0.1,0.1,6.6,9.7,9,26.3c0.2,1,1.1,1.8,2.2,1.7l2.9-0.3c0.5-0.1,1-0.3,1.3-0.8c0.3-0.4,0.5-1,0.4-1.5
			c-0.7-4.4-2.7-15.6-7.5-25.1c-0.1-0.2,0-0.5,0.2-0.7c0.2-0.1,0.5,0,0.7,0.2c4.8,9.6,6.9,20.9,7.6,25.4c0.1,0.8-0.1,1.6-0.6,2.2
			c-0.5,0.6-1.2,1.1-2,1.2l-2.9,0.3C135.9,202.9,135.8,202.9,135.7,202.9z"/>
	</g>
</g>
<g>
	<path class="st1" d="M75.8,317.2c0,0,61,15.6,105.1,0.8"/>
</g>
<g>
	<rect x="160.1" y="172.2" transform="matrix(0.9861 -0.166 0.166 0.9861 -26.5255 32.1522)" class="st4" width="38" height="5.2"/>
</g>
<g>
	<polygon class="st7" points="197.4,169 204.5,170.5 198.3,174.2 	"/>
</g>
<g>
	<path class="st9" d="M166.2,213.9l8.1-12.9c0,0-5.3-25.5-4.4-27s18.7-5.7,21.5-5.5c2.8,0.2,4,2.8,2.8,4.5c0,0,3.5,2,2.2,5.1
		c0,0,3.2,2.5,0.9,6.2c0,0,3,3-1.2,6.5c-4.2,3.4-7.5,5.5-7.5,5.5s1.3,9.4,0.7,11s-5.4,3.3-5.4,3.3l-5.1,12.8L166.2,213.9z"/>
</g>
<g>
	<path class="st7" d="M177.2,175.7c-0.2,0-0.5-0.2-0.5-0.4c0-0.3,0.1-0.5,0.4-0.6l13.7-2.1c0.3,0,0.5,0.1,0.6,0.4
		c0,0.3-0.1,0.5-0.4,0.6L177.2,175.7C177.3,175.7,177.3,175.7,177.2,175.7z"/>
</g>
<g>
	<path class="st7" d="M180.4,181.5c-0.2,0-0.4-0.2-0.5-0.4c0-0.3,0.1-0.5,0.4-0.6L194,178c0.3,0,0.5,0.1,0.6,0.4
		c0,0.3-0.1,0.5-0.4,0.6L180.4,181.5C180.4,181.5,180.4,181.5,180.4,181.5z"/>
</g>
<g>
	<path class="st7" d="M184.1,187.8c-0.2,0-0.4-0.1-0.5-0.4c-0.1-0.3,0.1-0.5,0.3-0.6l10.9-3c0.3-0.1,0.5,0.1,0.6,0.3
		c0.1,0.3-0.1,0.5-0.3,0.6l-10.9,3C184.2,187.8,184.1,187.8,184.1,187.8z"/>
</g>
<g>
	<path class="st13" d="M168,206.6l-9,11.6c0,0-1.4,13.5,15.7,15.1l9.2-12.4C183.9,220.8,182.8,208.3,168,206.6z"/>
</g>
<g>
	<path class="st0" d="M87.3,186.7c-29.1,21.7,32.2,76.5,49.3,87.5c17,11,40-27.1,39.9-38.7c-0.1-11.6-12.1-21-18.9-18.7
		c-6.8,2.3-14.7,14.1-14.7,14.1s-16.9-25.7-30-38.4C99.8,179.7,87.3,186.7,87.3,186.7z"/>
</g>
<g>
	<g>
		<path class="st1" d="M143.1,276.7c-2.4,0-4.7-0.7-6.8-2.1c-12.7-8.2-47.9-39.2-55.7-63.5c-0.1-0.3,0.1-0.5,0.3-0.6
			c0.3-0.1,0.5,0.1,0.6,0.3c7.7,24.1,42.6,54.8,55.2,63c4.1,2.6,8.8,2.5,14-0.3c13.6-7.5,25.2-30,25.1-37.9
			c-0.1-7.1-4.6-12.8-8.8-15.8c-3.4-2.4-6.9-3.3-9.5-2.4c-6.6,2.3-14.4,13.8-14.5,13.9c-0.1,0.1-0.2,0.2-0.4,0.2c0,0,0,0,0,0
			c-0.2,0-0.3-0.1-0.4-0.2c-0.2-0.3-17.1-25.8-29.9-38.4c-7.6-7.4-15-8.1-19.8-7.3c-0.3,0-0.5-0.1-0.6-0.4c0-0.3,0.1-0.5,0.4-0.6
			c5.1-0.8,12.8-0.2,20.7,7.6c11.8,11.6,27,33.9,29.6,37.9c1.7-2.5,8.5-11.6,14.6-13.7c2.9-1,6.7,0,10.4,2.5
			c4.4,3.1,9.1,9.1,9.2,16.6c0.1,9-12.6,31.6-25.7,38.8C148.4,275.9,145.7,276.7,143.1,276.7z"/>
	</g>
</g>
<g>
	<g>
		<path class="st1" d="M137.9,252.2c-0.3,0-0.5-0.2-0.5-0.5c-0.6-10.8,5-20.9,5-21c0.1-0.2,0.4-0.3,0.7-0.2c0.2,0.1,0.3,0.4,0.2,0.7
			c-0.1,0.1-5.5,9.9-4.9,20.4C138.4,251.9,138.2,252.1,137.9,252.2C137.9,252.2,137.9,252.2,137.9,252.2z"/>
	</g>
</g>
<g>
	<path class="st7" d="M111.7,146.8c0,0-12.9,2.1-18.2-8.6c-5.3-10.7,13.2-22.1,13.2-22.1s4.3-13,6.4-16.3s5.6,8.3,5.6,8.3
		s4.9-10,11.3-14.7c3-2.2,4.4,11,2.9,18.1c0,0,9.9-7.3,14.7-5.4c4.9,1.9-2.1,16.4-7.6,21.6c0,0,2.9,3.9,2.9,5.2
		c0,1.3-11.5,4.3-11.5,4.3L111.7,146.8z"/>
</g>
<g>
	<path class="st9" d="M109.2,138.7c0,0,3.6,14.7,5.8,16.2c2.2,1.6,15.6,4.4,19.5,2.8c3.9-1.6,2.9-21.2-2-31.9
		S104.4,120.9,109.2,138.7z"/>
</g>
<g>
	<path class="st7" d="M109.1,140c0,0,0-2.3,2.3-4.8s2.2-5.6,2.2-5.6s14.2,6.2,25.9-1.3c0,0-5.9-11.9-21.7-9.5S105.9,135.1,109.1,140
		z"/>
</g>
<g>
	<path class="st9" d="M111.3,142.5c0,0-5-9.8-11-5.6c-6.1,4.2,5,17.8,13,13.1L111.3,142.5z"/>
</g>
<g>
	<path class="st7" d="M110.5,147.9c-0.2,0-0.3-0.1-0.4-0.2c-3.7-5.8-8.1-7.4-8.2-7.5c-0.3-0.1-0.4-0.4-0.3-0.6s0.4-0.4,0.6-0.3
		c0.2,0.1,4.8,1.7,8.7,7.9c0.1,0.2,0.1,0.5-0.2,0.7C110.7,147.9,110.6,147.9,110.5,147.9z"/>
</g>
<g>
	<path class="st7" d="M104.8,147.3C104.8,147.3,104.8,147.3,104.8,147.3c-0.3,0-0.5-0.2-0.5-0.5c0-0.1,0.1-2.6,1.7-4.5
		c0.2-0.2,0.5-0.2,0.7-0.1c0.2,0.2,0.2,0.5,0.1,0.7c-1.4,1.6-1.5,3.9-1.5,3.9C105.3,147,105.1,147.3,104.8,147.3z"/>
</g>
<g>
	<path class="st7" d="M125.8,148.9c-0.3,0-0.5-0.2-0.5-0.5c0-0.3,0.2-0.5,0.5-0.5c2.1-0.2,2.8-1.1,2.9-1.6c-1.6-2.1-3.2-5.8-3.2-6
		c-0.1-0.3,0-0.5,0.3-0.7c0.3-0.1,0.5,0,0.7,0.3c0,0,1.7,4,3.3,5.9c0.1,0.1,0.1,0.3,0.1,0.4C129.8,146.4,129.4,148.5,125.8,148.9
		C125.9,148.9,125.9,148.9,125.8,148.9z"/>
</g>
<g>
	<path class="st14" d="M130.5,151.9c-3.4,4.4-8.5,0.3-8.5,0.3L130.5,151.9z"/>
</g>
<g>
	
		<ellipse transform="matrix(0.9826 -0.1859 0.1859 0.9826 -24.3427 24.9569)" class="st7" cx="120.9" cy="142.3" rx="1.6" ry="2.2"/>
</g>
<g>
	
		<ellipse transform="matrix(0.9826 -0.1859 0.1859 0.9826 -24.1953 25.0267)" class="st14" cx="121.3" cy="141.5" rx="0.6" ry="0.8"/>
</g>
<g>
	<path class="st7" d="M116.2,138c0,0,3.2-1.4,6.5-1.2c0,0,0.1-1.5-0.8-2.1C121,134,116.7,135.5,116.2,138z"/>
</g>
<g>
	
		<ellipse transform="matrix(0.9826 -0.1859 0.1859 0.9826 -23.8547 26.7566)" class="st7" cx="130.7" cy="140.6" rx="1.6" ry="2.2"/>
</g>
<g>
	
		<ellipse transform="matrix(0.9826 -0.1859 0.1859 0.9826 -23.6798 26.8162)" class="st14" cx="131.1" cy="139.7" rx="0.5" ry="0.7"/>
</g>
<g>
	<path class="st7" d="M133.9,134.6c0,0-3.5-0.1-6.5,1.2c0,0-0.7-1.3-0.1-2.2S132.5,132.5,133.9,134.6z"/>
</g>
<g>
	<path class="st9" d="M395.1,235.4l-5.9-9.5c0,0,6.3-13.2,6.3-14.6c0-1.4,1.4-17,1.4-20.7c0-3.7-4.8-0.8-6.1,5.5
		c-1.3,6.3-2.4,8.7-2.4,8.7l-4.8-14.7l-13.1,28.8l14.7,23.4L395.1,235.4z"/>
</g>
<g>
	
		<rect x="367.8" y="187.3" transform="matrix(0.2137 -0.9769 0.9769 0.2137 120.1124 529.7706)" class="st4" width="42.6" height="5.9"/>
</g>
<g>
	<polygon class="st7" points="390.8,168.8 395.3,162.1 396.6,170.1 	"/>
</g>
<g>
	<path class="st9" d="M379,188.1c-0.5,2.7-0.5,4.7-0.5,4.7s-4.2-0.8-4.2,7.4c0,0-3.5-0.4-2.7,6.9c0,0-2.7,0.3-2.8,5
		c-0.1,5.9,3.6,11.7,6.2,10.9s1.8-5.9,1.8-5.9s4.3,2.9,4.3-5.4c0,0,3.1-0.1,1.9-7.8c0,0,3.7,1.7,3.2-4.9c-0.2-3.3-1-7.5-1.8-10.8
		C383.7,185.3,379.5,185.1,379,188.1z"/>
</g>
<g>
	<path class="st7" d="M381.7,203.2c-0.2,0-0.3-0.1-0.4-0.3c-2-3.6-3.1-8.7-3.2-8.9c-0.1-0.3,0.1-0.5,0.4-0.6
		c0.3-0.1,0.5,0.1,0.6,0.4c0,0.1,1.1,5.1,3.1,8.7c0.1,0.2,0,0.5-0.2,0.7C381.9,203.2,381.8,203.2,381.7,203.2z"/>
</g>
<g>
	<path class="st7" d="M378.6,210.7c-0.2,0-0.3-0.1-0.4-0.2c-1.6-2.6-3.8-8.6-3.9-8.9c-0.1-0.3,0-0.5,0.3-0.6c0.3-0.1,0.5,0,0.6,0.3
		c0,0.1,2.3,6.2,3.8,8.7c0.1,0.2,0.1,0.5-0.2,0.7C378.8,210.7,378.7,210.7,378.6,210.7z"/>
</g>
<g>
	<path class="st7" d="M376.3,216.8c-0.2,0-0.3-0.1-0.4-0.2c-1.7-2.7-4-7.9-4.1-8.1c-0.1-0.3,0-0.5,0.2-0.7c0.2-0.1,0.5,0,0.7,0.2
		c0,0.1,2.4,5.3,4.1,8c0.1,0.2,0.1,0.5-0.2,0.7C376.4,216.8,376.3,216.8,376.3,216.8z"/>
</g>
<g>
	<path class="st0" d="M464,244.4c-12.1,16.1-35.9,42.9-47.7,40.2c-8.7-2-25-26.1-33-38.8c-2.9-4.6-4.7-7.7-4.7-7.7
		c3.8-5.9,13.6-10.1,13.6-10.1l7.2,5.1l20.2,14.3c10-17.5,30.1-46,38.3-49.9C457.9,197.5,476.1,228.3,464,244.4z"/>
</g>
<g>
	<g>
		<path class="st1" d="M419.3,273C419.3,273,419.3,273,419.3,273c-0.3,0-0.5-0.2-0.5-0.5c0.1-6.4,0-22.8,0-23c0-0.3,0.2-0.5,0.5-0.5
			c0,0,0,0,0,0c0.3,0,0.5,0.2,0.5,0.5c0,0.2,0.1,16.6,0,23C419.8,272.8,419.6,273,419.3,273z"/>
	</g>
</g>
<g>
	<path class="st1" d="M399.4,233.1l-16.1,12.6c-2.9-4.6-4.7-7.7-4.7-7.7c3.8-5.9,13.6-10.1,13.6-10.1L399.4,233.1z"/>
</g>
<g>
	<path class="st7" d="M465.6,131c0,0,0.1-0.2,0.3-0.5c1.3-2,7.3-10.2,21.9-8.6c16.6,1.8,23.1,22.1,18,30.4
		c-5.1,8.4,4.5,12.2,14.5,16.4c10,4.2,18,17.9,8.5,30.2c-9.5,12.3-57.8,15.2-60.9,0.5c-3.1-14.6,6.8-26.4,5.5-38.2L465.6,131z"/>
</g>
<g>
	<polygon class="st9" points="475.3,163.4 476.8,171.3 478.4,179.3 486.8,178.3 485.3,162.9 484.9,158.2 	"/>
</g>
<g>
	<path class="st7" d="M475.3,163.4l1.5,7.9c5-0.6,7.4-4.8,8.5-8.4l-0.4-4.7L475.3,163.4z"/>
</g>
<g>
	<path class="st5" d="M543.2,385.2L562.3,499c0.4,2.6-1.5,4.9-4.1,4.9l0,0c-1.9,0-3.5-1.2-4-3l-33.8-115.7H543.2z"/>
</g>
<g>
	<path class="st4" d="M551.1,490.9c-0.2,0-0.4-0.1-0.5-0.4l-30.8-105.2c-0.1-0.3,0.1-0.5,0.3-0.6c0.3-0.1,0.5,0.1,0.6,0.3
		l30.8,105.2c0.1,0.3-0.1,0.5-0.3,0.6C551.2,490.9,551.2,490.9,551.1,490.9z"/>
</g>
<g>
	<path class="st4" d="M560.3,487.6c-0.2,0-0.5-0.2-0.5-0.4l-17.1-101.9c0-0.3,0.1-0.5,0.4-0.6c0.3,0,0.5,0.1,0.6,0.4L560.8,487
		C560.8,487.3,560.7,487.5,560.3,487.6C560.4,487.6,560.3,487.6,560.3,487.6z"/>
</g>
<g>
	<path class="st7" d="M502.2,385.2L521.3,499c0.4,2.6-1.5,4.9-4.1,4.9l0,0c-1.9,0-3.5-1.2-4-3l-33.8-115.7H502.2z"/>
</g>
<g>
	<path class="st7" d="M408.4,385.2L389.2,499c-0.4,2.6,1.5,4.9,4.1,4.9l0,0c1.9,0,3.5-1.2,4-3l33.8-115.7H408.4z"/>
</g>
<g>
	<path class="st5" d="M449.3,385.2L430.2,499c-0.4,2.6,1.5,4.9,4.1,4.9h0c1.9,0,3.5-1.2,4-3l33.8-115.7H449.3z"/>
</g>
<g>
	<path class="st7" d="M434.6,378.1h119V235.3h-76.9c-5.8,0-10.6,4.7-10.6,10.6v103.8c0,11.6-7.7,21.8-18.9,24.9L434.6,378.1z"/>
</g>
<g>
	<path class="st8" d="M542.3,246.6c0.2-12.3,17.3-15.7,22-4.2c8.9,22,5.1,61.7,5.1,91.1c0,42.8-8.6,63.7-59.9,63.7
		c0,0-46.1,0-65.1,0c-19,0-17.1-23.8-1-23.8s66.1,0,77.9,0c11.9,0,19.5-10,19.5-34.2C540.8,322.3,541.7,274.3,542.3,246.6z"/>
</g>
<g>
	<path class="st7" d="M406.8,397.1h61.7c6.6,0,11.9-5.3,11.9-11.9v0c0-6.6-5.3-11.9-11.9-11.9h-61.7c-6.6,0-11.9,5.3-11.9,11.9v0
		C394.9,391.8,400.2,397.1,406.8,397.1z"/>
</g>
<g>
	<path class="st7" d="M404,447.5h-21.5c0,0,0,24.2-20,37.3c-12.8,8.4-8.9,19.1-8.9,19.1h30.7l13.2-14.7l0.6,14.7h9.5
		C408.6,481,404,447.5,404,447.5z"/>
</g>
<g>
	<path class="st1" d="M447.2,370.7c-4.1,1.6-9.9,2.5-15.5,2.8l-21.9,0.1l13.9,90.3h-56c0,0-4.9-95-6.7-108.7
		c-1.8-13.7,7.4-22.2,24-23.8c6.6-0.6,25.4-1.5,35.3-2.2l15.8-27.6l41.7,13.5C477.8,315,479.6,360.8,447.2,370.7z"/>
</g>
<g>
	<path class="st12" d="M442.2,336.1c-0.1,0-0.2,0-0.3-0.1c-5.8-4.5-20.3-5.9-20.5-6c-0.3,0-0.5-0.3-0.5-0.5c0-0.3,0.3-0.5,0.5-0.5
		c0.6,0.1,15,1.5,21,6.2c0.2,0.2,0.3,0.5,0.1,0.7C442.5,336.1,442.4,336.1,442.2,336.1z"/>
</g>
<g>
	<path class="st12" d="M408.9,453.4c-0.2,0-0.5-0.2-0.5-0.4l-14-100.7c0-0.1,0-0.3,0.1-0.4s0.2-0.2,0.4-0.2l69.9-5.1
		c0.2,0,0.5,0.2,0.5,0.5c0,0.3-0.2,0.5-0.5,0.5l-69.4,5.1l14,100.2C409.4,453.1,409.2,453.4,408.9,453.4
		C408.9,453.4,408.9,453.4,408.9,453.4z"/>
</g>
<g>
	<path class="st12" d="M418.8,455.5h-44.7c-0.3,0-0.5-0.2-0.5-0.5s0.2-0.5,0.5-0.5h44.7c0.3,0,0.5,0.2,0.5,0.5
		S419,455.5,418.8,455.5z"/>
</g>
<g>
	<path class="st12" d="M466.4,339.6c-0.1,0-0.3-0.1-0.4-0.2l-1.9-2c-1.9-2.1-2.6-5-1.8-7.8l5.1-17.5c0.1-0.3,0.3-0.4,0.6-0.3
		c0.3,0.1,0.4,0.4,0.3,0.6l-5.1,17.5c-0.7,2.4-0.1,5,1.6,6.8l1.9,2c0.2,0.2,0.2,0.5,0,0.7C466.7,339.6,466.5,339.6,466.4,339.6z"/>
</g>
<g>
	<path class="st7" d="M473.7,447.5h-20.4c0,0-1,29.2-10.7,37.3s-6.7,19.1-6.7,19.1h26.9l4-14.7l0.4,14.7h9.3
		C477.1,481,473.7,447.5,473.7,447.5z"/>
</g>
<g>
	<path class="st12" d="M496.4,370.7c-4.1,1.6-9.9,2.5-15.5,2.8l-13.3,0.1l13.9,90.3h-56c0,0-4.9-95-6.7-108.7
		c-1.8-13.7,7.4-22.2,24-23.8c6.6-0.6,16.8-1.5,26.7-2.2l4.7-14.1H527C527,315,528.8,360.8,496.4,370.7z"/>
</g>
<g>
	<path class="st15" d="M504.5,333.8c-0.1,0-0.1,0-0.2,0c-12.3-4.2-7.1-20.6-7-20.8c0.1-0.3,0.4-0.4,0.6-0.3c0.3,0.1,0.4,0.4,0.3,0.6
		c-0.2,0.6-4.9,15.6,6.4,19.5c0.3,0.1,0.4,0.4,0.3,0.6C504.9,333.7,504.7,333.8,504.5,333.8z"/>
</g>
<g>
	<path class="st15" d="M491.4,336.1c-0.1,0-0.2,0-0.3-0.1c-5.8-4.5-20.3-5.9-20.5-6c-0.3,0-0.5-0.3-0.5-0.5c0-0.3,0.3-0.5,0.5-0.5
		c0.6,0.1,15,1.5,21,6.2c0.2,0.2,0.3,0.5,0.1,0.7C491.7,336.1,491.6,336.1,491.4,336.1z"/>
</g>
<g>
	<path class="st15" d="M466.7,453.4c-0.2,0-0.5-0.2-0.5-0.4l-14-100.7c0-0.1,0-0.3,0.1-0.4c0.1-0.1,0.2-0.2,0.3-0.2l48.8-5.1
		l6.5-33.6c0.1-0.3,0.3-0.4,0.6-0.4c0.3,0.1,0.4,0.3,0.4,0.6l-6.6,33.9c0,0.2-0.2,0.4-0.4,0.4l-48.7,5.1l14,100.2
		C467.2,453.1,467,453.4,466.7,453.4C466.7,453.4,466.7,453.4,466.7,453.4z"/>
</g>
<g>
	<path class="st15" d="M476.6,455.5h-44.7c-0.3,0-0.5-0.2-0.5-0.5s0.2-0.5,0.5-0.5h44.7c0.3,0,0.5,0.2,0.5,0.5
		S476.8,455.5,476.6,455.5z"/>
</g>
<g>
	<path class="st0" d="M505.2,178.1c0,0-19.5-8.3-39.6,1.6l3.8,11.6l33.2-1.2L505.2,178.1z"/>
</g>
<g>
	<path class="st0" d="M529,317.1c-0.1-37.7-1.6-113-1.6-113s-17.6-18.1-40.9-17.6c-23.3,0.5-36.8,19.2-36.8,19.2
		s-11.9,18.7-11.6,27.9c0.3,9.2,6.8,34.6,6.8,34.6s-2.7,11.4-7.8,21.9c-1.6,3.3-5.2,7.4-9.7,11.6h0
		C427.3,301.8,471.3,325.4,529,317.1z"/>
</g>
<g>
	<g>
		<path class="st1" d="M472.4,189.7c-0.2,0-0.4-0.1-0.5-0.3c-0.1-0.3,0-0.5,0.3-0.6c4.6-1.7,9.5-2.6,14.3-2.7
			c4.6-0.1,9.2,0.5,13.9,1.8c0.3,0.1,0.4,0.3,0.3,0.6c-0.1,0.3-0.3,0.4-0.6,0.3c-4.6-1.3-9.1-1.9-13.6-1.8c-4.8,0.1-9.5,1-14,2.7
			C472.5,189.7,472.4,189.7,472.4,189.7z"/>
	</g>
</g>
<g>
	<g>
		<path class="st1" d="M444.1,266c-0.2,0-0.4-0.2-0.5-0.4c-1.8-7.2-5.9-24.6-6.1-32c-0.3-9.2,11.2-27.4,11.7-28.2
			c0.2-0.2,0.5-0.3,0.7-0.2c0.2,0.1,0.3,0.5,0.2,0.7c-0.1,0.2-11.8,18.6-11.6,27.6c0.2,7.2,4.3,24.6,6.1,31.7
			c0.1,0.3-0.1,0.5-0.4,0.6C444.2,266,444.2,266,444.1,266z"/>
	</g>
</g>
<g>
	<g>
		<path class="st0" d="M559.3,277.2c-0.6,7.3-5.7,10.8-13.9,11.3c-4.9,0.3-9.8-0.7-14.4-2.7c-5-2.1-9.6-4.3-9.6-4.3l7.3-17.1
			l-8.9-12.8c0,0-6.4-11.3-11.2-19.1c-7.6-12.5,8.7-38.6,18.8-28.3C544.2,221.2,560.2,265.8,559.3,277.2z"/>
	</g>
</g>
<g>
	<path class="st1" d="M526.8,284.5c-3.1-1.4-5.5-2.6-5.5-2.6l-0.4-0.2l7.4-17.3l-8.8-12.6c-0.1-0.2-6.5-11.4-11.2-19.1
		c-2.3-3.8-2.7-9.1-1-14.9c2-6.9,6.4-13.1,11.1-15.5l0.5,0.9c-4.4,2.2-8.7,8.2-10.6,14.9c-1.6,5.6-1.3,10.6,0.9,14.1
		c4.7,7.7,11.1,19,11.2,19.1l9.1,13l-7.2,16.9c0.8,0.4,2.7,1.3,5.1,2.4L526.8,284.5z"/>
</g>
<g>
	<g>
		<path class="st1" d="M547.3,266.4c-0.1,0-0.2,0-0.2-0.1c-5.8-3.2-10.9-5.1-10.9-5.1c-0.3-0.1-0.4-0.4-0.3-0.6
			c0.1-0.3,0.4-0.4,0.6-0.3c0.1,0,5.2,2,11.1,5.2c0.2,0.1,0.3,0.4,0.2,0.7C547.7,266.3,547.5,266.4,547.3,266.4z"/>
	</g>
</g>
<g>
	<path class="st1" d="M513.6,276.1c0,0,3.1,2.3,7.8,5.4c11.6-5.9,12.1-17.4,11.8-21.8l-7.5-2.2C513.1,262.4,513.6,276.1,513.6,276.1
		z"/>
</g>
<g>
	<path class="st1" d="M499.4,283.1h-39.4c-2.1,0-3.8-1.7-3.8-3.8v-61.2c0-2.1,1.7-3.8,3.8-3.8h39.4c2.1,0,3.8,1.7,3.8,3.8v61.2
		C503.1,281.4,501.4,283.1,499.4,283.1z"/>
</g>
<g>
	<path class="st14" d="M488.9,222.3h-18.4c-0.9,0-1.7-0.8-1.7-1.7v-4.5c0-0.9,0.8-1.7,1.7-1.7h18.4c0.9,0,1.7,0.8,1.7,1.7v4.5
		C490.6,221.5,489.8,222.3,488.9,222.3z"/>
</g>
<g>
	<circle class="st1" cx="473.4" cy="218.3" r="1.2"/>
</g>
<g>
	<circle class="st1" cx="485.9" cy="218.3" r="1.2"/>
</g>
<g>
	<path class="st9" d="M523.4,259.5l-6.7-1.9c0,0-1.2-17-2.4-18.2c-1.2-1.3-19.5-0.6-22.2,0.3s-3.1,3.8-1.5,5.1c0,0-2.8,2.9-0.8,5.5
		c0,0-2.4,3.2,0.8,6.2c0,0-2.1,3.7,2.8,5.9s8.7,3.3,8.7,3.3s2.1,7.2,3.2,8.6c1.1,1.4,8.5-2.5,8.5-2.5l3.9,2
		C520.8,271.9,527,265.1,523.4,259.5z"/>
</g>
<g>
	<path class="st7" d="M493.6,244.5c-0.3,0-0.5-0.2-0.5-0.5c0-0.3,0.2-0.5,0.5-0.5l13.1-0.8c0.3,0,0.5,0.2,0.5,0.5
		c0,0.3-0.2,0.5-0.5,0.5L493.6,244.5C493.7,244.5,493.6,244.5,493.6,244.5z"/>
</g>
<g>
	<path class="st7" d="M492.1,250.6c-0.3,0-0.5-0.2-0.5-0.5c0-0.3,0.2-0.5,0.5-0.5l13.8-1.2c0.3,0,0.5,0.2,0.5,0.5
		c0,0.3-0.2,0.5-0.5,0.5L492.1,250.6C492.1,250.6,492.1,250.6,492.1,250.6z"/>
</g>
<g>
	<path class="st7" d="M504,256.5C504,256.5,504,256.5,504,256.5l-11.3,0c-0.3,0-0.5-0.2-0.5-0.5c0-0.3,0.2-0.5,0.5-0.5l11.3,0
		c0.3,0,0.5,0.2,0.5,0.5C504.5,256.3,504.3,256.5,504,256.5z"/>
</g>
<g>
	<path class="st9" d="M479.7,134c9.3,5.1,14.2,33.7-2.4,35.1C460.7,170.4,460.7,123.6,479.7,134z"/>
</g>
<g>
	<path class="st7" d="M490.3,157c0,0-3.2-8.1-7.3-13.1c0,0-9.9,6.3-18.4,3.2s-13.3-19.4-6-22.6s11.2,4.1,11.2,4.1
		S501,119.4,490.3,157z"/>
</g>
<g>
	<path class="st9" d="M486.8,154.5c0,0,2.7-10.5,11-8.4c8.4,2.1,0.7,18-11.3,12.7L486.8,154.5z"/>
</g>
<g>
	<path class="st7" d="M490,157c0.2,0,0.4-0.1,0.5-0.4c0-0.1,2.4-6,7.4-6.7c0.3,0,0.5-0.3,0.5-0.6c0-0.3-0.3-0.5-0.6-0.5
		c-5.6,0.9-8.1,7.1-8.2,7.4c-0.1,0.3,0,0.6,0.3,0.7C489.9,156.9,490,157,490,157z"/>
</g>
<g>
	<path class="st7" d="M494.5,155.9c0.3,0,0.5-0.2,0.6-0.5c0-0.1,0-1.9-1.3-4.1c-0.2-0.3-0.5-0.3-0.8-0.2c-0.3,0.2-0.3,0.5-0.2,0.8
		c1.2,1.9,1.2,3.4,1.2,3.4C494,155.7,494.2,155.9,494.5,155.9C494.5,155.9,494.5,155.9,494.5,155.9z"/>
</g>
<g>
	<path class="st7" d="M482.2,150.1c0,0-2-3.6-4.7-2.1c0,0-0.1-0.8-0.8-0.8c-0.7,0-0.7,2.3-0.7,2.3S479.3,149.1,482.2,150.1z"/>
</g>
<g>
	<path class="st7" d="M466.6,152.6c0,0,0.1-3.8,2.3-2.8c0,0,0-0.7,0.5-0.8c0.8-0.2,1.1,2,1.1,2S468.1,151.1,466.6,152.6z"/>
</g>
<g>
	
		<ellipse transform="matrix(0.9971 -7.633550e-02 7.633550e-02 0.9971 -10.4094 36.973)" class="st7" cx="478.4" cy="154.7" rx="1.5" ry="1.9"/>
</g>
<g>
	<circle class="st14" cx="478" cy="154" r="0.4"/>
</g>
<g>
	
		<ellipse transform="matrix(0.9971 -7.633550e-02 7.633550e-02 0.9971 -10.4888 36.2831)" class="st7" cx="469.4" cy="155.3" rx="1.5" ry="1.9"/>
</g>
<g>
	<circle class="st14" cx="469" cy="154.7" r="0.4"/>
</g>
<g>
	<path class="st7" d="M473.4,161.5c0.5,0,0.9-0.1,1.2-0.2c0.3-0.1,0.4-0.4,0.4-0.7c-0.1-0.3-0.4-0.5-0.7-0.4c0,0-1.6,0.5-2.1-0.5
		c-0.1-0.2-0.1-0.3,0-0.3c0.2-0.3,1-0.5,1.5-0.6c0.3,0,0.5-0.3,0.5-0.6l-0.3-3.7c0-0.3-0.3-0.5-0.6-0.5c-0.3,0-0.5,0.3-0.5,0.6
		l0.2,3.2c-0.6,0.1-1.5,0.4-1.9,1.1c-0.2,0.3-0.3,0.7,0,1.4C471.6,161.3,472.5,161.5,473.4,161.5z"/>
</g>
<g>
	<path class="st14" d="M473.6,165c0,0,4.2,2.5,6.6-2.7L473.6,165z"/>
</g>
<g>
	<rect x="287.8" y="315.4" class="st13" width="21.4" height="180.1"/>
</g>
<g>
	<rect x="189.7" y="315.4" class="st1" width="217.7" height="21.4"/>
</g>
<g>
	<path class="st12" d="M407.3,337.3h-35.2c-0.3,0-0.5-0.2-0.5-0.5s0.2-0.5,0.5-0.5h34.7v-20.9c0-0.3,0.2-0.5,0.5-0.5
		s0.5,0.2,0.5,0.5v21.4C407.8,337,407.6,337.3,407.3,337.3z"/>
</g>
<g>
	<rect x="225.8" y="495.5" class="st4" width="145.4" height="8.4"/>
</g>
<g>
	<rect x="165.7" y="294" class="st13" width="265.7" height="21.4"/>
</g>
<g>
	<polygon class="st4" points="148.6,312.2 148.6,312.1 148.6,312.1 	"/>
</g>
<g>
	<path class="st0" d="M177.8,300.6c4.9-2.2,10.1-4.5,15.5-6.6h-8c-5.4,2.3-10.5,4.6-15.1,6.9c-1.6,0.8-3.1,1.5-4.5,2.2v3.4
		C169.3,304.6,173.4,302.6,177.8,300.6z"/>
</g>
<g>
	<path class="st0" d="M255.3,299.1c-12.5,4.8-25,10.3-35.7,16.3h6.3c5.8-3,12-5.9,18.4-8.6c11.3-4.8,23.1-9,34.1-12.8h-9.2
		C264.6,295.6,259.9,297.3,255.3,299.1z"/>
</g>
<g>
	<path class="st0" d="M170.9,315.4h6.9c7.8-3.7,19.3-8.9,33.1-14.1c6.4-2.4,13.2-4.9,20.5-7.2H222c-5.1,1.8-10,3.6-14.6,5.4
		C190.9,305.8,178,311.9,170.9,315.4z"/>
</g>
<g>
	<path class="st0" d="M431.3,307.2v-3.4c-7.3-3.9-15.1-7.1-23.1-9.8h-10.4C409.4,297.1,421,301.5,431.3,307.2z"/>
</g>
<g>
	<path class="st0" d="M418.9,314.7c0.3,0.2,0.5,0.4,0.7,0.6h4.3c-0.2-0.2-0.4-0.4-0.6-0.7c-2.1-2.1-5.2-4.6-9.4-7.1
		c-7.7-4.7-18.9-9.7-33.5-13.6H367c15.7,3,28.3,7.4,37.6,11.9C410.9,309,415.8,312.1,418.9,314.7z"/>
</g>
<g>
	<path class="st0" d="M285.9,308.8c14.4-4.7,28.8-7.9,47.6-7.9c18.6,0,36.8,4.8,52.2,9.9c4.6,1.5,9,3.1,13,4.6h8.7c0,0-0.1,0-0.1,0
		c-8.9-3.2-20.2-7.6-32.8-11.1c-12.6-3.5-26.6-6.3-41-6.3c-19.1,0-33.9,3.2-48.5,8c-8.5,2.8-16.9,6-26,9.4h8.5
		C273.8,313,279.8,310.8,285.9,308.8z"/>
</g>
<g>
	<circle class="st4" cx="61.2" cy="123.5" r="3.1"/>
</g>
<g>
	<circle class="st4" cx="443.4" cy="91.7" r="5.3"/>
</g>
<g>
	<polygon class="st1" points="281.4,172.1 327.9,183.1 290.4,205.9 243.9,194.9 	"/>
</g>
<g>
	<polygon class="st0" points="327.9,183.1 341.3,234 303.8,256.8 290.4,205.9 	"/>
</g>
<g>
	<polygon class="st13" points="243.9,194.9 257.3,245.7 303.8,256.8 290.4,205.9 	"/>
</g>
<g>
	<path class="st0" d="M331.5,294h-68.4c-1,0-1.9-0.9-1.9-1.9V279c0-1,0.9-1.9,1.9-1.9h68.4c1,0,1.9,0.9,1.9,1.9v13.1
		C333.4,293.1,332.6,294,331.5,294z"/>
</g>
<g>
	<circle class="st13" cx="273.5" cy="285.5" r="2.4"/>
</g>
<g>
	<circle class="st13" cx="283.4" cy="285.5" r="2.4"/>
</g>
<g>
	<path class="st13" d="M321.6,288h-23.9c-1,0-1.9-0.9-1.9-1.9v-1c0-1,0.9-1.9,1.9-1.9h23.9c1,0,1.9,0.9,1.9,1.9v1
		C323.5,287.1,322.6,288,321.6,288z"/>
</g>
<g>
	<path class="st10" d="M262.7,273.9c-0.2,0-0.4-0.1-0.5-0.3L204,138.5c-0.1-0.3,0-0.5,0.3-0.7c0.3-0.1,0.5,0,0.7,0.3l58.2,135.1
		c0.1,0.3,0,0.5-0.3,0.7C262.8,273.9,262.8,273.9,262.7,273.9z"/>
</g>
<g>
	<path class="st10" d="M331.9,273.9c-0.1,0-0.1,0-0.2,0c-0.3-0.1-0.4-0.4-0.3-0.7l58.2-135.1c0.1-0.3,0.4-0.4,0.7-0.3
		c0.3,0.1,0.4,0.4,0.3,0.7l-58.2,135.1C332.3,273.8,332.1,273.9,331.9,273.9z"/>
</g>
<g>
	<path class="st10" d="M272.4,138.3h-42.2c-1.8,0-3.3-1.5-3.3-3.3V111c0-1.8,1.5-3.3,3.3-3.3h42.2c1.8,0,3.3,1.5,3.3,3.3V135
		C275.7,136.9,274.2,138.3,272.4,138.3z"/>
</g>
<g>
	<circle class="st14" cx="239.6" cy="116.8" r="4.2"/>
</g>
<g>
	<path class="st14" d="M248,133.4h-16.8v-1.8c0-4.6,3.8-8.4,8.4-8.4h0c4.6,0,8.4,3.8,8.4,8.4V133.4z"/>
</g>
<g>
	<path class="st14" d="M269.3,120h-16.8c-1.1,0-2-0.9-2-2l0,0c0-1.1,0.9-2,2-2h16.8c1.1,0,2,0.9,2,2l0,0
		C271.3,119,270.4,120,269.3,120z"/>
</g>
<g>
	<path class="st14" d="M269.3,127.3h-11.6c-1.1,0-2-0.9-2-2l0,0c0-1.1,0.9-2,2-2h11.6c1.1,0,2,0.9,2,2l0,0
		C271.3,126.4,270.4,127.3,269.3,127.3z"/>
</g>
<g>
	<path class="st10" d="M355,159h-42.2c-1.8,0-3.3-1.5-3.3-3.3v-24.1c0-1.8,1.5-3.3,3.3-3.3H355c1.8,0,3.3,1.5,3.3,3.3v24.1
		C358.2,157.5,356.8,159,355,159z"/>
</g>
<g>
	<circle class="st14" cx="322.2" cy="137.4" r="4.2"/>
</g>
<g>
	<path class="st14" d="M330.6,154h-16.8v-1.8c0-4.6,3.8-8.4,8.4-8.4l0,0c4.6,0,8.4,3.8,8.4,8.4V154z"/>
</g>
<g>
	<path class="st14" d="M351.8,140.6h-16.8c-1.1,0-2-0.9-2-2l0,0c0-1.1,0.9-2,2-2h16.8c1.1,0,2,0.9,2,2l0,0
		C353.9,139.7,353,140.6,351.8,140.6z"/>
</g>
<g>
	<path class="st14" d="M351.8,147.9h-11.6c-1.1,0-2-0.9-2-2l0,0c0-1.1,0.9-2,2-2h11.6c1.1,0,2,0.9,2,2l0,0
		C353.9,147,353,147.9,351.8,147.9z"/>
</g>
<g>
	<path class="st4" d="M554.7,503.8H442.5c-0.3,0-0.5-0.2-0.5-0.5s0.2-0.5,0.5-0.5h112.2c0.3,0,0.5,0.2,0.5,0.5
		S555,503.8,554.7,503.8z"/>
</g>
<g>
	<path class="st4" d="M415.5,503.8H63.7c-0.3,0-0.5-0.2-0.5-0.5s0.2-0.5,0.5-0.5h351.9c0.3,0,0.5,0.2,0.5,0.5
		S415.8,503.8,415.5,503.8z"/>
</g>
<g>
	<path class="st4" d="M175.2,523.1h-56.1c-0.3,0-0.5-0.2-0.5-0.5s0.2-0.5,0.5-0.5h56.1c0.3,0,0.5,0.2,0.5,0.5
		S175.5,523.1,175.2,523.1z"/>
</g>
<g>
	<path class="st4" d="M515.4,523.1H193.4c-0.3,0-0.5-0.2-0.5-0.5s0.2-0.5,0.5-0.5h321.9c0.3,0,0.5,0.2,0.5,0.5
		S515.7,523.1,515.4,523.1z"/>
</g>
<g>
	<path class="st4" d="M397.1,542.4h-38c-0.3,0-0.5-0.2-0.5-0.5s0.2-0.5,0.5-0.5h38c0.3,0,0.5,0.2,0.5,0.5S397.3,542.4,397.1,542.4z"
		/>
</g>
<g>
	<path class="st4" d="M346.5,542.4H175.6c-0.3,0-0.5-0.2-0.5-0.5s0.2-0.5,0.5-0.5h170.9c0.3,0,0.5,0.2,0.5,0.5
		S346.8,542.4,346.5,542.4z"/>
</g>
</svg>
