<?xml version="1.0" encoding="utf-8"?>
<!-- Generator: Adobe Illustrator 24.1.1, SVG Export Plug-In . SVG Version: 6.00 Build 0)  -->
<svg version="1.1" id="GROUND" xmlns="http://www.w3.org/2000/svg" xmlns:xlink="http://www.w3.org/1999/xlink" x="0px" y="0px"
	 viewBox="0 0 500 500" style="enable-background:new 0 0 500 500;" xml:space="preserve">
<style type="text/css">
	.st0{fill:#515154;}
	.st1{fill:#0B7D98;}
	.st2{fill:#FFEABB;}
	.st3{fill:#159BBA;}
	.st4{fill:#6D6D71;}
	.st5{fill:#CE9238;}
	.st6{fill:#38B9CE;}
	.st7{fill:#29292C;}
	.st8{fill:#86EFFA;}
	.st9{fill:#FFFFFF;}
	.st10{fill:#F6F8F9;}
	.st11{fill:#FAD986;}
</style>
<path class="st0" d="M325.3,462.9h-46.2c-0.3,0-0.5-0.2-0.5-0.5s0.2-0.5,0.5-0.5h46.2c0.3,0,0.5,0.2,0.5,0.5
	S325.6,462.9,325.3,462.9z"/>
<path class="st0" d="M197.6,462.9h-46.2c-0.3,0-0.5-0.2-0.5-0.5s0.2-0.5,0.5-0.5h46.2c0.3,0,0.5,0.2,0.5,0.5
	C198.1,462.7,197.9,462.9,197.6,462.9z"/>
<path class="st0" d="M296.3,466h-72.1c-0.3,0-0.5-0.2-0.5-0.5s0.2-0.5,0.5-0.5h72.1c0.3,0,0.5,0.2,0.5,0.5S296.5,466,296.3,466z"/>
<path class="st0" d="M147.8,466h-18.7c-0.3,0-0.5-0.2-0.5-0.5s0.2-0.5,0.5-0.5h18.7c0.3,0,0.5,0.2,0.5,0.5
	C148.3,465.8,148.1,466,147.8,466z"/>
<path class="st1" d="M160.3,267.5c0,0,16.9,19.4,57.3,16.6s51.7-25,51.7-25l-9.8-45.3l-82.3,10.5L160.3,267.5z"/>
<path class="st2" d="M240.8,418.9l-0.6,15c-2.3,1.3-5.1,1.3-7.4,0l-1.1-16.1L240.8,418.9z"/>
<path class="st0" d="M227.1,447c-0.3,4.8,0.1,9.7,1.2,14.4h3.3c0,0,1.5-8.8,3.2-12.7S228.7,443.5,227.1,447z"/>
<path class="st3" d="M231.6,431.6c0,0,3.5,1.8,9.7,0c0,0,10.1,17,13.5,20s11,6.4,13.6,7.8s-17.3,2.4-22,1.6s-8.6-6.7-12.5-9.9
	c-2-1.7-4.3-3.2-6.8-4.2C227.1,446.9,228.1,438.3,231.6,431.6z"/>
<path class="st0" d="M256,218.4c0,0,6,31.8,5.2,44.9s-8.1,69-8.1,69l-9.2,88c0,0-10.5,2-15.4-0.7c0,0-1.5-24.6-3.2-37.4
	s0-25.1,1.1-35.3c0,0-7.1-42.5-8.8-79.9s3.4-58.1,17.9-59.5S256,218.4,256,218.4z"/>
<path class="st4" d="M233.3,417.8c-0.3,0-0.5-0.2-0.5-0.5c-0.1-1.3-3.5-32.9-3.4-40.7s2.4-29.4,2.4-29.6l-6-81.4
	c0-0.3,0.2-0.5,0.5-0.5s0.5,0.2,0.5,0.5l6,81.5c0,0.3-2.2,21.9-2.4,29.7s3.3,40.2,3.4,40.5C233.8,417.5,233.6,417.7,233.3,417.8
	L233.3,417.8L233.3,417.8z"/>
<path class="st2" d="M177.7,418.9L176,435c-2.3,1.3-5.1,1.3-7.4,0v-17.3L177.7,418.9z"/>
<path class="st0" d="M162.9,448.1c-0.3,4.8,0.1,9.7,1.2,14.4h3.3c0,0,1.5-8.8,3.2-12.7S164.5,444.6,162.9,448.1z"/>
<path class="st3" d="M167.4,432.7c0,0,3.5,1.8,9.7,0c0,0,10.1,17,13.5,20s11,6.4,13.6,7.8s-17.3,2.4-22,1.6s-8.6-6.7-12.5-9.9
	c-2-1.7-4.3-3.2-6.8-4.2C162.9,448.1,164,439.4,167.4,432.7z"/>
<path class="st0" d="M224.9,235.9l-2.4,32.9c0,0-21.6,62.9-26.1,76.6S182,418.2,182,418.2s-3,2.7-9.5,2.7s-8-3.1-8-3.1
	s-1.4-44.5,0-56s5.9-28.8,6.1-36.9s-0.3-52.5,1.7-71s10.6-46.9,30.6-46.8S225.9,222.8,224.9,235.9z"/>
<path class="st4" d="M169.4,416.5L169.4,416.5c-0.3,0-0.5-0.2-0.5-0.5c0,0,0,0,0,0c0-0.3,0.4-27.2,0.9-41.2
	c0.4-10.8,2.5-24.4,3.8-33.4c0.4-2.9,0.8-5.3,1-7.1c0.9-6.6,2.6-20.3,2.6-31c0-10.5,4.2-65.6,4.3-66.1c0-0.3,0.2-0.5,0.5-0.5
	c0,0,0,0,0,0c0.3,0,0.5,0.3,0.5,0.5c0,0,0,0,0,0c0,0.6-4.3,55.6-4.3,66.1c0,10.8-1.8,24.5-2.6,31.2c-0.2,1.8-0.6,4.2-1,7.1
	c-1.4,9-3.4,22.6-3.8,33.3c-0.6,14-0.9,40.9-0.9,41.1C169.9,416.3,169.6,416.5,169.4,416.5z"/>
<path class="st4" d="M222.5,269.3c-0.3,0-0.5-0.2-0.5-0.5c0-0.1,0.1-0.3,0.2-0.4l3.8-3.2c1.6-1.4,2.6-3.3,2.8-5.5l1.5-26.3
	c0-0.3,0.3-0.5,0.5-0.5s0.5,0.3,0.5,0.5l-1.5,26.3c-0.1,2.4-1.3,4.6-3.1,6.2l-3.8,3.2C222.7,269.2,222.6,269.3,222.5,269.3z"/>
<path class="st4" d="M222.5,269.3L222.5,269.3c-0.3,0-0.5-0.3-0.5-0.5l2.4-34.6c0-0.3,0.2-0.5,0.5-0.5c0,0,0,0,0,0
	c0.3,0,0.5,0.3,0.5,0.5l-2.5,34.6C223,269.1,222.8,269.3,222.5,269.3z"/>
<path class="st3" d="M246.2,115.9c0,0,9.4,9.4,20.2,50.5l-1.1,22.6c0,0-7.6,3.4-12.1,1.7s-8.5-12.9-11.9-34.8
	C239.4,142.4,241.1,128.6,246.2,115.9z"/>
<path class="st0" d="M263.5,165.5c-5,5.9-6.8,13.9-5,21.4c2.3,9.4,8.7,10.9,8.7,10.9l7.1-3.8c0,0,3.7-9.2,2.9-18.1
	s-4.7-13.8-4.7-13.8L263.5,165.5z"/>
<path class="st2" d="M333.1,150c1.1-1.8,0.9-3-0.4-2.5c-0.6,0.2-1.8,0.8-3.2,1.4c1-1.9,0.2-3.3-1.4-2.6c-0.7,0.3-1.3,0.7-1.9,1.1
	c0.1-1.4-0.8-2.2-2-1.4c-2,1.5-3.9,3.2-5.7,4.9l-2.6-0.4c0.9-1.4,1.7-3,2.4-4.5c0.3-1.1-0.4-2-1.1-1.7c-0.5,0.3-5.9,5.2-9,8.1
	c-2.6,1.2-5.2,2.5-5.2,2.5l-31.6,11.1c0,0-3.9,11-0.6,20.8c0,0,35.4-26.1,37.8-27.2s16.9-1.9,18.7-2.4s7.6-6.1,8-7.4
	C335.5,149.3,334.5,149.5,333.1,150z"/>
<path class="st0" d="M327.3,153.1L327.3,153.1l-8.9-1.7c-0.3-0.1-0.5-0.3-0.4-0.6s0.3-0.5,0.6-0.4l8.7,1.6l5.7-2.5
	c0.2-0.1,0.5,0,0.7,0.2s0,0.5-0.2,0.7c0,0,0,0-0.1,0l-5.8,2.6C327.4,153.1,327.4,153.1,327.3,153.1z"/>
<path class="st0" d="M326.4,151.6c-0.3,0-0.5-0.2-0.5-0.5c0-0.2,0.1-0.3,0.2-0.4l3.2-2.2c0.2-0.1,0.5-0.1,0.7,0.2
	c0.1,0.2,0.1,0.5-0.1,0.7l-3.2,2.2C326.6,151.5,326.5,151.6,326.4,151.6z"/>
<path class="st0" d="M323.1,150.5c-0.3,0-0.5-0.2-0.5-0.5c0-0.2,0.1-0.3,0.2-0.4l3.1-2.6c0.2-0.2,0.5-0.1,0.7,0.1
	c0.2,0.2,0.1,0.5-0.1,0.7l-3.1,2.6C323.3,150.4,323.2,150.5,323.1,150.5z"/>
<path class="st5" d="M217.6,104.5l-20.4,17.7c0,0-20.9,103.6-20.1,103.6s28.1,8.7,52.9,3.9s29.2-11.2,29.2-11.2l-12-67l-2.6-33
	L217.6,104.5z"/>
<path class="st0" d="M214,231.6c-12-0.2-24-1.8-35.5-5c-0.7-0.2-1.2-0.3-1.4-0.3c-0.3,0-0.5-0.2-0.5-0.5c0,0,0,0,0,0
	c0-0.3,0.2-0.5,0.5-0.5c0.5,0.1,1.1,0.2,1.6,0.4c24.5,6.4,41.4,5.4,51.2,3.6c24.3-4.7,28.9-10.9,28.9-11c0.1-0.2,0.5-0.3,0.7-0.2
	c0.2,0.1,0.3,0.5,0.2,0.7c0,0,0,0,0,0c-0.2,0.3-4.9,6.6-29.6,11.4C224.8,231.2,219.4,231.7,214,231.6z"/>
<path class="st0" d="M204.7,224.9c-9.1,0-15.4-0.6-15.6-0.6c-0.3,0-0.5-0.3-0.4-0.6s0.3-0.5,0.6-0.4c0.4,0,40.2,3.8,65.7-7.8
	c0.3-0.1,0.5,0,0.6,0.3c0.1,0.2,0,0.5-0.2,0.6C239.6,223.5,218.8,224.9,204.7,224.9z"/>
<path class="st3" d="M217.6,186.2c-2.4,42.3-18.4,77.1-18.4,77.1c-15.8,8.9-38.9,4.3-38.9,4.3s15.1-60.7,18.8-85.3
	s6.6-60.9,6.6-60.9s15.4-13.5,26.4-17.7c-0.5,5.2-2.4,26.8-0.5,42.3C213.7,163.6,217.6,186.2,217.6,186.2z"/>
<path class="st3" d="M222.5,103.7c8.3,3.2,16.3,7.4,23.7,12.2v6.8c0,0,5.9,19.6,6.1,23s-2.6,15.6-2.6,15.6s17.6,68,19.6,97.6
	c-7.2-0.5-14.3-1.6-21.4-3.2c0,0,0-25.4-0.9-44.2c-0.4-10.6-1.7-21.1-3.9-31.5c0,0-10.6-44.3-13.1-53.6S222.5,103.7,222.5,103.7z"/>
<path class="st6" d="M255.8,186.6c-0.2,0-0.4-0.1-0.4-0.3c-3.3-14.2-6-24.6-6.1-24.7c0-0.1,0-0.1,0-0.2c0-0.1,2.9-12.1,2.6-15.5
	s-6.1-22.8-6.1-23c0,0,0-0.1,0-0.1v-4.8c0-0.2,0.2-0.4,0.4-0.4c0.2,0,0.4,0.2,0.4,0.4v4.8c0.4,1.4,5.9,19.6,6.1,23.1
	s-2.3,14.4-2.6,15.7c0.3,1.1,2.9,11.2,6,24.6C256.2,186.2,256.1,186.5,255.8,186.6C255.9,186.5,255.9,186.5,255.8,186.6L255.8,186.6
	L255.8,186.6z"/>
<path class="st3" d="M215.6,100c-5.6,0.9-10.5,13.4-12.6,24.5l6.3,5.8l-6.3,11.2c0,0,9.4,23.6,14.7,44.7c0,0-2.4-34.3-4.1-53.2
	c0.3-19.4,9.3-20.1,16.5-1.9c7,20.2,13.1,49.1,13.1,49.1s0.7-28.9-0.7-44.4l-9.3-7.2l2.8-7.3C235.8,121.3,226.3,98.4,215.6,100z"/>
<path class="st6" d="M243.1,180.6L243.1,180.6c-0.2,0-0.4-0.2-0.4-0.4c0,0,0,0,0,0c0-0.3,0.7-28.8-0.7-44.2l-9.2-7
	c-0.1-0.1-0.2-0.3-0.1-0.5l2.7-7.1c-2.1-4.9-4.8-9.5-8-13.7c-0.1-0.2-0.1-0.5,0.1-0.6s0.5-0.1,0.6,0.1l0,0c3.2,4.4,6,9.1,8.1,14.1
	c0,0.1,0,0.2,0,0.3l-2.7,7l9.1,7c0.1,0.1,0.2,0.2,0.2,0.3c1.5,15.4,0.8,44.2,0.8,44.5C243.5,180.5,243.3,180.6,243.1,180.6z"/>
<path class="st6" d="M215.5,178.6c-0.2,0-0.4-0.1-0.4-0.3c-5.2-18.4-12.4-36.4-12.5-36.6c-0.1-0.1-0.1-0.3,0-0.4l6.1-10.9l-6.1-5.5
	c-0.1-0.1-0.2-0.3-0.1-0.4c1.1-6.3,3.1-12.4,6-18.1c0.1-0.2,0.3-0.3,0.6-0.2c0.2,0.1,0.3,0.3,0.2,0.6c0,0,0,0.1,0,0.1
	c-2.8,5.6-4.8,11.5-5.9,17.6l6.1,5.6c0.1,0.1,0.2,0.4,0.1,0.5l-6.2,11c0.8,2,7.5,19.1,12.4,36.5
	C215.9,178.2,215.8,178.5,215.5,178.6L215.5,178.6z"/>
<path class="st3" d="M185.6,121.4c-6.4,5.1-10.9,22.2,0,35.5c9.8,11.9,35.9,35.6,41.6,36.7s11.4-6.1,11.4-6.1s0.6-16.2-1.3-19.6
	c-0.9-1.9-2.7-3.4-4.8-3.9l-3.8,2.2c0,0-16.3-24-24.9-32.5C198.7,128.4,192.5,124.3,185.6,121.4z"/>
<path class="st6" d="M228.5,194.1c-0.4,0-0.9,0-1.3-0.1c-5.9-1.2-31.7-24.8-41.3-36.2c-0.2-0.2-0.1-0.4,0-0.6c0.2-0.2,0.4-0.1,0.6,0
	c0,0,0,0,0,0c10.5,12.4,35.4,34.8,40.8,35.9c5,1,10.2-5,10.9-5.9c0-1.6,0.4-16.1-1.2-19.3c-0.8-1.8-2.4-3.1-4.3-3.6l-3.6,2.1
	c-0.2,0.1-0.4,0.1-0.6-0.1c-0.2-0.2-16.4-24.1-24.8-32.5c-3.9-3.8-8.3-7.1-13.2-9.7c-0.2-0.1-0.2-0.4-0.1-0.6
	c0.1-0.2,0.3-0.2,0.5-0.2c4.9,2.7,9.4,6,13.4,9.9c7.9,7.9,22.7,29.3,24.7,32.3l3.4-2c0.1-0.1,0.2-0.1,0.3-0.1c2.2,0.5,4.1,2,5.1,4.1
	c1.9,3.5,1.3,19.2,1.3,19.8c0,0.1,0,0.2-0.1,0.3C238.8,188,233.9,194.1,228.5,194.1z"/>
<path class="st0" d="M229.2,164.4l8.8-5.6c0,0,5.6,2.2,7.4,10.5s-1,17.7-1,17.7s-8.3,6.4-8.3,6.2c-4.2-2.9-7.3-7.1-8.9-11.9
	C224.1,172.6,229.2,164.4,229.2,164.4z"/>
<path class="st2" d="M238.1,162.9l37-19.6c0,0,9.1-7.4,13-9.6s5.6-1.8,5.5-0.8s-4.2,3.8-4.8,5.9s3.3,1.4,4.8,1.1s9.6-3,12.1-4.1
	s2.6,1.1,2,2.2s-4,2.7-4,2.7c-0.5,1.4-1.3,2.6-2.3,3.6c-0.4,1.3-1.3,2.5-2.5,3.2c-0.8,1.2-1.7,2.3-2.8,3.3c-1.4,1-17.4,1-19.4,1.3
	s-27.3,24.8-33.4,30.5C243.2,182.9,233.9,176.8,238.1,162.9z"/>
<path class="st0" d="M295.3,144.9c-0.3,0.1-0.5-0.1-0.6-0.4s0.1-0.5,0.4-0.6c2-0.8,6.5-2.7,6.5-2.7l0.4,0.9c0,0-4.5,1.9-6.5,2.7
	C295.4,144.8,295.4,144.8,295.3,144.9z"/>
<path class="st0" d="M295,147.8c-0.3,0-0.5-0.1-0.6-0.4c0-0.3,0.1-0.5,0.4-0.6c1.7-0.6,3.4-1.2,5-2c0.3-0.1,0.5,0,0.6,0.3
	c0.1,0.2,0,0.5-0.2,0.6c-1.7,0.8-3.4,1.5-5.1,2.1L295,147.8z"/>
<path class="st0" d="M293.3,150.2c-0.3,0-0.5-0.2-0.6-0.4s0.2-0.5,0.4-0.6c1.4-0.4,2.8-0.9,4.1-1.5c0.2-0.1,0.5,0,0.7,0.2
	c0.1,0.2,0,0.5-0.2,0.7c0,0,0,0,0,0c-1.4,0.6-2.8,1.1-4.3,1.5L293.3,150.2L293.3,150.2z"/>
<path class="st7" d="M204.5,67c0,0-4.1-7.8-10.5-9.4s-10.7,5-11.5,13.1s5.1,14.8,14,7.2C203.5,71.8,204.5,67,204.5,67z"/>
<path class="st7" d="M202.8,67.1c0,0-10.3,5.6-9.1,14.9s17.5,16.6,26.3,11.3s6.6-12.9,6.6-12.9s7.8-0.7,7.9-8.2s-3.7-8.8-7.7-8
	c0,0,1.5-9.3-7.1-10.1S204.6,57.9,202.8,67.1z"/>
<path class="st0" d="M193.8,78.8h-0.1c-0.3-0.1-0.4-0.3-0.4-0.6c0,0,0,0,0,0c1.5-7.2,8.9-11.3,9.2-11.5c0.2-0.1,0.5,0,0.7,0.2
	c0.1,0.2,0,0.5-0.2,0.7c-0.1,0-7.4,4.1-8.7,10.8C194.2,78.6,194,78.8,193.8,78.8z"/>
<path class="st2" d="M230,131.1c-0.8,3-2.7,5.7-5.4,7.4c-6-0.5-11.1-5.5-11.1-5.5v-19.7c-0.1-5.3-1.3-18.2-1.8-22.9l-0.2-1.7l9.2,2
	c0,0,0.2,4.3,0.6,9.2c0.4,4.6,0.9,9.7,1.6,11.8C224.5,116.1,230,131.1,230,131.1z"/>
<path class="st0" d="M221.4,99.8c-5.3-1.6-8.1-5.9-9.6-9.4l-0.2-1.7l9.2,2C220.8,90.7,221,95,221.4,99.8z"/>
<path class="st2" d="M224.9,71.8c2.6,4.6,4.1,9.7,4.3,14.9c0.2,8.4-6.5,9.4-13.3,6.5s-11-12.6-11-12.6s-3.1-8.4,2.6-12.2
	c5.5-3.9,13.1-2.7,17.1,2.8C224.6,71.4,224.8,71.6,224.9,71.8z"/>
<path class="st7" d="M208.3,71.1c0,0,9,7.1,20.2,2.4c0,0-8.2-15.5-21.4-8s-6.8,18.2,0.3,19.8C207.4,85.4,211.3,80.8,208.3,71.1z"/>
<path class="st2" d="M212,89l-3.3-4.8c0,0-3.5-3.2-6.8-1.1S202.1,94.4,212,89z"/>
<path class="st0" d="M209.9,87.7c-0.1,0-0.2,0-0.3-0.1c-1.9-1.4-4.2-2.1-6.6-2c-0.3,0-0.5-0.2-0.6-0.4s0.2-0.5,0.4-0.6
	c2.6-0.2,5.2,0.6,7.3,2.2c0.3,0.1,0.4,0.4,0.3,0.6C210.4,87.6,210.1,87.8,209.9,87.7z"/>
<path class="st0" d="M205.8,89.1c-0.2,0-0.4-0.2-0.5-0.4c-0.2-1.1-0.2-2.3-0.1-3.4c0-0.3,0.3-0.5,0.6-0.4c0.3,0,0.5,0.3,0.4,0.6l0,0
	c-0.1,1-0.1,2,0.1,3c0.1,0.3-0.1,0.5-0.4,0.6c0,0,0,0,0,0L205.8,89.1L205.8,89.1z"/>
<path class="st8" d="M208.8,98.4c-1.8,0-3.2-2.2-3.2-5.1c0-1,0.2-1.9,0.5-2.8c0.1-0.3,0.4-0.4,0.6-0.3c0.3,0.1,0.4,0.4,0.3,0.6
	c0,0,0,0.1,0,0.1c-0.3,0.8-0.5,1.6-0.4,2.4c0,2.2,1,4.1,2.2,4.1s2.2-1.9,2.2-4.1s-1-4.1-2.2-4.1c-0.3,0-0.5-0.2-0.5-0.5
	s0.2-0.5,0.5-0.5c1.8,0,3.2,2.2,3.2,5.1S210.6,98.4,208.8,98.4z"/>
<path class="st0" d="M211.5,79.1c0,0,0.5-3.7,3.4-3.3c-0.1-0.4,0.1-0.8,0.5-1c0.6-0.2,1.4,1.7,1.4,1.7C214.8,77,213,77.9,211.5,79.1
	z"/>
<path class="st0" d="M225.7,76.1c0,0-1.3-3.2-2.9-1.7c-0.1-0.3-0.4-0.5-0.7-0.5c-0.8,0.1-0.3,2-0.3,2
	C223.1,75.6,224.5,75.7,225.7,76.1z"/>
<ellipse transform="matrix(0.9595 -0.2818 0.2818 0.9595 -14.2768 64.2466)" class="st0" cx="216.2" cy="81.8" rx="1.4" ry="1.8"/>
<ellipse transform="matrix(0.9595 -0.2818 0.2818 0.9595 -14.0812 64.254)" class="st9" cx="216.3" cy="81.1" rx="0.4" ry="0.4"/>
<ellipse transform="matrix(0.9595 -0.2818 0.2818 0.9595 -13.2923 66.4026)" class="st0" cx="224.2" cy="79.4" rx="1.4" ry="1.8"/>
<ellipse transform="matrix(0.9595 -0.2818 0.2818 0.9595 -13.0959 66.4098)" class="st9" cx="224.3" cy="78.7" rx="0.4" ry="0.4"/>
<path class="st0" d="M221.7,86.2c-0.3,0-0.5-0.2-0.5-0.5s0.2-0.5,0.5-0.5c0.1,0,1.5-0.1,1.6-1.1c0-0.1,0-0.2-0.1-0.3
	c-0.5-0.2-1-0.2-1.5,0c-0.3,0.1-0.5-0.1-0.6-0.3l-1-3.3c-0.1-0.3,0.1-0.6,0.4-0.6c0.3-0.1,0.6,0.1,0.6,0.4l0.9,2.8
	c0.7-0.2,1.4-0.1,1.9,0.3c0.3,0.3,0.5,0.7,0.4,1.2C224.2,85.7,222.6,86.2,221.7,86.2L221.7,86.2L221.7,86.2z"/>
<path class="st0" d="M220.8,90.3c-1.3,0-2.7-0.4-3.8-1.1c-0.2-0.1-0.3-0.4-0.2-0.7c0.1-0.2,0.4-0.3,0.7-0.2c0,0,0,0,0,0
	c3.5,2,6,0.2,6,0.2c0.2-0.2,0.5-0.2,0.7,0.1c0.2,0.2,0.2,0.5-0.1,0.7c0,0,0,0-0.1,0.1C223,90,221.9,90.3,220.8,90.3z"/>
<circle class="st1" cx="158.9" cy="96.6" r="22"/>
<circle class="st10" cx="160" cy="84.2" r="4"/>
<path class="st10" d="M151.9,99.1c-0.2,0.1-0.4,0-0.4-0.2c0-0.1,0-0.2,0-0.3c1.2-2.7,7.8-8.4,12.5-8.2c2.1,0.1-2.9,14.1-2.9,16
	c0,1.4,3.2,0.2,4.9-0.6c0.2-0.1,0.4,0,0.5,0.2c0,0.1,0,0.2,0,0.3c-1.3,2-5.4,6.2-9.5,6.5c-5.6,0.4-0.6-15.3-0.6-15.3L151.9,99.1z"/>
<path class="st11" d="M286.8,74.5c-11.2-4.2-14.2-14.3-9.2-17.7c4.6-3.1,9.2,2.2,9.2,2.2s4.6-5.3,9.2-2.2
	C301,60.2,298,70.3,286.8,74.5z"/>
<path class="st11" d="M369.5,55.8c-5.6-2.1-7.1-7.1-4.6-8.8c2.3-1.5,4.6,1.1,4.6,1.1s2.3-2.7,4.6-1.1
	C376.6,48.7,375,53.7,369.5,55.8z"/>
<path class="st11" d="M389.6,139.3c-9.4-3.5-12-12-7.8-14.9c3.8-2.6,7.8,1.9,7.8,1.9s3.9-4.5,7.8-1.9
	C401.6,127.3,399,135.8,389.6,139.3z"/>
<path class="st1" d="M343.1,168.2c-2.2,0-4.1-1.8-4.1-4.1s1.8-4.1,4.1-4.1s4.1,1.8,4.1,4.1l0,0C347.1,166.4,345.3,168.2,343.1,168.2
	z M343.1,161.1c-1.7,0-3.1,1.4-3.1,3.1s1.4,3.1,3.1,3.1c1.7,0,3.1-1.4,3.1-3.1l0,0C346.1,162.5,344.8,161.1,343.1,161.1
	C343.1,161.1,343.1,161.1,343.1,161.1L343.1,161.1z"/>
<path class="st1" d="M319.5,57.8c-2.2,0-4.1-1.8-4.1-4.1s1.8-4.1,4.1-4.1c2.2,0,4.1,1.8,4.1,4.1l0,0
	C323.6,55.9,321.8,57.7,319.5,57.8z M319.5,50.6c-1.7,0-3.1,1.4-3.1,3.1s1.4,3.1,3.1,3.1c1.7,0,3.1-1.4,3.1-3.1l0,0
	C322.6,52,321.3,50.6,319.5,50.6C319.6,50.6,319.6,50.6,319.5,50.6L319.5,50.6z"/>
<path class="st1" d="M375.9,107.7c-1.7,0-3-1.4-3-3.1s1.4-3,3.1-3c1.7,0,3,1.4,3,3C379,106.3,377.6,107.7,375.9,107.7
	C375.9,107.7,375.9,107.7,375.9,107.7z M375.9,102.5c-1.1,0-2,1-2,2.1c0,1.1,1,2,2.1,2c1.1,0,2-0.9,2-2
	C378,103.5,377.1,102.5,375.9,102.5C375.9,102.5,375.9,102.5,375.9,102.5L375.9,102.5z"/>
<path class="st1" d="M380.8,71.8c-0.3,0-0.5-0.2-0.5-0.5v-5.8c0-0.3,0.2-0.5,0.5-0.5s0.5,0.2,0.5,0.5v5.8
	C381.3,71.6,381.1,71.8,380.8,71.8z"/>
<path class="st1" d="M386.8,74.1h-4.3c-0.3,0-0.5-0.2-0.5-0.5s0.2-0.5,0.5-0.5h4.3c0.3,0,0.5,0.2,0.5,0.5S387.1,74.1,386.8,74.1z"/>
<path class="st1" d="M380.8,82.2c-0.3,0-0.5-0.2-0.5-0.5v-5.8c0-0.3,0.2-0.5,0.5-0.5s0.5,0.2,0.5,0.5v5.8
	C381.3,81.9,381.1,82.2,380.8,82.2z"/>
<path class="st1" d="M379.1,74.1h-4.3c-0.3,0-0.5-0.2-0.5-0.5s0.2-0.5,0.5-0.5h4.3c0.3,0,0.5,0.2,0.5,0.5S379.4,74.1,379.1,74.1z"/>
<path class="st1" d="M363.8,146.4c-0.3,0-0.5-0.2-0.5-0.5v-5.8c0-0.3,0.2-0.5,0.5-0.5s0.5,0.2,0.5,0.5v5.8
	C364.3,146.2,364.1,146.4,363.8,146.4z"/>
<path class="st1" d="M369.9,148.7h-4.3c-0.3,0-0.5-0.2-0.5-0.5s0.2-0.5,0.5-0.5h4.3c0.3,0,0.5,0.2,0.5,0.5S370.1,148.7,369.9,148.7z
	"/>
<path class="st1" d="M363.8,156.8c-0.3,0-0.5-0.2-0.5-0.5v-5.8c0-0.3,0.2-0.5,0.5-0.5s0.5,0.2,0.5,0.5v5.8
	C364.3,156.5,364.1,156.8,363.8,156.8z"/>
<path class="st1" d="M362.1,148.7h-4.3c-0.3,0-0.5-0.2-0.5-0.5s0.2-0.5,0.5-0.5h4.3c0.3,0,0.5,0.2,0.5,0.5S362.4,148.7,362.1,148.7z
	"/>
<path class="st1" d="M291.8,99.6c-0.3,0-0.5-0.2-0.5-0.5v-5.8c0-0.3,0.2-0.5,0.5-0.5s0.5,0.2,0.5,0.5v5.8
	C292.3,99.3,292,99.6,291.8,99.6z"/>
<path class="st1" d="M297.8,101.8h-4.3c-0.3,0-0.5-0.2-0.5-0.5s0.2-0.5,0.5-0.5h4.3c0.3,0,0.5,0.2,0.5,0.5S298.1,101.8,297.8,101.8z
	"/>
<path class="st1" d="M291.8,109.9c-0.3,0-0.5-0.2-0.5-0.5v-5.8c0-0.3,0.2-0.5,0.5-0.5s0.5,0.2,0.5,0.5v5.8
	C292.3,109.7,292,109.9,291.8,109.9z"/>
<path class="st1" d="M290.1,101.8h-4.3c-0.3,0-0.5-0.2-0.5-0.5s0.2-0.5,0.5-0.5h4.3c0.3,0,0.5,0.2,0.5,0.5S290.3,101.8,290.1,101.8z
	"/>
<path class="st1" d="M321.1,67.9H360c1.5,0,2.7,1.2,2.7,2.7v52c0,1.5-1.2,2.7-2.7,2.7h-38.9c-1.5,0-2.7-1.2-2.7-2.7v-52
	C318.4,69.1,319.6,67.9,321.1,67.9z"/>
<path class="st0" d="M316.6,72.4h38.9c1.5,0,2.7,1.2,2.7,2.7v52c0,1.5-1.2,2.7-2.7,2.7h-38.9c-1.5,0-2.7-1.2-2.7-2.7v-52
	C313.9,73.6,315.1,72.4,316.6,72.4z"/>
<path class="st1" d="M311.8,77.3h38.9c1.5,0,2.7,1.2,2.7,2.7v52c0,1.5-1.2,2.7-2.7,2.7h-38.9c-1.5,0-2.7-1.2-2.7-2.7v-52
	C309.2,78.5,310.4,77.3,311.8,77.3z"/>
<path class="st10" d="M314.8,89.6h33c0.9,0,1.6,0.7,1.6,1.6v0.4c0,0.9-0.7,1.6-1.6,1.6h-33c-0.9,0-1.6-0.7-1.6-1.6v-0.4
	C313.2,90.3,313.9,89.6,314.8,89.6z"/>
<path class="st10" d="M314.8,99.3h33c0.9,0,1.6,0.7,1.6,1.6v0.4c0,0.9-0.7,1.6-1.6,1.6h-33c-0.9,0-1.6-0.7-1.6-1.6v-0.4
	C313.2,100,313.9,99.3,314.8,99.3z"/>
<path class="st10" d="M314.8,109h33c0.9,0,1.6,0.7,1.6,1.6v0.4c0,0.9-0.7,1.6-1.6,1.6h-33c-0.9,0-1.6-0.7-1.6-1.6v-0.4
	C313.2,109.7,313.9,109,314.8,109z"/>
<path class="st10" d="M314.8,118.7h13.5c0.9,0,1.6,0.7,1.6,1.6v0.4c0,0.9-0.7,1.6-1.6,1.6h-13.5c-0.9,0-1.6-0.7-1.6-1.6v-0.4
	C313.2,119.4,313.9,118.7,314.8,118.7z"/>
</svg>
