<?xml version="1.0" encoding="utf-8"?>
<!-- Generator: Adobe Illustrator 24.1.1, SVG Export Plug-In . SVG Version: 6.00 Build 0)  -->
<svg version="1.1" id="Слой_1" xmlns="http://www.w3.org/2000/svg" xmlns:xlink="http://www.w3.org/1999/xlink" x="0px" y="0px"
	 viewBox="0 0 24 24" style="enable-background:new 0 0 24 24;" xml:space="preserve">
<style type="text/css">
	.st0{fill:#DDA95B;}
</style>
<path class="st0" d="M22.7,9.5c-0.1-0.2-0.3-0.4-0.5-0.4l-6.9-0.7l-2.8-6.3c-0.1-0.2-0.3-0.4-0.5-0.4c-0.2,0-0.4,0.1-0.5,0.4
	L8.7,8.4L1.8,9.1c-0.2,0-0.4,0.2-0.5,0.4c-0.1,0.2,0,0.5,0.2,0.6l5.1,4.6l-1.5,6.7c0,0.2,0,0.5,0.2,0.6c0.1,0.1,0.2,0.1,0.3,0.1
	c0.1,0,0.2,0,0.3-0.1l6-3.5l6,3.5c0.2,0.1,0.5,0.1,0.6,0c0.2-0.1,0.3-0.4,0.2-0.6l-1.5-6.7l5.1-4.6C22.7,10,22.8,9.8,22.7,9.5z
	 M20.4,10.5l-4.1,3.6c-0.2,0.1-0.2,0.4-0.2,0.6l1.2,5.3c0,0.2-0.1,0.3-0.3,0.2c0,0-2.9-1.7-4.3-2.5c-0.4-0.2-0.7-0.7-0.7-1.2l0-11.8
	c0-0.2,0.2-0.2,0.3-0.1c0.6,1.4,2.1,4.5,2.1,4.5c0.1,0.2,0.3,0.3,0.5,0.4l5.4,0.6C20.5,10.2,20.5,10.4,20.4,10.5z"/>
</svg>
