<svg width="55" height="55" viewBox="0 0 55 55" fill="none" xmlns="http://www.w3.org/2000/svg">
<path d="M20.3958 13.9105L17.1417 10.6793L20.625 6.87512H34.375L38.5687 11.4585H45.8333C48.3542 11.4585 50.4167 13.521 50.4167 16.0418V43.5418C50.4167 43.6564 50.3937 43.771 50.3708 43.9085L45.8333 39.348V16.0418H36.5521L32.3583 11.4585H22.6417L20.3958 13.9105ZM46.9562 53.4189L41.6396 48.1251H9.16665C6.64582 48.1251 4.58332 46.0626 4.58332 43.5418V16.0418C4.58332 14.6897 5.20207 13.4751 6.14165 12.6272L1.55832 8.04387L4.81249 4.81262L50.1875 50.1876L46.9562 53.4189ZM21.0604 27.546C20.8083 28.2564 20.625 28.9897 20.625 29.7918C20.625 33.596 23.6958 36.6668 27.5 36.6668C28.3021 36.6668 29.0354 36.4835 29.7458 36.2314L21.0604 27.546ZM37.0562 43.5418L33.2062 39.6918C31.5333 40.6772 29.5854 41.2501 27.5 41.2501C21.175 41.2501 16.0417 36.1168 16.0417 29.7918C16.0417 27.7064 16.6146 25.7585 17.6 24.0855L9.55624 16.0418H9.16665V43.5418H37.0562ZM33.9396 27.4543L38.6833 32.198C38.8666 31.4189 38.9583 30.6168 38.9583 29.7918C38.9583 23.4668 33.825 18.3335 27.5 18.3335C26.675 18.3335 25.8729 18.4251 25.0708 18.6085L29.8146 23.3522C31.7396 24.0397 33.2521 25.5522 33.9396 27.4543Z" fill="#E9E9E9"/>
</svg>
