<svg width="8" height="8" viewBox="0 0 8 8" fill="none" xmlns="http://www.w3.org/2000/svg">
<path d="M3.62326 5.57L1.22526 2.829C0.942261 2.5065 1.17226 2 1.60176 2H6.39776C6.49388 1.99992 6.58799 2.02754 6.66882 2.07957C6.74964 2.1316 6.81376 2.20582 6.85349 2.29335C6.89321 2.38087 6.90687 2.478 6.89282 2.57309C6.87877 2.66818 6.83761 2.7572 6.77426 2.8295L4.37626 5.5695C4.32933 5.62321 4.27145 5.66625 4.20652 5.69574C4.14158 5.72523 4.07108 5.74049 3.99976 5.74049C3.92844 5.74049 3.85794 5.72523 3.79301 5.69574C3.72807 5.66625 3.67019 5.62321 3.62326 5.5695V5.57Z" fill="#6D6D71"/>
</svg>
