<?xml version="1.0" encoding="utf-8"?>
<!-- Generator: Adobe Illustrator 24.1.1, SVG Export Plug-In . SVG Version: 6.00 Build 0)  -->
<svg version="1.1" id="Слой_1" xmlns="http://www.w3.org/2000/svg" xmlns:xlink="http://www.w3.org/1999/xlink" x="0px" y="0px"
	 viewBox="0 0 24 24" style="enable-background:new 0 0 24 24;" xml:space="preserve">
<g>
	<path d="M11.1,14.9c0,0-0.1,0-0.2,0.1c-0.4,0.4-0.8,0.8-1.3,1.1c-1,0.6-2.2,1-3.4,1.2c-0.3,0.1-0.5,0.2-0.6,0.5
		c0,0.3,0.1,0.5,0.4,0.7c0.9,0.5,1.8,0.9,2.7,1.4c0.3,0.1,0.6,0.2,0.9,0.3c0.2,0.1,0.5,0,0.7,0.1c0,0.3,0.1,0.5,0.4,0.7
		c0.9,0.5,1.8,0.9,2.7,1.4c0.1,0,0.2,0,0.3,0c0.1-0.1,0.2-0.1,0.3-0.2c1.1-1,2.1-2.2,3-3.4c0.1-0.1,0.2-0.3,0.3-0.4c0,0,0,0,0,0
		C15.2,17,13.2,16,11.1,14.9z"/>
	<path d="M21.7,2.9c0.2-0.5,0.2-0.7-0.3-1c-0.1,0-0.2,0-0.3,0c-0.2,0.1-0.4,0.3-0.5,0.5c-1.7,3.5-3.5,7-5.2,10.5
		c0,0.1-0.1,0.1-0.1,0.2c-0.3-0.2-0.6-0.3-0.9-0.5c-1.1-0.6-2.3-0.1-2.8,1.3c2.1,1.1,4.2,2.1,6.4,3.2c0.1-0.2,0.2-0.4,0.3-0.6
		c0.4-0.9,0-1.8-0.8-2.3c-0.3-0.1-0.5-0.3-0.8-0.4c-0.1-0.1-0.2-0.1-0.3-0.2c0-0.1,0.1-0.2,0.1-0.2C18.2,9.8,20,6.4,21.7,2.9z"/>
	<path d="M6.2,21c-0.7,0-1.5,0-2.2,0c-0.4,0-0.6-0.2-0.7-0.6c0-0.3-0.3-0.6-0.6-0.6c-0.3,0-0.6,0.3-0.6,0.6c0,0.6,0.2,1,0.7,1.4
		c0.2,0.2,0.6,0.3,0.8,0.4c0.9,0,1.9,0,2.8,0c0,0,0,0,0,0C6.8,22,7,21.7,6.9,21.4C6.8,21.1,6.6,21,6.2,21z"/>
	<path d="M8.7,21c-0.3,0-0.5,0.2-0.6,0.5c-0.1,0.3,0.1,0.5,0.3,0.7c0,0,0.1,0.1,0.1,0.1c0.1,0,0.2,0,0.3,0c0,0,0.1-0.1,0.1-0.1
		c0.2-0.1,0.4-0.4,0.3-0.7C9.2,21.1,9,21,8.7,21z"/>
	<path d="M2.8,18.6c0.3,0,0.6-0.3,0.6-0.6c0-0.3-0.3-0.6-0.6-0.6c-0.3,0-0.6,0.3-0.6,0.6C2.2,18.3,2.4,18.6,2.8,18.6z"/>
	<path d="M5.1,19.8c0.3,0,0.6-0.3,0.6-0.6c0-0.3-0.3-0.6-0.6-0.6c-0.3,0-0.6,0.3-0.6,0.6C4.5,19.5,4.8,19.8,5.1,19.8z"/>
</g>
</svg>
