<?xml version="1.0" encoding="utf-8"?>
<!-- Generator: Adobe Illustrator 24.1.1, SVG Export Plug-In . SVG Version: 6.00 Build 0)  -->
<svg version="1.1" id="Слой_1" xmlns="http://www.w3.org/2000/svg" xmlns:xlink="http://www.w3.org/1999/xlink" x="0px" y="0px"
	 viewBox="0 0 24 24" style="enable-background:new 0 0 24 24;" xml:space="preserve">
<g>
	<path d="M22.4,2.4c0-0.6-0.3-0.9-0.9-0.9c-2.6,0-5.3,0-7.9,0c-0.3,0-0.5,0.1-0.7,0.3c-0.5,0.5-1,1-1.5,1.5
		c-0.1,0.1-0.1,0.1-0.2,0.2C9,1.8,5.9,2.1,4,4c-1.9,1.9-2.3,5-0.5,7.4c-0.4,0.4-0.7,0.7-1.1,1.1c-1.1,1.1-1.1,2.9,0,4
		c1.7,1.7,3.4,3.4,5.1,5.1c1.2,1.2,2.9,1.2,4.1,0c3.5-3.5,7-7,10.5-10.5c0.2-0.2,0.3-0.4,0.3-0.7C22.4,7.7,22.5,5.1,22.4,2.4z M8,4
		c2.2,0,4,1.8,4,4c0,2.2-1.8,4-4.1,4c-2.2,0-4-1.8-4-4C3.9,5.8,5.8,4,8,4z M20.8,9.9c0,0.1-0.1,0.3-0.1,0.3
		c-3.4,3.4-6.8,6.8-10.2,10.2c-0.6,0.6-1.3,0.6-1.9,0c-1.7-1.7-3.3-3.3-5-5c-0.6-0.6-0.6-1.3,0-1.8c0.3-0.3,0.7-0.7,1-1
		c2.5,1.8,5.6,1.3,7.4-0.5c1.8-1.8,2.3-4.9,0.5-7.4c0.5-0.5,0.9-0.9,1.4-1.4c0,0,0.1-0.1,0.2-0.1c2.2,0,4.5,0,6.7,0c0,0,0,0,0.1,0
		c0,0.1,0,0.1,0,0.2C20.8,5.6,20.8,7.7,20.8,9.9z"/>
	<path d="M18.4,4.8c-0.4,0-0.8,0.4-0.8,0.8c0,0.4,0.4,0.8,0.8,0.8c0.4,0,0.8-0.4,0.8-0.8C19.2,5.1,18.9,4.8,18.4,4.8z"/>
	<path d="M6.8,9.6C7.2,10,7.7,10,8,9.6c0.7-0.7,1.4-1.4,2.1-2.1c0.2-0.2,0.3-0.4,0.2-0.7c0-0.3-0.2-0.6-0.5-0.7C9.5,6,9.2,6.1,9,6.4
		c-0.5,0.5-1,1-1.6,1.6C7.2,7.8,7.1,7.6,6.9,7.4c-0.3-0.3-0.8-0.3-1.1,0c-0.3,0.3-0.3,0.8,0,1.2C6.2,8.9,6.5,9.3,6.8,9.6z"/>
</g>
</svg>
