<svg width="120" height="120" viewBox="0 0 120 120" fill="none" xmlns="http://www.w3.org/2000/svg">
<path d="M96.4 35C96.8 26.7 92.9 22 84.7 22C76.5 22 71.8 26.7 70.7 34.9H30.2C29 34.9 27.9 35.4 27.1 36.2C26.3 37 25.8 38.1 25.8 39.3V81.1C25.8 83.6 27.8 85.6 30.3 85.6H32.2V94.6C32.2 95.3 32.4 96.1 32.9 96.7C33.6 97.6 34.6 98.1 35.6 98.1C36.3 98.1 37 97.9 37.7 97.4L52.9 85.7H95.5C98 85.7 100 83.7 100 81.2V39.3C99.9 37.2 98.4 35.4 96.4 35ZM83.8 29.9C86.4 29.9 87.9 31.3 87.7 34.8H79C79.4 31.3 81.1 29.9 83.8 29.9ZM98.9 81.1C98.9 83 97.3 84.6 95.4 84.6H52.4L37 96.5C35.9 97.3 34.4 97.1 33.6 96C33.3 95.6 33.1 95.1 33.1 94.5V84.5H30.2C28.3 84.5 26.7 82.9 26.7 81V39.3C26.7 38.4 27.1 37.5 27.7 36.9C28.3 36.3 29.2 35.9 30.2 35.9H70.6V36L70.5 37C70.5 37.1 70.5 37.2 70.5 37.4C70.5 39.7 72.3 41.5 74.6 41.5C76.7 41.5 78.5 39.9 78.7 37.7L78.9 35.8H87.7C86.3 49.3 76.9 50.5 75.8 62.5C75.8 62.6 75.8 62.7 75.8 62.7C75.8 64.4 77.2 65.8 79 65.8H80.6C82.3 65.8 83.7 64.5 83.8 62.8C83.8 62.8 83.8 62.7 83.8 62.6C84.6 52.7 95.1 50.4 96.4 36C97.9 36.4 98.9 37.7 98.9 39.3V81.1Z" fill="#159BBA"/>
<path d="M59.3 29.5H51.1V30.5H59.3V29.5Z" fill="#159BBA"/>
<path d="M27 30.5H45.3V29.5H27C23.2 29.5 20.1 32.6 20.1 36.4V41.3H21.1V36.4C21.1 33.1 23.7 30.5 27 30.5Z" fill="#159BBA"/>
<path d="M79 69.8999C76.8 69.8999 75 71.5999 74.8 73.6999C74.8 73.7999 74.8 73.9999 74.8 74.0999C74.8 76.3999 76.7 78.2999 79 78.2999C81.2 78.2999 83 76.5999 83.2 74.4999C83.2 74.3999 83.2 74.2999 83.2 74.1999C83.2 71.7999 81.3 69.8999 79 69.8999Z" fill="#159BBA"/>
<path d="M67.6 52.2002H44.6C43.5 52.2002 42.6 53.1002 42.6 54.2002C42.6 55.3002 43.5 56.2002 44.6 56.2002H67.6C68.7 56.2002 69.6 55.3002 69.6 54.2002C69.6 53.1002 68.7 52.2002 67.6 52.2002Z" fill="#159BBA"/>
<path d="M64.4 60.1001H44.6C43.5 60.1001 42.6 61.0001 42.6 62.1001C42.6 63.2001 43.5 64.1001 44.6 64.1001H64.4C65.5 64.1001 66.4 63.2001 66.4 62.1001C66.4 61.0001 65.5 60.1001 64.4 60.1001Z" fill="#159BBA"/>
<path d="M61.2 68H44.6C43.5 68 42.6 68.9 42.6 70C42.6 71.1 43.5 72 44.6 72H61.2C62.3 72 63.2 71.1 63.2 70C63.2 68.9 62.3 68 61.2 68Z" fill="#159BBA"/>
</svg>
