<?xml version="1.0" encoding="utf-8"?>
<!-- Generator: Adobe Illustrator 24.1.1, SVG Export Plug-In . SVG Version: 6.00 Build 0)  -->
<svg version="1.1" id="Слой_1" xmlns="http://www.w3.org/2000/svg" xmlns:xlink="http://www.w3.org/1999/xlink" x="0px" y="0px"
	 viewBox="0 0 600 600" style="enable-background:new 0 0 600 600;" xml:space="preserve">
<style type="text/css">
	.st0{fill:#29292C;}
	.st1{fill:#159BBA;}
	.st2{fill:#38B9CE;}
	.st3{fill:#515154;}
	.st4{fill:#0B7D98;}
	.st5{fill:none;stroke:#DEEBFF;stroke-linecap:round;stroke-linejoin:round;stroke-miterlimit:10;}
	.st6{fill:#DEEBFF;}
	.st7{fill:#86EFFA;}
	.st8{fill:#FFEABB;}
	.st9{fill:#F6F8F9;}
	.st10{fill:#CE9238;}
	.st11{fill:#DDA95B;}
	.st12{fill:#5BD1DD;}
	.st13{fill:#FAD986;}
</style>
<g id="Layer_19">
	<g>
		<path class="st0" d="M268.7,142.9c0,0,0-0.2-0.1-0.7c-0.3-3.1-2.8-16-20.7-22.5c-20.4-7.4-37,9.9-38.3,25.4
			c-1.1,12.7-12.1,11.7-26.2,10.9c-14.1-0.8-31.1,10.7-27,30.4c4.1,19.7,58.9,50.4,70.8,35.1s7-34.7,15.1-47.7L268.7,142.9z"/>
	</g>
</g>
<path class="st1" d="M222.2,241.3c8,24.2,23.3,66.8,38.6,68.3c11.2,1.1,40.6-21.1,55.4-33c5.4-4.3,8.8-7.3,8.8-7.3
	c-2.2-8.6-12.2-17.7-12.2-17.7l-10.8,3.2l-30.1,8.9c-4.9-25.1-18.7-67.5-26.9-75.5C245.1,188.2,214.2,217.1,222.2,241.3z"/>
<path class="st2" d="M262.1,294.4c-0.1,0-0.1,0-0.2,0c-0.3-0.1-0.4-0.4-0.3-0.6c2.5-7.8,9.3-27.4,9.4-27.6c0.1-0.3,0.4-0.4,0.6-0.3
	c0.3,0.1,0.4,0.4,0.3,0.6c-0.1,0.2-6.9,19.8-9.4,27.5C262.5,294.3,262.3,294.4,262.1,294.4z"/>
<path class="st3" d="M302.1,254.9l14.1,21.7c5.4-4.3,8.8-7.3,8.8-7.3c-2.2-8.6-12.2-17.7-12.2-17.7L302.1,254.9z"/>
<path class="st4" d="M83.1,379.2L58.8,523.4c-0.5,3.2,1.9,6.2,5.2,6.2h0c2.4,0,4.4-1.6,5.1-3.8L112,379.2H83.1z"/>
<path class="st0" d="M135,379.2l-24.3,144.2c-0.5,3.2,1.9,6.2,5.2,6.2h0c2.4,0,4.4-1.6,5.1-3.8l42.8-146.6H135z"/>
<path class="st0" d="M253.9,379.2l24.3,144.2c0.5,3.2-1.9,6.2-5.2,6.2h0c-2.4,0-4.4-1.6-5.1-3.8L225,379.2H253.9z"/>
<path class="st4" d="M202,379.2l24.3,144.2c0.5,3.2-1.9,6.2-5.2,6.2h0c-2.4,0-4.4-1.6-5.1-3.8l-42.8-146.6H202z"/>
<path class="st0" d="M220.7,370.2H69.8v-181h97.4c7.4,0,13.4,6,13.4,13.4v131.5c0,14.7,9.8,27.6,24,31.6L220.7,370.2z"/>
<path class="st3" d="M84.2,203.5c-0.3-15.6-22-19.9-27.8-5.4c-11.3,27.8-6.4,78.2-6.4,115.5c0,54.2,10.8,80.7,75.9,80.7
	c0,0,58.4,0,82.5,0s21.7-30.1,1.2-30.1s-83.7,0-98.8,0s-24.7-12.6-24.7-43.4C86.1,299.5,84.9,238.7,84.2,203.5z"/>
<path class="st0" d="M259.1,394.3h-84.5c-6.6,0-11.9-5.3-11.9-11.9V376c0-6.6,5.3-11.9,11.9-11.9h84.5c6.6,0,11.9,5.3,11.9,11.9v6.3
	C271,388.9,265.6,394.3,259.1,394.3z"/>
<path class="st0" d="M259.4,458.1h27.2c0,0,0,30.7,25.3,47.3c16.2,10.6,11.2,24.2,11.2,24.2h-39l-16.7-18.7l-0.7,18.7h-12.1
	C253.5,500.6,259.4,458.1,259.4,458.1z"/>
<path class="st3" d="M277.2,522.3c-0.1,0-0.3-0.1-0.4-0.2l-8.9-10l-0.4,9.2c0,0.3-0.2,0.5-0.5,0.5c-0.3,0-0.5-0.2-0.5-0.5l0.4-10.5
	c0-0.2,0.1-0.4,0.3-0.5c0.2-0.1,0.4,0,0.5,0.1l9.7,10.9c0.2,0.2,0.2,0.5,0,0.7C277.4,522.3,277.3,522.3,277.2,522.3z"/>
<path class="st5" d="M277.2,521.8"/>
<path class="st3" d="M256.6,483.8C256.6,483.8,256.5,483.8,256.6,483.8c-0.3,0-0.5-0.3-0.5-0.5c1.3-14.3,2.8-25.1,2.8-25.2
	c0-0.2,0.2-0.4,0.5-0.4h27.2c0.3,0,0.5,0.2,0.5,0.5s-0.2,0.5-0.5,0.5h-26.8c-0.3,2.2-1.6,12.1-2.7,24.7
	C257,483.6,256.8,483.8,256.6,483.8z"/>
<g>
	<g>
		<g>
			<path class="st4" d="M204.7,360.7c5.2,2.1,12.5,3.1,19.6,3.6l27.8,0.1l-17.7,114.5h71c0,0,6.2-120.4,8.5-137.8
				c2.3-17.4-9.4-28.1-30.4-30.2c-8.3-0.8-32.2-1.9-44.8-2.8l-20-35l-52.9,17.2C165.9,290.2,163.6,348.2,204.7,360.7z"/>
		</g>
	</g>
</g>
<g>
	<g>
		<path class="st1" d="M253.2,465.5C253.2,465.5,253.2,465.5,253.2,465.5c-0.3,0-0.5-0.3-0.5-0.6l17.7-127.1l-88.1-6.4
			c-0.3,0-0.5-0.3-0.5-0.5c0-0.3,0.3-0.5,0.5-0.5l88.6,6.5c0.1,0,0.3,0.1,0.4,0.2s0.1,0.2,0.1,0.4L253.7,465
			C253.7,465.3,253.5,465.5,253.2,465.5z"/>
	</g>
	<g>
		<path class="st1" d="M297.4,468.2h-56.7c-0.3,0-0.5-0.2-0.5-0.5s0.2-0.5,0.5-0.5h56.7c0.3,0,0.5,0.2,0.5,0.5
			S297.6,468.2,297.4,468.2z"/>
	</g>
</g>
<g>
	<path class="st6" d="M180.3,321.3c-0.1,0-0.2,0-0.3-0.1c-0.2-0.2-0.2-0.5,0-0.7l2.4-2.6c2.2-2.3,3-5.7,2.1-8.8l-6.5-22.2
		c-0.1-0.3,0.1-0.5,0.3-0.6c0.3-0.1,0.5,0.1,0.6,0.3l6.5,22.2c1,3.4,0.1,7.1-2.3,9.7l-2.4,2.6C180.6,321.2,180.5,321.3,180.3,321.3z
		"/>
</g>
<path class="st0" d="M171.1,458.1H197c0,0,1.2,37,13.6,47.3s8.4,24.2,8.4,24.2h-34.1l-5-18.7l-0.5,18.7h-11.7
	C166.7,500.6,171.1,458.1,171.1,458.1z"/>
<g>
	<g>
		<path class="st4" d="M142.4,360.7c5.2,2.1,12.5,3.1,19.6,3.6l16.8,0.1l-17.7,114.5h71c0,0,6.2-120.4,8.5-137.8
			c2.3-17.4-9.4-28.1-30.4-30.2c-8.3-0.8-21.3-1.9-33.8-2.8l-6-17.9l-61.4,1.5C109,291.7,101.3,348.2,142.4,360.7z"/>
	</g>
</g>
<g>
	<g>
		<path class="st1" d="M239,361.6C239,361.6,238.9,361.6,239,361.6c-0.3,0-0.5-0.3-0.5-0.5c0.7-10.2,1.3-16.9,1.7-20.1
			c1-7.3-0.5-13.4-4.4-18.3c-5-6.3-13.8-10.2-25.6-11.3c-0.3,0-0.5-0.3-0.4-0.5c0-0.3,0.3-0.5,0.5-0.4c12,1.2,21.1,5.2,26.2,11.7
			c4,5.1,5.6,11.5,4.6,19c-0.4,3.1-1,9.9-1.7,20C239.4,361.4,239.2,361.6,239,361.6z"/>
	</g>
</g>
<g>
	<path class="st1" d="M132,313.9c-0.2,0-0.4-0.1-0.5-0.3c-0.1-0.3,0-0.5,0.3-0.6c14.5-5,8.3-24.7,8.2-24.9c-0.1-0.3,0.1-0.5,0.3-0.6
		c0.3-0.1,0.5,0.1,0.6,0.3c0.1,0.2,6.6,20.9-8.8,26.1C132.1,313.9,132.1,313.9,132,313.9z"/>
</g>
<g>
	<path class="st1" d="M148.7,316.9c-0.1,0-0.3-0.1-0.4-0.2c-0.2-0.2-0.1-0.5,0.1-0.7c7.6-5.9,25.8-7.7,26.5-7.8
		c0.3,0,0.5,0.2,0.5,0.5c0,0.3-0.2,0.5-0.4,0.5c-0.2,0-18.6,1.9-26,7.6C148.9,316.8,148.8,316.9,148.7,316.9z"/>
</g>
<g>
	<path class="st1" d="M180,465.5C179.9,465.5,179.9,465.5,180,465.5c-0.3,0-0.5-0.3-0.5-0.6l17.7-127.1l-61.8-6.4
		c-0.2,0-0.4-0.2-0.4-0.4l-8.4-43c-0.1-0.3,0.1-0.5,0.4-0.6c0.3-0.1,0.5,0.1,0.6,0.4l8.3,42.6l62,6.4c0.1,0,0.3,0.1,0.3,0.2
		c0.1,0.1,0.1,0.2,0.1,0.4L180.5,465C180.4,465.3,180.2,465.5,180,465.5z"/>
</g>
<g>
	<path class="st1" d="M224.1,468.2h-56.7c-0.3,0-0.5-0.2-0.5-0.5s0.2-0.5,0.5-0.5h56.7c0.3,0,0.5,0.2,0.5,0.5
		S224.4,468.2,224.1,468.2z"/>
</g>
<g>
	<path class="st1" d="M218.7,479.3h-16.5c-0.3,0-0.5-0.2-0.5-0.5s0.2-0.5,0.5-0.5h16.5c0.3,0,0.5,0.2,0.5,0.5S219,479.3,218.7,479.3
		z"/>
</g>
<g>
	<path class="st1" d="M103.6,298.9c20.9-101.6,68.7-125.5,68.7-125.5s29.5-11.6,44.3-6.4c27.4,9.7,30.2,25.6,30.2,25.6
		s6.6,24,2.6,33.6c-4.1,9.6-24.4,34.6-24.4,34.6c0.3,14.7,6.2,30.2,14.3,46.2C239.2,307,169.3,328.5,103.6,298.9z"/>
</g>
<path class="st2" d="M222.7,195.8c-2.8,0-6-0.4-9.8-1.6c-7.3-2.2-11.4-6.5-13.5-9.6c-0.2-0.2-0.1-0.5,0.1-0.7
	c0.2-0.2,0.5-0.1,0.7,0.1c2,3,6,7.1,13,9.2c12.7,3.9,19.5-0.9,20.2-1.4l6.2-9.3c0.2-0.2,0.5-0.3,0.7-0.1c0.2,0.2,0.3,0.5,0.1,0.7
	l-6.2,9.4c0,0-0.1,0.1-0.1,0.1C233.8,192.8,230.1,195.8,222.7,195.8z"/>
<path class="st1" d="M230.4,165.1c-17.5-9.1-28.5-6.4-31.4-2s3.6,18.7,23.4,23.3C242.2,191,249.3,175,230.4,165.1z"/>
<path class="st2" d="M229,187.7c-2,0-4.3-0.3-6.8-0.8c-13.6-3.2-21.1-10.8-23.6-17c-1.2-2.9-1.2-5.5-0.1-7.1
	c0.2-0.2,0.5-0.3,0.7-0.1c0.2,0.2,0.3,0.5,0.1,0.7c-0.9,1.3-0.8,3.6,0.2,6.1c2.4,5.9,9.6,13.3,22.9,16.4c10.4,2.4,16.6-0.9,18.1-5.3
	c0.1-0.3,0.4-0.4,0.6-0.3c0.3,0.1,0.4,0.4,0.3,0.6C240.2,184.6,236,187.7,229,187.7z"/>
<g>
	<path class="st2" d="M186.1,306.7c-41,0-73.8-12.1-74.3-12.3c-0.3-0.1-0.4-0.4-0.3-0.6c0.1-0.3,0.4-0.4,0.6-0.3
		c0.6,0.2,60.1,22.2,118.9,6.7c0.3-0.1,0.5,0.1,0.6,0.4c0.1,0.3-0.1,0.5-0.4,0.6C215.9,305.2,200.5,306.7,186.1,306.7z"/>
</g>
<g>
	<path class="st2" d="M226.9,258.6c-0.1,0-0.2,0-0.3-0.1c-0.2-0.2-0.3-0.5-0.1-0.7c1.2-1.6,2.9-3.9,5-6.5c6.3-8.2,15-19.5,17.4-25.2
		c4-9.3-2.5-33.1-2.6-33.3c-0.1-0.3,0.1-0.5,0.3-0.6c0.3-0.1,0.5,0.1,0.6,0.3c0.3,1,6.6,24.3,2.5,34c-2.5,5.9-11.2,17.2-17.5,25.4
		c-2,2.6-3.8,4.9-4.9,6.5C227.2,258.5,227,258.6,226.9,258.6z"/>
</g>
<g id="Layer_13">
	<g>
		<g>
			<g>
				<path class="st7" d="M92.5,39.8c-0.3,0-0.5-0.2-0.5-0.5V34c0-0.3,0.2-0.5,0.5-0.5S93,33.8,93,34v5.3
					C93,39.6,92.8,39.8,92.5,39.8z"/>
			</g>
			<g>
				<path class="st7" d="M92.5,50.8c-0.3,0-0.5-0.2-0.5-0.5V45c0-0.3,0.2-0.5,0.5-0.5S93,44.7,93,45v5.3
					C93,50.5,92.8,50.8,92.5,50.8z"/>
			</g>
			<g>
				<path class="st7" d="M100.6,42.7h-5.3c-0.3,0-0.5-0.2-0.5-0.5s0.2-0.5,0.5-0.5h5.3c0.3,0,0.5,0.2,0.5,0.5S100.9,42.7,100.6,42.7
					z"/>
			</g>
			<g>
				<path class="st7" d="M89.7,42.7h-5.3c-0.3,0-0.5-0.2-0.5-0.5s0.2-0.5,0.5-0.5h5.3c0.3,0,0.5,0.2,0.5,0.5S89.9,42.7,89.7,42.7z"
					/>
			</g>
		</g>
		<g>
			<g>
				<path class="st7" d="M165.9,100.1c-0.3,0-0.5-0.2-0.5-0.5v-4.4c0-0.3,0.2-0.5,0.5-0.5s0.5,0.2,0.5,0.5v4.4
					C166.4,99.9,166.1,100.1,165.9,100.1z"/>
			</g>
			<g>
				<path class="st7" d="M165.9,109.3c-0.3,0-0.5-0.2-0.5-0.5v-4.4c0-0.3,0.2-0.5,0.5-0.5s0.5,0.2,0.5,0.5v4.4
					C166.4,109,166.1,109.3,165.9,109.3z"/>
			</g>
			<g>
				<path class="st7" d="M172.6,102.5h-4.4c-0.3,0-0.5-0.2-0.5-0.5s0.2-0.5,0.5-0.5h4.4c0.3,0,0.5,0.2,0.5,0.5
					S172.9,102.5,172.6,102.5z"/>
			</g>
			<g>
				<path class="st7" d="M163.5,102.5h-4.4c-0.3,0-0.5-0.2-0.5-0.5s0.2-0.5,0.5-0.5h4.4c0.3,0,0.5,0.2,0.5,0.5
					S163.8,102.5,163.5,102.5z"/>
			</g>
		</g>
		<g>
			<g>
				<path class="st7" d="M422.1,180.9c-0.3,0-0.5-0.2-0.5-0.5V176c0-0.3,0.2-0.5,0.5-0.5s0.5,0.2,0.5,0.5v4.4
					C422.6,180.7,422.4,180.9,422.1,180.9z"/>
			</g>
			<g>
				<path class="st7" d="M422.1,190.1c-0.3,0-0.5-0.2-0.5-0.5v-4.4c0-0.3,0.2-0.5,0.5-0.5s0.5,0.2,0.5,0.5v4.4
					C422.6,189.8,422.4,190.1,422.1,190.1z"/>
			</g>
			<g>
				<path class="st7" d="M428.9,183.3h-4.4c-0.3,0-0.5-0.2-0.5-0.5s0.2-0.5,0.5-0.5h4.4c0.3,0,0.5,0.2,0.5,0.5
					S429.2,183.3,428.9,183.3z"/>
			</g>
			<g>
				<path class="st7" d="M419.8,183.3h-4.4c-0.3,0-0.5-0.2-0.5-0.5s0.2-0.5,0.5-0.5h4.4c0.3,0,0.5,0.2,0.5,0.5
					S420,183.3,419.8,183.3z"/>
			</g>
		</g>
		<g>
			<g>
				<path class="st7" d="M350.3,439.2c-0.3,0-0.5-0.2-0.5-0.5v-3c0-0.3,0.2-0.5,0.5-0.5s0.5,0.2,0.5,0.5v3
					C350.8,439,350.6,439.2,350.3,439.2z"/>
			</g>
			<g>
				<path class="st7" d="M350.3,445.4c-0.3,0-0.5-0.2-0.5-0.5v-3c0-0.3,0.2-0.5,0.5-0.5s0.5,0.2,0.5,0.5v3
					C350.8,445.1,350.6,445.4,350.3,445.4z"/>
			</g>
			<g>
				<path class="st7" d="M354.9,440.8h-3c-0.3,0-0.5-0.2-0.5-0.5s0.2-0.5,0.5-0.5h3c0.3,0,0.5,0.2,0.5,0.5S355.1,440.8,354.9,440.8z
					"/>
			</g>
			<g>
				<path class="st7" d="M348.7,440.8h-3c-0.3,0-0.5-0.2-0.5-0.5s0.2-0.5,0.5-0.5h3c0.3,0,0.5,0.2,0.5,0.5S349,440.8,348.7,440.8z"
					/>
			</g>
		</g>
		<g>
			<g>
				<path class="st7" d="M519.7,58.6c-0.3,0-0.5-0.2-0.5-0.5v-5.5c0-0.3,0.2-0.5,0.5-0.5s0.5,0.2,0.5,0.5v5.5
					C520.2,58.3,520,58.6,519.7,58.6z"/>
			</g>
			<g>
				<path class="st7" d="M519.7,70c-0.3,0-0.5-0.2-0.5-0.5V64c0-0.3,0.2-0.5,0.5-0.5s0.5,0.2,0.5,0.5v5.5
					C520.2,69.8,520,70,519.7,70z"/>
			</g>
			<g>
				<path class="st7" d="M528.2,61.5h-5.5c-0.3,0-0.5-0.2-0.5-0.5s0.2-0.5,0.5-0.5h5.5c0.3,0,0.5,0.2,0.5,0.5S528.5,61.5,528.2,61.5
					z"/>
			</g>
			<g>
				<path class="st7" d="M516.7,61.5h-5.5c-0.3,0-0.5-0.2-0.5-0.5s0.2-0.5,0.5-0.5h5.5c0.3,0,0.5,0.2,0.5,0.5S517,61.5,516.7,61.5z"
					/>
			</g>
		</g>
		<g>
			<path class="st7" d="M56.8,156.1c-2.7,0-4.9-2.2-4.9-4.9c0-2.7,2.2-4.9,4.9-4.9c2.7,0,4.9,2.2,4.9,4.9
				C61.7,153.9,59.5,156.1,56.8,156.1z M56.8,147.3c-2.1,0-3.9,1.7-3.9,3.9c0,2.1,1.7,3.9,3.9,3.9c2.1,0,3.9-1.7,3.9-3.9
				C60.7,149,58.9,147.3,56.8,147.3z"/>
		</g>
		<g>
			<path class="st7" d="M439.1,347.4c-2.7,0-4.9-2.2-4.9-4.9s2.2-4.9,4.9-4.9s4.9,2.2,4.9,4.9S441.8,347.4,439.1,347.4z
				 M439.1,338.6c-2.1,0-3.9,1.7-3.9,3.9c0,2.1,1.7,3.9,3.9,3.9s3.9-1.7,3.9-3.9C443,340.4,441.3,338.6,439.1,338.6z"/>
		</g>
		<g>
			<circle class="st7" cx="87" cy="100.9" r="3.1"/>
		</g>
		<g>
			<circle class="st7" cx="342.6" cy="379.2" r="7"/>
		</g>
		<g>
			<circle class="st7" cx="494.2" cy="116.7" r="5.3"/>
		</g>
	</g>
</g>
<g id="Layer_12">
	<g>
		<g>
			<g>
				<g>
					<path class="st4" d="M551.1,530.1H438.9c-0.3,0-0.5-0.2-0.5-0.5s0.2-0.5,0.5-0.5h112.2c0.3,0,0.5,0.2,0.5,0.5
						S551.4,530.1,551.1,530.1z"/>
				</g>
				<g>
					<path class="st4" d="M412,530.1H60.1c-0.3,0-0.5-0.2-0.5-0.5s0.2-0.5,0.5-0.5H412c0.3,0,0.5,0.2,0.5,0.5S412.2,530.1,412,530.1
						z"/>
				</g>
			</g>
			<g>
				<g>
					<path class="st4" d="M171.6,549.4h-56.1c-0.3,0-0.5-0.2-0.5-0.5s0.2-0.5,0.5-0.5h56.1c0.3,0,0.5,0.2,0.5,0.5
						S171.9,549.4,171.6,549.4z"/>
				</g>
				<g>
					<path class="st4" d="M511.8,549.4H189.9c-0.3,0-0.5-0.2-0.5-0.5s0.2-0.5,0.5-0.5h321.9c0.3,0,0.5,0.2,0.5,0.5
						S512.1,549.4,511.8,549.4z"/>
				</g>
			</g>
			<g>
				<g>
					<path class="st4" d="M393.5,568.7h-38c-0.3,0-0.5-0.2-0.5-0.5s0.2-0.5,0.5-0.5h38c0.3,0,0.5,0.2,0.5,0.5
						S393.7,568.7,393.5,568.7z"/>
				</g>
				<g>
					<path class="st4" d="M342.9,568.7H172c-0.3,0-0.5-0.2-0.5-0.5s0.2-0.5,0.5-0.5h170.9c0.3,0,0.5,0.2,0.5,0.5
						S343.2,568.7,342.9,568.7z"/>
				</g>
			</g>
		</g>
	</g>
</g>
<g id="Layer_11">
	<g>
		<g>
			<path class="st8" d="M235.7,174.1l-9.3,4.3c-0.5,0-1.1,0-1.6,0c-8.1-0.4-12.4-4.4-14.1-6.4l17.1-10l5.9-3.4L235.7,174.1z"/>
		</g>
		<g>
			<path class="st0" d="M235.7,174.1l-9.3,4.3c-0.5,0-1.1,0-1.6,0c-3-6.2-0.2-12.2,3-16.4l5.9-3.4L235.7,174.1z"/>
		</g>
	</g>
</g>
<g id="Layer_10">
	<g>
		<g>
			<path class="st8" d="M249.7,137.9c-13.6,2.3-31.6,35.4-11.8,44.1C257.7,190.7,277.3,133.2,249.7,137.9z"/>
		</g>
		<g>
			<path class="st0" d="M227,161.8c0,0,7.3-8.6,14.4-13.1c0,0,9.6,11.9,21.3,11.7c11.8-0.2,24.4-18.3,16.9-25.3
				c-7.6-7-15.4,0.3-15.4,0.3S229.5,111.1,227,161.8z"/>
		</g>
		<g>
			<g>
				<path class="st8" d="M232.3,160.2c0,0,1.1-14-10-14.9c-11.2-0.9-8.4,21.8,8.6,20.4L232.3,160.2z"/>
			</g>
			<g>
				<g>
					<g>
						<path class="st0" d="M227.3,161.9c-0.3-0.1-0.5-0.3-0.5-0.7c0-0.1-0.4-8.3-6.2-11.3c-0.4-0.2-0.5-0.6-0.3-1
							c0.2-0.4,0.6-0.5,1-0.3c6.5,3.4,7,12.2,7,12.6c0,0.4-0.3,0.7-0.7,0.8C227.5,161.9,227.4,161.9,227.3,161.9z"/>
					</g>
				</g>
				<g>
					<g>
						<path class="st0" d="M222.2,158.7c-0.4-0.1-0.6-0.5-0.5-0.9c0-0.1,0.7-2.3,3.3-4.4c0.3-0.3,0.8-0.2,1,0.1
							c0.3,0.3,0.2,0.8-0.1,1c-2.2,1.8-2.9,3.7-2.9,3.7C223,158.6,222.6,158.8,222.2,158.7C222.2,158.7,222.2,158.7,222.2,158.7z"/>
					</g>
				</g>
			</g>
		</g>
	</g>
</g>
<g id="Layer_9">
	<g>
		<g>
			<path class="st0" d="M240.3,156.2c0,0,3.9-3.6,6.7-0.6c0,0,0.5-1,1.4-0.7c0.9,0.3-0.1,3.1-0.1,3.1S244.3,156.2,240.3,156.2z"/>
		</g>
		<g>
			<path class="st0" d="M258.4,165.8c0,0,1.5-4.6-1.6-4.4c0,0,0.3-0.9-0.3-1.2c-0.9-0.5-2.1,2-2.1,2S257.2,163.3,258.4,165.8z"/>
		</g>
		<g>
			<g>
				<ellipse transform="matrix(0.394 -0.9191 0.9191 0.394 -2.8442 322.3062)" class="st0" cx="243" cy="163.3" rx="2.5" ry="2"/>
			</g>
			<g>
				<circle class="st9" cx="243.8" cy="162.7" r="0.5"/>
			</g>
		</g>
		<g>
			<g>
				<ellipse transform="matrix(0.394 -0.9191 0.9191 0.394 -0.5449 335.0935)" class="st0" cx="253.8" cy="168" rx="2.5" ry="2"/>
			</g>
			<g>
				<circle class="st9" cx="254.6" cy="167.3" r="0.5"/>
			</g>
		</g>
		<g>
			<g>
				<path class="st0" d="M246.3,173.9c-0.6-0.2-1.1-0.5-1.4-0.7c-0.3-0.2-0.4-0.7-0.1-1c0.2-0.3,0.7-0.4,1-0.1c0,0,1.7,1.3,2.7,0.3
					c0.2-0.2,0.2-0.3,0.2-0.4c-0.1-0.4-1-1.1-1.6-1.3c-0.4-0.2-0.5-0.6-0.4-0.9l1.9-4.5c0.2-0.4,0.6-0.5,0.9-0.4
					c0.4,0.2,0.5,0.6,0.4,0.9l-1.6,3.8c0.7,0.4,1.7,1.1,1.8,2.1c0.1,0.4,0,1-0.6,1.7C248.6,174.3,247.4,174.3,246.3,173.9z"/>
			</g>
		</g>
		<g>
			<path class="st9" d="M244.7,178c0,0-6.2,1.2-7-6.1L244.7,178z"/>
		</g>
	</g>
</g>
<g>
	<path class="st8" d="M249.4,258.3l9-4.6l1.9-18.5c0.4-3.5,3.1-6.2,6.5-6.6l31.4-3.8c1.6-0.2,3,1.1,3,2.7l0,0c0,1.3-0.9,2.4-2.1,2.7
		l-13.4,2.9l2,15.6c0.3,2.6-1.1,5.1-3.5,6.2l-4.5,2l-0.2,0.9c-1.1,4.3-4.8,7.5-9.2,7.9l-1.9,0.2l-9.5,8.5L249.4,258.3z"/>
</g>
<g>
	<path class="st0" d="M272.5,235.1c-0.2,0-0.5-0.2-0.5-0.4c0-0.3,0.2-0.5,0.4-0.6l11.8-1.6c0.3,0,0.5,0.2,0.6,0.4
		c0,0.3-0.2,0.5-0.4,0.6L272.5,235.1C272.6,235.1,272.5,235.1,272.5,235.1z"/>
</g>
<g>
	<path class="st0" d="M273,241.9c-0.2,0-0.4-0.2-0.5-0.4c0-0.3,0.1-0.5,0.4-0.6l11.7-2c0.3,0,0.5,0.1,0.6,0.4c0,0.3-0.1,0.5-0.4,0.6
		L273,241.9C273.1,241.9,273.1,241.9,273,241.9z"/>
</g>
<g>
	<path class="st0" d="M274.3,247.8c-0.2,0-0.4-0.2-0.5-0.4c-0.1-0.3,0.1-0.5,0.4-0.6l11.3-2.2c0.3-0.1,0.5,0.1,0.6,0.4
		c0.1,0.3-0.1,0.5-0.4,0.6L274.3,247.8C274.4,247.8,274.4,247.8,274.3,247.8z"/>
</g>
<g>
	<path class="st1" d="M150.8,230c7.9,24.2,32.6,83,47.9,84.6c11.2,1.1,40.6-21.1,55.4-33c5.4-4.3,8.8-7.3,8.8-7.3
		c-2.2-8.6-12.2-17.7-12.2-17.7l-10.8,3.2l-30.1,8.9c-4.9-25.1-25.7-88.5-33.9-96.5C176,172.2,135,181.2,150.8,230z"/>
</g>
<g>
	<path class="st2" d="M210,269.2c-0.1,0-0.2,0-0.3-0.1c-0.1-0.1-0.2-0.2-0.2-0.3c-4-20.5-19.4-69-29.1-88.7c-0.1-0.2,0-0.5,0.2-0.7
		c0.2-0.1,0.5,0,0.7,0.2c9.7,19.5,24.9,67.5,29.1,88.4l27.7-8.1c0.3-0.1,0.5,0.1,0.6,0.3c0.1,0.3-0.1,0.5-0.3,0.6l-28.2,8.3
		C210,269.2,210,269.2,210,269.2z"/>
</g>
<g>
	<path class="st2" d="M199.6,315.1c-0.3,0-0.6,0-0.9,0c-16.1-1.6-41.4-63.7-48.3-84.9c-4.8-14.7-4.9-27.3-0.3-37.4
		c0.1-0.3,0.4-0.4,0.7-0.3c0.3,0.1,0.4,0.4,0.3,0.7c-4.4,9.9-4.3,22.2,0.4,36.7c7.9,24.2,32.7,82.7,47.5,84.2
		c10.5,1.1,37.3-18.8,52.4-30.8c0.2-0.2,0.5-0.1,0.7,0.1c0.2,0.2,0.1,0.5-0.1,0.7C237,295.8,210.9,315.1,199.6,315.1z"/>
</g>
<g>
	<path class="st2" d="M200.1,299.4c-0.1,0-0.1,0-0.2,0c-0.3-0.1-0.4-0.4-0.3-0.6c2.5-7.8,9.3-27.4,9.4-27.6c0.1-0.3,0.4-0.4,0.6-0.3
		c0.3,0.1,0.4,0.4,0.3,0.6c-0.1,0.2-6.9,19.8-9.4,27.5C200.5,299.3,200.3,299.4,200.1,299.4z"/>
</g>
<g>
	<path class="st3" d="M240.1,259.8l14.1,21.7c5.4-4.3,8.8-7.3,8.8-7.3c-2.2-8.6-12.2-17.7-12.2-17.7L240.1,259.8z"/>
</g>
<g id="Layer_7">
	<g>
		<g>
			<polygon class="st4" points="329.7,288.6 365.3,210.4 313.6,210.4 278,288.6 			"/>
		</g>
		<g>
			<path class="st0" d="M319.3,229.6l4.2-8.8c1.4-3-0.3-5.6-3.3-4.8l0,0c-1.6,0.4-3.2,1.7-4,3.3l-4.2,8.8c-1.4,3,0.3,5.6,3.3,4.8h0
				C317,232.5,318.5,231.2,319.3,229.6z"/>
		</g>
		<g>
			<polygon class="st6" points="359.5,204.6 365.3,210.4 313.6,210.4 307.8,204.6 			"/>
		</g>
		<g>
			<polygon class="st3" points="278,288.6 272.2,282.8 307.8,204.6 313.6,210.4 			"/>
		</g>
	</g>
</g>
<g id="Layer_6">
	<g>
		<g>
			<path class="st8" d="M347.8,235c-10.9-1.1-18.6,4.8-13.2,7.5c0,0-7.3,1.6-3.2,7.5c0,0-7.1,2.9-2.7,8.4c0,0-5.6,5,1.9,7.6
				c7.5,2.6,16.6,1.8,15.9-5c0,0,8.7-1.9,6.1-9.4c0,0,4.8-1.6,3.2-7.7C355.6,244,366,236.9,347.8,235z"/>
		</g>
		<g>
			<g>
				<path class="st0" d="M354,244.3c-0.1,0-0.2,0-0.3-0.1c-5.5-3.4-16.8-1.5-16.9-1.5c-0.3,0-0.5-0.1-0.6-0.4c0-0.3,0.1-0.5,0.4-0.6
					c0.5-0.1,11.8-2,17.6,1.6c0.2,0.1,0.3,0.5,0.2,0.7C354.3,244.2,354.1,244.3,354,244.3z"/>
			</g>
			<g>
				<path class="st0" d="M350.3,252.2c-0.1,0-0.1,0-0.2-0.1c-4.5-2.2-16-1.3-16.1-1.2c-0.3,0-0.5-0.2-0.5-0.5c0-0.3,0.2-0.5,0.5-0.5
					c0.5,0,12-1,16.7,1.3c0.2,0.1,0.4,0.4,0.2,0.7C350.6,252.1,350.5,252.2,350.3,252.2z"/>
			</g>
			<g>
				<path class="st0" d="M344.6,260.9c-0.1,0-0.2,0-0.3-0.1c-4.4-2.7-13.4-1.6-13.5-1.6c-0.3,0-0.5-0.2-0.6-0.4
					c0-0.3,0.2-0.5,0.4-0.6c0.4,0,9.4-1.2,14.1,1.7c0.2,0.1,0.3,0.5,0.2,0.7C344.9,260.8,344.7,260.9,344.6,260.9z"/>
			</g>
		</g>
	</g>
</g>
<g id="Layer_5">
	<g>
		<g>
			<path class="st3" d="M488.5,317.6H384.7c-4.5,0-8.2-3.7-8.2-8.2v-59.8c0-4.5,3.7-8.2,8.2-8.2h103.8c4.5,0,8.2,3.7,8.2,8.2v59.8
				C496.8,313.9,493.1,317.6,488.5,317.6z"/>
		</g>
		<g>
			<g>
				<g>
					<g>
						<path class="st9" d="M484,307h-35.2c-1.9,0-3.5-1.5-3.5-3.5v-35.2c0-1.9,1.5-3.5,3.5-3.5H484c1.9,0,3.5,1.5,3.5,3.5v35.2
							C487.4,305.4,485.9,307,484,307z"/>
					</g>
					<g>
						<path class="st9" d="M484.2,258.3h-35.7c-1.8,0-3.2-1.4-3.2-3.2v0c0-1.8,1.4-3.2,3.2-3.2h35.7c1.8,0,3.2,1.4,3.2,3.2v0
							C487.4,256.9,486,258.3,484.2,258.3z"/>
					</g>
				</g>
				<g>
					<g>
						<circle class="st9" cx="411.4" cy="263.8" r="12.6"/>
					</g>
					<g>
						<path class="st9" d="M436.9,307.7h-51.1c0-14.1,11.4-25.5,25.5-25.5C425.5,282.1,436.9,293.6,436.9,307.7z"/>
					</g>
				</g>
			</g>
		</g>
	</g>
</g>
<g id="Layer_4">
	<g>
		<g>
			<path class="st3" d="M536.3,217.6h-79c-3.8,0-6.8-3.1-6.8-6.8v-45.1c0-3.8,3.1-6.8,6.8-6.8h79c3.8,0,6.8,3.1,6.8,6.8v45.1
				C543.1,214.5,540.1,217.6,536.3,217.6z"/>
		</g>
		<g>
			<g>
				<g>
					<g>
						<path class="st9" d="M532.4,209.4H507c-1.9,0-3.5-1.5-3.5-3.5v-25.5c0-1.9,1.5-3.5,3.5-3.5h25.5c1.9,0,3.5,1.5,3.5,3.5V206
							C535.9,207.9,534.4,209.4,532.4,209.4z"/>
					</g>
					<g>
						<path class="st9" d="M533.4,171.9H506c-1.4,0-2.5-1.1-2.5-2.5l0,0c0-1.4,1.1-2.5,2.5-2.5h27.5c1.4,0,2.5,1.1,2.5,2.5l0,0
							C535.9,170.8,534.8,171.9,533.4,171.9z"/>
					</g>
				</g>
				<g>
					<g>
						<circle class="st9" cx="477.3" cy="176.1" r="9.7"/>
					</g>
					<g>
						<path class="st9" d="M497,209.9h-39.4c0-10.9,8.8-19.7,19.7-19.7C488.2,190.3,497,199.1,497,209.9z"/>
					</g>
				</g>
			</g>
		</g>
	</g>
</g>
<g>
	<path class="st2" d="M462.1,448.3c0,0-16-91.3,72.2-110.2C534.3,338.1,550.9,426.3,462.1,448.3z"/>
</g>
<g>
	<path class="st1" d="M468.5,439.1c-0.1,0-0.2,0-0.3-0.1c-0.2-0.2-0.3-0.5-0.1-0.7l59.4-90.8c0.2-0.2,0.5-0.3,0.7-0.1
		c0.2,0.2,0.3,0.5,0.1,0.7l-59.4,90.8C468.8,439,468.6,439.1,468.5,439.1z"/>
</g>
<path class="st10" d="M464.2,444.3c0,0,5.2-75.6-66.8-91.3C397.4,353.1,391.4,426.1,464.2,444.3z"/>
<path class="st11" d="M458.3,436.8c-0.2,0-0.3-0.1-0.4-0.2l-55-75.1c-0.2-0.2-0.1-0.5,0.1-0.7c0.2-0.2,0.5-0.1,0.7,0.1l55,75.1
	c0.2,0.2,0.1,0.5-0.1,0.7C458.5,436.7,458.4,436.8,458.3,436.8z"/>
<path class="st12" d="M519,490.2c-1.4,6.6-3.2,13.2-5.8,19.7c-2.8,7-6.3,13.7-10.9,19.7h-72c-12.2-16.1-17.2-37.1-19-55.1
	c-2.2-20.9,0-37.6,0-37.6h110.2C521.4,436.9,524.7,462.7,519,490.2z"/>
<path class="st7" d="M519,490.2c-1.4,6.6-3.2,13.2-5.8,19.7c-5.4-7.9-16.2-15.4-37.4-13c-28.4,3.2-51.8-6.7-64.5-22.3
	c-2.2-20.9,0-37.6,0-37.6h24.5c5.8,12,19.7,29.5,50.9,31.4C506.4,469.5,515.3,479.2,519,490.2z"/>
<path class="st7" d="M480.8,508.9c-23.2,3-16.7,19.6,4.7,14.5C504.3,518.9,493.6,507.3,480.8,508.9z"/>
<path class="st3" d="M450.2,144.5H321.1c-5.1,0-9.2-4.1-9.2-9.2V60.2c0-5.1,4.1-9.2,9.2-9.2h129.1c5.1,0,9.2,4.1,9.2,9.2v75.2
	C459.4,140.4,455.3,144.5,450.2,144.5z"/>
<g>
	<g>
		<g>
			<path class="st9" d="M444.5,131.5h-44.7c-1.9,0-3.5-1.5-3.5-3.5V83.4c0-1.9,1.5-3.5,3.5-3.5h44.7c1.9,0,3.5,1.5,3.5,3.5V128
				C447.9,130,446.4,131.5,444.5,131.5z"/>
		</g>
		<g>
			<path class="st9" d="M444.5,71.8h-44.7c-1.9,0-3.5-1.5-3.5-3.5v-0.9c0-1.9,1.5-3.5,3.5-3.5h44.7c1.9,0,3.5,1.5,3.5,3.5v0.9
				C447.9,70.3,446.4,71.8,444.5,71.8z"/>
		</g>
	</g>
	<g>
		<g>
			<circle class="st9" cx="354.7" cy="78.6" r="15.4"/>
		</g>
		<g>
			<path class="st9" d="M386,132.4h-62.6c0-17.3,14-31.3,31.3-31.3C372,101,386,115.1,386,132.4z"/>
		</g>
	</g>
</g>
<g>
	<path class="st13" d="M321.5,34l3.7,11.3h11.9c3.1,0,4.4,3.9,1.9,5.8l-9.6,7l3.7,11.3c1,2.9-2.4,5.4-4.9,3.6l-9.6-7l-9.6,7
		c-2.5,1.8-5.9-0.6-4.9-3.6l3.7-11.3l-9.6-7c-2.5-1.8-1.2-5.8,1.9-5.8h11.9l3.7-11.3C316.4,31.1,320.6,31.1,321.5,34z"/>
</g>
</svg>
