<?xml version="1.0" encoding="utf-8"?>
<!-- Generator: Adobe Illustrator 24.1.1, SVG Export Plug-In . SVG Version: 6.00 Build 0)  -->
<svg version="1.1" id="BOOK" xmlns="http://www.w3.org/2000/svg" xmlns:xlink="http://www.w3.org/1999/xlink" x="0px" y="0px"
	 viewBox="0 0 500 500" style="enable-background:new 0 0 500 500;" xml:space="preserve">
<style type="text/css">
	.st0{fill:#159BBA;}
	.st1{fill:#5BD1DD;}
	.st2{fill:#FFFFFF;}
	.st3{fill:#29292C;}
	.st4{fill:#38B9CE;}
	.st5{fill:#F6F8F9;}
	.st6{fill:#FFEABB;}
	.st7{fill:#0B7D98;}
	.st8{fill:#0A6F7F;}
</style>
<path class="st0" d="M242.5,441.9h58.2l0,0v26.7l0,0h-58.2c-7.4,0-13.3-6-13.3-13.3l0,0C229.1,447.8,235.1,441.9,242.5,441.9
	L242.5,441.9z"/>
<path class="st1" d="M359.1,441.9v4.9h-0.3c-0.3,0.3-0.6,0.6-0.9,0.9c-0.9,1-1.6,2.1-2,3.4c-0.5,1.4-0.7,2.8-0.7,4.2
	c0,2.4,0.7,4.8,2.1,6.8c0.4,0.6,0.9,1.2,1.5,1.7h0.3v4.9h-58.1c-7.4,0-13.3-6-13.3-13.3c0-7.4,6-13.3,13.3-13.3L359.1,441.9
	L359.1,441.9z"/>
<path class="st2" d="M358.8,463.7h-56.5c-4.7,0-8.5-3.8-8.5-8.5s3.8-8.5,8.5-8.5h56.5c-0.3,0.3-0.6,0.6-0.9,0.9
	c-0.9,1-1.6,2.1-2,3.4c-0.5,1.4-0.7,2.8-0.7,4.2c0,2.4,0.7,4.8,2.1,6.8C357.7,462.6,358.2,463.2,358.8,463.7z"/>
<path class="st3" d="M261.6,468.5h-10c-7.4,0-13.3-6-13.3-13.3c0-7.4,6-13.3,13.3-13.3h10c-7.4,0-13.3,6-13.3,13.3
	C248.2,462.5,254.2,468.5,261.6,468.5z"/>
<path class="st3" d="M290.5,468.5h-10c-7.4,0-13.3-6-13.3-13.3c0-7.4,6-13.3,13.3-13.3h10c-7.4,0-13.3,6-13.3,13.3
	C277.2,462.5,283.1,468.5,290.5,468.5z"/>
<path class="st4" d="M231.6,415.2h58.1l0,0v26.7l0,0h-58.1c-7.4,0-13.3-6-13.3-13.3l0,0C218.3,421.2,224.3,415.2,231.6,415.2
	L231.6,415.2z"/>
<path class="st5" d="M348.2,415.2v4.8h-0.3c-0.3,0.3-0.6,0.6-0.9,0.9c-0.9,1-1.6,2.1-2,3.4c-0.5,1.4-0.7,2.8-0.7,4.2
	c0,2.4,0.7,4.8,2.1,6.8c0.4,0.6,0.9,1.2,1.5,1.7h0.3v4.9h-58.1c-7.4,0-13.3-6-13.3-13.3c0-7.4,6-13.3,13.3-13.3L348.2,415.2
	L348.2,415.2z"/>
<path class="st2" d="M347.9,437h-56.5c-4.7,0-8.5-3.8-8.5-8.5s3.8-8.5,8.5-8.5h56.5c-0.3,0.3-0.6,0.6-0.9,0.9c-0.9,1-1.6,2.1-2,3.4
	c-0.5,1.4-0.7,2.8-0.7,4.2c0,2.4,0.7,4.8,2.1,6.8C346.8,435.9,347.3,436.5,347.9,437z"/>
<path class="st3" d="M250.7,441.9h-10c-7.4,0-13.3-6-13.3-13.3c0-7.4,6-13.3,13.3-13.3h10c-7.4,0-13.3,6-13.3,13.3
	C237.4,435.9,243.4,441.9,250.7,441.9z"/>
<path class="st3" d="M279.6,441.9h-10c-7.4,0-13.3-6-13.3-13.3c0-7.4,6-13.3,13.3-13.3h10c-7.4,0-13.3,6-13.3,13.3
	C266.3,435.9,272.3,441.9,279.6,441.9z"/>
<path class="st0" d="M249,388.5h58.1l0,0v26.7l0,0H249c-7.4,0-13.3-6-13.3-13.3l0,0C235.7,394.5,241.6,388.5,249,388.5L249,388.5z"
	/>
<path class="st1" d="M365.6,388.5v4.9h-0.3c-0.3,0.3-0.6,0.6-0.9,0.9c-0.9,1-1.6,2.1-2,3.4c-0.5,1.4-0.7,2.8-0.7,4.2
	c0,2.4,0.7,4.8,2.1,6.8c0.4,0.6,0.9,1.2,1.5,1.7h0.3v4.9h-58.1c-7.4,0-13.3-6-13.3-13.3c0-7.4,6-13.3,13.3-13.3L365.6,388.5
	L365.6,388.5z"/>
<path class="st2" d="M365.3,410.3h-56.5c-4.7,0-8.5-3.8-8.5-8.5s3.8-8.5,8.5-8.5h56.5c-0.3,0.3-0.6,0.6-0.9,0.9
	c-0.9,1-1.6,2.1-2,3.4c-0.5,1.4-0.7,2.8-0.7,4.2c0,2.4,0.7,4.8,2.1,6.8C364.2,409.3,364.7,409.8,365.3,410.3z"/>
<path class="st3" d="M268.1,415.2h-10c-7.4,0-13.3-6-13.3-13.3c0-7.4,6-13.3,13.3-13.3h10c-7.4,0-13.3,6-13.3,13.3
	C254.8,409.2,260.7,415.2,268.1,415.2z"/>
<path class="st3" d="M297,415.2h-10c-7.4,0-13.3-6-13.3-13.3c0-7.4,6-13.3,13.3-13.3h10c-7.4,0-13.3,6-13.3,13.3
	C283.7,409.2,289.6,415.2,297,415.2z"/>
<path class="st4" d="M233.1,361.9h58.2l0,0v26.7l0,0h-58.2c-7.4,0-13.3-6-13.3-13.3l0,0C219.8,367.8,225.7,361.9,233.1,361.9
	L233.1,361.9z"/>
<path class="st5" d="M349.7,361.9v4.9h-0.3c-0.3,0.3-0.6,0.6-0.9,0.9c-0.9,1-1.6,2.1-2,3.4c-0.5,1.4-0.7,2.8-0.7,4.2
	c0,2.4,0.7,4.8,2.1,6.8c0.4,0.6,0.9,1.2,1.5,1.7h0.3v4.9h-58.1c-7.4,0-13.3-6-13.3-13.3c0-7.4,6-13.3,13.3-13.3L349.7,361.9
	L349.7,361.9z"/>
<path class="st2" d="M349.4,383.7h-56.5c-4.7,0-8.5-3.8-8.5-8.5s3.8-8.5,8.5-8.5h56.5c-0.3,0.3-0.6,0.6-0.9,0.9
	c-0.9,1-1.6,2.1-2,3.4c-0.5,1.4-0.7,2.8-0.7,4.2c0,2.4,0.7,4.8,2.1,6.8C348.3,382.6,348.8,383.2,349.4,383.7z"/>
<path class="st3" d="M252.2,388.5h-10c-7.4,0-13.3-6-13.3-13.3c0-7.4,6-13.3,13.3-13.3h10c-7.4,0-13.3,6-13.3,13.3
	C238.9,382.6,244.9,388.5,252.2,388.5z"/>
<path class="st3" d="M281.1,388.5h-10c-7.4,0-13.3-6-13.3-13.3c0-7.4,6-13.3,13.3-13.3h10c-7.4,0-13.3,6-13.3,13.3
	C267.8,382.6,273.8,388.5,281.1,388.5L281.1,388.5z"/>
<path class="st6" d="M264.4,312.9c0,0-2.6,7.1-5.1,14.1c-2.4,6.6-4.8,13-5,13.1c-0.4,0.1-8,0.7-8,0.7l3.8-16.1l3.1-13.4L264.4,312.9
	z"/>
<path class="st3" d="M264.4,312.9c0,0-2.6,7.1-5.1,14.1l-9.2-2.4l3.1-13.4L264.4,312.9z"/>
<path class="st3" d="M296.5,356v0.5l-0.4,5.2l-25.2,0.6l-31.8,0.8c0,0,0-2,0.3-5c0.5-5.6,2-14.8,6.6-22.2c3.5,0.6,7.1,0.6,10.6,0.3
	c0,0,14.2,6.3,19.3,6.9h0.3C278.9,343.6,297.6,347,296.5,356z"/>
<path class="st4" d="M274.1,349.4H274c-7-1.8-13.8-4-20.5-6.6c-0.3-0.1-0.4-0.4-0.3-0.7s0.4-0.4,0.7-0.3c6.7,2.6,13.5,4.7,20.4,6.5
	c0.3,0.1,0.4,0.4,0.3,0.6C274.5,349.2,274.3,349.3,274.1,349.4z"/>
<ellipse transform="matrix(0.1271 -0.9919 0.9919 0.1271 -127.9731 550.1504)" class="st0" cx="248.6" cy="347.8" rx="5.4" ry="4.2"/>
<path class="st0" d="M297.1,356.5c-0.2,1.8-0.5,3.5-1,5.2l-25.2,0.6c-0.1-1.7,0-3.4,0.1-5.1c0.4-4.5,1.6-10.2,5.2-14.1
	c0.5-0.6,1.1-1.1,1.7-1.6c5-0.1,9.9,1.3,14.1,3.9C296.7,348.5,297.5,352.6,297.1,356.5z"/>
<path class="st0" d="M297.1,356.5c-0.2,1.8-0.5,3.5-1,5.2l-25.2,0.6l-31.8,0.8c0,0,0-2,0.3-5l31.6-0.9l25.5-0.7L297.1,356.5z"/>
<path class="st7" d="M288.2,253.3c0,3.2-19.4,57.7-19.4,57.7l-19.7-0.5l7.7-40.4l-10.8,3.8l-19.2,6.8l-26.6,9.3
	c-1.4,0.7-2.8,1.3-4.2,1.8c-6.1,2-17.8,4.1-27.1-5.2c-13.3-13.3-0.7-51.5,23.9-51.8c19.4-0.3,86.9,5.9,88.8,6.6
	S288.2,250.1,288.2,253.3z"/>
<path class="st8" d="M263,255.9c-2.2,3.9-6.2,14.2-6.2,14.2l-10.8,3.8l16.5-18.1H263z"/>
<path class="st8" d="M226.8,280.7l-26.5,9.3c-1.4,0.7-2.8,1.3-4.2,1.8l8.4-10.7l6.9-7.7L226.8,280.7z"/>
<path class="st0" d="M256.3,306.9h-0.1c-0.3-0.1-0.4-0.3-0.4-0.6c0,0,0,0,0,0c4.4-17.3,10.9-43.6,10.9-45.1s-3.6-4.5-4.3-4.8
	c-2.1,0.5-33.7,9.3-50.4,14c-0.3,0.1-0.6-0.1-0.6-0.4c-0.1-0.3,0.1-0.6,0.4-0.6c15.1-4.2,50.1-14.1,50.7-14.1c0.9,0,5.1,3.9,5.3,5.8
	c0.1,1.8-9.8,40.9-10.9,45.4C256.8,306.7,256.6,306.9,256.3,306.9z"/>
<path class="st5" d="M248.2,306c0.9-0.3,12.7,0.7,15.6,0.6s8-0.1,8.6,0.8s-2.8,12.7-2.9,13.4s-8.6,0.9-14,0.9s-10-0.1-10.2-2.1
	S246.5,306.5,248.2,306z"/>
<polygon class="st6" points="151.4,422.4 149.7,431.3 148.3,438.8 139.4,439.7 140.6,428.4 141.2,422.9 "/>
<polygon class="st3" points="151.4,422.4 149.7,431.3 140.6,428.4 141.2,422.9 "/>
<path class="st3" d="M170.7,468.5h-40.4c-0.2-2-0.2-4.1,0.1-6.1c0.1-0.5,0.1-1,0.2-1.6c0.2-1.3,0.4-2.6,0.8-3.9
	c0.7-3.1,1.9-7.2,3-10.9c1.5-4.9,3.1-9.1,3.7-9.5c1.9-1.1,11.3-1.2,13.4,0.8s6.4,9.7,6.4,9.7s6.4-0.7,9.7,4.8
	S170.7,468.5,170.7,468.5z"/>
<path class="st4" d="M148.8,452.7h-0.1c-8.1-2.5-8.7-13-8.5-14.1c0-0.3,0.3-0.5,0.6-0.4s0.5,0.3,0.4,0.6c-0.2,0.9,0.4,10.7,7.8,12.9
	c0.3,0.1,0.4,0.4,0.3,0.7C149.2,452.5,149,452.7,148.8,452.7z"/>
<path class="st0" d="M170.7,468.5h-40.4c-0.2-2-0.2-4.1,0.1-6.1h16c-0.1-14.8,11.4-15.3,11.4-15.3s6.4-0.7,9.7,4.8
	S170.7,468.5,170.7,468.5z"/>
<path class="st0" d="M138.2,453c-0.7,3.5-2.9,5.9-5,5.5c-0.8-0.2-1.5-0.8-1.9-1.5c0.7-3.1,1.9-7.2,3-10.9c0.4-0.2,0.9-0.2,1.4-0.1
	C137.8,446.3,138.9,449.5,138.2,453z"/>
<path class="st7" d="M152.5,238.6c0,0-2.8,14.8-3.3,21.4s-2.6,84.5-2.6,84.5s-3.9,14.4-4.4,20.9s-2.5,50-2.5,50l14.9-1.1
	c0,0,22.5-69.5,29.9-91.8s19.9-41.5,19.9-41.5s4.6-30.2,5.7-42.5C212.2,214.4,160.9,197.2,152.5,238.6z"/>
<path class="st0" d="M204.4,281.6c-0.1,0-0.1,0-0.2,0c-0.2-0.1-0.3-0.3-0.3-0.5l5.7-42.5c0-0.3,0.3-0.5,0.6-0.4s0.5,0.3,0.4,0.6
	l-5.5,40.9l5.7-6.4c2.5-12.8,5.8-46,5.8-46.3c0-0.3,0.3-0.5,0.6-0.4s0.5,0.3,0.4,0.6c0,0.3-3.4,33.8-5.9,46.6c0,0.1-0.1,0.2-0.1,0.2
	l-6.9,7.7C204.7,281.5,204.5,281.6,204.4,281.6z"/>
<path class="st0" d="M143.6,406.9L143.6,406.9c-0.3,0-0.5-0.3-0.5-0.5c0,0,0,0,0,0c0.2-1.9,4.6-45.5,6-50.9s2.7-13.4,2.7-13.4
	c0-0.3,1.2-38,1.4-51s-0.6-39.1-0.6-39.3c0-0.3,0.2-0.5,0.5-0.5c0,0,0,0,0,0c0.3,0,0.5,0.2,0.5,0.5c0,0.3,0.8,26.4,0.6,39.4
	s-1.4,50.7-1.4,51c0,0.1-1.3,8.1-2.7,13.6s-6,50.3-6,50.8C144.1,406.6,143.9,406.9,143.6,406.9C143.6,406.9,143.6,406.9,143.6,406.9
	z"/>
<path class="st5" d="M138.2,410.2c-1.4,0.3-2.7,12.8-2.3,14.8s7.6,2.7,10.5,2.8c2.8,0.1,5.5-0.4,8.1-1.5c1.3-0.7,4.9-16,4.8-16.6
	S140,409.8,138.2,410.2z"/>
<path class="st0" d="M276.9,146.2c-0.4,2.1-5.1,9.9-7.3,11.2c-1.2,0.7-13.1,1.4-26.7,1c-8.9-0.1-17.8-1-26.5-2.6
	c-1.7-0.4-3.4-0.8-4.9-1.2c-18.4-5.5-15.1-36.2,14.2-31.2c1,0.2,25.7,5.1,25.7,5.1l-2.5-12.2l7.1,0.2l12.6,0.3
	C268.5,116.8,277.2,144.1,276.9,146.2z"/>
<path class="st3" d="M242.9,158.4c-8.9-0.1-17.8-1-26.5-2.6c-1.3-4.2-1.7-8.8-1-10.3c1.4-2.8,8.1-5.5,8.1-5.5L242.9,158.4z"/>
<path class="st3" d="M266.1,118l-14.8,10.4l-2.5-12.2l7.1,0.2C261.1,117.2,266.1,118,266.1,118z"/>
<path class="st4" d="M266.1,148.4c-0.1,0-0.2,0-0.3-0.1c-6.7-5.7-13.8-17.1-13.9-17.3c-0.1-0.2-0.1-0.5,0.2-0.7s0.5-0.1,0.7,0.2
	c0.1,0.1,7.1,11.4,13.7,17c0.2,0.2,0.3,0.5,0.1,0.7C266.5,148.4,266.3,148.5,266.1,148.4z"/>
<path class="st4" d="M245.8,109.5c-0.2,0.7,0.4,12.2,0.5,12.8s10.2,3.1,16.2,2.3s9.7-4.4,9.8-5.3s-3.7-11.6-4.1-11.8
	c-3.8-0.8-7.7-1.3-11.6-1.5C253.7,105.9,246.4,107.8,245.8,109.5z"/>
<path class="st6" d="M247.7,101.4c0.8,2.8,1.4,5.6,1.8,8.4c0,0,4.8,1.7,8.2,1.5c2-0.1,3.9-0.9,5.5-2.1l-5.7-10.4c0,0-0.1-10.5-1-13
	s-2.1-5.1-2.1-5.1l-13.7,2.5c0,0,0.7,7.9,0.7,10.3S247.7,101.4,247.7,101.4z"/>
<path class="st0" d="M242.6,232.9c0,1.1-2.2,4.6-4.5,5.4s-16.1,5.9-39.5,6.4s-49.7-5.1-49.7-5.1s-2.1-1.3-1.3-5.9s4.7-11.3,3.6-28
	c-0.1-0.9-0.1-1.9-0.1-3.1c-0.1-8,0.9-21.4,2.2-34.4c1.8-19,4.1-37.3,4.1-37.3c8.1-6.1,17.5-10.2,27.4-12.1
	c17.6-1.2,39.8,4.3,39.8,4.3c9.7,32.4,8,90.7,8.9,93.9s3.6,6,4.2,7.1s0.5,4.4,0.5,4.4S242.6,231.8,242.6,232.9z"/>
<path class="st4" d="M230.5,157.1c-0.3,0-0.5-0.2-0.5-0.4c-0.9-10.1-2.6-20.1-5-30c-0.1-0.3,0.1-0.6,0.4-0.6s0.6,0.1,0.6,0.4
	c2.4,9.9,4.1,20,5,30.2C231,156.9,230.8,157.1,230.5,157.1C230.6,157.1,230.6,157.1,230.5,157.1L230.5,157.1L230.5,157.1z"/>
<path class="st3" d="M169.1,162c-0.4,0.1-12.7,28.4-18.1,40.7c-0.1-8,0.9-21.4,2.2-34.3L169.1,162z"/>
<path class="st4" d="M206.1,233.4c-10.8,0-21.7-0.9-32.4-2.7c-0.3,0-0.5-0.3-0.4-0.6s0.3-0.5,0.6-0.4c36.6,5.9,60.8,0.1,61,0
	c0.3-0.1,0.6,0.1,0.6,0.4c0.1,0.3-0.1,0.6-0.4,0.6C234.9,230.7,224.1,233.4,206.1,233.4z"/>
<path class="st4" d="M163.5,239.4c-0.2,0-0.3-0.1-0.4-0.2c-3-4.5-2.2-7.9-1-12.7c1.1-3.9,1.8-8,2-12.1c0.5-13.1,0-34.4,0-34.6
	c0-0.3,0.2-0.5,0.5-0.5c0,0,0,0,0,0c0.3,0,0.5,0.2,0.5,0.5c0,0.2,0.5,21.5,0,34.6c-0.2,4.2-0.9,8.3-2,12.3c-1.2,4.7-2,7.8,0.8,11.9
	c0.2,0.2,0.1,0.5-0.1,0.7C163.7,239.4,163.6,239.4,163.5,239.4z"/>
<path class="st4" d="M196.2,113c-3.6-0.1-9.5,0.1-9.5,0.1l-6.3,9.8c0,0,6.8,5.3,13.6,6.3l6.3-6l5.1,5.2c2.4-1.8,4.7-3.9,6.8-6.1
	l-4.6-7.2C207.5,115,199.8,113.2,196.2,113z"/>
<path class="st0" d="M157,131.2c-13.6,8.9-35.1,58.4-35.3,64.5s12.4,34.7,12.4,34.7l16.6-12.5l-6.3-21c0,0,12.4-17,24.8-31.9
	S169.9,122.8,157,131.2z"/>
<path class="st4" d="M156.4,181.6c-0.3,0-0.5-0.2-0.5-0.5c0-0.1,0-0.2,0.1-0.3c4.6-6,8.9-11.4,12.9-16.1c4.3-5.2,6-12.4,4.8-20
	c-1.1-6.1-4-11.3-7.7-13.5c-0.2-0.1-0.3-0.5-0.2-0.7c0.1-0.2,0.4-0.3,0.7-0.2c4,2.3,7.1,7.8,8.2,14.2c1.4,7.8-0.5,15.4-5,20.8
	c-3.9,4.7-8.2,10.1-12.8,16C156.7,181.4,156.5,181.5,156.4,181.6z"/>
<path class="st4" d="M142.1,197.4c-0.1,0-0.2,0-0.2-0.1c-4.4-2.2-12.4-0.7-12.5-0.7c-0.3,0.1-0.5-0.1-0.6-0.4s0.1-0.5,0.4-0.6
	c0.3-0.1,8.5-1.6,13.2,0.8c0.3,0.1,0.4,0.4,0.3,0.6C142.6,197.3,142.3,197.5,142.1,197.4z"/>
<path class="st4" d="M155.9,224.3c0.1,0.8-1.3,4-3.4,6.9c-1,1.4-2.2,2.7-3.6,3.8c-4.1,3.2-11,4.7-11.6,4.5s-6-7.4-6.4-10.4
	c0,0,2-9.4,8-14.2s12.1-2.8,12.5-1.7S155.8,223.1,155.9,224.3z"/>
<path class="st3" d="M152.5,231.2c-1,1.4-2.2,2.7-3.6,3.8c-4.1,3.2-11,4.7-11.6,4.5C137.3,239.5,142.3,225.9,152.5,231.2z"/>
<path class="st6" d="M141.2,234c0,0,3.1-7.4,8.5-7.5l9.4,15.4c0,0-3.7,6.7-7.5,9.8l-1.1-6.7C150.4,244.9,143.4,237.4,141.2,234z"/>
<path class="st3" d="M150.7,252.8c-0.3,0-0.5-0.2-0.5-0.5c0-0.1,0.1-0.3,0.2-0.4c3.3-3,6.2-6.5,8.4-10.4c0.1-0.2,0.4-0.3,0.7-0.2
	c0.2,0.1,0.3,0.4,0.2,0.7c0,0,0,0,0,0c-2.3,4-5.2,7.6-8.6,10.7C150.9,252.8,150.8,252.8,150.7,252.8z"/>
<path class="st6" d="M201.2,103.2v12.5l-1.9,1c-2.8-0.3-5.5-1.4-7.8-3.1c0,0,0.4-13.2,0.4-13.4h0.1L201.2,103.2z"/>
<path class="st3" d="M201.2,103.2v8.3c-7.8,0-9-8.1-9.1-11.3L201.2,103.2z"/>
<path class="st6" d="M185.6,91c0,0,5.6,18.2,17.5,16.1s6.1-36.3-6.6-33.8S182.6,81.6,185.6,91z"/>
<path class="st3" d="M188.3,94.1l1.9-1c0,0-1-3.5-2-7.1s1.5-5.7,4-4.3c0,0,1.4-3.8,4.7-3.1s5.4,13.8,14.2,12s6.6-11.9,6.6-11.9
	s-2.6,3.7-5.9,2.3s-0.7-11-3-18S188.7,53,180.6,77.3c0,0-6.1-0.2-7.9,5.3s4.9,19.8,19.8,20.7c-2.1-2.2-3.8-4.8-5.1-7.6L188.3,94.1z"
	/>
<path class="st6" d="M187.4,92c0,0-2.7-3.5-6-1.3s1,9.3,9.2,6.3L187.4,92z"/>
<path class="st3" d="M188.2,95.7c-0.2,0-0.3-0.1-0.4-0.2c-2.5-3.4-5.5-2.8-5.5-2.8c-0.3,0.1-0.5-0.1-0.6-0.4
	c-0.1-0.3,0.1-0.5,0.4-0.6c0.1,0,3.6-0.7,6.5,3.2c0.2,0.2,0.2,0.5,0,0.7C188.5,95.6,188.4,95.7,188.2,95.7z"/>
<path class="st3" d="M185.2,96.1c-0.2,0-0.3-0.1-0.4-0.2c-0.6-1.1-0.6-2.4,0-3.4c0.1-0.2,0.4-0.3,0.7-0.2c0.2,0.1,0.3,0.4,0.2,0.7
	l0,0c-0.4,0.7-0.4,1.7,0,2.4c0.2,0.2,0.1,0.5-0.1,0.7C185.5,96.1,185.4,96.1,185.2,96.1z"/>
<path class="st3" d="M191.9,89.6c0,0,1-4.2,4.1-3.4c-0.1-0.5,0.2-0.9,0.6-1.1c0.7-0.2,1.4,2.1,1.4,2.1
	C195.9,87.6,193.8,88.4,191.9,89.6z"/>
<path class="st3" d="M208.2,87.7c0,0-1.1-3.7-3.1-2.2c-0.1-0.3-0.4-0.6-0.7-0.7c-0.9,0.1-0.5,2.3-0.5,2.3
	C205.4,86.8,206.9,87,208.2,87.7z"/>
<ellipse transform="matrix(0.9805 -0.1963 0.1963 0.9805 -13.8878 42.2506)" class="st3" cx="206.2" cy="91.2" rx="1.6" ry="2"/>
<ellipse transform="matrix(0.9805 -0.1963 0.1963 0.9805 -13.7351 42.2784)" class="st2" cx="206.4" cy="90.4" rx="0.4" ry="0.4"/>
<path class="st3" d="M202.9,98.6h-0.1c-0.3,0-0.5-0.2-0.5-0.5c0,0,0,0,0,0c0-0.3,0.2-0.5,0.5-0.5c0.1,0,1.8,0.1,2-1.1
	c0.1-0.1,0-0.3-0.1-0.4c-0.6-0.3-1.2-0.3-1.8-0.2c-0.3,0-0.5-0.1-0.6-0.4l-0.8-3.8c-0.1-0.3,0.1-0.5,0.4-0.6
	c0.3-0.1,0.5,0.1,0.6,0.4l0.7,3.3c0.8-0.1,1.5,0,2.2,0.5c0.3,0.3,0.5,0.8,0.4,1.3C205.5,98.2,203.8,98.6,202.9,98.6z"/>
<path class="st3" d="M194.5,93c-0.3,0-0.5-0.2-0.5-0.5c0-0.1,0.1-0.3,0.2-0.4c1.3-1.1,3.2-1.3,4.7-0.5c0.3,0.1,0.4,0.4,0.3,0.7
	c-0.1,0.3-0.4,0.4-0.7,0.3c0,0,0,0-0.1,0c-1.1-0.7-2.6-0.5-3.6,0.3C194.8,93,194.6,93,194.5,93z"/>
<path class="st2" d="M204.7,102c0,0-3.5,3.7-7.4-0.9L204.7,102z"/>
<path class="st4" d="M224,98.9l-5.5,0.1c0,0-4.7-4.3-0.4-10.1l4.3-1.1l0,0c1.4,1.3,2.3,3,2.5,4.8C225,94.8,224.7,96.9,224,98.9z"/>
<path class="st3" d="M224,98.9c-2.6-1.1-4.2-3.8-3.9-6.7c0.2-1.7,1-3.3,2.2-4.4l0,0c1.4,1.3,2.3,3,2.5,4.8
	C225,94.8,224.7,96.9,224,98.9z"/>
<path class="st4" d="M222.3,89.2l44.1-9.8l1,15.1l-44.6,2.8C222.8,97.1,219.5,92.9,222.3,89.2z"/>
<path class="st4" d="M288.7,96.2c0,0-10.6,0.5-18.2,0.8c-4.3,0.2-7.6,0.3-7.6,0.2s-9-10-1.8-21.5l7-1.6l18.3-4.2L288.7,96.2z"/>
<path class="st3" d="M270.5,97.1c-4.3,0.2-7.6,0.3-7.6,0.2s-9-10-1.8-21.5l7-1.6C265.7,79,262.1,89.5,270.5,97.1z"/>
<path class="st4" d="M323.2,96.6c0,0-14.8,0.7-25.5,1.2c-6,0.3-10.7,0.4-10.7,0.3c0-0.3-12.6-14-2.5-30l9.8-2.2l25.6-5.9L323.2,96.6
	z"/>
<path class="st3" d="M297.7,97.8c-6,0.3-10.7,0.4-10.7,0.3c0-0.3-12.6-14-2.5-30l9.8-2.2C291,72.4,286,87.2,297.7,97.8z"/>
<path class="st3" d="M336.4,97.9l-12.6,1c0,0-6.4-9.7-7-20.1s3.3-22.2,3.3-22.2l13.7-2.1c2.3,6.9,3.6,14,4,21.2
	C338,83.1,337.5,90.5,336.4,97.9z"/>
<path class="st5" d="M336.4,97.9c-3.6-6.6-5.7-13.8-6.4-21.3c-0.9-10.8,3.9-22.2,3.9-22.2s4.5,10.4,4.9,21.2
	C338.8,83.1,338,90.6,336.4,97.9z"/>
<path class="st6" d="M240.5,80.5c0,0-1.7,3.6-1.7,4.6s0.8,4.3,2.1,5.2c0.8,0.5,1.9,0.6,2.7,0.1c0.9,0.3,1.8,0.4,2.7,0.3
	c0.5-0.2,1-0.4,1.5-0.7c0.8,0.2,1.6,0.3,2.4,0.1c0.6-0.2,1.1-0.5,1.6-0.9c0.6,0.4,1.3,0.6,2,0.5c0.8-0.3,1.3-3.4,1.5-5.3
	s-0.3-4.8-0.9-5.5s-2.5-0.2-2.5-0.2c-1.4-0.9-3.1-0.9-4.4,0c0,0-2.7-1.2-4.3,0.8C242.2,79.1,241.1,79.5,240.5,80.5z"/>
<path class="st3" d="M242.4,80.8c0,0-0.3,0.6-0.6,1.4c-0.3,0.8-0.5,1.6-0.6,2.4c0,0.5,0.1,1,0.3,1.4c0.4,1.2,0.9,2.4,1.5,3.6
	c0.1,0.2,0.4,0.3,0.7,0.2c0.2-0.1,0.3-0.4,0.2-0.6l-0.3-0.6c-0.2-0.5-0.6-1.3-0.9-2.1c-0.1-0.4-0.3-0.8-0.4-1.1
	c-0.1-0.3-0.1-0.5-0.1-0.8c0.1-0.7,0.2-1.4,0.5-2.1c0.1-0.4,0.3-0.7,0.4-0.9l0.2-0.4c0.1-0.3,0-0.5-0.2-0.7
	C242.8,80.5,242.5,80.6,242.4,80.8L242.4,80.8L242.4,80.8L242.4,80.8z"/>
<path class="st3" d="M246.4,80.3c0,0-0.3,0.6-0.6,1.4c-0.3,0.8-0.5,1.6-0.6,2.4c0,0.5,0.1,1,0.3,1.4c0.4,1.2,0.9,2.4,1.4,3.6
	c0.1,0.2,0.4,0.3,0.7,0.2c0.2-0.1,0.3-0.4,0.2-0.6l-0.3-0.6c-0.2-0.5-0.6-1.3-0.9-2.1c-0.1-0.4-0.3-0.8-0.4-1.1
	c-0.1-0.3-0.1-0.5-0.1-0.8c0.1-0.7,0.2-1.4,0.5-2.1c0.1-0.4,0.3-0.7,0.4-0.9l0.2-0.4c0.1-0.3,0-0.5-0.2-0.7
	C246.8,80,246.5,80.1,246.4,80.3L246.4,80.3L246.4,80.3z"/>
<path class="st3" d="M251,79.8c0,0-0.3,0.6-0.6,1.3c-0.4,0.8-0.6,1.6-0.7,2.4c0,0.5,0.1,0.9,0.2,1.4c0.4,1.2,0.8,2.4,1.3,3.6
	c0.1,0.3,0.4,0.4,0.7,0.3c0.3-0.1,0.4-0.4,0.3-0.7l-0.2-0.6c-0.2-0.5-0.5-1.3-0.8-2.1c-0.1-0.4-0.2-0.8-0.3-1.1
	c-0.1-0.3-0.1-0.5-0.1-0.8c0.1-0.7,0.3-1.4,0.6-2.1c0.1-0.4,0.3-0.7,0.4-0.9l0.2-0.4c0.1-0.2,0-0.5-0.2-0.7
	C251.4,79.4,251.1,79.5,251,79.8L251,79.8L251,79.8L251,79.8z"/>
<path class="st6" d="M241.3,86.6c-1.7,2-3.2,4.2-4.5,6.5c-0.4,1,4.9,5.7,6.7,6.6c1.4,0.7,2.8,1.2,4.3,1.7c0,0,3.6-1.7,3.6-5.2
	s-8.8-4.5-8.8-4.5S244.2,85.2,241.3,86.6z"/>
<path class="st5" d="M122.5,54.5c-7,0,2.4-16.2,12.5-9.8c0,0-0.2-8.8,7.4-9.6s11.1,6.5,11.1,9.6c2.5-0.4,5.1-0.3,7.5,0.5
	c5,1.8,3.7,9.3-1.7,9.3L122.5,54.5L122.5,54.5z"/>
<path class="st5" d="M363.1,134.4c-7,0,2.4-16.2,12.5-9.8c0,0-0.2-8.8,7.4-9.6s11.1,6.5,11.1,9.6c2.5-0.4,5.1-0.3,7.5,0.4
	c5,1.8,3.7,9.3-1.7,9.3L363.1,134.4L363.1,134.4z"/>
<circle class="st4" cx="260.8" cy="184.2" r="4"/>
<circle class="st4" cx="308.5" cy="292.5" r="2.3"/>
<circle class="st4" cx="403.3" cy="186.1" r="3.7"/>
<circle class="st4" cx="160.1" cy="84.5" r="3.7"/>
<circle class="st4" cx="230.5" cy="54.5" r="5.1"/>
<path class="st4" d="M375.2,273.6c-0.3,0-0.5-0.2-0.5-0.5v-4.5c0-0.3,0.2-0.5,0.5-0.5s0.5,0.2,0.5,0.5v4.5
	C375.7,273.4,375.5,273.6,375.2,273.6z"/>
<path class="st4" d="M382.8,276.7h-4.5c-0.3,0-0.5-0.2-0.5-0.5s0.2-0.5,0.5-0.5h4.5c0.3,0,0.5,0.2,0.5,0.5S383,276.7,382.8,276.7z"
	/>
<path class="st4" d="M375.2,284.2c-0.3,0-0.5-0.2-0.5-0.5v-4.5c0-0.3,0.2-0.5,0.5-0.5s0.5,0.2,0.5,0.5v4.5
	C375.7,284,375.5,284.2,375.2,284.2z"/>
<path class="st4" d="M372.2,276.7h-4.5c-0.3,0-0.5-0.2-0.5-0.5s0.2-0.5,0.5-0.5h4.5c0.3,0,0.5,0.2,0.5,0.5
	C372.7,276.5,372.5,276.7,372.2,276.7z"/>
<path class="st4" d="M255.4,208.7c-0.3,0-0.5-0.2-0.5-0.5v-4.5c0-0.3,0.2-0.5,0.5-0.5s0.5,0.2,0.5,0.5v4.5
	C255.9,208.5,255.7,208.7,255.4,208.7z"/>
<path class="st4" d="M262.9,211.8h-4.5c-0.3,0-0.5-0.2-0.5-0.5s0.2-0.5,0.5-0.5h4.5c0.3,0,0.5,0.2,0.5,0.5S263.2,211.8,262.9,211.8z
	"/>
<path class="st4" d="M255.4,219.3c-0.3,0-0.5-0.2-0.5-0.5v-4.5c0-0.3,0.2-0.5,0.5-0.5s0.5,0.2,0.5,0.5v4.5
	C255.9,219.1,255.7,219.3,255.4,219.3z"/>
<path class="st4" d="M252.3,211.8h-4.5c-0.3,0-0.5-0.2-0.5-0.5s0.2-0.5,0.5-0.5h4.5c0.3,0,0.5,0.2,0.5,0.5S252.6,211.8,252.3,211.8z
	"/>
<path class="st4" d="M130.8,108.2c-0.3,0-0.5-0.2-0.5-0.5v-4.5c0-0.3,0.2-0.5,0.5-0.5s0.5,0.2,0.5,0.5v4.5
	C131.3,107.9,131,108.2,130.8,108.2z"/>
<path class="st4" d="M138.3,111.2h-4.5c-0.3,0-0.5-0.2-0.5-0.5s0.2-0.5,0.5-0.5h4.5c0.3,0,0.5,0.2,0.5,0.5S138.6,111.2,138.3,111.2z
	"/>
<path class="st4" d="M130.8,118.8c-0.3,0-0.5-0.2-0.5-0.5v-4.5c0-0.3,0.2-0.5,0.5-0.5s0.5,0.2,0.5,0.5v4.5
	C131.3,118.5,131,118.8,130.8,118.8z"/>
<path class="st4" d="M127.7,111.2h-4.5c-0.3,0-0.5-0.2-0.5-0.5s0.2-0.5,0.5-0.5h4.5c0.3,0,0.5,0.2,0.5,0.5S128,111.2,127.7,111.2z"
	/>
<path class="st4" d="M293.5,124.9l30.2,0.7c1.9,0.7,4,0.5,5.7-0.4l23.7-7.7l-6.4,55.6l-22.6,12.8c0,0-0.9,3.2-6.3,2.4l-33.4,12.4
	L293.5,124.9z"/>
<polygon class="st5" points="285.4,126.3 293.5,124.9 284.5,200.6 276.8,199.6 "/>
<path class="st3" d="M324.2,184.1L324.2,184.1c-0.3,0-0.5-0.3-0.5-0.5l5.1-57.1c0-0.3,0.3-0.5,0.5-0.4c0.3,0,0.5,0.3,0.5,0.5
	l-5.1,57.1C324.7,183.9,324.5,184.1,324.2,184.1z"/>
<path class="st3" d="M318.1,186L318.1,186c-0.3,0-0.5-0.3-0.5-0.5c0,0,0,0,0,0l5.7-57.9c0-0.3,0.3-0.5,0.5-0.4
	c0.3,0,0.5,0.3,0.5,0.5c0,0,0,0,0,0l-5.7,57.9C318.6,185.8,318.3,186,318.1,186C318.1,186,318.1,186,318.1,186z"/>
<polygon class="st5" points="333.9,134.9 332.7,149 345.4,144.4 347.1,130.8 "/>
<path class="st3" d="M332.6,161.5c-0.3,0.1-0.5-0.1-0.6-0.4s0.1-0.5,0.4-0.6l0,0l10.5-4.3c0.3-0.1,0.5,0.1,0.6,0.3
	c0.1,0.2,0,0.5-0.2,0.6l-10.5,4.3C332.7,161.4,332.7,161.5,332.6,161.5z"/>
<path class="st5" d="M333.8,186.4h53.9c1.6,0,2.8,1.3,2.8,2.8v37.9c0,1.6-1.3,2.8-2.8,2.8h-53.9c-1.6,0-2.8-1.3-2.8-2.8v-37.9
	C330.9,187.7,332.2,186.4,333.8,186.4z"/>
<path class="st4" d="M361.7,200.6h19.1c0.9,0,1.7,0.8,1.7,1.7v0.2c0,0.9-0.8,1.7-1.7,1.7h-19.1c-0.9,0-1.7-0.8-1.7-1.7v-0.2
	C360,201.4,360.7,200.6,361.7,200.6z"/>
<path class="st4" d="M361.7,210.3h19.1c0.9,0,1.7,0.8,1.7,1.7v0.2c0,0.9-0.8,1.7-1.7,1.7h-19.1c-0.9,0-1.7-0.8-1.7-1.7v-0.2
	C360,211,360.7,210.3,361.7,210.3z"/>
<path class="st4" d="M369.7,219.9h11c0.9,0,1.7,0.8,1.7,1.7v0.2c0,0.9-0.8,1.7-1.7,1.7h-11c-0.9,0-1.7-0.8-1.7-1.7v-0.2
	C368,220.7,368.8,219.9,369.7,219.9z"/>
<circle class="st4" cx="365.1" cy="193.8" r="1.7"/>
<circle class="st4" cx="372.9" cy="193.8" r="1.7"/>
<circle class="st4" cx="380.8" cy="193.8" r="1.7"/>
<path class="st4" d="M309.1,195c-0.3,0-0.5-0.2-0.5-0.5c0-0.1,0-0.2,0.1-0.2c0.4-0.9,0.7-1.3,0.7-1.3c0.1-0.2,0.5-0.3,0.7-0.2
	c0.2,0.1,0.3,0.4,0.2,0.7c0,0-0.3,0.5-0.7,1.3C309.5,194.9,309.3,195,309.1,195z"/>
<path class="st4" d="M347.3,249.2c-0.5,0-1.1,0-1.6-0.1c-0.3,0-0.5-0.3-0.5-0.5c0-0.3,0.3-0.5,0.5-0.5c1,0.1,1.9,0.1,2.9,0
	c0.3,0,0.5,0.2,0.5,0.5s-0.2,0.5-0.5,0.5l0,0C348.2,249.2,347.8,249.2,347.3,249.2z M351.6,248.8c-0.3,0-0.5-0.2-0.6-0.4
	c0-0.3,0.2-0.5,0.5-0.6l0,0c0.6-0.1,1.1-0.3,1.7-0.4l1.2-0.4c0.3-0.1,0.6,0.1,0.7,0.3s-0.1,0.6-0.3,0.7l0,0l-1.2,0.4
	c-0.6,0.2-1.2,0.3-1.8,0.4L351.6,248.8L351.6,248.8z M342.8,248.8h-0.1c-1-0.2-2-0.5-2.9-0.8c-0.3-0.1-0.4-0.4-0.3-0.7
	s0.4-0.4,0.7-0.3c0.9,0.3,1.9,0.6,2.8,0.7c0.3,0,0.5,0.3,0.5,0.6C343.3,248.6,343,248.8,342.8,248.8L342.8,248.8L342.8,248.8z
	 M357.3,247c-0.3,0.1-0.5-0.1-0.6-0.4s0.1-0.5,0.4-0.6l0,0c0.9-0.4,1.8-0.8,2.6-1.3c0.2-0.1,0.5,0,0.7,0.2c0.1,0.2,0,0.5-0.2,0.7
	c-0.9,0.5-1.8,0.9-2.7,1.3C357.4,247,357.4,247,357.3,247z M337.1,246.9c-0.1,0-0.1,0-0.2,0c-0.9-0.4-1.8-0.9-2.7-1.5
	c-0.2-0.2-0.3-0.5-0.1-0.7c0.1-0.2,0.4-0.3,0.7-0.1c0.8,0.5,1.7,1,2.5,1.4c0.2,0.2,0.2,0.5,0,0.7
	C337.3,246.8,337.2,246.9,337.1,246.9L337.1,246.9z M362.5,244.1c-0.3,0-0.5-0.2-0.5-0.5c0-0.2,0.1-0.3,0.2-0.4
	c0.8-0.6,1.6-1.2,2.3-1.8c0.2-0.2,0.5-0.2,0.7,0c0.2,0.2,0.2,0.5,0,0.7c-0.8,0.7-1.6,1.3-2.4,1.8
	C362.7,244.1,362.6,244.1,362.5,244.1L362.5,244.1z M332.1,243.7c-0.1,0-0.2,0-0.3-0.1c-0.8-0.7-1.5-1.4-2.1-2.2
	c-0.2-0.2-0.1-0.5,0.1-0.7c0.2-0.2,0.5-0.1,0.7,0.1l0,0c0.6,0.7,1.3,1.4,2,2.1c0.2,0.2,0.2,0.5-0.1,0.7
	C332.3,243.6,332.2,243.6,332.1,243.7L332.1,243.7z M366.9,240.2c-0.3,0-0.5-0.2-0.5-0.5c0-0.1,0-0.2,0.1-0.3
	c0.6-0.7,1.2-1.5,1.8-2.3c0.2-0.2,0.5-0.3,0.7-0.1c0.2,0.2,0.3,0.5,0.1,0.7c-0.6,0.8-1.2,1.6-1.9,2.4
	C367.2,240.1,367.1,240.1,366.9,240.2L366.9,240.2z M328.4,239c-0.2,0-0.3-0.1-0.4-0.3c-0.5-0.9-0.9-1.8-1.3-2.8
	c-0.1-0.3,0.1-0.5,0.3-0.6c0.3-0.1,0.5,0.1,0.6,0.3c0.3,0.9,0.7,1.8,1.2,2.6c0.1,0.2,0,0.5-0.2,0.7C328.5,239,328.4,239,328.4,239z
	 M326.5,233.4c-0.2,0-0.4-0.2-0.5-0.4c-0.1-0.6-0.1-1.2-0.1-1.8v-0.1c0-0.4,0-0.8,0-1.2c0.2,0,0.4-0.2,0.4-0.4
	c0-0.1-0.1-0.2-0.2-0.3c-0.1-0.3,0.1-0.5,0.4-0.6c0,0,0,0,0,0c0.9-0.3,1.8-0.6,2.7-1c0.3-0.1,0.5,0,0.6,0.3c0.1,0.2,0,0.5-0.2,0.6
	c-0.9,0.4-1.9,0.7-2.9,1l0,0c0.1,0.1,0.2,0.3,0.2,0.4c0,0.4,0,0.7,0,1.1l-0.5,0.1h0.5c0,0.6,0,1.1,0.1,1.6
	C327,233.1,326.8,233.3,326.5,233.4L326.5,233.4L326.5,233.4z M321.6,230.2h-0.9c-0.3,0-0.5-0.2-0.5-0.5c0,0,0,0,0,0
	c0-0.3,0.2-0.5,0.5-0.5c0,0,0,0,0,0h0.8c0.7,0,1.4,0,2.1-0.1c0.3,0,0.5,0.2,0.6,0.4s-0.2,0.5-0.4,0.6l0,0
	C323,230.2,322.3,230.2,321.6,230.2L321.6,230.2z M317.8,229.8h-0.1c-1-0.2-2-0.5-2.9-0.9c-0.3-0.1-0.4-0.4-0.3-0.6
	c0.1-0.3,0.4-0.4,0.6-0.3c0,0,0.1,0,0.1,0c0.9,0.4,1.8,0.7,2.8,0.9c0.3,0,0.5,0.3,0.4,0.6C318.3,229.7,318.1,229.9,317.8,229.8
	L317.8,229.8L317.8,229.8z M312.3,227.5c-0.1,0-0.2,0-0.3-0.1c-0.9-0.6-1.7-1.2-2.4-1.9c-0.2-0.2-0.2-0.5,0-0.7
	c0.2-0.2,0.5-0.2,0.7,0c0.7,0.7,1.4,1.3,2.2,1.8c0.3,0.1,0.4,0.4,0.3,0.6C312.8,227.5,312.6,227.6,312.3,227.5L312.3,227.5z
	 M326.9,227.5h-0.1c-0.3-0.1-0.4-0.3-0.4-0.6c0.2-1,0.6-2,1.1-2.9c0.1-0.2,0.4-0.3,0.7-0.2c0.2,0.1,0.3,0.4,0.2,0.7l0,0
	c-0.5,0.8-0.8,1.7-1,2.7C327.3,227.3,327.1,227.5,326.9,227.5L326.9,227.5z M332,227c-0.3,0-0.5-0.2-0.5-0.5c0-0.2,0.1-0.3,0.2-0.4
	c0.6-0.4,1.1-1,1.4-1.7c0-0.1,0.1-0.3,0.1-0.4c0.1-0.3,0.3-0.4,0.6-0.4s0.4,0.3,0.4,0.6c0,0.2-0.1,0.3-0.2,0.5
	c-0.4,0.8-1,1.6-1.7,2.1C332.3,227,332.1,227.1,332,227L332,227z M308.1,223.4c-0.2,0-0.3-0.1-0.4-0.2c-0.6-0.8-1.1-1.7-1.5-2.6
	c-0.1-0.3,0-0.5,0.3-0.6c0.2-0.1,0.5,0,0.6,0.2c0.4,0.9,0.9,1.7,1.5,2.5c0.2,0.2,0.1,0.5-0.1,0.7
	C308.4,223.4,308.2,223.4,308.1,223.4L308.1,223.4z M329.9,222.5c-0.3,0-0.5-0.2-0.5-0.5c0-0.2,0.1-0.3,0.2-0.4
	c1-0.7,2.2-0.8,3.3-0.4c0.3,0.1,0.4,0.4,0.2,0.7s-0.4,0.4-0.7,0.2c-0.8-0.3-1.7-0.2-2.4,0.3C330,222.5,329.9,222.5,329.9,222.5
	L329.9,222.5z M305.5,218c-0.2,0-0.4-0.1-0.5-0.4c-0.3-1-0.5-2-0.6-3c0-0.3,0.2-0.5,0.4-0.6c0.3,0,0.5,0.2,0.6,0.4
	c0.1,1,0.3,1.9,0.6,2.8c0.1,0.3-0.1,0.5-0.3,0.6L305.5,218z M304.7,212.1c-0.3,0-0.5-0.2-0.5-0.5v-0.4c0-0.9,0-1.8,0.1-2.7
	c0-0.3,0.3-0.5,0.5-0.4c0.3,0,0.5,0.3,0.5,0.5c-0.1,0.9-0.1,1.7-0.1,2.6v0.4C305.2,211.9,305,212.1,304.7,212.1
	C304.7,212.1,304.7,212.1,304.7,212.1L304.7,212.1L304.7,212.1z M305.2,206.2L305.2,206.2c-0.4-0.1-0.5-0.3-0.5-0.6
	c0.2-1,0.4-1.9,0.7-2.9c0.1-0.3,0.4-0.4,0.6-0.4c0.3,0.1,0.4,0.4,0.4,0.6c-0.3,1-0.5,1.9-0.7,2.9
	C305.7,206.1,305.5,206.2,305.2,206.2L305.2,206.2z M306.8,200.4c-0.3,0-0.5-0.2-0.5-0.5c0-0.1,0-0.1,0-0.2c0.3-0.9,0.7-1.9,1.1-2.8
	c0.1-0.2,0.4-0.4,0.7-0.2c0.2,0.1,0.3,0.4,0.3,0.6c-0.4,0.9-0.8,1.8-1.1,2.8C307.2,200.3,307,200.5,306.8,200.4L306.8,200.4z"/>
<path class="st4" d="M370.3,235.1c-0.3,0-0.5-0.2-0.5-0.5c0-0.1,0-0.2,0.1-0.2c0.3-0.5,0.5-1,0.6-1.3c0.1-0.3,0.4-0.4,0.6-0.3
	s0.4,0.4,0.3,0.6c0,0,0,0,0,0.1c-0.2,0.4-0.4,0.8-0.6,1.4C370.7,235,370.5,235.1,370.3,235.1z"/>
<path class="st4" d="M369,232.6l4,1.6c0.3,0.1,0.6,0,0.7-0.3c0-0.1,0-0.2,0-0.3l-0.5-4.8c0-0.3-0.3-0.5-0.6-0.5
	c-0.1,0-0.2,0.1-0.3,0.1l-3.5,3.2c-0.2,0.2-0.2,0.6,0,0.8C368.9,232.5,368.9,232.5,369,232.6z"/>
</svg>
