<?xml version="1.0" encoding="utf-8"?>
<!-- Generator: Adobe Illustrator 24.1.1, SVG Export Plug-In . SVG Version: 6.00 Build 0)  -->
<svg version="1.1" id="Слой_1" xmlns="http://www.w3.org/2000/svg" xmlns:xlink="http://www.w3.org/1999/xlink" x="0px" y="0px"
	 viewBox="0 0 128 128" style="enable-background:new 0 0 128 128;" xml:space="preserve">
<style type="text/css">
	.st0{fill:#DDA95B;}
	.st1{fill:#FAD986;}
	.st2{clip-path:url(#SVGID_2_);}
	.st3{clip-path:url(#SVGID_4_);}
	.st4{fill:#29292C;}
	.st5{fill:#0B7D98;}
	.st6{fill:#F6F8F9;}
	.st7{fill:#86EFFA;}
	.st8{fill:#515154;}
</style>
<g>
	<path class="st0" d="M62.8,121.5l-38.8-2.4c-2.7-0.1-4.7-2.4-4.5-5.1c0-0.2,0-0.4,0.1-0.6l14.8-82.9c0.5-2.8,2.8-5,5.7-5.3l39-3.8
		c2.7-0.3,5,1.7,5.3,4.4c0,0.4,0,0.8,0,1.3l-14.7,89C69,119.3,66.1,121.7,62.8,121.5z"/>
</g>
<g>
	<path class="st1" d="M60.6,121.2l-38.8-2.4c-2.7-0.1-4.7-2.4-4.5-5.1c0-0.2,0-0.4,0.1-0.6l14.8-82.9c0.5-2.8,2.8-5,5.7-5.3l39-3.8
		c2.7-0.3,5,1.7,5.3,4.4c0,0.4,0,0.8,0,1.3l-14.7,89.1C66.8,119.1,63.9,121.4,60.6,121.2z"/>
</g>
<g>
	<defs>
		<path id="SVGID_1_" d="M60.6,121.2l-38.8-2.4c-2.7-0.1-4.7-2.4-4.5-5.1c0-0.2,0-0.4,0.1-0.6l14.8-82.9c0.5-2.8,2.8-5,5.7-5.3
			l39-3.8c2.7-0.3,5,1.7,5.3,4.4c0,0.4,0,0.8,0,1.3l-14.7,89.1C66.8,119.1,63.9,121.4,60.6,121.2z"/>
	</defs>
	<clipPath id="SVGID_2_">
		<use xlink:href="#SVGID_1_"  style="overflow:visible;"/>
	</clipPath>
	<g class="st2">
		<g>
			<path class="st0" d="M99.8,74.3l-59.8,1c-1.4,0-2.5-1.1-2.5-2.4c0-0.2,0-0.3,0-0.5l4.4-25c0.3-1.4,1.4-2.5,2.9-2.6l59-3.9
				c1.7-0.1,3.2,1.2,3.3,2.9c0,0.2,0,0.5,0,0.7l-4.3,27.1C102.6,73.2,101.3,74.3,99.8,74.3z"/>
		</g>
	</g>
</g>
<g>
	<defs>
		<path id="SVGID_3_" d="M60.6,121.2l-38.8-2.4c-2.7-0.1-4.7-2.4-4.5-5.1c0-0.2,0-0.4,0.1-0.6l14.8-82.9c0.5-2.8,2.8-5,5.7-5.3
			l39-3.8c2.7-0.3,5,1.7,5.3,4.4c0,0.4,0,0.8,0,1.3l-14.7,89.1C66.8,119.1,63.9,121.4,60.6,121.2z"/>
	</defs>
	<clipPath id="SVGID_4_">
		<use xlink:href="#SVGID_3_"  style="overflow:visible;"/>
	</clipPath>
	<g class="st3">
		<g>
			<path class="st0" d="M93.2,114.5l-59.8-2.6c-1.4-0.1-2.4-1.3-2.4-2.6c0-0.1,0-0.2,0-0.3l4.5-25.6c0.3-1.5,1.6-2.6,3.1-2.6
				l59.1-0.5c1.7,0,3.2,1.4,3.2,3.1c0,0.2,0,0.3,0,0.5l-4.4,27.9C96.2,113.5,94.8,114.6,93.2,114.5z"/>
		</g>
	</g>
</g>
<g>
	<path class="st0" d="M31.2,35.6c-0.2,0-0.4-0.2-0.4-0.4c0-0.2,0.1-0.4,0.4-0.4l50.2-4c0.2,0,0.4,0.1,0.4,0.4c0,0.2-0.1,0.4-0.4,0.4
		L31.2,35.6C31.2,35.6,31.2,35.6,31.2,35.6z"/>
</g>
<g>
	<path class="st4" d="M56.7,29.1l-4.3,0.4c-0.4,0-0.6-0.3-0.6-0.7l0,0c0.1-0.4,0.4-0.7,0.8-0.8l4.3-0.4c0.4,0,0.6,0.3,0.6,0.7l0,0
		C57.5,28.7,57.1,29,56.7,29.1z"/>
</g>
<g>
	<path class="st4" d="M59.6,28.9L59.6,28.9c-0.4,0-0.6-0.3-0.6-0.7l0,0c0.1-0.4,0.4-0.8,0.8-0.8l0,0c0.4,0,0.6,0.3,0.6,0.7l0,0
		C60.4,28.5,60,28.8,59.6,28.9z"/>
</g>
<g>
	<path class="st5" d="M91.3,33.5c-0.6,0-1.2-0.5-1.3-1.1c0-0.1,0-0.3,0-0.4l1.6-10c0.1-0.8,0.8-1.4,1.6-1.5l16.4-1.7
		c0.4,0,0.8,0.1,1.1,0.3c0.3,0.2,0.5,0.6,0.5,1c0,0.1,0,0.2,0,0.4l-1.6,10.3c0,0,0,0,0,0c-0.2,0.8-0.8,1.3-1.6,1.4c0,0,0,0,0,0
		l-16.5,1.3C91.4,33.5,91.3,33.5,91.3,33.5z M109.8,19.5C109.7,19.5,109.7,19.5,109.8,19.5l-16.4,1.7c-0.4,0-0.8,0.4-0.9,0.8
		l-1.6,10c0,0.1,0,0.1,0,0.2c0,0.3,0.3,0.5,0.5,0.4l16.5-1.3c0.5-0.1,0.8-0.4,0.9-0.8l1.6-10.3c0,0,0-0.1,0-0.2
		c0-0.2-0.1-0.3-0.2-0.5C110.1,19.6,109.9,19.5,109.8,19.5z M107.9,31.8L107.9,31.8L107.9,31.8z"/>
</g>
<g>
	<path class="st5" d="M100.4,26.4c-0.3,0-0.6-0.1-0.9-0.3l-7.2-4.6c-0.2-0.1-0.2-0.4-0.1-0.5c0.1-0.2,0.4-0.2,0.5-0.1l7.2,4.6
		c0.3,0.2,0.6,0.2,0.9,0l9.4-6.4c0.2-0.1,0.4-0.1,0.5,0.1c0.1,0.2,0.1,0.4-0.1,0.5l-9.4,6.4C101,26.3,100.7,26.4,100.4,26.4z"/>
</g>
<g>
	<path class="st5" d="M33.3,50.6l-13.6,0.7l-2,1.3c-0.3,0.2-0.7,0.1-0.9-0.2c-0.1-0.1-0.1-0.3-0.1-0.5l2.1-11.8
		c0.2-0.9,1-1.7,1.9-1.7L35,37.3c0.8-0.1,1.5,0.5,1.5,1.3c0,0.1,0,0.2,0,0.4l-1.8,10.3C34.6,50,34,50.5,33.3,50.6z"/>
</g>
<g>
	<path class="st6" d="M21.6,42.3c-0.2,0-0.4-0.2-0.4-0.4c0-0.2,0.1-0.4,0.4-0.4L33,40.7c0.2,0,0.4,0.1,0.4,0.4
		c0,0.2-0.1,0.4-0.4,0.4L21.6,42.3C21.6,42.3,21.6,42.3,21.6,42.3z"/>
</g>
<g>
	<path class="st6" d="M21,45.2c-0.2,0-0.4-0.2-0.4-0.4c0-0.2,0.1-0.4,0.4-0.4l11.5-0.8c0.2,0,0.4,0.1,0.4,0.4s-0.1,0.4-0.4,0.4
		L21,45.2C21.1,45.2,21.1,45.2,21,45.2z"/>
</g>
<g>
	<path class="st6" d="M20.5,48.1c-0.2,0-0.4-0.2-0.4-0.4c0-0.2,0.2-0.4,0.4-0.4l6-0.3c0.2,0,0.4,0.2,0.4,0.4c0,0.2-0.2,0.4-0.4,0.4
		L20.5,48.1C20.5,48.1,20.5,48.1,20.5,48.1z"/>
</g>
<g>
	<path class="st4" d="M96.6,71.7l-59.8,1.1c-1.4,0-2.5-1.1-2.5-2.4c0-0.2,0-0.3,0-0.5l4.4-25c0.3-1.4,1.4-2.5,2.9-2.6l59-3.9
		c1.7-0.1,3.2,1.2,3.3,2.9c0,0.2,0,0.5,0,0.7l-4.3,27.1C99.3,70.6,98.1,71.7,96.6,71.7z"/>
</g>
<g>
	<path class="st1" d="M52.3,52.8c-0.3,1.8-1.9,3.3-3.5,3.4c-1.6,0.1-2.6-1.3-2.3-3.1c0.3-1.8,1.9-3.3,3.5-3.4
		C51.5,49.6,52.6,51,52.3,52.8z"/>
</g>
<g>
	<path class="st1" d="M51.1,64.2L44,64.4c-0.8,0-1.5-0.6-1.6-1.5c0-0.1,0-0.2,0-0.3l0.1-0.8c0.6-3.2,3.3-5.9,6.2-6l0,0
		c2.9-0.1,4.9,2.4,4.3,5.7l-0.2,1.1C52.8,63.5,52,64.2,51.1,64.2z"/>
</g>
<g>
	<path class="st7" d="M90.1,53.1l-28.3,1.3c-0.5,0-0.9-0.3-1-0.8c0-0.1,0-0.2,0-0.3l0.3-1.9c0.1-0.6,0.7-1.1,1.3-1.2l28.4-1.5
		c0.5,0,0.9,0.3,1,0.8c0,0.1,0,0.2,0,0.3l-0.3,2.1C91.4,52.6,90.8,53.1,90.1,53.1z"/>
</g>
<g>
	<polygon class="st1" points="61.5,59.5 61.9,60.9 63.3,61.1 62.1,62.3 62,63.8 60.9,63.2 59.5,63.9 59.9,62.3 59.2,61.3 60.6,60.9 
			"/>
</g>
<g>
	<polygon class="st1" points="68,59.3 68.5,60.6 69.8,60.9 68.7,62 68.6,63.6 67.4,62.9 66,63.6 66.4,62.1 65.7,61 67.1,60.7 	"/>
</g>
<g>
	<polygon class="st1" points="74.7,59 75.2,60.4 76.6,60.6 75.3,61.8 75.3,63.4 74.1,62.7 72.7,63.5 73.1,61.9 72.3,60.8 73.8,60.4 
			"/>
</g>
<g>
	<polygon class="st1" points="81.5,58.8 82,60.2 83.4,60.4 82.2,61.6 82.2,63.2 80.9,62.5 79.4,63.2 79.9,61.6 79,60.6 80.6,60.2 	
		"/>
</g>
<g>
	<polygon class="st1" points="88.5,58.5 89,59.9 90.4,60.2 89.2,61.3 89.1,62.9 87.8,62.3 86.4,63 86.8,61.4 86,60.3 87.5,60 	"/>
</g>
<g>
	<path class="st4" d="M89.9,111.9l-59.8-2.6c-1.4-0.1-2.4-1.2-2.4-2.6c0-0.1,0-0.2,0-0.3l4.5-25.6c0.3-1.5,1.6-2.6,3.1-2.6l59.1-0.5
		c1.7,0,3.2,1.4,3.2,3.1c0,0.2,0,0.3,0,0.5l-4.4,27.9C93,110.8,91.5,112,89.9,111.9z"/>
</g>
<g>
	<path class="st1" d="M45.9,89.7C45.6,91.5,44,93,42.4,93c-1.6-0.1-2.6-1.5-2.3-3.3c0.3-1.8,1.9-3.3,3.5-3.3
		C45.1,86.4,46.2,87.9,45.9,89.7z"/>
</g>
<g>
	<path class="st1" d="M44.6,101.4l-7.1-0.2c-0.9,0-1.5-0.8-1.5-1.6c0,0,0-0.1,0-0.1l0.2-0.9c0.6-3.3,3.3-5.9,6.3-5.9l0,0
		c2.9,0,4.9,2.8,4.3,6.1l-0.2,1.1C46.4,100.8,45.5,101.5,44.6,101.4z"/>
</g>
<g>
	<path class="st7" d="M83.7,92.4L55.3,92c-0.5,0-0.9-0.4-0.9-1c0,0,0-0.1,0-0.1l0.3-2c0.1-0.7,0.7-1.2,1.4-1.2L84.5,88
		c0.5,0,0.9,0.4,0.9,1c0,0,0,0.1,0,0.1l-0.3,2.2C85,91.9,84.4,92.4,83.7,92.4z"/>
</g>
<g>
	<polygon class="st1" points="55.1,97.3 55.5,98.7 56.9,99 55.7,100.1 55.6,101.7 54.5,100.9 53.1,101.6 53.5,100 52.8,98.9 
		54.2,98.6 	"/>
</g>
<g>
	<polygon class="st1" points="61.6,97.4 62.1,98.8 63.4,99.1 62.2,100.3 62.2,101.8 61,101.1 59.6,101.8 60,100.2 59.2,99 
		60.7,98.8 	"/>
</g>
<g>
	<polygon class="st1" points="68.3,97.6 68.7,99 70.2,99.3 69,100.4 68.9,102.1 67.7,101.3 66.2,102 66.7,100.4 65.9,99.2 67.4,99 	
		"/>
</g>
<g>
	<polygon class="st8" points="75.1,97.7 75.6,99.1 77,99.5 75.8,100.7 75.7,102.3 74.5,101.5 73,102.2 73.5,100.6 72.7,99.4 
		74.2,99.1 	"/>
</g>
<g>
	<polygon class="st8" points="82.1,97.9 82.6,99.3 84,99.7 82.8,100.8 82.7,102.5 81.5,101.7 79.9,102.4 80.4,100.7 79.6,99.6 
		81.1,99.3 	"/>
</g>
<g>
	<path class="st4" d="M88.9,11.9c-0.6-0.7-1.8-0.8-2.5-0.1c-0.7,0.6-0.8,1.8-0.1,2.5c0.6,0.7,1.8,0.8,2.5,0.1
		C89.5,13.7,89.6,12.6,88.9,11.9C88.9,11.9,88.9,11.9,88.9,11.9z"/>
</g>
<g>
	<path class="st5" d="M86.5,7.8l-0.3-0.3c-1-1.1-2.8-1.2-3.9-0.2c0,0,0,0,0,0l0,0c-1.1,1-1.2,2.8-0.2,3.9c0,0,0,0,0,0l0.3,0.3
		c0.4,0.4,0.6,0.9,0.7,1.4c0.1,0.4,0.2,0.9,0.3,1.3c0.2,0.7,0.9,1.1,1.6,0.9c0.2-0.1,0.4-0.2,0.6-0.3l2-1.8l2-1.8
		c0.5-0.5,0.6-1.3,0.1-1.8c-0.1-0.2-0.3-0.3-0.5-0.4c-0.4-0.2-0.9-0.3-1.3-0.4C87.4,8.5,86.9,8.2,86.5,7.8z"/>
</g>
</svg>
