<?xml version="1.0" encoding="utf-8"?>
<!-- Generator: Adobe Illustrator 24.1.1, SVG Export Plug-In . SVG Version: 6.00 Build 0)  -->
<svg version="1.1" id="Слой_1" xmlns="http://www.w3.org/2000/svg" xmlns:xlink="http://www.w3.org/1999/xlink" x="0px" y="0px"
	 viewBox="0 0 128 128" style="enable-background:new 0 0 128 128;" xml:space="preserve">
<style type="text/css">
	.st0{fill:#BAE3E5;}
	.st1{fill:#22272E;}
	.st2{fill:#F4C2C9;}
	.st3{fill:#159BBA;}
	.st4{fill:#FAD986;}
	.st5{fill:#29292C;}
	.st6{fill:#B28D93;}
	.st7{fill:#896068;}
	.st8{fill:#63737A;}
	.st9{fill:#6DAFA7;}
	.st10{fill:#E26E85;}
	.st11{fill:#FFFFFF;}
	.st12{fill:#B0D7C0;}
	.st13{fill:#B8D8C7;}
	.st14{fill:#E86484;}
	.st15{fill:#CE9238;}
</style>
<g>
	<path class="st0" d="M110.1,109.2l-94.3-3.2c-4.4-0.1-8-4.2-8.4-9.4l-4.6-54c-0.5-5.8,3-10.9,7.8-11.5c0.2,0,0.5,0,0.7-0.1l105-1.7
		c4.8-0.1,8.8,4.6,8.9,10.4c0,0.5,0,1-0.1,1.4l-6.1,59C118.5,105.4,114.6,109.3,110.1,109.2z"/>
</g>
<g>
	<path class="st1" d="M38.6,31.8c0,0,1.6,3.3,2.8,6.2c1.2,3,1.4,5.7,0.2,6.3c-1.6,0.8-3.3,0.9-5.4-3C34.2,37.5,35.8,28.8,38.6,31.8z
		"/>
</g>
<g>
	<path class="st2" d="M29.9,91.7c0,0.2-0.6,3.9-0.6,4.2c0,0.3-2.8,1-4.1-0.2c0,0,0.2-4.8,0.2-5.5C25.4,89.4,29.8,89.7,29.9,91.7z"/>
</g>
<g>
	<path class="st3" d="M29.4,95.2c0,0,0.3,1.4,0.8,2.2s3,3.2,2.7,4c-0.3,0.8-2.6,0.9-4.4,0.8c-1.8-0.1-2.6-0.7-3.3-2
		c-0.7-1.3-0.2-2.1-0.1-4.6c0,0,0.1-0.4,0.2-0.5c0,0,0.4,0.6,0.8,0.7c0.4,0.1,0.8-1,1.8-1.1c1-0.1,1.1,0.9,1.3,0.9
		S29.4,95.5,29.4,95.2z"/>
</g>
<g>
	<path class="st1" d="M27.4,99.6c-0.1,0-0.1,0-0.2-0.1c0-0.1,0-0.2,0.1-0.2c2.4-0.9,3.7-0.4,3.7-0.3c0.1,0,0.1,0.1,0.1,0.2
		c0,0.1-0.1,0.1-0.2,0.1C31,99.3,29.7,98.8,27.4,99.6C27.5,99.6,27.4,99.6,27.4,99.6z"/>
</g>
<g>
	<path class="st1" d="M27,98.7c-0.1,0-0.1,0-0.2-0.1c0-0.1,0-0.2,0.1-0.2c2.4-0.9,3.7-0.4,3.7-0.3c0.1,0,0.1,0.1,0.1,0.2
		c0,0.1-0.1,0.1-0.2,0.1C30.5,98.3,29.3,97.8,27,98.7C27,98.6,27,98.7,27,98.7z"/>
</g>
<g>
	<path class="st2" d="M39,91.1c0,0.2-0.6,3.9-0.6,4.2s-2.8,1-4.1-0.2c0,0,0.2-4.8,0.2-5.5C34.5,88.8,38.9,89.1,39,91.1z"/>
</g>
<g>
	<path class="st3" d="M38.5,94.6c0,0,0.3,1.4,0.8,2.2c0.5,0.8,3,3.2,2.7,4c-0.3,0.8-2.6,0.9-4.4,0.8c-1.8-0.1-2.6-0.7-3.3-2
		c-0.7-1.3-0.2-2.1-0.1-4.6c0,0,0.1-0.4,0.2-0.5c0,0,0.4,0.6,0.8,0.7c0.4,0.1,0.8-1,1.8-1.1s1.1,0.9,1.3,0.9S38.5,94.9,38.5,94.6z"
		/>
</g>
<g>
	<path class="st1" d="M36.5,99c-0.1,0-0.1,0-0.2-0.1c0-0.1,0-0.2,0.1-0.2c2.4-0.9,3.7-0.4,3.7-0.3c0.1,0,0.1,0.1,0.1,0.2
		c0,0.1-0.1,0.1-0.2,0.1C40,98.6,38.8,98.2,36.5,99C36.5,99,36.5,99,36.5,99z"/>
</g>
<g>
	<path class="st1" d="M36.1,98c-0.1,0-0.1,0-0.2-0.1c0-0.1,0-0.2,0.1-0.2c2.4-0.9,3.7-0.4,3.7-0.3c0.1,0,0.1,0.1,0.1,0.2
		c0,0.1-0.1,0.1-0.2,0.1C39.6,97.6,38.4,97.2,36.1,98C36.1,98,36.1,98,36.1,98z"/>
</g>
<g>
	<path class="st4" d="M21.8,51.9c0,0-0.5,3.2,1,10.6c0.5,2.3,0.9,5.2,1.1,8.3c0.6,7.1,0.1,14.3-0.2,17.1c-0.5,4.1,1.6,4.9,3.9,5
		c2.2,0.2,3.1-0.9,3.2-2c0.1-1.1,1.5-16.4,2-19.8c0.5-3.4,0.6-8.2,0.4-8.9c-0.2-0.7,1.8-0.5,1-9.1C33.3,44.8,22.5,49.7,21.8,51.9z"
		/>
</g>
<g>
	<path class="st4" d="M37.5,52.4c0,0,2.7,11.6,3,15.3c0.3,3.6-0.3,21.4-0.3,22.5c0,1.1-1,2-3.4,2.1c-2.4,0.1-3.4-1.6-3.4-2.4
		c0.1-2.9,0.1-14.5-0.1-16.2c-0.2-1.8-2.8-10.5-3.4-11.4c-0.5-0.8-1.7-7.1,0.6-8.2S36.4,51.3,37.5,52.4z"/>
</g>
<g>
	<path class="st3" d="M34,29.1c0,0-4.6-0.2-6.8-0.5s-6.2-0.3-7.8,2.9s3.4,4.8,3.2,7.1c-0.1,2.3-0.5,6.2-0.5,6.2s-0.5,4.4-1,6
		c-0.5,1.7,0.5,2.5,0.9,2.6c0.5,0.1,5.2,1.1,8.7,0.9s6.5-1,6.7-1.8c0.3-0.8-0.2-3.1,0-5.6s0.6-6.7,0.6-8.4s0.8-5.8,0-7.5
		C37.5,29.6,35.6,29.2,34,29.1z"/>
</g>
<g>
	<path class="st5" d="M27.9,27.2c0,0-0.7,0.1-1,0.6c-0.2,0.4-0.3,0.9-0.3,1.5c0,0.6,0.9,2.2,3.4,2.5c2.5,0.3,3.4-0.9,3.5-1.4
		c0.1-0.5-0.1-1.7-0.3-2c-0.2-0.2-0.4-0.5-1.3-0.6C31.1,27.6,28.2,27.1,27.9,27.2z"/>
</g>
<g>
	<path class="st6" d="M31.6,38.2c0.4-0.4,0.8-0.9,1.1-1.4c0.4-0.6,0.9-1.2,1.3-1.5c0.4-0.2,1.3-0.4,1.5-0.5c0.2-0.1,0.5,0.3,0,0.7
		c-0.5,0.4-0.3,1.6-1,2.3C33.8,38.6,31.8,39,31.6,38.2z"/>
</g>
<g>
	<path class="st4" d="M36.9,27.5l9.2-0.6c0.2,0,0.4,0.2,0.5,0.4c0,0,0,0.1,0,0.1l-2.2,13.8c0,0.3-0.3,0.5-0.6,0.6L34.9,43
		c-0.2,0-0.5-0.1-0.5-0.4c0,0,0-0.1,0-0.1l1.8-14.4C36.2,27.8,36.5,27.5,36.9,27.5z"/>
</g>
<g>
	<path class="st3" d="M43.3,27.5l-3.5,0.2c-0.1,0-0.2-0.1-0.2-0.2c0,0,0,0,0,0l0.1-0.4c0-0.1,0.1-0.2,0.3-0.3l3.5-0.2
		c0.1,0,0.2,0.1,0.2,0.2c0,0,0,0,0,0l-0.1,0.4C43.6,27.4,43.5,27.5,43.3,27.5z"/>
</g>
<g>
	<path class="st6" d="M23.1,41.5c0,0,1.1-4.6,1.4-6.3c0.3-1.8-0.8-3.7-2.5-4.2c-2-0.5-2.6,0.6-2.6,0.6s-0.8,1.4-1.6,5.8
		c-0.8,4.4-1.3,8.5,1.6,9.5s8.7-2.2,10.6-3.6c1.9-1.4,2.6-2,2.9-2.1c0.4-0.1,1.8,0.3,2.6-0.6c0.8-0.9,1.4-1.5,1.5-1.5s1.9,0.3,2.2,0
		c0.3-0.3-0.2-0.5-0.5-0.6s-1.4-0.4-1.4-0.4s0.8-0.3,1.4-0.5c0.6-0.2,1.2-0.3,1.1-0.7c0-0.3-0.4-0.3-0.8-0.3c-0.3,0-0.6,0-0.9,0.1
		c0,0,1-0.3,1.3-0.6c0.3-0.3,0-0.5-0.5-0.5c-0.3,0-0.7,0.1-1,0.2c0,0,1-0.1,0.9-0.5c-0.1-0.3-1-0.1-1.6-0.1c-0.7,0.1-1.3,0.2-2,0.4
		c-0.4,0.1-0.7,0.2-1.1,0.4c-0.6,0.3-2.2,1.8-2.5,2.1c-0.3,0.3-3.4,0.8-6.1,1.4s-4.1,1.1-4.9,1.8L23.1,41.5z"/>
</g>
<g>
	<path class="st7" d="M34.2,36.2c-0.1,0-0.1,0-0.2-0.1c0-0.1,0-0.2,0.1-0.2c0.4-0.2,0.7-0.3,1.1-0.4c0.7-0.2,1.3-0.3,2-0.4
		c0.1,0,0.2,0.1,0.2,0.1s-0.1,0.2-0.1,0.2c-0.7,0.1-1.3,0.2-2,0.4C35,35.9,34.6,36,34.2,36.2C34.3,36.2,34.2,36.2,34.2,36.2z"/>
</g>
<g>
	<path class="st5" d="M32.2,41.5c-0.5,0.3-1.1,0.9-2.2,1.7c-1.9,1.4-7.7,4.6-10.6,3.6c-2.8-1-2.4-5.1-1.6-9.5
		c0.8-4.4,1.6-5.8,1.6-5.8s0.6-1.1,2.6-0.6c1.7,0.4,2.8,2.4,2.5,4.2c-0.2,1.1-0.7,3.4-1.1,4.9c0.6-0.2,1.4-0.3,2.2-0.5
		c1.8-0.4,4-0.8,5.2-1.1c-0.2,0.7-0.1,1.3,0.2,2C31.5,41.4,32.2,41.5,32.2,41.5z"/>
</g>
<g>
	<path class="st8" d="M22.2,47C22.2,47,22.2,47,22.2,47c-0.2-0.1-0.2-0.2-0.1-0.3c0.1-0.2,0.2-0.4,0.1-0.7c-0.4-0.9-2.4-1.6-3.4-1.7
		c-0.3,0-0.6,0-0.8,0.2c-0.2,0.2-0.2,0.5-0.2,0.5c0,0.1-0.1,0.2-0.2,0.2c-0.1,0-0.2-0.1-0.2-0.2c0,0,0-0.5,0.3-0.8
		c0.2-0.2,0.6-0.3,1-0.3c1,0.1,3.1,0.8,3.6,1.8c0.2,0.3,0.1,0.7-0.1,1C22.3,47,22.3,47,22.2,47z"/>
</g>
<g>
	<path class="st8" d="M31,42.6C31,42.6,31,42.6,31,42.6c-0.7-0.4-1.2-1-1.5-1.7c-0.3-0.7-0.4-1.5-0.2-2.2c0-0.1,0.1-0.1,0.2-0.1
		c0.1,0,0.1,0.1,0.1,0.2c-0.1,0.7-0.1,1.4,0.2,2c0.3,0.6,0.7,1.1,1.3,1.5c0.1,0,0.1,0.1,0.1,0.2C31.1,42.6,31.1,42.6,31,42.6z"/>
</g>
<g>
	<path class="st6" d="M27.8,24.4c0,0-0.1,2.3-0.2,3.8c-0.1,1.5,2.6,2,3.9,1.8c1.3-0.3,1.5-0.7,1.5-0.7s-0.1-2,0-2.7
		C33.1,25.9,27.8,23.6,27.8,24.4z"/>
</g>
<g>
	<path class="st7" d="M32.9,28.8c0-0.3,0-0.7,0-1.1c-1.1,0.1-2.1-1-2.9-1.8C29.8,27.6,31.3,28.8,32.9,28.8z"/>
</g>
<g>
	<path class="st5" d="M35.1,21.3c0,0,0.9-0.5,1.2-2s-0.1-3.7-1.1-4s-0.3,2.9-1,3.4C33.5,19.4,35.1,20.5,35.1,21.3z"/>
</g>
<g>
	<path class="st6" d="M35,18.7c0.2,1,0.3,2.1,0.2,3.1c-0.1,1.8,0.3,5-1.8,5.9c-2,0.9-4.7,0-5.8-3s-1.1-5.9,0.6-7.2
		S34.4,16.4,35,18.7z"/>
</g>
<g>
	<path class="st5" d="M27.9,22.3c0,0,0.6-0.2,0.6-1.3c0-1.1,0.6-2,1.8-1.7c1.2,0.3,2.9,1.3,3.8,1.2c1.2,0,1.5-1.3,1.6-2.8
		c0.1-1.5-0.4-2.5-1-2.3s-1.1,0.7-1.8-0.3c-1-1.3-1.9-1.2-2.6-0.6c-1.3,1.1-1,1.6-2.1,1.2c-0.7-0.3-1.1-0.2-1.5,1.1
		c-0.3,1.3-0.2,1.6-1,1.5c-0.8-0.1-0.3,4,1,5C26.7,23.1,27.7,22.2,27.9,22.3z"/>
</g>
<g>
	<path class="st1" d="M34.2,22.6c0.1,0.2,0.1,0.4,0.2,0.6c0.1,0.2,0.1,0.4,0.2,0.5c0.1,0.1,0.1,0.2,0.1,0.3c0,0.1,0,0.3-0.1,0.4
		c-0.2,0.2-0.4,0.3-0.6,0.2c0.2-0.1,0.3-0.2,0.4-0.4c0-0.1,0-0.3-0.1-0.4c-0.1-0.2-0.1-0.4-0.1-0.6C34.1,23,34.1,22.8,34.2,22.6z"/>
</g>
<g>
	<path class="st1" d="M32.4,21c0.1,0,0.2-0.1,0.2-0.2c0,0,0-0.1,0-0.1c-0.1-0.2-0.1-0.3-0.3-0.3c-0.6-0.1-1.2,0-1.7,0.3
		c-0.5,0.4,0,0.4,0.6,0.3C31.6,21,32,21,32.4,21z"/>
</g>
<g>
	<path class="st1" d="M31.6,24.8c-1.1,0-2-0.9-2-2s0.9-2,2-2c1.1,0,2,0.9,2,2S32.6,24.8,31.6,24.8z M31.6,21.1
		c-0.9,0-1.6,0.8-1.6,1.7s0.7,1.7,1.6,1.7c0.9,0,1.6-0.8,1.6-1.7S32.5,21.1,31.6,21.1z"/>
</g>
<g>
	<path class="st1" d="M35.3,24.7c-0.7,0-1.3-0.8-1.3-1.9c0-1,0.6-1.9,1.3-1.9s1.3,0.8,1.3,1.9C36.6,23.8,36,24.7,35.3,24.7z
		 M35.3,21.3c-0.6,0-1,0.7-1,1.5s0.4,1.5,1,1.5s1-0.7,1-1.5S35.9,21.3,35.3,21.3z"/>
</g>
<g>
	<path class="st1" d="M33.3,22.6c-0.1,0-0.1,0-0.1-0.1c0-0.1,0-0.2,0.1-0.2c0.8-0.4,1.1,0,1.1,0c0.1,0.1,0,0.2,0,0.2
		c-0.1,0.1-0.2,0-0.2,0C34,22.5,33.9,22.3,33.3,22.6C33.4,22.6,33.3,22.6,33.3,22.6z"/>
</g>
<g>
	<path class="st1" d="M29.8,22.4C29.8,22.4,29.8,22.4,29.8,22.4l-2.2-0.2c-0.1,0-0.2-0.1-0.2-0.2c0-0.1,0.1-0.2,0.2-0.2l2.2,0.2
		c0.1,0,0.2,0.1,0.2,0.2C30,22.4,29.9,22.4,29.8,22.4z"/>
</g>
<g>
	<path class="st1" d="M32.6,26.1C32.6,26.1,32.6,26.1,32.6,26.1c-0.6-0.1-1.1-0.4-1.4-0.9c0-0.1,0-0.2,0.1-0.2c0.1,0,0.2,0,0.2,0.1
		c0.2,0.4,0.6,0.7,1.1,0.8c0.1,0,0.2,0.1,0.1,0.2C32.8,26,32.7,26.1,32.6,26.1z"/>
</g>
<g>
	<path class="st1" d="M31.8,23.5L31.8,23.5c0.2,0,0.3-0.1,0.3-0.3c0,0,0,0,0,0l0-0.2c0-0.2-0.1-0.3-0.3-0.3c0,0,0,0,0,0l0,0
		c-0.2,0-0.3,0.1-0.3,0.3c0,0,0,0,0,0l0,0.2C31.5,23.3,31.6,23.5,31.8,23.5C31.8,23.5,31.8,23.5,31.8,23.5z"/>
</g>
<g>
	<path class="st1" d="M34.5,23.5L34.5,23.5c0.2,0,0.3-0.1,0.3-0.3c0,0,0,0,0,0l0-0.2c0-0.2-0.1-0.3-0.3-0.3c0,0,0,0,0,0l0,0
		c-0.2,0-0.3,0.1-0.3,0.3c0,0,0,0,0,0l0,0.2C34.2,23.4,34.4,23.5,34.5,23.5z"/>
</g>
<g>
	<path class="st6" d="M27.8,22.4c0,0-0.5-0.9-1.2-0.7c-0.7,0.2-0.7,1.3-0.3,2c0.4,0.7,1.2,1.1,2,1"/>
</g>
<g>
	<path class="st1" d="M26.6,23c0-0.1-0.1-0.2,0-0.3c0-0.1,0-0.1,0.1-0.2c0.1-0.1,0.1-0.1,0.2-0.1c0.1,0,0.2,0.1,0.3,0.1
		c0.1,0.1,0.1,0.2,0.2,0.3c0.1,0.2,0.1,0.3,0.2,0.5c0,0.1,0.1,0.1,0.1,0.2c0,0,0.1,0,0.2,0c-0.1,0.1-0.2,0.1-0.3,0.1
		c-0.1,0-0.2-0.1-0.3-0.2c-0.1-0.1-0.2-0.3-0.3-0.5c-0.1-0.1-0.1-0.3-0.2-0.3c0,0,0,0-0.1,0s0,0-0.1,0.1
		C26.7,22.8,26.6,22.9,26.6,23z"/>
</g>
<g>
	<path class="st7" d="M37.3,38.3C37.3,38.3,37.3,38.3,37.3,38.3c-0.2-0.1-0.4-0.1-0.6-0.1c-0.1,0-0.3,0-0.4,0c-0.1,0-0.2,0-0.2-0.1
		c0-0.1,0-0.2,0.1-0.2c0.2,0,0.3,0,0.5,0c0.2,0,0.4,0.1,0.6,0.1c0.1,0,0.1,0.1,0.1,0.2C37.5,38.2,37.4,38.3,37.3,38.3z"/>
</g>
<g>
	<path class="st7" d="M36.1,37.4c0,0-0.1,0-0.1-0.1c-0.1-0.1,0-0.2,0-0.2c0.2-0.1,1.4-0.4,2.1-0.6c0.1,0,0.2,0,0.2,0.1
		c0,0.1,0,0.2-0.1,0.2C37.3,37.1,36.4,37.3,36.1,37.4C36.2,37.4,36.2,37.4,36.1,37.4z"/>
</g>
<g>
	<path class="st7" d="M36,36.5l-0.1-0.3c0,0,0.4-0.1,0.7-0.2c0.1,0,1.2-0.3,1.4-0.3c0.1,0,0.2,0,0.2,0.1c0,0.1,0,0.2-0.1,0.2
		c-0.5,0.1-1.3,0.3-1.3,0.3C36.4,36.4,36,36.5,36,36.5z"/>
</g>
<g>
	<path class="st1" d="M23.5,59.6c-0.1,0-0.1,0-0.2-0.1c0-0.1,0-0.2,0.1-0.2c0.1,0,2-0.9,2-3.8c0-0.1,0.1-0.2,0.2-0.2
		c0.1,0,0.2,0.1,0.2,0.2C25.8,58.6,23.7,59.5,23.5,59.6C23.5,59.6,23.5,59.6,23.5,59.6z"/>
</g>
<g>
	<path class="st1" d="M13.6,76.1C13.6,76.1,13.6,76.1,13.6,76.1c-0.1,0-0.2-0.1-0.2-0.2c0-0.3,0.1-1,0-1.3c0-0.1,0-0.2,0.1-0.2
		c0.1,0,0.2,0,0.2,0.1c0.2,0.5,0,1.4,0,1.5C13.7,76,13.7,76.1,13.6,76.1z"/>
</g>
<g>
	<path class="st1" d="M91.2,81.1v1.2c0,0.8-4,1.5-9,1.5c-5,0-9-0.7-9-1.5v-1.2h4.2c3.2-0.3,6.3-0.3,9.5,0H91.2z"/>
</g>
<g>
	<ellipse class="st8" cx="82.2" cy="81.1" rx="9" ry="1.5"/>
</g>
<g>
	<path class="st1" d="M82.2,97.3L82.2,97.3c-0.2,0-0.4-0.2-0.4-0.4c0,0,0,0,0,0V82.6h0.9v14.2C82.7,97.1,82.5,97.3,82.2,97.3
		C82.2,97.3,82.2,97.3,82.2,97.3z"/>
</g>
<g>
	<path class="st1" d="M75.7,100.8c-0.1,0-0.1,0-0.2,0c-0.2-0.1-0.3-0.3-0.2-0.5c1.6-3.4,6.6-3.8,6.8-3.9c0.2,0,0.4,0.1,0.4,0.3
		c0,0.2-0.1,0.4-0.3,0.4c0,0-4.7,0.4-6.2,3.4C76,100.7,75.9,100.8,75.7,100.8z"/>
</g>
<g>
	<path class="st1" d="M81.1,101.6C81.1,101.6,81.1,101.6,81.1,101.6c-0.2,0-0.4-0.2-0.4-0.4c0.3-3.7,1.1-4.5,1.3-4.6
		c0.1-0.1,0.2-0.1,0.2-0.1c0.2,0,5.1,0.4,6.8,3.8c0.1,0.2,0,0.4-0.2,0.5c-0.2,0.1-0.4,0-0.5-0.2c-1.3-2.7-5.1-3.3-6-3.4
		c-0.2,0.3-0.7,1.3-1,4C81.4,101.4,81.3,101.6,81.1,101.6z"/>
</g>
<g>
	<circle class="st9" cx="81.1" cy="101.6" r="1.3"/>
</g>
<g>
	<circle class="st9" cx="88.7" cy="100.7" r="1.3"/>
</g>
<g>
	<path class="st1" d="M75.7,102.2c-0.8,0-1.5-0.7-1.5-1.5s0.7-1.5,1.5-1.5s1.5,0.7,1.5,1.5S76.6,102.2,75.7,102.2z M75.7,99.5
		c-0.6,0-1.2,0.5-1.2,1.2c0,0.6,0.5,1.2,1.2,1.2s1.2-0.5,1.2-1.2C76.9,100.1,76.4,99.5,75.7,99.5z"/>
</g>
<g>
	<path class="st5" d="M87.1,67.8c0.9,2.1,2.4,5.4,2.4,9.2c0,4.6-5.5,6.4-6.1,7.2c-0.6,0.7-12.1,1.5-13.3-0.8s-1.1-4.7,2-10.6
		c2.1-3.9,1.8-5,1.8-5c0,0,0.3,0.3,0.4-0.9C74.6,65.7,86.6,66.5,87.1,67.8z"/>
</g>
<g>
	<path class="st2" d="M72.9,78.6c-1.1,0.2-3,0.8-3.2,3.8c-0.2,3,2.2,14.6,2.2,16.6c0,2-0.2,2.1-1.6,3.4c-1.4,1.3-4.2,2.6-3.9,3.6
		c0.2,1,3.4,1.8,5.5,1.4c2.1-0.4,2.6-2.8,3-3c0.4-0.2,0.7-0.9,0.7-1.4c0.1-0.5,1.5-17.1,1.7-19.6C77.5,80.5,76.2,78.1,72.9,78.6z"/>
</g>
<g>
	<path class="st5" d="M75.7,101.6c-0.1,0.8-0.1,1.3-0.1,1.4c-0.1,0.5-0.3,1.2-0.7,1.4c-0.4,0.2-0.9,2.6-3,3
		c-2.1,0.4-5.3-0.4-5.5-1.4c-0.2-0.7,1.5-1.7,2.9-2.7c0,0-0.4,0.4,0,0.5s1.3-0.3,2.8,0.6c1.6,0.9,2-0.5,2.3-1.4
		C74.7,102.2,75.3,102.5,75.7,101.6z"/>
</g>
<g>
	<path class="st2" d="M78.4,79.2c-1.4,0.9-1.9,2-2.2,6.2c-0.3,5.7-1,14.7-1.3,15.7s-0.7,1.4-1,2.4s-3.3,3.7-3.1,4.8
		c0.2,1.1,1.8,2.1,2.9,2.4c1.1,0.3,2.3,0.5,3.1,0s1.1-3.6,1.3-4.3c0.2-0.7,0.4-1.3,0.6-2.6c0.2-1.3,1.5-7.1,2.1-8.8
		c0.6-1.7,3.1-9.8,3.2-12.9C84.1,79,80.4,77.9,78.4,79.2z"/>
</g>
<g>
	<path class="st10" d="M74,103.6C74,103.6,73.9,103.6,74,103.6c-0.1,0-0.2-0.1-0.2-0.2c0.2-0.4,0.3-0.8,0.5-1.1
		c0.2-0.4,0.4-0.7,0.5-1.2c0.3-0.9,0.8-8.7,1.2-15.7c0.3-4.3,0.9-5.4,2.2-6.3c0.1-0.1,0.2,0,0.2,0c0,0.1,0,0.2,0,0.2
		c-1.3,0.9-1.8,1.9-2.1,6.1c-0.3,5.4-1,14.7-1.3,15.7c-0.2,0.5-0.3,0.9-0.5,1.3c-0.2,0.3-0.3,0.6-0.5,1.1
		C74.1,103.6,74,103.6,74,103.6z"/>
</g>
<g>
	<path class="st5" d="M79,102.7c-0.1,0.4-0.2,0.8-0.2,1.1c-0.2,1.3-0.4,1.8-0.6,2.6c-0.2,0.7-0.6,3.8-1.3,4.3s-2,0.3-3.1,0
		c-1.1-0.3-2.7-1.4-2.9-2.4c-0.1-0.8,1.4-2.4,2.3-3.6c-0.1,0.1-0.7,1.1,0.5,2c1.1,0.8,3.1,1.3,3.6,0.1c0.5-1.2,0.8-2.3,1-2.7
		C78.6,103.6,78.9,103.2,79,102.7z"/>
</g>
<g>
	<ellipse transform="matrix(0.3448 -0.9387 0.9387 0.3448 -51.5725 139.9272)" class="st11" cx="74.4" cy="106.9" rx="0.7" ry="1"/>
</g>
<g>
	<path class="st11" d="M71.3,104.2c-0.1,0.4-0.5,0.6-1,0.5c-0.5-0.1-0.9-0.5-0.8-0.8c0.1-0.4,0.5-0.6,1-0.5S71.4,103.8,71.3,104.2z"
		/>
</g>
<g>
	<path class="st3" d="M74.5,52.6c0,0-2.5,0-4.1,3.7s-4.3,8.9-3.9,11.1c0.4,2.2,5.4,0,7.8-4.1C76.7,59.2,76.4,52.7,74.5,52.6z"/>
</g>
<g>
	<path class="st5" d="M76.4,45.3c0,0-1.3-0.1-1.7-1.7s1.3-3.6,2.8-4.1c1.5-0.5,1.9,0.5,2.9,0.6c1,0.1,3.7-0.2,4.7,2.2
		s-0.7,4.6,0.7,6.4c1.4,1.8,2.5,5.1-1.5,6.5s-8.6,0.3-10-2.2c-1.4-2.6,1.3-4.1,1.7-5.4C76.5,46.2,76.7,45.9,76.4,45.3z"/>
</g>
<g>
	<path class="st4" d="M80.5,51.7c0,0-3.7,0-5.7,0.7c-0.6,0.2-1.1,0.6-1.3,2.5c-0.1,1.7-0.2,1.7-0.7,2.5c-0.7,1.3-1.1,2.9,0.4,5.4
		c0.9,1.6,0.6,4.7,0.5,6.2c-0.1,1.5,0,2.2,3,3c3,0.8,9.4,0,10.1-0.7c0.7-0.7,1.1-7.9,0.9-9.3s2.5-5.1,2.3-6.6S88.2,51.9,80.5,51.7z"
		/>
</g>
<g>
	<path class="st11" d="M78.4,51.4c0,0-1.7,0.1-2.2,0.6c-0.4,0.4-0.1,0.7,0.4,1c0.3,0.2-0.8,0.9-0.2,1.6c0.4,0.5,1.4-0.1,1.7,0.4
		c0.4,0.6,0.5,0.8,1.1,0.8c0.8,0,0.9-0.8,1.5-0.7c0.7,0.1,0.9,0.4,1.4,0.3c0.8-0.1,0.8-0.9,0.7-1.4s0.2-0.5,0.8-0.7
		c0.6-0.2,0.8-1.4-1.6-1.8C79.7,51.1,78.4,51.4,78.4,51.4z"/>
</g>
<g>
	<path class="st2" d="M82.6,48.1c-0.2,1.2-0.4,2.5-0.3,3.8c-0.4,1.2-1.6,1.9-2.8,1.8c-2-0.1-1.6-1.7-1.6-1.7s0.5-1.8,0.5-2.3
		C78.4,49.2,82.1,47.6,82.6,48.1z"/>
</g>
<g>
	<path class="st10" d="M81,50.2c-0.9,0.6-1.9,0.9-2.8,0.9l-0.2,0.9c0,0,0,0.1,0,0.2C79.3,52.1,80.5,51.5,81,50.2z"/>
</g>
<g>
	<path class="st2" d="M76.2,43.5c0,1,0,2-0.2,3c-0.3,1.6,0,4,1.7,4.6c2.3,0.8,4.8-0.8,5.4-3.1s0.9-5.2-2.1-6
		C78,41.1,76.3,42.3,76.2,43.5z"/>
</g>
<g>
	<path class="st5" d="M76.1,44.1c0,0-0.1-0.6,0.4-0.7c0.5-0.1,1-0.3,1.5-0.6c0.3-0.2,0.8-0.1,1.1,0.7c0.8,1.6,1.7,4.1,3.7,3.4
		c0,0,0.8,0.2,1-1.1s0.1-3-2.1-4S77,41.5,76.5,42C75.8,42.8,76.1,44.1,76.1,44.1z"/>
</g>
<g>
	<path class="st2" d="M82,47.2c0,0,0.8-1.1,1.6-0.5S83.3,49,82.2,49"/>
</g>
<g>
	<path class="st4" d="M83.2,49.1c0-0.3-0.2-0.7-0.5-0.7s-0.5,0.5-0.5,0.7c0,0.3,0.2,0.5,0.5,0.5C82.9,49.6,83.2,49.4,83.2,49.1
		C83.2,49.1,83.2,49.1,83.2,49.1z"/>
</g>
<g>
	<path class="st1" d="M83.3,47.5c-0.1,0-0.1-0.1-0.2-0.1c0,0-0.1,0-0.1,0c0,0,0,0,0,0c0,0,0,0,0,0.1c0,0,0,0.1,0,0.1
		c0,0.1,0,0.3,0,0.4c0,0.1-0.1,0.2-0.2,0.2c-0.1,0-0.2,0-0.3,0c0.1,0,0.1-0.1,0.1-0.1c0,0,0-0.1,0-0.1c0-0.1,0-0.3,0-0.4
		c0-0.1,0-0.2,0.1-0.3l0.1-0.1c0.1,0,0.1,0,0.2-0.1c0.1,0,0.2,0.1,0.3,0.1C83.3,47.3,83.3,47.4,83.3,47.5z"/>
</g>
<g>
	<path class="st1" d="M76.8,46.4c0.1,0.2,0.1,0.4,0,0.5c0,0.2-0.1,0.4-0.2,0.5c0,0.1-0.1,0.1-0.1,0.1c0,0.1,0,0.1,0.1,0.2
		c0,0.1,0.1,0.1,0.1,0.2c0.1,0.1,0.1,0.1,0.2,0.1c-0.1,0-0.2,0-0.3,0c-0.1,0-0.2-0.1-0.2-0.1c-0.1-0.1-0.1-0.2-0.1-0.3v-0.1
		c0,0,0-0.1,0-0.1c0,0,0-0.1,0-0.1c0,0,0-0.1,0.1-0.1C76.5,47,76.7,46.7,76.8,46.4z"/>
</g>
<g>
	<path class="st1" d="M77.8,49.1c-0.1,0-0.1,0-0.2,0c-0.1,0-0.2-0.1-0.1-0.2c0-0.1,0.1-0.2,0.2-0.1c0.4,0,0.7-0.1,1-0.3
		c0.1-0.1,0.2,0,0.2,0c0.1,0.1,0,0.2,0,0.2C78.6,49,78.2,49.1,77.8,49.1z"/>
</g>
<g>
	<path class="st1" d="M78.4,45c0-0.1,0-0.2,0.1-0.3c0.1-0.2,0.6-0.2,1,0c0.4,0.2,0.5,0.6,0.4,0.6c-0.2,0.1-0.3-0.2-0.7-0.2
		C78.7,45.1,78.5,45.2,78.4,45z"/>
</g>
<g>
	<path class="st1" d="M76.5,44.9c0.1,0,0.2,0,0.2-0.1c0,0,0,0,0,0c0-0.1,0-0.2,0-0.4c-0.1-0.2-0.4,0-0.5,0.1s-0.1,0.3,0,0.3
		C76.3,44.9,76.4,44.9,76.5,44.9z"/>
</g>
<g>
	<path class="st1" d="M78.7,46.7L78.7,46.7c0.1,0,0.3-0.1,0.3-0.2c0,0,0,0,0,0l0-0.1c0-0.1-0.1-0.3-0.2-0.3c0,0,0,0,0,0l0,0
		c-0.1,0-0.3,0.1-0.3,0.2c0,0,0,0,0,0l0,0.1C78.5,46.6,78.6,46.7,78.7,46.7C78.7,46.7,78.7,46.7,78.7,46.7z"/>
</g>
<g>
	<path class="st1" d="M76.4,46.5L76.4,46.5c0.1,0,0.3-0.1,0.3-0.2c0,0,0,0,0,0l0-0.1c0-0.1-0.1-0.3-0.2-0.3c0,0,0,0,0,0l0,0
		c-0.1,0-0.3,0.1-0.3,0.2c0,0,0,0,0,0l0,0.1C76.2,46.4,76.3,46.5,76.4,46.5z"/>
</g>
<g>
	<path class="st12" d="M35.2,74.8l-3.3,24.4c0,0.3,0.1,0.5,0.4,0.5c0,0,0,0,0,0l0,0c0.2,0,0.4-0.2,0.5-0.4l4.1-24.4L35.2,74.8z"/>
</g>
<g>
	<path class="st13" d="M57.2,48.7c0,0,1.1,0.5,0.1,4.8c-0.9,4.3-2.6,10-2.4,16.4s-4,9.1-10.9,8.6s3.9-20,3.9-20S55.7,46.9,57.2,48.7
		z"/>
</g>
<g>
	<path class="st11" d="M38.6,50c0.2-0.8,0.6-2.1,2-2.6c1.4-0.5,16.5-0.3,16.7,1.6c0.2,1.9-3.7,10.6-3.7,16.8
		c0,6.2,1.1,11.4-6.2,12.4s-15.2-0.5-14.4-3c0.8-2.5,3.2-5.9,4-12.7C37.7,55.6,38,53.1,38.6,50z"/>
</g>
<g>
	<path class="st5" d="M35.2,70c0,0-5.5,6.9-5.7,9.2c-0.2,2.3,9.1,2.2,9.1,1.7c0-0.5,1.6-3.2,2.3-3.2c0.5,0,1.2-0.1,1.3,0.5
		c0.2,0.8,0,2.5,0,2.5l8,3.7l0.8-3.3c0,0,1.3-2.2,1.3-5.7s-1-8.8-1-8.8S36.1,68.3,35.2,70z"/>
</g>
<g>
	<path class="st5" d="M41.8,103.4c0,0-0.5,0.3-0.6,1.1c-0.1,0.8-0.5,2-0.8,3c-0.3,1-1.1,2.9-0.7,3.3c0.6,0.5,2.2,0.8,4.1,1
		c1.9,0.2,2.8,0.1,3.1-0.5c0.3-0.5-0.3-3.7-0.4-4.8s0-2.4-0.2-2.8S42.6,102.2,41.8,103.4z"/>
</g>
<g>
	<path class="st5" d="M35.1,102.3c-0.2,0.3-0.3,0.7-0.4,1.1c-0.2,0.7-2.1,3.7-2.1,4.6c0,0.9,1.8,1,2.6,1c0.9,0,3-0.1,3.7-0.6
		c0.7-0.5,0.7-2.2,0.8-2.7c0.1-1.1,0.1-1.7-0.2-3.4c-0.1-0.5-0.9-0.7-1.3-0.4C37.7,102.2,35.4,101.6,35.1,102.3z"/>
</g>
<g>
	<path class="st2" d="M42,101.2c0,0-0.3,2.4-0.4,2.7s0.5,0.9,2,1.3c1.3,0.3,2.1-0.2,2.2-0.4c0.1-0.2,0.7-3.2,0.9-3.9
		C47,100.2,42.5,100.4,42,101.2z"/>
</g>
<g>
	<path class="st2" d="M34.6,100.7c0,0,0.5,1.7,0.5,1.9s0.8,0.7,2,0.6c1.2,0,2.1-0.7,2.1-1c0-0.3-0.3-3.3-0.3-3.3
		S34.7,99.9,34.6,100.7z"/>
</g>
<g>
	<path class="st11" d="M45.7,108.8c0,0-0.1,0-0.1,0c-1.2-1-2.7-1.3-4.2-1c-0.1,0-0.2,0-0.2-0.1c0-0.1,0-0.2,0.1-0.2
		c1.6-0.4,3.2,0,4.5,1c0.1,0.1,0.1,0.2,0,0.2C45.8,108.7,45.8,108.8,45.7,108.8z"/>
</g>
<g>
	<path class="st11" d="M45.5,107.2c0,0-0.1,0-0.1,0c-1.3-1.1-3.4-0.7-3.5-0.7c-0.1,0-0.2,0-0.2-0.1c0-0.1,0-0.2,0.1-0.2
		c0.1,0,2.3-0.4,3.7,0.8c0.1,0.1,0.1,0.2,0,0.2C45.6,107.2,45.6,107.2,45.5,107.2z"/>
</g>
<g>
	<path class="st1" d="M41.8,104.3c0.2,0.1,0.5,0.1,0.8,0c0.4-0.2,0.9-0.6,1.7-0.5c1,0.2,1.2,1.3,1.8,0.8c0,0,0,0.7-1.4,0.8
		C43.2,105.5,41.8,104.6,41.8,104.3z"/>
</g>
<g>
	<path class="st1" d="M35,102.6c0,0,0.2,0.2,0.5-0.1c0.3-0.3,0.3-0.7,1.2-0.8c0.6-0.1,1.1,0.3,1.5,0.7c0.4,0.3,0.9-0.1,1-0.5
		c0,0,0.3,1-0.1,1.5c-0.3,0.4-1.4,0.1-2.1,0.1c-0.7,0-2.1-0.3-2.1-0.3L35,102.6z"/>
</g>
<g>
	<path class="st11" d="M37.9,105.8C37.8,105.8,37.8,105.8,37.9,105.8c-2.3-1.4-3.9-0.4-4-0.4c-0.1,0-0.2,0-0.2-0.1
		c0-0.1,0-0.2,0.1-0.2c0.1,0,1.8-1.1,4.2,0.4c0.1,0,0.1,0.1,0.1,0.2C38,105.8,37.9,105.8,37.9,105.8z"/>
</g>
<g>
	<path class="st11" d="M38.2,104.7C38.1,104.7,38.1,104.7,38.2,104.7c-2-1.4-3.4-0.4-3.4-0.4c-0.1,0.1-0.2,0-0.2,0
		c-0.1-0.1,0-0.2,0-0.2c0.1,0,1.6-1.1,3.7,0.4c0.1,0.1,0.1,0.2,0,0.2C38.3,104.7,38.2,104.7,38.2,104.7z"/>
</g>
<g>
	<path class="st5" d="M44.4,77.2c0,0-2.2,0.3-2.3,5.8c-0.1,5.5-0.6,14.3-1.2,15.5c-0.6,1.2-0.4,2.7,0.7,3.3c1.1,0.6,2.5,1.3,4.1,1.1
		c1.7-0.2,2.5-1.1,2.5-3.1s0.7-7.4,1.8-11.8c1.1-4.4,1.8-8.8-0.4-10.4C47.4,76,44.4,77.2,44.4,77.2z"/>
</g>
<g>
	<path class="st5" d="M31.4,76.7c0,0-3.3,0.4-1.4,8.6c1.9,8.2,3.1,12.5,2.8,13.7c-0.3,1.3,0.6,1.9,1.7,2.2c1,0.2,3,0.2,4.1-0.4
		c1.1-0.6,1.3-1.7,0.8-3.6s-0.6-9.7-0.6-12.4c-0.1-2.7,0.6-7.2-2.6-8.5C32.9,75,31.4,76.7,31.4,76.7z"/>
</g>
<g>
	<path class="st1" d="M52.5,42.9c0,0,1.1-0.3,1.4-1.1c0.3-0.8,0.3-3.1-0.3-3.9c-0.6-0.7-2.4-0.4-3.5-0.7c-1.1-0.3-1.9-1.1-4-0.7
		c-2.1,0.4-4,2.3-4.1,3.3c-0.1,1,0.5,1.4,0.3,2.1c-0.2,0.7-0.5,1.3,0.5,2.3s0.6,1.7,1.4,1.7s-0.6-2.3,0.4-4.3
		C45.5,39.5,52,40.7,52.5,42.9z"/>
</g>
<g>
	<path class="st2" d="M31.4,54.9c0,0-2.4,3.2-2.8,5.5c-0.4,2.4,0.9,3.9,2.5,4.2s6.9-6.7,7.2-8.1S32.2,53.8,31.4,54.9z"/>
</g>
<g>
	<path class="st8" d="M39.1,48.8c0,0-1.2-0.3-4.1,2.2c-2.4,2.1-4.4,4.1-4.4,4.1s5.2,4.7,5.9,5.9c0,0,3.2-3.7,3.4-7.4
		S39.5,48.6,39.1,48.8z"/>
</g>
<g>
	<path class="st1" d="M37.2,60.1c-0.1,0-0.1,0-0.1-0.1c-2-2.7-5.7-5.7-5.7-5.7c-0.1-0.1-0.1-0.2,0-0.2c0.1-0.1,0.2-0.1,0.2,0
		c0,0,3.8,3,5.8,5.8C37.3,59.9,37.3,60,37.2,60.1C37.2,60.1,37.2,60.1,37.2,60.1z"/>
</g>
<g>
	<path class="st5" d="M37.6,50.3c0.5-1,1.4-1.8,2.5-1.8c1.1,0,2.7,0,5.1,0.1c5.2,0.4,9.1,1.8,10.2,2.6c1.1,0.8-0.2,5.5-1.3,8.1
		c-1.1,2.6-2.3,5-2.5,5.9c-0.2,0.9,0.5,5.2,0.1,6.1s-4.4,2.4-9.6,2.1c-5.2-0.3-7.3-2-7.5-2.6s0.5-6,0.8-7.8c0.3-1.8,0.5-5.9,0.6-6.4
		C36.4,52.8,37.2,51.4,37.6,50.3z"/>
</g>
<g>
	<path class="st2" d="M60.1,58.7c-1.3-2.2-5.7,2.2-5.6,3.2c0,0,0.8,1.7,0.8,1.8s-0.8,4.8-1.3,7.3c-0.2,0.8-0.7,1.7-1.3,2.5
		c1.4,0.5,2.8,1,4.3,1.3c1.9-3.4,4.1-8.5,4.5-9.8C62.1,62.8,61.4,60.9,60.1,58.7z"/>
</g>
<g>
	<path class="st10" d="M55.3,63.9C55.3,63.9,55.2,63.9,55.3,63.9c-0.2-0.1-0.2-0.2-0.1-0.2c0.3-0.5,0.7-1,1.2-1.2
		c0.1,0,0.2,0,0.2,0.1c0,0.1,0,0.2-0.1,0.2c-0.5,0.2-0.9,0.6-1.1,1C55.4,63.9,55.3,63.9,55.3,63.9z"/>
</g>
<g>
	<path class="st8" d="M55.4,51.2c0,0,1.5,0.8,2.9,3.3s2.6,4.7,2.6,4.7l-6.4,3.3c0,0-1.8-3-2.6-4.4c-0.8-1.4-0.8-4.2,0.2-5.7
		C53.2,50.9,54.9,50.9,55.4,51.2z"/>
</g>
<g>
	<path class="st1" d="M53.9,61.7c-0.1,0-0.1,0-0.1-0.1c0-0.1,0-0.2,0-0.2c0,0,3.8-2.5,6.5-3.4c0.1,0,0.2,0,0.2,0.1
		c0,0.1,0,0.2-0.1,0.2C57.8,59.2,54.1,61.7,53.9,61.7C54,61.7,54,61.7,53.9,61.7z"/>
</g>
<g>
	<path class="st2" d="M53.6,72.1c0,0-2.6,0.3-3.1,0.6S49,75,49.1,75.2c0.1,0.2,0.6,0,0.6,0s-0.1,0.4,0.4,0.4c0.4,0,0.5-0.2,0.5-0.2
		c0,0.2,0.1,0.4,0.3,0.5c0,0,0.1,0,0.1,0c0.5,0,1.6-0.9,1.6-0.9s-0.6,1-0.2,1.2c0.3,0.2,1.1-0.6,1.2-0.8c0.1-0.2,3,1.6,4.1-1.6
		C57.6,73.7,55.5,71.5,53.6,72.1z"/>
</g>
<g>
	<path class="st8" d="M42.8,48.4c0,0-0.9,0.1-1.1,0.3c-0.2,0.2-0.7,1.6,0,3s2.8,2.2,5,1.5s3-2.7,3-3.4c-0.1-0.6-0.5-0.8-1.2-1
		C47.7,48.6,42.8,48.4,42.8,48.4z"/>
</g>
<g>
	<path class="st2" d="M43.9,43.8c0,0,0.1,1.7-0.4,3c-0.2,0.5-0.4,1-0.7,1.5c-0.1,0.3-0.2,0.6-0.3,0.9c-0.1,0.7-0.1,2,1.3,2.6
		c2.2,1,4.5-0.8,4.8-2.2c0,0,0.1-1.5,0.5-2.1C49.4,46.9,44.9,43.3,43.9,43.8z"/>
</g>
<g>
	<path class="st10" d="M48.5,50c0.1-0.1,0.1-0.3,0.1-0.4c0-0.2,0-0.4,0.1-0.7c-1.5-0.3-2.8-1.1-3.6-2.3C45.2,48.4,46.7,49.8,48.5,50
		z"/>
</g>
<g>
	<path class="st2" d="M30.2,64.3c0,0,0.9,1,4.8,0c4-1,9-3.8,9.8-4s1.1-0.1,1.9-0.1c1.9,0,2.7-0.1,3-0.3c0.5-0.3,0.7-0.6,0.7-1
		c-0.1-0.3,0.2-0.4,0.2-0.7c0.1-0.5-0.1-0.6-0.1-0.7s0.6-0.2,0.7-0.3c0.3-0.4,0.1-0.7,0.1-0.7c0.5-0.1,1-0.2,1.5-0.3
		c0.8-0.1,1.3-0.4,1.1-0.7s-1.8-0.2-2.9-0.2s-1.4,0-1.5,0c-0.4-0.1-1.2-0.4-1.6-0.3c-0.4,0-0.8,0.3-1.6,0.7c-0.8,0.4-1.7,0.8-2.7,1
		c-0.8,0.2-6.4,0.7-9.9,1.3c-0.5,0.1-0.9,0.2-1.3,0.3c-0.4,0.1-0.8,0.2-1.1,0.4C29.5,59.8,27.9,62.5,30.2,64.3z"/>
</g>
<g>
	<path class="st10" d="M51.3,56.7C51.3,56.7,51.3,56.7,51.3,56.7c0,0-0.5-0.1-0.7-0.1c-0.1,0-0.3,0-0.4,0c-0.1,0-0.2-0.1-0.2-0.2
		c0-0.1,0.1-0.2,0.2-0.2c0,0,0,0,0,0c0.2,0,0.3,0,0.5,0c0.2,0,0.6,0.1,0.6,0.1c0.1,0,0.2,0.1,0.1,0.2C51.4,56.6,51.4,56.7,51.3,56.7
		z"/>
</g>
<g>
	<path class="st10" d="M50.1,57.9c-0.1,0-0.1,0-0.2-0.1c0-0.1,0-0.2,0.1-0.2c0.1-0.1,0.4-0.1,0.5-0.2c0.1,0,0.2,0,0.2,0.1
		c0,0.1,0,0.2-0.1,0.2C50.5,57.8,50.3,57.8,50.1,57.9C50.1,57.9,50.1,57.9,50.1,57.9z"/>
</g>
<g>
	<path class="st10" d="M49.9,59.1c-0.1,0-0.1,0-0.1-0.1c0-0.1,0-0.2,0.1-0.2c0.2-0.1,0.3-0.2,0.5-0.2c0.1,0,0.2,0,0.2,0.1
		c0,0.1,0,0.2-0.1,0.2C50.3,59,50.1,59.1,49.9,59.1C49.9,59.1,49.9,59.1,49.9,59.1z"/>
</g>
<g>
	<path class="st1" d="M44.9,60.3c-1.4-1.7-0.7-3.6-0.7-3.6L42.6,57c-0.9,2.2,0.7,4,0.7,4L44.9,60.3z"/>
</g>
<g>
	<path class="st10" d="M48.4,55.7c-0.1,0-0.1,0-0.2-0.1c0-0.1,0-0.2,0.1-0.2c0.2-0.1,0.9-0.1,1.2-0.1c0.1,0,0.2,0.1,0.2,0.2
		s-0.1,0.2-0.2,0.2C49.1,55.6,48.5,55.6,48.4,55.7C48.4,55.7,48.4,55.7,48.4,55.7z"/>
</g>
<g>
	<path class="st10" d="M31.4,59c-0.1,0-0.1,0-0.1-0.1c0-0.1,0-0.2,0.1-0.2c0.4-0.2,0.7-0.3,1.1-0.4c0.4-0.1,0.9-0.2,1.3-0.3
		c0.1,0,0.2,0,0.2,0.1c0,0.1,0,0.2-0.1,0.2c-0.5,0.1-0.9,0.2-1.3,0.3C32.2,58.7,31.8,58.8,31.4,59C31.5,59,31.5,59,31.4,59z"/>
</g>
<g>
	<path class="st11" d="M44.1,58.7c0-0.5-0.4-0.9-0.9-0.9c-0.5,0-0.9,0.4-0.9,0.9c0,0.5,0.4,0.9,0.9,0.9
		C43.7,59.7,44.1,59.2,44.1,58.7z"/>
</g>
<g>
	<path class="st2" d="M52.7,39.8c0,0,0.4,1.2-0.2,3c-0.6,1.8-0.9,2.4-1.4,3.9s-1.6,2.6-3.6,2.4c-2-0.2-3.6-2.1-3.7-4.4
		c-0.1-2.3-0.3-5.9,2.4-6.5C49,37.6,52.3,39.2,52.7,39.8z"/>
</g>
<g>
	<path class="st1" d="M50.9,43.7c0,0.2,0,0.4,0,0.6c0,0.1,0,0.2,0.1,0.3c0,0.1,0,0.1,0,0.1l0,0.1l0,0.1c0,0.1,0,0.3,0,0.4
		c0,0.1-0.1,0.2-0.3,0.3c-0.2,0.1-0.4,0.2-0.7,0.1c0.2-0.1,0.4-0.2,0.5-0.3c0.1-0.1,0.2-0.3,0.1-0.4l0-0.1l0-0.1c0-0.1,0-0.1,0-0.2
		c0-0.1,0-0.2,0-0.3C50.7,44.1,50.8,43.9,50.9,43.7z"/>
</g>
<g>
	<path class="st1" d="M44.3,42.7c0,0,0.6-0.1,1-1.7c0,0,0.1-0.4,0.8,0.1s1.7,1.3,3.5,0.4c1.8-0.9,2.1-1.2,2.3-0.9
		c0,0,0.3,1.4,1.2,0.9c0.9-0.4,0.4-2.9-2.7-3.7c-3.1-0.8-5.3-0.5-6.3,1.2C43.2,40.9,43.5,42.6,44.3,42.7z"/>
</g>
<g>
	<path class="st1" d="M50,42.1c0.2-0.2,0.2-0.4,0.1-0.6c-0.2-0.3-1.6-0.5-1.9-0.3s0.5,0.3,0.9,0.5C49.5,41.9,49.9,42.2,50,42.1z"/>
</g>
<g>
	<path class="st1" d="M51.7,42.9c0-0.1,0.1-0.2,0.3-0.3c0.2-0.1,0.6,0.3,0.5,0.6s-0.3,0-0.5-0.1C51.9,43.1,51.7,43,51.7,42.9z"/>
</g>
<g>
	<path class="st1" d="M49,43.2c0.1-0.1,0-0.3-0.2-0.4c0,0,0,0,0,0l0,0c-0.1-0.1-0.3,0-0.4,0.2c0,0,0,0,0,0l0,0.1l0.5,0.2L49,43.2z"
		/>
</g>
<g>
	<path class="st1" d="M51.7,44.2c0.1-0.2,0-0.3-0.2-0.4s-0.3,0-0.4,0.2l0,0l0,0.1l0.5,0.2L51.7,44.2z"/>
</g>
<g>
	<path class="st2" d="M44.7,43c0,0-0.3-1.2-1.2-1.2s-1.3,2.5,0.8,2.9"/>
</g>
<g>
	<path class="st1" d="M43.3,42.9c0-0.1,0-0.2,0.1-0.3c0,0,0.1-0.1,0.2-0.1c0.1,0,0.1,0,0.2,0c0,0,0.1,0,0.1,0.1c0,0,0,0.1,0.1,0.1
		c0,0,0,0.1,0,0.1s0,0.1,0,0.1c0,0.1,0,0.2,0,0.2v0.4c0,0.1,0,0.1,0.1,0.2c0,0.1,0.1,0.1,0.2,0.1c-0.1,0-0.2,0-0.3,0
		c-0.1,0-0.2-0.1-0.2-0.2c-0.1-0.2-0.1-0.3-0.1-0.5c0-0.1,0-0.3,0-0.3c0,0-0.1-0.1-0.1-0.1C43.4,42.8,43.4,42.9,43.3,42.9z"/>
</g>
<g>
	<path class="st1" d="M49,46.9c0.1-0.1,0.1-0.2,0.2-0.3c0.1-0.1,0-0.3-0.1-0.4c0,0,0,0,0,0c-0.2-0.1-0.5-0.2-0.7-0.4
		c-0.6-0.5-0.8-0.1-0.8,0.5C48,46.3,48.5,46.6,49,46.9z"/>
</g>
<g>
	<path class="st14" d="M47.5,46.2c0,0.4,0.3,1,0.7,1c0.3,0,0.6-0.1,0.7-0.3C48.5,46.6,48,46.3,47.5,46.2z"/>
</g>
<g>
	<polygon class="st11" points="124.6,75.4 5.6,75.4 19.2,70 110.9,70 	"/>
</g>
<g>
	<g>
		<path class="st3" d="M111.7,71.6l2.3,32.2c0,0.3-0.2,0.5-0.4,0.5c0,0,0,0,0,0l0,0c-0.2,0-0.5-0.2-0.5-0.4l-2.8-32.3L111.7,71.6z"
			/>
	</g>
	<g>
		<path class="st3" d="M51.6,74.8l1.1,24.6c0,0.3-0.2,0.5-0.4,0.5c0,0,0,0,0,0l0,0c-0.2,0-0.4-0.2-0.4-0.5L50,74.7L51.6,74.8
			L51.6,74.8z"/>
	</g>
	<g>
		<path class="st3" d="M53.9,71.9l1,23.4c0,0.2-0.1,0.5-0.4,0.5c0,0,0,0,0,0l0,0c-0.2,0-0.4-0.2-0.4-0.4l-1.7-23.5L53.9,71.9z"/>
	</g>
	<g>
		<path class="st3" d="M11.3,76.2l-2.7,37.2c0,0.3,0.2,0.6,0.5,0.6c0,0,0,0,0,0l0,0c0.3,0,0.5-0.2,0.5-0.5l3.2-37.3L11.3,76.2
			L11.3,76.2z"/>
	</g>
	<g>
		<path class="st3" d="M118.9,76.2l2.7,37.2c0,0.3-0.2,0.6-0.5,0.6c0,0,0,0,0,0l0,0c-0.3,0-0.5-0.2-0.5-0.5l-3.2-37.3L118.9,76.2
			L118.9,76.2z"/>
	</g>
	<g>
		<rect x="5.6" y="75.4" class="st3" width="119" height="1.4"/>
	</g>
</g>
<g>
	<path class="st8" d="M97,75.1l-2.2,0.2c-0.2,0-0.4,0-0.6-0.1l-9.9-2.7c-0.2-0.1-0.4-0.3-0.4-0.5l0,0l16.9-0.4L97,75.1z"/>
</g>
<g>
	<path class="st5" d="M94.6,74.5l4.2-11.2c0.1-0.4,0.5-0.7,1-0.7L117,63c0.3,0,0.5,0.3,0.5,0.6c0,0.1,0,0.1,0,0.2l-4,9.8
		c-0.1,0.4-0.5,0.6-0.9,0.6l-17.5,1.1c-0.3,0-0.6-0.3-0.6-0.6C94.5,74.6,94.5,74.5,94.6,74.5z"/>
</g>
<g>
	<path class="st5" d="M95.2,75.3l-0.4,0c-0.2,0-0.4,0-0.6-0.1l-9.9-2.7c-0.2-0.1-0.4-0.3-0.4-0.5l10.9,2.6L95.2,75.3z"/>
</g>
<g>
	<path class="st8" d="M109.2,68.7c-0.2,0.7-0.9,1.3-1.6,1.3s-1.1-0.6-0.9-1.3c0.2-0.7,0.9-1.3,1.6-1.3C109,67.4,109.4,68,109.2,68.7
		z"/>
</g>
<g>
	<path class="st1" d="M49.4,74.1L49.4,74.1c0,0.2-0.1,0.4-0.3,0.4c0,0,0,0,0,0H33.7c-0.2,0-0.3-0.1-0.3-0.3c0,0,0,0,0,0l0,0
		c0-0.1,0.1-0.2,0.1-0.3l3-2.9c0.1-0.1,0.3-0.2,0.5-0.2h10.1c0.3,0,0.5,0.1,0.6,0.4l1.6,2.8C49.4,73.9,49.4,74,49.4,74.1z"/>
</g>
<g>
	<path class="st8" d="M41.8,73.3c0,0.1-0.1,0.1-0.3,0.1c-0.1,0-0.3-0.1-0.3-0.1s0.1-0.1,0.3-0.1C41.7,73.2,41.8,73.2,41.8,73.3z"/>
</g>
<g>
	<path class="st15" d="M102.9,90.2c0,0-1.4-3,2.1-4.9c3.5-1.9,8.4,0,7.9,0.6c-0.7,1.1-1.4,2.1-2.3,3C109.5,90.1,106.4,92,102.9,90.2
		z"/>
</g>
<g>
	<path class="st1" d="M101.7,102.3c-0.1,0-0.2-0.1-0.2-0.1c0-0.1-0.5-5.9,1.2-12c1.8-6.2,9.5-4.5,9.6-4.5c0.1,0,0.1,0.1,0.1,0.2
		c0,0.1-0.1,0.1-0.2,0.1c-0.1,0-7.6-1.6-9.2,4.3c-1.7,6-1.2,11.8-1.2,11.9C101.9,102.2,101.8,102.3,101.7,102.3
		C101.7,102.3,101.7,102.3,101.7,102.3z"/>
</g>
<g>
	<path class="st5" d="M96,97l1.3,14.7c0,0.6,2.3,1,5.1,1s5.1-0.5,5.1-1l1.3-14.7H96z"/>
</g>
<g>
	<ellipse class="st9" cx="102.3" cy="97" rx="6.3" ry="1"/>
</g>
<g>
	<path class="st15" d="M100.7,94c0,0-2-1-3.4,1.3s-0.3,5.7,0.6,6.2c0.9,0.5,4.7-1.2,4.7-4.7C102.6,93.7,100.7,94,100.7,94z"/>
</g>
<g>
	<path class="st1" d="M98.1,101.2C98.1,101.2,98.1,101.2,98.1,101.2c-0.1,0-0.2-0.1-0.2-0.2c0.6-7.3,2.7-7.2,2.8-7.2
		c0.1,0,0.2,0.1,0.2,0.2c0,0.1-0.1,0.2-0.2,0.2c0,0,0,0,0,0c0,0-1.9,0.1-2.5,6.9C98.2,101.1,98.1,101.2,98.1,101.2z"/>
</g>
<g>
	<path class="st15" d="M99.2,89.8c0,0-2.2-3.4-6.5-1.2c-4.3,2.2-4.2,8.1-3.5,8.5S100,93.9,99.2,89.8z"/>
</g>
<g>
	<path class="st1" d="M102.6,97c-0.1,0-0.1,0-0.2-0.1c0,0-1.4-4.7-3.4-7c-0.7-0.8-2-1-3.5-0.6c-2.4,0.6-5.2,2.9-6,6.5
		c0,0.1-0.1,0.1-0.2,0.1c-0.1,0-0.1-0.1-0.1-0.2c0.7-3.7,3.7-6,6.2-6.7c1.6-0.4,3-0.2,3.8,0.7c2.1,2.3,3.4,6.9,3.5,7.1
		C102.8,96.8,102.7,96.9,102.6,97C102.6,97,102.6,97,102.6,97z"/>
</g>
<g>
	<path class="st15" d="M105,91.7c0,0-1.8-0.6-2.7,1.6c-0.8,2.2,0.1,7.3,4.9,8.8c0.2,0.1,0.5,0,0.7-0.2c1.2-1.4,1.8-3.2,1.8-5.1
		C109.7,93.1,107.6,90.5,105,91.7z"/>
</g>
<g>
	<path class="st1" d="M107.4,101.6C107.4,101.6,107.4,101.6,107.4,101.6c-0.1,0-0.2-0.1-0.2-0.2c1.4-7.6-2.3-9.5-2.3-9.5
		c-0.1,0-0.1-0.1-0.1-0.2c0-0.1,0.1-0.1,0.2-0.1c0.2,0.1,3.9,2,2.5,9.9C107.6,101.5,107.5,101.6,107.4,101.6z"/>
</g>
<g>
	<path class="st3" d="M66.4,67.4c0,0,0.1,2.3,3.4,2.5s9.7-0.5,10.9-0.9c1.3-0.3,1.2-2.4,0.4-2.9c-0.8-0.6-5.6-0.8-8-1.2
		c-0.6-0.1-1.2-0.2-1.9-0.3c-0.6-0.1-1.1-0.1-1.7-0.1C67.8,64.7,66.5,65.3,66.4,67.4z"/>
</g>
<g>
	<path class="st1" d="M68.6,69.8c-0.1,0-0.2,0-0.3,0c-0.1,0-0.1-0.1-0.1-0.2c0-0.1,0.1-0.1,0.2-0.1c0.2,0.1,0.3,0,0.4,0
		c0.1-0.1,0.1-0.5,0-0.9c-0.3-0.8-1-1.8-1.7-1.9c-0.2,0-0.4,0-0.4,0c-0.1,0.1-0.1,0.1-0.1,0.1c0,0.1-0.1,0.2-0.2,0.2c0,0,0,0,0,0
		c-0.1,0-0.2-0.1-0.2-0.2c0,0,0-0.2,0.2-0.4c0.2-0.1,0.4-0.2,0.7-0.1c0.9,0.2,1.7,1.2,2,2.2c0.2,0.5,0.2,1-0.1,1.2
		C69,69.7,68.8,69.8,68.6,69.8z"/>
</g>
<g>
	<path class="st1" d="M73.1,65.1C73.1,65.1,73.1,65.1,73.1,65.1l-0.1,0c-0.5-0.1-1.2-0.2-1.8-0.2c-0.6-0.1-1.1-0.1-1.7-0.1
		c0,0,0,0,0,0c-0.1,0-0.2-0.1-0.2-0.2c0-0.1,0.1-0.2,0.2-0.2c0.6,0,1.2,0,1.7,0.1c0.6,0.1,1.3,0.2,1.8,0.2l0.1,0
		c0.1,0,0.1,0.1,0.1,0.2C73.2,65.1,73.2,65.1,73.1,65.1z"/>
</g>
<g>
	<path class="st3" d="M89.3,54.4c0.6,0.2,1,0.7,1.8,3c1,3,2.3,9.4,1.6,11.1s-2,2.6-6.3,2.8c-4.4,0.2-8.7-0.1-9.2-0.1
		s-1.5-2.1-0.9-3.4c0,0,3.7-0.9,5.8-1.5c2.1-0.6,4.4-1.2,5.4-1.3c0,0-1.6-3.8-2.1-5.2c-0.5-1.3-0.1-3.6,1.1-4.7
		C87.7,54.1,88.8,54.2,89.3,54.4z"/>
</g>
<g>
	<path class="st1" d="M90.3,65.1C90.2,65.1,90.2,65.1,90.3,65.1c-1.1-0.4-2.8,0-2.8,0c-0.1,0-0.2,0-0.2-0.1c0-0.1,0-0.2,0.1-0.2
		c0.1,0,1.9-0.4,3,0c0.1,0,0.1,0.1,0.1,0.2C90.4,65.1,90.3,65.1,90.3,65.1z"/>
</g>
<g>
	<path class="st1" d="M90.6,70.7c-0.4,0-0.7-0.2-0.8-0.6c-0.3-0.8,0.2-2.2,1.1-2.8c0.7-0.4,1.2-0.6,1.6-0.5c0.4,0.1,0.5,0.4,0.5,0.4
		c0,0.1,0,0.2-0.1,0.2c-0.1,0-0.2,0-0.2-0.1c0,0-0.1-0.2-0.3-0.2c-0.2-0.1-0.6,0-1.4,0.4c-0.8,0.5-1.2,1.8-1,2.4
		c0.1,0.3,0.3,0.4,0.6,0.4c0.1,0,0.2,0.1,0.2,0.1s-0.1,0.2-0.1,0.2C90.7,70.7,90.6,70.7,90.6,70.7z"/>
</g>
<g>
	<path class="st2" d="M76.6,67.7c0,0-1,0.1-1.9,0.1S72.3,68,72,68.1c-0.3,0.1-3.4,3.3-3.4,3.7c0.1,0.4,0.7,0.1,1.2-0.2
		c0.5-0.3,1.5-1.3,1.7-1.4c-0.2,0.5-0.4,1-0.5,1.5c-0.2,0.9-0.5,1.7-0.2,1.9c0.3,0.2,0.6-0.1,0.7-0.3c0,0,0,0.5,0.3,0.5
		c0.4,0,0.7-0.7,1-1.3c0.3-0.5,0.6-0.9,0.9-1.3c0,0-0.3,0.9-0.4,1.4c-0.1,0.5-0.2,1.1,0.1,1.2c0.4,0.1,0.8-1.1,1-1.6
		c0.2-0.5,1.2-0.2,1.8-0.6c0.3-0.2,0.7-0.4,1.1-0.5c0,0,0.5-0.5,0.5-1.4S77,67.7,76.6,67.7z"/>
</g>
<g>
	<path class="st10" d="M71.4,73.4C71.4,73.4,71.4,73.4,71.4,73.4c-0.1,0-0.2-0.1-0.2-0.2c0-0.1,0.9-2.6,1.3-3.1
		c0.3-0.5,0.5-0.5,0.6-0.6c0,0,0,0,0,0c0.1,0,0.2,0,0.2,0c0.1,0.1,0,0.2,0,0.2c0,0,0,0-0.1,0c-0.1,0.1-0.2,0.1-0.5,0.5
		c-0.3,0.4-1,2.3-1.2,3C71.5,73.4,71.5,73.4,71.4,73.4z"/>
</g>
<g>
	<path class="st10" d="M71.4,70.4C71.4,70.4,71.4,70.4,71.4,70.4c-0.2-0.1-0.2-0.2-0.1-0.2c0,0,0.1-0.3,0.4-0.7
		c0.1-0.2,0.3-0.3,0.4-0.5c0.1-0.1,0.2,0,0.2,0c0.1,0.1,0,0.2,0,0.2c-0.1,0.1-0.3,0.2-0.4,0.4c-0.2,0.4-0.4,0.7-0.4,0.7
		C71.6,70.3,71.5,70.4,71.4,70.4z"/>
</g>
<g>
	<path class="st10" d="M73.7,71.3C73.7,71.3,73.6,71.3,73.7,71.3c-0.1,0-0.2-0.1-0.2-0.2c0.1-0.2,0.3-0.7,0.6-0.8
		c0.1,0,0.2,0,0.2,0.1c0,0.1,0,0.2-0.1,0.2c-0.1,0-0.3,0.3-0.4,0.6C73.8,71.2,73.7,71.3,73.7,71.3z"/>
</g>
<g>
	<path class="st2" d="M79.5,65.9c0.5-0.2,0.9-0.3,1.4-0.5c0.7-0.3,0.9-0.4,1.5-0.5c0.5,0,2.2-0.1,2.4,0.1c0.2,0.1,0.5,0.8,0.7,1.2
		c0.2,0.3-0.4,1.7-0.4,1.7s0.2,1.2-0.1,1.3c-0.2,0.1-0.3,0-0.6-0.6c0,0,0.2,0.5-0.2,0.6c-0.3,0-0.7-0.9-0.9-1.3
		c-0.2-0.3-0.4-0.6-0.7-0.9c0,0,0.2,0.7,0.2,0.9c0,0.2,0.2,0.8,0.1,1c-0.1,0.2-0.4-0.1-0.7-0.8c-0.3-0.7-0.4-1-0.6-1
		c-1.1,0.1-1.1-0.1-1.6-0.2l-1.2,0.3C78.8,67.1,78.7,66.3,79.5,65.9z"/>
</g>
<g>
	<path class="st10" d="M84.4,68.7c-0.1,0-0.1,0-0.2-0.1c0,0-0.4-1.2-0.5-1.5c-0.1-0.3-0.3-0.7-0.5-1c0-0.1,0-0.2,0-0.2
		c0.1,0,0.2,0,0.2,0c0.2,0.3,0.4,0.7,0.6,1c0.1,0.4,0.5,1.5,0.5,1.6C84.6,68.6,84.6,68.7,84.4,68.7C84.5,68.7,84.5,68.7,84.4,68.7z"
		/>
</g>
<g>
	<path class="st10" d="M85.1,68c-0.1,0-0.1-0.1-0.2-0.1c0,0-0.2-1.3-0.3-1.6c-0.1-0.2-0.1-0.4-0.2-0.5c0-0.1,0-0.2,0.1-0.2
		c0.1,0,0.2,0,0.2,0.1c0.1,0.2,0.2,0.4,0.2,0.6c0.1,0.3,0.3,1.5,0.3,1.6C85.3,67.9,85.2,68,85.1,68C85.1,68,85.1,68,85.1,68z"/>
</g>
<g>
	<path class="st10" d="M82.6,67c-0.1,0-0.1,0-0.2-0.1c0-0.1-0.1-0.4-0.2-0.4c0-0.1,0-0.2,0.1-0.2c0.1,0,0.2,0,0.2,0.1
		c0.1,0.1,0.2,0.5,0.2,0.5C82.8,66.9,82.8,67,82.6,67C82.7,67,82.7,67,82.6,67z"/>
</g>
</svg>
