<svg width="528" height="528" viewBox="0 0 528 528" fill="none" xmlns="http://www.w3.org/2000/svg">
<path d="M390.844 287.306C388.782 289.781 389.194 293.287 391.669 295.35L523.875 405.075V403.838L392.288 294.731C390.225 293.081 390.019 289.988 391.669 287.925L419.925 253.481C421.369 251.831 421.575 249.356 420.75 247.294C419.719 245.231 417.863 243.994 415.594 243.994L363.413 243.787L245.232 243.375C243.582 243.375 241.725 244.2 240.694 245.438C239.663 246.881 239.25 248.531 239.663 250.388L259.875 340.725L265.238 364.031L276.582 414.356C276.994 416.419 278.644 418.275 280.913 418.688C282.975 419.1 285.244 418.481 286.688 416.831L313.707 383.831L321.544 374.137C322.369 373.106 323.607 372.488 324.844 372.488C326.082 372.281 327.319 372.694 328.35 373.519L452.719 476.644H454.163L328.763 372.694C327.525 371.662 326.082 371.25 324.638 371.456C323.194 371.663 321.75 372.281 320.719 373.519L312.882 383.213L285.863 416.213C284.625 417.656 282.769 418.275 281.119 417.863C279.263 417.45 278.025 416.006 277.613 414.15L266.063 363L261.113 340.519L240.694 249.975C240.282 248.531 240.694 247.087 241.725 245.85C242.55 244.612 243.994 243.994 245.438 243.994L363 244.406L416.007 244.612C417.863 244.612 419.513 245.644 420.338 247.294C421.163 248.944 420.957 251.006 419.719 252.45L390.844 287.306Z" fill="#5BD1DD"/>
<path d="M523.875 427.556C523.875 454.781 501.806 477.056 474.375 477.056C442.406 477.056 411.469 465.919 386.925 445.5L312.881 384.037L312.056 383.419L278.438 355.575C276.169 353.719 272.869 354.131 271.013 356.4L265.238 363.412L264.413 364.444L261.525 367.95L236.156 399.094C233.475 402.6 227.906 401.156 226.875 396.825L189.956 232.65C189.131 229.35 191.813 226.256 195.113 226.256H210.581H225.225H242.55H248.944H258.844H262.969H286.894H302.363L365.475 226.462C370.013 226.462 372.281 231.619 369.6 235.125L362.588 243.581L361.763 244.612L341.344 269.569C339.488 271.837 339.9 275.137 341.963 276.994L523.875 427.556Z" fill="#0B7D98"/>
<path d="M523.876 190.162C523.876 216.356 493.351 230.588 473.344 213.675L413.738 163.556C412.501 162.525 410.851 162.731 409.819 163.969L394.351 182.944C392.907 184.8 390.019 183.975 389.607 181.706L372.694 106.838C372.282 105.188 373.726 103.538 375.376 103.538L453.132 103.744C455.401 103.744 456.638 106.425 455.194 108.281L442.819 123.338C441.788 124.575 441.994 126.225 443.232 127.256L523.876 190.162Z" fill="#86EFFA"/>
<path d="M472.725 476.85C413.944 476.85 356.813 456.225 311.644 418.688L306.9 414.769C305.869 413.944 304.219 413.944 303.394 415.181L282.356 440.963C281.119 442.613 278.438 441.994 278.025 439.931L261.732 367.744L256.369 343.819C255.957 342.169 257.194 340.725 258.844 340.725H259.463H260.494L358.669 341.138C360.731 341.138 361.969 343.613 360.525 345.263L343.407 366.3C342.582 367.331 342.582 368.981 343.819 369.806L472.725 476.85Z" fill="#159BBA"/>
<path d="M102.3 375.994C101.063 377.438 100.444 379.294 100.65 381.15C100.856 383.006 101.681 384.656 103.125 385.894L192.431 453.131H193.875L103.744 385.069C102.506 384.037 101.681 382.594 101.475 380.944C101.269 379.294 101.888 377.85 102.919 376.613L114.469 363C116.119 360.937 116.531 358.05 115.5 355.781C114.469 353.306 111.994 351.863 109.313 351.863L34.2377 351.656H11.1377C9.07516 351.656 7.01266 352.688 5.77516 354.338C4.53766 355.988 3.91891 358.05 4.53766 360.113L25.7814 451.481C26.4002 453.956 28.2564 456.019 30.9377 456.637C33.4127 457.256 36.0939 456.431 37.7439 454.369L54.2439 434.981C56.3064 432.506 60.0189 432.094 62.4939 434.156L116.325 477.262H117.563L62.7002 433.331C59.8127 431.062 55.6877 431.475 53.2127 434.156L36.7127 453.544C35.2689 455.194 33.0002 456.019 30.7314 455.4C28.4627 454.781 26.8127 453.131 26.4002 451.069L5.36266 359.7C4.95016 357.844 5.36266 356.194 6.39391 354.75C7.42516 353.306 9.28141 352.481 10.9314 352.481H34.2377L109.313 352.687C111.581 352.687 113.644 353.925 114.675 356.194C115.706 358.256 115.294 360.731 113.85 362.381L102.3 375.994Z" fill="#0B7D98"/>
<path d="M343.2 172.013C343.2 172.013 339.9 164.794 331.856 165.619C323.606 166.444 324.637 173.869 320.718 173.044C316.8 172.425 311.437 173.044 310.2 177.581C308.962 182.119 303.806 179.644 303.6 183.563C303.393 187.481 309.581 190.163 316.8 186.656C324.019 183.356 327.525 189.337 337.631 188.1C347.737 187.069 348.975 185.625 354.956 186.244C360.937 186.863 360.731 182.119 358.05 179.025C355.368 175.931 344.437 176.344 343.2 172.013Z" fill="#F6F8F9"/>
<path d="M366.3 59.4C366.3 59.4 362.175 49.9125 351.45 51.15C340.725 52.3875 342.168 61.6687 337.012 60.8437C331.856 60.0187 324.844 60.8437 323.4 66.825C321.956 72.8062 314.944 69.5062 314.737 74.4562C314.531 79.4062 322.575 82.9125 332.062 78.5812C341.344 74.25 346.087 82.0875 359.287 80.6437C372.487 79.2 374.137 77.55 381.975 78.375C389.812 79.2 389.606 73.0125 386.1 68.8875C382.181 64.7625 367.95 65.175 366.3 59.4Z" fill="#F6F8F9"/>
<path d="M47.8502 228.319C47.8502 228.319 55.069 213.881 73.0127 215.737C90.9565 217.594 88.894 232.031 97.5565 230.794C106.219 229.35 118.181 230.794 120.656 239.869C123.131 248.944 134.888 243.994 135.3 251.625C135.713 259.256 121.894 264.825 106.013 258.019C90.1315 251.212 82.294 263.381 60.019 261.112C37.744 258.844 34.8565 256.162 21.6565 257.606C8.45647 259.05 8.66272 249.356 14.8502 242.962C21.0377 236.569 45.3752 237.187 47.8502 228.319Z" fill="#F6F8F9"/>
<path d="M122.925 188.1C122.925 188.1 126.431 181.088 135.3 181.913C144.168 182.738 143.137 189.75 147.262 189.131C151.387 188.513 157.368 189.131 158.606 193.463C159.843 197.794 165.618 195.525 165.825 199.238C166.031 202.95 159.225 205.631 151.387 202.331C143.55 199.031 139.837 204.806 128.906 203.775C117.975 202.744 116.531 201.3 110.137 202.125C103.743 202.744 103.743 198.206 106.837 195.113C109.725 192.019 121.687 192.225 122.925 188.1Z" fill="#F6F8F9"/>
<path d="M63.5247 136.331C63.5247 136.331 67.6497 127.875 78.1684 128.906C88.6872 129.937 87.4497 138.394 92.3997 137.569C97.3497 136.744 104.568 137.569 106.012 142.725C107.456 147.881 114.262 144.994 114.468 149.531C114.675 154.069 106.631 157.162 97.3497 153.244C88.0684 149.325 83.5309 156.337 70.5372 155.1C57.5434 153.862 55.8934 152.212 48.0559 153.037C40.2184 153.862 40.4247 148.294 43.9309 144.581C47.8497 140.869 62.0809 141.281 63.5247 136.331Z" fill="#F6F8F9"/>
<path d="M220.069 65.3813C220.069 65.3813 222.75 71.3625 232.237 69.3C241.725 67.2375 254.1 74.25 249.769 80.2313C245.231 86.2125 263.381 83.325 262.762 95.0813C262.144 106.838 253.687 116.325 236.569 109.931C219.45 103.744 210.581 73.0125 210.581 73.0125L220.069 65.3813Z" fill="#29292C"/>
<path d="M204.6 82.0875C197.794 84.3563 184.388 88.0688 184.388 88.0688C183.769 87.45 185.007 65.3813 185.007 65.3813L177.582 65.7938C177.582 65.7938 170.363 93.0188 177.788 98.3813C185.419 103.95 203.157 96.3188 203.157 96.3188C203.157 96.3188 208.932 80.6438 204.6 82.0875Z" fill="#EBAF7F"/>
<path d="M183.563 93.225C183.563 93.225 183.769 93.225 183.563 93.225C184.8 91.575 184.594 88.0687 184.594 88.0687C184.594 88.0687 184.594 87.8625 184.388 87.8625C184.388 87.8625 184.181 87.8625 184.181 88.0687C184.181 88.0687 184.388 91.575 183.356 93.0187C183.356 93.0187 183.356 93.0187 183.563 93.225Z" fill="#D57F63"/>
<path d="M244.2 134.475C243.581 137.156 232.856 139.631 220.069 136.744C207.281 133.856 199.238 132.619 198 128.906C198 128.906 209.55 124.369 222.338 127.256C235.125 130.144 244.819 131.794 244.2 134.475Z" fill="#29292C"/>
<path d="M196.969 99.4125C190.369 95.2875 191.812 85.8 191.812 85.8C191.812 85.8 200.681 82.7062 210.581 81.0562C214.294 80.4375 215.737 80.2312 217.387 80.2312C240.694 80.2312 243.994 133.031 244.2 134.062C219.45 128.287 197.794 128.906 197.794 128.906C195.525 110.137 196.762 100.444 196.969 99.4125Z" fill="#E17857"/>
<path d="M200.888 98.5875C200.888 98.5875 193.875 90.3375 191.812 85.8C191.812 85.8 199.031 82.2938 208.312 80.4375L200.888 98.5875Z" fill="#E17857"/>
<path d="M210.788 80.6437C210.788 80.6437 230.382 78.375 240.488 85.1812L227.907 95.0812L210.788 80.6437Z" fill="#E17857"/>
<path d="M227.906 94.6687C229.144 96.3187 233.062 95.7 236.569 93.0187C240.075 90.5437 242.137 87.0375 240.9 85.3875C239.662 83.7375 235.744 84.3562 232.237 87.0375C228.525 89.7187 226.669 93.0187 227.906 94.6687Z" fill="#29292C"/>
<path d="M257.813 135.713C253.069 124.369 245.644 110.963 235.744 99.6188C233.475 96.9375 232.65 96.1125 231 94.6688C229.763 93.6375 230.382 90.1313 232.238 88.0688C234.094 86.0063 237.6 85.1813 238.425 85.5938C239.663 86.4188 241.313 88.275 243.994 91.1625C253.069 101.269 259.257 112.613 266.682 131.588L257.813 135.713Z" fill="#EBAF7F"/>
<path d="M268.744 134.475C267.094 131.587 265.444 129.938 265.444 129.938C265.444 129.938 258.225 131.794 258.019 132.412C257.607 134.062 257.4 137.362 256.988 139.012C256.782 139.631 256.369 142.106 256.988 142.312C257.607 142.519 258.844 140.869 259.463 139.838C261.113 144.169 265.65 149.737 262.763 140.456C263.175 141.281 265.444 147.262 266.475 146.231C267.507 145.406 266.063 140.869 265.444 139.425C266.269 140.869 268.332 145.2 268.95 144.169C269.775 142.725 267.713 138.187 267.713 138.187C267.713 138.187 269.363 142.313 270.6 140.869C271.425 139.838 269.775 136.537 268.95 135.094C268.95 134.887 268.95 134.681 268.744 134.475Z" fill="#EBAF7F"/>
<path d="M208.518 84.3563C211.2 85.5938 215.943 82.5 218.006 80.2313C218.006 80.2313 215.325 79.8188 214.912 78.7875C214.293 77.55 213.262 73.8375 213.262 73.8375V73.0125L210.993 65.3813L210.375 73.0125L210.168 74.8688L209.962 76.725V77.3438V78.5813C209.962 79.6125 209.55 80.025 208.312 80.2313C208.312 80.4375 206.043 83.325 208.518 84.3563Z" fill="#EBAF7F"/>
<path d="M219.45 218.213C219.45 218.213 219.45 221.306 217.182 222.338C214.913 223.163 208.313 223.988 210.788 226.05C212.232 227.288 218.832 226.463 220.688 226.463C222.544 226.463 224.4 227.288 225.638 226.05C227.082 224.813 225.638 218.213 225.638 218.213C225.638 218.213 223.988 219.038 222.544 219.038C220.482 218.831 219.45 218.213 219.45 218.213Z" fill="#29292C"/>
<path d="M257.607 218.213C257.607 218.213 257.607 221.306 255.338 222.338C253.069 223.163 246.469 223.988 248.944 226.05C250.388 227.288 256.988 226.463 258.844 226.463C260.7 226.463 262.557 227.288 263.794 226.05C265.238 224.813 263.794 218.213 263.794 218.213C263.794 218.213 262.144 219.038 260.7 219.038C258.638 218.831 257.607 218.213 257.607 218.213Z" fill="#29292C"/>
<path d="M204.6 130.763C203.569 130.763 202.744 131.588 202.744 132.619C202.744 137.156 203.363 149.738 206.869 169.744C210.169 188.306 213.882 206.869 215.738 215.737C216.357 218.831 219.244 221.306 222.544 221.306H224.4C228.113 221.512 231 218.419 230.588 214.912L226.05 154.688C226.05 154.688 233.682 133.65 228.525 132.412C221.307 130.556 209.138 130.556 204.6 130.763Z" fill="#86EFFA"/>
<path d="M210.788 130.762L251.832 216.975C253.482 220.481 269.363 222.544 265.444 213.056L242.757 135.712C242.344 134.681 233.682 133.237 232.857 133.031C227.907 131.587 210.788 130.762 210.788 130.762Z" fill="#86EFFA"/>
<path d="M226.669 164.381C226.875 164.381 226.875 164.175 226.875 164.175L221.306 150.15C219.244 145.2 216.562 142.312 214.5 140.662C212.438 139.012 210.787 138.394 210.581 138.394C210.375 138.394 210.375 138.394 210.375 138.6C210.375 138.806 210.375 138.806 210.581 138.806C210.581 138.806 217.181 140.869 220.894 150.15L226.669 164.381C226.463 164.175 226.669 164.381 226.669 164.381Z" fill="#090909"/>
<path d="M198.826 70.3312L180.676 67.2375C179.644 67.0312 179.026 66.2062 179.232 65.175L179.644 63.1125C179.851 62.0812 180.676 61.4625 181.707 61.6687L199.857 64.7625C200.888 64.9687 201.507 65.7937 201.301 66.825L200.888 68.8875C200.476 69.9187 199.651 70.5375 198.826 70.3312Z" fill="#0B7D98"/>
<path d="M187.068 70.3312L169.537 67.4437C168.3 67.2375 167.475 66 167.681 64.7625L168.506 60.4312C168.712 59.1937 169.95 58.3687 170.981 58.575L188.512 61.4625C189.75 61.6687 190.575 62.9062 190.368 64.1437L189.75 68.475C189.543 69.7125 188.306 70.5375 187.068 70.3312Z" fill="#515154"/>
<path d="M172.632 69.0937L144.788 64.35C143.757 64.1437 143.138 63.3187 143.344 62.2875L144.582 54.6562C144.788 53.625 145.613 53.0062 146.644 53.2125L174.488 57.75C175.519 57.9562 176.138 58.7812 175.932 59.8125L174.694 67.4437C174.488 68.6812 173.663 69.3 172.632 69.0937Z" fill="#159BBA"/>
<path d="M142.931 64.9687L141.487 64.7625C140.662 64.5562 140.25 63.9375 140.25 63.1125L141.9 52.5937C142.106 51.7687 142.725 51.3562 143.55 51.3562L144.994 51.5625C145.819 51.7687 146.231 52.3875 146.231 53.2125L144.581 63.7312C144.375 64.5562 143.756 65.175 142.931 64.9687Z" fill="#0B7D98"/>
<path d="M181.5 58.575C181.5 58.575 179.644 57.75 178.819 59.6063C177.994 61.875 178.819 65.3812 179.438 64.1438C180.056 62.9063 180.263 61.4625 180.263 61.4625C180.263 61.4625 179.644 65.7937 180.675 65.5875C181.706 65.3812 182.325 61.875 182.325 61.875C182.325 61.875 182.119 66 182.944 65.5875C183.975 65.175 184.388 62.4937 184.388 62.4937C184.388 62.4937 183.975 65.7937 185.006 65.175C186.038 64.5562 185.831 62.0813 186.038 61.05C186.244 60.0188 185.625 59.6063 184.594 59.6063C184.594 59.6063 183.563 58.9875 182.944 58.9875C182.738 58.9875 182.531 58.7813 182.325 58.7813C182.119 58.575 181.5 58.575 181.5 58.575Z" fill="#EBAF7F"/>
<path d="M210.169 76.725C211.819 76.1062 213.263 74.25 213.263 74.25H213.056L210.375 74.8687L210.169 76.725Z" fill="#29292C"/>
<path d="M220.069 65.3813C220.069 65.3813 219.657 66.6188 219.863 69.0938C220.482 73.0125 215.738 73.8375 214.707 72.6C214.501 72.3938 215.738 66.2063 215.738 66.2063L217.182 65.5875L220.069 65.3813Z" fill="#29292C"/>
<path d="M203.157 65.5875C203.775 60.8437 207.694 57.3375 211.819 57.9562C215.944 58.575 218.625 62.9062 218.007 67.65C217.388 72.3937 213.469 75.9 209.344 75.2812C205.013 74.6625 202.332 70.3312 203.157 65.5875Z" fill="#EBAF7F"/>
<path d="M208.519 59.4C208.726 59.6062 206.869 63.9375 215.326 66.2062C223.782 68.475 220.069 57.75 213.676 56.5125C204.394 54.8625 202.126 60.6375 202.744 62.9062C203.569 65.3812 208.519 59.4 208.519 59.4Z" fill="#29292C"/>
<path d="M214.706 64.7625C214.706 64.7625 217.8 68.8875 215.944 72.1875C215.944 72.1875 218.419 70.3312 218.419 69.5062C218.625 68.6812 218.419 65.7937 218.419 65.7937L214.706 64.7625Z" fill="#29292C"/>
<path d="M216.769 68.6812C215.738 69.3 214.707 69.3 214.088 68.475C213.675 67.65 213.882 66.6187 214.913 66C215.944 65.3812 216.975 65.3812 217.594 66.2062C218.007 66.825 217.594 68.0625 216.769 68.6812Z" fill="#EBAF7F"/>
<path d="M209.757 66.4125C209.55 66.2062 209.757 66.2062 209.757 66.2062C209.757 66.2062 210.994 65.7937 211.819 67.0312V67.2375H211.613C210.994 66.6187 209.963 66.4125 209.757 66.4125Z" fill="#0F0C37"/>
<path d="M204.394 66.2062C204.394 66.2062 204.187 66.2062 204.394 66.2062C204.187 66 204.188 66 204.188 65.7937C204.188 65.7937 205.219 64.9687 206.456 65.7937C206.456 65.7937 206.662 66 206.456 66H206.25C205.425 65.7937 204.6 66.2062 204.394 66.2062Z" fill="#0F0C37"/>
<path d="M206.043 67.8562C206.249 68.2687 206.043 68.6812 205.837 68.6812C205.631 68.6812 205.218 68.475 205.218 68.0625C205.012 67.65 205.218 67.2375 205.424 67.2375C205.424 67.2375 205.837 67.65 206.043 67.8562Z" fill="#0F0C37"/>
<path d="M205.838 70.3312C205.838 70.3312 206.044 72.6 207.9 72.8062C209.757 73.0125 210.375 70.95 210.375 70.95C210.375 70.95 207.9 71.5687 205.838 70.3312Z" fill="white"/>
<path d="M211.819 68.6813C210.788 67.8562 209.757 68.2687 209.757 68.2687C209.757 68.2687 209.757 68.2687 209.757 68.475C209.757 68.475 209.757 68.475 209.963 68.475C209.757 68.475 210.788 68.2687 211.819 68.6813Z" fill="#090909"/>
<path d="M274.931 476.85C216.15 476.85 159.019 456.225 113.85 418.688L77.1374 388.163C76.1061 387.338 74.4561 387.338 73.6311 388.575L52.5936 414.356C51.3561 416.006 48.6749 415.388 48.2624 413.325L34.6499 352.481L34.4436 351.45L26.8124 317.213C26.3999 315.563 27.6374 314.119 29.2874 314.119L129.112 314.531C131.175 314.531 132.412 317.006 130.969 318.656L113.437 339.694C112.612 340.725 112.612 342.375 113.85 343.2L274.931 476.85Z" fill="#86EFFA"/>
</svg>
