<?xml version="1.0" encoding="utf-8"?>
<!-- Generator: Adobe Illustrator 24.1.1, SVG Export Plug-In . SVG Version: 6.00 Build 0)  -->
<svg version="1.1" id="Слой_1" xmlns="http://www.w3.org/2000/svg" xmlns:xlink="http://www.w3.org/1999/xlink" x="0px" y="0px"
	 viewBox="0 0 24 24" style="enable-background:new 0 0 24 24;" xml:space="preserve">
<g>
	<path d="M22.6,15.9c-0.5-3.2-3.8-5.4-6.9-4.7c-3,0.7-4.9,3.3-4.5,6.4c0.2,2.2,1.9,4.2,4.1,4.8c0.4,0.1,0.8,0.2,1.2,0.3
		c0.3,0,0.6,0,1,0c0.4-0.1,0.9-0.1,1.3-0.3c2.3-0.8,3.6-2.5,4-4.9c0,0,0-0.1,0-0.1c0-0.3,0-0.6,0-1C22.7,16.3,22.6,16.1,22.6,15.9z
		 M16.8,16.2c0.1,0,0.1,0,0.2,0c0.7,0,1.3,0.4,1.6,1.1c0.3,0.8,0,1.6-0.8,2c-0.2,0.1-0.3,0.2-0.3,0.4c0,0.3-0.1,0.5-0.4,0.6
		c-0.2,0.1-0.5,0.1-0.7-0.1c-0.2-0.1-0.2-0.3-0.3-0.5c0-0.1,0-0.1,0-0.2c-0.2,0-0.3,0-0.4,0c-0.4,0-0.7-0.3-0.7-0.7
		c0-0.4,0.3-0.7,0.7-0.7c0.4,0,0.7,0,1.1,0c0.1,0,0.1,0,0.2,0c0.2,0,0.3-0.1,0.3-0.3c0-0.2-0.1-0.3-0.2-0.3c-0.1,0-0.2,0-0.4,0
		c-0.8,0-1.4-0.5-1.6-1.3c-0.2-0.7,0.2-1.5,0.8-1.8c0.2-0.1,0.3-0.2,0.3-0.4c0-0.4,0.2-0.6,0.6-0.7c0.3,0,0.6,0.2,0.7,0.5
		c0,0.1,0,0.3,0,0.4c0.1,0,0.3,0,0.4,0c0.4,0,0.7,0.3,0.7,0.7c0,0.4-0.3,0.6-0.7,0.6c-0.4,0-0.8,0-1.2,0c-0.2,0-0.3,0.1-0.3,0.3
		C16.5,16.1,16.6,16.2,16.8,16.2z"/>
	<path d="M16.5,9.1c0.2,0.2,0.5,0.3,0.8,0.3c0.3-0.1,0.6-0.3,0.7-0.6c0.1-0.3,0-0.7-0.2-0.9c-0.4-0.4-0.7-0.7-1.1-1.1
		c-0.1-0.1-0.2-0.2-0.2-0.4c0-1.1,0-2.2,0-3.2c0-0.5-0.4-0.9-0.9-0.9c-0.5,0-0.9,0.4-0.9,1c0,0.5,0,1,0,1.5c0,0.1,0,0.1,0,0.2
		c0,0,0,0-0.1,0c-0.1-0.1-0.1-0.2-0.2-0.2c-1-0.9-1.9-1.9-2.9-2.8c-0.2-0.2-0.4-0.3-0.7-0.5c-0.1,0-0.3,0-0.4,0
		C10.2,1.5,10,1.6,9.8,1.8c-2.7,2.6-8.2,8-8.2,8.1c-0.2,0.2-0.4,0.5-0.4,0.9c0,0.7,0.5,1.2,1.2,1.2c0,0,1.4,0,1.6,0
		c0,0.1,0,3.3,0,4.8c0,1.3,0.9,2.3,2.3,2.3c0.7,0,1.4,0,2.1,0c0.6,0,1-0.4,0.9-0.9c0-0.5-0.4-0.9-1-0.9c-0.7,0-1.3,0-2,0
		c-0.5,0-0.6-0.1-0.6-0.6c0-1.8,0-3.7,0-5.5c0-0.6-0.4-1-1-1c-0.3,0-0.9,0-1,0c2.3-2.3,4.6-4.5,6.9-6.8c0.1,0.1,0.1,0.1,0.2,0.2
		c0.9,0.9,1.9,1.8,2.8,2.8C14.6,7.3,15.5,8.2,16.5,9.1z"/>
</g>
</svg>
