<?xml version="1.0" encoding="utf-8"?>
<!-- Generator: Adobe Illustrator 24.1.1, SVG Export Plug-In . SVG Version: 6.00 Build 0)  -->
<svg version="1.1" id="Слой_1" xmlns="http://www.w3.org/2000/svg" xmlns:xlink="http://www.w3.org/1999/xlink" x="0px" y="0px"
	 viewBox="0 0 24 24" style="enable-background:new 0 0 24 24;" xml:space="preserve">
<g>
	<path d="M21.3,6.2c-0.2-1.4-1.4-2.5-3-2.5c-4.2,0-8.5,0-12.7,0c-1.7,0-3,1.3-3,3c0,2.6,0,5.2,0,7.8c0,1.7,1.3,3,3,3
		c0.7,0,1.4,0,2.1,0c0.4,0,0.9,0,1.3,0c0.5,0,0.9-0.5,0.7-1c-0.1-0.3-0.4-0.5-0.8-0.5c-1.1,0-2.2,0-3.3,0c-1,0-1.6-0.6-1.6-1.6
		c0-2.6,0-5.1,0-7.7c0-1,0.6-1.6,1.6-1.6c4.2,0,8.4,0,12.6,0c1,0,1.6,0.6,1.6,1.6c0,1,0,2.1,0,3.1c0,0.3,0,0.7,0,1
		c0,0.5,0.5,0.9,1,0.7c0.2-0.1,0.4-0.3,0.5-0.5C21.4,9.4,21.4,7.8,21.3,6.2C21.4,6.2,21.3,6.2,21.3,6.2z"/>
	<path d="M14.1,19.2c-0.4,0.4-0.8,0.8-1.2,1.2c0,0-0.1,0.1-0.2,0.1c0-0.1,0-0.2,0-0.2c0-2.1,0-4.3,0-6.4c0-0.1,0-0.1,0-0.2
		c0-0.5-0.6-0.8-1-0.6c-0.3,0.1-0.5,0.4-0.5,0.8c0,2.1,0,4.3,0,6.4c0,0.1,0,0.1,0,0.2c-0.1-0.1-0.1-0.1-0.2-0.2
		c-0.4-0.4-0.7-0.7-1.1-1.1c-0.3-0.3-0.8-0.3-1.1,0c-0.3,0.3-0.3,0.7,0,1.1c0.1,0.1,0.3,0.3,0.4,0.4c0.2,0.2,0.5,0.5,0.7,0.7
		c0.4,0.5,1,0.9,1.6,1c0.2,0,0.3,0,0.5,0c0.4-0.1,0.8-0.2,1.1-0.5c0.6-0.6,1.2-1.1,1.7-1.7c0.2-0.2,0.2-0.4,0.2-0.6
		C15.2,19,14.5,18.8,14.1,19.2z"/>
	<path d="M20.5,13.7c-0.4,0-0.6,0.3-0.6,0.7c0,0.1,0,0.3-0.1,0.4c-0.2,0.7-0.7,1.1-1.5,1.1c-1.1,0-2.3,0-3.4,0
		c-0.4,0-0.8,0.3-0.8,0.7c0,0.4,0.3,0.7,0.7,0.7c1.2,0,2.4,0,3.6,0c1.2,0,2-0.6,2.6-1.7c0.1-0.3,0.2-0.6,0.3-0.9c0-0.2,0-0.3,0-0.5
		c0,0,0,0,0,0C21.2,13.9,20.9,13.7,20.5,13.7z"/>
	<path d="M13.7,12.4c0.1,0.3,0.3,0.5,0.6,0.6c0.3,0.1,0.6-0.1,0.8-0.4c1.1-1.7,0.8-3.9-0.7-5.2c-1.1-1-2.7-1.2-3.9-0.5
		c-1.4,0.8-2,2-2.1,3.6c0,0.2,0,0.5,0.1,0.8c0.1,0.5,0.3,1,0.5,1.4C9.1,13,9.4,13.1,9.7,13c0.3-0.1,0.5-0.3,0.6-0.6
		c0-0.2-0.1-0.4-0.2-0.6c-0.5-0.9-0.5-1.8,0-2.7C10.7,8,12,7.7,13.1,8.3c0.7,0.5,1.1,1.2,1.2,2c0,0.5-0.1,1-0.4,1.5
		C13.7,12,13.6,12.2,13.7,12.4z"/>
	<path d="M5.5,10.5c0,0.4,0.3,0.7,0.7,0.7c0.4,0,0.7-0.3,0.7-0.7c0-0.4-0.3-0.7-0.7-0.7C5.8,9.7,5.5,10.1,5.5,10.5z"/>
	<path d="M18.5,10.5c0-0.4-0.3-0.7-0.7-0.7c-0.4,0-0.7,0.3-0.7,0.7c0,0.4,0.3,0.7,0.7,0.7C18.2,11.2,18.6,10.9,18.5,10.5z"/>
</g>
</svg>
