<?xml version="1.0" encoding="utf-8"?>
<!-- Generator: Adobe Illustrator 24.1.1, SVG Export Plug-In . SVG Version: 6.00 Build 0)  -->
<svg version="1.1" id="Слой_1" xmlns="http://www.w3.org/2000/svg" xmlns:xlink="http://www.w3.org/1999/xlink" x="0px" y="0px"
	 viewBox="0 0 24 24" style="enable-background:new 0 0 24 24;" xml:space="preserve">
<g>
	<path d="M21.7,8.4c-0.7-0.4-1.4-0.9-2.2-1.3c-0.2-0.1-0.3-0.3-0.2-0.5c0.1,0,0.3,0,0.4,0c0.3,0,0.5-0.2,0.5-0.5c0-0.3,0-0.5,0-0.8
		c0-0.2-0.1-0.4-0.2-0.5c-1.2-0.9-2.3-1.8-3.5-2.6C16.2,2,16,2,15.8,2.1c-0.2,0.1-0.4,0.3-0.5,0.4C15.1,2.1,15,2,14.5,2
		c-0.3,0-0.7,0-1,0c-0.4,0-0.6,0.2-0.6,0.6c0,0.3,0,0.6,0,1c0.1,0.6-0.7,1.2-0.7,1.3C12.1,4.9,12,5.1,12,5.2c0,0.3,0,0.6,0,0.8
		c0,0.3,0.2,0.5,0.5,0.5c0.1,0,0.3,0,0.4,0c0,0.3,0,0.6,0,1c-0.1,0-0.2-0.1-0.2-0.1c-0.7-0.4-1.4-0.8-2-1.1C10.3,6.1,10,6,9.7,6.1
		C9,6.1,8.5,6.6,8.4,7.1C8.3,7.7,8.5,8.2,9,8.6c1.3,0.9,2.6,1.8,3.9,2.8c0.1,0.1,0.2,0.1,0.3,0.2c0.6,0.3,1.3,0.5,1.9,0.8
		c0.2,0.1,0.4,0.1,0.6,0.1c1.9,0,3.8,0,5.7,0c0.4,0,0.6-0.2,0.6-0.6c0-1,0-2,0-3C22,8.7,21.9,8.5,21.7,8.4z M12.8,5.6
		c0.1-0.1,0.5-0.6,0.7-0.7c0.2-0.1,0.3-0.3,0.3-0.5c0-0.5,0-1,0-1.5c0.1,0,0.3,0,0.4,0c0,0.2,0,0.3,0,0.5c0,0.2,0.1,0.4,0.2,0.4
		C14.7,4,14.9,4,15,3.8c0.3-0.2,0.6-0.4,0.9-0.7c0.1-0.1,0.2-0.1,0.3,0c1,0.7,3,2.4,3.1,2.5c-0.3,0-0.5,0-0.7,0.1
		c-0.2,0.1-0.2,0.4-0.2,0.6c-0.1,0-0.1,0-0.2-0.1c-0.2-0.1-0.5-0.3-0.7-0.4c-0.7-0.4-1.5-0.3-2,0.3c-0.5,0.6-0.4,1.4,0.1,2
		c0.2,0.2,0.3,0.3,0.5,0.5c0,0,0,0,0,0.1c-0.4-0.1-0.8-0.1-1.3-0.2c-0.3,0-0.6-0.2-0.9-0.3c-0.1-0.1-0.2-0.1-0.2-0.3
		c0-0.5,0-1.1,0-1.6c0-0.5-0.1-0.6-0.6-0.6C13.1,5.6,13,5.6,12.8,5.6z M20.8,11.5c-1.6,0-3.3,0-4.9,0c-0.1,0-0.3,0-0.4-0.1
		c-0.3-0.1-0.7-0.3-1-0.4c-0.6-0.2-1.2-0.5-1.7-0.9c-1.1-0.8-2.1-1.5-3.2-2.3C9.3,7.7,9.2,7.4,9.3,7.2c0.2-0.3,0.5-0.3,0.8-0.1
		c1,0.6,2.1,1.1,3.1,1.7c0.5,0.3,1.1,0.5,1.7,0.6c0.8,0.1,1.5,0.2,2.3,0.3c0.3,0,0.4,0,0.5-0.2c0.1-0.2,0.1-0.4-0.1-0.6
		c-0.5-0.5-0.9-0.9-1.4-1.4C16,7.2,16,7,16.2,6.8c0.2-0.3,0.5-0.3,0.8-0.1c1.3,0.8,2.6,1.6,3.9,2.4c0.1,0,0.1,0.1,0.1,0.2
		c0,0.8,0,1.5,0,2.4C21,11.5,20.9,11.5,20.8,11.5z"/>
	<path d="M14.6,15.7c-0.5-0.1-0.9,0-1.3,0.2c-0.3,0.2-0.6,0.3-0.8,0.5c-0.1-0.4-0.1-0.7-0.2-1c-0.3-1-1-1.8-1.9-2.5
		c-0.1-0.1-0.2-0.1-0.1-0.3c0.1-0.4,0.2-0.9,0.3-1.3c0.1-0.4-0.1-0.6-0.5-0.6c-0.9,0-1.7,0-2.6,0c-0.4,0-0.6,0.2-0.5,0.7
		c0.1,0.4,0.2,0.9,0.3,1.3c0,0.1,0,0.2-0.1,0.3c-0.3,0.2-0.6,0.5-0.8,0.7c-0.7,0.7-1.1,1.5-1.2,2.5c0,0.1-0.1,0.2-0.2,0.2
		c-0.9,0.5-1.8,1.1-2.7,1.6C2.1,18,2,18.2,2,18.5c0,1,0,1.9,0,2.9C2,21.8,2.2,22,2.6,22c1.7,0,3.4,0,5.1,0c0.5,0,1-0.1,1.5-0.3
		c0.7-0.3,1.4-0.5,2-0.9c1.3-0.9,2.5-1.8,3.8-2.6c0.1-0.1,0.2-0.1,0.2-0.2C16,17.2,15.7,15.9,14.6,15.7z M9.6,11.6
		c-0.1,0.3-0.1,0.6-0.2,0.8c0,0-0.1,0.1-0.1,0.1c-0.3,0-0.6,0-0.9,0c0,0-0.1,0-0.1-0.1c-0.1-0.3-0.1-0.5-0.2-0.8
		C8.6,11.6,9.1,11.6,9.6,11.6z M6.6,14.8c0.4-0.6,0.8-1,1.4-1.4c0.1,0,0.2-0.1,0.2-0.1c0.4,0,0.8,0,1.2,0c0.1,0,0.1,0,0.2,0
		c0.9,0.6,1.6,1.3,1.8,2.3c0.1,0.3,0.1,0.6,0.1,0.9c0,0.1,0,0.2-0.2,0.3c-0.5,0.3-1.1,0.6-1.6,0.9C9.5,17.9,9.1,18,8.8,18
		c-0.3,0.1-0.6,0.1-1,0.1C8,18,8.2,17.8,8.3,17.7c0.3-0.3,0.5-0.7,0.5-1.1c0-0.9-0.9-1.6-1.8-1.4c-0.2,0.1-0.5,0.2-0.8,0.3
		C6.4,15.2,6.5,15,6.6,14.8z M14.5,17.4c-0.5,0.4-1,0.7-1.5,1.1c-0.7,0.5-1.5,1-2.2,1.5c-0.2,0.2-0.5,0.3-0.7,0.4
		c-0.1,0.1-0.3,0.1-0.5,0.2c-0.9,0.4-1.8,0.6-2.7,0.5c-1.2,0-2.4,0-3.7,0c-0.1,0-0.2,0-0.3,0c0-0.1,0-0.1,0-0.2c0-0.7,0-1.4,0-2.1
		c0-0.1,0.1-0.2,0.1-0.2C4.4,17.7,5.7,17,7,16.2c0.1-0.1,0.2-0.1,0.3-0.1c0.3,0,0.5,0.1,0.6,0.3c0.1,0.2,0,0.4-0.2,0.6
		c-0.5,0.5-1,1-1.4,1.4c-0.2,0.2-0.2,0.4-0.1,0.6c0.1,0.2,0.3,0.3,0.5,0.2c1-0.1,2-0.3,3-0.4c0.1,0,0.2-0.1,0.4-0.1
		c1.2-0.7,2.5-1.4,3.7-2.1c0.1-0.1,0.3-0.1,0.4-0.1c0.2,0,0.4,0.2,0.5,0.4C14.8,17,14.7,17.2,14.5,17.4z"/>
</g>
</svg>
