<?xml version="1.0" encoding="utf-8"?>
<!-- Generator: Adobe Illustrator 24.1.1, SVG Export Plug-In . SVG Version: 6.00 Build 0)  -->
<svg version="1.1" id="Слой_1" xmlns="http://www.w3.org/2000/svg" xmlns:xlink="http://www.w3.org/1999/xlink" x="0px" y="0px"
	 viewBox="0 0 24 24" style="enable-background:new 0 0 24 24;" xml:space="preserve">
<g>
	<path d="M12.3,16.1c-1.5-1.5-2.9-2.9-4.4-4.4c-0.4-0.4-0.7-0.4-1,0C5.4,13.1,4,14.6,2.5,16c-0.1,0.1-0.2,0.3-0.4,0.5
		c0,0.1,0,0.2,0,0.3c0.1,0.1,0.1,0.2,0.2,0.2c0.2,0.2,0.5,0.2,0.8,0c0.1,0,0.1-0.1,0.2-0.2c0,0.1,0,0.2,0,0.2c0,1.3,0,2.6,0,4
		c0,0.4,0.1,0.6,0.4,0.8c2.4,0,4.8,0,7.3,0c0.3-0.2,0.4-0.4,0.4-0.8c0-1.3,0-2.6,0-4c0-0.1,0-0.1,0-0.2c0.1,0.1,0.2,0.2,0.3,0.2
		c0.2,0.2,0.5,0.1,0.7-0.1c0.2-0.2,0.2-0.5,0.1-0.7C12.4,16.2,12.4,16.2,12.3,16.1z M8,20.7c-0.4,0-0.7,0-1.1,0c0-0.8,0-1.5,0-2.3
		c0.4,0,0.8,0,1.1,0C8,19.1,8,19.9,8,20.7z M10.3,20.6C10.3,20.6,10.3,20.6,10.3,20.6c-0.4,0.1-0.8,0.1-1.2,0.1c0-0.1,0-0.1,0-0.2
		c0-0.9,0-1.7,0-2.6c0-0.4-0.2-0.7-0.7-0.7c-0.7,0-1.4,0-2.1,0c-0.4,0-0.7,0.2-0.7,0.7c0,0.9,0,1.7,0,2.6c0,0.1,0,0.1,0,0.2
		c-0.4,0-0.8,0-1.2,0c0-0.1,0-0.1,0-0.2c0-1.5,0-3.1,0-4.6c0-0.1,0-0.2,0.1-0.3c0.9-0.9,1.8-1.8,2.7-2.7c0,0,0,0,0.1-0.1
		c0.3,0.3,0.5,0.5,0.8,0.8c0.7,0.7,1.3,1.3,2,2c0.1,0.1,0.1,0.1,0.1,0.2C10.3,17.4,10.3,19,10.3,20.6z"/>
	<path d="M21.5,6.8c-1.4-1.4-2.8-2.8-4.3-4.3c-0.1-0.1-0.3-0.2-0.5-0.4c-0.1,0-0.2,0-0.3,0c-0.2,0.1-0.3,0.2-0.5,0.4
		c-1.4,1.4-2.9,2.9-4.3,4.3c0,0-0.1,0.1-0.1,0.2c-0.2,0.2-0.2,0.6,0,0.8c0.2,0.2,0.5,0.2,0.8,0c0.1,0,0.1-0.1,0.2-0.2
		c0,0.1,0,0.2,0,0.2c0,1.3,0,2.7,0,4c0,0.5,0.2,0.7,0.7,0.7c2.2,0,4.5,0,6.7,0c0.5,0,0.7-0.2,0.7-0.7c0-1.3,0-2.7,0-4
		c0-0.1,0-0.1,0-0.2c0.1,0.1,0.1,0.1,0.2,0.2c0.2,0.2,0.6,0.2,0.8,0c0.1-0.1,0.1-0.2,0.2-0.2c0-0.1,0-0.2,0-0.3
		C21.7,7.1,21.6,6.9,21.5,6.8z M17.2,11.4c-0.4,0-0.7,0-1.1,0c0-0.8,0-1.5,0-2.3c0.4,0,0.7,0,1.1,0C17.2,9.9,17.2,10.6,17.2,11.4z
		 M19.5,7.2c0,1.3,0,2.6,0,4c0,0.1,0,0.1,0,0.2c-0.4,0-0.8,0-1.2,0c0-0.1,0-0.1,0-0.2c0-0.9,0-1.7,0-2.6c0-0.5-0.2-0.7-0.7-0.7
		c-0.7,0-1.4,0-2.1,0c-0.4,0-0.7,0.2-0.7,0.7c0,0.9,0,1.8,0,2.8c-0.4,0-0.8,0-1.1,0c0-0.1,0-0.1,0-0.2c0-1.5,0-3.1,0-4.6
		c0-0.1,0-0.2,0.1-0.2c0.9-0.9,1.8-1.8,2.7-2.7c0,0,0,0,0.1-0.1c0.8,0.8,1.6,1.6,2.4,2.4C19.4,6.3,19.6,6.7,19.5,7.2z"/>
	<path d="M18.1,13.9c-0.2-0.2-0.5-0.2-0.7,0c-0.4,0.4-0.8,0.8-1.2,1.2c-0.2,0.2-0.2,0.6,0,0.8c0.2,0.2,0.5,0.2,0.8,0
		c0.1,0,0.1-0.1,0.2-0.2c0,0.4,0,0.7,0,1c0,0.6-0.2,1.1-0.5,1.6c-0.6,0.8-1.3,1.2-2.3,1.2c-0.4,0-0.6,0.3-0.6,0.6
		c0,0.3,0.3,0.6,0.6,0.6c0.7,0,1.3-0.2,1.9-0.5c1.3-0.8,2-2,2-3.6c0-0.3,0-0.5,0-0.9c0.1,0.1,0.1,0.1,0.2,0.2c0.2,0.2,0.6,0.2,0.8,0
		c0.2-0.2,0.2-0.6,0-0.8C18.9,14.7,18.5,14.3,18.1,13.9z"/>
	<path d="M5.9,10.1c0.2,0.2,0.5,0.2,0.7,0C7,9.7,7.4,9.3,7.8,8.9C8,8.7,8,8.4,7.8,8.1C7.6,7.9,7.3,7.9,7,8.1C7,8.1,6.9,8.2,6.8,8.3
		c0-0.2,0-0.3,0-0.5c0-0.4,0-0.9,0.1-1.3c0.4-1.2,1.4-1.9,2.7-2c0.4,0,0.6-0.3,0.6-0.6c0-0.3-0.3-0.6-0.6-0.6C8,3.4,6.5,4.4,5.9,6
		C5.7,6.6,5.6,7.2,5.7,7.8c0,0.1,0,0.3,0,0.4C5.6,8.2,5.5,8.2,5.5,8.1c-0.2-0.2-0.6-0.2-0.8,0c-0.2,0.2-0.2,0.6,0,0.8
		C5.1,9.3,5.5,9.7,5.9,10.1z"/>
	<path d="M7.4,14.9c-0.3,0-0.6,0.3-0.6,0.6c0,0.3,0.3,0.6,0.6,0.6C7.7,16,8,15.8,8,15.5C8,15.1,7.7,14.9,7.4,14.9z"/>
	<path d="M16.6,5.7c-0.3,0-0.6,0.3-0.6,0.6c0,0.3,0.3,0.6,0.6,0.6c0.3,0,0.6-0.3,0.6-0.6C17.2,5.9,16.9,5.7,16.6,5.7z"/>
</g>
</svg>
