<?xml version="1.0" encoding="utf-8"?>
<!-- Generator: Adobe Illustrator 24.1.1, SVG Export Plug-In . SVG Version: 6.00 Build 0)  -->
<svg version="1.1" id="Слой_1" xmlns="http://www.w3.org/2000/svg" xmlns:xlink="http://www.w3.org/1999/xlink" x="0px" y="0px"
	 viewBox="0 0 24 24" style="enable-background:new 0 0 24 24;" xml:space="preserve">
<g>
	<path d="M19,15c-0.8,0.6-1.6,1.1-2.5,1.6c0,0-0.1,0.1-0.1,0.1c0,0,0-0.1,0-0.1c-0.2-0.9-0.8-1.4-1.8-1.4c-0.8,0-1.5,0-2.3,0
		c-0.3,0-0.6-0.1-0.8-0.3c-1.3-0.9-2.7-1.1-4.2-0.5c-0.2,0.1-0.5,0.2-0.7,0.3c0-0.1,0-0.2,0-0.4c0-0.5-0.2-0.7-0.7-0.7
		c-0.9,0-1.9,0-2.8,0c-0.4,0-0.6,0.1-0.8,0.4c0,2.4,0,4.8,0,7.1c0.1,0.2,0.2,0.3,0.4,0.4c1.1,0,2.3,0,3.4,0c0.3-0.1,0.5-0.4,0.4-0.8
		c0.1,0,0.2,0,0.2,0c2.9,0,5.7,0,8.6,0c0.7,0,1.3-0.2,1.9-0.6c1.1-0.8,2.3-1.6,3.4-2.4c0.5-0.3,0.9-0.7,1.1-1.4c0-0.2,0-0.3,0-0.5
		c0,0,0,0,0,0C21.5,14.9,20.1,14.3,19,15z M5.4,20.6c-0.6,0-1.3,0-1.9,0c0-1.9,0-3.8,0-5.7c0.6,0,1.3,0,1.9,0
		C5.4,16.8,5.4,18.7,5.4,20.6z M20.3,16.8c-0.5,0.3-0.9,0.6-1.4,1c-0.8,0.6-1.6,1.1-2.4,1.7c-0.3,0.2-0.6,0.3-1,0.3
		c-2.9,0-5.9,0-8.8,0c0,0-0.1,0-0.1,0c0-0.1,0-0.2,0-0.2c0-1.1,0-2.1,0-3.2c0-0.2,0.1-0.3,0.2-0.4c0.5-0.3,1-0.6,1.5-0.7
		c0.9-0.2,1.6,0,2.4,0.5c0.2,0.1,0.4,0.3,0.6,0.4c0.1,0.1,0.3,0.2,0.5,0.2c1,0,2,0,2.9,0c0.3,0,0.4,0.1,0.5,0.3
		c0.1,0.2,0,0.4-0.1,0.6c-0.1,0.1-0.3,0.2-0.5,0.2c-1.3,0-2.7,0-4,0c-0.1,0-0.2,0-0.2,0c-0.3,0.1-0.5,0.3-0.5,0.6
		c0,0.3,0.3,0.5,0.5,0.5c0.1,0,0.1,0,0.2,0c1.4,0,2.8,0,4.2,0c0.5,0,1-0.1,1.4-0.4c1.1-0.8,2.3-1.5,3.4-2.3c0.1-0.1,0.3-0.1,0.4-0.1
		c0.2,0,0.4,0.2,0.5,0.4C20.6,16.5,20.5,16.7,20.3,16.8z"/>
	<path d="M20.9,9.6c-0.2,0-0.4,0-0.6,0c0-0.1,0-0.1-0.1-0.2c-1.2-3.9-3.8-6.2-7.8-7c-0.3-0.1-0.6-0.1-1-0.1c-0.3,0-0.7,0-1,0
		c0,0-0.1,0-0.1,0C7.7,2.6,5.8,5.2,6.2,7.8c0.4,2.2,2.2,3.9,4.4,3.9c2.3,0.1,4.3-1.4,4.8-3.6c0-0.1,0.1-0.2,0.1-0.3
		c0.5,0.5,0.8,1.1,1.1,1.8c-0.1,0-0.3,0-0.4,0c-0.3,0-0.5,0.1-0.6,0.3c-0.1,0.3,0,0.5,0.1,0.7c0.8,0.9,1.6,1.9,2.3,2.8
		c0.3,0.4,0.7,0.4,1,0c0.5-0.6,1-1.2,1.5-1.8c0.4-0.4,0.7-0.9,1.1-1.3c0-0.1,0-0.2,0-0.3C21.5,9.7,21.3,9.6,20.9,9.6z M10.9,10.6
		c-2,0-3.6-1.6-3.6-3.6c0-2,1.6-3.6,3.6-3.6c2,0,3.6,1.6,3.6,3.6C14.5,9,12.9,10.6,10.9,10.6z M18.7,12.3c-0.4-0.5-0.8-1-1.2-1.5
		c0.1,0,0.1,0,0.1,0c0.4-0.1,0.6-0.4,0.5-0.7c-0.4-1.4-1.2-2.6-2.3-3.6c-0.1-0.1-0.2-0.2-0.2-0.4c-0.1-0.6-0.3-1.1-0.6-1.6
		c1.2,0.6,2.2,1.5,3,2.6c0.7,1,1.1,2,1.4,3.2c0.1,0.4,0.2,0.5,0.6,0.6C19.5,11.3,19.1,11.7,18.7,12.3z"/>
	<path d="M10.9,6.5c-0.2,0-0.4-0.2-0.4-0.4c0-0.2,0.1-0.4,0.3-0.4c0.2,0,0.4,0.1,0.4,0.3c0.1,0.3,0.4,0.5,0.7,0.4
		c0.3-0.1,0.5-0.4,0.4-0.8C12.2,5.3,12,5,11.6,4.8c-0.1-0.1-0.2-0.1-0.2-0.3c0-0.3-0.3-0.5-0.6-0.5c-0.3,0-0.5,0.2-0.6,0.5
		c0,0.1,0,0.1-0.1,0.2c-0.7,0.4-1,1-0.8,1.7c0.2,0.7,0.7,1.1,1.5,1.2c0.2,0,0.4,0.2,0.4,0.4c0,0.2-0.1,0.4-0.3,0.4
		c-0.2,0-0.4-0.1-0.4-0.3c-0.1-0.4-0.4-0.5-0.7-0.4C9.5,7.7,9.3,8,9.4,8.4c0.1,0.4,0.4,0.7,0.8,0.9c0.1,0,0.1,0.1,0.1,0.2
		c0,0.3,0.3,0.5,0.6,0.6c0.3,0,0.5-0.2,0.6-0.5c0-0.1,0.1-0.1,0.1-0.2c0.6-0.4,0.9-1,0.8-1.7C12.2,7,11.7,6.5,10.9,6.5z"/>
</g>
</svg>
