<svg width="417" height="417" viewBox="0 0 417 417" fill="none" xmlns="http://www.w3.org/2000/svg">
<path d="M39.4194 119.399C81.1194 53.2652 152.465 41.2113 162.728 39.7453C232.608 29.1574 284.57 65.1562 313.401 85.1918C345.654 107.508 398.43 144.158 404.294 201.659C412.113 277.24 334.74 348.423 261.114 371.716C197.423 391.752 95.128 388.82 42.0257 311.936C2.60613 255.087 2.93192 177.225 39.4194 119.399Z" fill="#F6F8F9"/>
<path d="M225.766 159.959C226.906 158.004 230.001 164.194 230.001 164.194C230.001 164.194 227.72 159.144 228.535 157.352C229.186 155.886 231.956 160.121 233.096 161.913C232.119 160.121 230.001 155.561 230.978 154.42C232.119 153.117 235.376 159.144 236.028 160.284C231.141 148.882 237.494 155.398 240.1 160.61C240.589 159.47 245.15 156.864 245.964 157.027C246.779 157.189 244.824 160.936 244.498 161.75C243.684 163.705 244.01 165.823 245.476 167.614C245.964 168.266 234.562 173.478 234.562 173.478C234.562 173.478 232.444 171.687 229.838 168.266C229.675 168.103 229.512 167.94 229.349 167.614C229.186 167.289 228.861 166.963 228.698 166.474C227.232 164.52 225.114 161.099 225.766 159.959Z" fill="#E17857"/>
<path d="M237.005 168.918C237.005 168.918 236.842 168.918 237.005 168.918C236.842 168.755 235.865 167.126 237.168 165.66C238.308 164.357 239.122 162.239 239.122 162.239C239.122 162.076 239.285 162.076 239.285 162.076C239.448 162.076 239.448 162.239 239.448 162.239C239.448 162.402 238.634 164.52 237.493 165.823C236.353 166.963 237.331 168.429 237.331 168.592C237.168 168.755 237.168 168.755 237.005 168.918Z" fill="#D3845E"/>
<path d="M269.258 155.235C269.258 155.235 258.182 176.085 254.924 173.479C251.666 170.872 246.291 164.52 246.291 164.52C246.291 164.52 234.237 169.569 232.934 174.782C232.934 174.782 243.359 196.283 260.299 195.957C276.914 195.795 280.172 160.447 280.172 160.447L269.258 155.235Z" fill="#159BBA"/>
<path d="M360.314 224.138C358.848 219.251 357.056 216.319 357.056 216.319C357.056 216.319 346.142 216.319 345.654 217.296C344.513 219.414 343.047 224.3 341.907 226.581C341.419 227.558 339.953 230.816 340.767 231.468C341.581 231.956 344.025 229.839 345.002 228.698C345.817 235.866 350.378 245.802 349.563 230.816C349.726 232.282 351.029 240.752 352.984 239.612C354.613 238.635 353.961 232.608 353.635 230.164C354.124 232.608 355.753 238.635 357.056 237.169C358.685 235.377 358.196 228.698 358.196 228.698C358.196 228.698 359.011 237.169 361.128 235.377C362.594 234.074 360.803 227.395 360.314 224.952C360.477 224.789 360.314 224.463 360.314 224.138Z" fill="#E17857"/>
<path d="M336.043 216.97C336.043 219.414 321.057 220.391 302.487 219.902C283.918 219.251 269.258 216.807 269.258 214.364C269.258 211.921 284.244 210.455 302.65 211.106C321.22 211.595 336.043 214.527 336.043 216.97Z" fill="#29292C"/>
<path d="M331.482 147.416C331.482 147.416 328.224 134.548 304.116 134.385C269.258 134.222 272.516 165.986 269.258 214.201C269.258 214.201 290.434 205.405 336.043 216.97C336.043 216.97 338.975 167.126 331.482 147.416Z" fill="#159BBA"/>
<path d="M340.278 145.624L324.478 154.257C324.478 154.257 289.13 161.913 280.008 160.447C270.887 158.981 269.095 155.235 269.095 155.235C269.095 155.235 278.868 137.643 295.483 135.036C297.112 134.711 298.578 134.548 300.37 134.548C303.139 134.385 306.071 134.385 308.677 134.711C329.853 136.991 340.278 145.624 340.278 145.624Z" fill="#159BBA"/>
<path d="M307.374 131.616L305.582 125.752L305.093 124.123L301.999 114.186L301.51 124.123L301.184 130.15V132.104C301.184 133.407 300.37 133.733 299.392 134.711C299.066 135.199 296.46 137.968 299.392 139.109C302.976 140.575 309.492 138.294 311.935 135.199C311.772 135.036 307.863 133.407 307.374 131.616Z" fill="#E17857"/>
<path d="M345.002 221.205C343.536 205.405 340.278 182.6 332.622 164.682C330.831 160.447 330.179 158.981 328.713 156.701C327.573 154.909 329.527 150.837 332.785 148.882C335.717 147.09 340.278 147.416 341.093 148.23C342.396 149.696 343.699 152.629 345.654 157.189C352.821 173.153 357.056 193.84 358.685 220.554L345.002 221.205Z" fill="#E17857"/>
<path d="M293.855 110.277C293.855 110.277 293.203 112.72 293.855 115.652C294.507 118.747 297.602 111.254 297.602 111.254L293.855 110.277Z" fill="#1D2430"/>
<path d="M311.264 118.985C312.069 113.102 308.748 107.789 303.846 107.118C298.944 106.446 294.316 110.671 293.511 116.554C292.705 122.437 296.026 127.75 300.928 128.422C305.831 129.093 310.458 124.868 311.264 118.985Z" fill="#E17857"/>
<path d="M301.836 117.281C301.673 117.118 301.836 116.955 301.836 116.955C301.836 116.955 303.302 116.63 303.954 118.096C303.954 118.259 303.954 118.259 303.791 118.259C303.628 118.259 303.628 118.259 303.628 118.259C303.139 117.607 301.999 117.281 301.836 117.281C301.999 117.281 301.836 117.281 301.836 117.281Z" fill="#29292C"/>
<path d="M302.65 119.562C302.488 120.05 302.162 120.213 301.836 120.213C301.51 120.05 301.347 119.725 301.51 119.236C301.673 118.747 301.999 118.584 302.325 118.584C302.65 118.747 302.813 119.236 302.65 119.562Z" fill="#29292C"/>
<path d="M295.157 116.793C294.994 116.63 294.994 116.467 295.157 116.467C295.157 116.467 296.135 115.652 296.949 116.63C296.949 116.63 296.949 116.793 296.949 116.955H296.786C296.135 116.467 295.32 116.793 295.157 116.793Z" fill="#29292C"/>
<path d="M296.787 118.584C296.787 119.073 296.624 119.399 296.298 119.399C295.972 119.399 295.646 119.073 295.646 118.747C295.646 118.259 295.809 117.933 296.135 117.933C296.461 117.933 296.787 118.259 296.787 118.584Z" fill="#29292C"/>
<path d="M317.148 116.141C317.148 116.141 314.216 122.494 309.981 122.982C309.981 122.982 313.402 118.096 306.234 115.164C306.234 115.164 312.75 114.186 317.148 116.141Z" fill="#29292C"/>
<path d="M311.284 119.725C310.307 120.376 309.167 120.05 308.678 119.236C308.189 118.421 308.515 117.281 309.329 116.793C310.307 116.141 311.447 116.467 311.936 117.281C312.424 117.933 312.099 119.073 311.284 119.725Z" fill="#E17857"/>
<path d="M306.234 115.164C306.234 115.164 306.886 120.539 305.746 121.516C304.605 122.494 297.438 122.982 294.018 121.679C294.018 125.1 296.461 128.195 299.882 128.684C301.022 128.846 302.162 128.846 303.302 128.684C305.746 128.195 308.026 127.218 309.004 125.1C309.329 124.448 308.515 120.376 308.515 120.376C308.515 120.376 308.189 117.933 309.655 116.793C309.329 116.793 307.7 115.327 306.234 115.164Z" fill="#29292C"/>
<path d="M306.234 115.164C306.234 115.164 306.886 111.417 303.791 111.091C300.859 110.766 297.438 110.277 296.298 111.091C295.157 111.906 293.691 114.838 293.691 114.838C293.691 114.838 292.063 109.137 294.995 106.856C297.927 104.413 307.537 101.318 313.564 105.39C319.591 109.625 317.148 116.141 317.148 116.141C317.148 116.141 312.913 114.838 306.234 115.164Z" fill="#29292C"/>
<path d="M310.306 105.39C310.306 105.39 314.704 101.644 313.727 99.0375C312.749 96.2684 308.026 97.2457 306.071 97.5715C304.279 98.0602 303.953 101.318 305.419 103.273C306.885 105.553 310.306 105.39 310.306 105.39Z" fill="#29292C"/>
<path d="M303.302 335.229C301.185 335.066 299.23 336.206 298.09 337.998C297.601 338.813 296.949 339.627 295.809 340.116C292.551 341.419 283.267 342.722 286.687 345.654C288.642 347.446 298.09 346.306 300.859 346.306C303.465 346.306 306.071 347.446 308.026 345.654C309.166 344.514 309.166 341.256 308.84 338.324C308.515 336.206 306.723 334.74 304.605 335.066C304.28 335.066 303.954 335.066 303.628 335.066C303.628 335.229 303.465 335.229 303.302 335.229Z" fill="#29292C"/>
<path d="M336.369 334.089C336.369 334.089 336.206 338.813 332.948 340.116C329.69 341.419 320.405 342.722 323.826 345.654C325.781 347.446 335.228 346.305 337.998 346.305C340.604 346.305 343.21 347.446 345.165 345.654C347.282 343.699 345.165 333.926 345.165 333.926C345.165 333.926 342.884 335.066 340.767 335.066C337.835 335.229 336.369 334.089 336.369 334.089Z" fill="#29292C"/>
<path d="M279.194 215.016C277.728 215.179 276.588 216.319 276.425 217.785C276.099 220.717 275.937 226.744 277.728 239.449C280.335 258.019 289.945 325.781 291.574 334.903C292.226 338.161 292.877 340.116 297.601 340.767L303.791 340.604C308.84 341.419 310.795 335.88 310.958 332.46L306.886 228.047L323.175 215.667C323.175 215.667 310.958 214.038 297.112 214.201C289.294 214.038 282.615 214.527 279.194 215.016Z" fill="#515154"/>
<path d="M294.669 218.436L330.668 333.111C332.134 337.835 336.532 341.256 341.419 341.256H343.536C348.586 341.419 352.495 336.695 351.681 331.645L331.971 223.975C331.645 222.671 330.994 216.97 329.691 216.645C322.849 214.69 293.855 213.712 294.669 218.436Z" fill="#515154"/>
<path d="M310.632 269.584L302.976 246.291C301.184 241.078 297.601 236.68 292.877 233.911L293.203 233.422C298.089 236.191 301.836 240.752 303.628 246.128L311.284 269.421L310.632 269.584Z" fill="#29292C"/>
<path d="M319.591 137.48C319.591 137.48 323.338 134.059 318.777 132.756C316.985 132.267 314.379 127.869 311.773 128.358C309.329 128.684 307.863 142.529 297.927 146.927C297.927 146.927 295.484 149.045 299.393 148.882C303.465 148.719 319.591 137.48 319.591 137.48Z" fill="#5BD1DD"/>
<path d="M297.927 146.764C297.927 146.764 292.877 141.878 293.855 137.317C294.669 132.756 292.226 128.846 290.923 130.964C289.62 133.082 288.317 131.779 287.991 134.385C287.665 136.991 291.574 149.534 294.995 149.534C298.579 149.534 297.927 146.764 297.927 146.764Z" fill="#5BD1DD"/>
<path d="M299.068 147.742C299.068 147.742 302.325 149.208 301.022 152.628C299.882 156.049 301.511 157.352 301.511 157.352C301.511 157.352 297.602 157.515 297.113 153.932C296.787 150.348 299.068 147.742 299.068 147.742Z" fill="#5BD1DD"/>
<path d="M297.276 147.742C297.276 147.742 293.203 149.045 293.041 151.814C292.878 154.42 295.158 155.072 295.973 153.443C296.787 151.814 298.579 148.719 298.579 148.719L297.276 147.742Z" fill="#5BD1DD"/>
<path d="M308.84 125.1C308.84 125.1 308.84 128.846 306.234 130.801C303.628 132.919 305.419 134.711 302.976 137.643C300.695 140.575 303.465 140.575 299.229 142.855C295.157 144.973 292.062 143.018 292.877 139.76C293.691 136.502 290.108 137.317 291.737 133.245C293.365 129.172 294.669 131.616 293.203 127.218C291.737 122.82 293.854 121.679 293.854 121.679C293.854 121.679 296.135 121.842 297.926 122.168C299.718 122.494 301.347 121.842 302.65 122.331C303.953 122.82 308.84 125.1 308.84 125.1Z" fill="#29292C"/>
<path d="M295.646 123.634C295.646 123.634 298.416 124.448 301.511 124.123C301.511 124.123 301.022 126.892 297.927 126.403C296.135 125.914 295.646 123.634 295.646 123.634Z" fill="white"/>
<path d="M358.685 215.016C358.685 215.016 349.237 215.993 344.35 215.016C344.35 215.016 343.699 217.459 344.676 218.599C344.676 218.599 355.916 219.414 358.522 218.599C358.685 218.599 360.64 216.807 358.685 215.016Z" fill="#29292C"/>
<path d="M351.518 220.717H353.798C355.101 220.717 356.079 219.739 356.079 218.436V215.667C356.079 214.364 355.101 213.387 353.798 213.387H351.518C350.215 213.387 349.237 214.364 349.237 215.667V218.436C349.237 219.577 350.215 220.717 351.518 220.717Z" fill="#29292C"/>
<path d="M340.279 145.624C340.279 145.624 348.261 150.348 355.916 180.971C363.735 211.758 357.871 212.246 357.871 212.246C357.871 212.246 347.446 212.409 344.025 211.269C340.605 210.129 338.813 182.6 332.134 171.361C325.619 160.284 323.175 143.018 340.279 145.624Z" fill="#159BBA"/>
<path d="M295.972 168.755C296.602 168.755 297.112 168.244 297.112 167.614C297.112 166.985 296.602 166.474 295.972 166.474C295.343 166.474 294.832 166.985 294.832 167.614C294.832 168.244 295.343 168.755 295.972 168.755Z" fill="#29292C"/>
<path d="M295.972 183.089C296.602 183.089 297.112 182.579 297.112 181.949C297.112 181.319 296.602 180.809 295.972 180.809C295.343 180.809 294.832 181.319 294.832 181.949C294.832 182.579 295.343 183.089 295.972 183.089Z" fill="#29292C"/>
<path d="M295.972 200.193C296.602 200.193 297.112 199.682 297.112 199.052C297.112 198.423 296.602 197.912 295.972 197.912C295.343 197.912 294.832 198.423 294.832 199.052C294.832 199.682 295.343 200.193 295.972 200.193Z" fill="#29292C"/>
<path d="M244.336 110.766C244.336 110.766 258.345 100.829 261.114 101.807C264.209 102.947 275.611 120.05 278.706 132.593C280.498 139.597 278.38 141.226 274.797 142.366L259.159 147.905L244.336 110.766Z" fill="#515154"/>
<path d="M246.291 110.603C244.662 110.44 233.911 112.883 226.255 108.322C218.111 103.598 213.061 91.7074 207.686 95.4539C202.473 99.0375 212.735 120.05 213.387 121.354C213.387 121.354 213.387 121.354 213.387 121.516C212.247 122.005 196.772 129.498 193.84 134.385C190.582 139.923 196.609 143.344 196.609 143.344C195.306 144.484 190.908 151.325 201.17 154.583C201.17 154.583 201.17 154.583 201.17 154.746C200.844 156.375 198.238 164.031 209.478 163.542C209.478 163.542 208.663 171.687 216.645 170.547C224.626 169.406 257.53 151 259.159 147.742C263.069 140.086 252.969 111.417 246.291 110.603Z" fill="#0B7D98"/>
<path d="M270.724 189.93H270.398C270.887 180.483 273.982 163.705 273.982 163.542H274.308C274.308 163.868 271.213 180.646 270.724 189.93Z" fill="#29292C"/>
<path d="M336.206 180.809C334.903 174.945 330.831 166.637 330.831 166.474L331.157 166.311C331.157 166.474 335.229 174.945 336.532 180.646L336.206 180.809Z" fill="#29292C"/>
<path d="M120.376 183.578L113.371 167.94L109.625 166.8C109.625 166.8 119.073 164.682 123.959 157.352C130.312 147.742 133.081 135.525 129.009 122.494L140.086 119.562C151.814 162.076 121.19 183.089 120.376 183.578Z" fill="#E17857"/>
<path d="M94.3132 145.461C94.3132 145.461 95.4534 151.163 88.2863 153.443C81.1191 155.723 83.0737 159.633 84.7027 161.75C86.4945 163.868 76.0695 160.61 67.9249 169.895C59.7804 179.18 74.2777 185.695 81.4448 183.741C88.7749 181.949 115.978 172.501 117.118 170.221C118.258 167.94 119.398 161.913 115.652 161.587C108.81 160.936 116.303 154.746 111.743 152.954C107.182 151 94.3132 145.461 94.3132 145.461Z" fill="#29292C"/>
<path d="M114.349 330.994C114.349 330.994 116.304 340.604 118.258 343.048C120.213 345.491 127.217 350.215 123.145 351.192C120.864 351.844 113.86 346.957 111.743 345.98C109.625 344.84 107.019 344.84 106.367 342.559C106.041 341.419 107.507 339.464 107.833 337.347C108.322 333.763 107.833 329.854 107.833 329.854C107.833 329.854 109.951 325.944 111.743 326.759C114.023 327.899 114.349 330.994 114.349 330.994Z" fill="#29292C"/>
<path d="M43.0031 273.168C43.0031 273.168 33.0668 272.679 30.2977 274.145C27.5285 275.448 21.1758 280.986 21.1758 276.914C21.1758 274.471 27.5285 268.932 29.1574 267.141C30.7863 265.349 31.4379 262.743 33.7184 262.743C34.8586 262.743 36.3246 264.697 38.4422 265.512C41.8629 266.815 45.6094 267.304 45.6094 267.304C45.6094 267.304 48.8672 270.398 47.7269 271.702C45.9352 273.656 43.0031 273.168 43.0031 273.168Z" fill="#29292C"/>
<path d="M127.544 234.4C127.706 242.544 127.706 253.132 127.055 266.163C125.752 291.086 123.797 316.334 122.82 328.55C122.494 332.948 119.236 336.369 115.001 337.021L112.721 337.346C108.16 337.998 104.087 334.577 103.762 329.854L100.341 249.223L99.5264 234.725C99.5264 234.888 127.218 220.88 127.544 234.4Z" fill="#159BBA"/>
<path d="M75.2555 232.119C75.907 235.54 87.9609 239.449 102.947 236.517C117.77 233.585 129.335 230.327 128.684 226.907C128.032 223.486 115.327 221.368 100.504 224.3C85.8434 227.395 74.6039 228.861 75.2555 232.119Z" fill="#1D2430"/>
<path d="M116.141 230.49L100.504 278.054C98.0603 285.384 91.056 290.271 83.2373 289.945C78.8392 289.782 75.5814 286.036 75.9072 281.638L79.6537 234.237C79.8166 233.096 83.726 232.119 84.8662 231.793C94.3138 230.002 116.141 226.255 116.141 230.49Z" fill="#159BBA"/>
<path d="M87.1466 175.596C87.1466 175.596 92.6849 164.194 107.834 166.474C115.001 167.614 123.471 166.311 125.589 179.343C127.543 190.908 129.987 204.428 129.009 227.07C129.009 227.07 104.413 220.554 75.5814 232.282C75.5814 230.979 75.2556 198.727 79.0021 176.248C79.4907 170.709 85.1919 179.18 87.1466 175.596Z" fill="#515154"/>
<path d="M82.9111 163.542L83.7256 186.184C83.7256 186.184 123.145 187.324 125.588 180.32C129.661 168.755 120.376 160.61 120.376 160.61C120.376 160.61 111.906 165.171 101.969 165.986C101.318 165.986 99.2002 165.66 95.9424 165.66C89.101 165.334 82.9111 163.542 82.9111 163.542Z" fill="#515154"/>
<path d="M82.9109 163.542C81.282 163.542 78.187 166.311 78.3499 172.012C78.3499 177.714 79.816 181.134 82.0964 180.971C83.8882 180.809 87.146 176.248 87.146 171.035C86.9831 165.497 84.214 163.542 82.9109 163.542Z" fill="#1D2430"/>
<path d="M85.3545 231.793C85.3545 231.793 105.227 226.092 125.751 228.21C126.729 228.373 127.38 229.024 127.38 230.002L127.543 237.495L106.204 234.725L85.3545 231.793Z" fill="#159BBA"/>
<path d="M107.833 170.058C110.603 169.243 108.159 165.171 108.159 165.171C106.856 165.008 106.042 164.357 106.042 163.054V161.425V160.61L105.879 157.841L105.716 155.398L105.227 145.787L102.295 155.561L101.806 157.189L100.015 162.891C99.526 164.682 97.7342 165.008 95.9424 165.497C96.1053 165.497 99.526 172.664 107.833 170.058Z" fill="#E17857"/>
<path d="M101.97 157.189C101.97 157.189 103.436 160.121 106.042 160.447L105.879 157.841C104.25 157.515 101.97 157.189 101.97 157.189Z" fill="#1D2430"/>
<path d="M94.3137 145.461C94.3137 145.461 94.8023 146.927 94.3137 150.348C93.4992 155.235 99.2004 156.538 100.341 155.072C100.504 154.909 99.3633 146.927 99.3633 146.927L97.5715 146.113L94.3137 145.461Z" fill="#1D2430"/>
<path d="M107.161 158.43C112.166 157.855 115.649 152.39 114.941 146.223C114.233 140.056 109.601 135.522 104.596 136.097C99.5907 136.672 96.1074 142.137 96.8156 148.305C97.5239 154.472 102.156 159.005 107.161 158.43Z" fill="#E17857"/>
<path d="M108.485 138.294C108.322 138.62 110.277 144.158 99.8519 146.764C89.4269 149.371 94.3136 135.688 102.132 134.548C113.372 132.756 115.978 140.249 115.164 143.181C114.512 146.113 108.485 138.294 108.485 138.294Z" fill="#29292C"/>
<path d="M100.992 144.973C100.992 144.973 97.2451 150.022 99.1997 154.583C99.1997 154.583 96.4306 152.14 96.2677 151.163C96.1048 150.185 96.2677 146.439 96.2677 146.439L100.992 144.973Z" fill="#1D2430"/>
<path d="M98.3859 149.859C99.5261 150.674 100.992 150.674 101.644 149.696C102.295 148.719 101.969 147.253 100.829 146.439C99.689 145.624 98.223 145.624 97.5714 146.602C96.757 147.579 97.2456 149.045 98.3859 149.859Z" fill="#E17857"/>
<path d="M106.856 147.253C106.856 147.253 107.019 147.253 106.856 147.253C107.019 146.927 107.019 146.927 106.856 146.927C106.856 146.927 105.39 146.439 104.25 147.905C104.25 148.068 104.25 148.068 104.25 148.23C104.413 148.23 104.413 148.23 104.576 148.23C105.39 147.416 106.693 147.253 106.856 147.253C106.693 147.416 106.856 147.416 106.856 147.253Z" fill="#29292C"/>
<path d="M104.901 149.696C104.901 150.185 105.227 150.511 105.553 150.511C105.879 150.511 106.204 150.022 106.204 149.534C106.204 149.045 105.879 148.719 105.553 148.719C105.064 148.882 104.901 149.208 104.901 149.696Z" fill="#29292C"/>
<path d="M114.35 147.579H114.512C114.512 147.416 114.512 147.416 114.512 147.253C114.512 147.253 113.372 146.113 111.743 147.09C111.58 147.09 111.58 147.253 111.743 147.416C111.743 147.579 111.906 147.579 112.069 147.416C113.046 147.09 114.187 147.416 114.35 147.579C114.187 147.579 114.187 147.579 114.35 147.579Z" fill="#29292C"/>
<path d="M111.417 149.045C111.255 149.534 111.417 150.022 111.743 150.022C112.069 150.185 112.558 149.859 112.558 149.371C112.721 148.882 112.558 148.393 112.232 148.393C111.906 148.23 111.58 148.556 111.417 149.045Z" fill="#29292C"/>
<path d="M84.214 160.936L84.3769 160.447C84.0511 160.284 82.9109 157.841 83.2366 155.723C83.5624 153.769 85.0284 152.791 87.3089 152.466C94.3132 151.651 94.8019 145.787 94.8019 145.624H94.1503C94.1503 145.787 93.6616 151.162 87.146 151.814C83.7253 152.303 82.748 154.257 82.5851 155.886C82.4222 158.167 83.5624 160.61 84.214 160.936Z" fill="#29292C"/>
<path d="M85.5179 289.945C76.8847 290.76 55.7089 284.733 43.9808 281.149C39.4198 279.683 36.8136 274.959 38.1167 270.236L38.2796 269.584C39.4198 265.838 43.0034 263.231 46.9128 263.231L86.1694 264.046C86.3323 264.209 101.481 288.479 85.5179 289.945Z" fill="#159BBA"/>
<path d="M101.969 274.145L101.48 273.982C101.48 273.819 105.879 256.227 107.182 250.689C108.648 244.988 114.186 240.264 114.349 239.938L114.675 240.427C114.675 240.427 108.973 245.313 107.67 250.852C106.367 256.227 102.132 273.982 101.969 274.145Z" fill="#29292C"/>
<path d="M111.417 153.443C111.417 153.443 110.766 155.398 108.974 155.723C106.856 156.049 106.042 153.769 106.042 153.769C106.042 153.769 108.811 154.257 111.417 153.443Z" fill="white"/>
<path d="M60.1071 139.109C61.8989 132.593 65.3195 125.1 65.3195 124.937L74.2785 131.29L68.4145 128.846L74.9301 129.824C73.1383 134.222 68.7403 148.556 72.8125 156.701C74.6043 160.121 77.6992 162.402 82.4231 163.705C83.0746 163.868 83.7262 164.357 83.8891 165.008C84.3778 166.311 85.6809 170.058 84.3778 174.619C83.2375 178.854 80.7942 178.854 80.7942 178.854C72.161 176.736 52.777 164.682 60.1071 139.109Z" fill="#E17857"/>
<path d="M135.362 107.508C133.244 107.182 136.176 112.883 136.176 112.883C136.176 112.883 133.896 108.485 132.104 107.996C130.638 107.671 132.104 112.069 132.755 113.861C131.941 112.069 129.986 107.996 128.52 108.159C126.891 108.159 129.498 114.023 129.986 115.164C124.448 105.227 125.588 113.372 127.869 118.259C126.728 117.933 122.33 119.888 122.005 120.539C121.679 121.354 125.588 122.005 126.24 122.168C128.194 122.657 129.335 124.123 129.986 126.077C130.149 126.892 140.411 121.516 140.411 121.516C140.411 121.516 140.411 118.91 139.271 115.327C139.271 115.164 139.108 114.838 139.108 114.675C138.945 114.349 138.782 114.023 138.619 113.535C137.805 111.091 136.502 107.671 135.362 107.508Z" fill="#E17857"/>
<path d="M136.013 121.679C136.013 121.679 135.85 121.679 136.013 121.679C135.85 121.516 135.199 120.213 133.733 120.213C132.104 120.376 130.149 119.725 129.986 119.725C129.823 119.725 129.823 119.562 129.823 119.562C129.823 119.399 129.986 119.399 129.986 119.399C129.986 119.399 131.941 120.05 133.57 119.887C135.199 119.725 136.013 121.354 136.013 121.354C136.176 121.516 136.176 121.679 136.013 121.679Z" fill="#D3845E"/>
<path d="M70.0424 113.698C72.16 113.372 69.2279 119.073 69.2279 119.073C69.2279 119.073 71.6713 114.675 73.3002 114.186C74.7662 113.861 73.1373 118.259 72.4857 120.05C73.3002 118.421 75.4178 114.349 76.8838 114.349C78.5127 114.512 75.9065 120.213 75.4178 121.191C81.119 111.417 79.8158 119.562 77.3725 124.286C78.5127 123.96 80.7932 123.634 81.119 124.286C81.4447 125.1 79.1643 126.566 78.3498 126.892C76.7209 127.869 73.7889 130.312 72.16 131.127C71.5084 131.453 64.667 127.218 64.667 127.218C64.667 127.218 64.8299 124.611 65.8072 121.028C65.8072 120.865 65.9701 120.539 65.9701 120.376C66.133 120.05 66.2959 119.725 66.4588 119.236C67.599 117.281 68.9022 113.861 70.0424 113.698Z" fill="#E17857"/>
<path d="M66.6219 76.8844C66.6219 76.8844 45.4461 77.0473 43.4914 80.1422C41.211 83.5629 42.3512 108.648 48.3781 123.471C51.7989 131.779 54.8938 131.616 59.4547 130.312L79.0016 124.448L66.6219 76.8844Z" fill="#515154"/>
<path d="M64.5041 77.8617C65.9701 76.5586 78.5127 71.0203 82.7478 61.084C87.3087 50.4961 83.7252 35.1844 91.8697 34.8586C99.6884 34.6957 104.738 63.0387 105.064 64.6676C105.064 64.6676 105.064 64.6676 105.227 64.6676C106.856 64.3418 127.543 60.5953 133.895 63.3645C141.063 66.4594 137.642 74.2781 137.642 74.2781C139.922 74.441 149.044 78.0246 141.388 88.7754V88.9383C143.017 90.2414 151.162 96.1055 139.434 103.761C139.434 103.761 146.112 111.254 137.479 115.978C128.846 120.539 82.7478 126.24 78.8384 124.123C69.2279 119.236 58.4771 83.7258 64.5041 77.8617Z" fill="#86EFFA"/>
</svg>
