<svg width="530" height="530" viewBox="0 0 530 530" fill="none" xmlns="http://www.w3.org/2000/svg">
<path d="M118.72 158.939C129.893 154.547 135.391 141.929 130.999 130.755C126.608 119.581 113.99 114.084 102.816 118.475C91.6421 122.867 86.1442 135.485 90.5358 146.659C94.9275 157.833 107.546 163.331 118.72 158.939Z" fill="#F6F8F9"/>
<path d="M131.465 144.922C130.43 143.887 128.152 142.23 124.633 140.781C120.285 138.918 108.691 136.848 103.309 134.156C95.6484 130.223 94.8203 126.082 94.8203 124.012C96.6836 121.941 98.9609 120.285 101.445 119.043C102.066 121.32 103.93 128.152 116.766 132.5C123.391 134.777 129.602 133.328 131.672 132.707C132.707 136.641 132.707 140.988 131.465 144.922Z" fill="#DBDBDB"/>
<path d="M122.563 156.93C116.559 160.863 108.691 161.691 101.859 158.586C99.375 157.344 97.3047 155.895 95.4414 154.031C96.2695 153.617 97.9258 152.789 99.375 152.582C105.172 151.133 111.59 154.031 114.074 155.273C117.801 157.344 120.906 157.137 122.563 156.93Z" fill="#DBDBDB"/>
<path d="M130.222 148.234C130.222 148.441 130.015 148.648 130.015 148.855C130.015 149.062 129.808 149.27 129.808 149.27C129.601 149.684 129.394 149.891 129.187 150.305C128.98 150.512 128.773 150.926 128.566 151.133C128.566 151.34 128.359 151.34 128.359 151.547C128.359 151.754 128.152 151.754 128.152 151.961C128.152 152.168 127.945 152.168 127.945 152.375C127.738 152.582 127.738 152.582 127.531 152.789C127.324 152.996 127.324 152.996 127.117 153.203C127.117 153.41 126.91 153.41 126.91 153.617C126.703 153.824 126.496 154.031 126.289 154.238C124.84 154.652 123.183 154.445 120.492 153.41C116.558 151.961 112.211 148.234 104.758 145.336C97.5114 142.852 91.5075 144.094 90.2653 144.301C89.0232 140.16 89.2302 135.605 90.8864 131.258C92.3357 131.258 96.6833 131.879 106.207 139.746C109.726 142.645 113.039 144.922 115.73 146.371C123.39 150.512 128.152 149.27 130.222 148.234Z" fill="#DBDBDB"/>
<path d="M109.519 156.516C109.933 155.688 111.175 155.273 112.624 155.895C113.866 156.516 114.695 157.551 114.28 158.586C113.866 159.414 112.624 159.828 111.175 159.207C109.933 158.379 109.312 157.344 109.519 156.516Z" fill="#C7C7C7"/>
<path d="M115.73 154.859C115.937 154.445 116.765 154.238 117.593 154.652C118.421 155.066 118.835 155.688 118.628 156.102C118.421 156.516 117.593 156.723 116.765 156.309C115.937 155.895 115.522 155.48 115.73 154.859Z" fill="#C7C7C7"/>
<path d="M98.9608 128.152C99.3748 127.324 100.41 127.117 101.652 127.738C102.687 128.152 103.515 129.188 103.101 130.016C102.687 130.844 101.652 131.051 100.41 130.43C99.1678 130.016 98.5467 128.98 98.9608 128.152Z" fill="#C7C7C7"/>
<path d="M102.895 127.531C103.102 127.117 103.723 126.91 104.137 127.324C104.758 127.531 104.965 128.152 104.758 128.566C104.551 128.98 103.93 129.188 103.516 128.773C103.102 128.359 102.688 127.945 102.895 127.531Z" fill="#C7C7C7"/>
<path d="M103.516 129.395C103.723 129.188 103.93 128.98 104.344 129.188C104.758 129.395 104.965 129.602 104.758 129.809C104.551 130.016 104.344 130.223 103.93 130.016C103.723 130.016 103.516 129.809 103.516 129.395Z" fill="#C7C7C7"/>
<path d="M117.18 129.602C117.387 128.98 118.422 128.773 119.25 129.188C120.078 129.602 120.699 130.43 120.285 131.051C120.078 131.672 119.043 131.879 118.215 131.465C117.387 131.051 116.766 130.223 117.18 129.602Z" fill="#C7C7C7"/>
<path d="M116.559 132.5C116.766 132.086 117.18 131.879 117.594 132.086C118.008 132.293 118.215 132.707 118.008 133.121C117.801 133.535 117.387 133.742 116.973 133.535C116.559 133.328 116.352 132.914 116.559 132.5Z" fill="#C7C7C7"/>
<path d="M445.116 382.594C453.234 382.594 459.815 376.013 459.815 367.895C459.815 359.776 453.234 353.195 445.116 353.195C436.998 353.195 430.417 359.776 430.417 367.895C430.417 376.013 436.998 382.594 445.116 382.594Z" fill="#EBEBEB"/>
<path d="M450.293 359.199C450.293 359.82 450.086 360.648 449.672 361.27C449.258 361.891 448.637 362.305 448.016 362.719C447.394 363.133 446.566 363.133 445.945 362.926C445.324 362.719 444.703 362.305 444.289 361.684C444.91 362.098 445.531 362.305 445.945 362.512C446.152 362.512 446.566 362.512 446.773 362.512C446.98 362.512 447.395 362.305 447.602 362.305C447.809 362.305 447.809 362.098 448.016 362.098C448.223 362.098 448.223 361.891 448.43 361.891C448.637 361.684 448.844 361.477 449.051 361.27C449.879 360.441 450.086 359.82 450.293 359.199Z" fill="#C7C7C7"/>
<path d="M445.117 360.027C445.117 359.613 445.117 358.992 445.324 358.578C445.531 358.164 445.945 357.75 446.359 357.543C446.773 357.336 447.395 357.336 447.809 357.336C448.223 357.543 448.637 357.75 448.844 358.164C448.43 357.957 448.016 357.75 447.602 357.75C447.187 357.75 446.773 357.75 446.566 357.957C446.152 358.578 445.531 359.199 445.117 360.027Z" fill="#C7C7C7"/>
<path d="M445.117 374.727C445.324 375.141 445.324 375.555 445.117 376.176C444.91 376.59 444.703 377.004 444.289 377.418C443.875 377.832 443.254 377.832 442.84 377.832C442.426 377.832 442.012 377.418 441.598 377.211C442.012 377.418 442.426 377.418 442.84 377.418C443.254 377.418 443.668 377.211 443.875 377.004C444.289 376.797 444.496 376.383 444.703 376.176C444.91 375.555 444.91 375.141 445.117 374.727Z" fill="#C7C7C7"/>
<path d="M442.012 376.383C441.805 376.176 441.805 375.762 442.012 375.348C442.012 374.934 442.219 374.727 442.633 374.52C442.84 374.312 443.254 374.105 443.668 374.313C444.082 374.313 444.289 374.52 444.496 374.934C444.082 374.934 443.875 374.934 443.668 374.934C443.461 374.934 443.254 375.141 443.047 375.141C442.426 375.348 442.219 375.762 442.012 376.383Z" fill="#C7C7C7"/>
<path d="M439.733 361.477C439.94 361.684 440.147 362.098 440.147 362.512C440.147 362.926 439.94 363.34 439.733 363.547C439.526 363.754 439.112 363.961 438.698 363.961C438.284 363.961 438.077 363.754 437.87 363.547C438.284 363.547 438.491 363.547 438.698 363.547C438.905 363.547 439.112 363.34 439.319 363.133C439.526 362.926 439.526 362.719 439.733 362.512C439.733 362.098 439.733 361.891 439.733 361.477Z" fill="#C7C7C7"/>
<path d="M438.077 362.926C437.87 362.719 437.663 362.512 437.663 362.305C437.663 362.098 437.663 361.684 437.87 361.477C438.077 361.27 438.491 361.27 438.698 361.27C438.905 361.27 439.112 361.477 439.319 361.684C439.112 361.684 438.905 361.684 438.698 361.891C438.491 361.891 438.491 362.098 438.284 362.098C438.284 362.098 438.077 362.305 438.077 362.512C438.077 362.512 438.077 362.719 438.077 362.926Z" fill="#C7C7C7"/>
<path d="M449.879 377.004C449.672 377.211 449.465 377.625 449.051 377.625C448.637 377.625 448.223 377.625 448.016 377.418C447.602 377.211 447.395 376.797 447.395 376.383C447.395 375.969 447.395 375.762 447.602 375.348C447.602 375.762 447.809 375.969 447.809 376.176C448.016 376.383 448.016 376.59 448.223 376.797C448.43 377.004 448.637 377.004 448.844 377.004C449.258 377.004 449.672 377.004 449.879 377.004Z" fill="#C7C7C7"/>
<path d="M448.223 375.555C448.223 375.348 448.43 375.141 448.844 375.141C449.051 375.141 449.465 375.141 449.672 375.141C449.879 375.348 450.086 375.555 450.086 375.762C450.086 375.969 450.086 376.176 449.879 376.383C449.879 376.176 449.672 375.969 449.672 375.762C449.672 375.555 449.465 375.555 449.465 375.555C449.258 375.555 449.258 375.348 449.051 375.348C448.637 375.555 448.43 375.555 448.223 375.555Z" fill="#C7C7C7"/>
<path d="M454.848 366.652C454.848 367.066 454.848 367.273 454.434 367.688C454.227 367.895 453.812 368.102 453.398 368.102C452.984 368.102 452.57 367.895 452.363 367.688C452.156 367.48 451.949 367.066 451.949 366.652C452.156 366.859 452.363 367.066 452.57 367.273C452.777 367.48 452.984 367.48 453.191 367.48C453.398 367.48 453.605 367.48 453.812 367.273C454.434 367.066 454.641 366.859 454.848 366.652Z" fill="#C7C7C7"/>
<path d="M452.57 366.445C452.57 366.238 452.57 366.031 452.777 365.824C452.984 365.617 453.191 365.41 453.398 365.41C453.605 365.41 454.019 365.617 454.227 365.824C454.434 366.031 454.434 366.238 454.434 366.445C454.227 366.238 454.019 366.238 453.812 366.031C453.605 366.031 453.605 366.031 453.398 366.031C453.191 366.031 453.191 366.031 452.984 366.238C452.984 366.238 452.777 366.445 452.57 366.445Z" fill="#C7C7C7"/>
<path d="M435.594 369.965C435.594 370.379 435.594 370.586 435.18 371C434.973 371.207 434.559 371.414 434.145 371.414C433.73 371.414 433.316 371.207 433.109 371C432.902 370.793 432.695 370.379 432.695 369.965C432.902 370.172 433.109 370.379 433.316 370.586C433.523 370.793 433.73 370.793 433.938 370.793C434.145 370.793 434.352 370.793 434.559 370.586C435.18 370.379 435.387 370.172 435.594 369.965Z" fill="#C7C7C7"/>
<path d="M433.316 369.758C433.316 369.551 433.316 369.344 433.523 369.137C433.73 368.93 433.937 368.723 434.145 368.723C434.352 368.723 434.766 368.93 434.973 369.137C435.18 369.344 435.18 369.551 435.18 369.758C434.973 369.551 434.766 369.551 434.559 369.344C434.352 369.344 434.352 369.344 434.145 369.344C433.937 369.344 433.937 369.344 433.73 369.551C433.73 369.551 433.523 369.758 433.316 369.758Z" fill="#C7C7C7"/>
<path d="M393.773 48.2383L397.707 44.3047C398.742 43.2695 398.742 41.4063 397.707 40.3711C396.672 39.3359 394.809 39.3359 393.773 40.3711L389.84 44.3047C388.805 45.3398 388.805 47.2031 389.84 48.2383C390.875 49.2734 392.738 49.2734 393.773 48.2383Z" fill="#EBEBEB"/>
<path d="M446.774 86.5391L449.258 81.5703C449.879 80.1211 449.465 78.4648 448.016 77.8437C446.567 77.2227 444.91 77.6367 444.289 79.0859L441.805 84.0547C441.184 85.5039 441.598 87.1602 443.047 87.7813C444.289 88.6094 446.153 87.9883 446.774 86.5391Z" fill="#EBEBEB"/>
<path d="M412.82 37.2656L415.719 36.8516C417.375 36.6445 418.41 35.1953 418.203 33.5391C417.996 31.8828 416.547 30.8477 414.89 31.0547L411.992 31.4688C410.336 31.6758 409.301 33.125 409.508 34.7813C409.922 36.4375 411.371 37.4727 412.82 37.2656Z" fill="#EBEBEB"/>
<path d="M389.84 75.7734L389.426 72.875C389.219 71.2188 387.769 70.1836 386.113 70.3906C384.457 70.5977 383.422 72.0469 383.629 73.7031L384.043 76.6016C384.25 78.2578 385.699 79.293 387.355 79.0859C388.805 78.6719 390.047 77.2227 389.84 75.7734Z" fill="#EBEBEB"/>
<path d="M452.156 69.5625V66.6641C452.156 65.0078 450.914 63.7656 449.258 63.7656C447.602 63.7656 446.359 65.0078 446.359 66.6641V69.5625C446.359 71.2187 447.602 72.4609 449.258 72.4609C450.914 72.4609 452.156 71.2187 452.156 69.5625Z" fill="#EBEBEB"/>
<path d="M407.645 100.41L410.543 101.238C411.992 101.652 413.649 100.824 414.063 99.168C414.477 97.7187 413.649 96.0625 411.992 95.6484L409.094 94.8203C407.645 94.4062 405.988 95.2344 405.574 96.8906C405.16 98.5469 405.988 99.9961 407.645 100.41Z" fill="#EBEBEB"/>
<path d="M417.375 99.582C435.441 99.582 450.086 84.9368 450.086 66.8711C450.086 48.8053 435.441 34.1602 417.375 34.1602C399.309 34.1602 384.664 48.8053 384.664 66.8711C384.664 84.9368 399.309 99.582 417.375 99.582Z" fill="#F6F8F9"/>
<path d="M429.383 47.4102C429.59 48.8594 428.969 50.5156 428.141 51.7578C427.312 53.207 426.07 54.2422 424.621 54.8633C423.172 55.4844 421.309 55.8984 419.859 55.2773C418.203 54.8633 416.961 53.8281 416.133 52.3789C417.375 53.207 418.617 53.8281 420.066 54.0352C420.687 54.2422 421.516 54.2422 422.137 54.0352C422.758 54.0352 423.379 53.6211 424 53.4141C424.207 53.207 424.621 53 424.828 53C425.035 52.793 425.449 52.5859 425.656 52.3789C426.277 51.9648 426.691 51.5508 427.105 50.9297C428.141 50.1016 428.969 48.8594 429.383 47.4102Z" fill="#C7C7C7"/>
<path d="M417.582 49.2734C417.375 48.2383 417.789 46.9961 418.204 46.168C418.825 45.1328 419.653 44.5117 420.688 43.8906C421.723 43.4766 422.965 43.2695 424.207 43.6836C425.243 44.0977 426.278 44.9258 426.692 45.7539C425.864 45.1328 424.829 44.9258 424 44.7188C423.172 44.5117 422.344 44.7188 421.516 45.1328C419.653 45.9609 418.411 47.4102 417.582 49.2734Z" fill="#C7C7C7"/>
<path d="M406.402 71.8398C406.816 72.875 406.816 73.9102 406.402 74.9453C405.988 75.9805 405.367 77.0156 404.539 77.6367C403.711 78.2578 402.469 78.6719 401.227 78.4648C400.191 78.2578 399.156 77.8437 398.535 77.0156C399.57 77.2227 400.398 77.4297 401.434 77.4297C402.262 77.4297 403.09 77.0156 403.711 76.6016C404.332 75.9805 404.953 75.3594 405.367 74.7383C405.988 73.7031 406.195 72.875 406.402 71.8398Z" fill="#C7C7C7"/>
<path d="M399.778 75.5664C399.364 74.9453 399.364 74.1172 399.571 73.2891C399.778 72.4609 400.192 71.8398 400.813 71.4258C401.434 71.0117 402.262 70.5977 403.09 70.8047C403.918 71.0117 404.539 71.4258 404.953 72.0469C404.332 71.8398 403.504 71.8398 403.09 72.0469C402.469 72.0469 402.055 72.2539 401.641 72.668C400.813 73.2891 400.192 74.1172 399.778 75.5664Z" fill="#C7C7C7"/>
<path d="M394.809 64.5938C395.43 65.0078 395.637 65.8359 395.844 66.6641C395.844 67.4922 395.43 68.3203 395.016 68.9414C394.395 69.5625 393.359 69.7695 392.531 69.7695C391.703 69.7695 391.082 69.3555 390.461 68.7344C391.289 68.7344 391.91 68.7344 392.531 68.5273C393.152 68.3203 393.566 68.1133 393.98 67.9062C394.395 67.4922 394.602 67.0781 394.809 66.457C394.809 66.043 394.809 65.2148 394.809 64.5938Z" fill="#C7C7C7"/>
<path d="M390.668 67.6992C390.254 67.4922 389.84 66.8711 389.84 66.25C389.84 65.6289 390.047 65.0078 390.461 64.5938C390.875 64.1797 391.703 63.9727 392.324 63.9727C392.945 63.9727 393.359 64.3867 393.773 64.8008C393.152 64.8008 392.738 65.0078 392.324 65.0078C391.91 65.2148 391.703 65.2148 391.496 65.4219C391.289 65.6289 391.082 65.8359 390.875 66.25C390.875 66.6641 390.668 67.0781 390.668 67.6992Z" fill="#C7C7C7"/>
<path d="M439.526 54.8633C439.526 55.6914 439.319 56.5195 438.905 57.1406C438.284 57.7617 437.456 58.1758 436.628 58.1758C435.8 58.1758 434.765 57.7617 434.351 57.1406C433.73 56.5195 433.522 55.8984 433.522 55.0703C434.144 55.4844 434.558 56.1055 435.179 56.3125C435.8 56.5195 436.214 56.7266 436.628 56.7266C437.249 56.7266 437.663 56.5195 438.284 56.3125C438.698 55.8984 439.112 55.4844 439.526 54.8633Z" fill="#C7C7C7"/>
<path d="M434.558 54.4492C434.351 53.8281 434.558 53.207 434.972 52.793C435.386 52.3789 436.007 51.9649 436.628 51.9649C437.249 51.9649 438.077 52.1719 438.284 52.793C438.698 53.207 438.905 53.8281 438.698 54.4492C438.284 54.2422 437.87 53.8281 437.456 53.8281C437.042 53.6211 436.835 53.6211 436.628 53.6211C436.421 53.6211 436.007 53.6211 435.593 53.8281C435.179 53.8281 434.972 54.2422 434.558 54.4492Z" fill="#C7C7C7"/>
<path d="M430.766 73.394C432.396 69.7391 430.755 65.4548 427.1 63.8248C423.445 62.1948 419.16 63.8364 417.53 67.4913C415.9 71.1463 417.542 75.4305 421.197 77.0605C424.852 78.6905 429.136 77.0489 430.766 73.394Z" fill="#DBDBDB"/>
<path d="M427.519 67.0781C429.589 67.9063 430.832 69.7695 431.246 71.6328C431.867 68.5273 430.21 65.2148 427.105 63.7656C423.378 62.1094 419.238 63.7656 417.582 67.4922C416.339 70.1836 416.96 73.082 418.617 75.1523C418.203 73.7031 418.203 72.0469 418.824 70.3906C420.48 67.0781 424.207 65.6289 427.519 67.0781Z" fill="#C7C7C7"/>
<path d="M434.144 71.6328C434.144 73.4961 433.522 75.3594 432.487 77.0156C431.452 78.6719 429.796 79.9141 428.14 80.7422C426.276 81.5703 424.206 81.9844 422.343 81.3633C420.479 80.7422 418.823 79.5 417.788 78.0508C419.237 79.0859 420.894 79.9141 422.55 80.3281C422.964 80.3281 423.378 80.3281 423.792 80.5352C424.206 80.5352 424.62 80.5352 425.034 80.5352C425.862 80.5352 426.69 80.1211 427.519 79.707C427.933 79.5 428.347 79.293 428.761 79.0859C429.175 78.8789 429.589 78.6719 429.796 78.2578C430.417 77.8437 431.038 77.0156 431.659 76.3945C432.901 75.1523 433.729 73.4961 434.144 71.6328Z" fill="#C7C7C7"/>
<path d="M442.218 74.5313C443.667 74.9453 445.116 73.9102 445.53 72.4609C445.945 71.0117 444.909 69.5625 443.46 69.1484C442.011 68.7344 440.562 69.7695 440.148 71.2188C439.734 72.668 440.769 74.1172 442.218 74.5313Z" fill="#DBDBDB"/>
<path d="M443.874 70.3906C444.702 70.5977 445.323 71.2188 445.53 71.8399C445.53 70.5977 444.702 69.5625 443.46 69.3555C442.011 68.9414 440.562 69.9766 440.147 71.4258C439.94 72.4609 440.355 73.4961 441.183 74.1172C440.976 73.7031 440.769 72.875 440.976 72.2539C441.183 70.8047 442.425 69.9766 443.874 70.3906Z" fill="#C7C7C7"/>
<path d="M446.566 71.6328C446.773 72.2539 446.773 73.082 446.359 73.7031C446.152 74.3242 445.531 74.9453 445.117 75.3594C444.496 75.7735 443.668 75.9805 443.047 75.9805C442.219 75.9805 441.598 75.5664 441.184 74.9453C441.805 75.1524 442.426 75.3594 443.047 75.3594C443.668 75.3594 444.289 75.1524 444.703 74.7383C445.738 74.1172 446.359 72.875 446.566 71.6328Z" fill="#C7C7C7"/>
<path d="M423.585 91.9219C425.655 92.1289 427.519 90.4727 427.519 88.1953C427.726 86.125 426.069 84.2617 423.999 84.0547C421.929 83.8477 420.065 85.5039 420.065 87.7813C419.858 90.0586 421.515 91.9219 423.585 91.9219Z" fill="#DBDBDB"/>
<path d="M424.827 85.711C426.069 85.711 426.897 86.332 427.519 87.3672C427.105 85.711 425.655 84.4688 423.999 84.2617C421.929 84.0547 420.065 85.711 420.065 87.9883C420.065 89.4375 420.894 90.8867 422.136 91.5078C421.515 90.8867 421.308 90.0586 421.308 89.0235C421.308 87.1602 422.964 85.711 424.827 85.711Z" fill="#C7C7C7"/>
<path d="M428.968 86.7461C429.382 87.5742 429.382 88.8164 429.175 89.6445C428.968 90.6797 428.347 91.5078 427.726 92.3359C427.105 93.1641 426.069 93.5781 425.034 93.7852C423.999 93.7852 422.964 93.5781 422.136 92.957C423.171 93.1641 423.999 93.3711 425.034 93.1641C425.862 92.957 426.69 92.543 427.312 91.9219C427.933 91.3008 428.347 90.4727 428.761 89.6445C428.968 88.8164 428.968 87.7813 428.968 86.7461Z" fill="#C7C7C7"/>
<path d="M406.402 54.8633C404.746 57.5547 400.812 58.1758 397.913 56.1055C395.015 54.2422 393.98 50.3086 395.636 47.8242C397.292 45.1328 401.226 44.5117 404.124 46.582C407.23 48.4453 408.058 52.1719 406.402 54.8633Z" fill="#DBDBDB"/>
<path d="M396.879 50.3086C395.844 51.7578 395.844 53.6211 396.672 55.0703C394.602 53 394.188 49.8945 395.637 47.8242C397.294 45.1328 401.227 44.5117 404.126 46.582C406.196 48.0313 407.438 50.3086 407.231 52.5859C406.817 51.3438 405.989 50.1016 404.747 49.2734C401.848 47.4102 398.536 47.8242 396.879 50.3086Z" fill="#C7C7C7"/>
<path d="M408.473 50.5156C409.301 51.7578 409.715 53.6211 409.301 55.2773C409.094 56.1055 408.68 56.9336 408.266 57.5547C407.852 58.1758 407.023 58.7969 406.402 59.2109C405.574 59.625 404.746 59.832 403.918 60.0391C403.09 60.0391 402.262 60.0391 401.434 60.0391C399.777 59.832 398.328 59.2109 397.086 58.1758C398.535 58.5898 399.984 58.7969 401.641 59.0039C403.09 59.0039 404.539 58.7969 405.781 58.1758C406.402 57.7617 406.816 57.3477 407.23 56.9336C407.645 56.5195 408.059 55.8984 408.266 55.0703C408.887 53.6211 408.887 51.9648 408.473 50.5156Z" fill="#C7C7C7"/>
<path d="M447.199 459.211C454.08 433.354 438.698 406.815 412.841 399.933C386.985 393.052 360.445 408.434 353.564 434.291C346.682 460.147 362.064 486.687 387.921 493.568C413.778 500.45 440.317 485.068 447.199 459.211Z" fill="#455A64"/>
<path d="M446.566 431.66C443.461 431.246 437.25 431.039 428.762 432.695C418.41 434.766 394.395 445.945 380.938 448.016C362.098 450.707 355.059 444.496 352.367 440.562C353.195 434.352 355.266 428.348 358.371 422.965C362.098 426.277 374.727 436.215 403.711 428.141C418.617 424 428.141 413.027 431.246 409.508C438.078 414.891 443.461 422.551 446.566 431.66Z" fill="#37474F"/>
<path d="M445.531 464.578C439.527 479.484 426.484 491.078 409.715 494.391C403.711 495.633 397.914 495.633 392.324 494.598C393.152 492.527 395.43 489.008 397.5 486.73C406.402 476.586 421.723 473.48 427.727 472.859C437.043 472.031 442.84 467.477 445.531 464.578Z" fill="#37474F"/>
<path d="M448.223 439.32C448.223 439.734 448.43 440.148 448.43 440.563C448.43 440.977 448.43 441.391 448.637 441.805C448.637 442.633 448.844 443.668 448.844 444.496C448.844 445.324 448.844 446.152 448.844 446.98C448.844 447.187 448.844 447.602 448.844 447.809C448.844 448.223 448.844 448.43 448.844 448.844C448.844 449.258 448.844 449.465 448.844 449.879C448.844 450.293 448.844 450.707 448.844 451.121C448.844 451.535 448.844 451.949 448.637 452.363C448.637 452.777 448.637 452.984 448.43 453.398C448.43 454.227 448.223 454.848 448.016 455.676C446.152 458.16 442.633 460.23 436.422 461.68C427.313 463.957 414.684 462.508 397.293 467.477C380.73 472.031 371.621 482.383 369.344 484.453C361.891 478.242 356.094 469.754 353.402 459.816C355.887 457.953 364.789 453.398 392.324 455.469C402.676 456.297 411.371 456.09 418.203 455.055C438.492 452.363 445.531 444.082 447.809 439.734C448.223 439.32 448.223 439.32 448.223 439.32Z" fill="#37474F"/>
<path d="M380.729 426.691C381.143 428.762 379.073 431.039 375.968 431.66C372.862 432.281 369.964 431.039 369.55 428.969C369.136 426.898 371.206 424.621 374.311 424C377.417 423.379 380.315 424.621 380.729 426.691Z" fill="#263238"/>
<path d="M371.206 437.25C371.413 438.492 370.171 439.734 368.308 440.148C366.444 440.562 364.788 439.734 364.581 438.699C364.374 437.457 365.616 436.215 367.48 435.801C369.343 435.387 370.999 436.215 371.206 437.25Z" fill="#263238"/>
<path d="M436.007 465.199C436.421 467.063 434.558 468.926 431.866 469.34C429.175 469.754 426.69 468.719 426.276 467.063C425.862 465.199 427.726 463.336 430.417 462.922C433.315 462.301 435.8 463.336 436.007 465.199Z" fill="#263238"/>
<path d="M429.588 471.617C429.795 472.652 428.967 473.48 427.725 473.895C426.483 474.102 425.241 473.48 425.034 472.652C424.827 471.617 425.655 470.789 426.897 470.375C428.346 469.961 429.588 470.582 429.588 471.617Z" fill="#263238"/>
<path d="M425.862 468.719C426.069 469.34 425.448 469.961 424.62 469.961C423.792 470.168 422.964 469.754 422.964 469.133C422.757 468.512 423.378 467.891 424.206 467.891C425.034 467.684 425.862 468.098 425.862 468.719Z" fill="#263238"/>
<path d="M400.811 485.695C401.225 487.352 399.569 489.008 397.498 489.422C395.428 489.836 393.358 488.801 392.944 487.352C392.53 485.695 394.186 484.039 396.256 483.625C398.534 483.211 400.604 484.039 400.811 485.695Z" fill="#263238"/>
<path d="M398.121 479.691C398.328 480.52 397.5 481.555 396.465 481.762C395.429 481.969 394.394 481.348 394.187 480.52C393.98 479.691 394.808 478.656 395.843 478.449C396.879 478.035 397.914 478.656 398.121 479.691Z" fill="#263238"/>
<path d="M448.843 444.496C437.25 450.707 422.964 457.332 407.437 463.543C391.496 469.754 376.382 474.723 363.132 478.242C339.945 484.246 323.382 485.281 321.105 479.898C319.035 474.516 331.457 463.957 351.953 452.777C352.16 453.813 352.367 455.055 352.574 456.09C352.574 456.504 352.781 456.918 352.781 457.332C342.429 463.957 336.632 469.754 337.875 473.066C339.117 476.379 347.605 476.586 360.027 474.309C372.242 472.031 388.183 467.063 405.367 460.438C422.55 453.605 437.664 446.152 448.015 439.527C458.781 432.902 464.578 426.898 463.335 423.586C462.093 420.273 454.019 420.066 441.804 422.344C440.976 420.895 440.148 419.445 439.113 418.203C462.3 412.199 479.277 411.371 481.347 416.754C483.832 421.93 470.582 432.695 448.843 444.496Z" fill="#263238"/>
<path d="M448.844 448.637C437.043 454.848 423.172 461.266 408.473 467.269C393.774 473.273 379.488 478.035 366.652 481.762C334.977 490.871 311.375 492.527 308.27 484.867C305.164 477.207 323.176 462.508 351.953 447.187C351.953 448.016 351.953 448.637 351.953 449.465C328.145 462.508 313.652 475.137 316.137 481.555C318.828 488.18 338.289 487.144 364.996 479.898C377.832 476.379 392.531 471.617 407.852 465.406C423.172 459.195 437.25 452.57 449.051 446.152C473.273 432.902 487.973 420.273 485.281 413.648C482.59 407.23 463.543 408.059 437.457 415.098C437.043 414.477 436.422 413.855 436.008 413.441C467.27 404.746 490.25 403.09 493.356 410.543C496.254 418.41 478.035 433.316 448.844 448.637Z" fill="#37474F"/>
<path d="M195.437 215.727C190.675 215.105 185.914 213.449 180.945 211.172C159 200.613 156.722 174.941 154.238 147.613C151.961 122.563 149.683 96.6836 132.086 80.9492C95.648 48.4453 38.0934 72.2539 37.4723 72.4609C34.7809 66.25 38.3004 59.0039 44.7184 57.3477C51.3434 55.4844 60.0387 53.4141 69.9762 52.3789C98.1324 49.4805 122.562 56.3125 140.16 72.0469C161.277 90.8867 163.968 120.492 166.453 146.578C168.73 171.422 170.593 192.746 186.328 200.406C219.246 216.348 240.984 176.598 241.812 174.734L252.578 180.324C252.371 180.945 245.746 193.16 233.945 203.305C221.73 213.656 208.687 217.797 195.437 215.727Z" fill="#FFC727"/>
<path d="M195.437 215.727C190.675 215.105 185.914 213.449 180.945 211.172C159 200.613 156.722 174.941 154.238 147.613C151.961 122.563 149.683 96.6836 132.086 80.9492C95.648 48.4453 38.0934 72.2539 37.4723 72.4609C34.7809 66.25 38.3004 59.0039 44.7184 57.3477C51.3434 55.4844 60.0387 53.4141 69.9762 52.3789C98.1324 49.4805 122.562 56.3125 140.16 72.0469C161.277 90.8867 163.968 120.492 166.453 146.578C168.73 171.422 170.593 192.746 186.328 200.406C219.246 216.348 240.984 176.598 241.812 174.734L252.578 180.324C252.371 180.945 245.746 193.16 233.945 203.305C221.73 213.656 208.687 217.797 195.437 215.727Z" fill="#159BBA"/>
<path opacity="0.1" d="M252.577 180.324C252.37 180.945 245.745 193.16 233.944 203.305C226.698 209.516 219.038 213.449 211.171 215.312L197.507 203.926C224.007 207.445 240.983 176.391 241.812 174.941L252.577 180.324Z" fill="black"/>
<path d="M290.672 239.328C289.637 239.949 225.664 218.625 222.973 216.762C222.766 216.762 222.766 216.555 222.559 216.348C219.453 213.242 207.652 191.504 206.824 189.848C204.754 185.5 269.141 131.258 281.148 126.289C284.254 125.047 323.383 139.125 329.387 144.715C331.871 147.199 336.633 157.137 336.426 158.379C335.805 160.449 291.707 238.707 290.672 239.328Z" fill="#FFC727"/>
<path d="M290.672 239.328C289.637 239.949 225.664 218.625 222.973 216.762C222.766 216.762 222.766 216.555 222.559 216.348C219.453 213.242 207.652 191.504 206.824 189.848C204.754 185.5 269.141 131.258 281.148 126.289C284.254 125.047 323.383 139.125 329.387 144.715C331.871 147.199 336.633 157.137 336.426 158.379C335.805 160.449 291.707 238.707 290.672 239.328Z" fill="#159BBA"/>
<path opacity="0.1" d="M290.672 239.328C289.637 239.949 225.664 218.625 222.973 216.762C222.766 216.762 222.766 216.555 222.559 216.348C234.152 202.891 288.395 140.367 289.43 140.16C290.465 139.953 327.523 154.445 336.426 158.379C335.805 160.449 291.707 238.707 290.672 239.328Z" fill="black"/>
<path d="M197.921 369.344L146.991 395.016C137.261 399.777 128.772 404.332 124.632 407.023C122.976 408.059 122.147 408.887 121.94 409.301C121.319 413.234 157.964 492.32 160.034 494.598C162.312 496.875 169.144 490.871 170.179 486.73C171.214 482.59 170.8 445.945 170.8 445.945L221.315 419.859L197.921 369.344Z" fill="#515154"/>
<path d="M114.074 412.613L115.938 416.754C116.352 416.547 116.973 416.547 117.387 416.547C119.871 416.547 121.734 418.617 121.734 420.895C121.734 422.551 120.699 424 119.457 424.828L121.113 428.555C121.527 428.348 122.148 428.348 122.563 428.348C125.047 428.348 126.91 430.211 126.91 432.695C126.91 434.352 125.875 435.801 124.426 436.629L126.082 440.355C126.496 440.148 127.117 440.148 127.738 440.148C130.223 440.148 132.086 442.219 132.086 444.496C132.086 446.152 131.051 447.602 129.602 448.43L131.258 452.156C131.672 451.949 132.293 451.949 132.914 451.949C135.398 451.949 137.262 453.812 137.262 456.297C137.262 457.953 136.227 459.609 134.777 460.23L136.641 463.75C137.262 463.543 137.676 463.336 138.297 463.336C140.781 463.336 142.645 465.406 142.645 467.684C142.645 469.547 141.609 470.996 140.16 471.617L141.816 475.344C142.438 475.137 142.852 474.93 143.473 474.93C145.957 474.93 147.82 477 147.82 479.277C147.82 481.141 146.785 482.59 145.336 483.211L146.992 486.938C147.613 486.73 148.027 486.523 148.855 486.523C151.34 486.523 153.203 488.387 153.203 490.871C153.203 492.734 152.168 494.184 150.512 494.805L151.961 498.324L159.828 493.977L121.734 408.68L114.074 412.613Z" fill="#29292C"/>
<path d="M139.125 401.434C142.023 405.988 142.23 411.992 140.988 416.133C139.746 420.066 137.055 424.414 132.707 426.691C132.5 426.691 132.5 426.484 132.5 426.484C139.746 420.895 142.645 409.922 138.711 401.641C138.918 401.434 139.125 401.227 139.125 401.434Z" fill="#29292C"/>
<path d="M149.683 397.5C152.996 402.883 155.687 408.473 158.586 414.27C161.277 419.859 163.969 425.449 166.66 431.039C168.109 434.352 169.765 437.457 171.008 440.769C171.008 440.977 170.801 441.184 170.594 440.977C167.488 435.594 164.59 429.797 161.898 424.207C159 418.617 156.308 413.027 153.617 407.437C152.168 404.125 150.719 401.02 149.269 397.707C149.062 397.5 149.476 397.293 149.683 397.5Z" fill="#29292C"/>
<path d="M154.445 396.051C157.758 401.434 160.449 407.023 163.347 412.82C166.039 418.41 168.73 424 171.422 429.59C172.871 432.902 174.527 436.008 175.769 439.32C175.769 439.527 175.562 439.734 175.355 439.527C172.25 434.145 169.351 428.348 166.66 422.758C163.762 417.168 161.07 411.578 158.379 405.988C156.929 402.676 155.48 399.57 154.031 396.258C153.824 395.844 154.238 395.637 154.445 396.051Z" fill="#29292C"/>
<path d="M162.105 387.148L188.398 436.422C188.398 436.422 196.266 438.078 205.996 433.523C227.734 423.586 263.965 400.191 282.184 382.387C301.023 363.961 319.449 234.152 319.449 234.152L275.352 208.895C275.352 208.895 252.371 331.25 243.883 339.945C236.223 347.812 192.125 365.41 171.215 376.176C163.969 380.109 162.105 387.148 162.105 387.148Z" fill="#159BBA"/>
<path d="M171.629 386.734C175.148 391.91 178.047 397.5 181.152 403.09C184.051 408.68 186.949 414.062 189.848 419.652C191.504 422.758 193.16 426.07 194.609 429.176C194.609 429.383 194.402 429.59 194.195 429.383C190.883 424 187.777 418.617 184.672 413.027C181.566 407.645 178.668 402.055 175.77 396.672C174.113 393.566 172.457 390.254 171.008 386.941C171.008 386.527 171.422 386.32 171.629 386.734Z" fill="#263238"/>
<path opacity="0.1" d="M260.237 283.012L319.655 234.566L275.351 208.895C275.351 208.895 268.104 247.609 260.237 283.012Z" fill="black"/>
<path opacity="0.1" d="M270.59 363.133C268.934 363.547 267.484 363.133 265.828 362.719C264.379 362.305 262.93 361.684 261.48 360.855C258.789 359.406 256.305 357.336 254.027 355.266C252.992 354.23 251.957 352.988 250.922 351.953C249.887 350.711 249.059 349.469 248.23 348.227C247.402 346.984 246.574 345.742 245.746 344.293C245.125 342.844 244.297 341.602 243.883 340.152C245.125 341.187 246.16 342.223 247.195 343.258C248.23 344.293 249.266 345.328 250.301 346.363C251.336 347.398 252.371 348.434 253.406 349.469L255.062 351.125C255.684 351.539 256.098 352.16 256.512 352.781C258.582 354.852 260.652 356.715 262.93 358.578C265.414 360.234 267.691 362.098 270.59 363.133Z" fill="black"/>
<path d="M293.049 375.794C297.952 365.464 295.982 354.269 288.648 350.788C281.314 347.307 271.394 352.858 266.491 363.188C261.588 373.517 263.559 384.713 270.893 388.194C278.227 391.675 288.146 386.123 293.049 375.794Z" fill="#0B7D98"/>
<path opacity="0.1" d="M293.049 375.794C297.952 365.464 295.982 354.269 288.648 350.788C281.314 347.307 271.394 352.858 266.491 363.188C261.588 373.517 263.559 384.713 270.893 388.194C278.227 391.675 288.146 386.123 293.049 375.794Z" fill="#0B7D98"/>
<path d="M187.983 257.754C187.983 257.754 174.526 202.477 174.526 202.27C172.042 191.711 169.558 182.395 167.901 177.84C167.28 175.977 166.659 174.941 166.245 174.734C162.519 173.285 77.2217 190.883 74.5303 192.539C71.8389 194.195 76.1866 202.27 79.9131 204.133C83.8467 205.996 119.456 213.863 119.456 213.863L133.327 269.141L187.983 257.754Z" fill="#515154"/>
<path d="M165.004 166.453L160.656 167.281C160.656 167.695 160.656 168.316 160.656 168.73C160.035 171.008 157.758 172.664 155.48 172.043C153.824 171.629 152.582 170.387 152.168 168.937L147.82 169.766C147.82 170.18 147.82 170.801 147.82 171.215C147.199 173.492 144.922 175.148 142.645 174.527C140.988 174.113 139.746 172.871 139.332 171.422L135.398 172.25C135.398 172.664 135.398 173.285 135.398 173.906C134.777 176.184 132.5 177.84 130.223 177.219C128.566 176.805 127.324 175.562 126.91 173.906L122.977 174.734C122.977 175.355 122.977 175.77 122.977 176.391C122.355 178.668 120.078 180.324 117.801 179.703C116.145 179.289 114.902 178.047 114.488 176.391L110.555 177.219C110.555 177.84 110.555 178.254 110.555 178.875C109.934 181.152 107.656 182.809 105.379 182.188C103.723 181.773 102.48 180.531 102.066 178.875L97.3047 179.289C97.5117 179.91 97.3047 180.531 97.3047 180.945C96.6836 183.223 94.4062 184.879 92.1289 184.258C90.4727 183.844 89.2305 182.395 88.8164 180.945L84.8828 181.773C85.0898 182.395 85.0898 183.016 84.8828 183.637C84.2617 185.914 81.9844 187.57 79.707 186.949C78.0508 186.535 76.6016 185.086 76.3945 183.43L72.668 184.051L75.1523 192.746L166.867 174.941L165.004 166.453Z" fill="#29292C"/>
<path d="M169.973 193.367C164.797 195.023 159 194.195 155.273 191.711C151.754 189.434 148.027 185.914 146.992 181.359C146.992 181.152 147.199 181.152 147.199 181.359C150.926 189.641 161.07 195.023 169.973 193.16C170.18 193.16 170.18 193.367 169.973 193.367Z" fill="#29292C"/>
<path d="M171.421 204.34C165.417 206.203 159.206 207.652 153.202 209.102C147.198 210.551 140.987 211.793 134.983 213.035C131.464 213.863 127.944 214.484 124.425 215.105C124.218 215.105 124.218 214.898 124.425 214.691C130.429 212.828 136.64 211.379 142.644 209.93C148.647 208.48 154.651 207.031 160.862 205.582C164.382 204.754 167.901 204.133 171.421 203.719C171.628 203.926 171.835 204.34 171.421 204.34Z" fill="#29292C"/>
<path d="M171.836 209.309C165.832 211.172 159.621 212.621 153.617 214.07C147.613 215.52 141.402 216.762 135.398 218.004C131.879 218.832 128.359 219.453 124.84 220.074C124.633 220.074 124.633 219.867 124.84 219.66C130.844 217.797 137.055 216.348 143.059 214.898C149.062 213.449 155.066 212 161.277 210.551C164.797 209.723 168.316 209.102 171.836 208.688C172.043 208.895 172.25 209.309 171.836 209.309Z" fill="#29292C"/>
<path d="M319.448 234.566C319.448 234.566 307.234 248.023 296.882 258.582C289.222 266.242 282.183 272.867 280.32 272.867C278.249 272.867 268.519 271.832 265.413 271.418C265.413 271.418 218.003 323.59 193.78 336.012C185.499 340.359 159.413 335.805 151.753 323.176C139.538 302.473 127.116 271.211 122.562 251.336C120.491 242.641 122.562 233.117 122.562 233.117L178.46 217.59C178.46 217.59 184.464 227.734 186.327 233.945C189.019 243.469 191.503 272.867 191.503 272.867C206.616 262.102 221.316 242.02 221.316 242.02C221.316 242.02 225.663 218.832 252.991 196.059L319.448 234.566Z" fill="#159BBA"/>
<path d="M280.32 272.453C273.281 271.211 266.035 270.797 258.996 270.797C258.789 270.797 258.582 271.211 258.996 271.211C266.035 272.039 273.281 272.867 280.32 273.281C280.941 273.488 280.941 272.66 280.32 272.453Z" fill="#263238"/>
<path d="M304.335 234.359C304.335 234.152 304.128 233.945 303.921 234.152C300.195 240.984 296.261 246.781 292.12 252.785C290.257 255.684 278.663 270.59 274.316 266.449C273.488 265.828 273.695 264.586 274.109 263.344C274.73 261.687 276.386 260.031 277.628 258.789C280.113 255.684 282.39 252.578 284.667 249.266C288.808 243.055 292.535 236.844 295.226 229.805C295.226 229.598 295.019 229.391 294.812 229.598C289.843 238.5 284.667 247.195 278.249 255.27C275.144 259.203 269.554 264.379 273.488 267.484C277.628 270.59 286.531 261.687 288.808 258.996C295.226 251.75 300.195 242.848 304.335 234.359Z" fill="#263238"/>
<path d="M274.108 266.863C273.073 267.691 272.038 268.727 271.003 269.555C270.175 270.383 269.347 271.004 268.933 272.039C268.933 272.246 269.14 272.453 269.347 272.246C270.382 271.832 271.21 271.004 272.038 270.176C273.073 269.348 274.108 268.52 274.937 267.691C275.765 267.277 274.937 266.242 274.108 266.863Z" fill="#263238"/>
<path d="M130.43 239.949C136.227 237.879 142.23 236.43 148.234 234.98C154.238 233.531 160.035 232.082 166.039 230.633C169.352 229.805 172.871 228.977 176.391 228.562C176.598 228.562 176.598 228.77 176.391 228.977C170.594 230.84 164.59 232.496 158.586 233.945C152.582 235.602 146.785 237.051 140.781 238.5C137.262 239.328 133.949 239.949 130.43 240.57C130.223 240.57 130.223 240.156 130.43 239.949Z" fill="#263238"/>
<path opacity="0.1" d="M182.809 315.723C181.773 314.066 181.359 312.203 181.152 310.34C180.945 309.305 180.945 308.477 180.945 307.441C180.945 306.406 180.945 305.578 180.945 304.543C181.152 300.816 181.98 297.09 182.809 293.363C183.844 289.844 184.879 286.117 186.328 282.805C187.777 279.285 189.434 275.973 191.504 272.867C190.883 276.594 190.055 280.113 189.02 283.84C188.191 287.359 187.156 290.879 186.328 294.398C185.5 297.918 184.465 301.438 183.637 304.957C183.223 306.82 182.809 308.477 182.602 310.34C182.602 311.996 182.602 313.859 182.809 315.723Z" fill="black"/>
<path d="M181.152 341.395C192.586 341.395 201.855 334.814 201.855 326.695C201.855 318.577 192.586 311.996 181.152 311.996C169.718 311.996 160.449 318.577 160.449 326.695C160.449 334.814 169.718 341.395 181.152 341.395Z" fill="#0B7D98"/>
<path opacity="0.1" d="M181.152 341.395C192.586 341.395 201.855 334.814 201.855 326.695C201.855 318.577 192.586 311.996 181.152 311.996C169.718 311.996 160.449 318.577 160.449 326.695C160.449 334.814 169.718 341.395 181.152 341.395Z" fill="#0B7D98"/>
<path d="M317.999 167.281C351.124 180.531 377.831 185.914 388.183 182.809C397.292 180.117 423.585 168.938 436.421 156.723C440.355 152.996 422.964 127.945 417.581 130.016C412.199 132.086 385.491 146.992 378.659 149.477C374.726 150.926 331.456 152.582 321.726 152.582C305.163 152.789 303.3 161.484 317.999 167.281Z" fill="#F7A9A0"/>
<path d="M453.605 139.953C452.363 141.816 453.398 142.437 457.125 141.195C460.852 139.953 474.516 131.672 477 136.848C479.484 141.816 460.023 152.996 453.605 154.652C447.188 156.309 436.422 156.723 436.422 156.723C439.734 153.617 447.188 145.75 453.605 139.953Z" fill="#515154"/>
<path d="M417.581 129.809C427.312 121.941 438.905 111.383 452.776 109.105C455.468 108.691 457.331 109.727 457.331 109.727C463.542 108.691 466.026 111.176 466.026 111.176C472.237 112.004 474.308 114.902 474.308 114.902C474.308 114.902 481.761 113.66 483.21 118.008C484.866 122.77 474.308 123.598 468.511 127.531C455.675 136.641 439.94 153.203 436.421 156.309L417.581 129.809Z" fill="#515154"/>
<path d="M448.223 127.945C452.156 125.254 455.676 122.563 460.023 120.492C464.578 118.215 469.34 116.766 474.309 115.109C474.516 115.109 474.309 114.902 474.309 114.902C464.785 116.559 455.055 121.527 448.223 127.945C448.016 127.945 448.016 128.152 448.223 127.945Z" fill="#29292C"/>
<path d="M441.597 121.113C445.531 118.836 452.363 114.695 466.027 111.59C456.918 112.211 448.844 115.523 441.597 121.113C441.183 121.113 441.39 121.113 441.597 121.113Z" fill="#29292C"/>
<path d="M438.078 117.18C444.91 113.453 449.465 112.004 457.332 109.934C448.222 111.383 445.117 113.039 437.871 117.18C437.664 117.18 437.871 117.387 438.078 117.18Z" fill="#29292C"/>
<path d="M417.582 129.809L436.421 156.516C436.421 156.516 435.386 161.691 431.039 166.039C426.691 170.387 392.117 184.672 381.351 184.672C370.586 184.879 328.972 174.32 314.066 166.867C299.16 159.414 307.027 152.789 318 151.961C328.972 151.133 374.726 148.648 377.418 148.027C380.109 147.406 401.847 133.742 406.402 131.258C411.164 128.773 417.582 129.809 417.582 129.809Z" fill="#159BBA"/>
<path opacity="0.1" d="M314.067 166.867C324.832 172.25 349.676 179.289 366.652 182.809L316.758 152.168C306.613 153.203 299.781 159.621 314.067 166.867Z" fill="black"/>
<path opacity="0.1" d="M410.543 132.914C413.441 136.641 416.133 140.367 418.617 144.094C421.309 147.82 423.793 151.547 426.277 155.48C427.727 157.551 429.176 159.828 430.625 162.105C430.625 162.312 430.625 162.312 430.418 162.105C427.519 158.379 425.035 154.652 422.344 150.926C419.652 147.199 417.168 143.473 414.477 139.746C413.027 137.676 411.578 135.398 410.129 133.121C410.129 132.914 410.336 132.707 410.543 132.914Z" fill="black"/>
<path d="M319.448 234.566L252.991 196.266C252.991 196.266 251.542 191.09 255.269 184.879C263.757 171.008 283.839 148.441 301.851 140.16C314.894 134.156 325.038 139.332 328.972 148.855C330.007 151.34 339.53 182.809 338.288 193.988C337.046 205.789 331.249 220.695 326.073 228.77C323.589 232.496 319.448 234.566 319.448 234.566Z" fill="#159BBA"/>
<path d="M319.035 238.5C320.07 238.707 322.969 233.324 322.762 232.496C322.555 231.668 253.613 192.332 252.992 192.125C252.578 192.125 249.059 198.75 249.68 199.164C250.301 199.578 317.586 238.293 319.035 238.5Z" fill="#0B7D98"/>
<path opacity="0.1" d="M319.035 238.5C320.07 238.707 322.969 233.324 322.762 232.496C322.555 231.668 253.613 192.332 252.992 192.125C252.578 192.125 249.059 198.75 249.68 199.164C250.301 199.578 317.586 238.293 319.035 238.5Z" fill="#0B7D98"/>
<path d="M305.578 193.988L338.91 201.027L339.738 171.422L306.199 164.383L305.578 193.988Z" fill="#FFC727"/>
<path d="M305.578 193.988L338.91 201.027L339.738 171.422L306.199 164.383L305.578 193.988Z" fill="#0B7D98"/>
<path opacity="0.1" d="M305.578 193.988L309.719 194.816L310.547 165.211L306.199 164.383L305.578 193.988Z" fill="black"/>
<path opacity="0.1" d="M333.734 177.219C333.734 178.254 334.355 179.289 335.391 179.496C336.426 179.703 337.047 179.082 337.047 178.047C337.047 177.012 336.426 175.977 335.391 175.77C334.563 175.355 333.734 176.184 333.734 177.219Z" fill="black"/>
<path opacity="0.1" d="M333.527 183.43C333.527 184.465 334.148 185.5 335.184 185.707C336.219 185.914 336.84 185.293 336.84 184.258C336.84 183.223 336.219 182.188 335.184 181.98C334.355 181.566 333.734 182.395 333.527 183.43Z" fill="black"/>
<path opacity="0.1" d="M333.527 189.641C333.527 190.676 334.148 191.711 335.184 191.918C336.219 192.125 336.84 191.504 336.84 190.469C336.84 189.434 336.219 188.398 335.184 188.191C334.355 187.984 333.527 188.605 333.527 189.641Z" fill="black"/>
<path opacity="0.1" d="M328.559 175.977C328.559 177.012 329.18 178.047 330.215 178.254C331.25 178.461 331.871 177.84 331.871 176.805C331.871 175.77 331.25 174.734 330.215 174.527C329.18 174.32 328.559 174.941 328.559 175.977Z" fill="black"/>
<path opacity="0.1" d="M328.352 182.188C328.352 183.223 328.973 184.258 330.008 184.465C331.043 184.672 331.664 184.051 331.664 183.016C331.664 181.98 331.043 180.945 330.008 180.738C329.18 180.531 328.352 181.152 328.352 182.188Z" fill="black"/>
<path opacity="0.1" d="M328.145 188.605C328.145 189.641 328.766 190.676 329.801 190.883C330.836 191.09 331.457 190.469 331.457 189.434C331.457 188.398 330.836 187.363 329.801 187.156C328.973 186.742 328.145 187.57 328.145 188.605Z" fill="black"/>
<path opacity="0.1" d="M323.175 174.941C323.175 175.977 323.796 177.012 324.831 177.219C325.866 177.426 326.487 176.805 326.487 175.77C326.487 174.734 325.866 173.699 324.831 173.492C324.003 173.078 323.175 173.906 323.175 174.941Z" fill="black"/>
<path opacity="0.1" d="M322.968 181.152C322.968 182.188 323.589 183.223 324.624 183.43C325.659 183.637 326.28 183.016 326.28 181.98C326.28 180.945 325.659 179.91 324.624 179.703C323.796 179.496 322.968 180.117 322.968 181.152Z" fill="black"/>
<path opacity="0.1" d="M322.761 187.363C322.761 188.398 323.382 189.434 324.417 189.641C325.452 189.848 326.073 189.227 326.073 188.191C326.073 187.156 325.452 186.121 324.417 185.914C323.589 185.707 322.761 186.328 322.761 187.363Z" fill="black"/>
<path d="M334.355 88.6094C335.597 89.0234 341.394 89.2305 344.292 95.0274C346.984 100.41 345.949 115.316 346.156 118.836C346.363 122.148 350.503 123.391 350.917 127.324C351.331 130.637 348.64 131.465 348.019 133.742C347.605 135.605 348.847 138.504 346.777 140.988C344.914 143.266 342.222 142.23 340.566 142.852C338.91 143.266 337.253 146.992 334.148 147.406C331.042 148.027 328.765 144.715 327.316 144.508C325.66 144.301 323.175 148.855 317.999 147.613C312.824 146.371 312.203 141.816 310.132 140.574C308.062 139.332 302.472 139.953 300.609 136.848C298.539 133.742 298.746 130.223 297.917 128.773C297.089 127.324 294.605 127.117 293.777 123.805C292.949 120.492 296.054 119.043 296.882 116.559C297.503 114.695 296.054 112.832 297.71 110.141C299.988 106.621 304.542 108.07 306.82 104.551C308.683 101.652 313.859 88.6094 322.554 86.7461C328.351 85.0899 334.355 88.6094 334.355 88.6094Z" fill="#263238"/>
<path d="M346.155 117.801C346.362 118.629 346.776 119.25 347.19 119.664L348.64 121.32C349.675 122.355 350.503 123.598 351.124 124.84C351.745 126.082 351.745 127.738 350.917 128.773C350.503 129.395 350.089 129.809 349.468 130.43C348.847 130.844 348.226 131.465 347.812 132.086C347.397 132.914 347.604 133.742 347.604 134.57C347.812 135.398 347.812 136.02 348.019 136.848C348.226 138.297 348.019 139.746 347.19 140.781C346.776 141.402 346.155 141.816 345.534 142.023C344.913 142.23 344.085 142.23 343.464 142.23C342.636 142.23 342.015 142.023 341.187 141.816C340.358 141.816 339.737 141.609 338.909 142.023C339.53 141.816 340.358 142.023 341.187 142.023C341.808 142.23 342.636 142.438 343.464 142.438C344.292 142.645 344.913 142.645 345.741 142.438C346.569 142.23 347.19 141.816 347.812 141.195C348.847 139.953 349.054 138.09 348.847 136.641C348.847 135.813 348.64 135.191 348.433 134.363C348.226 133.535 348.226 132.914 348.64 132.5C349.261 131.465 350.71 130.637 351.538 129.188C352.366 127.738 352.366 125.875 351.538 124.633C350.917 123.184 349.882 122.148 348.847 120.906L347.19 119.25C346.983 119.043 346.362 118.629 346.155 117.801Z" fill="#263238"/>
<path d="M313.651 92.957C311.788 95.0273 310.546 97.3047 309.097 99.582C308.269 100.617 307.647 101.859 306.819 102.895C306.405 103.309 305.991 103.93 305.577 104.344C305.37 104.551 305.37 104.551 305.163 104.551C304.956 104.551 304.956 104.758 304.749 104.758C304.542 104.758 304.128 104.965 303.714 104.965C302.472 105.379 301.022 105.586 299.78 106C298.538 106.414 297.296 107.242 296.468 108.484C296.054 109.105 295.847 109.727 295.64 110.555C295.64 111.176 295.64 112.004 295.847 112.625C296.261 113.867 296.675 115.109 296.468 116.559C296.882 115.316 296.468 113.867 296.261 112.625C296.054 112.004 296.054 111.383 296.054 110.762C296.054 110.141 296.468 109.52 296.882 109.105C297.71 108.07 298.745 107.449 299.987 107.035C301.229 106.621 302.472 106.414 303.921 106C304.335 106 304.542 105.793 304.956 105.793C305.163 105.586 305.784 105.379 305.991 105.172C306.612 104.758 307.026 104.137 307.44 103.723C308.269 102.687 308.89 101.445 309.718 100.41L311.788 96.8906C312.202 95.2344 312.823 93.9922 313.651 92.957Z" fill="#263238"/>
<path d="M296.675 127.324C297.089 128.152 297.089 129.187 297.089 130.016C297.089 131.051 297.089 131.879 297.296 132.914C297.296 133.949 297.503 134.777 297.917 135.812C298.124 136.848 298.745 137.676 299.366 138.504C301.022 139.953 303.093 140.16 304.956 140.16C305.991 140.16 306.819 140.16 307.854 140.16C308.89 140.16 309.718 140.16 310.546 140.574C309.718 139.953 308.683 139.746 307.854 139.746C306.819 139.746 305.991 139.746 304.956 139.539C303.093 139.539 301.229 139.125 299.78 137.883C299.159 137.262 298.745 136.434 298.538 135.605C298.124 134.777 298.124 133.742 297.917 132.914C297.71 131.879 297.71 131.051 297.503 130.016C297.503 129.602 297.296 128.98 297.296 128.566C297.089 128.359 297.089 127.738 296.675 127.324Z" fill="#263238"/>
<path d="M312.616 143.473C312.616 144.922 317.792 155.066 324.21 155.895C326.28 156.102 328.144 144.922 328.144 144.922L328.558 144.094L333.112 132.914L320.897 121.734L319.034 120.285C319.034 120.285 317.999 123.391 316.757 127.324C316.757 127.531 316.55 127.738 316.55 127.945C316.55 128.152 316.343 128.359 316.343 128.566C316.136 129.187 315.929 129.809 315.722 130.43C315.515 130.844 315.515 131.258 315.308 131.879C315.101 132.293 315.101 132.914 314.894 133.328C313.444 137.883 312.616 142.852 312.616 143.473Z" fill="#F7A9A0"/>
<path d="M333.112 132.707L328.558 143.473C320.69 139.125 317.378 132.086 316.343 128.152L316.757 127.117C317.999 123.184 319.034 120.078 319.034 120.078L320.897 121.527L333.112 132.707Z" fill="#263238"/>
<path d="M351.125 116.766C349.883 138.09 336.84 139.746 332.285 139.332C328.144 139.125 313.859 137.676 313.031 116.352C312.203 95.0273 322.554 88.8164 332.078 89.0234C341.808 89.0234 352.574 95.4414 351.125 116.766Z" fill="#F7A9A0"/>
<path d="M314.066 115.73C317.586 116.559 319.242 109.313 319.242 109.313C319.242 109.313 326.281 110.348 330.008 100.41C330.008 100.41 329.18 105.172 325.66 108.277C325.66 108.277 338.289 108.691 344.914 98.9609C344.914 98.9609 342.015 103.93 339.945 105.586C339.945 105.586 345.328 104.758 348.433 101.031C348.433 101.031 349.883 107.242 351.125 109.105C351.125 109.105 353.609 87.3672 333.113 86.9531C333.113 86.9531 320.484 86.125 314.48 95.4414C308.683 104.965 314.066 115.73 314.066 115.73Z" fill="#263238"/>
<path d="M316.343 118.215C316.343 118.215 312.823 110.969 309.511 112.211C306.198 113.453 308.269 123.391 311.581 125.254C314.894 127.117 316.55 124.012 316.55 124.012L316.343 118.215Z" fill="#F7A9A0"/>
<path d="M310.132 114.902C310.132 114.902 310.132 115.109 310.132 114.902C312.409 116.352 313.444 118.836 313.858 121.32C313.237 120.285 312.409 119.664 310.96 120.285V120.492C311.995 120.492 312.616 120.699 313.237 121.527C313.651 122.148 313.858 122.977 314.065 123.598C314.065 123.805 314.48 123.805 314.48 123.598C315.308 120.492 313.651 115.73 310.132 114.902Z" fill="#263238"/>
<path d="M314.274 124.633C314.274 125.254 313.652 125.668 313.031 125.461C312.41 125.461 311.996 124.84 312.203 124.219C312.203 123.598 312.824 123.184 313.445 123.391C313.86 123.391 314.274 124.012 314.274 124.633Z" fill="white"/>
<path d="M347.605 111.797C347.191 111.59 346.777 111.59 346.156 111.383C345.535 111.176 345.121 111.176 344.914 110.555C344.707 110.348 344.707 109.934 344.914 109.727C345.535 109.313 346.156 109.313 346.777 109.52C347.398 109.727 348.02 110.141 348.434 110.762C348.848 111.176 348.227 112.004 347.605 111.797Z" fill="#263238"/>
<path d="M333.734 111.383C334.148 111.383 334.562 111.176 335.183 110.969C335.804 110.762 336.218 110.762 336.425 110.348C336.632 110.141 336.632 109.727 336.425 109.52C336.011 109.105 335.183 109.105 334.562 109.312C333.941 109.52 333.32 109.934 332.906 110.348C332.491 110.762 333.113 111.59 333.734 111.383Z" fill="#263238"/>
<path d="M336.218 115.937C336.218 115.937 336.011 116.145 336.218 115.937C336.011 117.387 335.597 119.043 334.354 119.457C336.011 119.457 336.425 117.387 336.218 115.937Z" fill="#263238"/>
<path d="M334.976 114.488C332.699 114.074 332.077 118.629 334.148 119.043C336.425 119.25 337.046 114.695 334.976 114.488Z" fill="#263238"/>
<path d="M334.148 114.488C333.734 114.695 333.32 115.109 332.699 115.109C332.078 115.109 331.871 114.488 331.457 114.074C331.25 114.902 331.457 115.937 332.492 116.145C333.32 116.352 334.148 115.73 334.355 114.902C334.355 114.695 334.355 114.488 334.148 114.488Z" fill="#263238"/>
<path d="M344.293 116.559C344.293 116.352 344.5 116.559 344.293 116.559C344.086 118.008 344.086 119.664 345.328 120.492C343.879 119.871 343.879 117.801 344.293 116.559Z" fill="#263238"/>
<path d="M345.742 115.109C348.019 115.316 347.605 119.871 345.535 119.664C343.465 119.664 343.879 115.109 345.742 115.109Z" fill="#263238"/>
<path d="M346.777 115.523C347.191 115.73 347.398 116.352 347.812 116.352C348.227 116.352 348.641 115.937 349.055 115.523C349.055 116.352 348.641 117.387 347.812 117.387C346.984 117.387 346.57 116.559 346.363 115.73C346.363 115.73 346.57 115.523 346.777 115.523Z" fill="#263238"/>
<path d="M334.977 127.531C335.184 127.945 335.598 128.359 336.012 128.566C336.426 128.773 337.047 128.566 337.668 128.566C337.254 128.98 336.426 129.188 335.805 128.98C334.977 128.773 334.77 128.152 334.977 127.531C334.77 127.531 334.977 127.531 334.977 127.531Z" fill="#263238"/>
<path d="M341.602 122.77C341.602 122.77 341.602 124.84 341.602 125.875C341.602 125.875 341.395 126.082 340.98 125.875C339.117 125.875 337.461 125.047 336.633 123.598C336.633 123.391 336.633 123.391 336.84 123.391C338.082 124.426 339.531 124.84 340.98 125.047C340.98 124.84 340.773 121.32 340.98 121.32C341.602 121.32 342.637 121.734 343.258 122.148C343.258 117.594 342.637 113.246 342.637 108.691C342.637 108.484 342.844 108.484 342.844 108.691C343.879 113.246 343.879 118.422 344.086 123.184C344.086 124.012 342.016 123.184 341.602 122.77Z" fill="#263238"/>
<path d="M340.567 125.875C340.567 125.875 339.532 127.117 338.083 127.324C337.669 127.531 337.048 127.531 336.634 127.324C335.599 126.91 335.599 125.875 336.013 125.047C336.22 124.426 336.634 123.805 336.634 123.805C336.634 123.805 338.083 125.461 340.567 125.875Z" fill="#263238"/>
<path d="M338.083 127.324C337.669 127.531 337.048 127.531 336.634 127.324C335.599 126.91 335.599 125.875 336.013 125.047C337.048 125.254 338.083 126.289 338.083 127.324Z" fill="#FF98B9"/>
<path d="M303.301 142.23C303.301 144.094 303.715 145.75 304.957 147.613C308.063 152.789 316.758 157.137 325.246 156.102C330.629 155.48 333.941 153.203 335.805 150.512C324.211 152.789 311.789 149.27 303.301 142.23Z" fill="#455A64"/>
<path d="M296.054 135.191C305.784 151.754 333.941 159 351.745 144.094C364.374 133.535 369.757 111.797 360.441 93.5781C346.777 67.2852 319.034 70.1836 303.714 82.8125C287.152 96.4766 288.808 122.77 296.054 135.191ZM315.101 93.3711C327.523 84.2617 350.089 83.6406 360.855 102.273C368.308 115.109 363.753 130.637 353.609 138.297C339.324 149.063 316.55 144.094 308.89 132.293C303.093 123.391 301.851 103.102 315.101 93.3711Z" fill="#159BBA"/>
<path opacity="0.1" d="M308.89 132.293C316.55 144.094 339.324 149.063 353.609 138.297C363.753 130.637 368.308 115.11 360.855 102.274C349.882 83.6409 327.523 84.262 315.101 93.3714C301.851 103.102 303.093 123.391 308.89 132.293Z" fill="#455A64"/>
<path opacity="0.1" d="M308.89 132.293C316.55 144.094 339.324 149.063 353.609 138.297C363.753 130.637 368.308 115.11 360.855 102.274C349.882 83.6409 327.523 84.262 315.101 93.3714C301.851 103.102 303.093 123.391 308.89 132.293Z" fill="#455A64"/>
<g opacity="0.2">
<path opacity="0.2" d="M335.804 87.1602C345.948 97.5117 355.472 109.313 363.753 122.77C364.581 119.043 364.788 115.109 364.167 111.176C358.784 103.516 353.194 96.4766 347.19 89.8516C343.464 88.1953 339.53 87.3672 335.804 87.1602Z" fill="white"/>
<path opacity="0.2" d="M304.956 121.32C305.577 125.668 307.026 129.395 308.683 132.293C310.96 135.813 314.479 138.711 318.827 140.781C314.687 133.742 310.132 127.324 304.956 121.32Z" fill="white"/>
<path opacity="0.2" d="M329.593 87.5742C341.394 99.168 352.366 113.039 361.683 128.566C361.89 128.152 362.097 127.738 362.304 127.324C353.194 112.211 342.636 98.7539 331.042 87.3672C330.421 87.3672 330.007 87.5742 329.593 87.5742Z" fill="white"/>
<path opacity="0.2" d="M305.577 107.863C315.722 118.215 324.831 130.43 332.491 144.094C332.905 144.094 333.319 144.094 333.733 144.094C325.659 129.809 316.136 117.18 305.784 106.621C305.784 107.035 305.784 107.449 305.577 107.863Z" fill="white"/>
<path opacity="0.2" d="M304.749 115.938C304.749 116.559 304.749 116.973 304.749 117.594C311.374 125.047 317.378 133.328 322.761 142.438C323.175 142.645 323.796 142.852 324.21 142.852C318.413 132.914 311.788 123.805 304.749 115.938Z" fill="white"/>
<path opacity="0.2" d="M309.925 98.5469C322.761 110.762 334.354 125.668 343.671 143.059C344.913 142.645 346.155 142.23 347.397 141.816C337.46 123.805 325.452 108.484 312.202 95.8555C311.374 96.6836 310.546 97.5117 309.925 98.5469Z" fill="white"/>
</g>
<path d="M286.117 120.906C284.254 116.352 284.254 107.035 289.016 102.688C293.57 98.5469 301.23 98.1328 304.543 107.656C306.82 114.281 304.957 121.734 301.437 125.254C296.262 130.016 288.394 126.91 286.117 120.906Z" fill="#FFC727"/>
<path d="M286.117 120.906C284.254 116.352 284.254 107.035 289.016 102.688C293.57 98.5469 301.23 98.1328 304.543 107.656C306.82 114.281 304.957 121.734 301.437 125.254C296.262 130.016 288.394 126.91 286.117 120.906Z" fill="#0B7D98"/>
<path d="M284.668 119.25C283.219 115.73 283.219 108.691 286.945 105.172C290.465 101.859 296.262 101.652 298.953 108.898C300.816 113.867 299.367 119.871 296.469 122.355C292.328 126.289 286.531 123.805 284.668 119.25Z" fill="#159BBA"/>
<path d="M293.777 158.586C298.538 186.742 320.898 222.973 328.351 231.047C339.738 243.469 391.702 230.219 402.261 228.148C406.816 227.32 392.737 187.777 387.976 188.605C383.835 189.227 343.878 201.027 342.843 199.578C341.808 198.336 322.554 172.457 308.89 155.48C296.882 140.574 292.534 151.133 293.777 158.586Z" fill="#F7A9A0"/>
<path d="M378.659 190.883C378.659 190.883 385.491 189.02 385.905 189.02C387.354 188.605 389.011 187.984 392.53 185.914C400.605 181.152 423.585 174.941 444.288 191.504C452.155 197.922 451.12 206.203 441.804 201.027C435.179 197.508 430.831 194.402 428.347 193.781C428.347 193.781 432.901 204.34 429.382 210.137C427.726 212.621 423.378 219.453 419.03 224.422C419.03 224.422 417.788 223.801 416.132 222.766C416.132 222.766 411.37 229.805 402.054 228.148L390.253 230.633L378.659 190.883Z" fill="#515154"/>
<path d="M401.019 182.809C405.78 183.844 416.132 185.914 423.792 190.676C432.487 195.852 447.601 208.273 443.667 214.691C440.769 219.246 434.558 215.105 434.558 215.105C434.558 215.105 439.733 221.523 436.214 225.25C433.108 228.562 428.347 225.043 428.347 225.043C428.347 225.043 430.831 229.391 427.104 232.082C422.757 235.187 418.202 225.25 410.956 224.629C409.507 224.008 401.019 182.809 401.019 182.809Z" fill="#515154"/>
<path d="M416.754 198.75C421.102 200.406 430.211 206.617 434.559 214.691C434.559 214.898 434.559 215.105 434.352 214.898C427.727 207.031 420.066 201.234 416.754 198.75Z" fill="#29292C"/>
<path d="M411.784 207.652C415.511 209.516 424.413 216.348 428.554 224.629C428.554 224.836 428.554 225.043 428.347 224.836C421.722 216.348 414.89 210.137 411.784 207.652C411.577 207.652 411.577 207.652 411.784 207.652Z" fill="#29292C"/>
<path d="M378.66 190.883L390.668 230.426C390.668 230.426 388.184 234.98 377.625 237.051C367.066 239.121 335.805 239.742 328.766 233.117C321.52 226.492 301.852 192.539 294.813 167.281C287.98 142.023 302.473 144.508 309.926 155.273C317.586 166.246 342.844 197.922 343.672 198.129C344.5 198.543 362.305 191.711 368.723 190.262C374.934 189.227 378.66 190.883 378.66 190.883Z" fill="#159BBA"/>
<path d="M339.116 193.16C337.253 191.297 335.597 189.434 333.94 187.57C332.284 185.707 330.628 183.637 329.179 181.773C327.522 179.703 326.073 177.84 324.624 175.77L322.347 172.664C321.726 171.629 320.897 170.594 320.276 169.559C321.104 170.387 321.933 171.422 322.968 172.25L325.452 175.148C327.108 177.012 328.765 179.082 330.214 180.945C331.87 183.016 333.319 184.879 334.769 186.949C336.218 189.02 337.667 191.09 339.116 193.16Z" fill="#263238"/>
<path d="M324.831 175.355C324.21 174.527 324.003 173.699 323.589 172.871C323.175 172.043 322.968 171.215 322.761 170.387C323.175 170.801 323.382 171.008 323.589 171.422C323.796 171.836 324.003 172.25 324.21 172.664C324.624 173.492 324.831 174.32 324.831 175.355Z" fill="#263238"/>
<path d="M325.452 229.598C324.003 227.734 322.554 225.871 321.104 223.801C319.655 221.937 318.413 219.867 317.171 217.797C314.479 213.863 312.202 209.723 309.925 205.375C307.647 201.027 305.577 196.887 303.714 192.332C301.851 187.984 300.194 183.43 298.745 178.875C299.78 181.152 300.608 183.223 301.644 185.5C302.679 187.777 303.507 189.848 304.542 191.918L307.647 198.336C308.683 200.406 309.718 202.684 310.96 204.754C313.237 208.895 315.515 213.035 317.999 217.176C320.276 221.523 322.761 225.664 325.452 229.598Z" fill="#263238"/>
<path d="M301.644 186.949C300.815 186.328 300.194 185.707 299.573 185.086C298.952 184.258 298.331 183.637 297.917 182.809C298.745 183.43 299.366 184.051 299.987 184.672C300.608 185.5 301.229 186.121 301.644 186.949Z" fill="#263238"/>
<path opacity="0.1" d="M372.862 195.231C374.519 199.578 375.761 203.926 377.21 208.48C378.452 212.828 379.901 217.176 381.144 221.523C381.972 224.008 382.593 226.492 383.214 229.184C383.214 229.391 383.007 229.391 383.007 229.184C381.351 224.836 380.108 220.488 378.659 215.934C377.21 211.586 375.968 207.238 374.519 202.891C373.69 200.406 373.069 197.922 372.448 195.231C372.448 195.231 372.655 195.023 372.862 195.231Z" fill="black"/>
<path d="M407.229 360.855L413.44 362.098L414.683 368.723L416.132 362.098L422.343 360.855L416.132 359.406L414.683 353.195L413.233 359.406L407.229 360.855Z" fill="#C7C7C7"/>
<path d="M105.172 343.258L111.383 344.5L112.832 350.918L114.074 344.5L120.285 343.258L114.074 341.809L112.832 335.598L111.383 341.809L105.172 343.258Z" fill="#C7C7C7"/>
<path d="M343.672 255.477L349.883 256.719L351.332 263.137L352.574 256.719L358.785 255.477L352.574 254.027L351.332 247.816L349.883 254.027L343.672 255.477Z" fill="#C7C7C7"/>
<path d="M466.233 322.348L469.753 322.969L470.581 326.695L471.202 322.969L474.722 322.348L471.202 321.52L470.581 318L469.753 321.52L466.233 322.348Z" fill="#C7C7C7"/>
<path d="M202.477 461.68L205.996 462.301L206.824 466.027L207.652 462.301L210.965 461.68L207.652 460.852L206.824 457.332L205.996 460.852L202.477 461.68Z" fill="#C7C7C7"/>
<path d="M457.746 157.551L461.266 158.172L461.887 161.691L462.715 158.172L466.234 157.551L462.715 156.723L461.887 153.203L461.266 156.723L457.746 157.551Z" fill="#C7C7C7"/>
<path d="M47.8242 236.223L51.3437 236.844L52.1719 240.57L53 236.844L56.3125 236.223L53 235.395L52.1719 231.875L51.3437 235.395L47.8242 236.223Z" fill="#C7C7C7"/>
<path d="M66.457 422.758L69.9766 423.379L70.8047 426.898L71.6328 423.379L74.9453 422.758L71.6328 421.93L70.8047 418.41L69.9766 421.93L66.457 422.758Z" fill="#C7C7C7"/>
<path d="M444.289 250.301L447.809 250.922L448.637 254.648L449.258 250.922L452.777 250.301L449.465 249.473L448.637 245.953L447.809 249.473L444.289 250.301Z" fill="#C7C7C7"/>
<path d="M171.422 74.5312L174.734 75.1523L175.562 78.8789L176.391 75.1523L179.91 74.5312L176.391 73.7031L175.562 70.1836L174.734 73.7031L171.422 74.5312Z" fill="#C7C7C7"/>
<path d="M307.441 355.266L310.754 355.887L311.582 359.613L312.41 355.887L315.93 355.266L312.41 354.437L311.582 350.918L310.754 354.437L307.441 355.266Z" fill="#C7C7C7"/>
<path d="M194.402 469.547C195.645 469.547 195.645 471.617 194.402 471.617C192.953 471.617 192.953 469.547 194.402 469.547Z" fill="#C7C7C7"/>
<path d="M374.105 280.734C375.348 280.734 375.348 282.805 374.105 282.805C372.656 282.805 372.656 280.734 374.105 280.734Z" fill="#C7C7C7"/>
<path d="M138.711 462.094C139.953 462.094 139.953 464.164 138.711 464.164C137.469 464.164 137.469 462.094 138.711 462.094Z" fill="#C7C7C7"/>
<path d="M421.93 293.984C423.172 293.984 423.172 296.055 421.93 296.055C420.688 296.055 420.688 293.984 421.93 293.984Z" fill="#C7C7C7"/>
<path d="M219.66 451.535C220.488 451.535 220.488 452.984 219.66 452.984C218.625 452.984 218.625 451.535 219.66 451.535Z" fill="#C7C7C7"/>
<path d="M77.2227 81.5703C78.0508 81.5703 78.0508 83.0195 77.2227 83.0195C76.3945 83.0195 76.3945 81.5703 77.2227 81.5703Z" fill="#C7C7C7"/>
<path d="M352.16 310.547C352.988 310.547 352.988 311.996 352.16 311.996C351.125 311.996 351.125 310.547 352.16 310.547Z" fill="#C7C7C7"/>
<path d="M327.938 297.711C330.422 297.711 330.422 301.645 327.938 301.645C325.453 301.437 325.453 297.711 327.938 297.711Z" fill="#C7C7C7"/>
<path d="M186.535 146.578L192.746 147.613L194.195 154.238L195.438 147.613L201.648 146.578L195.645 144.922L194.195 138.711L192.746 144.922L186.535 146.578Z" fill="#C7C7C7"/>
<path d="M252.785 45.961L256.305 46.582L257.133 50.1016L257.754 46.582L261.273 45.961L257.754 45.1328L257.133 41.6133L256.305 45.1328L252.785 45.961Z" fill="#C7C7C7"/>
<path d="M42.2344 139.953C43.4766 139.953 43.4766 142.023 42.2344 142.023C40.7852 141.816 40.7852 139.953 42.2344 139.953Z" fill="#C7C7C7"/>
<path d="M57.9688 407.023C59.2109 407.023 59.2109 409.094 57.9688 409.094C56.7266 409.094 56.7266 407.023 57.9688 407.023Z" fill="#C7C7C7"/>
<path d="M82.3975 224.422C83.6396 224.422 83.6396 226.492 82.3975 226.492C80.9482 226.285 80.9482 224.422 82.3975 224.422Z" fill="#C7C7C7"/>
<path d="M122.147 358.992C122.976 358.992 122.976 360.441 122.147 360.441C121.319 360.441 121.319 358.992 122.147 358.992Z" fill="#C7C7C7"/>
<path d="M272.453 450.293C273.281 450.293 273.281 451.742 272.453 451.742C271.625 451.742 271.625 450.293 272.453 450.293Z" fill="#C7C7C7"/>
<path d="M378.245 124.426C379.073 124.426 379.073 125.875 378.245 125.875C377.417 125.875 377.417 124.426 378.245 124.426Z" fill="#C7C7C7"/>
<path d="M249.472 80.7422C250.3 80.7422 250.3 82.1914 249.472 82.1914C248.644 82.1914 248.644 80.7422 249.472 80.7422Z" fill="#C7C7C7"/>
<path d="M206.824 333.734C209.309 333.734 209.309 337.668 206.824 337.668C204.34 337.461 204.34 333.734 206.824 333.734Z" fill="#C7C7C7"/>
<path d="M461.059 187.777C463.543 187.777 463.543 191.711 461.059 191.711C458.574 191.711 458.574 187.777 461.059 187.777Z" fill="#C7C7C7"/>
<path d="M66.043 357.129C68.5273 357.129 68.5273 361.062 66.043 361.062C63.5586 360.855 63.5586 357.129 66.043 357.129Z" fill="#C7C7C7"/>
<path d="M183.844 177.633L187.363 178.254L187.984 181.98L188.812 178.254L192.332 177.633L188.812 176.805L187.984 173.285L187.363 176.805L183.844 177.633Z" fill="#C7C7C7"/>
<path d="M302.058 457.953L305.577 458.574L306.198 462.301L307.026 458.574L310.546 457.953L307.026 457.125L306.198 453.605L305.577 457.125L302.058 457.953Z" fill="#C7C7C7"/>
<path d="M317.379 412.82C318.621 412.82 318.621 414.891 317.379 414.891C316.137 414.891 316.137 412.82 317.379 412.82Z" fill="#C7C7C7"/>
<path d="M356.714 386.113C357.956 386.113 357.956 388.184 356.714 388.184C355.265 387.977 355.265 386.113 356.714 386.113Z" fill="#C7C7C7"/>
<path d="M232.496 432.281L236.016 432.902L236.637 436.629L237.465 432.902L240.984 432.281L237.465 431.453L236.637 427.934L236.016 431.453L232.496 432.281Z" fill="#C7C7C7"/>
<path d="M375.555 107.863C376.797 107.863 376.797 109.934 375.555 109.934C374.105 109.934 374.105 107.863 375.555 107.863Z" fill="#C7C7C7"/>
<path d="M399.777 389.219C400.605 389.219 400.605 390.668 399.777 390.668C398.742 390.668 398.742 389.219 399.777 389.219Z" fill="#C7C7C7"/>
<path d="M96.4766 268.105L99.9961 268.727L100.824 272.453L101.652 268.727L104.965 268.105L101.652 267.277L100.824 263.758L99.9961 267.277L96.4766 268.105Z" fill="#C7C7C7"/>
<path d="M56.3125 323.59C57.5547 323.59 57.5547 325.66 56.3125 325.66C55.0703 325.453 55.0703 323.59 56.3125 323.59Z" fill="#C7C7C7"/>
<path d="M195.23 249.266C196.473 249.266 196.473 251.336 195.23 251.336C193.988 251.336 193.988 249.266 195.23 249.266Z" fill="#C7C7C7"/>
<path d="M77.2227 147.613C78.0508 147.613 78.0508 149.062 77.2227 149.062C76.3945 149.062 76.3945 147.613 77.2227 147.613Z" fill="#C7C7C7"/>
<path d="M68.1133 140.988C70.5977 140.988 70.5977 144.922 68.1133 144.922C65.6289 144.922 65.6289 140.988 68.1133 140.988Z" fill="#C7C7C7"/>
<path d="M397.085 230.84C399.569 230.84 399.569 234.773 397.085 234.773C394.601 234.773 394.601 230.84 397.085 230.84Z" fill="#C7C7C7"/>
</svg>
