<?xml version="1.0" encoding="utf-8"?>
<!-- Generator: Adobe Illustrator 24.1.1, SVG Export Plug-In . SVG Version: 6.00 Build 0)  -->
<svg version="1.1" id="LEFT_FOOT" xmlns="http://www.w3.org/2000/svg" xmlns:xlink="http://www.w3.org/1999/xlink" x="0px" y="0px"
	 viewBox="0 0 500 500" style="enable-background:new 0 0 500 500;" xml:space="preserve">
<style type="text/css">
	.st0{fill:#5BD1DD;}
	.st1{fill:#86EFFA;}
	.st2{fill:#49BABA;}
	.st3{fill:#095966;}
	.st4{fill:#159BBA;}
	.st5{fill:#38B9CE;}
	.st6{fill:#FFEABB;}
	.st7{fill:#BCAC8B;}
	.st8{fill:#0B7D98;}
	.st9{fill:#FFFFFF;}
</style>
<path class="st0" d="M252.1,381.8l15.6-5.5c-2.1-10.6-5.5-28-8.2-41.7l-1-5.4c-1.5-7.9-2.7-13.9-3-15.2V314c0.1-2.4,0.4-4.7,0.9-7.1
	c4-22.9,19.4-92.1,19.4-92.1l-47.7,3.5c0,0-10.9,81-8.3,98.4C221.7,329.6,242,365,252.1,381.8z"/>
<path class="st1" d="M255.6,253.1c0,0-0.1,0-0.1,0c-0.2-0.1-16.1-6.5-21.1-5.3c-0.2,0-0.3,0.1-0.5,0.2c0.8,0.9,8.4,2.9,15.6,4.4
	c0.2,0.1,0.3,0.3,0.3,0.5c-0.1,0.2-0.2,0.3-0.4,0.3c0,0-4-0.8-8-1.8c-8.2-2.1-8.3-2.9-8.3-3.4c0-0.6,0.8-0.8,1.2-0.9
	c5.3-1.2,20.9,5.1,21.6,5.4c0.2,0.1,0.2,0.3,0.1,0.5C255.8,253,255.7,253,255.6,253.1z"/>
<path class="st1" d="M257.3,368.6c-0.2,0-0.3-0.1-0.4-0.3c-0.6-2.1-15.8-50.6-15.2-55.5s11.5-52.1,12-54.2c0-0.2,0.3-0.3,0.5-0.3
	c0.2,0,0.3,0.3,0.3,0.5l0,0c-0.1,0.5-11.5,49.4-12,54.1s15,54.6,15.2,55.2c0.1,0.2-0.1,0.4-0.3,0.5
	C257.4,368.6,257.4,368.6,257.3,368.6L257.3,368.6z"/>
<path class="st2" d="M259.5,334.6c-6.7-7-17.7-20.7-17.8-22.1c-0.3-4.1,4.1-17.7,4.1-17.7s5.4,6.1,10.6,12.1
	c-0.5,2.3-0.8,4.7-0.9,7.1v0.1c0.3,1.4,1.4,7.3,3,15.2L259.5,334.6z"/>
<path class="st1" d="M227.3,242.3c-0.2,0-0.4-0.2-0.4-0.4c0-0.2,0.1-0.3,0.2-0.4l0,0c1.6-0.8,3.1-2,4.2-3.4c1.9-2.3,4-6.3,3.4-12.8
	c0-0.2,0.1-0.4,0.4-0.4s0.4,0.1,0.4,0.4c1.1,12.9-8,16.9-8.1,16.9C227.4,242.3,227.4,242.3,227.3,242.3z"/>
<polygon class="st1" points="266.2,405.4 272.6,401.2 269.8,390.1 268.3,384.2 257.8,387.8 259.1,390.5 "/>
<path class="st3" d="M269.8,390.1l-1.5-5.8l-10.5,3.5l1.3,2.8C262.7,391.1,266.3,391,269.8,390.1z"/>
<path class="st4" d="M284.4,409.9L273.2,398c-3.2,3.5-10.7,5.9-10.7,5.9s-6,26.9-6.9,31.8s7,17.5,7,17.5L284.4,409.9z"/>
<path class="st5" d="M262.6,407.3c0.1,0,0.2,0,0.3-0.1c1.6-1,3.5-1.5,5.3-1.1c0.2,0,0.4-0.2,0.4-0.4c0-0.2-0.1-0.3-0.3-0.4
	c-2.1-0.3-4.2,0.1-5.9,1.3c-0.2,0.1-0.2,0.4-0.1,0.5C262.4,407.2,262.5,407.3,262.6,407.3z"/>
<path class="st5" d="M260.5,417.5c0.1,0,0.2,0,0.3-0.1c1.6-1.1,3.6-1.5,5.6-1.2c0.2,0,0.4-0.2,0.4-0.4c0-0.2-0.1-0.3-0.3-0.4
	c-2.2-0.4-4.4,0.1-6.2,1.4c-0.2,0.1-0.2,0.4-0.1,0.5C260.2,417.4,260.4,417.5,260.5,417.5z"/>
<path class="st5" d="M258.3,427.6c0.1,0,0.2,0,0.3-0.1c1.7-1.1,3.8-1.6,5.8-1.3c0.2,0,0.4-0.1,0.5-0.3c0-0.2-0.1-0.4-0.3-0.5
	c0,0-0.1,0-0.1,0c-2.2-0.4-4.5,0.1-6.4,1.4c-0.2,0.1-0.2,0.4-0.1,0.5C258.1,427.6,258.2,427.6,258.3,427.6z"/>
<path class="st5" d="M265.5,429.4L265.5,429.4c0.3,0,0.5-0.1,0.5-0.4l4.3-26c0-0.2-0.1-0.4-0.3-0.4c-0.2,0-0.4,0.1-0.4,0.3l-4.3,26
	C265.2,429.1,265.3,429.3,265.5,429.4C265.5,429.4,265.5,429.4,265.5,429.4z"/>
<path class="st3" d="M262.6,453.2l10.3-20.6c-10.9-5.9-17.8,0.1-17.8,0.1s-2.1,6.6-1.3,10.6S262.6,453.2,262.6,453.2z"/>
<polygon class="st3" points="288.8,412.6 284.8,408.9 262.2,454.2 267,456.9 "/>
<ellipse transform="matrix(0.7151 -0.699 0.699 0.7151 -208.4355 309.8777)" class="st3" cx="275.9" cy="410.6" rx="3.9" ry="4.7"/>
<path class="st1" d="M272,384.7l-4.3-16.6c-4.3,2.1-21,7.7-21,7.7l8.5,15.4C261.1,389.9,266.8,387.7,272,384.7z"/>
<polygon class="st1" points="316.5,368 312,374.1 303.8,366.1 298,360.5 306.6,353.5 308.6,356.5 "/>
<path class="st3" d="M308.6,356.5c-0.7,3.6-2.4,6.9-4.9,9.6l-5.8-5.6l8.6-6.9L308.6,356.5z"/>
<path class="st4" d="M324.8,420.6l6.2-48.1l-14.5-7.5c-1.9,4.4-8.1,9.1-8.1,9.1s3.3,27.4,4,32.3S324.8,420.6,324.8,420.6z"/>
<path class="st5" d="M309.5,377.3c-0.2,0-0.4-0.2-0.4-0.4c0-0.1,0-0.1,0.1-0.2c1.2-1.7,3.1-2.8,5.2-3.2c0.2,0,0.4,0.1,0.4,0.3
	c0,0.2-0.1,0.4-0.3,0.4c-1.9,0.3-3.5,1.3-4.7,2.9C309.8,377.2,309.7,377.3,309.5,377.3z"/>
<path class="st5" d="M310.6,387.6c0.2,0.1,0.4,0.1,0.5-0.1c0,0,0,0,0,0c1.2-1.6,2.9-2.6,4.9-3c0.2-0.1,0.3-0.3,0.3-0.5
	c-0.1-0.2-0.2-0.3-0.4-0.3c-2.2,0.4-4.1,1.6-5.4,3.3C310.4,387.2,310.4,387.4,310.6,387.6C310.6,387.5,310.6,387.6,310.6,387.6z"/>
<path class="st5" d="M312,397.9c0.2,0.1,0.4,0.1,0.5-0.1c0,0,0,0,0,0c1.2-1.6,3-2.7,5.1-3.1c0.2-0.1,0.3-0.3,0.3-0.5
	c-0.1-0.2-0.2-0.3-0.4-0.3c-2.2,0.4-4.2,1.6-5.6,3.5C311.7,397.5,311.8,397.7,312,397.9z"/>
<path class="st5" d="M319.2,396.8c0,0.2,0.2,0.3,0.4,0.3h0.1c0.2,0,0.4-0.2,0.3-0.4c0,0,0,0,0,0l-4.5-25.9c0-0.2-0.2-0.4-0.4-0.3
	c-0.2,0-0.4,0.2-0.3,0.4L319.2,396.8z"/>
<path class="st3" d="M324.8,420.6l2.9-22.8c-12.2-2-16.7,6-16.7,6s0.1,6.9,2.3,10.4S324.8,420.6,324.8,420.6z"/>
<polygon class="st3" points="336.1,373.6 331.1,371.5 324.7,421.7 330.2,422.6 "/>
<ellipse transform="matrix(0.444 -0.896 0.896 0.444 -157.1888 498.7389)" class="st3" cx="323.3" cy="376" rx="3.9" ry="4.7"/>
<path class="st1" d="M256.9,253.1c0,0-0.1,0-0.1,0c-0.3-0.1-6.1-2.6-6.1-6.2c0-3.3,0.5-22.4,0.5-22.6c0-0.2,0.2-0.4,0.4-0.4
	c0.2,0,0.4,0.2,0.4,0.4c0,0.2-0.5,19.2-0.5,22.6c0,2.5,3.8,4.6,5.1,5.3c0.3-2.6,1.8-14.9,2.6-28.9c0-0.2,0.2-0.4,0.4-0.4
	c0.2,0,0.4,0.2,0.4,0.4c-0.9,15.8-2.6,29.4-2.7,29.5C257.3,252.9,257.1,253.1,256.9,253.1z"/>
<path class="st0" d="M255.8,252.1c0,0-14,41.2-13.3,49.2s46.7,52.1,46.7,52.1l12.1-9.1l-24-48.2c0,0,30.9-46.2,32.7-55.8
	s-9-34.5-9-34.5l-41.8,7.5L255.8,252.1z"/>
<path class="st1" d="M255.8,252.5c-0.2,0-0.4-0.2-0.4-0.4c0-0.1,0-0.1,0.1-0.2c0.4-0.7,11-17.7,17.6-20.2c0.9-0.3,1.8-0.6,2.1,0
	c0.2,0.4,0.6,1.1-4.5,6.2c-2.5,2.4-5,4.7-5.1,4.7c-0.2,0.1-0.4,0.1-0.6,0s-0.1-0.4,0-0.6c4.5-4,9.4-8.8,9.4-9.9
	c-0.4,0-0.8,0.1-1.2,0.3c-4.9,1.8-12.4,12.5-15.6,17.4c4.3-3.7,14.2-11.9,22.5-14.9c0.2-0.1,0.4,0.1,0.5,0.3c0.1,0.2,0,0.4-0.2,0.5
	c-10.7,3.9-24.3,16.6-24.4,16.7C256,252.5,255.9,252.5,255.8,252.5z"/>
<path class="st1" d="M255,318.9c-0.1,0-0.2,0-0.3-0.1c-8.3-9.2-12.4-14.9-12.6-17.4c-0.7-7.9,12.6-47.1,13.3-49.3l3.4-38.7
	c0-0.2,0.2-0.4,0.4-0.4c0.2,0,0.4,0.2,0.4,0.4l0,0l-3.4,38.7c0,0,0,0.1,0,0.1c-0.1,0.4-14,41.2-13.3,49.1c0.1,1.6,2.4,5.8,12.4,16.9
	c0.1,0.2,0.1,0.4,0,0.6C255.2,318.9,255.1,318.9,255,318.9z"/>
<path class="st1" d="M293.7,341.3c-0.1,0-0.3-0.1-0.3-0.2l-24.7-45.9c-0.1-0.1-0.1-0.3,0-0.4c8.8-14.6,31.7-52.9,32.1-54.6
	c0.4-1.5-1.9-16.7-3.6-26.5c0-0.2,0.1-0.4,0.3-0.4c0.2,0,0.4,0.1,0.4,0.3c0.4,2.5,4.1,24.7,3.5,26.8S271.8,291,269.4,295l24.6,45.7
	c0.1,0.2,0,0.4-0.2,0.5C293.8,341.3,293.7,341.3,293.7,341.3z"/>
<path class="st1" d="M275.2,296.3h-0.1c-7.8-2.1-17.9-0.9-18-0.9c-0.2,0-0.4-0.2-0.4-0.4c0-0.2,0.1-0.4,0.3-0.4
	c0.1,0,10.3-1.2,18.3,0.9c0.2,0.1,0.3,0.3,0.2,0.5C275.4,296.1,275.3,296.2,275.2,296.3z"/>
<path class="st1" d="M300.9,236.2L300.9,236.2c-0.7-0.1-6.9-0.9-8-3.1s-3.8-16-3.9-16.6c0-0.2,0.1-0.4,0.3-0.5s0.4,0.1,0.5,0.3l0,0
	c0,0.1,2.9,14.4,3.9,16.4c0.8,1.6,5.6,2.5,7.4,2.7c0.2,0,0.4,0.2,0.3,0.5C301.3,236.1,301.1,236.3,300.9,236.2L300.9,236.2z"/>
<path class="st1" d="M283.8,352.8c0,0,13.3-10.8,16.6-14.2l9.8,14.1c-3.8,4.6-8.4,8.6-13.5,11.8L283.8,352.8z"/>
<path class="st6" d="M213.7,176.4c-3,2-6.2,3.7-9.5,5.2c-5.5,2.5-12.1,4.5-16.4,2.4c-8.4-4.1-22.8-51.7-22.8-51.7l7.6-2.9l25.9,33.5
	l3.2-2.8l2.6-2.3L213.7,176.4z"/>
<path class="st7" d="M213.7,176.4c-3,2-6.2,3.7-9.5,5.2c-2.7-6.9-3.6-14.3-2.5-21.6l2.6-2.3L213.7,176.4z"/>
<path class="st3" d="M190.6,178.3L190.6,178.3c-0.3,0-0.4-0.3-0.4-0.5c0,0,0,0,0,0c1.4-5.2,3.9-10,7.3-14.2c0.1-0.2,0.4-0.2,0.6,0
	c0.2,0.1,0.2,0.4,0,0.5c-3.3,4.1-5.7,8.8-7.1,13.8C190.9,178.2,190.7,178.3,190.6,178.3z"/>
<path class="st6" d="M165.1,132.3c0,0-5.7-5.4-6.5-7.4s-2.9-9.7-2.9-9.7l15.6-9.1l5.1,11.8l-3.7,11.5L165.1,132.3z"/>
<path class="st6" d="M156.7,110.9c-2.1,1.1-1.5,3.2-1,4.2s3.8,7.9,6.2,6.7s0.6-5.6-1.1-8.4S157.5,110.5,156.7,110.9z"/>
<path class="st6" d="M160.3,107.7c-2.1,1-1.1,4.2-0.6,5.2s3.8,7.9,6.2,6.7s0.6-5.6-1.1-8.4S161.4,107.2,160.3,107.7z"/>
<path class="st6" d="M164.3,105.7c-2.1,1.1-1.4,3.6-0.7,5c0.5,1,3.8,7.9,6.2,6.7s0.3-5.5-1.1-8.4C167,105.6,165,105.3,164.3,105.7z"
	/>
<path class="st6" d="M168.6,104.1c-2.1,1.1-1.5,3.2-1,4.2s3.8,7.9,6.2,6.7s0.6-5.6-1.1-8.4S169.4,103.7,168.6,104.1z"/>
<path class="st3" d="M161.3,122.4c-1.2,0-2.6-1.3-4.2-3.9c-0.1-0.2-0.1-0.4,0.1-0.5c0.2-0.1,0.4-0.1,0.5,0.1c0,0,0,0,0,0.1
	c1.6,2.7,3,3.9,4,3.4s1.2-1.6,0.7-3.3c-0.4-1.6-1.1-3.1-2-4.5c-0.3-0.5-0.6-1-1-1.4c-0.2-0.1-0.2-0.4,0-0.6c0.1-0.2,0.4-0.2,0.6,0
	c0,0,0,0,0,0c0.4,0.5,0.8,1,1.1,1.5c0.9,1.5,1.6,3,2.1,4.7c0.7,2.7-0.2,3.8-1.1,4.2C161.8,122.4,161.6,122.4,161.3,122.4z"/>
<path class="st3" d="M165.2,120.1c-0.8,0-1.8-0.6-2.8-1.8c0,0-0.1-0.1-0.1-0.2c-0.4-1.6-1.1-3.1-2-4.5c-0.3-0.5-0.6-1-1-1.4
	c-0.2-0.1-0.2-0.4,0-0.6c0.1-0.2,0.4-0.2,0.6,0c0,0,0,0,0,0c0.4,0.5,0.8,1,1.1,1.5c0.9,1.4,1.6,3,2.1,4.6c0.7,0.8,1.7,1.7,2.5,1.4
	s1.2-1.6,0.7-3.4c-0.4-1.6-1.1-3.1-2-4.5c-0.3-0.5-0.7-1.1-1.1-1.6c-0.1-0.2-0.1-0.4,0-0.6c0.2-0.1,0.4-0.1,0.6,0c0,0,0,0,0,0.1
	c0.4,0.5,0.8,1.1,1.1,1.6c0.9,1.5,1.6,3,2.1,4.7c0.7,2.7-0.2,3.8-1.1,4.3C165.7,120.1,165.5,120.1,165.2,120.1z"/>
<path class="st3" d="M169.2,117.9c-0.8,0-1.8-0.6-2.8-1.8c0,0-0.1-0.1-0.1-0.2c-0.4-1.6-1.1-3.1-2-4.5c-0.3-0.5-0.7-1.1-1.1-1.6
	c-0.1-0.2-0.1-0.4,0-0.6c0.2-0.1,0.4-0.1,0.6,0c0,0,0,0,0,0.1c0.4,0.5,0.8,1.1,1.1,1.7c0.9,1.4,1.6,3,2.1,4.6
	c0.7,0.8,1.7,1.8,2.5,1.4c0.4-0.2,1.4-0.7,0.6-3.5l0,0c-0.5-1.5-1.1-2.9-1.8-4.3c-0.2-0.4-0.5-0.9-0.8-1.3c-0.1-0.2-0.1-0.4,0-0.5
	s0.4-0.1,0.5,0c0,0,0,0,0,0.1c0.3,0.4,0.6,0.9,0.8,1.4c0.8,1.4,1.4,2.9,1.9,4.5l0,0c0.7,2.3,0.4,3.8-1,4.4
	C169.7,117.8,169.4,117.9,169.2,117.9z"/>
<path class="st3" d="M173.1,115.6c-0.9,0-1.9-0.7-2.9-2c0,0-0.1-0.1-0.1-0.2c-0.5-1.5-1.1-2.9-1.8-4.3c-0.2-0.4-0.5-0.9-0.8-1.3
	c-0.1-0.2,0-0.4,0.2-0.5c0.2-0.1,0.4-0.1,0.5,0.1c0.3,0.4,0.6,0.9,0.8,1.4c0.7,1.4,1.4,2.9,1.9,4.4c0.8,0.9,1.8,2,2.7,1.6
	s1.2-1.6,0.7-3.4c-0.1-0.2,0.1-0.4,0.3-0.5c0.2-0.1,0.4,0.1,0.5,0.3c0.7,2.7-0.2,3.8-1.1,4.3C173.6,115.5,173.4,115.6,173.1,115.6z"
	/>
<path class="st6" d="M167,112.8c-0.4-0.5-0.3-1.2,0.2-1.6c0.1-0.1,0.2-0.1,0.3-0.2c2.4-0.8,7.6-2.3,8-2.1s1.7,7.7,1.7,8.4
	s-4.6,11.9-4.6,11.9s-8.2-1.8-5.4-9.3c1-2.6,4.7-6.5,4.7-6.5c-1.3,0.1-2.5,0.1-3.8,0C167.6,113.4,167.3,113.2,167,112.8z"/>
<path class="st3" d="M167.6,126.6c-0.1,0-0.2-0.1-0.3-0.2c-1.2-1.8-1.4-3.9-0.4-6.4c1.1-2.2,2.4-4.2,4.1-6c-1,0.1-2,0.1-3-0.1
	c-0.5-0.1-1-0.5-1.3-0.9c-0.3-0.4-0.4-0.9-0.2-1.3c0.1-0.5,0.5-0.9,1-1c1.5-0.5,3.7-1.2,5.4-1.6c0.2,0,0.4,0.1,0.4,0.3
	c0,0.2-0.1,0.4-0.2,0.4c-1.7,0.5-3.9,1.1-5.4,1.6c-0.2,0.1-0.4,0.3-0.5,0.5c-0.1,0.2,0,0.4,0.1,0.6c0.2,0.3,0.5,0.5,0.9,0.6
	c1.2,0.1,2.5,0.1,3.7,0c0.2,0,0.4,0.2,0.4,0.4c0,0.1,0,0.2-0.1,0.3c0,0-3.6,3.9-4.6,6.4c-0.8,2.2-0.7,4.2,0.3,5.7
	c0.1,0.2,0.1,0.4-0.1,0.5C167.8,126.5,167.7,126.6,167.6,126.6z"/>
<path class="st4" d="M243.8,152.8c-1.4,7.7-6.2,16.2-15.4,22.5l-12.7,8c-9.3-6.5-14.3-24.5-14.3-24.5c6.7-9.2,25.3-24.7,25.3-24.7
	C238.7,128.1,246.3,139.3,243.8,152.8z"/>
<path class="st5" d="M217.7,179.8c-0.1,0-0.2,0-0.3-0.1c-7.7-8.2-12-21.3-12.1-21.5c-0.1-0.2,0-0.4,0.2-0.5c0.2-0.1,0.4,0,0.5,0.2
	c0,0,0,0,0,0.1c0,0.1,4.3,13.1,11.9,21.2c0.1,0.2,0.1,0.4,0,0.6C217.9,179.7,217.8,179.8,217.7,179.8z"/>
<path class="st3" d="M243.8,152.8c-1.4,7.7-6.2,16.2-15.4,22.5l-12.7,8c0,0,12.2-25.1,18.8-38.1
	C237.1,139.9,241.1,144.7,243.8,152.8z"/>
<path class="st4" d="M265.9,112.6c-14.9,3.1-28.4,10.6-39.1,21.4c0,0-4.1,50.9-2,90.1c0,0,47.2,5.1,81.8-13.9
	C306.6,210.3,289.3,132.7,265.9,112.6z"/>
<path class="st5" d="M242.4,152c-0.2,0-0.4-0.1-0.4-0.3c-0.9-7-1.4-17.9-1.4-18c0-0.1,0.1-0.3,0.2-0.4l3-2c0.1,0,0.1-0.1,0.2-0.1
	l3.8-0.1c0.2,0,0.4,0.1,0.4,0.4c0,0,0,0,0,0c0.2,4.3,1.6,17,1.6,17.1c0,0.2-0.1,0.3-0.2,0.4l-7,2.8L242.4,152z M241.4,133.9
	c0.1,1.6,0.6,10.8,1.4,17.2l6.3-2.5c-0.2-1.9-1.3-12.3-1.6-16.5l-3.3,0.1L241.4,133.9z"/>
<path class="st5" d="M228.4,220.8h-0.1c-0.2,0-0.4-0.2-0.4-0.4c0-0.2,0.2-0.4,0.4-0.4h0.1c2.5,0,46.8-0.2,73.4-13.4
	c0.2-0.1,0.4,0,0.5,0.2c0.1,0.2,0,0.4-0.2,0.5c-14.3,7.1-33.6,10.4-47.3,11.9C246,220.2,237.2,220.7,228.4,220.8z"/>
<path class="st5" d="M224.6,174.6L224.6,174.6c-0.2,0-0.4-0.2-0.4-0.4c0,0,0,0,0,0c0.6-18.1,1.6-32.9,2-38.4c0-0.2,0.2-0.4,0.4-0.4
	s0.4,0.2,0.4,0.4l0,0c-0.4,5.5-1.4,20.3-2,38.4C225,174.4,224.8,174.6,224.6,174.6z"/>
<path class="st8" d="M240,119.3c-2.8,1.8-5.9,6.7-3.6,19.3c0,0,3.9-0.9,7.3-6.4c3.3,1.7,7,2.4,10.7,2.2
	C254.5,134.4,250.1,112.7,240,119.3z"/>
<path class="st0" d="M346.8,213.8l-47.2-8.6c-2.2-0.4-3.6-2.5-3.3-4.6c0,0,0,0,0-0.1l8.4-45.8c0.4-2.2,2.5-3.6,4.6-3.3
	c0,0,0,0,0.1,0l47.2,8.6c2.2,0.4,3.6,2.5,3.3,4.6c0,0,0,0,0,0.1l-8.4,45.8C351.1,212.7,349,214.2,346.8,213.8
	C346.8,213.8,346.8,213.8,346.8,213.8z"/>
<rect x="300.7" y="178.5" transform="matrix(0.1797 -0.9837 0.9837 0.1797 89.4728 472.5327)" class="st5" width="54.6" height="8.2"/>
<path class="st0" d="M302.8,205.8l-27-4.9c-2-0.3-3.4-2.3-3-4.3c0,0,0,0,0,0l8.5-46.5c0.3-2,2.3-3.4,4.3-3c0,0,0,0,0,0l27,4.9
	c2,0.3,3.4,2.3,3,4.3c0,0,0,0,0,0l-8.5,46.5C306.8,204.8,304.9,206.1,302.8,205.8C302.8,205.8,302.8,205.8,302.8,205.8z"/>
<path class="st5" d="M306.1,205c-0.2,0-0.4-0.2-0.4-0.4c0-0.1,0-0.2,0.1-0.3c0.5-0.5,0.8-1.1,0.9-1.8l8.4-46.2
	c0.2-0.9,0-1.8-0.6-2.6c-0.1-0.2,0-0.4,0.2-0.5c0.2-0.1,0.4-0.1,0.5,0.1c0.6,0.9,0.9,2.1,0.7,3.2l-8.4,46.2
	c-0.2,0.8-0.5,1.6-1.1,2.2C306.3,205,306.2,205,306.1,205z"/>
<path class="st4" d="M275.8,194.2l1.1-6.1c0.1-0.7,0.8-1.2,1.5-1l10.1,1.8c0.7,0.1,1.2,0.8,1,1.5l-1.1,6.1c-0.1,0.7-0.8,1.2-1.5,1
	l-10.1-1.8C276.1,195.5,275.6,194.9,275.8,194.2z"/>
<path class="st4" d="M277.9,182.8L277.9,182.8c0.1-0.8,0.8-1.2,1.5-1.1l10.1,1.8c0.7,0.1,1.2,0.8,1,1.5l0,0.1
	c-0.1,0.7-0.8,1.2-1.5,1l-10.1-1.8C278.2,184.1,277.7,183.5,277.9,182.8z"/>
<path class="st4" d="M278.8,177.8L278.8,177.8c0.1-0.8,0.8-1.2,1.5-1.1l10.1,1.8c0.7,0.1,1.2,0.8,1,1.5l0,0.1
	c-0.1,0.7-0.8,1.2-1.5,1l-10.1-1.8C279.1,179.2,278.6,178.5,278.8,177.8z"/>
<path class="st6" d="M324.6,194l-8.3-3.9l9.1-38.1l-5.8-1.4l-8.4-2l2-23.9c0,0,0.8,0.2,2.1,0.6c7.2,2,30.6,9.1,32.8,16
	C350.8,149.4,333.3,180.4,324.6,194z"/>
<path class="st7" d="M319.6,150.6l-8.4-2l2-23.9c0,0,0.8,0.2,2.1,0.6C319.9,132.9,321.4,142,319.6,150.6z"/>
<path class="st3" d="M326.5,150.8c-0.2,0-0.4-0.2-0.4-0.4c0-0.1,0-0.2,0.1-0.3c3.2-3.6,7.1-6.5,11.5-8.5c0.2-0.1,0.4,0,0.5,0.2
	c0.1,0.2,0,0.4-0.2,0.5c-4.3,2-8.1,4.8-11.2,8.3C326.7,150.8,326.6,150.8,326.5,150.8z"/>
<path class="st6" d="M316.4,190.2c0,0-11.6,4.4-12.4,5.6s-2.1,7.5-2,8.4s3.6,1.6,5.1-4.2h8.3L316.4,190.2z"/>
<path class="st6" d="M316.4,190.2l-9.4,9.7l-1.9,6.2c-0.5,1,0,2.3,1,2.8c0.1,0.1,0.3,0.1,0.4,0.1c2,0.6,2.8-1.6,2.8-1.6l0,0
	c0,0-0.8,2.6,1.2,3.1s2.8-1.9,2.8-1.9s-0.5,2.4,1.2,2.8s2.6-1.7,2.6-1.7s-0.6,2.1,1.2,2.5c1.6,0.4,2.2-1.5,2.2-1.5s2.2-5.4,3-8
	c0.6-2,1.1-8.7,1.1-8.7L316.4,190.2z"/>
<path class="st4" d="M265.9,112.6c0,0,20.8-0.8,50.4,11.1c0,0,2.9,19.1-4.4,31.7l-25.2-7.5C286.6,147.9,259.5,135.5,265.9,112.6z"/>
<path class="st5" d="M308.1,151.4h-0.1c-0.2-0.1-0.3-0.3-0.2-0.5c0,0,0,0,0,0c4.7-11.9,2.8-25.8,2.8-25.9c0-0.2,0.1-0.4,0.3-0.5
	c0.2,0,0.4,0.1,0.5,0.3c0,0,0,0,0,0.1c0,0.1,1.9,14.3-2.9,26.3C308.4,151.3,308.2,151.4,308.1,151.4z"/>
<path class="st5" d="M310.4,155.3h-0.1l-23.8-7h0c-4.6-2.2-8.7-5.2-12.4-8.7c-7.8-7.5-10.9-16.2-9-25.3c0-0.2,0.2-0.4,0.4-0.3
	c0.2,0,0.4,0.2,0.3,0.4c0,0,0,0,0,0.1c-1.9,8.9,1.1,17.1,8.8,24.6c3.6,3.4,7.7,6.3,12.2,8.5l23.8,7c0.2,0.1,0.2,0.3,0.1,0.5
	C310.6,155.3,310.5,155.3,310.4,155.3z"/>
<path class="st6" d="M247.3,122c0,0-0.8,5.6-3.6,9.5c0,0-4.2-3.3-5.3-5.2l-0.5-2.1l-1.8-7.4l6.2-12.7l0.7,2.6L247.3,122z"/>
<path class="st3" d="M238,124.2l-1.8-7.4l6.2-12.7l0.7,2.6C243.5,111.9,243.4,121.5,238,124.2z"/>
<path class="st6" d="M216.4,97c0,0,2,14.5,10.3,20.8s12.9,1.7,15.2-6.1S242,85.3,230.8,85S215.2,89.7,216.4,97z"/>
<path class="st3" d="M251.2,93.5c-0.1,1.2-0.2,2.5-0.5,3.7c-2.5,11.4-6.6,13.6-6.6,13.6l-2.4-9.1l-1-0.3l-0.5-1l-1.5-3.3
	c0,0-5.9,1.6-8-7c0,0-2,5.8-5,6.8c-1.8,0.5-3.7,0.1-5.1-1.2c0,0-0.3,8.1-7.1,5.2s-9.3-12.7-7.6-14.4s4.9,0.7,4.9,0.7
	S206,74,211.2,70.1s12.9,1.8,16.2,5.2c0,0-0.5-7.5,3.1-7.6s3.4,10,9.4,12.8C245.2,82.8,251.6,85.2,251.2,93.5z"/>
<path class="st3" d="M251.2,93.5c-0.1,1.2-0.2,2.5-0.5,3.7c-2.5,11.4-6.6,13.6-6.6,13.6l-2.4-9.1l-1-0.3l-0.5-1
	C243.9,99.6,248.5,97.8,251.2,93.5z"/>
<path class="st6" d="M240.4,101.7c0,0-0.9-7.5,3.4-7.9s5.2,10.3-2.5,11.3L240.4,101.7z"/>
<path class="st3" d="M242.1,103.8c-0.2,0-0.3-0.1-0.4-0.3c-0.1-0.3-1.2-6.3,2.5-7.8c0.2-0.1,0.4,0,0.5,0.2c0.1,0.2,0,0.4-0.2,0.5
	c-3.1,1.3-2,6.9-2,6.9c0,0.2-0.1,0.4-0.3,0.5c0,0,0,0,0,0L242.1,103.8L242.1,103.8z"/>
<path class="st3" d="M244.8,100.9c-0.2,0-0.3-0.1-0.4-0.2c-0.4-0.9-1.3-1.4-2.3-1.4c-0.2,0-0.4-0.2-0.4-0.4s0.2-0.4,0.4-0.4
	c1.2,0.1,2.4,0.8,2.9,1.9c0.1,0.2,0,0.4-0.2,0.5C244.9,100.9,244.9,100.9,244.8,100.9z"/>
<path class="st3" d="M227.8,111.8c-0.7,0.1-1.4-0.1-1.9-0.6c-0.3-0.4-0.4-0.9-0.1-1.4c0.4-1.5,0.5-3,0.2-4.5c0-0.2,0.1-0.4,0.3-0.5
	c0.2,0,0.4,0.1,0.5,0.3l0,0c0.4,1.7,0.3,3.4-0.2,5c-0.1,0.2-0.1,0.4,0,0.6c0.4,0.4,2,0.3,3,0.1c0.2,0,0.4,0.1,0.4,0.3
	c0,0.2-0.1,0.4-0.3,0.4C229,111.8,228.4,111.8,227.8,111.8z"/>
<path class="st3" d="M228,101.2c0,0-0.8-2.1-0.5-2.7s0.8,0.3,0.8,0.3s3.6-2.8,6,1C234.4,99.8,231.6,98.5,228,101.2z"/>
<path class="st3" d="M229.8,105.1L229.8,105.1c-0.2,0-0.4-0.2-0.4-0.4c0,0,0,0,0,0c0.1-1.1,0.6-2.1,1.5-2.8c0.9-0.6,2.2-0.5,3.8,0.2
	c0.2,0.1,0.3,0.3,0.2,0.5c-0.1,0.2-0.3,0.3-0.5,0.2c0,0,0,0,0,0c-1.3-0.6-2.3-0.7-3-0.2c-0.7,0.5-1.1,1.3-1.1,2.2
	C230.2,104.9,230.1,105.1,229.8,105.1C229.8,105.1,229.8,105.1,229.8,105.1z"/>
<path class="st3" d="M223.7,103.1c-0.3-0.9-0.8-1.7-1.4-2.4c-0.6-0.3-0.3,0.7-0.3,0.7s-3.6-0.2-2.5,4.1
	C219.4,105.5,220.1,102.9,223.7,103.1z"/>
<path class="st3" d="M221.1,108L221.1,108c-0.3-0.1-0.4-0.3-0.3-0.5c0.4-1.3,1-2.1,1.8-2.3c1.4-0.3,2.8,1.2,2.8,1.3
	c0.1,0.2,0.1,0.4-0.1,0.5c-0.2,0.1-0.4,0.1-0.5,0l0,0c-0.3-0.3-1.3-1.2-2.1-1c-0.7,0.3-1.1,1-1.2,1.7
	C221.4,107.9,221.2,108,221.1,108z"/>
<path class="st3" d="M234.5,115.9c-1.2,0.8-2.7,0.8-4,0.2c-0.5-0.2-1-0.6-1.4-1c1.6-2.1,3.7-3.8,6.1-4.9c0.2,0.4,0.4,0.8,0.5,1.3
	C236.2,112.7,236.4,114.7,234.5,115.9z"/>
<path class="st9" d="M235.8,111.4c-2.2,1-4,2.6-5.2,4.6c-0.5-0.2-1-0.6-1.4-1c1.6-2.1,3.7-3.8,6.1-4.9
	C235.5,110.6,235.6,111,235.8,111.4z"/>
<path class="st8" d="M291,101.2l-1.8,3.4l-19.8-10.4l1.8-3.4c0,0,7,1.7,12.7-5.9c1.3-1.7,2.3-3.6,3.1-5.6l1.8,2.3l2.9,0.2
	c-0.7,1-1.3,2.1-1.8,3.1C284.6,95.4,291,101.2,291,101.2z"/>
<path class="st3" d="M289.8,84.9h-6c1.3-1.7,2.3-3.6,3.1-5.6l1.8,2.3l2.9,0.2C291,82.8,290.4,83.8,289.8,84.9z"/>
<path class="st4" d="M289.8,101.8c-0.1,0-0.1,0-0.2,0l-18.1-9.5c-0.2-0.1-0.2-0.4-0.1-0.5c0.1-0.2,0.3-0.2,0.5-0.2l18.1,9.5
	c0.2,0.1,0.3,0.3,0.2,0.5C290.1,101.8,289.9,101.9,289.8,101.8z"/>
<path class="st8" d="M282.9,70.7c-6.3-3.3-10.2-7.5-11.6-12.5c-1.7-6.2,1.1-11.8,2.4-13.9c0.8-1.5,2.6-2.1,4.1-1.3l12.6,6.7
	l-1.9,3.5L276.8,47c-1.1,2-2.8,5.9-1.6,10.2c1.1,3.9,4.3,7.3,9.6,10L282.9,70.7z"/>
<path class="st8" d="M317.8,82.7c-3.6,1.1-7.4,1.1-11-0.1c-2-0.6-4-1.4-5.8-2.4l1.9-3.5c2.4,1.3,5,2.2,7.6,2.7
	c2,0.3,4.1,0.2,6.1-0.4c4.1-1.4,6.5-5,7.5-7l-11.9-6.3l1.9-3.5l12.6,6.7c1.5,0.8,2,2.7,1.3,4.2C326.9,75.2,323.9,80.7,317.8,82.7z"
	/>
<path class="st3" d="M302.8,76.7c2.4,1.3,5,2.2,7.6,2.7c-1.1,1.2-2.4,2.3-3.7,3.3c-2-0.6-4-1.4-5.8-2.4L302.8,76.7z"/>
<path class="st3" d="M317.4,68.4l-5.2-2.7l1.9-3.5l4.5,2.4C318.3,65.8,317.9,67.1,317.4,68.4z"/>
<path class="st8" d="M288.8,81.5c0,0-21-8.1,1.9-37.9L319,58.5C307.3,94.3,288.8,81.5,288.8,81.5z"/>
<path class="st4" d="M285.6,51.3c-0.2,0-0.4-0.2-0.4-0.4c0-0.1,0-0.1,0.1-0.2c0.5-0.8,1-1.7,1.6-2.6c0.1-0.2,0.4-0.2,0.5-0.1
	c0.2,0.1,0.2,0.4,0.1,0.5c0,0,0,0,0,0c-0.6,0.8-1.1,1.7-1.6,2.5C285.9,51.2,285.8,51.3,285.6,51.3z"/>
<path class="st4" d="M280,68.3c-0.2,0-0.4-0.2-0.4-0.4c0-1.1,0.1-2.2,0.2-3.2c0-0.2,0.2-0.4,0.4-0.4s0.4,0.2,0.4,0.4c0,0,0,0,0,0.1
	c-0.1,1-0.2,2.1-0.2,3.1C280.3,68.2,280.2,68.3,280,68.3C280,68.3,280,68.3,280,68.3L280,68.3L280,68.3z"/>
<path class="st4" d="M298.3,76.6c-0.1,0-0.2-0.1-0.3-0.2l-3.7-5.5h-6.6c-0.2,0-0.4-0.2-0.4-0.4c0-0.1,0-0.2,0.1-0.2l4-5.2l-2-6.3
	c-0.1-0.2,0-0.4,0.2-0.5c0.1,0,0.2,0,0.3,0l6.2,2.2l5.4-3.9c0.2-0.1,0.4-0.1,0.5,0.1c0.1,0.1,0.1,0.2,0.1,0.2l-0.2,6.6l5.3,3.9
	c0.2,0.1,0.2,0.4,0.1,0.5c-0.1,0.1-0.1,0.1-0.2,0.1l-6.3,1.9l-2,6.3C298.7,76.5,298.5,76.6,298.3,76.6L298.3,76.6L298.3,76.6z
	 M288.5,70.2h6c0.1,0,0.2,0.1,0.3,0.2l3.4,5l1.9-5.7c0-0.1,0.1-0.2,0.3-0.3l5.8-1.7l-4.9-3.6c-0.1-0.1-0.2-0.2-0.2-0.3l0.2-6
	l-4.9,3.5c-0.1,0.1-0.2,0.1-0.4,0l-5.7-2l1.9,5.7c0,0.1,0,0.3-0.1,0.4L288.5,70.2z"/>
<path class="st4" d="M312.5,58.9c-0.1,0-0.1,0-0.2,0l-21.6-11.4c-0.2-0.1-0.2-0.4-0.1-0.5c0.1-0.2,0.3-0.2,0.5-0.2l21.6,11.4
	c0.2,0.1,0.2,0.4,0.1,0.5C312.6,58.8,312.5,58.9,312.5,58.9z"/>
<polygon class="st8" points="187.1,73.6 159.7,66.7 150.7,73.7 166.2,99.1 191.8,84.1 "/>
<path class="st4" d="M171.3,79.3h-0.1l-18.7-4.7c-0.2-0.1-0.3-0.3-0.3-0.5c0.1-0.2,0.3-0.3,0.5-0.3l18.7,4.7
	c0.2,0.1,0.3,0.3,0.3,0.5C171.6,79.2,171.5,79.3,171.3,79.3z"/>
<path class="st4" d="M166,97.5c-0.2,0-0.4-0.2-0.4-0.4L164,77.2c0-0.2,0.1-0.4,0.4-0.4s0.4,0.1,0.4,0.4l1.6,19.9
	C166.4,97.2,166.2,97.4,166,97.5C166,97.4,166,97.4,166,97.5L166,97.5L166,97.5z"/>
<path class="st4" d="M167.4,94.4h-0.1c-0.2-0.1-0.3-0.3-0.3-0.5l5.5-21.7c0.1-0.2,0.3-0.3,0.5-0.3c0.2,0.1,0.3,0.3,0.3,0.5
	l-5.5,21.7C167.8,94.3,167.6,94.4,167.4,94.4z"/>
<path class="st4" d="M189.5,83.9h-0.1L171,79.2c-0.2-0.1-0.3-0.3-0.3-0.5c0.1-0.2,0.3-0.3,0.5-0.3l0,0l18.4,4.6
	c0.2,0,0.3,0.3,0.3,0.5C189.8,83.7,189.7,83.8,189.5,83.9z"/>
<path class="st4" d="M164.4,77.5h-0.1c-0.1,0-0.2-0.1-0.3-0.2l-4.2-9.4c-0.1-0.2,0-0.4,0.2-0.5c0.2-0.1,0.4,0,0.5,0.2l4,8.9l7.5-5.9
	c0.2-0.1,0.4-0.1,0.6,0.1c0.1,0.2,0.1,0.4-0.1,0.6l0,0l-7.9,6.2C164.6,77.5,164.5,77.5,164.4,77.5z"/>
<path class="st4" d="M178.1,81L178.1,81c-0.2,0-0.3-0.1-0.3-0.2l-4.1-9.3c-0.1-0.2,0-0.4,0.2-0.5c0.2-0.1,0.4,0,0.5,0.2c0,0,0,0,0,0
	l3.9,8.8l7.7-6c0.2-0.1,0.4-0.1,0.6,0.1c0.1,0.2,0.1,0.4-0.1,0.6l-8.1,6.3C178.3,80.9,178.2,81,178.1,81z"/>
<path class="st4" d="M167.4,97.5c-0.2,0-0.4-0.2-0.4-0.4c0-0.1,0-0.1,0.1-0.2l10.6-16.5c0.1-0.2,0.4-0.2,0.5-0.1
	c0.2,0.1,0.2,0.4,0.1,0.5l-10.6,16.5C167.7,97.4,167.6,97.5,167.4,97.5z"/>
<path class="st3" d="M337.5,91.8c0,0-2,8.8-8.7,7.5c0,0,7.1,2,5.4,10.7c0,0,1.9-8.6,8.5-7.9C342.6,102.1,336.4,99.8,337.5,91.8z"/>
<path class="st8" d="M324.5,81.8c-2.9-0.5-3.8,6.1-1.1,6.8S327.3,82.3,324.5,81.8z"/>
<path class="st8" d="M343.7,109.9c-1.8-0.3-2.3,3.7-0.7,4.1S345.5,110.2,343.7,109.9z"/>
<path class="st3" d="M145.2,92.4c0,0,1.4,7.1-3.9,8.3c0,0,5.9-0.8,7.4,6.1c0,0-1.4-6.9,3.7-8.5C152.3,98.3,147,98.6,145.2,92.4z"/>
<path class="st3" d="M152.6,198.5c0,0,2.8,6.4-2,8.7c0,0,5.4-1.9,8.2,4.2c0,0-2.7-6.3,1.7-8.8C160.5,202.6,155.5,204,152.6,198.5z"
	/>
<path class="st3" d="M197.2,56.5c0,0-2.5,6.5-7.4,4.7c0,0,5.1,2.3,2.9,8.6c0,0,2.4-6.3,7.3-5C200,64.8,195.5,62.4,197.2,56.5z"/>
<path class="st8" d="M167.1,210.8c-2.2-0.1-3.1,5.6-0.5,5.9S170.6,210.9,167.1,210.8z"/>
</svg>
