<?xml version="1.0" encoding="utf-8"?>
<!-- Generator: Adobe Illustrator 24.1.1, SVG Export Plug-In . SVG Version: 6.00 Build 0)  -->
<svg version="1.1" id="Слой_1" xmlns="http://www.w3.org/2000/svg" xmlns:xlink="http://www.w3.org/1999/xlink" x="0px" y="0px"
	 viewBox="0 0 128 128" style="enable-background:new 0 0 128 128;" xml:space="preserve">
<style type="text/css">
	.st0{fill:#F6F8F9;}
	.st1{fill:#E9E9E9;}
	.st2{fill:#DBDBDB;}
	.st3{opacity:0.5;}
	.st4{fill:#5E8F91;}
	.st5{fill:#263238;}
	.st6{fill:#FFFFFF;}
	.st7{opacity:0.7;fill:#FAD986;enable-background:new    ;}
	.st8{opacity:0.1;enable-background:new    ;}
	.st9{opacity:0.1;}
	.st10{fill:#455A64;}
	.st11{fill:#37474F;}
	.st12{fill:#FFC727;}
	.st13{fill:#29292C;}
	.st14{fill:#F7A9A0;}
	.st15{fill:#C7C7C7;}
	.st16{opacity:0.2;}
</style>
<g>
	<g>
		<path class="st0" d="M23.6,69H7c0,0,0.8-1.1,1.7-1.2c0,0,1.8-5.3,4.8-5.3c2.8,0,3.9,3.3,3.9,3.3s1.3-1.5,2.5-0.8
			c1.2,0.7,1.9,2.6,1.9,2.6S23.1,68.2,23.6,69z"/>
		<path class="st0" d="M36.2,16H19.5c0,0,0.8-1.1,1.7-1.2c0,0,1.8-5.3,4.8-5.3c2.8,0,3.9,3.3,3.9,3.3s1.3-1.5,2.5-0.8
			c1.2,0.7,1.9,2.6,1.9,2.6S35.7,15.3,36.2,16z"/>
		<path class="st0" d="M100.5,24.6h21.1c0,0,0-1.3-2.9-1.6c0,0-2.6-5.9-6.7-5.1c-2.5,0.5-3.8,4-3.8,4s-1.9-2.7-3.4-2.2
			c-1.5,0.5-2.4,3.4-2.4,3.4S100.8,23.8,100.5,24.6z"/>
		<path class="st0" d="M15.3,78.3h21.1c0,0,0-1.3-2.9-1.6c0,0-2.6-5.9-6.7-5.1c-2.5,0.5-3.8,4-3.8,4s-1.9-2.7-3.4-2.2
			c-1.5,0.5-2.4,3.4-2.4,3.4S15.5,77.5,15.3,78.3z"/>
		<path class="st0" d="M97.8,32.7h14.3c0,0-1.4-1.3-2-1.3s-2.4-4.2-4.6-4c-2.2,0.2-3.4,3.3-3.4,3.3S99.4,29.9,97.8,32.7z"/>
		<path class="st0" d="M101.6,57h12.3c0,0-0.6-0.8-1.3-0.9c0,0-1.3-3.9-3.5-3.9c-2,0-2.8,2.4-2.8,2.4s-0.9-1.1-1.8-0.6
			c-0.9,0.5-1.4,1.9-1.4,1.9S101.9,56.4,101.6,57z"/>
	</g>
	<path class="st1" d="M7.9,104.9c0,0,13.6-4.6,22-8.9c8.4-4.3,15.2-11.3,16-11.6c0.8-0.3,2,0.7,2.7,0.4c0.7-0.3,2.1-0.7,2.5-0.4
		c0.4,0.3,13.6,9.6,16.2,11c9,4.9,21.9,9.6,21.9,9.6L7.9,104.9z"/>
	<path class="st0" d="M58.9,90.2c-0.2,0.3-2.6-1.5-2.6-1.3s0.9,0.9,0.7,1c-0.2,0.1-1.2-0.7-1.3-0.5s0.5,0.5,0.2,0.6
		s-1.7-0.9-1.8-0.8c0,0.1,0.3,0.8,0,0.9c-0.3,0.1-1.8-0.8-2.1-0.6s0.3,0.9,0,0.9s-1.7-1.1-2.1-1.1c-0.4,0,0.1,0.9-0.1,0.9
		c-0.2,0-1.1-0.8-1.2-0.9c-0.1-0.1,0.5,1.9,0.3,2.2c-0.2,0.2-1.2-2.3-1.3-2.2s-1.1,1.1-1.3,1.1s0.4-1.4,0-1.1s-1.8,1.6-1.9,1.1
		s0.6-1.6,0-1.3c-0.4,0.2-1.5,0.9-1.6,0.9s-0.2-0.7-0.4-0.5c-0.3,0.2-1.4,0.9-2,1c-0.2,0,0.8-1,0.6-1c-0.4,0-3.5,2-1.5,0.3l0,0
		c3.7-2.9,6.3-5.4,6.8-5.6c0.8-0.3,2,0.7,2.7,0.4c0.7-0.3,2.1-0.7,2.5-0.4c0.2,0.1,2.8,2,5.9,4.1l0,0C58.5,90,59.1,89.9,58.9,90.2z"
		/>
	<path class="st2" d="M38.5,90.6c0,0,0-0.1,0-0.1c0,0,0.1-0.1,0.1-0.1c0.1-0.1,0.1-0.1,0.2-0.2c0.1-0.1,0.3-0.2,0.4-0.3l0,0
		c1.4-1.1,2.7-2.3,4.1-3.4c0.7-0.6,1.3-1.2,2-1.7c0.2-0.1,0.4-0.3,0.5-0.4c0.2-0.1,0.5-0.1,0.7-0.1c0.4,0.1,0.9,0.2,1.3,0.4
		c0.2,0.1,0.4,0.1,0.6,0.1c0.2,0,0.4-0.1,0.6-0.2c0.4-0.1,0.9-0.3,1.3-0.3c0.2,0,0.5,0,0.7,0c0,0,0.1,0,0.1,0l0.1,0
		c0.1,0,0.1,0.1,0.1,0.1l0.3,0.2l1.1,0.8l2.2,1.5l2.2,1.6l0,0l-2.2-1.5l-2.2-1.5l-1.1-0.8l-0.3-0.2c0,0-0.1-0.1-0.1-0.1l-0.1,0
		l-0.1,0c-0.2,0-0.4,0-0.6,0c-0.4,0.1-0.9,0.2-1.3,0.3l-0.3,0.1c-0.1,0-0.2,0.1-0.3,0.1c-0.2,0-0.5,0-0.7-0.1
		c-0.4-0.1-0.8-0.3-1.3-0.4c-0.2,0-0.4,0-0.6,0.1c-0.2,0.1-0.4,0.2-0.5,0.4c-0.7,0.5-1.4,1.2-2,1.7c-1.4,1.2-2.7,2.3-4.1,3.4l0,0
		l0,0l0,0c-0.1,0.1-0.3,0.2-0.4,0.3c-0.1,0-0.1,0.1-0.2,0.2c0,0-0.1,0.1-0.1,0.1C38.5,90.5,38.5,90.6,38.5,90.6z"/>
	<g id="freepik--Shadow--inject-8" class="st3">
		<ellipse class="st4" cx="66.8" cy="118.2" rx="46.9" ry="4"/>
	</g>
	<g id="freepik--Floor--inject-8">
		<polygon class="st5" points="6.3,104.9 20.7,104.8 35.1,104.8 64,104.7 92.9,104.8 107.3,104.8 121.7,104.9 107.3,104.9 92.9,105 
			64,105 35.1,105 20.7,104.9 		"/>
	</g>
	<circle class="st6" cx="64" cy="47.9" r="34.5"/>
	<circle class="st7" cx="64" cy="47.9" r="34.5"/>
	<path class="st8" d="M46.2,63.3c0.6,0.6,1,1.4,1,2.2c0,0.9-0.3,1.8-1,2.4c-0.7,0.7-1.6,1-2.5,0.9c-0.8-0.1-1.6-0.5-2.2-1
		c0.7,0,1.4,0,2.1-0.1c0.6-0.1,1.1-0.3,1.5-0.7c0.4-0.4,0.7-0.9,0.9-1.5C46.2,64.7,46.3,64,46.2,63.3z"/>
	<path class="st8" d="M41.9,66.6c-0.5-0.3-0.8-0.9-0.9-1.5c0-0.7,0.2-1.3,0.7-1.8c0.5-0.5,1.2-0.7,1.9-0.6c0.6,0.1,1.1,0.4,1.5,0.9
		c-0.5,0.1-1,0.2-1.5,0.3c-0.3,0.1-0.6,0.3-0.8,0.5c-0.2,0.2-0.4,0.5-0.6,0.9C42.1,65.7,42,66.2,41.9,66.6z"/>
	<path class="st8" d="M88.4,30.8c0.1,0.8-0.2,1.7-0.7,2.3c-0.6,0.7-1.4,1.1-2.3,1.2c-0.9,0.1-1.9-0.3-2.5-1
		c-0.6-0.6-0.9-1.4-0.9-2.2c0.5,0.5,1.1,0.9,1.7,1.3c0.5,0.3,1,0.5,1.6,0.4c0.6,0,1.2-0.2,1.6-0.5C87.4,31.9,87.9,31.4,88.4,30.8z"
		/>
	<path class="st8" d="M82.9,30.5c-0.1-0.6,0-1.2,0.4-1.7c0.4-0.5,1-0.9,1.7-0.9c0.7,0,1.4,0.3,1.8,0.8c0.4,0.5,0.6,1.1,0.5,1.6
		c-0.4-0.3-0.8-0.5-1.3-0.8c-0.3-0.1-0.6-0.2-0.9-0.2c-0.4,0-0.7,0.1-1,0.3C83.7,29.9,83.3,30.2,82.9,30.5z"/>
	<g class="st9">
		<path d="M84.1,49.3c1.9,0.3,3.5,1.5,4.3,3.1c-0.4-3.6-3.5-6.2-7.1-5.8s-6.2,3.5-5.8,7.1c0.2,1.9,1.2,3.6,2.8,4.7
			c-1.8-2.7-1.1-6.4,1.6-8.2C81.2,49.4,82.6,49,84.1,49.3L84.1,49.3z"/>
	</g>
	<path class="st8" d="M90.9,51.7c0.5,1.7,0.4,3.4-0.1,5.1c-0.6,1.7-1.6,3.2-2.9,4.3c-1.3,1.2-3.1,1.9-4.9,1.8
		c-1.7-0.1-3.4-0.7-4.7-1.8c1.5,0.6,3.1,0.9,4.7,0.8c0.4,0,0.8-0.1,1.1-0.2c0.4-0.1,0.7-0.2,1.1-0.4c0.7-0.3,1.3-0.7,1.9-1.2
		c0.3-0.3,0.6-0.5,0.8-0.8c0.3-0.3,0.5-0.6,0.7-0.9c0.5-0.6,0.9-1.3,1.2-2C90.5,55,90.9,53.4,90.9,51.7z"/>
	<path class="st8" d="M47.3,29.2c0.8,0.2,1.5,0.7,1.8,1.5c0-1.6-1.3-2.8-2.9-2.8c-1.6,0-2.8,1.3-2.8,2.9c0,0.8,0.4,1.6,1.1,2.1
		c-0.7-1.2-0.3-2.8,1-3.5C46,29.1,46.7,29,47.3,29.2z"/>
	<path class="st8" d="M50.2,30.4c0.2,0.7,0.1,1.5-0.1,2.2c-0.3,0.7-0.8,1.4-1.4,1.8c-0.6,0.5-1.5,0.7-2.3,0.6c-0.8-0.1-1.5-0.5-2-1
		c0.6,0.3,1.3,0.4,2,0.4c0.7,0,1.3-0.3,1.8-0.7C49.3,33.1,50.1,31.8,50.2,30.4z"/>
	<path class="st8" d="M58.4,69.1c1.2,0.1,2.2,0.7,2.9,1.7c-0.4-2.2-2.6-3.6-4.8-3.1c-2.2,0.4-3.6,2.6-3.1,4.8c0.2,1.2,1,2.2,2,2.7
		c-1.3-1.6-1.1-3.9,0.5-5.2C56.6,69.4,57.5,69.1,58.4,69.1L58.4,69.1z"/>
	<path class="st8" d="M62.8,70.2c0.4,1,0.5,2.1,0.2,3.1c-0.2,1.1-0.8,2.1-1.5,2.9c-0.8,0.8-1.8,1.3-2.9,1.4c-1.1,0.1-2.1-0.2-3-0.8
		c1,0.3,2,0.4,3,0.2c0.9-0.2,1.8-0.7,2.4-1.4c0.7-0.7,1.2-1.6,1.5-2.5C62.8,72.2,62.9,71.2,62.8,70.2z"/>
	<g id="freepik--Arch--inject-8">
		<polygon class="st10" points="86,70.6 83.2,70.6 80,104.8 83.8,104.8 		"/>
		<polygon class="st11" points="85.9,73.5 85.5,78.8 82.5,78.7 83,73.3 		"/>
		<rect x="81.9" y="74.5" class="st10" width="4.7" height="0.8"/>
		<rect x="96" y="74.5" class="st10" width="4.7" height="0.8"/>
		<polygon class="st10" points="110.6,70.6 113.4,70.6 116.6,104.8 112.8,104.8 		"/>
		<polygon class="st10" points="117.5,68.7 116.6,70.6 80,70.6 79.1,68.7 		"/>
		<path class="st11" d="M121.7,65.7l-2,3H76.9l-2-3c0,0,19.6,1.4,23.4,1.4S121.7,65.7,121.7,65.7z"/>
		<polygon class="st11" points="110.7,73.5 111.1,78.8 114.1,78.7 113.6,73.3 		"/>
		<rect x="79.6" y="75.3" class="st10" width="37.4" height="2.4"/>
		<rect x="110" y="74.5" class="st10" width="4.7" height="0.8"/>
		<rect x="96.9" y="70.6" class="st10" width="2.8" height="3.9"/>
		<polygon class="st11" points="96.9,71.1 96.9,70.6 99.7,70.6 99.7,71.3 		"/>
		<polygon class="st11" points="99.7,74 99.7,74.5 96.9,74.5 96.9,73.8 		"/>
	</g>
	<g id="freepik--Plants--inject-8">
		<path class="st12" d="M107.3,110c-0.8-1.1-1.8-2.3-1.7-3.7c0.1-1.3,0.5-2.8,1.7-3.5c0.3-0.2,0.6-0.3,0.7,0.2
			c0.2,0.7-0.1,1.5-0.3,2.2c-0.2,0.9-0.3,1.7-0.4,2.6c0,0.6,0,1.2,0,1.9c0,0.1,0,0.2,0,0.2c0,0,0,0.1,0,0.1c0,0,0,0,0,0
			c0,0,0,0,0,0.1l0,0C107.4,110,107.4,110,107.3,110C107.3,110,107.3,110,107.3,110z"/>
		<path class="st6" d="M107.4,110c-0.7-1-1.5-2-1.4-3.3c0.1-0.6,0.2-1.2,0.5-1.7c0.1-0.2,0.4-1,0.7-1c0.6,0-0.2,2.3-0.2,2.6
			c-0.1,1,0,2,0.4,3c0,0.1,0,0.2,0,0.2c-0.3-0.7-0.5-1.4-0.5-2.1c-0.1-1,0.3-1.8,0.4-2.8c0-0.2,0.2-0.9-0.2-0.8
			c-0.2,0-0.5,0.8-0.6,0.9c-0.2,0.5-0.4,1.1-0.4,1.6C106,107.9,106.8,108.9,107.4,110L107.4,110z"/>
		<path class="st12" d="M107.1,111.1l-0.1,0.1l0,0c0,0,0,0,0,0c0,0,0,0,0-0.1c0,0,0,0,0,0h0l0,0l0,0l0,0c0.6-0.7,1.3-1.4,1.9-2.1
			s1.1-1.5,1.7-2.1c0.4-0.4,2.4-2.4,2.9-1.2c0.2,0.5-0.2,1.3-0.5,1.8c-0.4,0.6-0.8,1.1-1.4,1.5C110.3,110,108.6,110.4,107.1,111.1z"
			/>
		<path class="st6" d="M110.2,109.3c0.5-0.4,1-0.8,1.4-1.3c0.1-0.2,0.8-1,0.6-1.3c-0.1-0.2-0.5,0.1-0.7,0.1c-0.5,0.3-1,0.8-1.4,1.3
			c-0.9,0.9-1.8,1.8-2.8,2.6l-0.2,0.1L107,111l-0.1,0l0,0c0,0,0,0.1,0,0.1l0.1-0.1l-0.1,0.1l0,0l0.1-0.1l0,0l0.2-0.1
			C108.3,110.5,109.2,109.9,110.2,109.3z M107.6,110.7c0.6-0.5,1.1-0.9,1.6-1.5c0.4-0.4,0.8-0.8,1.2-1.3c0.2-0.3,0.5-0.5,0.7-0.7
			c0.2-0.2,1-0.7,0.8,0.1c-0.1,0.5-0.8,1.1-1.2,1.5c-0.4,0.4-0.9,0.7-1.4,1C108.8,110.1,108.2,110.4,107.6,110.7z"/>
		<path class="st12" d="M104.5,113.9L104.5,113.9C104.5,113.9,104.4,113.8,104.5,113.9c-0.7-1.1-1.8-2.4-1.7-3.7
			c0-1,0.6-2.3,1.6-2.7c1.1-0.5,0.9,1.6,0.9,2.2C105,111,104.8,112.5,104.5,113.9C104.5,113.9,104.5,113.9,104.5,113.9L104.5,113.9
			C104.5,113.9,104.5,113.9,104.5,113.9z"/>
		<path class="st6" d="M104.5,113.9l0-0.3c-0.1-1-0.1-2,0-2.9c0-0.2,0.2-2.1-0.3-2c-0.3,0.1-0.5,0.8-0.5,1c-0.1,0.4-0.2,0.8-0.1,1.3
			c0.1,1,0.6,1.9,0.9,2.8C104.4,113.8,104.4,113.8,104.5,113.9C104.5,113.9,104.5,113.9,104.5,113.9L104.5,113.9
			C104.5,113.9,104.5,113.9,104.5,113.9z M103.6,111.4c-0.1-0.4-0.1-0.9,0-1.3c0-0.3,0.2-1.3,0.6-1.4c0.2,0,0.2,0.1,0.2,0.3
			c0,0.1,0,0.2,0,0.3c0,0.3,0,0.5,0,0.8c0,0.4,0,0.9,0,1.3c0,0.7,0,1.4,0.1,2.2C104.2,112.9,103.8,112.2,103.6,111.4z"/>
		<path class="st12" d="M107.9,114.2c-1.4,0.6-2.9,0.7-4.3,0.4c0,0,0,0,0,0c0,0,0,0,0-0.1c0,0,0,0,0.1,0l0.1,0
			c1.5-0.8,3-1.6,4.5-2.5c0.4-0.2,2.6-1.4,2.7-0.6c0.1,0.5-0.8,1.2-1.1,1.5C109.3,113.5,108.6,113.9,107.9,114.2z"/>
		<path class="st6" d="M109.5,112.5c0.1-0.1,0.2-0.3,0-0.3c-0.3-0.1-1.4,0.5-1.7,0.6c-1.2,0.6-2.5,1.1-3.8,1.7l-0.3,0.1h-0.1
			c0,0,0,0.1,0,0.1h0h0.2c0.9,0,1.8-0.1,2.7-0.4c0.6-0.2,1.1-0.4,1.6-0.7C108.5,113.3,109.2,112.9,109.5,112.5z M103.8,114.6
			L103.8,114.6L103.8,114.6c1.1-0.4,2.1-0.8,3.1-1.3c0.5-0.2,1-0.5,1.5-0.7c0.2-0.1,0.8-0.4,1-0.3c0.2,0.1,0,0.2-0.1,0.3
			s-0.2,0.2-0.3,0.2C107.5,114,105.7,114.6,103.8,114.6z"/>
		<path class="st12" d="M100.7,117l-0.1-0.2l0.5-0.4c0.7-0.5,1.4-1.1,2.1-1.6c0.4-0.3,0.8-0.6,1.2-1l0,0l0.1-0.1
			c0,0,0.1-0.1,0.1-0.1c0.9-0.8,1.6-1.6,2.2-2.6c0.2-0.3,0.4-0.7,0.5-1l0-0.1c0,0,0,0,0,0l0-0.1c0,0,0-0.1,0-0.1
			c0.5-1.1,0.9-2.2,1.3-3.3c0.1-0.3,0.2-0.6,0.4-0.9c0,0,0,0,0-0.1l0-0.1c0.5-1.4,1.1-2.7,1.6-4.1c0-0.1,0.1,0,0.1,0
			c-0.3,0.9-0.7,1.9-1,2.8l-0.1,0.4l-0.3,0.7c-0.2,0.5-0.3,1-0.5,1.5c-0.5,1.4-1,2.7-1.7,4.1c0,0.1-0.1,0.2-0.2,0.3l-0.1,0.2
			l-0.1,0.2c-0.7,1.2-1.6,2.2-2.7,3l-0.2,0.2c0,0-0.1,0.1-0.1,0.1l-0.1,0l-0.1,0.1l0,0c0,0,0,0-0.1,0l-0.2,0.2
			c-0.7,0.5-1.4,1.1-2.1,1.6C101.2,116.6,100.9,116.8,100.7,117z"/>
		<path class="st12" d="M109.5,101.4c0.4-1.1,1.4-2.9,2.8-2.7c0.5,0.1,0.9,0.6,0.9,1.1c0,0.7-0.5,1.3-0.8,1.8
			c-1,1.3-2.2,2.5-3.2,3.9c0,0-0.1,0.1-0.1,0.2c0,0-0.1,0,0,0l0.1-0.1C109.1,104.2,109.1,102.8,109.5,101.4z"/>
		<path class="st6" d="M109.2,105.6C109.2,105.6,109.2,105.6,109.2,105.6c0.2-0.4,0.4-0.9,0.6-1.3c0.5-0.8,1-1.6,1.6-2.4
			c0.2-0.3,1.3-1.7,0.4-1.8c-0.4,0-0.8,0.3-1,0.5c-0.4,0.4-0.8,0.8-1,1.4c-0.5,1-0.6,2.1-0.6,3.3c0,0.1,0,0.1,0,0.2
			C109.1,105.5,109.1,105.5,109.2,105.6C109.1,105.5,109.1,105.6,109.2,105.6C109.1,105.6,109.1,105.6,109.2,105.6
			C109.1,105.6,109.1,105.6,109.2,105.6C109.2,105.6,109.2,105.6,109.2,105.6C109.2,105.6,109.2,105.6,109.2,105.6z M109.2,105.3
			c0-0.9,0.2-1.8,0.4-2.7c0.2-0.5,0.4-0.9,0.7-1.3c0.1-0.2,0.3-0.3,0.4-0.5c0.1-0.1,0.2-0.2,0.4-0.3c0.3-0.2,0.7-0.3,0.8-0.2
			c0.1,0.1,0.1,0.3,0,0.6c0,0.1-0.1,0.2-0.2,0.3c-0.1,0.2-0.3,0.5-0.5,0.7c-0.3,0.4-0.5,0.8-0.8,1.1c-0.2,0.3-0.4,0.5-0.5,0.8
			c-0.3,0.5-0.5,1-0.8,1.5L109.2,105.3z"/>
		<path class="st12" d="M24.7,108.2c0.7,0.6,1.3,1.3,1.9,2c0.4,0.4,0.7,0.8,1.1,1.2c0.4,0.4,0.8,0.9,1.3,1.1l0,0c0,0,0,0,0.1,0l0,0
			c0,0,0,0.1,0,0.1c0,0,0,0,0,0l0,0h0c-0.2,0-0.3-0.1-0.5-0.1c-0.5-0.1-0.9-0.2-1.3-0.4c-0.9-0.3-1.8-0.8-2.6-1.3
			c-0.7-0.5-1.4-1.1-1.9-1.7c-0.4-0.5-1.1-1.3-1.2-2c-0.1-0.6,0.7-0.5,1.1-0.4C23.4,106.9,24.1,107.6,24.7,108.2z"/>
		<path class="st6" d="M22.7,107.7c-0.2,0.3,0.5,1.1,0.9,1.5c0.5,0.6,1,1.1,1.7,1.5c1.1,0.8,2.3,1.4,3.7,1.8l0.2,0h0l0,0
			c0,0,0.1,0,0.1-0.1c0,0,0,0,0,0c-0.1,0-0.2-0.1-0.3-0.2c-0.1-0.1-0.2-0.1-0.3-0.2c-0.9-0.6-1.8-1.3-2.6-2.1
			C25.1,109.2,22.9,107.4,22.7,107.7z M28.7,112.4c0.1,0.1,0.3,0.1,0.4,0.2C29,112.5,28.9,112.5,28.7,112.4
			c-1.1-0.3-2.2-0.8-3.2-1.4c-0.6-0.4-1.1-0.8-1.6-1.3c-0.3-0.3-0.5-0.5-0.7-0.8c-0.1-0.1-0.7-0.8-0.5-1c0.1-0.1,0.8,0.3,0.8,0.4
			c0.1,0.1,0.3,0.2,0.4,0.3c0.3,0.2,0.5,0.4,0.8,0.6c0.5,0.5,1.1,1,1.6,1.5C27.1,111.2,27.9,111.8,28.7,112.4z"/>
		<path class="st12" d="M29.9,105.4c0.6,1.2,0.8,2.6,0.8,3.9c0,0.7,0,1.4,0,2.1c0,0.6,0,1.3,0.1,1.9c0,0,0,0.1,0,0.1
			c0,0.2,0.1,0.3,0.2,0.5c0,0,0,0,0,0c0,0,0,0,0,0c0,0,0,0,0,0c0,0,0,0,0,0l0,0c0,0,0,0,0,0c0,0,0,0,0,0l0,0c-1-1-1.6-2.6-2-3.9
			c-0.4-1.3-0.6-2.7-0.2-4c0.1-0.3,0.2-1.1,0.6-1.2S29.7,105.1,29.9,105.4z"/>
		<path class="st6" d="M29.3,106.2c-0.4,0.1-0.3,1.2-0.3,1.5c0.1,0.8,0.2,1.6,0.4,2.5c0.3,1.3,0.7,2.6,1.4,3.8l0,0c0,0,0,0,0,0l0,0
			c0,0,0,0,0,0c0,0,0,0,0,0c0,0,0,0,0-0.1c0-0.2-0.1-0.3-0.1-0.5c0,0,0-0.1,0-0.1c-0.2-1.2-0.3-2.3-0.4-3.5c0-0.8-0.2-1.6-0.4-2.4
			C29.9,107.2,29.7,106.1,29.3,106.2z M29.7,106.8c0.5,1.3,0.5,2.8,0.6,4.2c0,0.9,0.2,1.9,0.4,2.8c-0.5-1.1-0.9-2.2-1.2-3.4
			c-0.2-0.7-0.3-1.4-0.4-2c0-0.4-0.1-0.7-0.1-1.1c0-0.2,0-0.4,0.1-0.7C29.3,106.1,29.6,106.5,29.7,106.8L29.7,106.8z"/>
		<path class="st12" d="M33.1,115.7C33.1,115.8,33.1,115.8,33.1,115.7L33.1,115.7C33.1,115.8,33.1,115.8,33.1,115.7
			c0.1,0.1,0,0.1,0,0.1c0,0,0,0,0,0c-1.6,0.3-3.4,0.3-4.9-0.1c-0.7-0.2-1.3-0.5-1.9-0.8c-0.4-0.3-1.2-0.8-1.2-1.3
			c-0.1-1.1,2.7,0,3.1,0.2c0.8,0.3,1.5,0.7,2.3,1C31.3,115.1,32.2,115.4,33.1,115.7C33.1,115.7,33.1,115.7,33.1,115.7z"/>
		<path class="st6" d="M33.1,115.7c-0.1,0-0.2,0-0.3,0c-1.4-0.2-2.8-0.5-4.1-1.1c-0.6-0.3-1.3-0.6-2-0.8c-0.2,0-0.8-0.2-0.7,0.2
			c0.1,0.2,1.1,0.8,1.4,0.9c0.6,0.3,1.3,0.5,2,0.6C30.7,115.8,31.9,115.9,33.1,115.7L33.1,115.7C33.1,115.8,33.1,115.8,33.1,115.7
			L33.1,115.7C33.1,115.8,33.1,115.8,33.1,115.7z M30.1,115.6c-0.7-0.1-1.4-0.3-2-0.5c-0.3-0.1-0.5-0.2-0.8-0.3
			c-0.2-0.1-0.4-0.2-0.6-0.3c-0.4-0.3-0.5-0.4-0.5-0.5c0-0.1,0.1-0.1,0.5,0c0.2,0,0.4,0.1,0.7,0.2c0.3,0.1,0.6,0.2,0.9,0.4
			c0.6,0.3,1.2,0.5,1.8,0.7c0.9,0.3,1.8,0.5,2.7,0.6C31.9,115.8,31,115.7,30.1,115.6z"/>
		<path class="st12" d="M32.9,111.1c0.4,0.4,0.7,1,0.8,1.5c0.4,1.1,0.5,2.2,0.8,3.4c0,0.2,0.1,0.3,0.1,0.5c0,0,0.1,0.2,0.1,0.2
			l-0.1-0.1l0,0c-0.4-0.5-1.7-1.9-2.2-2.8c-0.3-0.6-0.6-1.2-0.7-1.9c-0.1-0.3-0.2-1,0.1-1.2C32.1,110.4,32.7,110.9,32.9,111.1z"/>
		<path class="st6" d="M32.3,111.4c-0.4,0.2,0.5,2.1,0.6,2.3c0.4,0.9,0.9,1.8,1.6,2.6c0.1,0.1,0.1,0.2,0.2,0.3
			c0.1,0.1,0.1,0.1,0.1,0.1c0,0-0.1-0.2-0.1-0.2c0,0,0-0.1,0-0.1c0-0.1-0.1-0.3-0.1-0.4c-0.3-0.7-0.5-1.5-0.8-2.2
			c-0.2-0.5-0.5-1.1-0.7-1.6C32.9,112.1,32.5,111.3,32.3,111.4z M32.6,111.8c1,1.4,1.3,3,1.9,4.6l0,0.1l-0.1-0.1
			c-0.5-0.7-1-1.4-1.3-2.1c-0.2-0.5-0.4-0.9-0.6-1.4c-0.1-0.3-0.2-0.5-0.3-0.8c0-0.1-0.1-0.4,0-0.5S32.6,111.7,32.6,111.8z"/>
		<path class="st12" d="M24.6,100.3c1.5,2.5,0.7,5.8,2.1,8.3v0c0,0.1,0.1,0.2,0.1,0.2c0,0,0,0.1,0,0.1c0,0,0,0,0,0c0,0,0,0,0,0
			l0-0.1c-1.2-1.2-2.2-2.6-2.9-4.1c-0.6-1.3-1-2.7-0.8-4.1c0.1-0.4,0.1-1,0.5-1.2C24,99.4,24.4,100,24.6,100.3z"/>
		<path class="st6" d="M24.1,101.3c-0.2,0.1-0.2,0.3-0.2,0.5c-0.1,0.4-0.1,0.7,0,1.1c0.1,0.7,0.3,1.5,0.5,2.1
			c0.5,1.2,1.1,2.3,1.8,3.3c0.2,0.2,0.3,0.5,0.5,0.7l0.1,0.1c0,0,0.1,0,0-0.1c0,0,0,0,0,0l-0.1-0.2v0c-0.3-0.5-0.6-1-0.8-1.6
			c-0.3-0.9-0.5-1.7-0.7-2.6C25.2,104.1,24.7,101.1,24.1,101.3z M24.5,101.8c0.3,0.7,0.4,1.4,0.5,2.1c0.1,0.7,0.3,1.4,0.5,2.1
			c0.1,0.6,0.3,1.1,0.5,1.6c0.2,0.4,0.4,0.9,0.7,1.3c-0.3-0.4-0.6-0.8-0.8-1.2c0,0,0,0,0,0c-0.4-0.7-0.8-1.5-1.2-2.2c0,0,0,0,0,0
			c-0.3-0.7-0.6-1.4-0.7-2.1c-0.1-0.4-0.1-0.8-0.1-1.2c0-0.5,0.1-0.8,0.2-0.8C24.3,101.3,24.4,101.6,24.5,101.8L24.5,101.8z"/>
		<path class="st12" d="M24.8,105.5c0.4,0.7,0.8,1.5,1.3,2.2l0.6,1v0l0.2,0.4c0.7,1.1,1.3,2.3,2.2,3.2c0.4,0.5,0.9,1,1.5,1.4
			c0.1,0,0.1,0.1,0.2,0.1l0,0l0.1,0.1c0,0,0,0,0.1,0c0.5,0.4,1,0.7,1.4,1c0.7,0.5,1.4,0.9,2,1.3c0,0,0,0,0.1,0l0.1,0.1l0,0
			c0,0,0.1,0,0.1,0.1c0.2,0.1,0.4,0.3,0.7,0.4l-0.1,0.2c-0.7-0.3-1.4-0.7-2.1-1.1l0,0c-0.1,0-0.1-0.1-0.2-0.1
			c-0.1,0-0.2-0.1-0.2-0.2c-0.2-0.1-0.4-0.3-0.6-0.4c-1.1-0.7-2.1-1.6-3.1-2.5l-0.1-0.1c0,0,0,0,0,0c0,0,0,0-0.1-0.1l-0.1-0.1
			c0-0.1-0.1-0.1-0.1-0.2l0-0.1c-0.7-1-1.3-2-1.9-3c-0.1-0.2-0.2-0.4-0.3-0.5c-0.1-0.1-0.1-0.2-0.2-0.3l-0.3-0.5c0,0,0,0,0,0
			C25.5,107,25.1,106.3,24.8,105.5C24.7,105.5,24.8,105.5,24.8,105.5z"/>
	</g>
	<path class="st11" d="M27.8,119.5c0.6,0.2,18.2,0.1,18.8-0.3c0.3-0.2,0.4-2.7,0.5-5.8c0-0.7-2.5-10.6-2.5-10.6l-11.8,0l2.9,10.6
		c0,0-6.7,3.1-7.4,3.6C27.7,117.6,27.1,119.3,27.8,119.5z"/>
	<path class="st13" d="M34.7,109.9h12.2c0.4-1,0.6-2.1,0.9-3.2C49,101.3,43,88.1,44,87.3c5.8-4.3,16.2-6.3,21.6-9.5
		c6.9-4.1,2.3-12.5,2.3-12.5H51.2c0,0-0.3,0.5-1.2,2.4c-0.4,0.8-18.7,5.3-21.6,10.6c-3.1,5.6,0.3,23.2,1.3,27.4
		C30.2,107.6,34.7,109.9,34.7,109.9z"/>
	<polygon class="st12" points="47.2,111.1 35,111.2 34.1,109.6 47.2,109.4 	"/>
	<path class="st11" d="M43.9,88.2c-0.1-0.3-0.2-0.6-0.2-0.9c0-0.3,0.1-0.6,0.3-0.9l0-0.1l0.1-0.1c0.1-0.1,0.1-0.1,0.2-0.2
		c0.1-0.1,0.2-0.2,0.4-0.3c0.3-0.2,0.5-0.4,0.8-0.6c0.5-0.4,1.1-0.7,1.6-1c0.5-0.3,1.1-0.6,1.7-0.9c-0.3,0.2-0.5,0.4-0.8,0.5
		l-0.8,0.5l-1.6,1.1c-0.3,0.2-0.5,0.4-0.8,0.5c-0.1,0.1-0.2,0.2-0.4,0.3c-0.1,0-0.1,0.1-0.2,0.2l-0.1,0.1l-0.1,0.1
		c-0.2,0.3-0.3,0.5-0.4,0.8C43.8,87.6,43.9,87.9,43.9,88.2z"/>
	<path class="st11" d="M35.7,109.5c-0.5-0.3-1.1-0.7-1.5-1c-0.3-0.2-0.5-0.4-0.7-0.6c-0.1-0.1-0.2-0.2-0.3-0.4
		c-0.1-0.1-0.2-0.3-0.3-0.4c-0.3-0.5-0.6-1.1-0.8-1.7c-0.2-0.6-0.4-1.2-0.6-1.7c0.1,0.3,0.3,0.5,0.4,0.8l0.4,0.8
		c0.3,0.5,0.5,1.1,0.8,1.6c0.1,0.3,0.3,0.5,0.5,0.7c0.2,0.2,0.4,0.4,0.7,0.6c0.2,0.2,0.5,0.4,0.7,0.6L35.7,109.5z"/>
	<path class="st11" d="M37.3,109.5c-0.5-0.5-1-0.9-1.5-1.5c-0.2-0.3-0.4-0.6-0.6-0.9c-0.2-0.3-0.3-0.7-0.4-1
		c-0.1-0.4-0.1-0.7-0.1-1.1c0.1-0.2,0.1-0.3,0.2-0.5c0-0.1,0.1-0.2,0.2-0.3c0.1,0,0.2,0,0.3,0c0.1,0,0.2,0.1,0.2,0.1
		c0,0,0.1,0.1,0.1,0.1c0,0,0.1,0.1,0.1,0.1c0.1,0.2,0.2,0.3,0.2,0.5c0.1,0.3,0.2,0.7,0.2,1c-0.1-0.3-0.2-0.7-0.3-1
		c-0.1-0.2-0.1-0.3-0.2-0.4c0,0,0-0.1-0.1-0.1c0,0-0.1-0.1-0.1-0.1c-0.1,0-0.1-0.1-0.2-0.1c-0.1,0-0.1,0-0.2,0c0,0-0.1,0.1-0.1,0.2
		c-0.1,0.2-0.1,0.3-0.2,0.5c-0.1,0.3,0,0.7,0.1,1c0.1,0.3,0.2,0.6,0.3,1c0.1,0.3,0.3,0.6,0.5,0.9c0.2,0.3,0.4,0.5,0.6,0.8
		C36.8,109,37.1,109.3,37.3,109.5z"/>
	<path class="st11" d="M44.8,109.4c0.2-0.4,0.5-0.8,0.7-1.2c0.1-0.2,0.2-0.4,0.3-0.6c0-0.1,0.1-0.2,0.1-0.3c0-0.1,0-0.1,0-0.2v-0.2
		c0-0.9,0-1.8,0.1-2.8c0.1,0.9,0.1,1.8,0.1,2.8v0.2c0,0.1,0,0.1,0,0.2c0,0.1-0.1,0.2-0.1,0.4c-0.1,0.2-0.2,0.4-0.3,0.6
		C45.5,108.7,45.2,109,44.8,109.4z"/>
	<path class="st11" d="M43.3,109.4c0.2-0.2,0.3-0.4,0.5-0.6c0.2-0.2,0.4-0.4,0.5-0.6c0,0,0.1-0.1,0.1-0.1l0.1-0.2
		c0.1-0.1,0.1-0.3,0.2-0.4c0.1-0.3,0.2-0.5,0.4-0.7c0,0.3-0.1,0.5-0.2,0.8c0,0.1-0.1,0.3-0.1,0.4l-0.1,0.2c0,0.1-0.1,0.2-0.1,0.2
		c-0.2,0.2-0.4,0.4-0.6,0.6C43.8,109.1,43.6,109.2,43.3,109.4z"/>
	<path class="st11" d="M108.1,119.6c-0.3,0-15.7,0.1-16.3-0.2c-0.1,0-0.5-1.4-0.4-2.1c0.1-0.9,1.1-1.9,1.3-2.4l-6.8-8.9l12-0.3l7,8
		c0,0,2.4,2.8,2.7,3C108.2,117.2,108.8,119.5,108.1,119.6z"/>
	<path class="st13" d="M88.5,109.4h12.6c0,0,0.6-3.9-1.2-6.6c-4.8-7.2-14.6-18-17.7-21.9C77.7,75,67.9,65.3,67.9,65.3H51.2l5.7,15.5
		c0,0,4.9,2.4,14.5,9.6c3.4,2.5,6.9,11.7,10.7,16.6C83.1,108.1,88.5,109.4,88.5,109.4z"/>
	<polygon class="st12" points="102.7,111.1 89.7,111.1 88.4,109.4 101.3,109.4 	"/>
	<path class="st11" d="M51.1,79.2c0.7,0.1,1.5,0.2,2.2,0.4c0.7,0.2,1.4,0.4,2.2,0.6c0.7,0.2,1.4,0.5,2.1,0.8
		c0.7,0.3,1.3,0.7,1.9,1.1c-0.3-0.2-0.7-0.3-1-0.5s-0.7-0.3-1-0.4c-0.7-0.3-1.4-0.5-2.1-0.8c-0.7-0.2-1.4-0.4-2.1-0.7
		c-0.4-0.1-0.7-0.2-1.1-0.3L51.1,79.2z"/>
	<path class="st11" d="M52.8,80.4c0.6-0.1,1.2-0.1,1.8-0.1c0.6,0,1.2,0.2,1.7,0.4c-0.6,0-1.2-0.1-1.7-0.1
		C54,80.6,53.4,80.5,52.8,80.4z"/>
	<path class="st11" d="M65.1,83.1c0.8,0.6,1.5,1.2,2.2,1.8c0.7,0.6,1.5,1.3,2.2,1.9c0.3,0.3,0.7,0.7,1,1c0.3,0.3,0.7,0.7,0.9,1.1
		c0.6,0.8,1,1.6,1.4,2.5c-0.2-0.4-0.5-0.8-0.8-1.2c-0.3-0.4-0.5-0.8-0.8-1.2c-0.3-0.4-0.6-0.7-1-1.1c-0.3-0.3-0.7-0.7-1-1l-2.1-2
		l-1-1L65.1,83.1z"/>
	<path class="st11" d="M90.9,109.4l-1-0.2l-1-0.3c-0.7-0.2-1.4-0.4-2-0.7c-0.2-0.1-0.3-0.2-0.5-0.3c-0.2-0.1-0.3-0.2-0.4-0.4
		c-0.2-0.3-0.4-0.6-0.5-0.9c-0.3-0.6-0.6-1.3-0.9-1.9l0.5,0.9c0.2,0.3,0.4,0.6,0.5,0.9c0.2,0.3,0.4,0.6,0.6,0.9
		c0.1,0.1,0.2,0.2,0.3,0.3l0.2,0.1l0.2,0.1c0.6,0.3,1.3,0.5,2,0.7S90.2,109.1,90.9,109.4z"/>
	<path class="st11" d="M94.8,109.4c0-0.3,0.1-0.5,0.1-0.8c0-0.1,0-0.3,0.1-0.4c0-0.1,0-0.1,0-0.2c0-0.1,0-0.1,0-0.2
		c-0.1-0.3-0.2-0.5-0.3-0.7c-0.1-0.2-0.2-0.5-0.3-0.7c-0.1-0.2-0.2-0.5-0.4-0.7c0-0.1-0.1-0.1-0.1-0.2c0-0.1,0-0.1,0-0.1l0,0
		c0,0,0,0,0,0c0,0,0,0-0.1,0.1c0,0-0.1,0.1-0.1,0.1c-0.1,0.2-0.2,0.5-0.3,0.7c-0.1,0.3-0.1,0.5,0.1,0.8c-0.1-0.1-0.2-0.2-0.2-0.4
		c0-0.1,0-0.3,0-0.4c0-0.3,0.1-0.6,0.3-0.8c0-0.1,0.1-0.1,0.1-0.2c0,0,0.1-0.1,0.1-0.1c0,0,0.1-0.1,0.2-0.1c0,0,0.1,0,0.1,0.1l0,0
		c0,0,0,0.1,0.1,0.1s0.1,0.1,0.1,0.2c0.1,0.2,0.3,0.5,0.4,0.7c0.2,0.5,0.4,1,0.6,1.5c0,0.1,0,0.2,0,0.2c0,0.1,0,0.1,0,0.2
		c0,0.1-0.1,0.3-0.1,0.4C95,108.9,94.9,109.1,94.8,109.4z"/>
	<path class="st11" d="M95.6,109.4l0.5-1.2c0.1-0.2,0.1-0.4,0.2-0.6c0-0.2,0-0.4,0-0.6c-0.1-0.9-0.1-1.7-0.1-2.6
		c0.2,0.9,0.3,1.7,0.4,2.6c0,0.2,0,0.5,0,0.7c-0.1,0.2-0.1,0.4-0.3,0.6C96.1,108.7,95.8,109,95.6,109.4z"/>
	<path class="st11" d="M98.8,109.4c0.2-0.5,0.4-1,0.5-1.5c0.1-0.3,0.2-0.5,0.2-0.8c0-0.3,0.1-0.5,0-0.8c-0.1-0.5-0.2-1-0.4-1.5
		c-0.2-0.5-0.4-1-0.6-1.5c0.3,0.4,0.6,0.9,0.8,1.4c0.2,0.5,0.4,1,0.5,1.6c0,0.3,0,0.6,0,0.8c-0.1,0.3-0.1,0.5-0.3,0.8
		C99.3,108.4,99,108.9,98.8,109.4z"/>
	<path class="st11" d="M64.3,65.3c0.5,0.3,1,0.5,1.5,0.9c0.2,0.2,0.5,0.3,0.7,0.5c0.1,0.1,0.2,0.2,0.3,0.3c0.1,0,0.1,0.1,0.2,0.2
		c0.1,0.1,0.1,0.1,0.1,0.2c0.3,0.5,0.4,1.1,0.5,1.6c0.1,0.6,0.2,1.1,0.2,1.7c-0.1-0.5-0.3-1.1-0.4-1.6c-0.1-0.3-0.2-0.5-0.3-0.8
		c-0.1-0.3-0.2-0.5-0.3-0.7c0-0.1-0.1-0.1-0.1-0.1l-0.2-0.1l-0.3-0.3l-0.7-0.5L64.3,65.3z"/>
	<path class="st11" d="M63.4,65.3c0,0.3-0.1,0.5-0.1,0.8c0,0.1,0,0.3-0.1,0.4c0,0.1,0,0.1,0,0.2c0,0.1,0,0.1,0,0.2
		c0.1,0.3,0.2,0.5,0.3,0.7c0.1,0.2,0.2,0.5,0.3,0.7c0.1,0.2,0.2,0.5,0.4,0.7c0,0.1,0.1,0.1,0.1,0.2c0,0.1,0,0.1,0,0.1l0,0
		c0,0,0,0,0,0c0,0,0,0,0.1-0.1c0,0,0.1-0.1,0.1-0.1c0.1-0.2,0.2-0.5,0.3-0.7c0.1-0.3,0.1-0.5-0.1-0.8c0.1,0.1,0.2,0.2,0.2,0.4
		c0,0.1,0,0.3,0,0.4c0,0.3-0.1,0.6-0.3,0.8c0,0.1-0.1,0.1-0.1,0.2c0,0-0.1,0.1-0.1,0.1c0,0-0.1,0.1-0.2,0.1c0,0-0.1,0-0.1-0.1l0,0
		c0,0,0-0.1-0.1-0.1c0,0-0.1-0.1-0.1-0.2c-0.1-0.2-0.3-0.5-0.4-0.7c-0.2-0.5-0.4-1-0.5-1.5c0-0.1,0-0.2,0-0.2c0-0.1,0-0.1,0-0.2
		c0-0.1,0.1-0.3,0.1-0.4C63.2,65.8,63.3,65.5,63.4,65.3z"/>
	<path class="st11" d="M59.5,65.3L59,66.5c-0.1,0.2-0.1,0.4-0.2,0.6c0,0.2,0,0.4,0,0.6c0.1,0.9,0.1,1.7,0.1,2.6
		c-0.2-0.9-0.3-1.7-0.4-2.6c0-0.2,0-0.5,0-0.7c0.1-0.2,0.1-0.4,0.3-0.6C59,66,59.2,65.6,59.5,65.3z"/>
	<path class="st11" d="M51.2,65.3c0,0.4,0,0.8,0,1.2l0,0.6l0,0.3v0.2c0,0,0,0.1,0,0.1c0,0,0,0.1,0,0.1c-0.1,0.2-0.2,0.4-0.4,0.5
		c-0.1,0.2-0.3,0.3-0.4,0.4c-0.3,0.3-0.6,0.5-1,0.7c0.3-0.3,0.5-0.6,0.8-0.9c0.3-0.3,0.5-0.6,0.7-0.9c0,0,0,0,0-0.1c0,0,0,0,0-0.1
		l0-0.2l0-0.3l0.1-0.6C51,66.1,51.1,65.7,51.2,65.3z"/>
	<path class="st11" d="M54,65.3c-0.1,0.5-0.2,0.9-0.3,1.3c0,0.1-0.1,0.2-0.1,0.3c0,0.1,0,0.2,0,0.3c0,0.2,0,0.5,0,0.7
		c-0.1-0.2-0.1-0.4-0.2-0.7c0-0.1,0-0.2,0-0.4c0-0.1,0-0.2,0.1-0.4c0.1-0.2,0.1-0.4,0.2-0.7C53.8,65.7,53.9,65.5,54,65.3z"/>
	<path class="st12" d="M50.5,65.2l0-1.2c-1.7,0.3-3.4,0.1-5-0.6c-2.7-1.1-3.2-4.7-6-7s-9.2,0.2-13.5-1.8l-1.3,3.7
		c1.7,0.5,3.4,0.7,5.1,0.6c2.9-0.2,6-1.5,8.2-0.7s3.4,5.4,5.9,6.4C46.5,65.8,50.5,65.2,50.5,65.2z"/>
	<path class="st8" d="M50.6,64l0,1.2c0,0-0.4,0.1-1,0.1l-0.7-1.2C49.4,64.2,50,64.2,50.6,64z"/>
	<path class="st8" d="M45.4,63.4l-0.3,1.7c-0.4-0.1-0.9-0.2-1.3-0.4c-0.8-0.4-1.5-1.1-2.2-2l1.5-1.4C43.8,62.2,44.5,63,45.4,63.4z"
		/>
	<path class="st12" d="M27,74.3l-1.7-3.3c0,0,2,0.9,4.8-0.2c2.7-1.1,3.1-3.9,6-6c3.5-2.6,9.6,2.6,14.4,0.3l0.4,0.9
		c-5.1,2.2-10.9-1.2-13.3,0c-2.1,1-3.4,5.4-5.9,6.9C30.3,73.8,28.7,74.3,27,74.3z"/>
	<path class="st8" d="M51,66.1c-0.2,0.1-0.4,0.1-0.5,0.2l-0.7-0.8c0.3-0.1,0.5-0.2,0.8-0.3L51,66.1z"/>
	<path class="st8" d="M33.8,70.9c-0.4,0.6-1,1.2-1.6,1.7L29.8,71c0.1,0,0.2-0.1,0.3-0.1c1-0.4,1.9-1.1,2.5-2L33.8,70.9z"/>
	<path class="st14" d="M51.3,51.6c-2.4-0.2-10.2-0.6-15.4-2.7c-2.6-1.1-12-8.7-11.9-10c0.1-0.7,5.8-6.3,6.8-5.9
		c0.5,0.2,7.7,8.6,8.8,9.3c0.9,0.6,10.4,5.3,12,6.3C55.2,50.5,53,51.7,51.3,51.6z"/>
	<path class="st11" d="M21,36.5c1.2,1.5,3.3,3.6,4.4,4.1c1,0.4,7.3-5.2,6.8-6.2c-1.4-3.2-5.1-6.3-7-6.7C23.2,27.3,19.7,34.9,21,36.5
		z"/>
	<path class="st2" d="M21.9,36.9l1.9,1.3c0,0,19.7-23.3,32.7-32.4l-3.2,0.5c-1.4,0.2-2.7,0.8-3.7,1.7C45,12.1,31.6,24.4,21.9,36.9z"
		/>
	<path class="st15" d="M22.9,37.6c1.1-1.4,2.2-2.7,3.3-4c0.6-0.7,1.1-1.3,1.7-2c0.6-0.7,1.1-1.3,1.7-2c2.3-2.6,4.6-5.2,7-7.7
		c2.4-2.5,4.8-5,7.4-7.3s5.2-4.7,8-6.7l-2,1.6c-0.2,0.1-0.3,0.3-0.5,0.4l-0.5,0.4l-1,0.8l-0.5,0.4L47,12.1l-1,0.9l-1,0.9l-0.9,0.9
		l-0.9,0.9l-0.5,0.4c-0.2,0.1-0.3,0.3-0.5,0.5l-1.8,1.8c-0.6,0.6-1.2,1.2-1.8,1.9l-0.9,0.9l-0.9,0.9c-0.6,0.6-1.2,1.3-1.8,1.9
		l-1.8,1.9l-1.8,1.9l-1.7,1.9c-0.6,0.6-1.2,1.3-1.7,1.9c-0.6,0.6-1.1,1.3-1.7,2C25.1,34.9,24,36.2,22.9,37.6z"/>
	<path class="st12" d="M29.3,27.8l2.5,1.9c0,0-12,14.6-12.4,14.7c-0.4,0.1-2.9-1.9-3-2.3C16.3,41.8,28.9,28,29.3,27.8z"/>
	<g class="st16">
		<path d="M18.3,40.2c0.2,0.3,0.3,0.6,0.4,0.9c0.1,0.3,0.2,0.6,0.4,0.9c0.1,0.3,0.2,0.6,0.3,0.9c0.1,0.3,0.2,0.6,0.2,0.9
			c-0.2-0.3-0.3-0.6-0.4-0.9c-0.1-0.3-0.2-0.6-0.4-0.9c-0.1-0.3-0.2-0.6-0.3-0.9C18.5,40.8,18.4,40.5,18.3,40.2z"/>
		<path d="M20.9,42.3c-0.3,0-0.6,0-1-0.1c-0.3,0-0.6-0.1-1-0.1C18.7,42,18.3,42,18,41.9c-0.3-0.1-0.6-0.2-0.9-0.3c0.3,0,0.6,0,1,0.1
			c0.3,0,0.6,0.1,1,0.1c0.3,0.1,0.6,0.1,0.9,0.2C20.3,42.1,20.6,42.2,20.9,42.3z"/>
	</g>
	<g class="st16">
		<path d="M19.8,38.5c0.2,0.3,0.3,0.6,0.4,0.9c0.1,0.3,0.2,0.6,0.4,0.9c0.1,0.3,0.2,0.6,0.3,0.9c0.1,0.3,0.2,0.6,0.2,0.9
			c-0.2-0.3-0.3-0.6-0.4-0.9c-0.1-0.3-0.2-0.6-0.4-0.9c-0.1-0.3-0.2-0.6-0.3-0.9S19.9,38.8,19.8,38.5z"/>
		<path d="M22.4,40.6c-0.3,0-0.6,0-1-0.1c-0.3,0-0.6-0.1-1-0.1c-0.3-0.1-0.6-0.1-0.9-0.2c-0.3-0.1-0.6-0.2-0.9-0.3
			c0.3,0,0.6,0,1,0.1c0.3,0,0.6,0.1,1,0.1s0.6,0.1,0.9,0.2C21.7,40.4,22.1,40.5,22.4,40.6z"/>
	</g>
	<g class="st16">
		<path d="M21.3,36.8c0.2,0.3,0.3,0.6,0.4,0.9c0.1,0.3,0.2,0.6,0.4,0.9c0.1,0.3,0.2,0.6,0.3,0.9c0.1,0.3,0.2,0.6,0.2,1
			c-0.2-0.3-0.3-0.6-0.4-0.9c-0.1-0.3-0.2-0.6-0.4-0.9s-0.2-0.6-0.3-0.9C21.4,37.5,21.3,37.2,21.3,36.8z"/>
		<path d="M23.8,39c-0.3,0-0.6,0-1-0.1c-0.3,0-0.6-0.1-1-0.1c-0.3-0.1-0.6-0.1-0.9-0.2c-0.3-0.1-0.6-0.2-0.9-0.3c0.3,0,0.6,0,1,0.1
			c0.3,0,0.6,0.1,1,0.1c0.3,0.1,0.6,0.1,0.9,0.2C23.2,38.8,23.5,38.9,23.8,39z"/>
	</g>
	<g class="st16">
		<path d="M22.7,35.2c0.2,0.3,0.3,0.6,0.4,0.9c0.1,0.3,0.2,0.6,0.4,0.9c0.1,0.3,0.2,0.6,0.3,0.9c0.1,0.3,0.2,0.6,0.2,0.9
			c-0.2-0.3-0.3-0.6-0.4-0.9c-0.1-0.3-0.2-0.6-0.4-0.9s-0.2-0.6-0.3-0.9C22.9,35.8,22.8,35.5,22.7,35.2z"/>
		<path d="M25.3,37.3c-0.3,0-0.6,0-1-0.1c-0.3,0-0.6-0.1-1-0.1s-0.6-0.1-0.9-0.2c-0.3-0.1-0.6-0.2-0.9-0.3c0.3,0,0.6,0,1,0.1
			c0.3,0,0.6,0.1,1,0.1c0.3,0.1,0.6,0.1,0.9,0.2C24.7,37.1,25,37.2,25.3,37.3z"/>
	</g>
	<g class="st16">
		<path d="M24.2,33.6c0.2,0.3,0.3,0.6,0.4,0.8c0.1,0.3,0.2,0.6,0.3,0.9c0.1,0.3,0.2,0.6,0.3,0.9c0.1,0.3,0.2,0.6,0.2,0.9
			c-0.2-0.3-0.3-0.5-0.4-0.8c-0.1-0.3-0.2-0.6-0.3-0.9s-0.2-0.6-0.3-0.9C24.3,34.2,24.2,33.9,24.2,33.6z"/>
		<path d="M26.6,35.6c-0.3,0-0.6,0-0.9-0.1c-0.3,0-0.6-0.1-0.9-0.1c-0.3-0.1-0.6-0.1-0.9-0.2c-0.3-0.1-0.6-0.2-0.9-0.3
			c0.3,0,0.6,0,0.9,0.1c0.3,0,0.6,0.1,0.9,0.1c0.3,0,0.6,0.1,0.9,0.2C26,35.5,26.3,35.5,26.6,35.6z"/>
	</g>
	<g class="st16">
		<path d="M25.7,32c0.2,0.3,0.3,0.5,0.4,0.8c0.1,0.3,0.2,0.6,0.3,0.9s0.2,0.6,0.3,0.9c0.1,0.3,0.2,0.6,0.2,0.9
			c-0.2-0.3-0.3-0.5-0.4-0.8c-0.1-0.3-0.2-0.6-0.3-0.9s-0.2-0.6-0.3-0.9C25.8,32.6,25.7,32.3,25.7,32z"/>
		<path d="M28.1,34c-0.3,0-0.6,0-0.9-0.1c-0.3,0-0.6-0.1-0.9-0.1c-0.3,0-0.6-0.1-0.9-0.2c-0.3-0.1-0.6-0.2-0.9-0.3
			c0.3,0,0.6,0,0.9,0.1c0.3,0,0.6,0.1,0.9,0.1c0.3,0,0.6,0.1,0.9,0.2C27.5,33.8,27.8,33.9,28.1,34z"/>
	</g>
	<g class="st16">
		<path d="M27.1,30.4c0.1,0.3,0.3,0.5,0.4,0.8c0.1,0.3,0.2,0.5,0.3,0.8s0.2,0.5,0.3,0.8c0.1,0.3,0.2,0.6,0.2,0.9
			c-0.1-0.3-0.3-0.5-0.4-0.8c-0.1-0.3-0.2-0.5-0.3-0.8c-0.1-0.3-0.2-0.5-0.3-0.8C27.2,30.9,27.2,30.6,27.1,30.4z"/>
		<path d="M29.4,32.3c-0.3,0-0.6,0-0.9,0c-0.3,0-0.6-0.1-0.9-0.1c-0.3,0-0.6-0.1-0.9-0.2c-0.3-0.1-0.6-0.2-0.8-0.3
			c0.3,0,0.6,0,0.9,0c0.3,0,0.6,0.1,0.9,0.1c0.3,0,0.6,0.1,0.9,0.2C28.9,32.1,29.2,32.2,29.4,32.3z"/>
	</g>
	<g class="st16">
		<path d="M28.6,28.8c0.1,0.2,0.3,0.5,0.4,0.7c0.1,0.3,0.2,0.5,0.3,0.8c0.1,0.3,0.2,0.5,0.3,0.8c0.1,0.3,0.1,0.5,0.2,0.8
			c-0.1-0.2-0.3-0.5-0.4-0.7c-0.1-0.3-0.2-0.5-0.3-0.8c-0.1-0.3-0.2-0.5-0.3-0.8C28.7,29.4,28.6,29.1,28.6,28.8z"/>
		<path d="M30.8,30.6c-0.3,0-0.6,0-0.8,0c-0.3,0-0.5-0.1-0.8-0.1s-0.5-0.1-0.8-0.2c-0.3-0.1-0.5-0.1-0.8-0.2c0.3,0,0.6,0,0.8,0
			c0.3,0,0.5,0.1,0.8,0.1c0.3,0,0.5,0.1,0.8,0.2C30.2,30.5,30.5,30.5,30.8,30.6z"/>
	</g>
	<path class="st11" d="M28,28.9c0.1,1-1.1,0.6-1.1,0.6s1.7,1,1.4,2.2c-0.3,1.1-1.8,0.5-1.9,0.5c0.1,0.1,1.6,1.1,1.3,2.1
		c-0.4,1.1-1.8,0.3-1.9,0.3c0.1,0.1,1,1.1,0.5,1.9c-0.8,1.3-3.1-1.3-4.4-1.4c0,0-0.8,1.5-0.8,1.5c0,0-1.8-1.9-1.6-3.5
		c0-0.5,0.4-0.9,0.9-1c0,0-0.8-0.7-0.5-1.6c0.1-0.4,1-0.6,1-0.6s-0.6-0.6-0.3-1.4c0.2-0.6,1-0.7,1-0.7s-0.3-0.9,0.1-1.4
		C22.4,25.3,27.7,26.7,28,28.9z"/>
	<path class="st5" d="M21.4,27.8C21.4,27.8,21.4,27.8,21.4,27.8c1.9,0,3.8,0.6,5.4,1.7c0,0,0,0.1-0.1,0.1
		C25.1,28.8,23.3,28.2,21.4,27.8z"/>
	<path class="st5" d="M20.7,29.9C20.7,29.9,20.7,29.8,20.7,29.9c1.9,0,4.2,0.8,5.8,2.3c0.1,0.1,0.1,0.2,0,0.1
		C25.3,31.3,22.4,30.2,20.7,29.9z"/>
	<path class="st5" d="M25.8,34.7c-1.6-1.4-3.4-2.1-5.5-2.6c0,0,0,0,0,0c1.1,0,2.3,0.4,3.3,0.8C24.5,33.3,25.2,33.9,25.8,34.7
		C25.8,34.7,25.8,34.7,25.8,34.7z"/>
	<path class="st5" d="M26.9,29.5c0.3,0.2,0.6,0.5,0.9,0.8c0.3,0.3,0.5,0.6,0.5,1c0,0.2,0,0.3-0.1,0.5c-0.1,0.1-0.2,0.3-0.4,0.4
		c-0.3,0.1-0.7,0.2-1,0L26,31.8l0.6,0.5c0.3,0.2,0.5,0.5,0.7,0.9c0.2,0.3,0.3,0.7,0.2,1c-0.1,0.3-0.4,0.5-0.7,0.5
		c-0.4,0-0.7-0.1-1-0.3L25,33.9l0.6,0.8c0.2,0.2,0.3,0.4,0.4,0.7c0.1,0.2,0.2,0.5,0.1,0.8c0,0.2-0.2,0.4-0.4,0.5
		c-0.3,0-0.5,0-0.8-0.1c-0.5-0.2-1.1-0.5-1.6-0.8c-0.3-0.1-0.5-0.3-0.8-0.4c-0.3-0.1-0.5-0.2-0.8-0.3c0.3,0.1,0.6,0.2,0.8,0.3
		c0.3,0.1,0.5,0.3,0.7,0.5c0.5,0.3,1,0.6,1.5,0.9c0.3,0.1,0.6,0.2,0.9,0.1c0.3-0.1,0.6-0.4,0.7-0.7c0-0.3,0-0.7-0.2-0.9
		c-0.1-0.3-0.3-0.5-0.5-0.8l-0.2,0.3c0.4,0.2,0.8,0.4,1.2,0.4c0.2,0,0.5-0.1,0.7-0.2c0.2-0.1,0.3-0.3,0.4-0.6c0.1-0.4,0-0.9-0.2-1.3
		c-0.2-0.4-0.5-0.7-0.8-0.9l-0.2,0.3c0.4,0.2,0.9,0.1,1.2-0.1c0.2-0.1,0.3-0.3,0.4-0.5c0.1-0.2,0.1-0.4,0.1-0.6
		c-0.1-0.4-0.4-0.7-0.7-1C27.5,29.9,27.2,29.7,26.9,29.5z"/>
	<path class="st11" d="M31.8,33.6c0,0-2.7-8.5-5.3-6.1c-0.8,0.7-3.2,4.6-2.4,5.1c1,0.6,2.3-0.8,3-1.8c0,0,0.4,2.8,2.4,3.1
		C30.2,33.9,31,33.8,31.8,33.6z"/>
	<path class="st5" d="M26.7,27.2c-0.3,0.2-0.6,0.5-0.9,0.9c-0.3,0.3-0.5,0.7-0.7,1c-0.5,0.7-0.8,1.5-1.2,2.2
		c-0.1,0.2-0.1,0.4-0.2,0.7c0,0.1,0,0.3,0,0.4c0,0.1,0.1,0.1,0.1,0.2c0,0.1,0.1,0.1,0.2,0.1c0.2,0.1,0.5,0.2,0.7,0.1
		c0.2,0,0.4-0.1,0.6-0.2c0.4-0.2,0.7-0.5,1-0.8c0.3-0.3,0.5-0.7,0.8-1l-0.3-0.1c0.1,0.3,0.1,0.6,0.3,0.9c0.1,0.3,0.3,0.6,0.4,0.9
		c0.2,0.3,0.4,0.5,0.6,0.7c0.2,0.2,0.5,0.4,0.8,0.5c-0.3-0.1-0.5-0.3-0.8-0.5c-0.2-0.2-0.4-0.5-0.5-0.7c-0.1-0.3-0.3-0.6-0.4-0.8
		c-0.1-0.3-0.2-0.6-0.2-0.9l0-0.4l-0.2,0.3c-0.2,0.3-0.5,0.7-0.8,1c-0.3,0.3-0.6,0.6-0.9,0.8c-0.3,0.2-0.7,0.3-1,0.1
		c-0.3-0.1-0.1-0.6,0-1c0.1-0.4,0.3-0.8,0.5-1.1c0.2-0.4,0.4-0.8,0.5-1.1C25.6,28.5,26.1,27.8,26.7,27.2z"/>
	<path class="st13" d="M31.8,33.9l-6.5,6.8c0,0,0.8,0.8,1.4,1.3c0,0,0.6,1.5,1,1.9c2.1,1.9,6.4,4.6,8.1,5.2c2.6,1,9.6,2.3,14.3,2.7
		c4.6,0.4,4.4-2,0.7-4c-3.7-2-10.8-5.7-11.3-6c-0.3-0.2-3.2-4-4.9-5.8c-0.4-0.4-1.6-0.9-1.7-0.9L31.8,33.9z"/>
	<path class="st11" d="M50.2,51.8c-2.1-0.2-4.6-0.5-7-1c2.4-0.7,6.3-1.6,8.9-2.3C54.6,50.3,54.3,52.2,50.2,51.8z"/>
	<path class="st13" d="M67.9,65.3H51.2c0,0-2-1.6-2.5-2.5c-1.5-2.5-2.5-7.5,0.6-15.5c0.3-0.7,3.5-1.9,5.1-0.8
		c4.9,3.4,10.4,11.3,13,15.8C68.7,64.4,67.9,65.3,67.9,65.3z"/>
	<path class="st2" d="M84.3,61.3l-2-1.1c0,0-16.8,25.5-28.7,36l3.1-0.9c1.3-0.4,2.6-1.1,3.5-2.1C64.2,88.6,76.2,74.9,84.3,61.3z"/>
	<path class="st15" d="M83.3,60.7c-0.9,1.5-1.9,2.9-2.8,4.4c-0.5,0.7-1,1.4-1.5,2.2c-0.5,0.7-1,1.4-1.5,2.2c-2,2.9-4,5.7-6,8.5
		c-2.1,2.8-4.2,5.5-6.5,8.2c-2.3,2.6-4.6,5.2-7.1,7.6l1.8-1.8c0.2-0.2,0.3-0.3,0.4-0.5l0.4-0.5l0.9-1l0.4-0.5l0.4-0.5l0.8-1l0.8-1
		l0.8-1l0.8-1l0.4-0.5c0.1-0.2,0.3-0.3,0.4-0.5l1.6-2c0.5-0.7,1.1-1.4,1.6-2.1l0.8-1l0.8-1c0.5-0.7,1-1.4,1.6-2.1l1.5-2.1l1.5-2.1
		l1.5-2.1c0.5-0.7,1-1.4,1.5-2.1c0.5-0.7,1-1.4,1.5-2.1C81.3,63.6,82.3,62.2,83.3,60.7z"/>
	<path class="st12" d="M78,71.2l-2.7-1.6c0,0,10.2-15.9,10.6-16.1s3.1,1.5,3.2,1.9C89.3,55.8,78.4,70.9,78,71.2z"/>
	<g class="st16">
		<path d="M87.4,57.6c-0.2-0.3-0.4-0.5-0.5-0.8c-0.2-0.3-0.3-0.6-0.5-0.9c-0.1-0.3-0.3-0.6-0.4-0.9c-0.1-0.3-0.2-0.6-0.3-0.9
			c0.2,0.3,0.4,0.5,0.5,0.8c0.2,0.3,0.3,0.5,0.5,0.8s0.3,0.6,0.4,0.9C87.2,57,87.4,57.3,87.4,57.6z"/>
		<path d="M84.7,55.8c0.3,0,0.6-0.1,1,0c0.3,0,0.6,0,1,0c0.3,0,0.6,0,1,0.1c0.3,0,0.6,0.1,1,0.2c-0.3,0-0.6,0-1,0c-0.3,0-0.6,0-1,0
			c-0.3,0-0.6,0-1-0.1C85.3,55.9,85,55.9,84.7,55.8z"/>
	</g>
	<g class="st16">
		<path d="M86.2,59.4c-0.2-0.3-0.4-0.5-0.5-0.8c-0.2-0.3-0.3-0.6-0.5-0.9c-0.1-0.3-0.3-0.6-0.4-0.9c-0.1-0.3-0.2-0.6-0.3-0.9
			c0.2,0.3,0.4,0.5,0.5,0.8c0.2,0.3,0.3,0.5,0.5,0.8s0.3,0.6,0.4,0.9C86,58.8,86.1,59.1,86.2,59.4z"/>
		<path d="M83.4,57.6c0.3,0,0.6,0,1,0c0.3,0,0.6,0,1,0c0.3,0,0.6,0,1,0.1c0.3,0,0.6,0.1,1,0.2c-0.3,0-0.6,0-1,0c-0.3,0-0.6,0-1,0
			c-0.3,0-0.6,0-1-0.1C84,57.7,83.7,57.7,83.4,57.6z"/>
	</g>
	<g class="st16">
		<path d="M84.9,61.3c-0.2-0.3-0.4-0.5-0.5-0.8c-0.2-0.3-0.3-0.6-0.5-0.9c-0.1-0.3-0.3-0.6-0.4-0.9c-0.1-0.3-0.2-0.6-0.3-0.9
			c0.2,0.3,0.4,0.5,0.5,0.8c0.2,0.3,0.3,0.6,0.5,0.8c0.1,0.3,0.3,0.6,0.4,0.9C84.7,60.7,84.8,61,84.9,61.3z"/>
		<path d="M82.1,59.4c0.3,0,0.6,0,1,0c0.3,0,0.6,0,1,0c0.3,0,0.6,0,1,0.1c0.3,0,0.6,0.1,1,0.2c-0.3,0-0.6,0-1,0c-0.3,0-0.6,0-1,0
			c-0.3,0-0.6,0-1-0.1C82.8,59.6,82.5,59.5,82.1,59.4z"/>
	</g>
	<g class="st16">
		<path d="M83.7,63.1c-0.2-0.3-0.4-0.5-0.5-0.8c-0.2-0.3-0.3-0.6-0.5-0.9s-0.3-0.6-0.4-0.9c-0.1-0.3-0.2-0.6-0.3-0.9
			c0.2,0.3,0.4,0.5,0.5,0.8c0.2,0.3,0.3,0.6,0.5,0.9c0.1,0.3,0.3,0.6,0.4,0.9C83.5,62.5,83.6,62.8,83.7,63.1z"/>
		<path d="M80.9,61.3c0.3,0,0.6,0,1,0c0.3,0,0.6,0,1,0c0.3,0,0.6,0,1,0.1c0.3,0,0.6,0.1,1,0.2c-0.3,0-0.6,0-1,0c-0.3,0-0.6,0-1,0
			c-0.3,0-0.6,0-1-0.1C81.5,61.4,81.2,61.3,80.9,61.3z"/>
	</g>
	<g class="st16">
		<path d="M82.4,64.8c-0.2-0.3-0.4-0.5-0.5-0.8c-0.2-0.3-0.3-0.5-0.4-0.8c-0.1-0.3-0.3-0.5-0.4-0.8c-0.1-0.3-0.2-0.6-0.3-0.9
			c0.2,0.3,0.4,0.5,0.5,0.8c0.2,0.3,0.3,0.5,0.4,0.8c0.1,0.3,0.3,0.5,0.4,0.8C82.2,64.3,82.3,64.6,82.4,64.8z"/>
		<path d="M79.7,63.1c0.3,0,0.6-0.1,0.9,0c0.3,0,0.6,0,0.9,0c0.3,0,0.6,0,0.9,0.1c0.3,0,0.6,0.1,0.9,0.2c-0.3,0-0.6,0.1-0.9,0.1
			c-0.3,0-0.6,0-0.9,0c-0.3,0-0.6,0-0.9-0.1C80.4,63.2,80,63.2,79.7,63.1z"/>
	</g>
	<g class="st16">
		<path d="M81.2,66.6c-0.2-0.2-0.4-0.5-0.5-0.8c-0.2-0.3-0.3-0.5-0.4-0.8c-0.1-0.3-0.3-0.5-0.4-0.8c-0.1-0.3-0.2-0.6-0.3-0.9
			c0.2,0.2,0.3,0.5,0.5,0.8c0.2,0.3,0.3,0.5,0.4,0.8c0.1,0.3,0.3,0.5,0.4,0.8C81,66.1,81.1,66.3,81.2,66.6z"/>
		<path d="M78.5,64.9c0.3,0,0.6-0.1,0.9-0.1c0.3,0,0.6,0,0.9,0c0.3,0,0.6,0,0.9,0.1c0.3,0,0.6,0.1,0.9,0.2c-0.3,0-0.6,0.1-0.9,0.1
			c-0.3,0-0.6,0-0.9,0s-0.6,0-0.9-0.1C79.1,65,78.8,65,78.5,64.9z"/>
	</g>
	<g class="st16">
		<path d="M79.9,68.4c-0.2-0.2-0.3-0.5-0.5-0.7c-0.2-0.3-0.3-0.5-0.4-0.8s-0.3-0.5-0.4-0.8c-0.1-0.3-0.2-0.5-0.3-0.8
			c0.2,0.2,0.3,0.5,0.5,0.7c0.1,0.3,0.3,0.5,0.4,0.8c0.1,0.3,0.3,0.5,0.4,0.8C79.7,67.8,79.8,68.1,79.9,68.4z"/>
		<path d="M77.3,66.7c0.3,0,0.6-0.1,0.9-0.1c0.3,0,0.6,0,0.9,0c0.3,0,0.6,0,0.9,0.1c0.3,0,0.6,0.1,0.9,0.1C80.6,67,80.3,67,80,67
			c-0.3,0-0.6,0-0.9,0s-0.6,0-0.9-0.1C77.9,66.9,77.6,66.8,77.3,66.7z"/>
	</g>
	<g class="st16">
		<path d="M78.6,70.1c-0.2-0.2-0.3-0.4-0.5-0.7c-0.1-0.2-0.3-0.5-0.4-0.7c-0.1-0.2-0.2-0.5-0.3-0.7c-0.1-0.3-0.2-0.5-0.3-0.8
			c0.2,0.2,0.3,0.4,0.5,0.7c0.1,0.2,0.3,0.5,0.4,0.7c0.1,0.2,0.2,0.5,0.3,0.7C78.4,69.6,78.5,69.8,78.6,70.1z"/>
		<path d="M76.2,68.6c0.3,0,0.5-0.1,0.8-0.1c0.3,0,0.5,0,0.8,0c0.3,0,0.5,0,0.8,0.1c0.3,0,0.5,0.1,0.8,0.1c-0.3,0-0.5,0.1-0.8,0.1
			c-0.3,0-0.5,0-0.8,0s-0.5,0-0.8-0.1C76.8,68.7,76.5,68.6,76.2,68.6z"/>
	</g>
	<path class="st14" d="M55,49.8c7,6,18.1,13.4,20.5,14.6c1.6,0.8,6.2-7.6,5-8C79,55.9,65,50.1,58,47.9C54.1,46.7,53.3,48.3,55,49.8z
		"/>
	<path class="st11" d="M84.9,69.6c0.8-0.6,0.4-1.6,0.4-1.6c0.5-0.1,0.9-0.3,1.3-0.6c0.6-0.7-0.2-1.8-0.2-1.8
		c0.5-0.2,0.9-0.5,1.2-0.9c0.5-0.7-0.1-2-0.1-2c0.4-0.4,0.6-0.9,0.6-1.5c0-1.5-1.9-2.6-3.1-3.4c-1.2-0.7-5.3-1.7-6.1-2L74,63.6
		c0,0,4.4,4.9,6,5.6C81.3,69.7,84.1,70.3,84.9,69.6z"/>
	<path class="st5" d="M85.2,68.2c-1.5-0.3-2.9-1-4.3-1.6c0,0,0-0.1,0,0C82.3,67.1,83.8,67.5,85.2,68.2
		C85.3,68.1,85.3,68.1,85.2,68.2C85.2,68.2,85.2,68.2,85.2,68.2z"/>
	<path class="st5" d="M86.3,65.7c-0.3-0.1-0.7-0.2-1-0.4c-0.3-0.2-0.7-0.3-1-0.5c-0.7-0.4-1.3-0.7-1.9-1.1c0,0,0-0.1,0,0
		c0.7,0.4,1.3,0.7,2,1l1,0.5C85.8,65.2,86.1,65.4,86.3,65.7C86.4,65.6,86.4,65.6,86.3,65.7C86.4,65.7,86.3,65.7,86.3,65.7z"/>
	<path class="st5" d="M87.5,62.7c-0.3-0.1-0.6-0.2-0.9-0.4c-0.3-0.2-0.6-0.3-0.9-0.5c-0.6-0.3-1.2-0.7-1.8-1c0,0,0-0.1,0,0
		c0.6,0.3,1.2,0.6,1.8,1c0.3,0.2,0.6,0.3,0.9,0.5C87,62.3,87.3,62.5,87.5,62.7C87.5,62.7,87.5,62.7,87.5,62.7
		C87.5,62.7,87.5,62.7,87.5,62.7z"/>
	<path class="st13" d="M74.1,63.7l4.9-7.8l-1.4-0.6c0-0.6-0.4-1-0.9-1.2c-11.8-4.3-15.4-5.6-19.9-6.7c-3.2-0.8-5.1,0-2.3,2.8
		c1.8,1.8,12.2,10.7,16.2,12.5c0.5,0.3,2.2,0.2,2.2,0.2C73.6,63.3,74.1,63.7,74.1,63.7z"/>
	<path class="st11" d="M65.2,59c-0.8-0.6-1.6-1.2-2.5-1.8c-0.8-0.6-1.6-1.3-2.4-1.9s-1.6-1.3-2.4-2c-0.8-0.7-1.5-1.4-2.3-2.1
		c0.8,0.6,1.6,1.3,2.4,1.9l2.4,2l2.4,2C63.6,57.7,64.4,58.3,65.2,59z"/>
	<path class="st11" d="M57.8,53.1c-0.3-0.1-0.6-0.3-0.9-0.4c-0.3-0.2-0.6-0.4-0.9-0.6c0.3,0.1,0.6,0.3,0.9,0.4
		C57.2,52.7,57.5,52.9,57.8,53.1z"/>
	<path class="st14" d="M51,50.6c1,0.1,3-1.4,3.5-2.9c0-0.1-0.3-1.1-0.6-2.3c-0.2-0.7-0.4-1.6-0.5-2.3c0-0.2-4.6,2-4.6,2
		c0.4,0.9,0.8,1.9,1,2.8c0,0.1,0,0.2,0,0.3c0,0,0,0,0,0.1C49.7,48.9,49.9,50.5,51,50.6z"/>
	<path class="st14" d="M51,50.6c1,0.1,3-1.4,3.5-2.9c0-0.1-0.3-1.1-0.6-2.3c-0.2-0.7-0.4-1.6-0.5-2.3c0-0.2-4.6,2-4.6,2
		c0.4,0.9,0.8,1.9,1,2.8c0,0.1,0,0.2,0,0.3c0,0,0,0,0,0.1C49.7,48.9,49.9,50.5,51,50.6z"/>
	<path class="st5" d="M54.3,46.9c-2.5,0.8-4.3-0.2-5.2-1.1c-0.2-0.5-0.3-0.8-0.3-0.8s4.6-2.2,4.6-2c0.1,0.8,0.3,1.6,0.5,2.3
		C54,46,54.2,46.5,54.3,46.9z"/>
	<path class="st14" d="M47.1,37.2c-0.6,1.7,0,6.7,1.2,7.9c1.7,1.7,4.6,2,6.1-0.1c1.4-2,0.5-8.5-0.8-9.6
		C51.6,33.9,48.1,34.7,47.1,37.2z"/>
	<path class="st5" d="M54.6,37.6L54.6,37.6c-0.2-0.4-0.8-1.1-1.5-1.1c-0.3,0-0.7,0.4-1.3,0.5c-0.8,0.1-1.3-0.4-2.2-0.2
		c-0.7,0.2-1.8,0.9-1.7,3.2c0.1,2-0.7,2.3-0.7,2.3c-0.4-1.9-0.5-4.1-0.1-5.1c0.9-2.5,4.5-3.4,6.4-1.8C54,35.8,54.3,36.6,54.6,37.6z"
		/>
	<path class="st5" d="M50.6,41C50.6,41,50.6,41,50.6,41c0,0.4,0,0.8-0.2,0.9c0,0,0,0,0,0C50.8,41.8,50.7,41.3,50.6,41z"/>
	<path class="st5" d="M50.3,40.7c-0.5,0-0.4,1.1,0.1,1.1C50.9,41.7,50.7,40.7,50.3,40.7z"/>
	<path class="st5" d="M52.7,40.6C52.7,40.6,52.7,40.6,52.7,40.6c0,0.4,0.1,0.7,0.4,0.8v0C52.8,41.4,52.7,40.9,52.7,40.6z"/>
	<path class="st5" d="M53,40.2c0.5-0.1,0.7,1,0.2,1.1C52.6,41.4,52.5,40.3,53,40.2z"/>
	<path class="st5" d="M49.6,40.2c0.1,0,0.3,0.1,0.4,0.1c0.1,0.1,0.3,0.1,0.5,0c0.1-0.1,0.1-0.2,0.1-0.3c-0.1-0.2-0.3-0.3-0.5-0.3
		c-0.2,0-0.4,0-0.6,0.1c-0.1,0.1-0.1,0.2-0.1,0.3C49.5,40.1,49.6,40.2,49.6,40.2z"/>
	<path class="st5" d="M53.4,39.7c-0.1,0.1-0.3,0.1-0.4,0.1c-0.1,0.1-0.3,0.1-0.5,0c-0.1,0-0.1-0.1-0.1-0.2c0.1-0.2,0.2-0.3,0.4-0.4
		c0.2-0.1,0.4-0.1,0.6,0c0.1,0.1,0.2,0.2,0.1,0.3C53.5,39.6,53.5,39.6,53.4,39.7z"/>
	<path class="st5" d="M50.9,43.9c0.1,0.1,0.2,0.2,0.3,0.2c0.1,0,0.2-0.1,0.4-0.1c0,0,0,0,0,0c-0.1,0.1-0.2,0.2-0.4,0.2
		C51,44.2,50.9,44.1,50.9,43.9C50.9,43.9,50.9,43.9,50.9,43.9C50.9,43.9,50.9,43.9,50.9,43.9z"/>
	<path class="st5" d="M51.2,43.5c0.7-0.2,1.4-0.2,1.4-0.3l-0.1-0.8c0.1,0,0.6,0.2,0.6,0.1c-0.1-1.2-0.4-2.3-0.8-3.4c0,0-0.1,0-0.1,0
		c0.1,1.1,0.4,2.1,0.6,3.2c-0.2-0.1-0.4-0.1-0.5-0.1c0,0.3,0.1,0.6,0.1,0.9c-0.4,0.1-0.8,0.2-1.2,0.3C51.1,43.5,51.2,43.5,51.2,43.5
		z"/>
	<path class="st11" d="M47.2,42.7c0,0,4.3-1.2,5.5-1.3s2.7,0.6,2.7,0.6s-0.1,4.6-3.4,4.6S47.4,44.2,47.2,42.7z"/>
	<path class="st5" d="M54.9,39.2c-1.1-0.6-2.3-0.9-3.6-0.7c-1.9,0.2-4,1.8-4.4,2c-0.1-1.2-0.1-2.5,0.2-3.2c1-2.5,4.5-3.3,6.4-1.8
		C54.4,36.1,54.8,37.8,54.9,39.2z"/>
	<path class="st11" d="M46.7,40.3c0.3-0.2,0.6-0.4,0.9-0.7c0.3-0.2,0.6-0.4,1-0.6c0.3-0.2,0.7-0.4,1-0.5c0.4-0.1,0.7-0.2,1.1-0.2
		c-0.4,0.1-0.7,0.2-1.1,0.3c-0.2,0.1-0.4,0.1-0.5,0.2c-0.2,0.1-0.3,0.2-0.5,0.3C48,39.6,47.4,40,46.7,40.3z"/>
	<path class="st11" d="M46.8,40c0.2-0.2,0.5-0.4,0.7-0.5l0.7-0.5c0.2-0.2,0.5-0.3,0.8-0.4c0.3-0.1,0.6-0.2,0.8-0.2
		c-0.5,0.2-1.1,0.4-1.6,0.7c-0.2,0.2-0.5,0.3-0.7,0.5C47.3,39.7,47,39.9,46.8,40z"/>
	<path class="st11" d="M52.7,38.3c0.2,0,0.5,0,0.7,0.1c0.2,0,0.5,0.1,0.7,0.2c0.2,0.1,0.5,0.2,0.7,0.3c0.2,0.1,0.4,0.3,0.6,0.4
		c-0.4-0.3-0.8-0.5-1.3-0.6C53.7,38.5,53.2,38.4,52.7,38.3z"/>
	<path class="st14" d="M48,41.5c0,0-1-1.7-1.7-1.4s-0.1,2.7,0.7,3.1c0.4,0.2,1,0.1,1.2-0.3c0,0,0,0,0,0L48,41.5z"/>
	<path class="st5" d="M46.5,40.8c0.6,0.3,0.8,0.9,1,1.5c-0.1-0.2-0.4-0.3-0.6-0.2c0,0,0,0-0.1,0c0,0,0,0,0,0c0.2,0,0.5,0,0.6,0.2
		c0.1,0.2,0.2,0.3,0.2,0.5c0,0.1,0.1,0,0.1,0l0,0C47.8,42.1,47.3,40.9,46.5,40.8L46.5,40.8z"/>
	<path class="st13" d="M54.5,36.5c-1-1.8-2.6-2.4-4.5-2l0,0c-1.5,0.1-4.8,2.3-5.2,2.7s-1.1,3.4-0.8,3.3c0.1,0,0.2-0.5,0.5-0.5
		c0.4,0,1.1-0.2,1-0.1s-0.4,1.9-0.3,2.2c0.1,0.3,0.3,0.5,0.5,0.7c0,0.6,0.1,1.2,0.2,1.7c0.3,1.2,2.7,1.9,3,2.2
		c0.8,0.7,0.5,3.6,1.5,4.1c0.8,0.5,2.5-0.5,2.5-0.5c0.3-0.3,1.3-1.2,1.6-2.5c0.1-0.3-0.3-1.6-0.1-2c0.1-0.2,1.3-0.9,1.5-2
		C56.1,42.4,55.6,38.4,54.5,36.5z M54.5,44.3c-0.5,1.1-1.6,1.5-1.8,2.2c-0.2,0.7-0.6,0.6-0.6,0.6c-0.3-0.2-0.6-0.4-1-0.6
		c-0.5-0.3-1.9-1.1-2.4-2s-0.9-3.9,0.1-5.6c1.2-2.1,4.5-2.1,5.4,0.3C54.5,40.1,55,43.2,54.5,44.3z"/>
	<path class="st11" d="M48.4,39.6c0-0.3,0.1-0.5,0.1-0.8c0.1-0.3,0.1-0.5,0.2-0.8c0.1-0.1,0.1-0.2,0.2-0.4c0.1-0.1,0.2-0.2,0.3-0.3
		c0.2-0.2,0.4-0.3,0.7-0.4c-0.2,0.2-0.4,0.3-0.6,0.5c-0.1,0.1-0.2,0.2-0.3,0.3c-0.1,0.1-0.1,0.2-0.2,0.3
		C48.7,38.6,48.6,39.1,48.4,39.6z"/>
	<path class="st11" d="M52.7,37.1c0.2,0.1,0.3,0.2,0.5,0.3c0.2,0.1,0.3,0.2,0.4,0.4c0.1,0.2,0.2,0.3,0.2,0.5
		c0.1,0.2,0.1,0.3,0.1,0.5l-0.2-0.5c-0.1-0.2-0.1-0.3-0.2-0.5c-0.1-0.1-0.2-0.3-0.4-0.4L52.7,37.1z"/>
	<path class="st11" d="M52.1,36.6c0.3,0,0.6,0.1,0.9,0.3c0.3,0.2,0.5,0.4,0.7,0.6c-0.1-0.1-0.2-0.2-0.4-0.3
		c-0.1-0.1-0.3-0.2-0.4-0.2C52.6,36.9,52.4,36.8,52.1,36.6z"/>
	<path class="st11" d="M45.7,42.9c0-0.3,0-0.7-0.1-1v-0.3c0-0.1,0-0.2,0-0.3c0-0.2,0.1-0.3,0.1-0.5c0.1-0.3,0.2-0.7,0.3-1
		c0.1-0.3,0.2-0.6,0.4-1c-0.2,0.7-0.4,1.3-0.5,2c0,0.2-0.1,0.3-0.1,0.5c0,0.2,0,0.3,0,0.5C45.7,42.2,45.7,42.6,45.7,42.9z"/>
	<path class="st11" d="M45.5,40c0-0.2,0.1-0.3,0.1-0.5c0-0.1,0.1-0.2,0.1-0.2c0-0.1,0.1-0.1,0.2-0.2c0.2-0.3,0.5-0.5,0.7-0.8
		c-0.2,0.3-0.4,0.6-0.6,0.8c-0.1,0.1-0.1,0.1-0.2,0.2c0,0.1-0.1,0.2-0.1,0.2C45.6,39.7,45.6,39.8,45.5,40z"/>
	<path class="st11" d="M47.7,43.3c0.1,0.4,0.2,0.8,0.3,1.2c0.1,0.4,0.4,0.7,0.7,0.9c0.3,0.2,0.7,0.4,1,0.6l1,0.6
		c-0.4-0.1-0.8-0.3-1.1-0.5c-0.4-0.2-0.7-0.4-1.1-0.6c-0.3-0.2-0.6-0.6-0.7-1C47.7,44.1,47.6,43.7,47.7,43.3z"/>
	<path class="st11" d="M54.8,41.2c0.1,0.4,0.1,0.8,0.2,1.1c0,0.4,0,0.8,0,1.2c0,0.2-0.1,0.4-0.1,0.6c-0.1,0.2-0.2,0.4-0.3,0.5
		c-0.2,0.3-0.5,0.6-0.7,0.9c0.2-0.3,0.4-0.7,0.6-1c0.1-0.1,0.2-0.3,0.3-0.5c0-0.2,0.1-0.4,0.1-0.5c0-0.4,0-0.8,0-1.1
		C54.9,42,54.9,41.6,54.8,41.2z"/>
	<polygon class="st12" points="50.7,66.2 49.6,64 68.1,64 68.8,66.2 	"/>
</g>
</svg>
