<?xml version="1.0" encoding="utf-8"?>
<!-- Generator: Adobe Illustrator 24.1.1, SVG Export Plug-In . SVG Version: 6.00 Build 0)  -->
<svg version="1.1" id="Слой_1" xmlns="http://www.w3.org/2000/svg" xmlns:xlink="http://www.w3.org/1999/xlink" x="0px" y="0px"
	 viewBox="0 0 128 128" style="enable-background:new 0 0 128 128;" xml:space="preserve">
<style type="text/css">
	.st0{fill:#BEE8EA;}
	.st1{fill:#E0E0E0;}
	.st2{fill:#EBEBEB;}
	.st3{fill:#FAFAFA;}
	.st4{fill:#FAD986;}
	.st5{fill:#DDA95B;}
	.st6{fill:#159BBA;}
	.st7{fill:#263238;}
	.st8{fill:#FFFFFF;}
	.st9{fill:#FFBE9D;}
	.st10{fill:#EB996E;}
	.st11{fill:#E8505B;}
	.st12{fill:#455A64;}
	.st13{fill:#29292C;}
	.st14{fill:#0B7D98;}
</style>
<g>
	<g>
		<path class="st0" d="M57.4,114.4c-0.2,0-0.4,0-0.6,0.2c0.3-0.6,0.1-1.4-0.4-1.8c-0.5-0.4-1.3-0.5-1.8-0.1c-0.4-0.7-1.3-1-2-0.6
			c-0.7,0.3-1.1,1.2-0.8,2c-0.6,0-1.1,0.4-1.4,0.8c-0.3,0.5-0.4,1.1-0.3,1.6h10.2c0,0-0.6-1.1-2.1-0.9l-0.2-0.6
			C58,114.6,57.7,114.4,57.4,114.4z M50.6,115.3c0.1,0,0.1,0,0.1,0.1c0,0.1,0,0.1-0.1,0.1c-0.1,0-0.1,0-0.1-0.1
			C50.5,115.4,50.5,115.3,50.6,115.3z M50.6,116.1c-0.1,0-0.2-0.1-0.2-0.2c0-0.1,0.1-0.2,0.2-0.2s0.2,0.1,0.2,0.2
			C50.8,116,50.7,116.1,50.6,116.1z M51.3,115.8c-0.3,0-0.5-0.2-0.5-0.5s0.2-0.5,0.5-0.5s0.5,0.2,0.5,0.5S51.6,115.8,51.3,115.8z
			 M55.6,114.4c-0.1,0-0.2-0.1-0.2-0.2c0-0.1,0.1-0.2,0.2-0.2c0.1,0,0.2,0.1,0.2,0.2C55.8,114.3,55.7,114.4,55.6,114.4z M55.4,113.4
			c0-0.3,0.2-0.5,0.5-0.5c0.3,0,0.5,0.2,0.5,0.5c0,0.3-0.2,0.5-0.5,0.5C55.7,113.9,55.4,113.7,55.4,113.4z M56.3,114.6
			c-0.2,0-0.3-0.1-0.3-0.3c0-0.2,0.1-0.3,0.3-0.3c0.2,0,0.3,0.1,0.3,0.3C56.6,114.5,56.4,114.6,56.3,114.6z"/>
	</g>
</g>
<g>
	<g>
		<g>
			<rect x="10.2" y="45.1" class="st0" width="4.2" height="4.2"/>
		</g>
		<g>
			<rect x="15.7" y="45.1" class="st0" width="4.2" height="4.2"/>
		</g>
		<g>
			<rect x="21.3" y="45.1" class="st0" width="4.2" height="4.2"/>
		</g>
		<g>
			<rect x="26.8" y="45.1" class="st0" width="4.2" height="4.2"/>
		</g>
		<g>
			<rect x="32.3" y="45.1" class="st0" width="4.2" height="4.2"/>
		</g>
		<g>
			<rect x="37.8" y="45.1" class="st0" width="4.2" height="4.2"/>
		</g>
		<g>
			<rect x="43.3" y="45.1" class="st0" width="4.2" height="4.2"/>
		</g>
		<g>
			<rect x="48.8" y="45.1" class="st0" width="4.2" height="4.2"/>
		</g>
		<g>
			<rect x="54.3" y="45.1" class="st0" width="4.2" height="4.2"/>
		</g>
		<g>
			<rect x="59.9" y="45.1" class="st0" width="4.2" height="4.2"/>
		</g>
	</g>
	<g>
		<g>
			<rect x="10.2" y="50.4" class="st0" width="4.2" height="4.2"/>
		</g>
		<g>
			<rect x="15.7" y="50.4" class="st0" width="4.2" height="4.2"/>
		</g>
		<g>
			<rect x="21.3" y="50.4" class="st0" width="4.2" height="4.2"/>
		</g>
		<g>
			<rect x="26.8" y="50.4" class="st0" width="4.2" height="4.2"/>
		</g>
		<g>
			<rect x="32.3" y="50.4" class="st0" width="4.2" height="4.2"/>
		</g>
		<g>
			<rect x="37.8" y="50.4" class="st0" width="4.2" height="4.2"/>
		</g>
		<g>
			<rect x="43.3" y="50.4" class="st0" width="4.2" height="4.2"/>
		</g>
		<g>
			<rect x="48.8" y="50.4" class="st0" width="4.2" height="4.2"/>
		</g>
		<g>
			<rect x="54.3" y="50.4" class="st0" width="4.2" height="4.2"/>
		</g>
		<g>
			<rect x="59.9" y="50.4" class="st0" width="4.2" height="4.2"/>
		</g>
	</g>
	<g>
		<g>
			<rect x="10.2" y="55.7" class="st0" width="4.2" height="4.2"/>
		</g>
		<g>
			<rect x="15.7" y="55.7" class="st0" width="4.2" height="4.2"/>
		</g>
		<g>
			<rect x="21.3" y="55.7" class="st0" width="4.2" height="4.2"/>
		</g>
		<g>
			<rect x="26.8" y="55.7" class="st0" width="4.2" height="4.2"/>
		</g>
		<g>
			<rect x="32.3" y="55.7" class="st0" width="4.2" height="4.2"/>
		</g>
		<g>
			<rect x="37.8" y="55.7" class="st0" width="4.2" height="4.2"/>
		</g>
		<g>
			<rect x="43.3" y="55.7" class="st0" width="4.2" height="4.2"/>
		</g>
		<g>
			<rect x="48.8" y="55.7" class="st0" width="4.2" height="4.2"/>
		</g>
		<g>
			<rect x="54.3" y="55.7" class="st0" width="4.2" height="4.2"/>
		</g>
		<g>
			<rect x="59.9" y="55.7" class="st0" width="4.2" height="4.2"/>
		</g>
	</g>
	<g>
		<g>
			<rect x="10.2" y="61" class="st0" width="4.2" height="4.2"/>
		</g>
		<g>
			<rect x="15.7" y="61" class="st0" width="4.2" height="4.2"/>
		</g>
		<g>
			<rect x="21.3" y="61" class="st0" width="4.2" height="4.2"/>
		</g>
		<g>
			<rect x="26.8" y="61" class="st0" width="4.2" height="4.2"/>
		</g>
		<g>
			<rect x="32.3" y="61" class="st0" width="4.2" height="4.2"/>
		</g>
		<g>
			<rect x="37.8" y="61" class="st0" width="4.2" height="4.2"/>
		</g>
		<g>
			<rect x="43.3" y="61" class="st0" width="4.2" height="4.2"/>
		</g>
		<g>
			<rect x="48.8" y="61" class="st0" width="4.2" height="4.2"/>
		</g>
		<g>
			<rect x="54.3" y="61" class="st0" width="4.2" height="4.2"/>
		</g>
		<g>
			<rect x="59.9" y="61" class="st0" width="4.2" height="4.2"/>
		</g>
	</g>
	<g>
		<g>
			<rect x="10.2" y="66.4" class="st0" width="4.2" height="4.2"/>
		</g>
		<g>
			<rect x="15.7" y="66.4" class="st0" width="4.2" height="4.2"/>
		</g>
		<g>
			<rect x="21.3" y="66.4" class="st0" width="4.2" height="4.2"/>
		</g>
		<g>
			<rect x="26.8" y="66.4" class="st0" width="4.2" height="4.2"/>
		</g>
		<g>
			<rect x="32.3" y="66.4" class="st0" width="4.2" height="4.2"/>
		</g>
		<g>
			<rect x="37.8" y="66.4" class="st0" width="4.2" height="4.2"/>
		</g>
		<g>
			<rect x="43.3" y="66.4" class="st0" width="4.2" height="4.2"/>
		</g>
		<g>
			<rect x="48.8" y="66.4" class="st0" width="4.2" height="4.2"/>
		</g>
		<g>
			<rect x="54.3" y="66.4" class="st0" width="4.2" height="4.2"/>
		</g>
		<g>
			<rect x="59.9" y="66.4" class="st0" width="4.2" height="4.2"/>
		</g>
	</g>
	<g>
		<g>
			<rect x="10.2" y="71.7" class="st0" width="4.2" height="4.2"/>
		</g>
		<g>
			<rect x="15.7" y="71.7" class="st0" width="4.2" height="4.2"/>
		</g>
		<g>
			<rect x="21.3" y="71.7" class="st0" width="4.2" height="4.2"/>
		</g>
		<g>
			<rect x="26.8" y="71.7" class="st0" width="4.2" height="4.2"/>
		</g>
		<g>
			<rect x="32.3" y="71.7" class="st0" width="4.2" height="4.2"/>
		</g>
		<g>
			<rect x="37.8" y="71.7" class="st0" width="4.2" height="4.2"/>
		</g>
		<g>
			<rect x="43.3" y="71.7" class="st0" width="4.2" height="4.2"/>
		</g>
		<g>
			<rect x="48.8" y="71.7" class="st0" width="4.2" height="4.2"/>
		</g>
		<g>
			<rect x="54.3" y="71.7" class="st0" width="4.2" height="4.2"/>
		</g>
		<g>
			<rect x="59.9" y="71.7" class="st0" width="4.2" height="4.2"/>
		</g>
	</g>
	<g>
		<g>
			<rect x="10.2" y="77" class="st0" width="4.2" height="4.2"/>
		</g>
		<g>
			<rect x="15.7" y="77" class="st0" width="4.2" height="4.2"/>
		</g>
		<g>
			<rect x="21.3" y="77" class="st0" width="4.2" height="4.2"/>
		</g>
		<g>
			<rect x="26.8" y="77" class="st0" width="4.2" height="4.2"/>
		</g>
		<g>
			<rect x="32.3" y="77" class="st0" width="4.2" height="4.2"/>
		</g>
		<g>
			<rect x="37.8" y="77" class="st0" width="4.2" height="4.2"/>
		</g>
		<g>
			<rect x="43.3" y="77" class="st0" width="4.2" height="4.2"/>
		</g>
		<g>
			<rect x="48.8" y="77" class="st0" width="4.2" height="4.2"/>
		</g>
		<g>
			<rect x="54.3" y="77" class="st0" width="4.2" height="4.2"/>
		</g>
		<g>
			<rect x="59.9" y="77" class="st0" width="4.2" height="4.2"/>
		</g>
	</g>
	<g>
		<g>
			<rect x="10.2" y="82.3" class="st0" width="4.2" height="4.2"/>
		</g>
		<g>
			<rect x="15.7" y="82.3" class="st0" width="4.2" height="4.2"/>
		</g>
		<g>
			<rect x="21.3" y="82.3" class="st0" width="4.2" height="4.2"/>
		</g>
		<g>
			<rect x="26.8" y="82.3" class="st0" width="4.2" height="4.2"/>
		</g>
		<g>
			<rect x="32.3" y="82.3" class="st0" width="4.2" height="4.2"/>
		</g>
		<g>
			<rect x="37.8" y="82.3" class="st0" width="4.2" height="4.2"/>
		</g>
		<g>
			<rect x="43.3" y="82.3" class="st0" width="4.2" height="4.2"/>
		</g>
		<g>
			<rect x="48.8" y="82.3" class="st0" width="4.2" height="4.2"/>
		</g>
		<g>
			<rect x="54.3" y="82.3" class="st0" width="4.2" height="4.2"/>
		</g>
		<g>
			<rect x="59.9" y="82.3" class="st0" width="4.2" height="4.2"/>
		</g>
	</g>
	<g>
		<g>
			<rect x="10.2" y="87.6" class="st0" width="4.2" height="4.2"/>
		</g>
		<g>
			<rect x="15.7" y="87.6" class="st0" width="4.2" height="4.2"/>
		</g>
		<g>
			<rect x="21.3" y="87.6" class="st0" width="4.2" height="4.2"/>
		</g>
		<g>
			<rect x="26.8" y="87.6" class="st0" width="4.2" height="4.2"/>
		</g>
		<g>
			<rect x="32.3" y="87.6" class="st0" width="4.2" height="4.2"/>
		</g>
		<g>
			<rect x="37.8" y="87.6" class="st0" width="4.2" height="4.2"/>
		</g>
		<g>
			<rect x="43.3" y="87.6" class="st0" width="4.2" height="4.2"/>
		</g>
		<g>
			<rect x="48.8" y="87.6" class="st0" width="4.2" height="4.2"/>
		</g>
		<g>
			<rect x="54.3" y="87.6" class="st0" width="4.2" height="4.2"/>
		</g>
		<g>
			<rect x="59.9" y="87.6" class="st0" width="4.2" height="4.2"/>
		</g>
	</g>
</g>
<g>
	<g>
		<rect x="84.7" y="7.8" class="st1" width="18.9" height="19.7"/>
	</g>
</g>
<g>
	<g>
		<rect x="83.4" y="7.8" class="st2" width="18.9" height="19.7"/>
	</g>
</g>
<g>
	<g>
		<rect x="85.9" y="10.5" class="st3" width="13.8" height="14.4"/>
	</g>
</g>
<g>
	<g>
		<g>
			<path class="st1" d="M85.9,25c0,0-0.1,0.2-0.3,0.4c-0.2,0.2-0.5,0.5-0.9,0.9c-0.3,0.3-0.7,0.6-0.9,0.9c-0.2,0.2-0.4,0.3-0.4,0.3
				c0,0,0.1-0.2,0.3-0.4c0.2-0.2,0.5-0.5,0.9-0.9c0.3-0.3,0.7-0.7,0.9-0.9C85.8,25.1,85.9,25,85.9,25z"/>
		</g>
	</g>
</g>
<g>
	<g>
		<g>
			<path class="st1" d="M99.8,25c0,0,0.2,0.1,0.4,0.3c0.2,0.2,0.5,0.5,0.9,0.9c0.3,0.3,0.6,0.7,0.9,0.9c0.2,0.2,0.3,0.4,0.3,0.4
				c0,0-0.2-0.1-0.4-0.3c-0.2-0.2-0.5-0.5-0.9-0.9c-0.3-0.3-0.7-0.7-0.9-0.9C99.9,25.1,99.8,25,99.8,25z"/>
		</g>
	</g>
</g>
<g>
	<g>
		<g>
			<path class="st1" d="M99.7,10.5c0,0,0.1-0.2,0.3-0.4c0.2-0.2,0.5-0.5,0.9-0.9c0.3-0.3,0.7-0.6,0.9-0.9c0.2-0.2,0.4-0.3,0.4-0.3
				c0,0-0.1,0.2-0.3,0.4c-0.2,0.2-0.5,0.5-0.9,0.9c-0.3,0.3-0.7,0.7-0.9,0.9C99.9,10.4,99.7,10.5,99.7,10.5z"/>
		</g>
	</g>
</g>
<g>
	<g>
		<g>
			<path class="st1" d="M85.9,10.6c0,0-0.2-0.1-0.4-0.3C85.3,10,85,9.7,84.6,9.3C84.3,9,84,8.7,83.7,8.4C83.5,8.2,83.4,8,83.4,8
				c0,0,0.2,0.1,0.4,0.3c0.2,0.2,0.5,0.5,0.9,0.9c0.3,0.3,0.7,0.7,0.9,0.9C85.8,10.4,85.9,10.5,85.9,10.6z"/>
		</g>
	</g>
</g>
<g>
	<g>
		<g>
			<path class="st1" d="M99.7,24.9C99.7,24.9,99.7,24.9,99.7,24.9c0-0.1,0-0.2,0-0.3c0-0.2,0-0.4,0-0.8c0-0.7,0-1.7,0-2.9
				c0-2.5,0-6.1,0-10.4l0,0c-4,0-8.8,0-13.8,0h0l0.1-0.1c0,5.3,0,10.2,0,14.4l0,0c4.1,0,7.6,0,10,0c1.2,0,2.2,0,2.8,0
				c0.3,0,0.6,0,0.7,0C99.6,24.9,99.6,24.9,99.7,24.9C99.7,24.9,99.7,24.9,99.7,24.9S99.7,24.9,99.7,24.9c-0.1,0-0.2,0-0.2,0
				c-0.2,0-0.4,0-0.7,0c-0.6,0-1.6,0-2.8,0c-2.4,0-5.9,0-10,0l0,0l0,0c0-4.2,0-9.1,0-14.4l0-0.1h0.1h0c5,0,9.8,0,13.8,0l0,0l0,0
				c0,4.3,0,7.9,0,10.5c0,1.3,0,2.2,0,2.9c0,0.3,0,0.6,0,0.8C99.7,24.7,99.7,24.8,99.7,24.9C99.7,24.9,99.7,24.9,99.7,24.9z"/>
		</g>
	</g>
</g>
<g>
	<path class="st4" d="M89.9,16.3h0.7c0,0,0.6-1.9,2-1.6c1.4,0.3,1.6,1.6,1.5,2.2c0,0-0.1,0.3,0.2,0.3c0.3,0,2.5,0,2.5,0
		s0.6,3.8-3.5,3.5c-4.1-0.3-2.7-3.1-2.5-3.3C91,17.1,89.9,16.3,89.9,16.3z"/>
</g>
<g>
	<path class="st5" d="M94.8,18.4c-0.4,0.3-1,0.3-1.5,0.2c-0.3,0-0.6-0.1-0.8,0C92.2,18.6,92,19,92,19.3l0,0.1
		c0.3,0.6,1.2,0.9,1.8,0.7C94.5,19.8,94.9,19,94.8,18.4z"/>
</g>
<g>
	<path class="st1" d="M91.6,16.2c0,0.1-0.1,0.1-0.1,0.1s-0.1-0.1-0.1-0.1c0-0.1,0.1-0.1,0.1-0.1S91.6,16.2,91.6,16.2z"/>
</g>
<g>
	<g>
		<g>
			<rect x="68.4" y="45.1" class="st0" width="4.2" height="4.2"/>
		</g>
		<g>
			<rect x="73.9" y="45.1" class="st0" width="4.2" height="4.2"/>
		</g>
		<g>
			<rect x="79.4" y="45.1" class="st0" width="4.2" height="4.2"/>
		</g>
		<g>
			<rect x="84.9" y="45.1" class="st0" width="4.2" height="4.2"/>
		</g>
		<g>
			<rect x="90.4" y="45.1" class="st0" width="4.2" height="4.2"/>
		</g>
		<g>
			<rect x="95.9" y="45.1" class="st0" width="4.2" height="4.2"/>
		</g>
		<g>
			<rect x="101.4" y="45.1" class="st0" width="4.2" height="4.2"/>
		</g>
		<g>
			<rect x="107" y="45.1" class="st0" width="4.2" height="4.2"/>
		</g>
		<g>
			<rect x="112.5" y="45.1" class="st0" width="4.2" height="4.2"/>
		</g>
		<g>
			<rect x="118" y="45.1" class="st0" width="4.2" height="4.2"/>
		</g>
	</g>
	<g>
		<g>
			<rect x="68.4" y="50.4" class="st0" width="4.2" height="4.2"/>
		</g>
		<g>
			<rect x="73.9" y="50.4" class="st0" width="4.2" height="4.2"/>
		</g>
		<g>
			<rect x="79.4" y="50.4" class="st0" width="4.2" height="4.2"/>
		</g>
		<g>
			<rect x="84.9" y="50.4" class="st0" width="4.2" height="4.2"/>
		</g>
		<g>
			<rect x="90.4" y="50.4" class="st0" width="4.2" height="4.2"/>
		</g>
		<g>
			<rect x="95.9" y="50.4" class="st0" width="4.2" height="4.2"/>
		</g>
		<g>
			<rect x="101.4" y="50.4" class="st0" width="4.2" height="4.2"/>
		</g>
		<g>
			<rect x="107" y="50.4" class="st0" width="4.2" height="4.2"/>
		</g>
		<g>
			<rect x="112.5" y="50.4" class="st0" width="4.2" height="4.2"/>
		</g>
		<g>
			<rect x="118" y="50.4" class="st0" width="4.2" height="4.2"/>
		</g>
	</g>
	<g>
		<g>
			<rect x="68.4" y="55.7" class="st0" width="4.2" height="4.2"/>
		</g>
		<g>
			<rect x="73.9" y="55.7" class="st0" width="4.2" height="4.2"/>
		</g>
		<g>
			<rect x="79.4" y="55.7" class="st0" width="4.2" height="4.2"/>
		</g>
		<g>
			<rect x="84.9" y="55.7" class="st0" width="4.2" height="4.2"/>
		</g>
		<g>
			<rect x="90.4" y="55.7" class="st0" width="4.2" height="4.2"/>
		</g>
		<g>
			<rect x="95.9" y="55.7" class="st0" width="4.2" height="4.2"/>
		</g>
		<g>
			<rect x="101.4" y="55.7" class="st0" width="4.2" height="4.2"/>
		</g>
		<g>
			<rect x="107" y="55.7" class="st0" width="4.2" height="4.2"/>
		</g>
		<g>
			<rect x="112.5" y="55.7" class="st0" width="4.2" height="4.2"/>
		</g>
		<g>
			<rect x="118" y="55.7" class="st0" width="4.2" height="4.2"/>
		</g>
	</g>
	<g>
		<g>
			<rect x="68.4" y="61" class="st0" width="4.2" height="4.2"/>
		</g>
		<g>
			<rect x="73.9" y="61" class="st0" width="4.2" height="4.2"/>
		</g>
		<g>
			<rect x="79.4" y="61" class="st0" width="4.2" height="4.2"/>
		</g>
		<g>
			<rect x="84.9" y="61" class="st0" width="4.2" height="4.2"/>
		</g>
		<g>
			<rect x="90.4" y="61" class="st0" width="4.2" height="4.2"/>
		</g>
		<g>
			<rect x="95.9" y="61" class="st0" width="4.2" height="4.2"/>
		</g>
		<g>
			<rect x="101.4" y="61" class="st0" width="4.2" height="4.2"/>
		</g>
		<g>
			<rect x="107" y="61" class="st0" width="4.2" height="4.2"/>
		</g>
		<g>
			<rect x="112.5" y="61" class="st0" width="4.2" height="4.2"/>
		</g>
		<g>
			<rect x="118" y="61" class="st0" width="4.2" height="4.2"/>
		</g>
	</g>
	<g>
		<g>
			<rect x="68.4" y="66.4" class="st0" width="4.2" height="4.2"/>
		</g>
		<g>
			<rect x="73.9" y="66.4" class="st0" width="4.2" height="4.2"/>
		</g>
		<g>
			<rect x="79.4" y="66.4" class="st0" width="4.2" height="4.2"/>
		</g>
		<g>
			<rect x="84.9" y="66.4" class="st0" width="4.2" height="4.2"/>
		</g>
		<g>
			<rect x="90.4" y="66.4" class="st0" width="4.2" height="4.2"/>
		</g>
		<g>
			<rect x="95.9" y="66.4" class="st0" width="4.2" height="4.2"/>
		</g>
		<g>
			<rect x="101.4" y="66.4" class="st0" width="4.2" height="4.2"/>
		</g>
		<g>
			<rect x="107" y="66.4" class="st0" width="4.2" height="4.2"/>
		</g>
		<g>
			<rect x="112.5" y="66.4" class="st0" width="4.2" height="4.2"/>
		</g>
		<g>
			<rect x="118" y="66.4" class="st0" width="4.2" height="4.2"/>
		</g>
	</g>
	<g>
		<g>
			<rect x="68.4" y="71.7" class="st0" width="4.2" height="4.2"/>
		</g>
		<g>
			<rect x="73.9" y="71.7" class="st0" width="4.2" height="4.2"/>
		</g>
		<g>
			<rect x="79.4" y="71.7" class="st0" width="4.2" height="4.2"/>
		</g>
		<g>
			<rect x="84.9" y="71.7" class="st0" width="4.2" height="4.2"/>
		</g>
		<g>
			<rect x="90.4" y="71.7" class="st0" width="4.2" height="4.2"/>
		</g>
		<g>
			<rect x="95.9" y="71.7" class="st0" width="4.2" height="4.2"/>
		</g>
		<g>
			<rect x="101.4" y="71.7" class="st0" width="4.2" height="4.2"/>
		</g>
		<g>
			<rect x="107" y="71.7" class="st0" width="4.2" height="4.2"/>
		</g>
		<g>
			<rect x="112.5" y="71.7" class="st0" width="4.2" height="4.2"/>
		</g>
		<g>
			<rect x="118" y="71.7" class="st0" width="4.2" height="4.2"/>
		</g>
	</g>
	<g>
		<g>
			<rect x="68.4" y="77" class="st0" width="4.2" height="4.2"/>
		</g>
		<g>
			<rect x="73.9" y="77" class="st0" width="4.2" height="4.2"/>
		</g>
		<g>
			<rect x="79.4" y="77" class="st0" width="4.2" height="4.2"/>
		</g>
		<g>
			<rect x="84.9" y="77" class="st0" width="4.2" height="4.2"/>
		</g>
		<g>
			<rect x="90.4" y="77" class="st0" width="4.2" height="4.2"/>
		</g>
		<g>
			<rect x="95.9" y="77" class="st0" width="4.2" height="4.2"/>
		</g>
		<g>
			<rect x="101.4" y="77" class="st0" width="4.2" height="4.2"/>
		</g>
		<g>
			<rect x="107" y="77" class="st0" width="4.2" height="4.2"/>
		</g>
		<g>
			<rect x="112.5" y="77" class="st0" width="4.2" height="4.2"/>
		</g>
		<g>
			<rect x="118" y="77" class="st0" width="4.2" height="4.2"/>
		</g>
	</g>
	<g>
		<g>
			<rect x="68.4" y="82.3" class="st0" width="4.2" height="4.2"/>
		</g>
		<g>
			<rect x="73.9" y="82.3" class="st0" width="4.2" height="4.2"/>
		</g>
		<g>
			<rect x="79.4" y="82.3" class="st0" width="4.2" height="4.2"/>
		</g>
		<g>
			<rect x="84.9" y="82.3" class="st0" width="4.2" height="4.2"/>
		</g>
		<g>
			<rect x="90.4" y="82.3" class="st0" width="4.2" height="4.2"/>
		</g>
		<g>
			<rect x="95.9" y="82.3" class="st0" width="4.2" height="4.2"/>
		</g>
		<g>
			<rect x="101.4" y="82.3" class="st0" width="4.2" height="4.2"/>
		</g>
		<g>
			<rect x="107" y="82.3" class="st0" width="4.2" height="4.2"/>
		</g>
		<g>
			<rect x="112.5" y="82.3" class="st0" width="4.2" height="4.2"/>
		</g>
		<g>
			<rect x="118" y="82.3" class="st0" width="4.2" height="4.2"/>
		</g>
	</g>
	<g>
		<g>
			<rect x="68.4" y="87.6" class="st0" width="4.2" height="4.2"/>
		</g>
		<g>
			<rect x="73.9" y="87.6" class="st0" width="4.2" height="4.2"/>
		</g>
		<g>
			<rect x="79.4" y="87.6" class="st0" width="4.2" height="4.2"/>
		</g>
		<g>
			<rect x="84.9" y="87.6" class="st0" width="4.2" height="4.2"/>
		</g>
		<g>
			<rect x="90.4" y="87.6" class="st0" width="4.2" height="4.2"/>
		</g>
		<g>
			<rect x="95.9" y="87.6" class="st0" width="4.2" height="4.2"/>
		</g>
		<g>
			<rect x="101.4" y="87.6" class="st0" width="4.2" height="4.2"/>
		</g>
		<g>
			<rect x="107" y="87.6" class="st0" width="4.2" height="4.2"/>
		</g>
		<g>
			<rect x="112.5" y="87.6" class="st0" width="4.2" height="4.2"/>
		</g>
		<g>
			<rect x="118" y="87.6" class="st0" width="4.2" height="4.2"/>
		</g>
	</g>
</g>
<g>
	<path class="st6" d="M109.3,116.6c-1.4-0.6-3-1-4.5-1.2c-0.6-0.1-1.2-0.1-1.8-0.1c-0.2,0-0.4,0-0.6,0c-0.8,0-1.5-0.1-2.3-0.1
		c-0.3,0-0.6,0-0.9,0.1c-0.2,0.1-0.3,0.2-0.5,0.2c-0.4,0-0.7-0.3-1-0.2c-0.2,0.1-0.3,0.3-0.5,0.3c-0.3,0.1-0.6-0.2-0.8-0.3
		c-0.3-0.1-0.6,0-1,0c-0.3,0-0.7-0.1-0.8-0.5c-0.1,0.3-0.5,0.3-0.8,0.2c-0.3-0.1-0.6-0.3-0.9-0.2c-0.1,0.1-0.3,0.2-0.4,0.2
		c-0.4,0.1-0.7-0.5-1.1-0.4c-0.3,0-0.5,0.2-0.7,0.3c-0.4,0.2-0.9,0-1.1-0.3c0,0.4-0.5,0.6-0.9,0.6c-0.4,0-0.8-0.2-1.2,0
		c-0.3,0.1-0.5,0.3-0.8,0.2c-0.3-0.1-0.4-0.4-0.7-0.4c-0.3,0-0.5,0.3-0.8,0.3c-0.2,0-0.4-0.2-0.6-0.3c-0.4,0-0.6,0.4-1,0.4
		c-0.3,0-0.4-0.4-0.7-0.4c-0.2,0-0.4,0.1-0.5,0.2c-0.4,0.2-0.9,0-1.1-0.4c-0.1,0.3-0.5,0.3-0.8,0.2c-0.3-0.1-0.6-0.2-0.9-0.1
		c-0.1,0.1-0.2,0.2-0.3,0.2c-0.3,0.2-0.7-0.1-1-0.3c-0.7,0-1.3,0.4-1.7,0.9c-0.3-0.2-0.7-0.4-1-0.3c-0.4,0.1-0.7,0.5-0.5,0.8
		L109.3,116.6z"/>
</g>
<g>
	<g>
		<path class="st7" d="M122.9,116.5c0,0-26.4,0.1-58.9,0.1c-32.6,0-58.9,0-58.9-0.1s26.4-0.1,58.9-0.1
			C96.5,116.4,122.9,116.4,122.9,116.5z"/>
	</g>
</g>
<g>
	<g>
		<g>
			<path class="st8" d="M41.6,25.1c-0.6-0.2-1.5,0.1-1.7,0.7c-0.4-0.4-1.1-0.5-1.6-0.3c-0.5,0.3-0.8,0.9-0.7,1.4
				c-0.5,0.1-0.9,0.6-0.9,1.1c0,0.5,0.5,1,1,1.1L37.6,29c0.7,0.1,1.4,0.1,2,0.1c0.7-0.1,1.4-0.2,1.9-0.6c0.6-0.4,1-1,1-1.7
				C42.6,26,42.2,25.3,41.6,25.1z"/>
		</g>
		<g>
			<g>
				<path class="st1" d="M41.6,25.1c-0.5-0.2-1.1-0.1-1.5,0.4c0,0.1-0.2,0.3-0.2,0.3c-0.1,0-0.2-0.2-0.3-0.2
					c-0.3-0.1-0.6-0.2-0.9-0.2c-0.6,0.1-1,0.6-1.1,1.1c0,0.1,0,0.3,0,0.4c0,0.1-0.3,0.2-0.4,0.2c-0.2,0.2-0.4,0.4-0.5,0.7
					c-0.2,0.6,0.3,1.3,1,1.4c0,0,0.1,0,0-0.1c0,0-0.1-0.1-0.1-0.1c0,0,0,0,0,0c0.1,0.1,0.1,0.1,0.2,0.1c0.2,0,0.5,0,0.7,0.1
					c0.5,0,0.9,0,1.4,0c0.7-0.1,1.4-0.3,2-0.8c0.5-0.4,0.8-1.1,0.7-1.7C42.5,25.9,42.2,25.3,41.6,25.1C41.6,25,41.5,25.1,41.6,25.1
					c0.6,0.3,0.9,0.9,0.9,1.5c0,0.7-0.3,1.3-0.8,1.7c-1.1,1-2.7,0.8-4.1,0.7c0,0,0,0,0,0.1c0,0.1,0.1,0.1,0.1,0.2c0,0,0,0,0-0.1
					c-0.5-0.1-0.9-0.5-0.9-1c-0.1-0.6,0.4-1,0.9-1.2c0,0,0,0,0,0c-0.1-0.5,0.1-1.1,0.6-1.4c0.5-0.3,1.1-0.1,1.5,0.3c0,0,0,0,0.1,0
					C40.2,25.2,40.9,24.9,41.6,25.1C41.6,25.1,41.6,25.1,41.6,25.1z"/>
			</g>
		</g>
	</g>
	<g>
		<g>
			<path class="st8" d="M48.8,28.3c0-0.4-0.3-0.8-0.7-0.9c-0.4-0.1-0.8,0.1-1,0.5c-0.1-0.3-0.5-0.6-0.8-0.6c-0.4,0-0.7,0.2-0.9,0.5
				c-0.2,0.2-0.2,0.5-0.3,0.8c-0.3,0.7-0.2,1.6,0.4,2.1c0.2,0.2,0.6,0.4,0.9,0.1c0.4,0.5,1.2,0.6,1.7,0.2c0.5-0.4,0.6-1.2,0.1-1.7
				C48.6,29.1,48.8,28.7,48.8,28.3z"/>
		</g>
		<g>
			<g>
				<path class="st1" d="M48.9,28.3c0-0.4-0.3-0.8-0.7-0.9c-0.4-0.1-0.8,0.1-1,0.5c0,0,0,0,0.1,0c-0.1-0.3-0.4-0.5-0.7-0.6
					c-0.4,0-0.7,0.1-0.9,0.4c-0.3,0.3-0.4,0.7-0.5,1.1c-0.1,0.3-0.2,0.7-0.1,1.1c0.1,0.6,0.7,1.4,1.4,1.1c0.1,0,0.1,0,0.2,0.1
					c0.1,0,0.1,0.1,0.2,0.1c0.1,0.1,0.3,0.1,0.5,0.2c0.3,0.1,0.6,0,0.9-0.2c0.6-0.4,0.7-1.3,0.3-1.9c0,0,0,0,0,0
					C48.7,29.1,48.9,28.8,48.9,28.3C48.9,28.3,48.8,28.3,48.9,28.3c-0.1,0.4-0.3,0.7-0.6,1c0,0,0,0,0,0c0.4,0.5,0.4,1.3-0.1,1.7
					c-0.5,0.4-1.3,0.3-1.7-0.2c0,0,0,0,0,0c-0.5,0.4-1-0.3-1.2-0.7c-0.2-0.4-0.2-0.9-0.1-1.3c0-0.1,0.1-0.2,0.1-0.3
					c0-0.1,0.1-0.3,0.1-0.4c0.1-0.2,0.3-0.5,0.5-0.6c0.4-0.3,1.1-0.2,1.3,0.4c0,0,0,0,0.1,0c0.1-0.4,0.6-0.5,0.9-0.4
					C48.6,27.6,48.8,28,48.9,28.3C48.8,28.4,48.9,28.4,48.9,28.3z"/>
			</g>
		</g>
	</g>
	<g>
		<g>
			<path class="st9" d="M44.4,44.6c-0.7-1.8-1.9-2.1-1.9-2.1l-2-0.6l-6.4,2.9c0,0-3,2.3-3.5,3.2s-0.4,1.9-0.6,2.8
				c-0.2,1.1,0.4,2.4-0.1,3.7c-0.5,1.3-1.4,7.9-0.8,10.6c0.6,2.7,1.1,4.1,1.1,4.4c0,0.3-4,15.4-4,15.4s-1.8,7.1-1.4,8.9
				c0.4,1.8,9.3,17,9.3,17l0,0l1.7,3.4c0,0-4.1,3.3-3.8,4.2l8.5-4l-1.5-5.3l0,0c0,0-1.4-7.1-2.5-10.1s-3.5-5.8-3.5-5.8l-0.2-1.1
				c0,0,1.7-2.8,2.7-4.7c1-2,3.4-8.1,3.4-8.1l1.7-2c0,0,2.4-3.2,2.8-4.9c0.7-2.9-0.4-5.4-1-6.3c-0.6-0.9-2.2-3-2.4-4
				c-0.2-1-0.2-3-0.2-3l4-9.8C43.9,49.2,45.1,46.4,44.4,44.6z"/>
		</g>
		<g>
			<path class="st9" d="M38.1,116.9l7.7-0.6l-1.3-11.6c-0.1-2.5-0.7-8.4-1.5-10.3c-1-2.5-2-5-2-5s0.6-5.5,0.7-7.6
				c0.1-2.1-0.6-5.2-0.5-5.3c0.1-0.1-0.2-2.5-0.2-2.5l-7.7,10.4c-0.1,0.2,1.4,8.2,1.4,8.2l5.6,17.1l1.5,5.1
				C41.7,114.8,38.2,116,38.1,116.9z"/>
		</g>
		<g>
			<g>
				<g>
					<g>
						<g>
							<path class="st7" d="M37.6,33.3c-0.4-0.7-0.3-1.6,0.2-2.2c0.1-0.1,0.1-0.1,0.1-0.2c0-0.1-0.1-0.1-0.1-0.2
								c-0.2-0.3-0.4-0.8-0.3-1.2s0.4-0.8,0.8-0.9c-0.5-0.4-0.3-1.3,0.2-1.7c0.5-0.4,1.2-0.4,1.8,0c-0.1-0.4,0.2-0.8,0.6-0.9
								c0.4-0.1,0.8-0.1,1.1,0c0.5,0.1,1,0.4,1.1,1c0.2-0.3,0.5-0.3,0.9-0.3c0.8,0.2,1.5,1.1,1.3,1.9c0.3-0.1,0.7-0.1,1,0.1
								c0.3,0.1,0.5,0.5,0.5,0.8c0.2-0.2,0.6-0.2,0.9-0.1c0.2,0.1,0.4,0.2,0.6,0.4c0.1,0.2,0.2,0.5,0,0.7c0.4,0,0.8,0.4,0.8,0.9
								c0,0.4-0.4,0.9-0.8,0.9c0.2,0.3,0.3,0.8,0.1,1.1c-0.2,0.4-0.5,0.6-0.9,0.7c0.2,0.1,0.1,0.4,0,0.5c-0.2,0.1-0.4,0.1-0.6,0.1
								c-0.2,0.6-0.4,1.3-0.6,1.9c-0.1,0.4-0.3,0.8-0.5,1.2c-0.3,0.3-0.7,0.6-1.1,0.6"/>
						</g>
					</g>
				</g>
				<g>
					<g>
						<g>
							<g>
								<g>
									<g>
										<g>
											<g>
												<g>
													<g>
														<g>
															<g>
																<g>
																	<g>
																		<g>
																			<path class="st9" d="M38.2,31.5c0.6-1.5,2.8-2.5,4.3-1.9l4.7,2.6L46.9,33l-3.6,10.7l-6.7,0.5l1.5-4
																				c0,0-1.9-1-1.5-3.7C36.8,35.3,37.6,33.2,38.2,31.5z"/>
																		</g>
																	</g>
																</g>
															</g>
														</g>
														<g>
															<g>
																<g>
																	<g>
																		<g>
																			<g>
																				<g>
																					<g>
																						<g>
																							<g>
																								<g>
																									<g>
																										<g>
																											<g>
																												<g>
																													<path class="st7" d="M38,33.7c0,0.1,0.3,0,0.7,0.1c0.4,0.1,0.6,0.4,0.6,0.3c0,0,0-0.1-0.1-0.2
																														c-0.1-0.1-0.3-0.3-0.5-0.3c-0.2-0.1-0.4,0-0.6,0C38,33.6,38,33.7,38,33.7z"/>
																												</g>
																											</g>
																										</g>
																									</g>
																								</g>
																							</g>
																						</g>
																					</g>
																				</g>
																			</g>
																		</g>
																	</g>
																</g>
															</g>
														</g>
														<g>
															<g>
																<g>
																	<g>
																		<g>
																			<g>
																				<g>
																					<g>
																						<g>
																							<g>
																								<g>
																									<g>
																										<g>
																											<g>
																												<g>
																													<path class="st7" d="M41.5,34.8c0,0.1,0.3,0,0.7,0.1c0.4,0.1,0.6,0.4,0.6,0.3c0,0,0-0.1-0.1-0.2
																														c-0.1-0.1-0.3-0.3-0.5-0.3c-0.2-0.1-0.4,0-0.6,0C41.6,34.7,41.5,34.8,41.5,34.8z"/>
																												</g>
																											</g>
																										</g>
																									</g>
																								</g>
																							</g>
																						</g>
																					</g>
																				</g>
																			</g>
																		</g>
																	</g>
																</g>
															</g>
														</g>
														<g>
															<g>
																<g>
																	<g>
																		<g>
																			<g>
																				<g>
																					<g>
																						<g>
																							<g>
																								<g>
																									<g>
																										<g>
																											<g>
																												<path class="st7" d="M39.7,36.2c0,0-0.2-0.1-0.5-0.3c-0.1,0-0.2-0.1-0.2-0.2c0-0.1,0.1-0.2,0.1-0.3
																													c0.2-0.2,0.3-0.4,0.5-0.6c0.7-0.9,1.2-1.6,1.2-1.6c0,0-0.6,0.7-1.3,1.5c-0.2,0.2-0.3,0.4-0.5,0.6
																													c-0.1,0.1-0.2,0.2-0.2,0.3c0,0.1,0.1,0.1,0.1,0.2C39,36,39,36,39.1,36C39.4,36.1,39.7,36.2,39.7,36.2z"
																													/>
																											</g>
																										</g>
																									</g>
																								</g>
																							</g>
																						</g>
																					</g>
																				</g>
																			</g>
																		</g>
																	</g>
																</g>
															</g>
														</g>
														<g>
															<g>
																<g>
																	<g>
																		<g>
																			<g>
																				<g>
																					<g>
																						<g>
																							<g>
																								<g>
																									<g>
																										<g>
																											<path class="st10" d="M38,40.3c0,0,1.7,0.7,3.8,0.2c0,0-1.5,1.5-4,0.4L38,40.3z"/>
																										</g>
																									</g>
																								</g>
																							</g>
																						</g>
																					</g>
																				</g>
																			</g>
																		</g>
																	</g>
																</g>
															</g>
														</g>
														<g>
															<g>
																<g>
																	<g>
																		<g>
																			<g>
																				<g>
																					<g>
																						<g>
																							<g>
																								<g>
																									<g>
																										<g>
																											<path class="st10" d="M39.5,37.1c0.2-0.1,0.4-0.1,0.7-0.1c0.1,0.1,0.3,0.2,0.3,0.3
																												c0.1,0.2,0,0.3-0.1,0.4c-0.1,0.1-0.4,0.1-0.5,0c-0.2-0.1-0.3-0.3-0.4-0.4c0,0-0.1-0.1-0.1-0.1
																												C39.5,37.2,39.5,37.1,39.5,37.1"/>
																										</g>
																									</g>
																								</g>
																							</g>
																						</g>
																					</g>
																				</g>
																			</g>
																		</g>
																	</g>
																</g>
															</g>
														</g>
														<g>
															<g>
																<g>
																	<g>
																		<g>
																			<g>
																				<g>
																					<g>
																						<g>
																							<g>
																								<g>
																									<g>
																										<g>
																											<g>
																												<path class="st7" d="M40.6,36.8c-0.1,0-0.2,0.4-0.6,0.5c-0.4,0.2-0.8,0-0.8,0c0,0,0.1,0.1,0.2,0.2
																													c0.2,0.1,0.4,0.1,0.7,0c0.3-0.1,0.4-0.3,0.5-0.5C40.7,36.9,40.7,36.8,40.6,36.8z"/>
																											</g>
																										</g>
																									</g>
																								</g>
																							</g>
																						</g>
																					</g>
																				</g>
																			</g>
																		</g>
																	</g>
																</g>
															</g>
														</g>
													</g>
												</g>
											</g>
											<g>
												<g>
													<g>
														<g>
															<g>
																<g>
																	<g>
																		<g>
																			<g>
																				<g>
																					<g>
																						<g>
																							<g>
																								<path class="st7" d="M42.1,32.7c0,0.1,0.4,0.2,0.8,0.4c0.4,0.2,0.7,0.4,0.8,0.3c0,0,0-0.1-0.1-0.3
																									c-0.1-0.1-0.3-0.3-0.5-0.4c-0.2-0.1-0.5-0.1-0.7-0.1C42.2,32.6,42.1,32.7,42.1,32.7z"/>
																							</g>
																						</g>
																					</g>
																				</g>
																			</g>
																		</g>
																	</g>
																</g>
															</g>
														</g>
													</g>
												</g>
											</g>
											<g>
												<g>
													<g>
														<g>
															<g>
																<g>
																	<g>
																		<g>
																			<g>
																				<g>
																					<g>
																						<g>
																							<g>
																								<path class="st7" d="M38.8,31.8c0,0.1,0.3,0.1,0.6,0.2c0.3,0.1,0.5,0.2,0.6,0.2c0,0,0-0.1-0.1-0.2
																									c-0.1-0.1-0.2-0.2-0.4-0.3c-0.2-0.1-0.4,0-0.5,0C38.8,31.6,38.8,31.7,38.8,31.8z"/>
																							</g>
																						</g>
																					</g>
																				</g>
																			</g>
																		</g>
																	</g>
																</g>
															</g>
														</g>
													</g>
												</g>
											</g>
										</g>
									</g>
								</g>
							</g>
						</g>
					</g>
				</g>
				<g>
					<g>
						<g>
							<path class="st7" d="M40.2,28.9c-0.3,0.4-0.4,1-0.1,1.5c0.3,0.5,0.8,0.7,1.3,0.6c-0.2,0.1-0.3,0.4-0.2,0.6
								c0.1,0.2,0.3,0.4,0.6,0.5c0.5,0.2,1.1,0.2,1.5-0.1c-0.1,0.4,0.1,0.9,0.3,1.2c0.3,0.3,0.7,0.5,1.1,0.4
								c-0.5,0.2-0.7,0.7-0.7,1.2c0.1,0.5,0.5,0.9,1,1.1c0.5,0.1,1-0.1,1.3-0.6c0.4,0,0.8-0.3,1-0.6c0.2-0.4,0.3-0.8,0.1-1.2
								c0.3,0,0.6-0.2,0.7-0.4c0.1-0.2,0.2-0.5,0.2-0.8c0-0.7-0.2-1.4-0.8-1.9c-0.5-0.5-1.3-0.7-1.9-0.3c-0.1,0-0.1,0.1-0.2,0.1
								c-0.1,0-0.2-0.1-0.2-0.2c-0.2-0.4-0.4-0.9-0.8-1.2c-0.5-0.3-1.2-0.2-1.6,0.2c-0.1-0.6-0.7-1.2-1.3-1.2
								c-0.6,0-1.3,0.6-1.2,1.2"/>
						</g>
					</g>
				</g>
				<g>
					<g>
						<g>
							<path class="st7" d="M45.1,35.2c-0.1,0.5-0.2,1.1-0.2,1.6c0,0.2,0,0.5,0.2,0.6c0.2,0.1,0.4,0,0.6-0.1
								c0.2-0.2,0.2-0.4,0.3-0.6c0.2-0.7,0.3-1.5,0.5-2.2"/>
						</g>
					</g>
				</g>
				<g>
					<g>
						<g>
							<g>
								<g>
									<g>
										<g>
											<g>
												<g>
													<g>
														<g>
															<g>
																<g>
																	<g>
																		<g>
																			<g>
																				<g>
																					<g>
																						<path class="st9" d="M45.4,36c0,0,1.5,0,1,1.3c-0.4,1.3-1.7,0.6-1.6,0.6C44.9,37.9,45.4,36,45.4,36z"/>
																					</g>
																				</g>
																			</g>
																		</g>
																	</g>
																</g>
															</g>
														</g>
													</g>
												</g>
											</g>
										</g>
									</g>
								</g>
							</g>
						</g>
					</g>
					<g>
						<g>
							<g>
								<g>
									<g>
										<g>
											<g>
												<g>
													<g>
														<g>
															<g>
																<g>
																	<g>
																		<g>
																			<g>
																				<g>
																					<g>
																						<g>
																							<path class="st10" d="M45.4,37.5C45.4,37.5,45.4,37.5,45.4,37.5c0.1,0.1,0.1,0.1,0.2,0.1
																								c0.2,0,0.3-0.2,0.4-0.4c0-0.1,0.1-0.2,0-0.4c0-0.1-0.1-0.2-0.1-0.2c-0.1,0-0.1,0-0.2,0c0,0,0,0.1,0,0.1
																								c0,0,0,0,0-0.1c0,0,0-0.1,0.1-0.1c0,0,0.1,0,0.1,0c0.1,0,0.2,0.2,0.2,0.3c0,0.1,0,0.3,0,0.4
																								c-0.1,0.3-0.3,0.5-0.5,0.5C45.5,37.7,45.5,37.6,45.4,37.5C45.4,37.5,45.4,37.5,45.4,37.5z"/>
																						</g>
																					</g>
																				</g>
																			</g>
																		</g>
																	</g>
																</g>
															</g>
														</g>
													</g>
												</g>
											</g>
										</g>
									</g>
								</g>
							</g>
						</g>
					</g>
				</g>
				<g>
					<g>
						<g>
							<g>
								<path class="st8" d="M39.7,29.9c0,0,0,0-0.1,0c-0.1,0-0.2,0-0.3-0.1c-0.1,0-0.2-0.1-0.3-0.3c0-0.1-0.1-0.2-0.1-0.3
									c0-0.1,0.1-0.2,0.2-0.2l0,0.1c0,0,0,0,0,0c-0.4,0-0.7-0.2-0.8-0.4c-0.1-0.1-0.1-0.2-0.1-0.2c0-0.1,0-0.1,0-0.1
									c0,0,0.1,0.1,0.2,0.3c0.1,0.2,0.4,0.4,0.8,0.4c0,0,0,0,0,0l0.3,0l-0.3,0.1c-0.1,0-0.1,0.1-0.1,0.2c0,0.1,0,0.1,0,0.2
									c0.1,0.1,0.2,0.2,0.3,0.3C39.5,29.9,39.7,29.8,39.7,29.9z"/>
							</g>
						</g>
					</g>
				</g>
				<g>
					<g>
						<g>
							<g>
								<path class="st10" d="M40.9,37C40.9,37,40.9,37,40.9,37c-0.1-0.1-0.1-0.2-0.2-0.2c-0.1-0.1-0.2-0.1-0.2-0.1
									c0,0,0.1,0,0.3,0.1C40.9,36.8,40.9,36.9,40.9,37C40.9,37,40.9,37,40.9,37z"/>
							</g>
						</g>
					</g>
				</g>
			</g>
		</g>
		<g>
			<g>
				<path class="st10" d="M39,58.6c0,0-0.7,0.1-1.6,0.4c-0.8,0.3-1.4,0.7-1.5,0.7c0,0,0.1-0.1,0.4-0.3c0.2-0.2,0.6-0.3,1-0.5
					c0.4-0.1,0.8-0.2,1.1-0.2C38.8,58.6,39,58.6,39,58.6z"/>
			</g>
		</g>
		<g>
			<g>
				<path class="st10" d="M42.4,74.6c0,0-0.1,0-0.2,0.1c-0.1,0.1-0.3,0.2-0.4,0.4c-0.4,0.3-0.9,0.9-1.4,1.6c-0.5,0.8-1,1.7-1.4,2.9
					c-0.4,1.1-0.7,2.4-1.1,3.7c-0.2,0.7-0.6,1.3-0.9,1.8c-0.3,0.6-0.6,1.1-0.9,1.6c-0.6,1-1.2,2-1.7,2.7c-0.5,0.8-0.9,1.4-1.1,1.8
					c-0.1,0.2-0.2,0.4-0.3,0.5c-0.1,0.1-0.1,0.2-0.1,0.2c0,0,0-0.1,0.1-0.2c0.1-0.1,0.2-0.3,0.3-0.5c0.3-0.4,0.6-1.1,1.1-1.9
					c0.5-0.8,1-1.7,1.7-2.7c0.3-0.5,0.6-1.1,0.9-1.6c0.3-0.6,0.6-1.2,0.9-1.8c0.5-1.3,0.7-2.6,1.2-3.7c0.4-1.1,0.9-2.1,1.4-2.9
					c0.5-0.8,1-1.3,1.4-1.6c0.2-0.2,0.4-0.3,0.5-0.4C42.3,74.7,42.4,74.6,42.4,74.6z"/>
			</g>
		</g>
		<g>
			<g>
				<path class="st10" d="M40.9,89.4c0,0-0.2,0.2-0.6,0.3c-0.3,0.1-0.6,0.2-0.6,0.2c0,0,0.2-0.2,0.6-0.3
					C40.6,89.5,40.9,89.4,40.9,89.4z"/>
			</g>
		</g>
		<g>
			<g>
				<path class="st9" d="M41.6,28.3c0,0-12,1.6-12.7,1.8c-0.7,0.2-1.4,1-1.5,1.2c-0.1,0.2-0.4,0.9-0.5,1.6c-0.1,0.6,1.8,5.7,4.4,8.4
					c2.8,2.9,5.2,4.9,5.2,4.9l4.2-2.7c0.6-0.4,0.7-1.3,0.2-1.8l-8.1-8l9.3-3.3L41.6,28.3z"/>
			</g>
			<g>
				<path class="st9" d="M42,30.5l1.2,0.5l2.3-0.1l0.8-0.7c0,0-0.2-0.6-0.6-0.5s-0.8,0.3-0.8,0.3l-0.5-0.1l0.6-1.1l0.5-0.5
					c0,0,0-0.3,0-0.4c-0.1-0.1-0.3-0.2-0.4-0.2c-0.1,0-0.2,0.1-0.2,0.1s0.1-0.5-0.1-0.7c-0.3-0.1-0.6,0.1-0.6,0.1s0-0.4-0.1-0.5
					c-0.1-0.1-0.3-0.1-0.3-0.1s-0.4,0.2-0.4,0.2l-0.2,0c0,0-0.1-0.5-0.2-0.6c-0.1,0-0.2,0-0.3,0c-0.1,0-0.4,0.2-0.4,0.2L42.1,27
					c0,0-1.1,1.3-1.1,1.4L42,30.5z"/>
			</g>
		</g>
		<g>
			<g>
				<path class="st10" d="M37.4,47.4c0,0,0-0.2,0-0.4c0-0.3-0.1-0.7-0.2-1c-0.1-0.3-0.3-0.5-0.5-0.7c-0.2-0.2-0.3-0.3-0.4-0.4l0,0
					c0,0.1,0,0.1,0,0.1c0,0,0,0,0-0.1l0,0l0,0c0.1,0.1,0.3,0.2,0.4,0.3c0.2,0.2,0.4,0.4,0.5,0.8c0.2,0.4,0.2,0.8,0.2,1.1
					C37.5,47.2,37.4,47.4,37.4,47.4z"/>
			</g>
		</g>
		<g>
			<g>
				<path class="st10" d="M36.3,45.7c0,0,0,0-0.1-0.1c-0.1-0.1-0.2-0.1-0.4-0.3c-0.3-0.2-0.7-0.5-1.3-1c-1.1-0.8-2.5-2-3.8-3.6
					c-1.3-1.6-2.2-3.2-2.8-4.5c-0.3-0.6-0.5-1.1-0.6-1.5c-0.1-0.2-0.1-0.3-0.1-0.4c0-0.1,0-0.1,0-0.1c0,0,0,0,0.1,0.1
					c0,0.1,0.1,0.2,0.2,0.4c0.1,0.4,0.4,0.8,0.6,1.5c0.6,1.2,1.5,2.8,2.8,4.4c1.3,1.6,2.7,2.8,3.8,3.6c0.5,0.4,0.9,0.8,1.2,1
					c0.1,0.1,0.2,0.2,0.3,0.3C36.3,45.7,36.4,45.7,36.3,45.7z"/>
			</g>
		</g>
		<g>
			<g>
				<path class="st10" d="M43.4,45.7c0,0,0,0-0.1-0.1c-0.1-0.1-0.1-0.3-0.2-0.4c-0.2-0.4-0.4-0.9-0.7-1.6c-0.1-0.2-0.2-0.3-0.2-0.5
					c-0.1-0.2-0.2-0.4-0.3-0.5c-0.3-0.3-0.6-0.6-1-1c-0.7-0.7-1.5-1.4-2.3-2.1c-1.6-1.5-3-3-4.1-4c-0.5-0.5-0.9-0.9-1.2-1.2
					c-0.1-0.1-0.2-0.3-0.3-0.3c-0.1-0.1-0.1-0.1-0.1-0.1c0,0,0,0,0.1,0.1c0.1,0.1,0.2,0.2,0.3,0.3c0.3,0.3,0.7,0.7,1.3,1.2
					c1.1,1,2.5,2.4,4.1,4c0.8,0.8,1.6,1.5,2.3,2.2c0.3,0.3,0.7,0.7,1,1c0.1,0.2,0.2,0.4,0.3,0.5c0.1,0.2,0.2,0.4,0.2,0.5
					c0.3,0.7,0.5,1.2,0.7,1.6c0.1,0.2,0.1,0.3,0.2,0.4C43.4,45.7,43.4,45.7,43.4,45.7z"/>
			</g>
		</g>
	</g>
	<g>
		<g>
			<path class="st8" d="M49.3,33c-0.2-0.4-0.7-0.5-1-0.2c-0.1-0.3-0.4-0.5-0.7-0.5c-0.3,0-0.6,0.3-0.7,0.5c-0.1,0.3-0.1,0.6,0,0.9
				c-0.4-0.2-1,0.1-1.1,0.5c-0.2,0.4,0.1,1,0.6,1.1l0,0c0.1,0.6,0.6,1.1,1.2,0.9c0.6-0.2,0.8-0.9,0.5-1.5c0.4-0.2,0.7-0.4,1-0.7
				C49.4,33.8,49.5,33.4,49.3,33z"/>
		</g>
		<g>
			<g>
				<path class="st1" d="M49.4,33c-0.2-0.4-0.7-0.5-1-0.2c0,0,0,0,0.1,0c-0.1-0.4-0.7-0.6-1-0.4c-0.5,0.3-0.6,0.9-0.4,1.4
					c0,0,0,0,0,0c-0.5-0.2-1.1,0.1-1.2,0.7c0,0.3,0.1,0.5,0.2,0.7c0.1,0.1,0.2,0.2,0.3,0.2c0.1,0.1,0.1,0.3,0.2,0.4
					c0.3,0.5,0.9,0.8,1.4,0.4c0.2-0.2,0.3-0.4,0.4-0.7c0-0.1,0-0.2,0-0.4c0-0.1,0-0.1,0-0.2c0-0.1-0.1-0.1,0-0.2
					c0.4-0.2,0.7-0.4,1-0.8C49.4,33.7,49.5,33.3,49.4,33C49.3,32.9,49.3,33,49.4,33c0.3,0.9-0.6,1.4-1.2,1.8c0,0,0,0,0,0
					c0.2,0.5,0.1,1.1-0.4,1.3c-0.6,0.3-1.2-0.2-1.3-0.8c0,0,0,0,0,0c-0.4-0.1-0.7-0.7-0.6-1.1c0.2-0.4,0.7-0.6,1.1-0.4c0,0,0,0,0,0
					c-0.2-0.4-0.1-0.9,0.2-1.2c0.4-0.3,0.9-0.2,1.1,0.3c0,0,0,0,0.1,0C48.7,32.5,49.1,32.7,49.4,33C49.3,33,49.4,33,49.4,33z"/>
			</g>
		</g>
	</g>
	<g>
		<g>
			<g>
				<path class="st8" d="M41.7,63.5c0.9-0.4,1.3-1.5,1-2.3c-0.3-0.9-1.4-1.4-2.3-1l-0.3-0.3c-0.6-0.4-1.5-0.3-2,0.3
					c-0.4,0.6-0.3,1.5,0.2,2c-0.7,0.2-1.3,0.8-1.5,1.5c-0.2,0.7,0.1,1.5,0.6,1.9c0.6,0.4,1.5,0.3,2-0.3c0.3,0.6,1,1.1,1.7,1.1
					c0.7,0,1.4-0.5,1.5-1.2C42.9,64.4,42.4,63.6,41.7,63.5z"/>
			</g>
			<g>
				<g>
					<path class="st1" d="M41.7,63.5c0,0,0.2,0,0.4,0.1c0.3,0.1,0.6,0.5,0.7,1.1c0,0.3,0,0.6-0.2,0.9c-0.2,0.3-0.5,0.5-0.9,0.6
						c-0.8,0.3-1.8-0.2-2.2-1l0.1,0c-0.3,0.3-0.7,0.5-1.1,0.5c-0.4,0-0.9-0.1-1.2-0.5c-0.3-0.3-0.5-0.8-0.5-1.3c0-0.5,0.2-1,0.5-1.3
						c0.3-0.3,0.7-0.6,1-0.7l0,0.1c-0.7-0.5-0.7-1.6-0.2-2.1c0.5-0.6,1.4-0.6,2-0.2l0,0l0,0c0.1,0.1,0.2,0.2,0.3,0.3l-0.1,0
						c0.4-0.1,0.8-0.1,1.2,0c0.4,0.1,0.7,0.4,0.9,0.6c0.2,0.3,0.3,0.6,0.4,0.9c0,0.3,0,0.6-0.1,0.8c-0.2,0.5-0.5,0.8-0.7,0.9
						C41.9,63.5,41.8,63.5,41.7,63.5c0,0,0.1-0.1,0.3-0.2c0.2-0.2,0.5-0.4,0.6-0.9c0.1-0.2,0.1-0.5,0.1-0.8c0-0.3-0.1-0.6-0.4-0.8
						c-0.2-0.3-0.5-0.5-0.9-0.6c-0.4-0.1-0.8-0.1-1.1,0l0,0l0,0c-0.1-0.1-0.2-0.2-0.3-0.3l0,0c-0.5-0.4-1.3-0.3-1.8,0.2
						c-0.5,0.5-0.4,1.5,0.2,1.9l0.1,0.1l-0.1,0c-0.4,0.1-0.7,0.4-1,0.7C37.2,63.1,37,63.5,37,64c0,0.4,0.2,0.9,0.4,1.2
						c0.3,0.3,0.7,0.5,1.1,0.5c0.4,0,0.8-0.2,1-0.5l0.1-0.1l0,0.1c0.4,0.8,1.4,1.2,2.1,1c0.4-0.1,0.6-0.3,0.8-0.6
						c0.2-0.3,0.3-0.6,0.2-0.8c0-0.5-0.4-0.9-0.6-1.1C41.9,63.5,41.7,63.5,41.7,63.5z"/>
				</g>
			</g>
		</g>
	</g>
	<g>
		<g>
			<g>
				<path class="st8" d="M41.2,75.8c-0.3-0.5-0.8-1-1.4-1.1c-0.6-0.1-1.3,0.2-1.6,0.7c-0.3,0.5-0.1,1.3,0.4,1.6
					c-0.8-0.3-1.8,0.3-2,1.1c-0.2,0.9,0.3,1.8,1.1,2.2c0.8,0.4,1.8,0.2,2.5-0.3c-0.2,0.7,0.3,1.5,0.9,1.6c0.7,0.2,1.4-0.3,1.7-0.9
					c0.3-0.7,0.1-1.4-0.4-2c0.6-0.1,1.1-0.7,1.1-1.4c-0.1-0.6-0.7-1.2-1.3-1.2c0.3-0.3,0.1-0.9-0.3-1.1c-0.4-0.2-0.9,0.2-1,0.6"/>
			</g>
			<g>
				<g>
					<path class="st1" d="M40.9,75.6c0,0,0-0.1,0-0.2c0-0.1,0.1-0.3,0.3-0.4c0.1-0.1,0.2-0.1,0.4-0.1c0.1,0,0.3,0,0.4,0.2
						c0.1,0.1,0.2,0.3,0.3,0.5c0,0.2,0,0.4-0.1,0.6l0-0.1c0.5,0,1.2,0.4,1.3,1c0.2,0.7-0.3,1.5-1.1,1.6l0-0.1
						c0.3,0.4,0.5,0.8,0.5,1.4c0,0.3,0,0.5-0.2,0.8c-0.1,0.2-0.3,0.5-0.5,0.6c-0.2,0.2-0.5,0.3-0.8,0.3c-0.3,0-0.6,0-0.8-0.2
						c-0.2-0.2-0.5-0.4-0.6-0.7c-0.1-0.3-0.1-0.6,0-0.9l0.1,0.1c-0.1,0.1-0.2,0.1-0.3,0.2c-0.6,0.3-1.4,0.4-2,0.2
						c-0.7-0.2-1.2-0.8-1.3-1.4c-0.1-0.3-0.1-0.6,0-1c0.1-0.3,0.3-0.6,0.5-0.8c0.2-0.2,0.5-0.3,0.8-0.4c0.3-0.1,0.6,0,0.8,0.1l0,0.1
						c-0.4-0.2-0.6-0.7-0.6-1.1c0-0.4,0.2-0.8,0.5-1c0.3-0.2,0.6-0.3,0.9-0.4c0.3,0,0.6,0,0.8,0.1c0.5,0.2,0.7,0.5,0.9,0.7
						c0.2,0.2,0.2,0.3,0.2,0.3c0,0-0.1-0.1-0.2-0.3c-0.2-0.2-0.4-0.5-0.9-0.7c-0.2-0.1-0.5-0.1-0.8-0.1c-0.3,0-0.6,0.1-0.8,0.4
						C38.2,75.3,38,75.6,38,76c0,0.4,0.2,0.8,0.5,1l0,0.1C38.3,77,38,77,37.7,77c-0.3,0.1-0.5,0.2-0.7,0.4c-0.2,0.2-0.4,0.4-0.5,0.7
						c-0.1,0.3-0.1,0.6,0,0.9c0.2,0.6,0.6,1.1,1.3,1.3c0.6,0.2,1.3,0.1,1.9-0.2c0.1-0.1,0.2-0.1,0.3-0.2l0.2-0.1L40.1,80
						c-0.2,0.5,0.1,1.1,0.6,1.4c0.5,0.3,1.1,0.2,1.5-0.1c0.2-0.1,0.4-0.3,0.5-0.6c0.1-0.2,0.2-0.5,0.2-0.7c0-0.5-0.2-0.9-0.5-1.3
						l-0.1-0.1l0.1,0c0.4-0.1,0.7-0.3,0.8-0.6c0.2-0.3,0.3-0.6,0.2-0.9c-0.2-0.6-0.7-1-1.2-1l-0.1,0l0.1-0.1
						c0.1-0.1,0.2-0.4,0.1-0.5c0-0.2-0.1-0.3-0.2-0.4c-0.1-0.1-0.3-0.1-0.4-0.1c-0.1,0-0.3,0-0.3,0.1c-0.2,0.1-0.3,0.3-0.3,0.4
						C40.9,75.6,40.9,75.6,40.9,75.6z"/>
				</g>
			</g>
		</g>
	</g>
	<g>
		<g>
			<path class="st8" d="M41.9,49.7c0.3,0,0.5-0.3,0.5-0.5s0-0.5-0.1-0.7c-0.1-0.3-0.4-0.5-0.6-0.6c-0.3-0.1-0.6-0.1-0.8,0.1
				s-0.3,0.5-0.1,0.8l0,0.1c-0.4-0.2-0.9-0.2-1.3,0c-0.4,0.2-0.7,0.7-0.5,1.2c0.1,0.4,0.7,0.7,1.1,0.5c-0.3,0.3-0.4,0.8-0.3,1.2
				c0.1,0.4,0.6,0.8,1,0.7c0.4,0,0.8-0.5,0.7-0.9c0.5,0.2,1.1-0.1,1.2-0.6C42.6,50.5,42.3,49.9,41.9,49.7z M40.8,51.9
				c-0.1,0-0.1-0.1-0.1-0.1s0.1-0.1,0.1-0.1c0.1,0,0.1,0.1,0.1,0.1S40.9,51.9,40.8,51.9z M41.4,51.2C41.3,51.2,41.3,51.2,41.4,51.2
				c-0.1-0.1,0-0.2,0-0.2C41.4,51.1,41.4,51.1,41.4,51.2C41.4,51.2,41.4,51.2,41.4,51.2z M41.8,50c0.1,0,0.1,0.1,0.1,0.1
				s-0.1,0.1-0.1,0.1c-0.1,0-0.1-0.1-0.1-0.1S41.7,50,41.8,50z M41.8,51.1c-0.2,0-0.3-0.1-0.3-0.3c0-0.2,0.1-0.3,0.3-0.3
				c0.2,0,0.3,0.1,0.3,0.3C42.1,51,42,51.1,41.8,51.1z"/>
		</g>
	</g>
	<g>
		<path class="st3" d="M28.6,97.8c0.4-0.1,0.7-0.4,0.8-0.7c0.2-0.3,0.2-0.7,0.3-1.1c0.6,0.2,1.4-0.1,1.7-0.7
			c0.4-0.6,0.3-1.4-0.1-1.9c0.4-0.2,0.7-0.5,0.9-1c0.1-0.4,0.1-0.9-0.3-1.2c-0.3-0.3-0.9-0.4-1.2-0.2c-0.2,0.2-0.4,0.4-0.6,0.6
			c-0.2,0.2-0.5,0.3-0.7,0.1c-0.1-0.1-0.2-0.3-0.3-0.5c-0.2-0.4-0.8-0.8-1.4-0.6l0-0.7c-0.4-0.6-1-0.4-1.5,0.1
			c-0.5,0.5-0.3,1.5,0.3,1.8c-0.7,0.5-1.1,1.3-1,2.1c0.2,0.8,1,1.5,1.8,1.3c-0.2,0.5-0.3,1.1-0.1,1.6C27.5,97.5,28.1,97.9,28.6,97.8
			z M26.6,93.9c0,0.1-0.1,0.1-0.2,0c-0.1,0-0.1-0.1,0-0.2c0-0.1,0.1-0.1,0.2,0C26.6,93.8,26.6,93.8,26.6,93.9z M30.5,95.6
			c-0.1,0.2-0.4,0.3-0.6,0.1c-0.2-0.1-0.3-0.4-0.1-0.6c0.1-0.2,0.4-0.3,0.6-0.1C30.6,95.2,30.7,95.4,30.5,95.6z M31.1,95
			c0,0.1-0.1,0.1-0.2,0c-0.1,0-0.1-0.1,0-0.2c0-0.1,0.1-0.1,0.2,0C31.1,94.8,31.2,94.9,31.1,95z M26.4,90.7c0.1-0.2,0.4-0.3,0.6-0.1
			c0.2,0.1,0.3,0.4,0.1,0.6c-0.1,0.2-0.4,0.3-0.6,0.1S26.3,90.9,26.4,90.7z M26.9,92c0.1-0.1,0.2-0.1,0.3-0.1
			c0.1,0.1,0.1,0.2,0.1,0.3c-0.1,0.1-0.2,0.1-0.3,0.1C26.9,92.3,26.8,92.1,26.9,92z M30.2,94.4c0.1-0.1,0.3-0.2,0.4-0.1
			c0.1,0.1,0.2,0.3,0.1,0.4c-0.1,0.1-0.3,0.2-0.4,0.1C30.1,94.7,30.1,94.5,30.2,94.4z M26.5,92.8c0.1-0.2,0.4-0.3,0.7-0.1
			c0.2,0.1,0.3,0.4,0.1,0.7c-0.1,0.2-0.4,0.3-0.7,0.1C26.4,93.3,26.3,93.1,26.5,92.8z M25.9,93.3c0.1-0.1,0.2-0.1,0.3-0.1
			c0.1,0.1,0.1,0.2,0.1,0.3c-0.1,0.1-0.2,0.1-0.3,0.1C25.8,93.6,25.8,93.5,25.9,93.3z M25.9,93.9c0-0.1,0.1-0.1,0.2,0
			c0.1,0,0.1,0.1,0,0.2c0,0.1-0.1,0.1-0.2,0C25.8,94,25.8,93.9,25.9,93.9z M28.9,96.4c0.1-0.1,0.3-0.2,0.4-0.1
			c0.1,0.1,0.2,0.3,0.1,0.4c-0.1,0.1-0.3,0.2-0.4,0.1C28.8,96.7,28.8,96.5,28.9,96.4z M29,97c0-0.1,0.1-0.1,0.2,0
			c0.1,0,0.1,0.1,0,0.2c0,0.1-0.1,0.1-0.2,0C29,97.1,29,97,29,97z"/>
	</g>
	<g>
		<g>
			<g>
				<path class="st8" d="M36.8,51.6c-0.6-0.3-1.3-0.4-2-0.4c0.7-0.9,0.7-2.4-0.1-3.3c0.5-0.5,0.5-1.4,0.1-1.9
					c-0.5-0.5-1.3-0.7-1.9-0.3l0.1-0.4c-0.6-0.5-1.4-0.5-2-0.1c-0.6,0.4-0.9,1.2-0.8,1.9c-0.9,0-1.7,0.8-1.8,1.7
					c-0.1,0.9,0.6,1.8,1.5,1.9c-0.6,0.9-0.5,2.2,0.4,2.9s2.2,0.6,2.9-0.2c0.3,0.9,0.7,1.9,1.6,2.2c0.7,0.2,1.3-0.1,1.9-0.5
					c0.6-0.4,1.3-1,1.3-1.8C37.9,52.5,37.4,51.9,36.8,51.6z M28.6,48.5c0-0.1,0.1-0.4,0.2-0.4c0.1,0,0.2,0,0.3,0
					c0.1,0,0.1,0.1,0.2,0.2c0,0,0,0.1,0,0.1c-0.1,0.1-0.2,0.2-0.3,0.2C28.8,48.7,28.6,48.6,28.6,48.5z M29.2,49.2
					c0,0.1-0.1,0.1-0.2,0.1c-0.1,0-0.2-0.1-0.2-0.1c0-0.1,0.1-0.2,0.1-0.2c0,0,0.1,0,0.1,0C29.2,49,29.2,49.1,29.2,49.2
					C29.3,49.1,29.2,49.2,29.2,49.2z M29.5,47.9c0,0.1-0.1,0.1-0.2,0.1c-0.1,0-0.2-0.1-0.2-0.1c0-0.1,0.1-0.2,0.1-0.2
					c0,0,0.1,0,0.1,0C29.5,47.7,29.6,47.8,29.5,47.9C29.6,47.8,29.6,47.9,29.5,47.9z M36.7,52.4c0,0.1-0.1,0.1-0.2,0.1
					c-0.1,0-0.2-0.1-0.2-0.1c0-0.1,0.1-0.2,0.1-0.2c0,0,0.1,0,0.1,0C36.6,52.2,36.7,52.3,36.7,52.4C36.7,52.4,36.7,52.4,36.7,52.4z
					 M37.1,53.6c-0.2,0-0.3-0.1-0.3-0.3c0-0.2,0.1-0.4,0.3-0.4c0.1,0,0.2,0,0.3,0c0.1,0,0.2,0.1,0.2,0.2c0,0,0,0.1,0,0.1
					C37.4,53.5,37.2,53.6,37.1,53.6z"/>
			</g>
		</g>
	</g>
	<g>
		<g>
			<path class="st1" d="M33.1,45.5C33.1,45.5,33.1,45.5,33.1,45.5c-0.1-0.1-0.2-0.1-0.2-0.2l0,0c-0.1-0.1-0.3-0.1-0.6-0.2
				C32.1,45,31.8,45,31.4,45c-0.2,0-0.4,0.1-0.5,0.2c-0.2,0.1-0.3,0.3-0.4,0.5c-0.2,0.4-0.3,0.9-0.3,1.4l0,0.1l-0.1,0
				c-0.1,0-0.2,0-0.3,0c-0.1,0-0.2,0-0.3,0c-0.2,0-0.4,0.1-0.5,0.2c-0.2,0.1-0.3,0.3-0.4,0.5c-0.1,0.2-0.2,0.4-0.2,0.6
				c0,0.1,0,0.2,0,0.3c0,0.1,0,0.1,0,0.2l0,0.2c0,0.2,0.1,0.4,0.3,0.6c0.3,0.4,0.7,0.6,1.2,0.8l0.1,0l-0.1,0.1
				c-0.2,0.2-0.3,0.6-0.4,0.9c0,0.2-0.1,0.3,0,0.5c0,0.2,0.1,0.3,0.1,0.5c0.3,0.7,0.9,1.2,1.6,1.4c0.7,0.1,1.4-0.1,1.9-0.5l0.1-0.1
				l0,0.1c0.1,0.5,0.3,1,0.6,1.4c0.2,0.2,0.3,0.4,0.5,0.5c0.2,0.1,0.4,0.2,0.7,0.2c0.4,0,0.9-0.1,1.2-0.3c0.3-0.2,0.7-0.4,0.9-0.6
				c0.2-0.2,0.4-0.5,0.5-0.7c0.1-0.2,0.2-0.4,0.2-0.6c0-0.4-0.1-0.5-0.1-0.5c0,0,0,0,0.1,0.1c0,0.1,0.1,0.2,0.1,0.4
				c0,0.2-0.1,0.4-0.2,0.6c-0.1,0.2-0.3,0.5-0.5,0.7c-0.2,0.2-0.5,0.5-0.9,0.7c-0.4,0.2-0.8,0.4-1.3,0.3c-0.2,0-0.5-0.1-0.7-0.2
				c-0.2-0.1-0.4-0.3-0.6-0.5c-0.3-0.4-0.5-0.9-0.7-1.5l0.1,0c-0.5,0.5-1.3,0.7-2,0.6c-0.7-0.1-1.4-0.7-1.7-1.4
				c-0.1-0.2-0.1-0.3-0.1-0.5c0-0.2,0-0.4,0-0.5c0-0.2,0.1-0.3,0.1-0.5c0.1-0.2,0.1-0.3,0.2-0.4l0,0.1c-0.5-0.1-1-0.4-1.3-0.8
				c-0.1-0.2-0.2-0.4-0.3-0.7l0-0.2c0-0.1,0-0.1,0-0.2c0-0.1,0-0.2,0-0.3c0-0.2,0.1-0.4,0.2-0.7c0.1-0.2,0.2-0.4,0.4-0.5
				c0.2-0.1,0.4-0.2,0.6-0.3c0.1,0,0.2,0,0.3,0c0.1,0,0.2,0,0.3,0l-0.1,0.1c0-0.5,0.1-1,0.4-1.4c0.1-0.2,0.3-0.4,0.4-0.5
				C31,45,31.2,45,31.4,45c0.4,0,0.7,0,0.9,0.1c0.3,0.1,0.4,0.2,0.6,0.2l0,0l0,0C33,45.4,33.1,45.4,33.1,45.5
				C33.1,45.5,33.1,45.5,33.1,45.5z"/>
		</g>
	</g>
	<g>
		<g>
			<g>
				<g>
					<path class="st8" d="M36.8,67.2C36.4,67,36,66.9,35.7,67c0.7-0.6,0.8-1.9,0.1-2.5c0.8-0.5,1.1-1.7,0.5-2.5
						c-0.6-0.8-1.8-0.9-2.5-0.3l0.1,0.1c-0.5-0.4-1.1-0.6-1.7-0.6c-0.6,0-1.2,0.4-1.5,0.9c-0.2,0.6,0,1.3,0.6,1.5
						c-0.2,0.1-0.4,0.3-0.5,0.4c-0.6-0.1-1.4,0-1.8,0.5c-0.5,0.5-0.7,1.4-0.4,2.1c-1,0.4-1.6,1.5-1.4,2.6c0.2,1,1.2,1.8,2.3,1.8
						c-0.4,1.1,0.1,2.4,1.1,2.9c1,0.5,2.4,0.1,3-0.8c0.8,0.4,1.9,0.1,2.5-0.7c0.6-0.7,0.6-1.8,0-2.6c0.7,0,1.3-0.4,1.5-1.1
						C37.7,68.2,37.4,67.5,36.8,67.2z"/>
				</g>
			</g>
			<g>
				<g>
					<path class="st1" d="M34.5,65.1c0,0-0.4,0-1.1,0.2c-0.3,0.1-0.7,0.3-0.9,0.7c-0.3,0.3-0.5,0.8-0.5,1.3c0,0,0,0.1,0,0.1l0,0.1
						l-0.1,0c-0.5-0.2-0.9-0.1-1.3,0c-0.4,0.2-0.7,0.4-0.8,0.7c-0.2,0.3-0.2,0.5-0.3,0.7c0,0.2,0,0.3,0,0.3c0,0,0-0.1,0-0.3
						c0-0.2,0.1-0.5,0.2-0.7c0.2-0.3,0.4-0.6,0.9-0.8c0.4-0.2,0.9-0.2,1.4,0l-0.1,0.1c0,0,0-0.1,0-0.2c0.1-0.5,0.3-1,0.6-1.4
						c0.3-0.4,0.7-0.6,1-0.7c0.3-0.1,0.6-0.2,0.8-0.2C34.4,65,34.5,65.1,34.5,65.1z"/>
				</g>
			</g>
		</g>
		<g>
			<g>
				<path class="st1" d="M29.3,71.4c0,0-0.1,0-0.2,0c-0.1,0-0.3-0.1-0.4-0.1c-0.4-0.2-0.9-0.5-1.3-1.1l0,0c-0.3-0.4-0.4-0.9-0.3-1.4
					c0-0.3,0.1-0.5,0.2-0.8c0.1-0.3,0.2-0.5,0.4-0.8c0.3-0.3,0.6-0.6,0.9-0.7l0,0.1c-0.2-0.6-0.1-1.2,0.1-1.7c0.3-0.5,0.7-0.7,1-0.8
					c0.4-0.1,0.7-0.1,0.9-0.1c0.1,0,0.2,0,0.2,0.1c0.1,0,0.1,0,0.1,0c0,0-0.1,0-0.3-0.1c-0.2,0-0.5,0-0.8,0.1
					c-0.3,0.1-0.7,0.4-1,0.8c-0.2,0.4-0.3,1-0.1,1.6l0,0.1l-0.1,0c-0.3,0.2-0.6,0.4-0.9,0.7c-0.4,0.4-0.5,1-0.6,1.5
					c-0.1,0.5,0.1,1,0.3,1.3l0,0l0,0c0.4,0.6,0.8,0.9,1.2,1.1C29,71.4,29.3,71.4,29.3,71.4z"/>
			</g>
		</g>
	</g>
	<g>
		<g>
			<path class="st1" d="M35.7,67C35.7,67,35.7,67,35.7,67c0.2,0,0.2,0,0.4,0c0.2,0,0.6,0.1,1,0.4c0.2,0.1,0.3,0.3,0.5,0.6
				c0.1,0.1,0.1,0.3,0.1,0.4c0,0.1,0,0.3,0,0.5c-0.1,0.3-0.3,0.6-0.5,0.8c-0.3,0.2-0.6,0.5-1,0.5l0-0.1c0.4,0.4,0.5,1.1,0.4,1.7
				c-0.1,0.3-0.2,0.6-0.4,0.9c-0.2,0.3-0.5,0.5-0.8,0.6c-0.6,0.2-1.2,0.3-1.7,0l0.1,0c-0.2,0.5-0.6,0.8-1.1,1
				c-0.4,0.2-0.9,0.2-1.3,0.1c-0.4-0.1-0.8-0.3-1.1-0.5c-0.3-0.2-0.5-0.5-0.6-0.8c-0.3-0.6-0.3-1.1-0.3-1.4c0-0.3,0.1-0.5,0.1-0.5
				c0,0-0.1,0.2-0.1,0.5c0,0.3,0,0.9,0.3,1.4c0.1,0.3,0.3,0.6,0.6,0.8c0.3,0.2,0.6,0.4,1,0.5c0.4,0.1,0.9,0,1.3-0.1
				c0.4-0.2,0.8-0.5,1-0.9l0-0.1l0.1,0c0.5,0.2,1.1,0.2,1.6,0c0.3-0.1,0.6-0.3,0.8-0.6c0.2-0.2,0.3-0.5,0.4-0.8
				c0.2-0.6,0.1-1.2-0.3-1.6L35.9,70l0.1,0c0.3,0,0.7-0.2,0.9-0.4c0.2-0.2,0.4-0.5,0.5-0.8c0-0.1,0.1-0.3,0-0.4
				c0-0.1-0.1-0.3-0.1-0.4c-0.1-0.2-0.3-0.4-0.4-0.6c-0.3-0.3-0.7-0.4-0.9-0.4C35.8,67,35.7,67,35.7,67z"/>
		</g>
	</g>
</g>
<g>
	<g>
		<g>
			<path class="st11" d="M54.7,62.1l-0.3,0c-1.1,0.2-2.1-0.6-2.3-1.6l-0.5-2.9c-0.2-1.1,0.6-2.1,1.6-2.3l0.3,0
				c1.1-0.2,2.1,0.6,2.3,1.6l0.5,2.9C56.5,60.9,55.8,61.9,54.7,62.1z"/>
		</g>
	</g>
	<g>
		<g>
			<path class="st11" d="M54.5,55.1l-2.1,0.3l0-0.1c-0.1-0.4,0.2-0.9,0.7-0.9l0.5-0.1C54,54.3,54.4,54.6,54.5,55.1L54.5,55.1z"/>
		</g>
	</g>
	<g>
		<g>
			<rect x="54.2" y="56.1" transform="matrix(0.9872 -0.1596 0.1596 0.9872 -8.6145 9.548)" class="st3" width="1.8" height="4.6"/>
		</g>
	</g>
	<g>
		<g>
			<g>
				<path class="st7" d="M54.5,55.1c0,0-0.5,0.1-1.1,0.2c-0.6,0.1-1.1,0.1-1.1,0.1c0,0,0.5-0.1,1.1-0.2C54,55.1,54.5,55.1,54.5,55.1
					z"/>
			</g>
		</g>
	</g>
</g>
<g>
	<path class="st12" d="M60.1,59.1L60.1,59.1c-0.3,0-0.6-0.3-0.6-0.6v-1.5c0-0.3,0.3-0.6,0.6-0.6l0,0c0.3,0,0.6,0.3,0.6,0.6v1.5
		C60.6,58.9,60.4,59.1,60.1,59.1z"/>
</g>
<g>
	<path class="st12" d="M50.4,59.1L50.4,59.1c-0.3,0-0.6-0.3-0.6-0.6v-1.5c0-0.3,0.3-0.6,0.6-0.6l0,0c0.3,0,0.6,0.3,0.6,0.6v1.5
		C51,58.9,50.7,59.1,50.4,59.1z"/>
</g>
<g>
	<g>
		<path class="st12" d="M60.1,62.6h-9.7c-0.9,0-1.6-0.7-1.6-1.6v-3.6h12.9V61C61.7,61.9,61,62.6,60.1,62.6z M49.1,57.7V61
			c0,0.7,0.6,1.3,1.3,1.3h9.7c0.7,0,1.3-0.6,1.3-1.3v-3.3H49.1z"/>
	</g>
	<g>
		<rect x="49" y="58.2" class="st12" width="12.4" height="0.3"/>
	</g>
	<g>
		<rect x="49" y="59.6" class="st12" width="12.6" height="0.3"/>
	</g>
	<g>
		<rect x="49" y="61.1" class="st12" width="12.4" height="0.3"/>
	</g>
	<g>
		<g>
			<path class="st12" d="M50.2,57.6c0,1.6,0,3.1,0,4.7c0,0.2,0.3,0.2,0.3,0c0-1.6,0-3.1,0-4.7C50.5,57.4,50.2,57.4,50.2,57.6
				L50.2,57.6z"/>
		</g>
	</g>
	<g>
		<g>
			<path class="st12" d="M51.5,57.6c0,1.6,0,3.1,0,4.7c0,0.2,0.3,0.2,0.3,0c0-1.6,0-3.1,0-4.7C51.9,57.4,51.5,57.4,51.5,57.6
				L51.5,57.6z"/>
		</g>
	</g>
	<g>
		<g>
			<path class="st12" d="M52.9,57.6c0,1.6,0,3.1,0,4.7c0,0.2,0.3,0.2,0.3,0c0-1.6,0-3.1,0-4.7C53.2,57.4,52.9,57.4,52.9,57.6
				L52.9,57.6z"/>
		</g>
	</g>
	<g>
		<g>
			<path class="st12" d="M54.3,57.6c0,1.6,0,3.1,0,4.7c0,0.2,0.3,0.2,0.3,0c0-1.6,0-3.1,0-4.7C54.6,57.4,54.3,57.4,54.3,57.6
				L54.3,57.6z"/>
		</g>
	</g>
	<g>
		<g>
			<path class="st12" d="M55.7,57.6c0,1.6,0,3.1,0,4.7c0,0.2,0.3,0.2,0.3,0c0-1.6,0-3.1,0-4.7C56,57.4,55.7,57.4,55.7,57.6
				L55.7,57.6z"/>
		</g>
	</g>
	<g>
		<g>
			<path class="st12" d="M57.1,57.6c0,1.6,0,3.1,0,4.7c0,0.2,0.3,0.2,0.3,0c0-1.6,0-3.1,0-4.7C57.4,57.4,57.1,57.4,57.1,57.6
				L57.1,57.6z"/>
		</g>
	</g>
	<g>
		<g>
			<path class="st12" d="M58.5,57.6c0,1.6,0,3.1,0,4.7c0,0.2,0.3,0.2,0.3,0c0-1.6,0-3.1,0-4.7C58.8,57.4,58.5,57.4,58.5,57.6
				L58.5,57.6z"/>
		</g>
	</g>
	<g>
		<g>
			<path class="st12" d="M59.9,57.6c0,1.6,0,3.1,0,4.7c0,0.2,0.3,0.2,0.3,0c0-1.6,0-3.1,0-4.7C60.2,57.4,59.9,57.4,59.9,57.6
				L59.9,57.6z"/>
		</g>
	</g>
</g>
<g>
	<path class="st13" d="M83,73.1L83,73.1c-0.3,0-0.5-0.2-0.5-0.4V31.2c0-0.2,0.2-0.4,0.4-0.4H83c0.2,0,0.4,0.2,0.4,0.4v41.4
		C83.5,72.9,83.3,73.1,83,73.1z"/>
</g>
<g>
	<path class="st13" d="M105,73.1L105,73.1c-0.3,0-0.5-0.2-0.5-0.4V31.2c0-0.2,0.2-0.4,0.4-0.4h0.1c0.2,0,0.4,0.2,0.4,0.4v41.4
		C105.5,72.9,105.3,73.1,105,73.1z"/>
</g>
<g>
	<rect x="83" y="34.8" class="st13" width="22" height="0.8"/>
</g>
<g>
	<rect x="83" y="41.4" class="st13" width="22" height="0.8"/>
</g>
<g>
	<rect x="83" y="48" class="st13" width="22" height="0.8"/>
</g>
<g>
	<path class="st11" d="M87.2,54c0,0.2,0,24.6,0,24.6h15.2V54H87.2z"/>
</g>
<g>
	<path class="st14" d="M87.2,54c0,0.2,0,24.6,0,24.6h15.2V54H87.2z"/>
</g>
<g>
	<rect x="83" y="54.6" class="st13" width="22" height="0.8"/>
</g>
<g>
	<rect x="83" y="61.2" class="st13" width="22" height="0.8"/>
</g>
<g>
	<rect x="83" y="67.9" class="st13" width="22" height="0.8"/>
</g>
<g>
	<path class="st6" d="M85.9,54c0,0.2,0,20.4,0,20.4h15.2V54H85.9z"/>
</g>
<g>
	<g>
		<path class="st7" d="M88,74.1c0,0,0-0.2,0.1-0.4c0.1-0.2,0.2-0.3,0.2-0.3c0,0,0,0.2-0.1,0.4C88.2,74,88.1,74.1,88,74.1z"/>
	</g>
</g>
<g>
	<g>
		<path class="st7" d="M89,73.9c0,0,0-0.1,0-0.3c0-0.2,0.1-0.3,0.1-0.3c0,0,0,0.1,0,0.3C89.1,73.8,89.1,73.9,89,73.9z"/>
	</g>
</g>
<g>
	<g>
		<path class="st7" d="M89.8,74c0,0-0.1-0.2-0.2-0.4c-0.1-0.2-0.2-0.4-0.2-0.4c0,0,0.2,0.1,0.3,0.3C89.8,73.8,89.9,74,89.8,74z"/>
	</g>
</g>
<g>
	<g>
		<path class="st7" d="M94.5,63.2c0,0-0.1-0.2-0.1-0.5c0-0.3,0-0.5,0.1-0.5c0,0,0,0.2,0.1,0.5C94.5,63,94.5,63.2,94.5,63.2z"/>
	</g>
</g>
<g>
	<g>
		<path class="st7" d="M95.1,62.9c0,0-0.1-0.2-0.1-0.4c0-0.2,0-0.4,0-0.4c0,0,0.1,0.2,0.1,0.4C95.1,62.7,95.1,62.9,95.1,62.9z"/>
	</g>
</g>
<g>
	<g>
		<path class="st7" d="M95.9,62.7c0,0-0.1-0.1-0.2-0.2c-0.1-0.1-0.1-0.3,0-0.3c0,0,0.1,0.1,0.2,0.2C95.9,62.6,96,62.7,95.9,62.7z"/>
	</g>
</g>
<g>
	<g>
		<path class="st7" d="M96.5,69.1c0,0,0-0.2,0-0.3c0-0.2,0.1-0.3,0.1-0.3c0,0,0,0.2,0,0.3C96.6,69,96.5,69.1,96.5,69.1z"/>
	</g>
</g>
<g>
	<g>
		<path class="st7" d="M97.5,69.1c0,0-0.1-0.1-0.2-0.3c0-0.2,0-0.3,0-0.3c0,0,0.1,0.1,0.1,0.3C97.5,68.9,97.5,69,97.5,69.1z"/>
	</g>
</g>
<g>
	<g>
		<path class="st7" d="M98.3,69.1c0,0-0.1-0.1-0.2-0.2c-0.1-0.1-0.2-0.2-0.2-0.2c0,0,0.2,0,0.3,0.1C98.3,69,98.3,69.1,98.3,69.1z"/>
	</g>
</g>
<g>
	<g>
		<path class="st7" d="M88.7,57.5c0,0,0-0.2,0.1-0.4c0.1-0.2,0.1-0.4,0.1-0.4c0,0,0.1,0.2,0,0.5C88.8,57.4,88.7,57.5,88.7,57.5z"/>
	</g>
</g>
<g>
	<g>
		<path class="st7" d="M89.3,57.4c0,0,0-0.2,0-0.4c0.1-0.2,0.2-0.3,0.2-0.3c0,0,0,0.2-0.1,0.4C89.4,57.3,89.3,57.4,89.3,57.4z"/>
	</g>
</g>
<g>
	<g>
		<path class="st7" d="M89.9,57.5c0,0-0.1-0.1-0.1-0.3c0-0.2,0-0.3,0.1-0.3c0,0,0.1,0.1,0.1,0.3C90,57.4,90,57.5,89.9,57.5z"/>
	</g>
</g>
<g>
	<g>
		<path class="st7" d="M96.8,74.6c0,0-0.1-0.1-0.1-0.3c0-0.2,0-0.3,0.1-0.3s0.1,0.1,0.1,0.3C96.9,74.5,96.9,74.6,96.8,74.6z"/>
	</g>
</g>
<g>
	<g>
		<path class="st7" d="M97.4,74.9c0,0-0.1-0.2-0.1-0.4c0-0.2,0-0.4,0-0.4c0,0,0.1,0.2,0.1,0.4C97.4,74.8,97.4,74.9,97.4,74.9z"/>
	</g>
</g>
<g>
	<g>
		<path class="st7" d="M98.4,75.1c0,0-0.1-0.2-0.2-0.4c-0.1-0.2-0.1-0.4-0.1-0.4c0,0,0.1,0.2,0.2,0.4C98.4,74.9,98.5,75.1,98.4,75.1
			z"/>
	</g>
</g>
<g>
	<g>
		<path class="st7" d="M95.4,53.8c0,0,0.1,0.1,0.2,0.4c0.1,0.2,0.1,0.4,0.1,0.4c0,0-0.1-0.1-0.2-0.4C95.4,53.9,95.4,53.8,95.4,53.8z
			"/>
	</g>
</g>
<g>
	<g>
		<path class="st7" d="M96.1,54c0,0,0,0.2,0,0.5c0,0.2,0,0.4-0.1,0.5c0,0-0.1-0.2-0.1-0.5C96,54.2,96,54,96.1,54z"/>
	</g>
</g>
<g>
	<g>
		<path class="st7" d="M97,53.7c0,0,0,0.3-0.1,0.5c-0.1,0.3-0.2,0.5-0.2,0.5c0,0,0-0.3,0.1-0.5C96.9,53.9,97,53.7,97,53.7z"/>
	</g>
</g>
<g>
	<g>
		<g>
			<path class="st7" d="M19.6,109v-2.2c0-0.1,0.1-0.3,0.3-0.3h0.1c0.1,0,0.3,0.1,0.3,0.3v0.1h1.6v0.6h-1.6v1.5H19.6z"/>
		</g>
	</g>
	<g>
		<g>
			<path class="st12" d="M20,116.4h-0.3c-1.1,0-2-0.9-2-2v-2.9c0-1.1,0.9-2,2-2H20c1.1,0,2,0.9,2,2v2.9
				C22,115.5,21.1,116.4,20,116.4z"/>
		</g>
	</g>
	<g>
		<g>
			<path class="st12" d="M21,109.5h-2.1v-0.1c0-0.4,0.4-0.8,0.8-0.8h0.5C20.6,108.6,21,109,21,109.5L21,109.5z"/>
		</g>
	</g>
	<g>
		<g>
			<rect x="20.2" y="110.6" class="st3" width="1.8" height="4.6"/>
		</g>
	</g>
	<g>
		<g>
			<g>
				<path class="st7" d="M21,109.5c0,0-0.5,0.1-1.1,0.1c-0.6,0-1.1,0-1.1-0.1c0,0,0.5-0.1,1.1-0.1C20.5,109.4,21,109.4,21,109.5z"/>
			</g>
		</g>
	</g>
	<g>
		<g>
			<g>
				<path class="st3" d="M18,114c0,0-0.1-0.9-0.1-2c0-1.1,0-2,0.1-2c0,0,0.1,0.9,0.1,2C18.1,113.1,18,114,18,114z"/>
			</g>
		</g>
	</g>
</g>
<g>
	<rect x="23.8" y="111.7" class="st12" width="4.7" height="4.7"/>
</g>
<g>
	<g>
		<path class="st12" d="M15.2,55.8L15.2,55.8c0,1.4-0.1,2.7-0.1,4.1c0.6-0.5,1-1.3,1-2.1C16.2,57.1,15.8,56.4,15.2,55.8z"/>
	</g>
	<g>
		<polygon class="st12" points="15.9,57.5 17.5,56.8 18.3,57.5 18.3,58.6 17.6,59.1 15.8,58.4 		"/>
	</g>
	<g>
		<g>
			<path class="st1" d="M17.5,56.8c0,0.8,0,1.5,0,2.3"/>
		</g>
		<g>
			<g>
				<path class="st7" d="M17.5,59.1c0,0-0.1-0.5-0.1-1.1c0-0.6,0-1.1,0.1-1.1c0,0,0.1,0.5,0.1,1.1C17.6,58.6,17.5,59.1,17.5,59.1z"
					/>
			</g>
		</g>
	</g>
</g>
<g>
	<g>
		<path class="st12" d="M15.2,50.1L15.2,50.1c0,1.4-0.1,2.7-0.1,4.1c0.6-0.5,1-1.3,1-2.1C16.2,51.3,15.8,50.6,15.2,50.1z"/>
	</g>
	<g>
		<polygon class="st12" points="15.9,51.7 17.5,51.1 18.3,51.7 18.3,52.8 17.6,53.3 15.8,52.6 		"/>
	</g>
	<g>
		<g>
			<path class="st1" d="M17.5,51.1c0,0.8,0,1.5,0,2.3"/>
		</g>
		<g>
			<g>
				<path class="st7" d="M17.5,53.4c0,0-0.1-0.5-0.1-1.1c0-0.6,0-1.1,0.1-1.1c0,0,0.1,0.5,0.1,1.1C17.6,52.9,17.5,53.4,17.5,53.4z"
					/>
			</g>
		</g>
	</g>
</g>
<g>
	<g>
		<path class="st1" d="M36,13.5H15.2h-0.6c-0.3,0-0.5,0.2-0.5,0.5v0.6v101.9h1.1V14.6H36v3.2h1.1v-3.2v0C37.1,14,36.6,13.5,36,13.5
			L36,13.5z"/>
	</g>
	<g>
		<g>
			<path class="st7" d="M36,13.5C36,13.5,36.1,13.5,36,13.5c0.1,0,0.2,0,0.3,0c0.2,0.1,0.5,0.2,0.7,0.6c0,0.1,0.1,0.2,0.1,0.3
				c0,0.1,0,0.2,0,0.4c0,0.3,0,0.5,0,0.8c0,0.6,0,1.3,0,2.1l0,0l0,0c-0.3,0-0.7,0-1.1,0l0,0l0,0c0-0.9,0-2,0-3.2l0,0
				c-5,0-12.1,0-20.8,0l0,0c0,23.2,0,58.9,0,98.8c0,1.1,0,2.1,0,3.1v0.1h-0.1c-0.4,0-0.8,0-1.1,0H14l0-0.1c0-34.6,0-65.8,0-88.3
				c0-2.8,0-5.5,0-8c0-1.3,0-2.5,0-3.7c0-0.6,0-1.2,0-1.8c0-0.1,0-0.3,0-0.4l0-0.2c0-0.1,0-0.2,0-0.2c0.1-0.1,0.2-0.3,0.3-0.3
				c0.1-0.1,0.3,0,0.4,0c4.5,0,8.3,0,11.4,0c3.1,0,5.6,0,7.2,0c0.8,0,1.5,0,1.9,0C35.8,13.5,36,13.5,36,13.5s-0.2,0-0.6,0
				c-0.4,0-1.1,0-1.9,0c-1.7,0-4.1,0-7.2,0c-3.1,0-7,0-11.4,0c-0.1,0-0.3,0-0.4,0c-0.1,0.1-0.2,0.2-0.3,0.3c-0.1,0.1,0,0.3,0,0.4
				c0,0.1,0,0.3,0,0.4c0,0.6,0,1.2,0,1.8c0,1.2,0,2.4,0,3.7c0,2.5,0,5.2,0,8c0,22.5,0,53.7,0,88.3l-0.1-0.1c0.4,0,0.7,0,1.1,0
				l-0.1,0.1c0-1,0-2,0-3.1c0-39.9,0-75.6,0-98.8l0,0l0,0c8.7,0,15.8,0,20.8,0h0l0,0c0,1.2,0,2.3,0,3.2l0,0c0.4,0,0.7,0,1.1,0l0,0
				c0-0.8,0-1.5,0-2.1c0-0.3,0-0.6,0-0.8c0-0.1,0-0.3,0-0.4c0-0.1,0-0.2-0.1-0.3c-0.2-0.4-0.5-0.5-0.7-0.6
				C36.2,13.5,36.2,13.5,36,13.5C36.1,13.5,36,13.5,36,13.5z"/>
		</g>
	</g>
</g>
<g>
	<g>
		<rect x="30.2" y="17.7" class="st1" width="13.4" height="1.1"/>
	</g>
	<g>
		<g>
			<path class="st7" d="M43.6,18.8C43.6,18.8,43.6,18.8,43.6,18.8c0-0.1,0-0.2,0-0.3c0-0.2,0-0.4,0-0.8l0,0c-2.1,0-7.3,0-13.4,0h0
				c-0.1,0.1,0.1-0.1,0.1-0.1v0v0v0v0v0v0v0v0.1l0,0.1c0,0.1,0,0.2,0,0.3c0,0.2,0,0.3,0,0.5l-0.1-0.1c3.7,0,7.1,0,9.5,0
				c1.2,0,2.2,0,2.9,0c0.3,0,0.6,0,0.8,0C43.4,18.8,43.4,18.8,43.6,18.8C43.5,18.8,43.6,18.8,43.6,18.8
				C43.6,18.8,43.5,18.8,43.6,18.8c-0.1,0-0.2,0-0.3,0c-0.2,0-0.4,0-0.8,0c-0.7,0-1.6,0-2.8,0c-2.4,0-5.8,0-9.5,0l-0.1,0l0-0.1
				c0-0.2,0-0.3,0-0.5c0-0.1,0-0.2,0-0.3v-0.1v-0.1v0v0v0v0v0v0v0c0,0,0.1-0.1,0.1-0.1h0c6.1,0,11.3,0,13.4,0l0,0l0,0
				c0,0.3,0,0.6,0,0.8C43.6,18.6,43.6,18.7,43.6,18.8C43.6,18.8,43.6,18.8,43.6,18.8z"/>
		</g>
	</g>
</g>
<g>
	<g>
		<g>
			<path class="st7" d="M46.4,40.9c0,0-0.1-0.4-0.1-0.8c0-0.4,0-0.8,0.1-0.8c0,0,0.1,0.4,0.1,0.8C46.5,40.5,46.5,40.9,46.4,40.9z"/>
		</g>
	</g>
	<g>
		<g>
			<path class="st7" d="M36.8,22.5c0,0-0.1-0.4-0.1-0.8c0-0.5,0-0.8,0.1-0.8c0,0,0.1,0.4,0.1,0.8C36.8,22.1,36.8,22.5,36.8,22.5z"/>
		</g>
	</g>
	<g>
		<g>
			<path class="st7" d="M44.9,44.8c0,0-0.1-0.7-0.1-1.5c0-0.8,0-1.5,0.1-1.5c0,0,0.1,0.7,0.1,1.5C45,44.1,44.9,44.8,44.9,44.8z"/>
		</g>
	</g>
	<g>
		<g>
			<path class="st7" d="M45.4,54.6c0,0-0.1-0.7-0.1-1.5c0-0.8,0-1.5,0.1-1.5c0,0,0.1,0.7,0.1,1.5C45.5,53.9,45.4,54.6,45.4,54.6z"/>
		</g>
	</g>
	<g>
		<g>
			<path class="st7" d="M42.6,59c0,0-0.1-0.5-0.1-1.2c0-0.6,0-1.2,0.1-1.2s0.1,0.5,0.1,1.2C42.7,58.5,42.6,59,42.6,59z"/>
		</g>
	</g>
	<g>
		<g>
			<path class="st7" d="M28.9,56.8c0,0-0.1-0.4-0.1-0.9c0-0.5,0-0.9,0.1-0.9s0.1,0.4,0.1,0.9C28.9,56.4,28.9,56.8,28.9,56.8z"/>
		</g>
	</g>
	<g>
		<g>
			<path class="st7" d="M29.1,42.6c0,0-0.1-0.6-0.1-1.3c0-0.7,0-1.3,0.1-1.3s0.1,0.6,0.1,1.3C29.1,42,29.1,42.6,29.1,42.6z"/>
		</g>
	</g>
	<g>
		<g>
			<path class="st7" d="M31.1,45.1c0,0-0.1-0.6-0.1-1.4c0-0.8,0-1.4,0.1-1.4s0.1,0.6,0.1,1.4C31.2,44.4,31.1,45.1,31.1,45.1z"/>
		</g>
	</g>
	<g>
		<g>
			<path class="st7" d="M30.7,22.9c0,0-0.1-0.5-0.1-1.1c0-0.6,0-1.1,0.1-1.1c0,0,0.1,0.5,0.1,1.1C30.8,22.4,30.8,22.9,30.7,22.9z"/>
		</g>
	</g>
	<g>
		<g>
			<path class="st7" d="M32.9,24.2c0,0-0.1-0.4-0.1-0.9c0-0.5,0-0.9,0.1-0.9c0,0,0.1,0.4,0.1,0.9C32.9,23.9,32.9,24.2,32.9,24.2z"/>
		</g>
	</g>
	<g>
		<g>
			<path class="st7" d="M30.9,28.6c0,0-0.1-0.3-0.1-0.6c0-0.3,0-0.6,0.1-0.6c0,0,0.1,0.3,0.1,0.6C30.9,28.4,30.9,28.6,30.9,28.6z"/>
		</g>
	</g>
	<g>
		<g>
			<path class="st7" d="M34.2,27.6c0,0-0.1-0.4-0.1-0.9c0-0.5,0-0.9,0.1-0.9c0,0,0.1,0.4,0.1,0.9C34.3,27.2,34.3,27.6,34.2,27.6z"/>
		</g>
	</g>
	<g>
		<g>
			<path class="st7" d="M39.6,23.7c0,0-0.1-0.4-0.1-0.8c0-0.5,0-0.8,0.1-0.8c0,0,0.1,0.4,0.1,0.8C39.7,23.3,39.6,23.7,39.6,23.7z"/>
		</g>
	</g>
	<g>
		<g>
			<path class="st7" d="M42.2,23c0,0-0.1-0.5-0.1-1c0-0.6,0-1,0.1-1s0.1,0.5,0.1,1C42.3,22.5,42.2,23,42.2,23z"/>
		</g>
	</g>
</g>
<g>
	<g>
		<path class="st6" d="M66.9,14.8c-0.8-0.6-2.4,0.2-3,1c-0.6,0.8-0.6,1.9-0.7,2.9c-0.1,2-0.2,4.1,0.3,6.1c0.2,0.9,0.5,1.8,0.4,2.7
			c-0.1,1.1-0.7,2.2-0.9,3.3c-0.3,1.7,0.5,3.5,0.6,5.2c0.1,1.7-0.3,3.3-0.5,5c-0.2,2.1-0.1,4.3,0.4,6.4c0.9,0.2,2,0.3,2.4-0.5
			c0.1-0.2,0.1-0.4,0.1-0.6c0.6-6.2,1-12.3,1-18.5C67.1,23.4,67,19.1,66.9,14.8z"/>
	</g>
	<g>
		<g>
			<path class="st6" d="M67.4,15.4c0,0-0.1,0-0.3,0c-0.2,0-0.6,0-0.9,0.3c-0.3,0.2-0.7,0.6-0.9,1.2c-0.2,0.6-0.2,1.3-0.2,2
				c0.1,1.5,0.3,3.3,0.2,5.3c0,1,0,2-0.1,3.1c0,0.5-0.1,1.1-0.2,1.6c-0.1,0.6-0.2,1.1-0.3,1.7c-0.2,1.1-0.1,2.3,0,3.3
				c0.1,1.1,0.2,2.1,0.2,3.1c0.1,2,0,3.8-0.1,5.3c-0.1,1.5-0.2,2.7-0.3,3.6c0,0.4-0.1,0.7-0.1,1c0,0.1,0,0.2,0,0.3
				c0,0.1,0,0.1,0,0.1c0,0,0,0,0-0.1c0-0.1,0-0.1,0-0.3c0-0.2,0-0.6,0.1-1c0.1-0.8,0.2-2.1,0.3-3.6c0.1-1.5,0.2-3.3,0.1-5.3
				c0-1-0.1-2-0.2-3.1c-0.1-1.1-0.2-2.2,0-3.4c0.1-0.6,0.2-1.1,0.3-1.7c0.1-0.5,0.2-1.1,0.2-1.6c0.1-1.1,0.1-2.1,0.1-3.1
				c0-2-0.1-3.8-0.2-5.3c-0.1-0.8,0-1.5,0.2-2c0.2-0.6,0.6-1,1-1.2c0.4-0.2,0.7-0.3,0.9-0.2C67.2,15.4,67.3,15.4,67.4,15.4
				C67.4,15.4,67.4,15.4,67.4,15.4z"/>
		</g>
	</g>
	<g>
		<g>
			<path class="st6" d="M63.2,43.2c0,0-0.2,0-0.3,0c-0.2,0-0.3,0-0.3-0.1c0,0,0.1-0.1,0.3-0.1C63.1,43.1,63.2,43.1,63.2,43.2z"/>
		</g>
	</g>
	<g>
		<g>
			<path class="st6" d="M63.3,42.3c0,0-0.2,0-0.4-0.1c-0.2-0.1-0.3-0.2-0.3-0.3c0,0,0.2,0.1,0.4,0.1C63.2,42.2,63.3,42.3,63.3,42.3z
				"/>
		</g>
	</g>
	<g>
		<g>
			<path class="st6" d="M63.4,40.5c0,0-0.1,0-0.3-0.1c-0.1-0.1-0.2-0.2-0.2-0.2c0,0,0.1,0,0.3,0.1C63.4,40.3,63.4,40.4,63.4,40.5z"
				/>
		</g>
	</g>
	<g>
		<g>
			<path class="st6" d="M63.6,24c0,0-0.1,0.1-0.3,0.2c-0.2,0-0.4,0-0.4,0c0,0,0.2,0,0.3-0.1C63.4,24,63.6,24,63.6,24z"/>
		</g>
	</g>
	<g>
		<g>
			<path class="st6" d="M63.4,23.1c0,0-0.2,0-0.4-0.1c-0.2-0.1-0.4-0.2-0.4-0.2c0,0,0.2,0,0.4,0.1C63.3,23,63.4,23.1,63.4,23.1z"/>
		</g>
	</g>
	<g>
		<g>
			<path class="st6" d="M63.5,22.1c0,0-0.2,0-0.4-0.2c-0.2-0.1-0.4-0.3-0.4-0.3c0,0,0.2,0,0.4,0.2C63.4,22,63.6,22.1,63.5,22.1z"/>
		</g>
	</g>
</g>
<g>
	<rect x="65.8" y="16.2" class="st13" width="1.9" height="100.3"/>
</g>
<g>
	<path class="st6" d="M70.3,55c-0.1-2.4-0.3-4.7-0.6-7.1c-0.3-2-0.8-4-0.9-6c-0.1-2.1,0.1-4.2,0.3-6.3c0.4-4.8,0.6-9.6,0.5-14.4
		c0-1.5-0.1-3.1-1-4.4c-0.8-1.1-0.4-1.4-1.6-2l0.2,55.4c0.5,0.2,1,0.3,1.6,0.3c0.6-2.7,1.2-5.3,1.5-8C70.4,59.9,70.4,57.5,70.3,55z"
		/>
</g>
<g>
	<g>
		<path class="st7" d="M69.9,30.8c0,0-0.2,0.2-0.6,0.4c-0.4,0.2-0.7,0.2-0.7,0.2c0,0,0.3-0.2,0.6-0.3C69.6,30.9,69.9,30.7,69.9,30.8
			z"/>
	</g>
</g>
<g>
	<g>
		<path class="st7" d="M70.2,29.5c0,0-0.2,0.1-0.5,0.2c-0.3,0-0.5,0-0.5,0c0,0,0.2-0.1,0.5-0.1C69.9,29.5,70.1,29.5,70.2,29.5z"/>
	</g>
</g>
<g>
	<g>
		<path class="st7" d="M69.8,28.2c0,0-0.2,0-0.4,0c-0.2,0-0.3-0.1-0.3-0.1c0,0,0.2,0,0.4,0C69.7,28.1,69.8,28.2,69.8,28.2z"/>
	</g>
</g>
<g>
	<g>
		<path class="st7" d="M69.5,20.1c0,0-0.1,0.1-0.2,0.2c-0.1,0.1-0.3,0.1-0.3,0.1c0,0,0.1-0.1,0.2-0.2C69.3,20.1,69.4,20.1,69.5,20.1
			z"/>
	</g>
</g>
<g>
	<g>
		<path class="st7" d="M69.8,21c0,0-0.2,0.1-0.4,0.2c-0.2,0.1-0.4,0.2-0.4,0.1c0,0,0.1-0.2,0.4-0.2C69.6,20.9,69.8,20.9,69.8,21z"/>
	</g>
</g>
<g>
	<g>
		<path class="st7" d="M69.7,48.2c0,0-0.1,0-0.3,0c-0.1,0-0.3-0.1-0.2-0.1c0,0,0.1,0,0.3,0C69.6,48.1,69.7,48.2,69.7,48.2z"/>
	</g>
</g>
<g>
	<g>
		<path class="st7" d="M69.9,49c0,0-0.2,0-0.4-0.1c-0.2-0.1-0.4-0.1-0.4-0.1c0,0,0.2-0.1,0.4,0C69.8,48.9,70,49,69.9,49z"/>
	</g>
</g>
<g>
	<g>
		<path class="st7" d="M70.1,49.5c0,0-0.2,0.1-0.4,0.1c-0.2,0-0.4,0-0.4-0.1c0,0,0.2,0,0.4-0.1C69.9,49.5,70.1,49.5,70.1,49.5z"/>
	</g>
</g>
</svg>
