<?xml version="1.0" encoding="utf-8"?>
<!-- Generator: Adobe Illustrator 24.1.1, SVG Export Plug-In . SVG Version: 6.00 Build 0)  -->
<svg version="1.1" id="CLOUD" xmlns="http://www.w3.org/2000/svg" xmlns:xlink="http://www.w3.org/1999/xlink" x="0px" y="0px"
	 viewBox="0 0 500 500" style="enable-background:new 0 0 500 500;" xml:space="preserve">
<style type="text/css">
	.st0{fill:#F6F8F9;}
	.st1{fill:#29292C;}
	.st2{fill:#515154;}
	.st3{fill:#FFEABB;}
	.st4{fill:#9AB3DA;}
	.st5{fill:#159BBA;}
	.st6{fill:#0B7D98;}
	.st7{fill:#38B9CE;}
	.st8{fill:#86EFFA;}
	.st9{fill:#5BD1DD;}
	.st10{fill:#FFFFFF;}
</style>
<path class="st0" d="M38,253.8c-3.1-6.6-0.2-14.5,6.4-17.5c3.2-1.5,6.8-1.6,10-0.5c11.8,3.9,11.5,14.1,11.5,14.1s12.5-3.8,18.7,7
	c6.2,10.8-11.3,20.1-24.4,13.2c0,0-27,9.5-29-5.1C29.9,255.6,38,253.8,38,253.8z"/>
<path class="st0" d="M391.3,141.5c-18-3-17,15-17,15s-16.3,7.3-7,19.5s31.5,2.8,31.5,2.8s8.5,4.3,18,3.5s13.5-3.5,13.5-3.5
	s15,7.5,25.8,2.8s7.3-29.5-13.5-28.8c0,0-2-25.3-23.8-29S391.3,141.5,391.3,141.5z"/>
<path class="st1" d="M138.1,324.5c0,0-23.1-20.4-28.9-25.3s0.6-14.1,5.8-12.4s34.2,20.2,35.6,22.9s-2.5,12.3-5.9,14.5
	C142.8,325.6,140.2,325.7,138.1,324.5z"/>
<path class="st2" d="M138.5,321.3c-0.1,0-0.2,0-0.3-0.1l-1.9-1.5l0,0c-5.2-5.4-12.6-10.9-17.5-14.5c-5.2-3.8-5.6-4.2-5.3-4.8
	c0-0.1,0.1-0.2,0.2-0.4c0.6-1.6,1.6-3,3.1-4c0.1-0.1,0.3-0.1,0.4,0c14.8,8.5,25.6,21.3,25.7,21.5c0.1,0.2,0.1,0.4,0,0.6c0,0,0,0,0,0
	l-4,3.2C138.7,321.3,138.6,321.4,138.5,321.3z M136.9,319.1l1.6,1.3l3.4-2.7c-1.8-2-11.8-13.1-25-20.8c-1.2,0.9-2.1,2.1-2.6,3.5
	l-0.1,0.3c1.6,1.4,3.3,2.7,5,3.9C124.2,308.2,131.7,313.7,136.9,319.1z"/>
<path class="st3" d="M151.5,334l-9.8,3.5l-2.7-8.3l-3.3-10.1c2.6-4,7.1-1.9,7.1-1.9l6.6,13L151.5,334z"/>
<path class="st1" d="M151.5,334l-9.8,3.5l-2.7-8.3c3.5-0.3,7.1,0,10.5,0.9L151.5,334z"/>
<path class="st4" d="M139.6,353l-4-12.5c0,0,5.3-9.1,13-9.1s10.4,2.1,10.4,2.1l5.1,11.2c-2.6,4-6.8,6.6-11.5,7.4
	C148.3,352.9,144,353.2,139.6,353z"/>
<path class="st5" d="M326.5,390.8c0,0-6.6,8.2-16,17.9c-2.1,2.2-4.4,4.5-6.8,6.8c-8.9,8.5-92.2,37.3-115.9,29.4
	c-0.7-0.2-1.4-0.5-2-0.8c-9.5-4.9-19.5-25.1-27.5-45.4c-9.3-23.4-15.8-46.9-15.8-46.9s4.6-12,17.6-7.7c0,0,18.4,26.9,31.6,44.1
	c5.4,7,10,12.5,12,13.7c2.8,1.6,13.9-2.5,26.3-8.1c18.8-8.5,40.6-20.4,40.6-20.4l11.3,3.5L326.5,390.8z"/>
<path class="st6" d="M326.5,390.8c0,0-6.6,8.2-16,17.9c-19-9.9-36.5-29.9-36.5-29.9s3-0.8,7.9-2L326.5,390.8z"/>
<path class="st6" d="M230,393.7l-42.2,51.1c-0.7-0.2-1.4-0.5-2-0.8c-9.5-4.9-19.5-25.1-27.5-45.4l33.4-10.5c5.4,7,10,12.5,12,13.7
	C206.5,403.5,217.6,399.3,230,393.7z"/>
<path class="st7" d="M303.4,410.7c-0.1,0-0.3-0.1-0.4-0.2c-4.3-7.4,4.5-14.5,4.6-14.6c0.2-0.1,0.4-0.1,0.6,0.1
	c0.1,0.2,0.1,0.4-0.1,0.5c-0.1,0.1-8.3,6.7-4.4,13.5c0.1,0.2,0.1,0.4-0.1,0.6C303.5,410.7,303.5,410.7,303.4,410.7z"/>
<path class="st7" d="M265,409.7c-4.9,0-10.4-2.5-10.7-2.6c-0.2-0.1-0.3-0.3-0.2-0.5c0.1-0.2,0.3-0.3,0.5-0.2l0,0
	c0.1,0,7.9,3.5,13,2.2c7.9-2.1,29-13.7,29.2-13.8c0.2-0.1,0.4,0,0.6,0.2s0,0.4-0.2,0.6l0,0c-0.9,0.5-21.4,11.8-29.4,13.9
	C267,409.6,266,409.7,265,409.7z"/>
<path class="st7" d="M201.1,421.1L201.1,421.1c-12.2-2.5-40-51.4-49-70.4c-0.1-0.2,0-0.4,0.2-0.6s0.4,0,0.6,0.2c0,0,0,0,0,0
	c10.7,22.6,37.5,67.7,48.3,69.9c0.2,0.1,0.3,0.3,0.3,0.5C201.4,421,201.2,421.1,201.1,421.1z"/>
<path class="st1" d="M104.4,318.1c0,0-28.2-12.6-35.1-15.5s-3.7-13.6,1.9-13.5s38.7,9,40.8,11.2s1.3,12.5-1.3,15.6
	C109.2,317.7,106.8,318.6,104.4,318.1z"/>
<path class="st2" d="M103.7,314.9h-0.2l-2.3-0.9l0,0c-6.5-3.6-15.3-6.6-21.1-8.6c-6.1-2.1-6.6-2.4-6.5-3c0-0.1,0-0.3,0-0.4
	c0.1-1.7,0.7-3.4,1.8-4.7c0.1-0.1,0.3-0.2,0.4-0.1c16.6,3.7,30.8,12.7,31,12.8c0.2,0.1,0.2,0.4,0.1,0.6c0,0,0,0,0,0l-2.9,4.2
	C104,314.9,103.9,314.9,103.7,314.9z M101.6,313.2l1.9,0.8l2.4-3.6c-2.3-1.4-15.2-9-30.1-12.4c-0.9,1.2-1.4,2.6-1.4,4
	c0,0.1,0,0.2,0,0.3c2,0.9,4,1.6,6,2.3C86.3,306.6,95,309.6,101.6,313.2L101.6,313.2z"/>
<path class="st3" d="M119.6,325.5l-9,5.2l-3.4-6.4l-5.8-10.7c1.8-4.4,6.7-3.2,6.7-3.2l9,11.8L119.6,325.5z"/>
<path class="st1" d="M117.2,322.2l2.5,3.2l-9,5.2l-3.4-6.4C110.1,322.3,113.7,321.5,117.2,322.2z"/>
<path class="st4" d="M111.3,346.3l-6.2-11.6c0,0,3.6-9.9,11.1-11.3s10.6,0.2,10.6,0.2l7,10.1c-1.9,4.4-5.5,7.7-10,9.3
	C119.9,344.7,115.6,345.8,111.3,346.3z"/>
<path class="st5" d="M298.6,350.6c0,0-3,28.7-9.8,39.4c-17.5,13.3-93.7,44.4-115.7,37.7s-59.1-83.1-59.1-83.1s2.4-12.6,15.9-10.7
	c0,0,44.1,43.5,51.8,46.3c4.2,1.5,21.5-7.5,38.3-18.8c15.8-21.7,28.6-20.2,28.6-20.2L298.6,350.6z"/>
<path class="st7" d="M180.6,428.9c-0.2,0-0.4-0.2-0.4-0.4s0.2-0.4,0.4-0.4c13.1,0,33.6-5.1,57.5-14.3c20.1-7.7,39.8-17.2,50.4-24.2
	c0.2-0.1,0.4-0.1,0.6,0.1c0.1,0.2,0.1,0.4-0.1,0.6c-10.6,7.1-30.4,16.6-50.5,24.3C224.5,419.9,198.4,428.9,180.6,428.9L180.6,428.9
	L180.6,428.9z"/>
<path class="st7" d="M181.7,380.6h-0.1c-4.4-1.6-20.8-16.6-33.7-28.8c-0.2-0.2-0.2-0.4,0-0.6c0.2-0.2,0.4-0.2,0.6,0
	c18.5,17.5,30,27.4,33.4,28.7c0.2,0.1,0.3,0.4,0.2,0.6C181.9,380.5,181.8,380.6,181.7,380.6z"/>
<path class="st7" d="M245,382.7c-4.9,0-10.4-2.7-10.7-2.8c-0.2-0.1-0.3-0.3-0.2-0.5c0.1-0.2,0.3-0.3,0.6-0.2c0.1,0,8.5,4.1,13.4,2.2
	c5.9-2.3,21-13.6,21.1-13.7c0.2-0.1,0.4-0.1,0.6,0.1c0.1,0.2,0.1,0.4-0.1,0.6l0,0c-0.6,0.5-15.3,11.5-21.3,13.8
	C247.3,382.5,246.2,382.7,245,382.7z"/>
<path class="st7" d="M183.4,402.4c-12.8,0-48.4-44.2-60.2-60.6c-0.1-0.2-0.1-0.4,0.1-0.6c0.2-0.1,0.4-0.1,0.6,0.1l0,0
	c15,20.9,49.1,61.4,60,60.2c24-2.5,75.9-44.2,76.4-44.6c0.2-0.1,0.4-0.1,0.6,0.1c0.1,0.2,0.1,0.4-0.1,0.6l0,0
	c-0.1,0.1-13.3,10.7-29.2,21.4c-21.4,14.4-37.5,22.3-47.7,23.4L183.4,402.4z"/>
<path class="st8" d="M378.5,265.9c0,0,34.3,35.6,41.8,58.2s-22.2,19.8-55.2-15.8L378.5,265.9z"/>
<path class="st6" d="M150.8,146.2c9.9,39.6,31.9,82.4,40.4,98.1c-26.9,6.1-58.2,9.4-94.6,8.7C96.6,253.1,107.1,192.5,150.8,146.2z"
	/>
<path class="st8" d="M355.1,92.5c0,0-4.8,36.7-34.8,75.1c-16.1-22.1-44.8-56.4-70.7-79.4C278.3,81.2,315.7,82.9,355.1,92.5z"/>
<path class="st7" d="M320.2,167.6c-23.8,30.4-63.4,61.9-129,76.8c-8.5-15.7-30.5-58.5-40.4-98.1c23.6-24.9,55.7-47.5,98.7-58.1
	C275.5,111.2,304.1,145.4,320.2,167.6z"/>
<path class="st8" d="M287.4,339.6c-0.1,0-0.1,0-0.2,0L96.4,244.8c-0.2-0.1-0.3-0.4-0.2-0.6c0.1-0.2,0.4-0.3,0.6-0.2l190.9,94.7
	c0.2,0.1,0.3,0.3,0.2,0.5C287.7,339.5,287.6,339.6,287.4,339.6z"/>
<path class="st8" d="M359.9,298.3c-0.2,0-0.4-0.2-0.4-0.4L346.6,88.3c0-0.2,0.2-0.4,0.4-0.4s0.4,0.2,0.4,0.4l12.8,209.6
	C360.3,298.1,360.1,298.3,359.9,298.3C359.9,298.3,359.9,298.3,359.9,298.3L359.9,298.3L359.9,298.3z"/>
<path class="st8" d="M301.3,317.5c-0.1,0-0.2,0-0.3-0.1L123.5,176.6c-0.2-0.1-0.3-0.3-0.2-0.5c0.1-0.2,0.3-0.3,0.5-0.2
	c0.1,0,0.1,0.1,0.2,0.2l177.6,140.8c0.2,0.1,0.2,0.4,0.1,0.6C301.6,317.4,301.5,317.5,301.3,317.5z"/>
<path class="st8" d="M322.6,302.6h-0.1c-0.2,0-0.4-0.1-0.4-0.3C321.7,301,289.3,173,274.3,113c-7.7-30.6-7.7-30.9-7.7-31.1
	c0-0.2,0.2-0.4,0.4-0.4l0,0c0.2,0,0.4,0.2,0.4,0.4c0.1,0.4,1.4,6.2,7.6,30.9c15,60,47.4,188,47.7,189.3
	C322.9,302.3,322.8,302.5,322.6,302.6z"/>
<path class="st7" d="M127.2,64.5c-73.7,68.4-30.7,188.6-30.7,188.6s8-30.4,30.3-65.1C124.3,176.3,110.7,110.5,127.2,64.5z"/>
<path class="st6" d="M355.1,92.5c0,0-91.8-90.2-184.2-55.2c25.3,3,70.7,21.5,110.7,52.3C303.5,87.2,328,87.9,355.1,92.5z"/>
<path class="st8" d="M253.2,94.5c9.3-2.3,18.8-3.9,28.3-4.9c-40-30.8-85.3-49.3-110.7-52.3c-8.5,3.3-16.7,7.4-24.4,12.3
	c-6.8,4.4-13.3,9.3-19.2,14.9c-16.5,46.1-3,111.8-0.4,123.5c8.1-12.6,17.3-24.5,27.6-35.4C178,127.6,210.1,105,253.2,94.5z"/>
<path class="st8" d="M378.5,265.9c-4,44.1-19,79.7-31.2,102.3c-4.9,9.3-10.5,18.1-16.8,26.5l-0.1,0.1
	c-87.7,2.2-102.4-61.1-102.4-61.1s27.8-2.6,51.8-46.4s46.7-54.8,46.7-54.8c10.6,3.3,20.8,8.1,30.1,14.3
	C364.7,252.2,372,258.6,378.5,265.9z"/>
<path class="st7" d="M357,243.7c-5.7-2.4-14.6,4.2-21.1,17.6c5.9-0.8,11.9-1,17.9-0.5c0,0,8.1,7.1,11.2,13.4
	C365,274.2,369.7,249,357,243.7z"/>
<path class="st9" d="M329.9,390.4L329.9,390.4c-15.5-0.5-30.8-3.8-45.2-9.6c-10.6-4.4-20.5-10.5-29.1-18
	c-14.5-12.6-20.2-25-20.3-25.2c-0.1-0.2,0-0.5,0.2-0.5c0.2-0.1,0.5,0,0.5,0.2l0,0c0.1,0.1,5.8,12.4,20.1,24.9
	c13.3,11.5,36.8,25.7,73.8,27.3c0.2,0,0.4,0.2,0.4,0.5C330.3,390.2,330.1,390.4,329.9,390.4z"/>
<path class="st9" d="M347.3,368.1c-4.9,9.3-10.5,18.1-16.8,26.5c-14.7-12.2-24.5-36.9-24.5-36.9L347.3,368.1z"/>
<path class="st9" d="M372,304.9h-0.1c-0.2-0.1-0.4-0.3-0.3-0.5c0,0,0,0,0,0c2.9-11.6,5-23.4,6.2-35.3c0-0.2,0.2-0.4,0.5-0.4
	c0.2,0,0.4,0.2,0.4,0.5c-1.3,11.9-3.3,23.7-6.2,35.4C372.4,304.8,372.2,304.9,372,304.9z"/>
<polygon class="st5" points="321.8,295.9 288.3,355.4 268.7,320.7 302.2,261.2 308.5,272.4 314.8,283.5 "/>
<path class="st0" d="M314.8,283.5l-5.9,10.5c-0.5,1-1.7,1.3-2.7,0.8c-0.3-0.2-0.6-0.5-0.8-0.8l-3.4-6c-0.7-1.2-0.7-2.8,0-4l6.5-11.6
	L314.8,283.5z"/>
<polygon class="st5" points="363.5,395.1 397,335.6 321.8,295.9 288.3,355.4 "/>
<path class="st7" d="M291.1,350.9c-0.2,0-0.4-0.2-0.4-0.4c0-0.1,0-0.1,0.1-0.2l29.3-52.1c0.1-0.2,0.4-0.3,0.6-0.2s0.3,0.4,0.2,0.6
	l-29.3,52.1C291.3,350.9,291.2,350.9,291.1,350.9z"/>
<path class="st8" d="M335.7,327.1l6-10.7c0.5-0.9,0.2-2-0.7-2.5c0,0,0,0,0,0l-14.4-7.6c-0.9-0.5-2-0.1-2.5,0.7l-6,10.7
	c-0.5,0.9-0.2,2,0.7,2.5c0,0,0,0,0,0l14.4,7.6C334.1,328.3,335.2,327.9,335.7,327.1z"/>
<polygon class="st5" points="302.2,261.2 377.4,300.8 397,335.6 321.8,295.9 "/>
<polygon class="st0" points="308.5,272.4 383.7,312.1 390,323.2 314.8,283.5 "/>
<path class="st7" d="M393.6,334.2c-0.1,0-0.1,0-0.2,0l-71.8-37.9c-0.1,0-0.1-0.1-0.2-0.2l-15.5-27.5c-0.1-0.2,0-0.5,0.2-0.6
	s0.5,0,0.6,0.2l15.4,27.4l71.7,37.8c0.2,0.1,0.3,0.4,0.2,0.6C393.9,334.2,393.8,334.2,393.6,334.2z"/>
<path class="st0" d="M369,374.5L369,374.5c-0.7,1.2-2.2,1.7-3.5,1l-13-6.9c-1.3-0.7-1.8-2.2-1.1-3.5c0,0,0,0,0-0.1l0,0
	c0.7-1.2,2.2-1.7,3.5-1l12.5,6.6l0.5,0.3C369.2,371.6,369.7,373.2,369,374.5C369,374.5,369,374.5,369,374.5z"/>
<path class="st0" d="M363.9,383.6L363.9,383.6c-0.7,1.2-2.2,1.7-3.5,1l-13-6.9c-1.3-0.7-1.8-2.2-1.1-3.5c0,0,0,0,0-0.1l0,0
	c0.7-1.2,2.2-1.7,3.5-1l13,6.9C364.1,380.7,364.6,382.2,363.9,383.6C363.9,383.5,363.9,383.5,363.9,383.6z"/>
<path class="st9" d="M390.9,324.1h-0.1c-0.2-0.1-0.3-0.3-0.3-0.5c0,0,0,0,0,0c2.2-7.3,9.2-15.6,9.5-16c0,0,0.1-0.1,0.1-0.1
	c1.8-0.7,3.8-0.7,5.7-0.1c1.8,0.5,6.8,4.3,10.8,9.4c0.1,0.2,0.1,0.4-0.1,0.6c-0.2,0.1-0.4,0.1-0.6-0.1c-4.1-5.2-9-8.8-10.4-9.1
	c-1.7-0.5-3.4-0.5-5.1,0c-0.7,0.9-7.3,8.8-9.3,15.6C391.3,324,391.1,324.1,390.9,324.1z"/>
<path class="st8" d="M326.6,232.5c-19.5-4.7-80.6,21.9-89.6,37.2s5.8,42.6,11.4,46.9s19.9-2.1,21.4-6.6s-6-27.9-6-27.9
	s29-9.2,44.1-15.4S326.6,232.5,326.6,232.5z"/>
<path class="st9" d="M292.6,272.8c-0.2,0-0.4-0.2-0.4-0.4c0-0.2,0.1-0.3,0.3-0.4c6.3-2.2,11.4-4.1,15.3-5.7
	c11.9-4.9,16.5-23.5,18-31.3c0-0.2,0.3-0.4,0.5-0.3c0.2,0,0.4,0.3,0.3,0.5l0,0c-1.5,7.9-6.2,26.8-18.5,31.9c-3.9,1.6-9,3.5-15.3,5.7
	L292.6,272.8z"/>
<path class="st9" d="M262,282c-0.1,0-0.2,0-0.3-0.1c-8-7.4-20.2-7.8-20.3-7.8c-0.2,0-0.4-0.2-0.4-0.4c0,0,0,0,0,0
	c0-0.2,0.2-0.4,0.4-0.4c0,0,0,0,0,0c0.1,0,12.6,0.4,20.8,8c0.2,0.2,0.2,0.4,0,0.6C262.2,281.9,262.1,282,262,282z"/>
<path class="st9" d="M259.2,282h-0.1c-9.4-2.7-15.2-1-15.2-1c-0.2,0.1-0.4-0.1-0.5-0.3c-0.1-0.2,0.1-0.4,0.3-0.5l0,0
	c0.2-0.1,6.1-1.8,15.7,1c0.2,0.1,0.3,0.3,0.2,0.5C259.5,281.8,259.3,281.9,259.2,282z"/>
<path class="st7" d="M248.6,315.4l7.6,11.6c0,0,12,0.8,16.1-8l-4.8-10.9C267.6,308.1,255.4,305.9,248.6,315.4z"/>
<path class="st3" d="M256.3,325.8l17.2,18.9c0,0,8.2,15.8,10.7,17.4s18.4-0.2,19.4-1.4s-3.4-5-6.6-6.2c-2.4-0.9-4.8-1.5-7.3-2
	l-4.3-6.6c0,0,5.5,1,5.9,1.1c1.8,0.6,3.6,1.1,5.4,1.4c1.4,0,0.9-1.8-3.5-4.7s-11.5-3.6-11.5-3.6l-10.1-20.9
	C271.6,319.1,264.6,316.3,256.3,325.8z"/>
<path class="st1" d="M298.1,357.4L298.1,357.4c-3.7-0.2-9.2-0.5-9.7-0.5c-0.2,0-0.4-0.1-0.5-0.3c0-0.2,0.1-0.4,0.2-0.5
	c0.1-0.1,0.2-0.1,10,0.4c0.2,0,0.4,0.2,0.4,0.5S298.3,357.4,298.1,357.4L298.1,357.4z"/>
<path class="st1" d="M300,360.5L300,360.5l-12.8-0.6c-0.2,0-0.4-0.2-0.4-0.4c0,0,0,0,0,0c0-0.2,0.2-0.4,0.4-0.4l12.8,0.6
	c0.2,0,0.4,0.2,0.4,0.4S300.2,360.5,300,360.5z"/>
<path class="st1" d="M396.8,225.1c-2.3,9.1-20.7,15.3-38.6,12c-14.5-2.6-11.9-12.3-10.4-15.8l0,0c0.3-0.7,0.5-1.1,0.6-1.3l0,0
	c0,0-9.4-5-10.3-7.3s8.3-3.2,8.3-3.2s-3.8-2.6-3.7-4.6s13.1-6.1,20.3-5.6c0,0-4.4-7.6-3.8-11.1s6.8-0.3,14.9,3.4s16.5,8.8,16,22.4
	c0,0,6.6,1.4,7.1,7.5C397.2,222.8,397,224,396.8,225.1z"/>
<path class="st3" d="M369.8,241.9l-6.1,7.4l-3.6,4.4l-4.8,2.6c-1.6-2.2-2.3-6.7-2.3-6.7l6.8-13.9l1.7-3.5L369.8,241.9z"/>
<path class="st1" d="M369.8,241.9l-6.1,7.4c-4.2-3.9-4.6-9.5-4.1-13.7l1.7-3.5L369.8,241.9z"/>
<path class="st3" d="M381,211.3c-14.3-8.5-21.4,9.8-21.3,20.3s10.4,20.1,21.8,7.7S390.1,216.8,381,211.3z"/>
<path class="st3" d="M362.7,222.9c0,0-2.4-7.9-7.5-6.6s-2.8,13.2,5.7,12.3L362.7,222.9z"/>
<path class="st1" d="M359.5,225.5c-0.2,0-0.4-0.2-0.4-0.4c0-2.7-1.7-5.2-4.2-6.4c-0.2-0.1-0.3-0.3-0.3-0.5s0.3-0.3,0.5-0.3
	c0.2,0.1,4.3,1.6,4.7,7.1C360,225.3,359.8,225.5,359.5,225.5C359.6,225.5,359.6,225.5,359.5,225.5L359.5,225.5L359.5,225.5z"/>
<path class="st1" d="M355.5,224.2c-0.2,0-0.4-0.2-0.4-0.4c0-0.1,0-0.1,0-0.2c0.6-1.3,1.6-2.4,2.8-3.2c0.2-0.1,0.4,0,0.6,0.2
	c0.1,0.2,0,0.4-0.1,0.6c-1,0.7-1.9,1.7-2.4,2.8C355.8,224.1,355.7,224.2,355.5,224.2z"/>
<path class="st1" d="M376.9,237.2c-0.8,0-1.6-0.1-2.3-0.3c-0.2,0-0.4-0.3-0.3-0.5s0.3-0.4,0.5-0.3c1.3,0.3,3.3,0.4,3.8-0.2
	c0.2-0.2,0.2-0.5,0-0.8c-0.6-2-0.7-4.1-0.3-6.1c0.1-0.2,0.3-0.4,0.5-0.3s0.4,0.3,0.3,0.5c-0.4,1.8-0.3,3.8,0.2,5.6
	c0.3,0.5,0.2,1.1-0.2,1.6C378.5,237,377.7,237.2,376.9,237.2z"/>
<path class="st1" d="M376.5,224.1c0,0,1-2.6,0.7-3.3s-1,0.4-1,0.4s-4.4-3.4-7.4,1.3C368.7,222.4,372.2,220.8,376.5,224.1z"/>
<path class="st1" d="M381.9,226.4c0,0,1.1-2.6,1.8-2.9s0.3,0.9,0.3,0.9s4.5-0.2,3.1,5.1C387.1,229.4,386.3,226.2,381.9,226.4z"/>
<path class="st1" d="M368.6,242.2c1.5,0.9,3.3,1,4.9,0.2c0.7-0.3,1.2-0.8,1.8-1.3c-2-2.6-4.6-4.6-7.5-6c-0.3,0.5-0.5,1-0.7,1.6
	C366.5,238.3,366.2,240.8,368.6,242.2z"/>
<path class="st10" d="M367,236.7c2.7,1.2,4.9,3.2,6.4,5.7c0.7-0.3,1.2-0.8,1.8-1.3c-2-2.6-4.6-4.6-7.5-6
	C367.4,235.6,367.2,236.2,367,236.7z"/>
<ellipse transform="matrix(0.425 -0.9052 0.9052 0.425 7.5918 467.8679)" class="st1" cx="372.1" cy="228" rx="2.6" ry="2.1"/>
<circle class="st10" cx="373.1" cy="227.8" r="0.7"/>
<ellipse transform="matrix(0.425 -0.9052 0.9052 0.425 9.5511 479.6853)" class="st1" cx="382.3" cy="232.3" rx="2.6" ry="2.1"/>
<circle class="st10" cx="383.4" cy="232.2" r="0.7"/>
<path class="st1" d="M359.9,220.9c0.3,0.1,16.7,6.9,24.9-6.6s-8.3-13.6-18.2-9.8s0.9,4.6,0.9,4.6S350.8,218.2,359.9,220.9z"/>
<path class="st3" d="M371.4,297.1c0,0-6.1-7.1-11.4-9.9s-18.5-4.6-20.7-4s9.6,4.7,9.6,4.7s-9.2-2-10.8-0.5s11.2,4.3,11.2,4.3
	s-8.4-1.1-9.4,0.1s11.8,4.5,11.8,4.5s-7.3-1.5-8.6,0.1s14.1,4.6,14.6,4.9s3.4,3.1,6.2,3.7s3.7-0.9,3.7-0.9L371.4,297.1z"/>
<path class="st3" d="M417.8,335.8c-3.9,6.5-19.6-0.3-35.2-14.9c-5.5-5.2-10.5-10.8-14.9-16.9l3.7-6.9c0,0,10,3.2,20.8,7.2
	c5,1.9,10.3,3.9,14.6,6c6.8,3.1,11.5,9.4,12.5,16.8C419.8,330,419.3,333.1,417.8,335.8z"/>
<path class="st8" d="M400.4,307.9c1.8-0.6,3.7-0.6,5.4-0.1c3.3,0.9,20.8,15.8,14.8,27.4s-30.8-0.6-30.3-8.4S400.4,307.9,400.4,307.9
	z"/>
<path class="st7" d="M389.8,327c-2.4-1.9-4.7-3.9-7.1-6.1c10.4-4.7,9.9-14,9.5-16.6c2.8,1,5.7,2.2,8.4,3.3c1.4,0.6,2.4,1.9,2.6,3.4
	c0.5,4.4-0.2,11.9-8.7,16.4C393,328.2,391.1,328.1,389.8,327z"/>
</svg>
