<?xml version="1.0" encoding="utf-8"?>
<!-- Generator: Adobe Illustrator 24.1.1, SVG Export Plug-In . SVG Version: 6.00 Build 0)  -->
<svg version="1.1" id="Слой_1" xmlns="http://www.w3.org/2000/svg" xmlns:xlink="http://www.w3.org/1999/xlink" x="0px" y="0px"
	 viewBox="0 0 600 600" style="enable-background:new 0 0 600 600;" xml:space="preserve">
<style type="text/css">
	.st0{fill:#FAD986;}
	.st1{fill:#29292C;}
	.st2{fill:#CE9238;}
	.st3{fill:#FFFFFF;}
	.st4{fill:#515154;}
	.st5{fill:#FFEABB;}
	.st6{fill:#86EFFA;}
	.st7{fill:#E9E9E9;}
	.st8{fill:#F6F8F9;}
	.st9{fill:#159BBA;}
	.st10{fill:#38B9CE;}
	.st11{fill:#5BD1DD;}
	.st12{fill:#272525;}
	.st13{fill:#6B81BE;}
</style>
<g>
	<path class="st0" d="M416.8,311.7c-1.7,3.1-4.3,5.5-8.1,6.9c-21.1,7.7-34.3-21.4-45.2-47c-4.9-11.5-10.5-22.7-15.8-34
		c-6.5-13.8-12.6-27.7-16.5-42.1c-7.1-26.1,18.6-36.8,28.4-29.5c0,0,24.1,29.5,39.5,68.8C411.8,267,424.2,297.5,416.8,311.7z"/>
</g>
<g>
	<path class="st1" d="M416.8,311.7c-1.7,3.1-4.3,5.5-8.1,6.9c-21.1,7.7-34.3-21.4-45.2-47c-4.9-11.5-10.5-22.7-15.8-34
		c5.7-0.1,9.5,0.1,9.5,0.1C368.7,271.3,382.2,303.9,416.8,311.7z"/>
</g>
<g id="RIGHT_ARM">
	<g>
		<g>
			<g>
				<path class="st0" d="M265.9,176.1c-7.8-10.3-21.7-13.9-30.8-6c-13,11.3-35,58.3-36.7,62c0,0-12.8,28.5-6.9,46.8
					c2.9,9.2,14.6,11.9,21.4,5.2c3.4-3.3,7.3-7.5,11.5-12.3c13.7-15.7,30.5-38,41.5-57.3C275,198.8,272.7,185,265.9,176.1z"/>
			</g>
			<g>
				<path class="st1" d="M266,214.5c-11,19.3-27.9,41.6-41.5,57.3c5.3-24.3,11.6-50.2,11.8-50.8c8.4-37.8,18.7-47.4,29.7-44.9
					C272.7,185,275,198.8,266,214.5z"/>
			</g>
		</g>
	</g>
</g>
<g>
	<g>
		<g>
			<path class="st0" d="M367.8,293.2c-0.9-9.1-8.2-127.2-8.2-127.2s-45-22.7-71.3-19.1s-53.1,23.2-53.1,23.2
				c-9.1,50,8.6,99,5.5,124.5c-3.2,25.4-26.8,82.7-26.8,82.7c23.4,17.5,47.5,24.9,70.1,26.5c5.2-8.7,23.6-38.8,23.6-38.8l28.4,33.2
				c34.5-9.6,58.2-27.3,58.2-27.3S368.7,302.3,367.8,293.2z"/>
		</g>
		<g>
			<path class="st1" d="M236.6,251.8c-2.8-19.5-7.1-49.1-2.6-78l1,0.2c-4.5,28.8-0.2,58.3,2.6,77.8L236.6,251.8z"/>
		</g>
		<g>
			<path class="st1" d="M366.4,282c-1.6-23.7-4.9-76.7-6.7-106.2l1-0.1c1.8,29.5,5.1,82.5,6.7,106.2L366.4,282z"/>
		</g>
	</g>
	<g>
		<polygon class="st1" points="245.1,333.2 241.6,345.4 276.3,354.5 279.9,342.1 		"/>
	</g>
	<g>
		<polygon class="st1" points="359.7,329.8 363.9,341.8 329.8,353 325.4,340.8 		"/>
	</g>
	<g>
		<path class="st1" d="M305.2,363.3l-9.3-9.6l0-0.3c0.1-0.4,6.4-36,6.8-93.4l1,0c-0.4,55-6.2,90-6.8,93.3l8.9,9.2L305.2,363.3z"/>
	</g>
</g>
<g>
	<path class="st2" d="M290.5,141.2c0,0-11.6,2.3-31.6,13.2c0,0-9.9,12.8-15.4,31.9l22.7,4.5l-10.3,20l47.2,46.9l35.1-50.3
		l-12.7-23.3l22.1-4.2c0,0-10.6-22.5-16.4-28.2C325.7,145.9,299.6,140,290.5,141.2z"/>
</g>
<g>
	<path class="st3" d="M290.1,147.3c-6.6,1.3-20.1,7.3-26.9,10.4c3.7,13.5,19.7,65.6,39.5,90.7c0,0,15.5-63.4,22.2-95.2
		C316.1,150.8,297,145.9,290.1,147.3z"/>
</g>
<g>
	<path class="st1" d="M310.3,216.7c-1.4-9.4-5.5-34.4-11.3-51.3l-6.8-1.4l-4.7,3c0,0-3.5,22.5-3,50c5.4,11.9,11.6,23.2,18.1,31.5
		C302.7,248.4,306,234.6,310.3,216.7z"/>
</g>
<g>
	<path class="st1" d="M302.9,249.5l-0.6-0.8c-6.6-8.4-13.5-20.6-20.3-36.2l0.9-0.4c6.6,15.1,13.2,26.9,19.5,35.2
		c0.9-3.7,4.2-17.1,8-33.3l1,0.2c-4.5,19-8.2,34.2-8.3,34.4L302.9,249.5z"/>
</g>
<g>
	<path class="st4" d="M288.7,178.7c0,0,6.9-0.7,11-0.5"/>
</g>
<g>
	<path class="st3" d="M293.8,166.6c0,0-8.9,4.2-18.2,13.3c0,0-2.1-32.4,15-35.6c17.1-3.2,21.8,31,21.8,31S308,170.8,293.8,166.6z"/>
</g>
<g>
	<path class="st1" d="M275.2,181l-0.1-1.1c0-0.7-1-16.9,4.7-27.5l0.9,0.5c-4.7,8.8-4.7,22-4.6,25.9c8.9-8.5,17.4-12.6,17.5-12.6
		l0.2-0.1l0.2,0.1c10.6,3.1,15.7,6.4,17.8,8c-0.7-4.2-3.4-17.1-9.4-24.4l0.8-0.6c7.4,8.9,9.7,25.5,9.8,26.2l0.2,1.5l-1.1-1.1
		c0,0-4.5-4.5-18.2-8.6c-1.3,0.6-9.5,4.9-17.9,13.1L275.2,181z"/>
</g>
<g id="NECK">
	<g>
		<g>
			<path class="st5" d="M299.7,157.8c-0.1,2-4.6,7.9-11,3.6l-3.6-10.4l-3.6-10.3l12.6-11.3l0.1-0.1l0.1,0.6l1,5l3.3,17.2
				L299.7,157.8z"/>
		</g>
		<g>
			<path class="st1" d="M298.6,152c-1.1,3.8-3.8,8.4-9.9,9.4l-3.6-10.4l-3.6-10.3l12.6-11.3l0.1-0.1l0.1,0.6l1,5L298.6,152z"/>
		</g>
	</g>
</g>
<g>
	<g>
		<path class="st5" d="M266.3,131.4c0,0-5-4.4-8.6-0.7c-3.6,3.7,2.7,14.3,12.5,13.2L266.3,131.4z"/>
	</g>
	<g>
		<path class="st1" d="M266.8,139.2c-3.4-4.4-6.6-5-6.6-5l0.2-1c0.1,0,3.6,0.6,7.3,5.4L266.8,139.2z"/>
	</g>
</g>
<g>
	<path class="st1" d="M256.6,121.1c3.3,8.3,10.6,17.4,10.6,17.4l-0.6-14L256.6,121.1z"/>
</g>
<g>
	<path class="st5" d="M277.2,105.7c-14.3,1.6-13.8,22.7-9.2,37.4c4.5,14.7,18.9,22,29.4,8C307.8,137.2,306.4,102.4,277.2,105.7z"/>
</g>
<g>
	<path class="st1" d="M297.3,151.1c3-4.6,4.9-9.7,5.3-15.4l-2-0.4l-0.5-9.5c0,0-10.2,1.2-8.3-12.6c0,0-9.8,9.3-23.9,10.5
		c-14.1,1.1-31.2-10.3-29.5-15.5c1.6-4.9,8.9-0.9,9.5-0.6c-0.8-0.9-12.9-15.3-9.1-24.2c5.7-13.3,34.6,3.6,50.7,13.6
		c2.5,1.5,4.8,2.9,7.1,4.2c-1.7-3-4.4-7.9-6.8-13.1c-3.9-8.5,10-7.8,12.6,16.2c0,0,7.6-14.2,13.7-11.7c5.2,2.1-2,10.5-9.3,14.4
		c7.3,4.3,10.3,6.8,11.5,12.4C320.4,128.9,297.3,151.1,297.3,151.1z"/>
</g>
<g>
	<g>
		<path class="st5" d="M300.1,131.6c0,0,1.5-6.4,8.6-5.7c7.1,0.7,5.1,16.5-9.3,15.4L300.1,131.6z"/>
	</g>
	<g>
		<path class="st1" d="M302.3,137l-1-0.2c0.1-0.3,1.6-6.6,7.7-7.7l0.2,1C303.8,131,302.3,136.9,302.3,137z"/>
	</g>
	<g>
		<path class="st1" d="M306.7,135.9c0,0-0.3-2.2-2.3-3.7l0.6-0.8c2.3,1.8,2.6,4.2,2.7,4.3L306.7,135.9z"/>
	</g>
</g>
<g>
	<path class="st1" d="M295.5,127.3c0,0-3.2-5.4-7.3-2.9c0,0-0.2-1.3-1.3-1.2s-0.9,3.6-0.9,3.6S290.9,125.9,295.5,127.3z"/>
</g>
<g>
	<path class="st1" d="M270,128.8c0,0,1.5-5.6,4.4-3.4c0,0,0.3-1,1-1c1.3,0,0.9,3.3,0.9,3.3S272.7,127.1,270,128.8z"/>
</g>
<g>
	<g>
		<ellipse transform="matrix(0.9937 -0.1117 0.1117 0.9937 -13.574 31.6591)" class="st1" cx="275.9" cy="137" rx="2.4" ry="2.9"/>
	</g>
	<g>
		<circle class="st3" cx="275.2" cy="136" r="0.6"/>
	</g>
</g>
<g>
	<path class="st1" d="M282,147.6c-1.1,0-2.3-0.4-2.9-1.7c-0.8-1.9,1-3.4,2.1-3.9l0.4,0.9c0,0-2.3,1.2-1.6,2.6
		c0.8,1.8,3.5,0.8,3.6,0.8l0.4,0.9C283.5,147.5,282.8,147.6,282,147.6z"/>
</g>
<g>
	<path class="st1" d="M289.9,142.6c-3.9,0-7-3.2-7-7c0-3.9,3.2-7,7-7c3.9,0,7,3.2,7,7C296.9,139.4,293.8,142.6,289.9,142.6z
		 M289.9,129.5c-3.3,0-6,2.7-6,6s2.7,6,6,6s6-2.7,6-6S293.2,129.5,289.9,129.5z"/>
</g>
<g>
	<path class="st1" d="M273.8,144c-3.9,0-7-3.2-7-7c0-3.9,3.2-7,7-7c3.9,0,7,3.2,7,7C280.8,140.8,277.6,144,273.8,144z M273.8,130.9
		c-3.3,0-6,2.7-6,6s2.7,6,6,6s6-2.7,6-6S277.1,130.9,273.8,130.9z"/>
</g>
<g>
	<path class="st3" d="M281.6,152.1c0,0,5.4,1.4,10-4.3C291.6,147.8,291.4,157.5,281.6,152.1z"/>
</g>
<g>
	<path class="st1" d="M287.6,136.5l-1-0.3c0-0.1,0.5-1.9,2.6-2c2.1-0.1,2.7,1.4,2.7,1.4L291,136c0,0-0.4-0.9-1.8-0.8
		C287.9,135.3,287.6,136.4,287.6,136.5z"/>
</g>
<g>
	<path class="st5" d="M189.2,275.9c0,0,4.9,11.4,11.5,13.3c6.7,1.9,11.2-2.1,11.2-2.1s9.5,2.2,13.7-6s4.3-17.4,7.4-22.9
		c3.1-5.5-3.7-8.8-8.9-3c-5.2,5.8-10.2,8.2-10.2,8.2L189.2,275.9z"/>
</g>
<g>
	<path class="st1" d="M189.1,275.5c-0.1-0.2-0.1-0.3-0.2-0.5c-1-2.9,0.4-6,3.1-7.4l39.3-20.6l4.7,8.3l-38,22.7
		C194.8,279.9,190.6,278.8,189.1,275.5z"/>
</g>
<g>
	<circle class="st6" cx="262.3" cy="235.1" r="36.4"/>
</g>
<g>
	<circle class="st7" cx="262.3" cy="235.1" r="26.7"/>
</g>
<g>
	<g>
		<path class="st8" d="M276.8,233.1c0.1,1,0.2,2,0.1,3c-0.2,2.2,1.5,4.1,3.7,4.3c2.2,0.2,4.1-1.5,4.3-3.7c0.1-1.5,0.1-3.1-0.2-4.6
			c-0.3-2.2-2.3-3.7-4.5-3.4C278,228.9,276.5,230.9,276.8,233.1L276.8,233.1z"/>
	</g>
	<g>
		<path class="st8" d="M255.1,222.3c3.2-1.8,6.7-2.2,10-1.6c3.3,0.7,6.4,2.5,8.6,5.2c1.4,1.7,3.9,2,5.6,0.6c1.7-1.4,2-3.9,0.6-5.6
			c-3.4-4.3-8.1-7-13.2-8.1c-5.1-1-10.6-0.3-15.5,2.4c-1.9,1.1-2.6,3.5-1.5,5.4C250.8,222.7,253.2,223.4,255.1,222.3L255.1,222.3z"
			/>
	</g>
</g>
<g>
	<path class="st5" d="M186.1,261.4c0,0-5.7-0.1-5.7,10.1c0,10.2,5.9,15.3,10.6,10.7c0,0,2,2.8,6.2,1.7s4.2-4.9,4.2-4.9
		s2,3.8,6.8,2.5c4.8-1.3,4.4-5.9,4.4-5.9s2.5,5.3,8.1,3.2c5.6-2.1,1-11.3,0-16.6s1.9-10.7-2.3-14.7c-4.2-4-9.5,0-10.5,3.4
		c0,0-6.7-3.7-11.4,5C196.4,255.9,189.3,253.6,186.1,261.4z"/>
</g>
<g>
	<path class="st1" d="M195.2,284.7c-0.5,0-0.9,0-1.3-0.1l0.2-1c0.9,0.2,1.9,0.1,2.9-0.1c3.7-1,3.8-4.3,3.8-4.4l0-2l0.9,1.7
		c0.1,0.1,1.9,3.4,6.2,2.2c4.3-1.2,4-5.2,4-5.4l-0.2-2.7l1.1,2.4c0.1,0.2,2.4,4.9,7.4,3c3.8-1.5,2.2-6.9,0.8-11.7
		c-0.5-1.6-0.9-3.1-1.1-4.4c-0.3-1.6-0.2-3.1-0.1-4.6l1,0.1c-0.1,1.4-0.1,2.9,0.1,4.3c0.2,1.3,0.7,2.7,1.1,4.3
		c1.4,4.9,3.3,11.1-1.4,12.9c-4.1,1.6-6.7-0.6-7.9-2.2c-0.3,1.6-1.3,4-4.6,4.9c-3.4,0.9-5.6-0.6-6.6-1.7c-0.4,1.3-1.4,3.4-4.3,4.2
		C196.6,284.6,195.9,284.7,195.2,284.7z"/>
</g>
<g>
	<path class="st1" d="M189.3,279.1c-3.2-6.8-2.5-14.6-2.4-14.9l1,0.1c0,0.1-0.7,7.8,2.3,14.4L189.3,279.1z"/>
</g>
<g>
	<path class="st1" d="M199.5,275.3c-2.9-6.7-2.9-13.9-2.9-14.2h1c0,0.1,0,7.3,2.8,13.8L199.5,275.3z"/>
</g>
<g>
	<path class="st1" d="M210,270.7c-2-5.1-2.2-13.3-2.2-13.6l1,0c0,0.1,0.1,8.3,2.1,13.2L210,270.7z"/>
</g>
<g>
	<path class="st9" d="M187.3,508.6c0,0-108.3,9.6-159.2-93.3C28.1,415.3,138,397.2,187.3,508.6z"/>
</g>
<g>
	<path class="st10" d="M89.5,443.1c-13.2,8.6-26.7,9.8-38.1,8c6.2,7.4,12.8,13.8,19.6,19.4c8.3-1,17.1-4.2,25.9-10.7
		c14.9-11.1,28.6-15.4,39.5-16.8c-4.5-3.3-9.1-6.3-13.6-8.9C112.1,433.8,100.4,435.9,89.5,443.1z"/>
</g>
<g>
	<path class="st10" d="M126.3,468.7c-11.7,11.2-25,14.8-36.7,15.1c9.5,5.8,19,10.2,28.2,13.7c6.5-2.8,12.9-7.2,19-13.7
		c8-8.7,16-14.6,23.4-18.7c-3.1-3.6-6.3-6.9-9.5-10C142.2,457.3,133.7,461.5,126.3,468.7z"/>
</g>
<g>
	<line class="st11" x1="38.9" y1="422" x2="180.5" y2="503.6"/>
</g>
<g>
	<path class="st0" d="M209.5,476.2c0,0-10.4-108.9-103.7-127.3C105.9,348.9,92.1,437,209.5,476.2z"/>
</g>
<g>
	<path class="st5" d="M120.1,366c0.8,0.4,80.5,101.6,80.5,101.6"/>
</g>
<g>
	<path class="st9" d="M429,510.7c0,0,108.5-7.3,142.9-116.8C571.9,393.9,460.5,393,429,510.7z"/>
</g>
<g>
	<g>
		<path class="st10" d="M515.5,430.9c14.4,6.5,27.9,5.5,38.8,2c-5,8.2-10.5,15.6-16.4,22.2c-8.4,0.3-17.6-1.5-27.3-6.6
			c-16.5-8.6-30.6-10.8-41.6-10.5c3.9-4,8-7.6,12.1-10.9C491.8,425.2,503.6,425.5,515.5,430.9z"/>
	</g>
	<g>
		<path class="st10" d="M483.2,461.8c13.3,9.3,27,10.7,38.6,9.2c-8.5,7.2-17.2,13.1-25.8,17.9c-6.8-1.8-13.9-5.1-20.9-10.6
			c-9.2-7.3-18-12-26-14.8c2.5-4,5.1-7.8,7.8-11.4C465.6,453.1,474.7,455.9,483.2,461.8z"/>
	</g>
</g>
<g>
	<line class="st11" x1="562.2" y1="402.2" x2="435" y2="504.7"/>
</g>
<g>
	<g>
		<g>
			<path class="st0" d="M444.5,434.7c0,0,2.2-51,45.2-61.9C489.7,372.8,498.3,413.5,444.5,434.7z"/>
		</g>
	</g>
</g>
<g id="ORNAMENT_12">
	<g>
		<circle class="st8" cx="120.1" cy="167.5" r="9.4"/>
	</g>
</g>
<g id="ORNAMENT_11">
	<g>
		<circle class="st8" cx="62.3" cy="136.7" r="4.1"/>
	</g>
</g>
<g id="ORNAMENT_10">
	<g>
		<circle class="st8" cx="503.9" cy="273.7" r="6.1"/>
	</g>
</g>
<g id="ORNAMENT_9">
	<g>
		<circle class="st8" cx="407" cy="133.8" r="10"/>
	</g>
</g>
<g id="ORNAMENT_8">
	<g>
		<circle class="st8" cx="465.3" cy="165.3" r="3.4"/>
	</g>
</g>
<g id="ORNAMENT_7">
	<g>
		<circle class="st8" cx="386.6" cy="63.8" r="2.8"/>
	</g>
</g>
<g id="ORNAMENT_6">
	<g>
		<circle class="st8" cx="141.3" cy="291.8" r="7.9"/>
	</g>
</g>
<g id="ORNAMENT_5">
	<g>
		<circle class="st8" cx="185.7" cy="107.5" r="3.5"/>
	</g>
</g>
<g id="ORNAMENT_4">
	<g>
		<g>
			<rect x="135.3" y="54.3" class="st1" width="1" height="6"/>
		</g>
		<g>
			<rect x="139.9" y="63.9" class="st1" width="6" height="1"/>
		</g>
		<g>
			<rect x="135.3" y="68.5" class="st1" width="1" height="6"/>
		</g>
		<g>
			<rect x="125.7" y="63.9" class="st1" width="6" height="1"/>
		</g>
	</g>
</g>
<g id="ORNAMENT_3">
	<g>
		<g>
			<rect x="83.1" y="265.4" class="st1" width="1" height="3.1"/>
		</g>
		<g>
			<rect x="85.7" y="270.1" class="st1" width="3.1" height="1"/>
		</g>
		<g>
			<rect x="83.1" y="272.7" class="st1" width="1" height="3.1"/>
		</g>
		<g>
			<rect x="78.4" y="270.1" class="st1" width="3.1" height="1"/>
		</g>
	</g>
</g>
<g id="ORNAMENT_2">
	<g>
		<g>
			<rect x="456.4" y="252.2" class="st1" width="1" height="6"/>
		</g>
		<g>
			<rect x="460.9" y="261.8" class="st1" width="6" height="1"/>
		</g>
		<g>
			<rect x="456.4" y="266.4" class="st1" width="1" height="6"/>
		</g>
		<g>
			<rect x="446.8" y="261.8" class="st1" width="6" height="1"/>
		</g>
	</g>
</g>
<g id="ORNAMENT_1">
	<g>
		<g>
			<rect x="513.5" y="110.9" class="st1" width="1" height="6"/>
		</g>
		<g>
			<rect x="518" y="120.5" class="st1" width="6" height="1"/>
		</g>
		<g>
			<rect x="513.5" y="125.1" class="st1" width="1" height="6"/>
		</g>
		<g>
			<rect x="503.9" y="120.5" class="st1" width="6" height="1"/>
		</g>
	</g>
</g>
<g id="CARDBOARD_BACK">
	<g>
		<g>
			<polygon class="st1" points="420,291.8 378.7,442.8 224.2,442.8 182.8,291.8 			"/>
		</g>
		<g>
			<polygon class="st9" points="378.7,442.8 367.3,508.8 235.6,508.8 224.2,442.8 			"/>
		</g>
	</g>
</g>
<g id="LEFT_HAND">
	<g>
		<g>
			<path class="st5" d="M405.2,282.5c0,0,5.2-2.4,9.3,6.9c4.2,9.3,0.8,16.4-5.3,14.1c0,0-0.7,3.4-4.9,4.1s-5.8-2.8-5.8-2.8
				s-0.3,4.3-5.2,5s-6.4-3.6-6.4-3.6s-1,5.9-6.9,4.9c-6.7-1.1-4.7-8.7-6-13.9s-6.1-9-3.9-14.4s8.7-3.9,11-1.1c0,0,4.6-6.1,12.4-0.1
				C393.4,281.6,399,276.6,405.2,282.5z"/>
		</g>
		<g>
			<path class="st3" d="M405.1,285.6c0,0,3.9,6.8,3.8,14.3"/>
			<path class="st12" d="M409.4,299.9l-1,0c0.1-7.3-3.7-14-3.7-14.1l0.9-0.5C405.7,285.7,409.5,292.4,409.4,299.9z"/>
		</g>
		<g>
			<path class="st3" d="M394.9,286.7c0,0,3,6.7,3.1,14"/>
			<path class="st12" d="M397.5,300.6c-0.1-7-3-13.7-3.1-13.8l0.9-0.4c0.1,0.3,3,6.9,3.1,14.2L397.5,300.6z"/>
		</g>
		<g>
			<path class="st3" d="M383.1,287.5c0,0,3.3,7.6,3.5,13.1"/>
			<path class="st12" d="M386.1,300.7c-0.2-5.3-3.4-12.9-3.5-13l0.9-0.4c0.1,0.3,3.3,7.8,3.5,13.3L386.1,300.7z"/>
		</g>
	</g>
</g>
<g>
	<path class="st8" d="M296.5,330.1l-61,51c-3.2,2.7-8,2.3-10.7-1l-27.9-33.4c-2.7-3.2-2.3-8,1-10.7l61-51c3.2-2.7,8-2.3,10.7,1
		l27.9,33.4C300.2,322.6,299.7,327.4,296.5,330.1z"/>
</g>
<g>
	<g>
		<path class="st1" d="M201.4,341.9l0-1l42.6-2.1c4.7-0.2,8.6-3.6,9.7-8.1l9.6-41.5l1,0.2l-9.6,41.5c-1.2,5-5.5,8.6-10.6,8.9
			L201.4,341.9z"/>
	</g>
	<g>
		<g>
			
				<rect x="215.9" y="357.4" transform="matrix(0.2246 -0.9745 0.9745 0.2246 -166.718 506.3737)" class="st1" width="37.7" height="1"/>
		</g>
		<g>
			
				<rect x="255.5" y="324.6" transform="matrix(0.9988 -4.984013e-02 4.984013e-02 0.9988 -15.8631 14.0708)" class="st1" width="37.4" height="1"/>
		</g>
	</g>
</g>
<g id="ITEM_4">
	<g>
		<path class="st9" d="M400,349.6l-16,37.7c-1.9,4.5-7.1,6.6-11.6,4.7L301.5,362c-4.5-1.9-6.6-7.1-4.7-11.6l21.5-50.7
			c1.9-4.5,7.1-6.6,11.6-4.7l34.7,14.7c4.5,1.9,6.6,7.1,4.7,11.6l-2.1,4.8l28.1,11.9C399.9,339.9,401.9,345.1,400,349.6z"/>
	</g>
</g>
<g id="ITEM_3">
	<g>
		<g>
			<path class="st0" d="M391.6,400.8l-175,18.3c-4.2,0.4-7.9-2.6-8.4-6.8l-4.5-43.3c-0.4-4.2,2.6-7.9,6.8-8.4l175-18.3
				c4.2-0.4,7.9,2.6,8.4,6.8l4.5,43.3C398.8,396.6,395.7,400.4,391.6,400.8z"/>
		</g>
		<g>
			<g>
				<path class="st3" d="M326.7,391.4l-96.5,10.1c-4.2,0.4-7.9-2.6-8.4-6.8l-1.2-11.3c-0.4-4.2,2.6-7.9,6.8-8.4l96.5-10.1
					c4.2-0.4,7.9,2.6,8.4,6.8l1.2,11.3C333.9,387.3,330.9,391,326.7,391.4z"/>
			</g>
			<g>
				<path class="st3" d="M374.5,386.4l-20.8,2.2c-4.2,0.4-7.9-2.6-8.4-6.8l-1.2-11.3c-0.4-4.2,2.6-7.9,6.8-8.4l20.8-2.2
					c4.2-0.4,7.9,2.6,8.4,6.8l1.2,11.3C381.7,382.2,378.7,386,374.5,386.4z"/>
			</g>
		</g>
	</g>
</g>
<g>
	<path class="st13" d="M299.2,462.7l-36.3,13.2c-3.9,1.4-8.3-0.6-9.7-4.6l-21.5-59.3c-1.4-3.9,0.6-8.3,4.6-9.7l36.3-13.2
		c3.9-1.4,8.3,0.6,9.7,4.6l21.5,59.3C305.1,456.9,303.1,461.2,299.2,462.7z"/>
</g>
<g>
	<path class="st9" d="M239.9,414.3l-0.5-1.3c-0.8-2.2,0.3-4.7,2.6-5.5l29.4-10.7c2.2-0.8,4.7,0.3,5.5,2.6l0.5,1.3
		c0.8,2.2-0.3,4.7-2.6,5.5l-29.4,10.7C243.2,417.7,240.7,416.6,239.9,414.3z"/>
</g>
<g>
	<path class="st8" d="M257.7,463.3l-12.4-34.1c-0.8-2.2,0.3-4.7,2.6-5.5l29.4-10.7c2.2-0.8,4.7,0.3,5.5,2.6l12.4,34.1
		c0.8,2.2-0.3,4.7-2.6,5.5l-29.4,10.7C260.9,466.7,258.5,465.5,257.7,463.3z"/>
</g>
<g id="ITEM_1">
	<g>
		<g>
			<g>
				<path class="st13" d="M336.9,476.1l-34.9-16.5c-3.8-1.8-5.4-6.3-3.6-10.1l26.9-57.1c1.8-3.8,6.3-5.4,10.1-3.6l34.9,16.5
					c3.8,1.8,5.4,6.3,3.6,10.1L347,472.5C345.2,476.3,340.7,477.9,336.9,476.1z"/>
			</g>
		</g>
		<g>
			<g>
				<path class="st9" d="M329.1,400.5l0.6-1.3c1-2.1,3.6-3.1,5.7-2l28.3,13.3c2.1,1,3,3.6,2,5.7l-0.6,1.3c-1,2.1-3.6,3.1-5.7,2
					l-28.3-13.3C329,405.2,328.1,402.7,329.1,400.5z"/>
			</g>
			<g>
				<path class="st9" d="M321.6,416.6l0.6-1.3c1-2.1,3.6-3.1,5.7-2l28.3,13.3c2.1,1,3,3.6,2,5.7l-0.6,1.3c-1,2.1-3.6,3.1-5.7,2
					l-28.3-13.3C321.5,421.2,320.6,418.7,321.6,416.6z"/>
			</g>
			<g>
				<path class="st3" d="M314,432.6l0.6-1.3c1-2.1,3.6-3.1,5.7-2l28.3,13.3c2.1,1,3,3.6,2,5.7l-0.6,1.3c-1,2.1-3.6,3.1-5.7,2
					l-28.3-13.3C313.9,437.3,313,434.7,314,432.6z"/>
			</g>
			<g>
				<path class="st3" d="M306.4,448.6l0.6-1.3c1-2.1,3.6-3.1,5.7-2l28.3,13.3c2.1,1,3,3.6,2,5.7l-0.6,1.3c-1,2.1-3.6,3.1-5.7,2
					l-28.3-13.3C306.4,453.3,305.4,450.8,306.4,448.6z"/>
			</g>
		</g>
	</g>
</g>
<g id="CARDBOARD">
	<g>
		<g>
			<g>
				<polygon class="st10" points="392.5,492.2 210.4,492.2 224.2,442.8 378.7,442.8 				"/>
			</g>
			<g>
				<line class="st10" x1="229" y1="442.8" x2="374.5" y2="442.8"/>
			</g>
			<g>
				<line class="st10" x1="239.1" y1="492.2" x2="367.3" y2="492.2"/>
			</g>
		</g>
		<g>
			<polygon class="st10" points="182.8,291.8 142.7,343.8 181.2,479.6 224.2,442.8 			"/>
		</g>
		<g>
			<polygon class="st10" points="420,291.8 460.2,343.8 421.7,479.6 378.7,442.8 			"/>
		</g>
	</g>
</g>
<g id="GROUND">
	<g>
		<g>
			<rect x="362.9" y="526.6" class="st1" width="71.3" height="1"/>
		</g>
		<g>
			<rect x="165.8" y="526.6" class="st1" width="167.9" height="1"/>
		</g>
		<g>
			<rect x="241.9" y="545.2" class="st1" width="147.5" height="1"/>
		</g>
		<g>
			<rect x="199.1" y="545.2" class="st1" width="19.8" height="1"/>
		</g>
	</g>
</g>
</svg>
